<svg width="135" height="124" viewBox="0 0 135 124" fill="none" xmlns="http://www.w3.org/2000/svg">
<path d="M64.4893 92.7194L61.2172 120.289L51.7563 119.969C51.4271 119.959 51.1515 120.217 51.1412 120.546C51.131 120.873 51.3872 121.149 51.7152 121.161L61.7252 121.497C62.0327 121.508 62.2992 121.28 62.3345 120.974L65.6715 92.8596C65.7102 92.5324 65.4756 92.2371 65.1499 92.1984C64.8242 92.1596 64.528 92.3933 64.4893 92.7194Z" fill="#994D2B"/>
<path d="M72.7225 92.5187L74.817 119.681C74.8363 119.92 74.9969 120.126 75.2258 120.2L84.6071 123.272C84.9203 123.374 85.2562 123.204 85.3587 122.89C85.4601 122.578 85.2904 122.242 84.9783 122.138L75.9729 119.192L73.9081 92.4275C73.883 92.098 73.5972 91.8541 73.2692 91.8792C72.94 91.9042 72.6974 92.1904 72.7225 92.5187Z" fill="#994D2B"/>
<path d="M51.2779 120.879C49.9032 119.655 56.7526 114.587 61.5987 120.653C56.083 120.428 53.1366 121.101 51.2779 120.879Z" fill="#994D2B"/>
<path d="M85.0797 123.408C86.8063 122.772 82.2859 115.544 75.5583 119.414C80.7735 121.227 83.2688 122.932 85.0797 123.408Z" fill="#994D2B"/>
<path d="M57.9497 92.407C99.0725 107.172 136.833 56.9587 104.108 12.7934C103.206 11.577 101.534 10.7709 99.4096 10.7675C94.6831 10.7561 87.7209 14.7202 82.0639 26.9725C81.5263 28.1411 81.097 29.3701 80.7519 30.6242C78.5242 38.6765 79.646 47.8153 76.1757 49.2609C75.555 49.5197 74.7874 49.5323 73.8273 49.2484C67.7329 47.4448 74.2874 40.4448 75.9844 29.101C76.219 27.538 76.3602 25.8917 76.3636 24.1645C76.3876 12.1003 71.2624 0.416795 65.282 0.553604C64.5417 0.570705 63.7878 0.770217 63.027 1.17152C56.1069 4.83344 49.9613 9.97175 44.8988 15.9822C24.297 40.4391 21.6559 79.3737 57.9497 92.407Z" fill="#E0AB6C"/>
<path d="M65.282 0.553604C73.0107 7.27091 73.6507 17.2112 72.8262 23.6332C71.185 36.4043 58.0783 53.1155 70.8 55.2589C76.6017 56.237 80.5491 51.5981 80.6494 42.9518C80.6847 39.9044 80.7519 30.6242 80.7519 30.6242C78.1255 40.1153 80.1539 51.1181 73.8273 49.2484C66.8924 47.1974 76.3351 38.4154 76.3636 24.1645C76.3875 12.1003 71.2624 0.416795 65.282 0.553604Z" fill="#D69763"/>
<path d="M57.9497 92.407C99.0725 107.172 136.833 56.9587 104.108 12.7934C103.206 11.577 101.534 10.7709 99.4096 10.7675C105.896 21.841 120.908 67.2228 80.0082 79.8707C56.0773 87.2732 22.8631 57.3418 44.8988 15.9822C24.297 40.439 21.6559 79.3737 57.9497 92.407Z" fill="#D69763"/>
<path d="M63.027 1.17152C58.0135 3.76063 53.3849 7.09876 49.27 10.9853C47.2131 12.9314 45.2918 15.02 43.5014 17.2169C41.7122 19.4161 40.0516 21.7213 38.5574 24.136C35.5643 28.9585 33.1441 34.1584 31.5246 39.6262C29.8891 45.0803 29.0395 50.8069 29.2388 56.5437C29.2786 57.2585 29.2969 57.9768 29.3732 58.6905L29.47 59.7621L29.6067 60.8315L29.675 61.3651C29.7 61.5441 29.7342 61.7197 29.7627 61.8975L29.9426 62.9612C30.0064 63.3158 30.0907 63.6658 30.1613 64.018C30.2399 64.3692 30.3025 64.7249 30.3993 65.0715C30.5816 65.7681 30.749 66.4692 30.9711 67.1544C31.0793 67.4987 31.1761 67.8453 31.2922 68.1861L31.6544 69.2065C31.7148 69.3764 31.7717 69.5474 31.8366 69.7161L32.0394 70.2178L32.446 71.221L32.897 72.2072C33.0473 72.5355 33.1942 72.8639 33.3662 73.1831L33.8639 74.1453C33.9448 74.3072 34.0347 74.4634 34.1259 74.6207L34.3969 75.0893L34.6691 75.559C34.758 75.7152 34.8479 75.8737 34.9493 76.023L35.5347 76.9373C35.6349 77.0867 35.7272 77.2417 35.8308 77.39L36.1463 77.8323L36.7761 78.7159L37.4447 79.5698C37.6702 79.8536 37.8843 80.1455 38.128 80.4134C39.9947 82.624 42.1096 84.6214 44.4034 86.3806L44.6153 86.5493L44.8339 86.7089L45.2736 87.0247L46.1528 87.6574C46.7542 88.0565 47.3566 88.4544 47.9671 88.8397C48.5889 89.2045 49.2051 89.5808 49.8326 89.9319L50.787 90.4415L51.2642 90.6969L51.5023 90.8234L51.7449 90.9409L52.7186 91.4083L53.2049 91.6443L53.4475 91.7606L53.6958 91.8677C54.3564 92.1493 55.0113 92.4469 55.6787 92.7171C56.3495 92.9725 57.0158 93.2392 57.6911 93.4889C58.3745 93.7192 59.0544 93.9632 59.7435 94.1787C65.2592 95.8899 71.1292 96.5477 76.9069 95.9857C79.7906 95.6881 82.6447 95.093 85.4089 94.2151C88.173 93.3441 90.8358 92.1562 93.3539 90.7322C98.405 87.8991 102.837 84.0275 106.443 79.5344C110.034 75.0266 112.832 69.8985 114.637 64.4433C116.453 58.9949 117.332 53.2455 117.216 47.5223C117.117 41.798 116.059 36.1148 114.204 30.7291C113.279 28.0339 112.153 25.4129 110.864 22.8785C109.573 20.3453 108.102 17.9101 106.505 15.5661L105.909 14.6859L105.282 13.8263L104.655 12.9667C104.547 12.8242 104.454 12.6828 104.334 12.538L104.15 12.3192L104.056 12.2108L103.953 12.1117C103.412 11.5781 102.752 11.1905 102.059 10.9294C101.364 10.6695 100.633 10.5361 99.9038 10.495C98.4415 10.4255 96.9973 10.7356 95.6591 11.2498C94.322 11.7788 93.0795 12.5084 91.9383 13.3623C90.7971 14.2151 89.7584 15.1921 88.8017 16.2399L88.4429 16.6321L88.099 17.0379C87.8724 17.3104 87.6377 17.576 87.4259 17.8599L86.779 18.7024L86.1651 19.57C85.369 20.7386 84.6185 21.9379 83.9488 23.1818C83.598 23.7951 83.2894 24.4301 82.9693 25.0583C82.8042 25.3718 82.663 25.6945 82.5103 26.0137L82.0639 26.9725L82.5331 26.0251C82.6926 25.7093 82.8418 25.3901 83.0126 25.0811C83.3475 24.4609 83.672 23.8339 84.0342 23.2308C84.7289 22.0052 85.5068 20.8264 86.3268 19.6829L86.9555 18.8358L87.6172 18.015C87.8325 17.7368 88.0739 17.4803 88.3029 17.2158L88.6502 16.8213L89.017 16.4417C89.9862 15.4281 91.034 14.4899 92.1706 13.6793C93.3061 12.8698 94.5339 12.1892 95.8311 11.7104C97.1306 11.2441 98.5098 10.9807 99.8685 11.0742C100.545 11.1255 101.214 11.2634 101.834 11.5108C102.454 11.7571 103.027 12.1151 103.48 12.5825L103.568 12.668L103.644 12.7615L103.798 12.9496C103.899 13.0807 103.999 13.2335 104.101 13.3749L104.703 14.2379L105.306 15.1021L105.879 15.9856C107.41 18.3353 108.815 20.7694 110.033 23.2935C111.252 25.8165 112.304 28.4158 113.167 31.0768C114.89 36.3941 115.818 41.9645 115.813 47.5337C115.824 53.103 114.866 58.6574 113.016 63.8858C111.181 69.1199 108.4 74.0051 104.883 78.261C103.126 80.3906 101.158 82.3379 99.0474 84.1061C98.5303 84.561 97.9734 84.9669 97.4358 85.3944C97.1693 85.6122 96.8823 85.8026 96.6044 86.0055L95.7662 86.6063C94.6227 87.3702 93.4656 88.1112 92.2549 88.7645C89.8472 90.0812 87.328 91.2008 84.7085 92.0102C82.0947 92.8311 79.3988 93.3932 76.6746 93.6759C73.948 93.9529 71.1941 93.9415 68.4664 93.6622C65.7353 93.384 63.0349 92.8265 60.3983 92.0353C59.74 91.837 59.0886 91.6089 58.4349 91.4003C57.7834 91.1655 57.1376 90.9169 56.4896 90.6775C55.8461 90.4255 55.214 90.1462 54.5762 89.8829L54.3359 89.7814L54.1013 89.6731L53.632 89.4542L52.6947 89.0141C50.2142 87.8045 47.8316 86.3977 45.6221 84.7582C43.4103 83.12 41.3705 81.2571 39.5596 79.1856C39.3239 78.9359 39.1155 78.6623 38.8968 78.3978L38.2465 77.5963L37.6349 76.7663L37.3285 76.3513C37.226 76.2123 37.136 76.0663 37.0403 75.925L36.4663 75.0665C36.3684 74.9251 36.2807 74.7769 36.193 74.6298L35.9276 74.1875L35.6623 73.744C35.5723 73.5969 35.4835 73.451 35.4037 73.2971L34.9151 72.3873C34.7466 72.0875 34.6008 71.7762 34.4516 71.4661L34.0051 70.5324L33.6008 69.5805L33.3981 69.105C33.3343 68.9466 33.2762 68.7824 33.2147 68.6217L32.8537 67.6526C32.7364 67.3265 32.6373 66.9971 32.5291 66.6687C32.3047 66.0166 32.1328 65.3462 31.9471 64.6793C31.848 64.3475 31.782 64.0078 31.7023 63.6726C31.626 63.334 31.5394 62.9988 31.4722 62.6602L31.2797 61.6398C31.249 61.47 31.2137 61.3001 31.1852 61.1291L31.11 60.6149L30.9597 59.5866L30.8458 58.5514C30.7592 57.8628 30.7296 57.1696 30.6784 56.4765C30.3811 50.9254 31.102 45.3186 32.6077 39.9386C33.3571 37.2446 34.2933 34.6019 35.4117 32.0333C36.5244 29.4613 37.8023 26.9611 39.2316 24.5464C42.0926 19.7182 45.5788 15.2583 49.5627 11.2885C53.5535 7.32564 58.0784 3.8849 63.027 1.17152Z" fill="#CC834B"/>
<path d="M109.105 44.8181C108.926 44.8181 108.712 44.5433 108.915 44.362C108.958 44.3256 109.003 44.3107 109.045 44.3107C109.184 44.3107 109.303 44.4817 109.284 44.6322C109.255 44.7668 109.184 44.8181 109.105 44.8181Z" fill="#D18D58"/>
<path d="M90.8631 50.1605C90.6445 50.1605 90.4543 49.6805 90.6342 49.5209C90.6821 49.4844 90.7265 49.4673 90.7686 49.4673C90.9759 49.4673 91.0955 49.8732 91.0363 50.0453C90.9816 50.1274 90.9224 50.1605 90.8631 50.1605Z" fill="#DB9F60"/>
<path d="M114.985 47.9727C114.614 47.9727 114.405 47.6261 114.362 47.2806C114.321 46.934 114.444 46.5886 114.741 46.5886C114.877 46.5886 115.051 46.6627 115.263 46.844C115.496 47.1564 115.721 47.6352 115.302 47.8997C115.186 47.9499 115.08 47.9727 114.985 47.9727Z" fill="#D18D58"/>
<path d="M107.644 36.4123C107.114 36.4123 106.91 35.5652 107.498 35.3828C107.556 35.3657 107.611 35.3566 107.663 35.3566C108.191 35.3566 108.397 36.2059 107.808 36.3872C107.749 36.4043 107.694 36.4123 107.644 36.4123Z" fill="#D18D58"/>
<path d="M107.431 59.7405C107.349 59.7405 107.274 59.7325 107.208 59.7165C106.801 59.5182 106.859 58.866 107.298 58.7497C107.459 58.7087 107.615 58.6528 107.769 58.5856C108.03 58.4442 108.331 58.1945 108.606 58.1945C108.746 58.1945 108.878 58.2584 108.997 58.434C109.336 59.1636 108.136 59.7405 107.431 59.7405Z" fill="#D18D58"/>
<path d="M108.302 52.9388C108.221 52.9388 108.142 52.8955 108.11 52.7963C107.783 52.338 108.053 51.5434 108.543 51.5434C108.654 51.5434 108.778 51.5844 108.909 51.6824C109.104 51.9162 108.824 52.1248 108.578 52.1248C108.516 52.1248 108.456 52.1122 108.407 52.0815L108.404 52.0883L108.406 52.0815L108.404 52.0883V52.0894C108.344 52.2867 108.443 52.4885 108.51 52.672C108.562 52.8305 108.431 52.9388 108.302 52.9388Z" fill="#D18D58"/>
<path d="M101.729 49.6007C101.524 49.6007 101.293 49.4593 101.397 49.2541C101.441 49.1777 101.538 49.1412 101.642 49.1412C101.829 49.1412 102.035 49.2541 101.991 49.4365C101.963 49.5516 101.852 49.6007 101.729 49.6007Z" fill="#DB9F60"/>
<path d="M96.8663 67.8555C96.7718 67.8555 96.7228 67.7529 96.7251 67.6503C96.7285 67.5477 96.7832 67.4451 96.8994 67.4451C96.9221 67.4451 96.9461 67.4485 96.9711 67.4565C97.1169 67.5135 97.0884 67.7062 96.9996 67.8008C96.9483 67.8396 96.9039 67.8555 96.8663 67.8555Z" fill="#DB9F60"/>
<path d="M82.8144 61.9625C82.6709 61.9625 82.6447 61.8257 82.6811 61.6889C82.7153 61.5532 82.8133 61.4164 82.9169 61.4164C82.9659 61.4164 83.0171 61.4472 83.0638 61.5213C83.0969 61.6478 83.0035 61.8838 82.8919 61.9511C82.8634 61.9579 82.8383 61.9625 82.8144 61.9625Z" fill="#DB9F60"/>
<path d="M105.549 76.2351C105.431 76.2351 105.309 76.1906 105.226 76.1039C105.201 76.1085 105.176 76.1108 105.151 76.1108C104.809 76.1108 104.521 75.632 104.877 75.3549C104.988 75.2569 105.125 75.2135 105.266 75.2135C105.641 75.2135 106.033 75.5225 105.945 75.925C105.902 76.1359 105.728 76.2351 105.549 76.2351Z" fill="#D18D58"/>
<path d="M99.1625 72.8832C99.1431 72.8832 99.1249 72.8821 99.1021 72.8787C98.3436 72.6712 98.8367 71.7192 99.2501 71.7192C99.4039 71.7192 99.5474 71.8515 99.6101 72.2026C99.5998 72.4956 99.5087 72.8832 99.1625 72.8832Z" fill="#D18D58"/>
<path d="M94.0783 62.0651C94.0259 62.0651 93.9724 62.0548 93.9154 62.0332C93.469 61.8542 93.6637 61.218 94.0657 61.218C94.1181 61.218 94.1717 61.2271 94.2286 61.2511C94.6751 61.4301 94.478 62.0651 94.0783 62.0651Z" fill="#DB9F60"/>
<path d="M100.401 61.9477C100.35 61.9477 100.296 61.9374 100.239 61.9135C99.7922 61.7345 99.9892 61.0983 100.389 61.0983C100.441 61.0983 100.495 61.1097 100.551 61.1314C100.998 61.3104 100.804 61.9477 100.401 61.9477Z" fill="#DB9F60"/>
<path d="M88.4247 76.4334C88.2926 76.3673 88.1764 76.2784 88.0955 76.1553C87.9668 75.8759 88.2072 75.5636 88.4851 75.5636C88.5363 75.5636 88.5887 75.5738 88.6388 75.5978C88.7755 75.6605 88.9167 75.7106 89.0636 75.7482C89.0249 75.7391 88.9907 75.73 88.9531 75.7197C89.1388 75.7904 89.3711 75.7551 89.5602 75.8121C89.19 76.0219 88.8085 76.2305 88.4247 76.4334Z" fill="#DB9F60"/>
<path d="M89.4407 76.6329C89.4247 76.6329 89.4088 76.6329 89.3917 76.6307C89.0944 76.5999 88.7163 76.5748 88.4247 76.4334C88.8086 76.2305 89.1901 76.0219 89.5602 75.8121C89.64 75.8372 89.7129 75.8794 89.7721 75.9535C89.9908 76.2225 89.7744 76.6329 89.4407 76.6329Z" fill="#D18D58"/>
<path d="M92.3073 72.5241C92.2879 72.5241 92.2651 72.5218 92.2412 72.5161C91.9383 72.1616 92.4417 71.6531 92.8323 71.6531C93.0055 71.6531 93.1569 71.7523 93.2093 72.0054C93.2105 72.1445 93.1205 72.2015 93.0157 72.2015C92.887 72.2015 92.7378 72.1194 92.6934 72.002L92.6877 72.0043L92.6866 72.0054C92.4838 72.108 92.5408 72.5241 92.3073 72.5241ZM92.6934 72.002L92.6877 72.0043L92.6934 72.002Z" fill="#DB9F60"/>
<path d="M105.564 66.0884C105.424 66.0884 105.308 65.9676 105.451 65.8011C105.503 65.7088 105.59 65.67 105.669 65.67C105.809 65.67 105.926 65.7909 105.784 65.9562C105.732 66.0485 105.645 66.0884 105.564 66.0884Z" fill="#D18D58"/>
<path d="M92.9314 84.7161C92.7754 84.7161 92.6877 84.4208 92.7811 84.276C92.83 84.227 92.8756 84.2065 92.9155 84.2065C93.0703 84.2065 93.1603 84.5029 93.0646 84.6465C93.0168 84.6967 92.9724 84.7161 92.9314 84.7161Z" fill="#D18D58"/>
<path d="M89.9349 67.1407C89.7413 67.1407 89.5226 66.7975 89.7504 66.6961C89.7664 66.6881 89.7857 66.6847 89.8039 66.6847C89.9839 66.6847 90.1969 66.98 90.0295 67.1099C89.9998 67.1316 89.9679 67.1407 89.9349 67.1407Z" fill="#DB9F60"/>
<path d="M75.9069 72.0054C75.8921 72.0054 75.8784 72.0043 75.8647 72.0031C75.5458 71.9176 75.7531 71.5915 75.965 71.5915C76.0219 71.5915 76.08 71.6166 76.1278 71.6771C76.2542 71.8389 76.0743 72.0054 75.9069 72.0054Z" fill="#DB9F60"/>
<path d="M71.6576 54.8188C71.653 54.8188 71.6507 54.8188 71.6462 54.8188C71.6519 54.6786 71.8706 54.5611 72.0505 54.5611C72.1302 54.5611 72.1997 54.5828 72.243 54.6352C72.2669 54.6706 72.2794 54.7036 72.2828 54.7356C72.1758 54.7721 72.0676 54.8051 71.9582 54.8097C72.0027 54.8028 72.0482 54.796 72.0926 54.7892C71.948 54.8108 71.8022 54.8188 71.6576 54.8188Z" fill="#D18D58"/>
<path d="M74.2327 85.8219C73.9434 85.8219 73.6814 85.5198 73.7395 85.2291C73.4537 84.9646 73.6268 84.3831 74.0527 84.3831C74.0983 84.3831 74.1495 84.3911 74.2008 84.406C74.7418 84.5314 74.9502 85.2941 74.5539 85.6794C74.4548 85.7809 74.3409 85.8219 74.2327 85.8219Z" fill="#D18D58"/>
<path d="M71.0893 90.5031C70.9868 90.5031 70.8706 90.486 70.7465 90.4506C70.3877 90.2352 70.3661 89.9057 70.5005 89.6435C70.3752 89.4337 70.3877 89.143 70.6656 88.9879C70.8262 88.9241 70.9708 88.8956 71.0995 88.8956C71.5836 88.8956 71.8376 89.2957 71.8421 89.6982C71.8467 90.1006 71.6029 90.5031 71.0893 90.5031Z" fill="#D18D58"/>
<path d="M72.9753 77.618C72.825 77.618 72.6849 77.553 72.5904 77.382C72.374 76.8142 72.85 76.5452 73.2715 76.5452C73.7099 76.5452 74.0892 76.8382 73.5585 77.3957C73.3899 77.5074 73.1712 77.618 72.9753 77.618Z" fill="#DB9F60"/>
<path d="M76.8545 89.7085C76.6597 89.7085 76.4684 89.6024 76.408 89.3596C76.3158 88.9993 76.6096 88.7702 76.8955 88.7702C77.0914 88.7702 77.2804 88.8762 77.3431 89.1202C77.4331 89.4793 77.1392 89.7085 76.8545 89.7085Z" fill="#D18D58"/>
<path d="M78.8191 82.0312C78.8305 82.0164 78.8407 82.0016 78.8533 81.9879L78.8578 81.9833C78.843 82.0004 78.8328 82.0152 78.8191 82.0312Z" fill="#D18D58"/>
<path d="M84.213 90.9295C84.1526 90.9295 84.0911 90.9169 84.0364 90.893C83.7688 90.8554 83.5193 90.6251 83.6196 90.291C83.6389 90.2363 83.6765 90.1508 83.7141 90.1143C83.8189 89.9707 83.9863 89.9011 84.1571 89.9011C84.3063 89.9011 84.4601 89.957 84.5706 90.0642C84.9829 90.5133 84.582 90.9295 84.213 90.9295ZM83.7779 90.4985C83.7779 90.519 83.7813 90.5396 83.7836 90.5612L83.7972 90.592C83.7893 90.5635 83.7813 90.5327 83.7779 90.4985Z" fill="#D18D58"/>
<path d="M83.9408 71.3772C83.7472 71.3772 83.557 71.2712 83.4944 71.0272C83.4033 70.6681 83.6983 70.4389 83.9841 70.4389C84.1777 70.4389 84.3679 70.545 84.4306 70.7889C84.5217 71.1481 84.2267 71.3772 83.9408 71.3772Z" fill="#DB9F60"/>
<path d="M61.1682 89.5716C61.0031 89.5716 60.8346 89.493 60.7366 89.3607C60.42 89.2205 60.2685 88.7132 60.6671 88.4908C60.7605 88.4373 60.8585 88.411 60.9564 88.411C61.3539 88.411 61.7297 88.8124 61.6022 89.2319C61.5372 89.4702 61.3562 89.5716 61.1682 89.5716Z" fill="#D18D58"/>
<path d="M76.334 93.709C76.375 93.6736 76.4148 93.6565 76.4524 93.6565C76.4854 93.6565 76.5162 93.6679 76.5447 93.6896C76.4752 93.6964 76.4057 93.7021 76.334 93.709Z" fill="#D18D58"/>
<path d="M76.5561 94.377C76.5242 94.377 76.4866 94.3679 76.4433 94.3508C76.3226 94.2482 76.2349 93.9028 76.2918 93.7546C76.3055 93.7363 76.3203 93.7215 76.334 93.709C76.4057 93.7021 76.4752 93.6964 76.5447 93.6896C76.6278 93.7489 76.6927 93.8823 76.7155 94.0168C76.7485 94.1969 76.7098 94.377 76.5561 94.377Z" fill="#C77A43"/>
<path d="M66.0564 89.9684C65.9779 89.9684 65.9015 89.9262 65.8776 89.8282C65.8412 89.6845 65.9585 89.5922 66.0724 89.5922C66.1498 89.5922 66.2261 89.6355 66.2512 89.7324C66.2876 89.8772 66.1692 89.9684 66.0564 89.9684Z" fill="#D18D58"/>
<path d="M83.2165 78.7706C83.1538 78.6919 83.1493 78.5882 83.2723 78.5004C83.3178 78.4787 83.3634 78.4696 83.4078 78.4696C83.5148 78.4696 83.6151 78.5232 83.6788 78.5916C83.5251 78.652 83.3725 78.7113 83.2165 78.7706Z" fill="#DB9F60"/>
<path d="M83.4909 78.896C83.3861 78.896 83.2757 78.8436 83.2164 78.7706C83.3725 78.7113 83.5251 78.652 83.6788 78.5916C83.7916 78.7159 83.7893 78.8892 83.5023 78.896C83.4989 78.896 83.4966 78.896 83.4909 78.896Z" fill="#D18D58"/>
<path d="M57.6296 79.7374C57.2561 79.6838 57.5328 79.238 57.7811 79.2255C58.1547 79.279 57.8779 79.726 57.6296 79.7374Z" fill="#D18D58"/>
<path d="M90.1388 86.7568C90.0602 86.7568 89.9839 86.7146 89.96 86.6166C89.9235 86.4729 90.0408 86.3806 90.1547 86.3806C90.2322 86.3806 90.3085 86.4239 90.3335 86.5208C90.3711 86.6644 90.2527 86.7568 90.1388 86.7568Z" fill="#D18D58"/>
<path d="M71.8467 65.0852C71.8307 65.0852 71.8125 65.084 71.7954 65.0783C71.5483 65.0031 71.6622 64.5117 71.8911 64.5117C71.923 64.5117 71.9538 64.5185 71.9891 64.5379C72.1679 64.6531 72.0688 65.0852 71.8467 65.0852Z" fill="#DB9F60"/>
<path d="M47.7666 57.7579C47.6448 57.7579 47.5878 57.6348 47.5969 57.5151C47.606 57.3931 47.6812 57.2711 47.827 57.2711C47.8395 57.2711 47.8509 57.2711 47.8623 57.2722C48.0958 57.3064 48.0604 57.6086 47.901 57.7157C47.8498 57.7454 47.8053 57.7579 47.7666 57.7579Z" fill="#DB9F60"/>
<path d="M32.1691 47.8017C31.9801 47.8017 31.9482 47.6432 31.9994 47.4836C32.0507 47.3251 32.1828 47.1655 32.3206 47.1655C32.3286 47.1655 32.3354 47.1655 32.3434 47.1678C32.6896 47.235 32.4151 47.7196 32.2169 47.7994C32.1987 47.8005 32.1839 47.8017 32.1691 47.8017Z" fill="#D18D58"/>
<path d="M56.4816 69.5816C56.3062 69.5816 56.1308 69.5064 56.034 69.3581C56.0317 69.3581 56.0283 69.3581 56.0249 69.3581C55.5716 69.3581 55.2653 68.6638 55.7766 68.3891C55.8928 68.3207 56.0192 68.2888 56.1445 68.2888C56.5716 68.2888 56.9986 68.6456 56.985 69.0982C56.9804 69.4243 56.7321 69.5816 56.4816 69.5816Z" fill="#DB9F60"/>
<path d="M57.4087 75.5681C57.0943 75.5681 56.8973 75.3606 56.8199 75.111C56.5716 75.0414 56.3666 74.8123 56.4622 74.4896C56.6593 74.0484 56.9565 73.8785 57.2469 73.8785C57.9827 73.8785 58.6751 74.9719 57.6023 75.5442C57.5339 75.5601 57.4702 75.5681 57.4087 75.5681Z" fill="#DB9F60"/>
<path d="M49.5308 64.2552C49.4818 64.2552 49.4294 64.2484 49.3736 64.2313C48.5411 63.8413 49.2347 62.8689 49.7301 62.8689C49.787 62.8689 49.8417 62.8825 49.8907 62.911C49.8497 62.9794 49.8258 63.0604 49.8258 63.1459C49.8246 63.2257 49.8463 63.3123 49.8941 63.399C49.9488 63.4993 50.0216 63.5643 50.1025 63.6065C50.0239 63.9132 49.8554 64.2552 49.5308 64.2552Z" fill="#DB9F60"/>
<path d="M57.5442 63.1789C57.5419 63.1561 57.5408 63.1333 57.5374 63.1117L57.5385 63.106C57.5385 63.1322 57.5431 63.155 57.5442 63.1789Z" fill="#DB9F60"/>
<path d="M67.6441 66.0132L67.6122 65.9961C67.5951 65.9835 67.578 65.9699 67.5609 65.9562C67.5894 65.9778 67.6179 65.9961 67.6441 66.0132ZM67.5609 65.9562C67.545 65.9448 67.5279 65.9311 67.512 65.9163C67.5279 65.93 67.545 65.9425 67.5609 65.9562Z" fill="#DB9F60"/>
<path d="M45.6619 50.2528C45.5764 50.2528 45.4876 50.2289 45.3965 50.1741C44.9261 49.8834 45.2291 49.2222 45.671 49.2222C45.7541 49.2222 45.8441 49.2461 45.9341 49.3008C46.4045 49.5915 46.1026 50.2528 45.6619 50.2528Z" fill="#DB9F60"/>
<path d="M53.2573 51.4179C53.173 51.4179 53.0831 51.394 52.9931 51.337C52.5227 51.0463 52.8245 50.385 53.2664 50.385C53.3507 50.385 53.4395 50.4101 53.5295 50.466C53.9999 50.7567 53.6981 51.4179 53.2573 51.4179Z" fill="#DB9F60"/>
<path d="M37.0847 66.7052C36.4981 66.7052 35.7727 66.362 35.5187 65.8786C35.4276 65.548 35.7214 65.247 36.0289 65.247C36.1155 65.247 36.2032 65.2721 36.2852 65.3257C36.4059 65.4078 36.5323 65.4796 36.6633 65.5446C37.2327 65.6768 38.104 66.0918 37.3569 66.6778C37.2715 66.6972 37.1792 66.7052 37.0847 66.7052Z" fill="#D18D58"/>
<path d="M67.8867 80.2823C67.8035 80.2823 67.7147 80.2584 67.6236 80.2025C67.1532 79.9118 67.455 79.2494 67.8958 79.2494C67.9812 79.2494 68.07 79.2745 68.1611 79.3304C68.6304 79.6211 68.3286 80.2823 67.8867 80.2823Z" fill="#DB9F60"/>
<path d="M57.4167 85.0376C57.1752 85.0376 56.9873 84.6101 57.3494 84.577C57.5385 84.5907 57.7299 84.8198 57.5613 84.9806C57.5135 85.0205 57.4633 85.0376 57.4167 85.0376Z" fill="#D18D58"/>
<path d="M64.7991 74.3061C64.5463 74.3061 63.9802 73.8945 64.4119 73.7155C64.4187 73.7155 64.4232 73.7155 64.4289 73.7155C64.6818 73.7155 65.2467 74.1271 64.815 74.3061C64.8116 74.3061 64.8048 74.3061 64.7991 74.3061Z" fill="#DB9F60"/>
<path d="M53.5431 78.6976C53.509 78.6976 53.4725 78.6885 53.4372 78.6657C53.2482 78.5506 53.3689 78.2849 53.5466 78.2849C53.5807 78.2849 53.616 78.2952 53.6513 78.3168C53.8393 78.4343 53.7185 78.6976 53.5431 78.6976Z" fill="#D18D58"/>
<path d="M42.4866 61.8861C42.4285 61.7778 42.3704 61.6695 42.3123 61.5623C42.3966 61.6307 42.4593 61.7356 42.4866 61.8861Z" fill="#DB9F60"/>
<path d="M41.3557 62.4094C41.2133 62.4094 41.0709 62.2566 41.1677 62.097C41.2554 61.7231 41.6563 61.4563 41.9946 61.4563C42.1142 61.4563 42.2247 61.4894 42.3123 61.5623C42.3704 61.6695 42.4285 61.7778 42.4866 61.8861C42.4912 61.9101 42.4934 61.9397 42.4969 61.9682C42.4741 62.1118 42.383 62.1688 42.2793 62.1688C42.1142 62.1688 41.9115 62.0252 41.8807 61.8565L41.8762 61.8587C41.6916 61.942 41.6062 62.1449 41.5162 62.3125C41.4764 62.382 41.4149 62.4094 41.3557 62.4094ZM41.8807 61.8553L41.8796 61.8565H41.8807V61.8553Z" fill="#D18D58"/>
<path d="M58.5612 57.4398C58.3676 57.4398 58.2059 57.254 58.4325 57.0682C58.4997 56.9861 58.5874 56.9519 58.6705 56.9519C58.8642 56.9519 59.0236 57.1388 58.7992 57.3247C58.732 57.4056 58.6432 57.4398 58.5612 57.4398Z" fill="#DB9F60"/>
<path d="M39.5722 77.1334C39.341 77.1334 39.2851 76.6295 39.5232 76.5315C39.5539 76.5212 39.5813 76.5167 39.6063 76.5167C39.8409 76.5167 39.8478 76.9237 39.7191 77.073C39.6656 77.1152 39.6154 77.1334 39.5722 77.1334Z" fill="#D18D58"/>
<path d="M69.5119 58.4648C69.4789 58.4648 69.4424 58.4545 69.406 58.4328C69.2192 58.3165 69.3388 58.0532 69.5164 58.0532C69.5495 58.0532 69.5848 58.0612 69.6201 58.084C69.8103 58.2002 69.6896 58.4648 69.5119 58.4648Z" fill="#DB9F60"/>
<path d="M39.7122 55.4413C39.6541 55.2612 39.596 55.0822 39.5402 54.8997C39.7407 54.9579 39.9104 55.3159 39.7122 55.4413Z" fill="#DB9F60"/>
<path d="M39.6131 55.4709C39.3659 55.4709 39.1427 54.975 39.4502 54.8963C39.4605 54.8929 39.473 54.8929 39.4844 54.8929C39.5037 54.8929 39.522 54.8952 39.5402 54.8997C39.596 55.0821 39.6541 55.2611 39.7122 55.4413C39.7076 55.4447 39.7031 55.447 39.6985 55.4481C39.67 55.4641 39.6404 55.4709 39.6131 55.4709Z" fill="#D18D58"/>
<path d="M43.4854 33.5393C43.2952 33.5393 43.244 33.423 43.2713 33.3068C43.2998 33.1916 43.408 33.0765 43.5344 33.0765C43.5788 33.0765 43.6255 33.0901 43.6734 33.1243C43.8658 33.2703 43.6825 33.5222 43.4877 33.5393C43.4877 33.5393 43.4877 33.5393 43.4854 33.5393Z" fill="#DB9F60"/>
<path d="M45.5127 48.4606C45.2439 48.4606 44.9717 48.2417 44.9535 47.9624C44.5435 47.7458 44.6061 46.9728 45.1927 46.9728C45.1972 46.9728 45.2006 46.9728 45.2052 46.9728C45.2132 46.9728 45.22 46.9728 45.2268 46.9728C45.8156 46.9728 46.2313 47.6979 45.9295 48.2064C45.8259 48.3865 45.6687 48.4606 45.5127 48.4606Z" fill="#DB9F60"/>
<path d="M43.3431 54.2693C42.8568 54.1803 42.7258 53.8155 42.7953 53.4838C42.6073 53.2979 42.539 52.9924 42.785 52.7507C43.0117 52.5751 43.2258 52.501 43.4171 52.501C44.3396 52.501 44.7268 54.2088 43.3431 54.2693Z" fill="#DB9F60"/>
<path d="M41.9011 40.235C41.785 40.235 41.6711 40.1905 41.5617 40.0788C41.1085 39.4472 41.7895 38.9809 42.2872 38.9809C42.646 38.9809 42.9079 39.2237 42.5799 39.8223C42.4057 40.0218 42.1529 40.235 41.9011 40.235Z" fill="#DB9F60"/>
<path d="M49.3167 51.7965C49.1561 51.7965 48.9955 51.7201 48.893 51.5354C48.6675 51.1318 49.0263 50.7647 49.3805 50.7647C49.5411 50.7647 49.7028 50.8411 49.8053 51.0258C50.0296 51.4282 49.6709 51.7965 49.3167 51.7965Z" fill="#DB9F60"/>
<path d="M49.3736 43.2015C49.3804 43.1809 49.3884 43.1638 49.3964 43.1456L49.3998 43.1399C49.3884 43.1615 49.3827 43.1798 49.3736 43.2015Z" fill="#DB9F60"/>
<path d="M57.3665 51.0144C57.3437 51.0144 57.3198 51.0121 57.297 51.0098C57.2708 51.0121 57.2458 51.0144 57.2184 51.0144C56.9508 51.0144 56.6832 50.8399 56.6934 50.4968C56.6991 50.4352 56.7139 50.3349 56.7458 50.2859C56.8346 50.0499 57.0772 49.9153 57.3198 49.9153C57.4257 49.9153 57.5305 49.9416 57.6251 49.9951C58.2423 50.3873 57.8027 51.0144 57.3665 51.0144ZM56.9144 50.6689C56.9235 50.6894 56.9337 50.7111 56.9406 50.7316L56.9645 50.7624C56.9462 50.7339 56.9292 50.7031 56.9144 50.6689Z" fill="#DB9F60"/>
<path d="M45.4296 25.829C45.2884 25.829 45.1483 25.7686 45.0469 25.6318H45.0503C45.0606 25.6329 45.0708 25.6329 45.0811 25.6329C45.0833 25.6329 45.0833 25.6329 45.0833 25.6329C45.0845 25.6329 45.0845 25.6329 45.0856 25.6329C45.5366 25.6306 45.6574 25.072 45.4011 24.8144C45.4 24.8132 45.3966 24.8098 45.3954 24.8086C45.4273 24.8018 45.4592 24.7995 45.4911 24.7995C45.6528 24.7995 45.8123 24.8759 45.9148 25.0606C46.1391 25.4619 45.7827 25.829 45.4296 25.829Z" fill="#DB9F60"/>
<path d="M51.6184 30.6493C51.4578 30.6493 51.2972 30.5729 51.1947 30.3882C50.9692 29.9869 51.3291 29.6186 51.6833 29.6186C51.8439 29.6186 52.0034 29.6939 52.107 29.8797C52.3314 30.2821 51.9726 30.6493 51.6184 30.6493Z" fill="#DB9F60"/>
<path d="M32.8434 56.0295C32.7181 56.0295 32.5951 55.9931 32.4995 55.9133C32.1316 55.8483 31.84 55.3649 32.1908 55.024C32.3207 54.8963 32.4858 54.8382 32.6521 54.8382C32.9698 54.8382 33.2898 55.0457 33.3627 55.3797C33.4709 55.797 33.1543 56.0295 32.8434 56.0295Z" fill="#D18D58"/>
<path d="M50.3189 63.6578C50.2449 63.6578 50.1708 63.6418 50.1025 63.6065C50.0216 63.5643 49.9487 63.4993 49.8941 63.399C49.8462 63.3123 49.8246 63.2257 49.8257 63.1459C49.8257 63.0604 49.8497 62.9794 49.8907 62.911C49.9909 62.7423 50.1868 62.6294 50.3827 62.6294C50.5444 62.6294 50.7039 62.7058 50.8064 62.8894C51.0307 63.2929 50.6742 63.6578 50.3189 63.6578Z" fill="#DB9F60"/>
<path d="M38.5004 62.6545C38.3637 62.6545 38.2772 62.5302 38.2635 62.4048C38.2476 62.2806 38.3034 62.1563 38.4491 62.1563C38.4685 62.1563 38.4901 62.1574 38.514 62.1643C38.7168 62.2304 38.8033 62.585 38.5528 62.65C38.5357 62.6522 38.5175 62.6545 38.5004 62.6545Z" fill="#D18D58"/>
<path d="M50.3759 56.7489C50.3599 56.7489 50.3417 56.7478 50.3212 56.7455C50.1037 56.644 49.7985 56.0159 50.1993 56.0159C50.2176 56.0159 50.2347 56.0181 50.254 56.0204C50.4727 56.1208 50.7779 56.7489 50.3759 56.7489Z" fill="#DB9F60"/>
<path d="M38.1826 55.0719C38.1177 55.0719 38.0551 55.0422 38.0129 54.967C37.9229 54.8063 38.0664 54.6592 38.2077 54.6592C38.2726 54.6592 38.3375 54.69 38.3774 54.7629C38.4685 54.9248 38.3239 55.0719 38.1826 55.0719Z" fill="#D18D58"/>
<path d="M36.3775 34.7398C36.1805 34.7398 35.9937 34.4389 36.0631 34.2336L36.0563 34.2314C36.0461 34.2302 36.0335 34.2302 36.0221 34.2302C35.8331 34.2302 35.6679 34.3579 35.513 34.456C35.4766 34.4776 35.4436 34.4867 35.4105 34.4867C35.2272 34.4867 35.1098 34.2051 35.3092 34.0923C35.4697 33.9156 35.7135 33.8323 35.9492 33.8323C36.3877 33.8323 36.7932 34.1242 36.5575 34.6406C36.5005 34.7102 36.439 34.7398 36.3775 34.7398ZM36.0574 34.2314H36.0654H36.0574Z" fill="#D18D58"/>
<path d="M53.2664 38.6229C53.1251 38.6229 52.9816 38.583 52.9839 38.4097C53.0112 38.2444 53.1297 38.184 53.2561 38.184C53.5272 38.184 53.8438 38.4679 53.3951 38.615C53.3552 38.6184 53.3108 38.6229 53.2664 38.6229Z" fill="#DB9F60"/>
<path d="M57.4827 57.3361C57.4178 57.3361 57.354 57.3064 57.3118 57.2323C57.223 57.0704 57.3665 56.9234 57.5077 56.9234C57.5715 56.9234 57.6353 56.9553 57.6763 57.0271C57.7674 57.189 57.6228 57.3361 57.4827 57.3361Z" fill="#DB9F60"/>
<path d="M62.4688 44.9891C62.405 44.9891 62.3413 44.9572 62.2991 44.8842C62.2091 44.7235 62.3527 44.5752 62.4939 44.5752C62.5599 44.5752 62.6226 44.606 62.6636 44.6801C62.7547 44.8409 62.6101 44.9891 62.4688 44.9891Z" fill="#DB9F60"/>
<path d="M37.308 27.4365C37.3068 27.4365 37.3045 27.4365 37.3034 27.4365C37.243 27.4331 37.1952 27.4057 37.1588 27.3647C37.2487 27.1971 37.3399 27.0307 37.431 26.8631C37.5859 27.017 37.5574 27.4365 37.308 27.4365Z" fill="#C77A43"/>
<path d="M54.4281 9.90675C54.3552 9.90675 54.2755 9.88965 54.1935 9.84747C53.2391 9.18281 53.9475 8.23883 54.6434 8.23883C54.96 8.23883 55.2721 8.4315 55.4292 8.92971C55.4463 9.36978 55.1696 9.58183 54.8632 9.61376C54.7812 9.78021 54.6217 9.90675 54.4281 9.90675Z" fill="#DB9F60"/>
<path d="M59.7764 18.9646C59.7036 18.9646 59.625 18.9453 59.543 18.9031C59.0885 18.6739 59.0772 17.975 59.5122 17.7162C59.6136 17.649 59.7115 17.6205 59.8015 17.6205C60.15 17.6205 60.3869 18.0389 60.2662 18.3467C60.3095 18.6352 60.0862 18.9646 59.7764 18.9646Z" fill="#DB9F60"/>
<path d="M41.9502 28.6724C41.539 28.6724 41.2919 28.1263 41.5903 27.823C41.6928 27.7204 41.785 27.6109 41.8727 27.4935C42.031 27.1321 42.3431 26.6579 42.6631 26.6579C42.8135 26.6579 42.9638 26.7616 43.1028 27.0261C43.1221 27.6463 42.5891 28.4842 41.9889 28.6701C41.9752 28.6724 41.9639 28.6724 41.9502 28.6724Z" fill="#DB9F60"/>
<path d="M64.3389 11.0651C64.2353 11.0651 64.1476 10.9978 64.1636 10.8302C64.1932 10.7105 64.3184 10.6056 64.4346 10.6056C64.4938 10.6056 64.5508 10.633 64.5941 10.698C64.7057 10.8975 64.5029 11.0651 64.3389 11.0651Z" fill="#DB9F60"/>
<path d="M57.5589 13.6257C57.4075 13.6257 57.2662 13.433 57.4006 13.2859C57.4416 13.2392 57.4929 13.2198 57.5407 13.2198C57.6933 13.2198 57.8334 13.4125 57.699 13.5596C57.6569 13.6063 57.6091 13.6257 57.5589 13.6257Z" fill="#DB9F60"/>
<path d="M53.4258 26.9303C53.3028 26.9303 53.1696 26.8825 53.1035 26.7935C53.0056 26.5849 53.1502 26.4937 53.3188 26.4937C53.4395 26.4937 53.575 26.5427 53.64 26.6294C53.7379 26.838 53.5933 26.9303 53.4258 26.9303Z" fill="#DB9F60"/>
<path d="M59.7902 11.6055C59.7469 11.6055 59.7059 11.5998 59.6638 11.5872C59.6342 11.5929 59.6011 11.5975 59.5704 11.5975C59.2879 11.5975 58.9975 11.3364 59.1467 10.999C59.2412 10.7801 59.4565 10.6729 59.674 10.6729C59.9018 10.6729 60.1307 10.7937 60.2173 11.0309C60.3483 11.3638 60.0635 11.6055 59.7902 11.6055Z" fill="#DB9F60"/>
<path d="M66.2751 14.9379C66.077 14.9379 65.9232 14.5902 66.1999 14.5434C66.2034 14.5434 66.2068 14.5434 66.2113 14.5434C66.3822 14.5434 66.5473 14.7829 66.3776 14.9048C66.3434 14.9276 66.3093 14.9379 66.2751 14.9379Z" fill="#DB9F60"/>
<path d="M63.7102 9.20561C63.676 9.20561 63.6396 9.19421 63.6054 9.16571C63.4676 9.05398 63.5781 8.85675 63.7182 8.85675C63.7524 8.85675 63.7888 8.86929 63.823 8.89665C63.9608 9.00952 63.8503 9.20561 63.7102 9.20561Z" fill="#DB9F60"/>
<path d="M108.08 27.351C107.88 27.351 107.675 27.2154 107.602 27.025C107.339 26.8095 107.327 26.293 107.76 26.1859C107.809 26.1745 107.858 26.1665 107.906 26.1665C108.357 26.1665 108.708 26.716 108.451 27.1276C108.358 27.2849 108.219 27.351 108.08 27.351Z" fill="#D6925B"/>
<path d="M109.323 35.0374C109.304 35.0374 109.285 35.0362 109.265 35.0305C109.023 34.9507 109.127 34.5734 109.319 34.5734C109.361 34.5734 109.407 34.5905 109.455 34.6338C109.571 34.7649 109.504 35.0374 109.323 35.0374Z" fill="#D6925B"/>
<path d="M112.435 28.9585C112.375 28.9334 112.327 28.8764 112.328 28.7898C112.331 28.7602 112.336 28.7351 112.345 28.7123C112.376 28.7944 112.406 28.8764 112.435 28.9585Z" fill="#D6925B"/>
<path d="M112.517 28.9745C112.489 28.9745 112.46 28.9688 112.435 28.9585C112.406 28.8764 112.376 28.7943 112.345 28.7123C112.376 28.6439 112.446 28.6096 112.517 28.6096C112.613 28.6096 112.708 28.6724 112.706 28.7955C112.704 28.9152 112.612 28.9745 112.517 28.9745Z" fill="#CC7E45"/>
<path d="M107.068 17.1052C107.037 17.0778 107.019 17.047 107.013 17.0163C107.031 17.0459 107.051 17.0755 107.068 17.1052Z" fill="#CC7E45"/>
<path d="M113.565 58.2892C113.408 58.2892 113.23 58.2367 113.037 58.1102C112.727 57.7887 112.821 57.4535 113.047 57.2483C113.006 57.0123 113.115 56.7524 113.424 56.7045C113.443 56.7045 113.463 56.7045 113.482 56.7045C114.086 56.7045 114.322 57.1001 114.3 57.4968C114.278 57.8936 113.997 58.2892 113.565 58.2892Z" fill="#D6925B"/>
<path d="M113.401 50.6131C113.201 50.6131 112.975 50.5652 112.727 50.4523C112.407 50.1707 112.452 49.7865 112.663 49.4605C112.646 49.2951 112.719 49.1219 112.939 49.0067C113.061 48.9657 113.173 48.9372 113.28 48.9178C113.428 48.846 113.581 48.8049 113.726 48.8049C113.773 48.8049 113.821 48.8095 113.866 48.8186C113.955 48.8562 114.017 48.9155 114.066 48.9839C114.773 49.3533 114.423 50.6131 113.401 50.6131Z" fill="#D6925B"/>
<path d="M104.726 53.9922C104.505 53.9922 104.281 53.8349 104.226 53.6217C103.989 53.3823 104.028 52.875 104.465 52.8088C104.496 52.8043 104.527 52.802 104.556 52.802C104.981 52.802 105.309 53.2831 105.136 53.6856C105.053 53.9045 104.891 53.9922 104.726 53.9922Z" fill="#E0A564"/>
<path d="M112.753 37.8203C112.66 37.8203 112.548 37.7907 112.415 37.7234C112.055 37.2731 111.875 35.7978 112.704 35.7784C112.952 35.8035 113.154 36.0475 113.119 36.2995C113.096 36.4317 113.088 36.5662 113.086 36.6996C113.18 37.1363 113.193 37.8203 112.753 37.8203Z" fill="#D6925B"/>
<path d="M105.207 61.7539C105.184 61.7539 105.159 61.7493 105.134 61.739C104.907 61.641 105.034 61.2898 105.217 61.2898C105.262 61.2898 105.311 61.3104 105.359 61.364C105.459 61.4996 105.376 61.7539 105.207 61.7539Z" fill="#D6925B"/>
<path d="M108.955 56.0284C108.852 56.0284 108.749 55.9554 108.764 55.8243C108.775 55.7138 108.859 55.6636 108.946 55.6636C109.048 55.6636 109.152 55.7343 109.138 55.8654C109.125 55.976 109.039 56.0284 108.955 56.0284Z" fill="#D6925B"/>
<path d="M104.776 43.7829C104.749 43.7829 104.724 43.7806 104.701 43.7726C104.412 43.613 104.708 43.3451 104.939 43.3451C104.965 43.3451 104.99 43.3497 105.014 43.3576C105.305 43.5161 105.007 43.7829 104.776 43.7829Z" fill="#E0A564"/>
<path d="M112.767 64.2312C112.627 64.2312 112.575 64.1081 112.595 63.9861C112.613 63.8618 112.702 63.7387 112.84 63.7387C112.865 63.7387 112.893 63.7421 112.922 63.7535C112.975 63.7706 113.012 63.8014 113.032 63.839C113.026 63.8539 113.022 63.8698 113.016 63.8858C112.979 63.9884 112.943 64.0933 112.906 64.1959C112.895 64.2016 112.883 64.2073 112.873 64.2119C112.833 64.2255 112.799 64.2312 112.767 64.2312Z" fill="#D6925B"/>
<path d="M112.906 64.1959C112.943 64.0933 112.979 63.9884 113.016 63.8858C113.022 63.8698 113.026 63.8539 113.032 63.8391C113.099 63.9496 113.028 64.1229 112.906 64.1959Z" fill="#CC7E45"/>
<path d="M98.9176 50.9437C98.4734 50.9129 98.8264 50.3178 99.1135 50.3178C99.1351 50.3178 99.1544 50.3212 99.1738 50.3269C99.5132 50.466 99.1351 50.9038 98.9176 50.9437Z" fill="#E0A564"/>
<path d="M112.192 56.1743C112.078 56.1743 111.958 56.131 111.85 56.0296C111.458 55.6659 111.815 55.1095 112.23 55.1095C112.345 55.1095 112.464 55.1506 112.573 55.252C112.964 55.6168 112.605 56.1743 112.192 56.1743Z" fill="#D6925B"/>
<path d="M100.301 71.1959C99.6396 71.1959 98.233 70.3808 98.7638 69.6306C98.8651 69.5189 99.0109 69.4619 99.159 69.4619C99.2877 69.4619 99.4175 69.5063 99.5143 69.601C99.6202 69.7104 99.7341 69.8085 99.8549 69.9008C100.408 70.1494 101.209 70.7502 100.331 71.1959C100.321 71.1959 100.312 71.1959 100.301 71.1959Z" fill="#D6925B"/>
<path d="M105.3 67.6651C105.141 67.6651 104.994 67.4611 105.135 67.306C105.277 66.9913 105.641 66.8089 105.959 66.8089C106.285 66.8089 106.565 67.0005 106.513 67.4451C106.47 67.5625 106.391 67.6081 106.305 67.6081C106.123 67.6081 105.906 67.4029 105.909 67.2057L105.901 67.208C105.699 67.2547 105.572 67.4428 105.446 67.5945C105.401 67.6446 105.35 67.6651 105.3 67.6651ZM105.909 67.2045L105.903 67.208L105.909 67.2057V67.2045Z" fill="#D6925B"/>
<path d="M100.499 82.2832C100.345 82.2832 100.3 82.1247 100.326 81.9674C100.354 81.8089 100.451 81.6516 100.577 81.6516C100.633 81.6516 100.697 81.6812 100.759 81.7576C100.826 81.9081 100.753 82.1463 100.633 82.2512C100.581 82.2729 100.538 82.2832 100.499 82.2832Z" fill="#D6925B"/>
<path d="M104.929 60.2524C104.654 60.2524 104.498 59.6493 104.843 59.6299C104.843 59.6299 104.843 59.6299 104.844 59.6299C105.095 59.6299 105.266 60.1612 104.985 60.2433C104.965 60.2501 104.947 60.2524 104.929 60.2524Z" fill="#D6925B"/>
<path d="M84.2551 86.7921C84.1002 86.7921 83.8952 86.5595 84.1048 86.4136C84.1333 86.3988 84.1595 86.3908 84.1857 86.3908C84.2904 86.3908 84.3781 86.5037 84.3929 86.6074C84.3884 86.7408 84.328 86.7921 84.2551 86.7921Z" fill="#D6925B"/>
<path d="M95.6751 85.5631C95.4632 85.5631 95.2537 85.4275 95.2582 85.1493C95.2343 84.7719 95.609 84.4744 95.9586 84.4744C96.1135 84.4744 96.2639 84.5325 96.3732 84.6659C96.6067 84.9441 96.3618 85.3157 96.0612 85.3442C95.9883 85.4902 95.8311 85.5631 95.6751 85.5631Z" fill="#D6925B"/>
<path d="M89.3643 88.2605C89.0887 88.2605 88.8894 87.9949 88.8244 87.7281C88.7595 87.4614 88.8324 87.1946 89.1035 87.1946C89.2014 87.1946 89.3278 87.2299 89.4827 87.3131C89.7196 87.5172 89.9793 87.857 89.6957 88.1374C89.5761 88.2241 89.4645 88.2605 89.3643 88.2605Z" fill="#D6925B"/>
<path d="M98.7261 82.1942C98.3537 82.1942 98.1123 81.6276 98.5155 81.3984C98.5861 81.3574 98.6555 81.3403 98.7227 81.3403C99.094 81.3403 99.3354 81.9058 98.9323 82.1361C98.8605 82.176 98.7911 82.1942 98.7261 82.1942Z" fill="#D6925B"/>
<path d="M92.4804 81.8647C92.3995 81.8647 92.3027 81.8419 92.1911 81.7895C92.1763 81.7872 92.1638 81.7827 92.1512 81.7781L92.1695 81.7918L92.1341 81.7724C90.8597 81.3642 91.4964 80.3975 92.4576 80.3975C92.6057 80.3975 92.7628 80.4191 92.92 80.4716C93.1603 80.475 93.3505 80.5559 93.4884 80.6665C93.5077 80.6768 93.5271 80.6893 93.5453 80.6996L93.5385 80.7121C93.8403 81.0051 93.8175 81.4577 93.3813 81.4577C93.3129 81.4577 93.2344 81.4463 93.1432 81.4201C93.0499 81.517 92.9314 81.5729 92.8095 81.5888C92.7811 81.745 92.6706 81.8647 92.4804 81.8647ZM92.1341 81.7644L92.1387 81.769C92.1535 81.7747 92.1695 81.7815 92.1843 81.7872C92.1672 81.7792 92.1524 81.7747 92.1341 81.7644Z" fill="#D6925B"/>
<path d="M98.0656 75.8132C98.0633 75.8132 98.0588 75.8132 98.0542 75.8132C98.0018 75.8087 97.9232 75.7973 97.8811 75.7733C97.6077 75.6707 97.5018 75.3105 97.6419 75.0608C97.749 74.8807 97.8834 74.8111 98.0109 74.8111C98.2581 74.8111 98.4859 75.0699 98.4631 75.3116C98.5007 75.5453 98.3663 75.8132 98.0656 75.8132ZM98.2581 75.6C98.2422 75.6092 98.2251 75.6183 98.2069 75.6263L98.2433 75.6114L98.2581 75.6Z" fill="#D6925B"/>
<path d="M77.728 85.4754C77.3556 85.4754 77.1142 84.9087 77.5162 84.6807C77.588 84.6397 77.6574 84.6237 77.7235 84.6237C78.0959 84.6237 78.3385 85.1892 77.9353 85.4172C77.8636 85.4571 77.793 85.4754 77.728 85.4754Z" fill="#D6925B"/>
<path d="M81.5969 80.4294C81.2256 80.4294 80.9842 79.8639 81.3873 79.6347C81.4591 79.5937 81.5286 79.5755 81.5935 79.5755C81.9659 79.5755 82.2074 80.1421 81.8042 80.3713C81.7336 80.4123 81.6641 80.4294 81.5969 80.4294Z" fill="#D6925B"/>
<path d="M102.703 81.2126C102.606 81.2126 102.539 81.1568 102.556 81.0097C102.608 80.8945 102.839 80.7486 102.996 80.7486C103.092 80.7486 103.16 80.8022 103.144 80.9515C103.091 81.0656 102.859 81.2126 102.703 81.2126Z" fill="#CC7E45"/>
<path d="M84.8337 93.1879C84.5342 92.8448 84.6538 92.1687 85.0865 92.1687C85.156 92.1687 85.2334 92.1858 85.3177 92.2235C85.5341 92.391 85.279 92.6373 85.066 92.6373C85.041 92.6373 85.0136 92.6327 84.9897 92.6259V92.6305C84.9761 92.7969 85.0899 92.9383 85.1742 93.0728L85.1776 93.0796C85.0626 93.115 84.9476 93.1526 84.8337 93.1879ZM84.9897 92.6259V92.627V92.6259Z" fill="#CC7E45"/>
<path d="M88.2732 78.8789C88.206 78.8789 88.1434 78.831 88.1218 78.7102C88.0489 78.5346 88.181 78.3773 88.3017 78.3773C88.3666 78.3773 88.4293 78.4263 88.4509 78.5471C88.5227 78.7216 88.3917 78.8789 88.2732 78.8789Z" fill="#D6925B"/>
<path d="M103.419 75.3013C103.27 75.3013 103.174 75.0745 103.335 74.9844C103.364 74.9673 103.391 74.9593 103.417 74.9593C103.567 74.9593 103.663 75.1862 103.503 75.2785C103.474 75.2945 103.446 75.3013 103.419 75.3013Z" fill="#D6925B"/>
<path d="M93.3995 71.3179C93.2503 71.3179 93.1535 71.0911 93.3163 70.9987C93.3448 70.9827 93.3733 70.9771 93.3983 70.9771C93.5475 70.9771 93.6432 71.2028 93.4826 71.294C93.4542 71.31 93.4268 71.3179 93.3995 71.3179Z" fill="#E0A564"/>
<path d="M79.2223 91.837C79.0811 91.837 78.9444 91.7629 78.982 91.6147C79.0105 91.5235 79.1267 91.4744 79.2405 91.4744C79.3635 91.4744 79.4831 91.5326 79.482 91.6546C79.4797 91.7766 79.3488 91.837 79.2223 91.837Z" fill="#D6925B"/>
<path d="M64.3754 86.172C64.208 86.172 64.1704 86.0693 64.1977 85.9667C64.2262 85.8641 64.3208 85.7615 64.4267 85.7615C64.4791 85.7615 64.5326 85.7855 64.5816 85.8459C64.6784 85.985 64.5371 86.1412 64.4005 86.172C64.3914 86.172 64.3823 86.172 64.3754 86.172Z" fill="#D6925B"/>
<path d="M55.2196 72.4056C55.2185 72.4056 55.2173 72.4056 55.2139 72.4033C54.87 72.2995 55.2128 71.9119 55.4542 71.9119C55.4872 71.9119 55.5191 71.9199 55.5453 71.9358C55.8016 72.1148 55.4132 72.4056 55.2196 72.4056Z" fill="#E0A564"/>
<path d="M63.5121 92.1231C63.4222 92.1231 63.3299 92.0912 63.2399 92.0114C62.7741 91.4756 63.4028 90.9979 63.8424 90.9979C64.1249 90.9979 64.3276 91.1974 64.1044 91.7093C63.9609 91.9065 63.7445 92.1231 63.5121 92.1231Z" fill="#D6925B"/>
<path d="M71.7009 93.8663C71.2544 93.856 70.808 93.8378 70.3615 93.8127C70.5096 93.4 70.7396 93.229 70.9742 93.229C71.2624 93.229 71.554 93.4855 71.7009 93.8663Z" fill="#D6925B"/>
<path d="M71.7441 95.0246C71.3797 95.0166 71.0141 95.0029 70.6462 94.9858C70.5996 94.9186 70.5654 94.8433 70.5472 94.7681C70.3034 94.7441 70.128 94.5309 70.2772 94.1194C70.2795 94.1045 70.2829 94.0909 70.2875 94.0749L70.2738 94.0954L70.292 94.0567C70.3114 93.9677 70.3342 93.8856 70.3615 93.8127C70.808 93.8378 71.2544 93.856 71.7009 93.8663C71.8034 94.1273 71.8375 94.4477 71.7578 94.7852C71.7635 94.8707 71.7567 94.9493 71.7441 95.0246ZM70.2977 94.0567L70.2943 94.0635C70.2909 94.0795 70.2852 94.0954 70.2784 94.1125C70.2864 94.0943 70.2909 94.076 70.2977 94.0567Z" fill="#CC7E45"/>
<path d="M65.4414 79.3155C65.3138 79.3155 65.1863 79.2574 65.0906 79.1206C64.8537 78.7729 65.1726 78.4103 65.4938 78.4103C65.6225 78.4103 65.75 78.4662 65.8434 78.6053C66.0815 78.9518 65.7637 79.3155 65.4414 79.3155Z" fill="#E0A564"/>
<path d="M71.2078 83.0185C71.0791 83.0185 70.9515 82.9626 70.857 82.8235C70.619 82.477 70.9379 82.1133 71.259 82.1133C71.3877 82.1133 71.5153 82.1703 71.6087 82.3082C71.8467 82.656 71.5289 83.0185 71.2078 83.0185Z" fill="#D6925B"/>
<path d="M52.9897 89.1521L52.6947 89.0141C52.2483 88.7975 51.8052 88.5741 51.3656 88.3426C51.3827 88.2355 51.4385 88.1329 51.5501 88.036C51.6241 87.9835 51.7153 87.9584 51.8052 87.9584C51.9533 87.9584 52.1013 88.0268 52.1845 88.1557C52.2699 88.2936 52.3656 88.4247 52.4749 88.5456C52.4464 88.5159 52.4191 88.4863 52.3929 88.4544C52.5717 88.7052 52.9601 88.8169 52.9897 89.1521Z" fill="#D6925B"/>
<path d="M52.5239 89.6446C52.4248 89.6446 52.3245 89.6127 52.2391 89.5386C51.9271 89.2809 51.2961 88.7861 51.3656 88.3426C51.8052 88.5741 52.2482 88.7975 52.6947 89.0141L52.9897 89.1521C52.9897 89.1544 52.9897 89.1555 52.9897 89.1578C53.017 89.4394 52.7733 89.6446 52.5239 89.6446Z" fill="#CC7E45"/>
<path d="M57.977 87.361C57.9736 87.361 57.9736 87.3599 57.977 87.3599H57.9895C57.9838 87.361 57.9793 87.361 57.977 87.361Z" fill="#D6925B"/>
<path d="M58.2925 87.7783C58.1273 87.7783 57.9542 87.54 57.9975 87.361L57.9895 87.3599H57.9975C57.985 87.3587 57.9736 87.3565 57.9611 87.3565C57.8631 87.3565 57.772 87.4249 57.6843 87.4921C57.5955 87.5605 57.51 87.6278 57.4258 87.6278C57.3779 87.6278 57.3301 87.6073 57.2811 87.5526C57.2401 87.2037 57.5898 87.0236 57.9257 87.0236C58.2902 87.0236 58.6387 87.2345 58.4576 87.6757C58.4109 87.7487 58.3528 87.7783 58.2925 87.7783Z" fill="#D6925B"/>
<path d="M73.2931 89.8316C73.1052 89.8316 72.9332 89.6686 73.1222 89.4953C73.1803 89.4542 73.2441 89.436 73.3067 89.436C73.5414 89.436 73.7486 89.6879 73.4184 89.8065C73.3785 89.8236 73.3352 89.8316 73.2931 89.8316Z" fill="#D6925B"/>
<path d="M58.5305 81.3506C58.4018 81.3506 58.3266 81.2138 58.3186 81.0781C58.3095 80.9424 58.3653 80.8056 58.4997 80.8056C58.5123 80.8056 58.5237 80.8068 58.5373 80.8079C58.748 80.8558 58.7924 81.3323 58.5396 81.3506C58.535 81.3506 58.5328 81.3506 58.5305 81.3506Z" fill="#D6925B"/>
<path d="M41.9923 79.0533C41.9399 79.0533 41.8681 79.0488 41.8283 79.0294C41.5424 78.9507 41.4023 78.5973 41.5196 78.3339C41.6187 78.1264 41.7611 78.0466 41.9023 78.0466C42.1403 78.0466 42.3716 78.2758 42.3727 78.5095C42.4331 78.7466 42.318 79.0328 42.0059 79.0533C42.0003 79.0533 41.9968 79.0533 41.9923 79.0533Z" fill="#D6925B"/>
<path d="M52.8348 83.6569C52.4761 83.6569 52.2096 83.1336 52.5831 82.8726C52.6617 82.8178 52.7437 82.7939 52.82 82.7939C53.1788 82.7939 53.4453 83.3172 53.0717 83.5771C52.992 83.633 52.9111 83.6569 52.8348 83.6569Z" fill="#D6925B"/>
<path d="M47.1709 84.064C47.0844 84.064 47.0217 84.0138 47.0252 83.8747C47.0684 83.747 47.3065 83.568 47.4659 83.568C47.5525 83.568 47.614 83.6205 47.6117 83.7607C47.5661 83.8872 47.3304 84.064 47.1709 84.064Z" fill="#D6925B"/>
<path d="M47.3521 78.0409C47.2097 78.0409 47.1027 77.8323 47.253 77.7274C47.2837 77.7057 47.3168 77.6966 47.3475 77.6966C47.491 77.6966 47.5981 77.9053 47.4477 78.009C47.417 78.0318 47.384 78.0409 47.3521 78.0409Z" fill="#D6925B"/>
<path d="M36.8832 74.9536C36.7408 74.9536 36.6337 74.745 36.7841 74.6412C36.8148 74.6184 36.8478 74.6082 36.8775 74.6082C37.0221 74.6082 37.128 74.818 36.9788 74.9228C36.9469 74.9445 36.915 74.9536 36.8832 74.9536Z" fill="#D6925B"/>
<path d="M31.2854 65.32C31.184 64.9404 31.0883 64.5573 30.9995 64.1742C31.2273 64.2939 31.4015 64.5413 31.4357 64.954C31.4118 65.1125 31.356 65.2299 31.2854 65.32Z" fill="#CC7E45"/>
<path d="M39.9673 58.1717C39.5186 58.1717 39.2122 57.5002 39.6917 57.2061C39.7817 57.1514 39.8728 57.1263 39.9582 57.1263C40.4058 57.1263 40.7121 57.8001 40.2338 58.0908C40.1427 58.1478 40.0516 58.1717 39.9673 58.1717Z" fill="#D6925B"/>
<path d="M39.653 69.6853C39.5118 69.6853 39.3876 69.593 39.4673 69.3946C39.5209 69.3046 39.6336 69.243 39.7361 69.243C39.8193 69.243 39.8967 69.284 39.9286 69.3866C39.973 69.5793 39.8033 69.6853 39.653 69.6853Z" fill="#D6925B"/>
<path d="M33.0814 58.263C32.9698 58.263 32.8901 58.1968 32.9026 58.0201C32.9641 57.8753 33.25 57.6827 33.4413 57.6827C33.5541 57.6827 33.6349 57.7488 33.6201 57.9255C33.5597 58.0703 33.275 58.263 33.0814 58.263Z" fill="#D6925B"/>
<path d="M33.7238 50.995C33.5461 50.995 33.4231 50.7248 33.6156 50.6085C33.6509 50.5868 33.6873 50.5766 33.7204 50.5766C33.9003 50.5766 34.0233 50.8456 33.8308 50.9619C33.7944 50.9847 33.7591 50.995 33.7238 50.995Z" fill="#D6925B"/>
<path d="M36.3433 51.0201C36.3012 51.0201 36.259 51.0155 36.2123 51.0052C35.6178 50.8639 35.7784 49.994 36.3194 49.994C36.3604 49.994 36.4048 49.9986 36.4493 50.01C37.0426 50.1513 36.882 51.0201 36.3433 51.0201Z" fill="#D6925B"/>
<path d="M31.5666 46.315C31.4607 46.315 31.3343 46.2888 31.2295 46.242C31.2523 46.1086 31.2739 45.973 31.2956 45.8396C31.5803 45.8464 32.0029 46.0391 31.7067 46.2933C31.6703 46.3082 31.6213 46.315 31.5666 46.315Z" fill="#D6925B"/>
<path d="M31.2295 46.242C31.0542 46.1634 30.9483 46.0254 31.1396 45.8612C31.1749 45.8464 31.2238 45.8396 31.2796 45.8396C31.2831 45.8396 31.2887 45.8396 31.2956 45.8396C31.2739 45.973 31.2523 46.1086 31.2295 46.242Z" fill="#CC7E45"/>
<path d="M36.7328 41.5791C36.7168 41.5791 36.6998 41.5769 36.6827 41.5723C36.4447 41.5164 36.5084 41.1687 36.7248 41.1687C36.7408 41.1687 36.759 41.171 36.7761 41.1744C37.0141 41.2314 36.9492 41.5791 36.7328 41.5791Z" fill="#D6925B"/>
<path d="M45.0833 25.6329C45.0833 25.6329 45.0833 25.6329 45.081 25.6329C45.0708 25.6329 45.0605 25.6329 45.0503 25.6318H45.0469C44.4535 25.593 44.4945 24.6844 45.073 24.6844C45.0833 24.6844 45.0935 24.6855 45.1049 24.6855C45.2302 24.6935 45.3259 24.7391 45.3954 24.8087C45.3965 24.8098 45.3999 24.8132 45.4011 24.8144C45.6573 25.072 45.5366 25.6306 45.0856 25.6329C45.0844 25.6329 45.0844 25.6329 45.0833 25.6329Z" fill="#E0A564"/>
<path d="M38.7418 34.0729C38.5699 34.0729 38.3808 33.9053 38.5516 33.7331C38.5949 33.6967 38.6496 33.6807 38.7077 33.6807C38.8489 33.6807 38.9935 33.7822 38.94 33.9395C38.9058 34.0353 38.825 34.0729 38.7418 34.0729Z" fill="#E0A564"/>
<path d="M49.7427 49.9096C49.5388 49.9096 49.3326 49.481 49.4898 49.3191C49.5354 49.2769 49.5798 49.2587 49.6231 49.2587C49.8156 49.2587 49.9522 49.6223 49.9089 49.7877C49.8588 49.8754 49.8007 49.9096 49.7427 49.9096Z" fill="#D0975C"/>
<path d="M84.3941 40.5143C83.9169 40.5143 83.6846 39.755 84.2176 39.5452C84.2848 39.5179 84.3485 39.5065 84.4078 39.5065C84.8861 39.5065 85.1184 40.2646 84.5854 40.4744C84.5182 40.5018 84.4556 40.5143 84.3941 40.5143Z" fill="#D0975C"/>
<path d="M84.688 32.9431C84.6584 32.9431 84.6288 32.9397 84.5958 32.934C84.5377 32.9226 84.4454 32.8941 84.4021 32.8599C84.0992 32.6934 84.0342 32.2556 84.2393 31.9866C84.3805 31.8201 84.5286 31.7528 84.6664 31.7528C84.9898 31.7528 85.2472 32.1279 85.1584 32.4278C85.1561 32.682 84.9876 32.9431 84.688 32.9431ZM84.8828 32.7128C84.8532 32.7242 84.8235 32.7367 84.7905 32.7447C84.8099 32.7413 84.8304 32.7344 84.8497 32.7299L84.8828 32.7128Z" fill="#D0975C"/>
<path d="M59.2924 40.8962C58.8118 40.8962 58.5817 40.1381 59.1148 39.9272C59.1797 39.9009 59.2435 39.8895 59.3038 39.8895C59.7822 39.8895 60.0134 40.6477 59.4804 40.8575C59.4143 40.8837 59.3517 40.8962 59.2924 40.8962Z" fill="#D0975C"/>
<path d="M64.6476 35.6302C64.1704 35.6302 63.9381 34.8721 64.4711 34.6623C64.5371 34.6361 64.6009 34.6235 64.6601 34.6235C65.1385 34.6235 65.3708 35.3817 64.8378 35.5915C64.7706 35.6188 64.708 35.6302 64.6476 35.6302Z" fill="#D0975C"/>
<path d="M95.7673 41.0752C95.2901 41.0752 95.0577 40.3171 95.5896 40.1073C95.6568 40.0799 95.7206 40.0674 95.7798 40.0674C96.2582 40.0674 96.4905 40.8255 95.9575 41.0364C95.8903 41.0638 95.8265 41.0752 95.7673 41.0752Z" fill="#D0975C"/>
<path d="M89.1763 40.0229C89.1536 40.0229 89.1319 40.0218 89.1137 40.0172C88.7732 39.8075 89.2173 39.5156 89.5078 39.5156C89.6524 39.5156 89.7583 39.5897 89.7059 39.7835C89.6251 39.9044 89.3506 40.0229 89.1763 40.0229Z" fill="#D0975C"/>
<path d="M86.3734 51.2595C86.1832 51.2595 86.091 50.9574 86.304 50.8719C86.3313 50.8627 86.3564 50.857 86.3803 50.857C86.5716 50.857 86.6639 51.1603 86.4509 51.2447C86.4247 51.2549 86.3985 51.2595 86.3734 51.2595Z" fill="#D0975C"/>
<path d="M66.5496 50.4576L66.5508 50.4512L66.5496 50.4576Z" fill="#C78554"/>
<path d="M90.9816 33.2213C90.7902 33.2213 90.698 32.918 90.911 32.8348C90.9383 32.8234 90.9633 32.8177 90.9873 32.8177C91.1775 32.8177 91.2708 33.1221 91.0567 33.2064C91.0294 33.2167 91.0055 33.2213 90.9816 33.2213Z" fill="#D0975C"/>
<path d="M59.9963 48.5837C59.8106 48.5837 59.6101 48.4697 59.6887 48.2793C59.7286 48.1938 59.8357 48.1539 59.9484 48.1539C60.1158 48.1539 60.2935 48.2428 60.2662 48.4082C60.2468 48.529 60.125 48.5837 59.9963 48.5837Z" fill="#D0975C"/>
<path d="M58.7161 42.4992C58.4803 42.4992 58.412 41.9474 58.6341 41.8402C58.6683 41.8288 58.6979 41.8231 58.7264 41.8231C58.9633 41.8231 58.9746 42.2791 58.8642 42.4342C58.8095 42.4798 58.7605 42.4992 58.7161 42.4992Z" fill="#D0975C"/>
<path d="M94.2252 52.1772C94.0715 52.1772 93.9268 52.1123 93.8072 52.0119C93.7503 52.0279 93.6922 52.0393 93.6341 52.0393C93.4394 52.0393 93.2492 51.9333 93.1797 51.6859C93.0555 50.9631 93.5066 50.6416 93.9712 50.6416C94.5293 50.6416 95.1079 51.1079 94.7241 51.9036C94.568 52.0986 94.3915 52.1772 94.2252 52.1772Z" fill="#D0975C"/>
<path d="M81.7188 46.9511C81.2848 46.9511 81.1185 46.6057 81.1265 46.2603C81.1356 45.9148 81.3201 45.5694 81.5843 45.5694C81.7313 45.5694 81.9055 45.68 82.0878 45.9593C82.2199 46.3081 82.2996 46.8109 81.8406 46.9432C81.7985 46.9489 81.7575 46.9511 81.7188 46.9511Z" fill="#D0975C"/>
<path d="M94.9222 45.9251C94.2833 45.9251 94.2685 44.9275 94.9143 44.915C94.9188 44.915 94.9234 44.915 94.9256 44.915C95.5645 44.915 95.5793 45.9148 94.9325 45.9251C94.929 45.9251 94.9245 45.9251 94.9222 45.9251Z" fill="#D0975C"/>
<path d="M97.8583 38.8737C97.7786 38.8737 97.6955 38.8521 97.6112 38.803C97.56 38.7688 97.4825 38.7107 97.4552 38.6617C97.2251 38.3983 97.3208 37.9617 97.6101 37.7804C97.7308 37.712 97.8401 37.6835 97.9381 37.6835C98.3606 37.6835 98.5405 38.2341 98.3219 38.5226C98.2479 38.7153 98.0713 38.8737 97.8583 38.8737ZM97.864 38.6936C97.8834 38.6947 97.9039 38.697 97.9233 38.6993L97.9609 38.6947C97.9483 38.6947 97.9369 38.6947 97.9244 38.6947C97.905 38.6947 97.8845 38.6947 97.864 38.6936Z" fill="#D0975C"/>
<path d="M71.0608 37.3859C70.423 37.3859 70.4071 36.3884 71.054 36.377C71.0586 36.377 71.0608 36.377 71.0642 36.377C71.7032 36.377 71.7168 37.3768 71.0711 37.3859C71.0688 37.3859 71.0643 37.3859 71.0608 37.3859Z" fill="#C78554"/>
<path d="M90.731 62.1027C90.5362 62.1027 90.3461 61.999 90.2754 61.7527C90.1479 61.324 90.5214 60.8942 90.9428 60.8942C90.9986 60.8942 91.0556 60.9022 91.1137 60.9182C91.6809 61.0561 91.5556 61.7424 91.1729 61.8952C91.0704 62.0275 90.8996 62.1027 90.731 62.1027Z" fill="#D0975C"/>
<path d="M105.471 50.4888C104.833 50.4888 104.817 49.4901 105.464 49.4787C105.469 49.4787 105.471 49.4787 105.474 49.4787C106.112 49.4787 106.127 50.4763 105.482 50.4888C105.479 50.4888 105.474 50.4888 105.471 50.4888Z" fill="#D0975C"/>
<path d="M99.4482 59.9719C99.2546 59.9719 99.0439 59.7701 99.2763 59.5911C99.3173 59.5672 99.3685 59.5558 99.4186 59.5558C99.5633 59.5558 99.7068 59.647 99.6658 59.8123C99.6305 59.9263 99.5405 59.9719 99.4482 59.9719Z" fill="#D0975C"/>
<path d="M92.8813 56.7649C92.625 56.7649 92.6193 56.3659 92.879 56.3625C92.8801 56.3625 92.8813 56.3625 92.8835 56.3625C93.1375 56.3625 93.1432 56.7615 92.8858 56.7649C92.8847 56.7649 92.8835 56.7649 92.8813 56.7649Z" fill="#D0975C"/>
<path d="M85.926 36.3451C85.8975 36.1946 85.8098 36.0612 85.6902 35.9643C85.7483 35.9221 85.8098 35.8993 85.8644 35.8993C85.9681 35.8993 86.0421 35.9802 85.9977 36.1889C85.9874 36.2459 85.9601 36.2995 85.926 36.3451Z" fill="#D0975C"/>
<path d="M103.617 41.3511C103.363 41.3511 103.357 40.9509 103.613 40.9475C103.616 40.9475 103.617 40.9475 103.618 40.9475C103.874 40.9475 103.88 41.3465 103.621 41.3511C103.62 41.3511 103.618 41.3511 103.617 41.3511Z" fill="#D0975C"/>
<path d="M80.4762 62.8985C80.3145 62.8985 80.1311 62.6511 80.1642 62.4698C80.2074 62.3626 80.2701 62.3182 80.3373 62.3182C80.4979 62.3182 80.6823 62.5656 80.6493 62.748C80.6072 62.8552 80.5434 62.8985 80.4762 62.8985Z" fill="#D0975C"/>
<path d="M95.3903 31.4621C95.1363 31.4621 95.1306 31.0631 95.3891 31.0585C95.3903 31.0585 95.3925 31.0585 95.3937 31.0585C95.6477 31.0585 95.6534 31.4576 95.3948 31.4621C95.3937 31.4621 95.3926 31.4621 95.3903 31.4621Z" fill="#D0975C"/>
<path d="M68.9595 44.8979C68.7431 44.8979 68.4664 44.6653 68.6417 44.4749C68.6805 44.4373 68.7352 44.4213 68.7932 44.4213C68.9948 44.4213 69.2488 44.6129 69.1429 44.8021C69.1042 44.8694 69.0358 44.8979 68.9595 44.8979Z" fill="#C78554"/>
<path d="M100.276 20.8697C100.261 20.8697 100.244 20.8686 100.23 20.8651C99.9209 20.7568 100.149 20.4809 100.345 20.4809C100.421 20.4809 100.492 20.522 100.525 20.6326C100.558 20.7819 100.408 20.8697 100.276 20.8697Z" fill="#D0975C"/>
<path d="M97.2581 26.0798C97.1044 26.0798 96.9654 26.016 96.8766 25.8393C96.7023 25.3103 97.1283 25.072 97.5178 25.072C97.9563 25.072 98.3458 25.3718 97.798 25.894C97.6408 25.9898 97.4392 26.0798 97.2581 26.0798Z" fill="#D0975C"/>
<path d="M100.416 37.7542C100.223 37.7542 100.034 37.6459 99.9824 37.4019C99.9141 37.0656 100.186 36.8626 100.451 36.8626C100.644 36.8626 100.832 36.9709 100.883 37.2161C100.953 37.5512 100.681 37.7542 100.416 37.7542Z" fill="#D0975C"/>
<path d="M102.599 30.5375L102.634 30.4965L102.639 30.4931C102.624 30.5079 102.612 30.5227 102.599 30.5375Z" fill="#D0975C"/>
<path d="M107.353 39.2317C107.294 39.2317 107.237 39.2226 107.184 39.1998C106.926 39.1576 106.693 38.9239 106.803 38.607C106.824 38.5545 106.865 38.477 106.902 38.4428C107 38.3174 107.153 38.2604 107.305 38.2604C107.319 38.2604 107.333 38.2604 107.348 38.2615C107.372 38.5819 107.393 38.9057 107.413 39.2283C107.393 39.2306 107.373 39.2317 107.353 39.2317ZM106.946 38.8293C106.946 38.843 106.947 38.8566 106.949 38.8703L106.955 38.8897C106.951 38.8703 106.949 38.8498 106.946 38.8293Z" fill="#D0975C"/>
<path d="M107.413 39.2283C107.393 38.9056 107.372 38.5819 107.348 38.2615C107.487 38.2695 107.621 38.3299 107.718 38.4337C108.072 38.835 107.745 39.1895 107.413 39.2283Z" fill="#C78554"/>
<path d="M107.965 20.6269C107.771 20.6269 107.582 20.5174 107.532 20.2734C107.464 19.9383 107.735 19.7342 107.999 19.7342C108.063 19.7342 108.128 19.7467 108.186 19.7718C108.271 19.9234 108.357 20.0751 108.441 20.2278C108.421 20.4798 108.189 20.6269 107.965 20.6269Z" fill="#C78554"/>
<path d="M108.441 20.2278C108.357 20.0751 108.271 19.9234 108.186 19.7718C108.303 19.822 108.398 19.9257 108.432 20.0888C108.443 20.1389 108.446 20.1845 108.441 20.2278Z" fill="#BD7340"/>
<path d="M85.4977 36.9333C85.3337 36.9333 85.1663 36.8501 85.0752 36.7133C84.7791 36.5662 84.6572 36.0771 85.0456 35.8822C85.1287 35.8389 85.213 35.8195 85.2984 35.8195C85.4408 35.8195 85.5797 35.8742 85.6902 35.9643C85.8098 36.0612 85.8975 36.1946 85.926 36.345C85.9431 36.4362 85.9374 36.5332 85.9032 36.6301C85.8337 36.8432 85.6686 36.9333 85.4977 36.9333Z" fill="#D0975C"/>
<path d="M98.1043 47.9749C97.9119 47.9749 97.7228 47.8666 97.6716 47.6215C97.6032 47.2863 97.8754 47.0834 98.1385 47.0834C98.3321 47.0834 98.5212 47.1917 98.5724 47.4357C98.6408 47.7709 98.3697 47.9749 98.1043 47.9749Z" fill="#D0975C"/>
<path d="M88.3712 43.9721C88.3666 43.9721 88.3609 43.9721 88.3564 43.9721C88.0955 43.9482 88.132 43.5229 88.3438 43.5229C88.3769 43.5229 88.4133 43.5332 88.4532 43.5549C88.6024 43.662 88.583 43.9721 88.3712 43.9721Z" fill="#D0975C"/>
<path d="M99.9129 42.1833C99.8799 42.1833 99.8412 42.1742 99.7979 42.1537C99.6886 42.0488 99.6202 41.7171 99.6795 41.5791C99.733 41.5175 99.7854 41.4925 99.8309 41.4925C99.9528 41.4925 100.045 41.6646 100.07 41.8379C100.096 42.0101 100.056 42.1833 99.9129 42.1833Z" fill="#D0975C"/>
<path d="M90.1183 37.5262C90.0408 37.5262 89.9657 37.484 89.944 37.3848C89.9178 37.2514 90.026 37.1693 90.132 37.1693C90.2083 37.1693 90.2846 37.2126 90.3039 37.3107C90.3324 37.4452 90.2242 37.5262 90.1183 37.5262Z" fill="#D0975C"/>
<path d="M93.9963 19.9873C93.9291 19.9873 93.8745 19.9485 93.8346 19.8915C93.9781 19.773 94.125 19.6578 94.2708 19.5427C94.289 19.6658 94.2492 19.8026 94.1227 19.9428C94.0783 19.9736 94.035 19.9873 93.9963 19.9873Z" fill="#D0975C"/>
<path d="M107.225 27.7603C107.213 27.7603 107.203 27.7603 107.193 27.7592C107.19 27.7592 107.187 27.7592 107.186 27.7592C106.947 27.7592 106.746 27.4616 107.039 27.3567C107.065 27.351 107.088 27.3476 107.114 27.3476C107.257 27.3476 107.377 27.4513 107.416 27.554C107.454 27.6566 107.41 27.7603 107.225 27.7603Z" fill="#C78554"/>
<path d="M105.707 44.5627C105.629 44.5627 105.555 44.5194 105.534 44.4213C105.507 44.2868 105.614 44.207 105.721 44.207C105.797 44.207 105.873 44.2492 105.893 44.3484C105.921 44.4818 105.811 44.5627 105.707 44.5627Z" fill="#D0975C"/>
<path d="M113.171 35.531C113.094 35.531 113.017 35.4877 112.998 35.3908C112.97 35.2551 113.079 35.1742 113.184 35.1742C113.261 35.1742 113.337 35.2175 113.358 35.3167C113.385 35.4501 113.276 35.531 113.171 35.531Z" fill="#C78554"/>
<path d="M69.5165 51.0611C71.9366 53.0141 73.8796 51.8934 76.1757 49.2609C75.555 49.5197 74.7874 49.5323 73.8273 49.2484C67.7329 47.4448 74.2874 40.4448 75.9844 29.101C74.2076 36.8262 65.3287 47.6797 69.5165 51.0611Z" fill="#BF7644"/>
<path d="M44.8988 15.9822C43.318 17.6684 41.8181 19.4332 40.4263 21.2835C39.0357 23.1339 37.7464 25.0629 36.562 27.0557C34.1976 31.0414 32.2603 35.295 30.8754 39.7345C30.184 41.9542 29.6226 44.215 29.216 46.5077C28.8105 48.7992 28.5588 51.1215 28.4734 53.4507C28.3026 58.1079 28.8105 62.8118 30.1317 67.3037C31.4425 71.7933 33.5586 76.0572 36.3968 79.7875C37.8136 81.6538 39.4047 83.3856 41.1279 84.9669C42.8522 86.5504 44.712 87.979 46.6675 89.2604C48.6242 90.5384 50.6765 91.6671 52.796 92.6453C54.9167 93.6223 57.0875 94.4682 59.3197 95.1682C61.552 95.858 63.8378 96.379 66.1521 96.7119C68.4675 97.038 70.808 97.1782 73.1462 97.1201C77.8237 97.0129 82.4716 96.0803 86.845 94.4397C91.2219 92.8015 95.3265 90.4586 98.9858 87.564C102.651 84.6739 105.873 81.2343 108.555 77.4219C111.231 73.6061 113.375 69.4174 114.887 65.011C115.644 62.8084 116.245 60.5534 116.686 58.2687C117.124 55.9817 117.403 53.6673 117.525 51.345C117.638 49.0215 117.599 46.6912 117.398 44.3757C117.187 42.0614 116.831 39.7607 116.318 37.4977C115.3 32.967 113.692 28.58 111.613 24.4416C109.539 20.2974 106.981 16.4132 104.108 12.7934C106.916 16.4645 109.386 20.3943 111.405 24.5442C113.418 28.6963 114.957 33.0799 115.904 37.5877C116.857 42.0944 117.208 46.722 116.936 51.3108C116.793 53.6057 116.494 55.8882 116.04 58.141C115.583 60.3903 114.965 62.6078 114.202 64.7716C112.68 69.1028 110.54 73.2116 107.881 76.9442C105.218 80.6757 102.027 84.024 98.4232 86.8469C94.822 89.6697 90.7925 91.9453 86.5079 93.53C82.2256 95.1147 77.6836 95.9982 73.1222 96.1031C70.841 96.1544 68.5563 96.0165 66.2979 95.695C64.0383 95.3678 61.8083 94.8536 59.6273 94.1775C57.4508 93.4923 55.3108 92.651 53.2379 91.6899C51.1663 90.7231 49.1515 89.6309 47.2381 88.3848C45.3236 87.1376 43.5059 85.7467 41.8203 84.2076C40.1382 82.6696 38.5847 80.9869 37.202 79.173C35.8182 77.3615 34.5916 75.4267 33.5586 73.3917C32.5234 71.3578 31.676 69.227 31.0189 67.0392C29.708 62.6602 29.1499 58.0589 29.2672 53.4746C29.323 51.1842 29.5485 48.8938 29.9198 46.6285C30.2865 44.3609 30.8059 42.1161 31.4574 39.9123C32.7671 35.5025 34.5882 31.2398 36.8569 27.2256C37.9924 25.2191 39.2327 23.2707 40.5812 21.3987C41.9274 19.5233 43.3624 17.7106 44.8988 15.9822Z" fill="#AA5631"/>
<path d="M76.3636 24.1645C76.4377 22.9971 76.4399 21.8228 76.3978 20.6508C76.3466 19.4777 76.2395 18.3057 76.08 17.1405C75.768 14.8091 75.219 12.5084 74.4525 10.275C74.0562 9.16344 73.6052 8.06897 73.0733 7.01098C72.5323 5.95983 71.9298 4.93149 71.2021 3.99093C70.48 3.04923 69.6315 2.18733 68.6418 1.51925C68.5154 1.43944 68.3855 1.36534 68.258 1.29009C68.1919 1.25247 68.1293 1.21257 68.0644 1.17836L67.8605 1.0826C67.725 1.02218 67.5951 0.946932 67.4539 0.897909L67.0325 0.749698C66.8913 0.704095 66.7432 0.680155 66.5997 0.644813C66.5268 0.627711 66.4562 0.60833 66.3822 0.59693L66.1624 0.572988L65.9426 0.551326C65.905 0.549046 65.8685 0.543346 65.8321 0.542206L65.7216 0.545626L65.282 0.553607C65.8674 0.587809 66.4346 0.723477 66.9676 0.93553C67.4983 1.15328 67.9858 1.4611 68.4425 1.80085C68.6589 1.98782 68.8912 2.15313 69.0917 2.35948L69.4003 2.6559L69.6907 2.97284C69.8878 3.17805 70.0609 3.40949 70.2465 3.62724C70.4242 3.85184 70.5916 4.08555 70.7602 4.31699C71.4105 5.26325 71.9834 6.26423 72.4754 7.30626C72.9754 8.34486 73.4127 9.41653 73.7908 10.5076C74.1769 11.5975 74.5026 12.7091 74.7931 13.8309C75.0903 14.9504 75.3295 16.086 75.5402 17.2272C75.5983 17.5133 75.6416 17.7995 75.6894 18.0868C75.7372 18.3729 75.7851 18.6591 75.8249 18.9487C75.8648 19.236 75.9126 19.5233 75.9479 19.8106L76.055 20.677C76.1905 21.8331 76.2828 22.9971 76.3636 24.1645Z" fill="#AA5631"/>
<path d="M59.6205 10.6661C58.9098 11.0947 58.231 11.585 57.6011 12.1162C56.9599 12.6418 56.3643 13.2107 55.788 13.8013C54.6422 14.9858 53.6218 16.2718 52.6992 17.6159C50.8565 20.3111 49.3975 23.2331 48.2791 26.2759C47.7199 27.7968 47.2393 29.3484 46.8532 30.9274C46.6562 31.7152 46.4899 32.511 46.3316 33.3113C46.2507 33.7104 46.1903 34.1139 46.122 34.5152C46.0491 34.9166 45.9944 35.3224 45.9421 35.7271C45.8828 36.1307 45.8373 36.5377 45.7929 36.9436L45.7302 37.557L45.6824 38.1703C45.6516 38.5785 45.6152 38.9878 45.6027 39.4005C45.5845 39.812 45.5617 40.2213 45.5583 40.6352C45.5332 41.4594 45.5377 42.2894 45.5639 43.1182C45.5799 43.5344 45.589 43.9482 45.6152 44.3655C45.6437 44.7827 45.6687 45.1966 45.7086 45.6139C46.0013 48.9463 46.6915 52.3175 47.9876 55.5678C48.1595 55.9726 48.3213 56.3784 48.5023 56.7786C48.6948 57.1765 48.8736 57.5755 49.0798 57.9688C49.4852 58.7566 49.9294 59.5273 50.4226 60.2752C50.6708 60.6491 50.9134 61.0231 51.1913 61.3788L51.5968 61.9169C51.7323 62.0959 51.8826 62.2669 52.025 62.4413L52.4612 62.9566L52.9259 63.4514C53.0831 63.6145 53.2323 63.7809 53.394 63.9394L53.8883 64.4057C55.2117 65.6381 56.7014 66.6881 58.2799 67.5055C59.8608 68.3218 61.5281 68.8953 63.1955 69.2453C64.8629 69.5976 66.5348 69.7139 68.1612 69.6603C69.7887 69.5976 71.3763 69.3752 72.9059 68.9808C73.3273 68.8725 73.5824 68.4427 73.4731 68.0208C73.3991 67.7347 73.1792 67.526 72.9127 67.4554L72.8934 67.4508C71.4276 67.0632 70.0131 66.6653 68.676 66.1705C67.3366 65.686 66.0758 65.1091 64.9221 64.4433C62.6101 63.1094 60.7753 61.3936 59.4143 59.4019C56.6832 55.4253 55.6502 50.3064 55.485 45.0039C55.4714 44.3393 55.4611 43.6735 55.4668 43.0031C55.4657 42.669 55.485 42.3304 55.4907 41.9953C55.493 41.6601 55.5169 41.3226 55.5283 40.9852C55.5386 40.6488 55.5648 40.3102 55.5876 39.9728C55.6081 39.6342 55.632 39.2967 55.6604 38.9581L55.7003 38.4485L55.7516 37.9412C55.7777 37.6014 55.8096 37.2617 55.8483 36.9219C55.9224 36.2436 55.993 35.5618 56.0853 34.8812C56.1297 34.5415 56.1638 34.1994 56.2151 33.8597L56.3586 32.8359C56.5602 31.4713 56.7811 30.1043 57.034 28.7362C57.5431 26.0023 58.1319 23.2639 58.8517 20.53C59.2116 19.1642 59.5954 17.7938 60.0316 16.4291C60.1443 16.0905 60.2469 15.7405 60.3664 15.4031C60.4234 15.2332 60.4838 15.0622 60.5384 14.8878C60.5931 14.7133 60.658 14.5469 60.7184 14.3736C60.9553 13.6804 61.2252 13.0055 61.4826 12.2895L61.5088 12.2166C61.7514 11.5428 61.4017 10.7995 60.7298 10.5566C60.3482 10.4198 59.9416 10.4745 59.6205 10.6661Z" fill="#FAC891"/>
<path d="M50.1458 64.5915C46.4899 64.9198 43.2588 62.2179 42.9331 58.5571C42.8795 57.9677 42.9057 57.3885 43.0014 56.831C45.7986 55.6921 49.6424 53.2318 51.492 51.5992C54.0045 52.3653 55.9258 54.5919 56.1741 57.3703C56.501 61.031 53.8018 64.2643 50.1458 64.5915Z" fill="white"/>
<path d="M50.1458 64.5915L50.1173 64.2814C49.9248 64.2974 49.7346 64.3065 49.5455 64.3065C47.9237 64.3065 46.4227 63.6863 45.2883 62.6545C44.1539 61.6205 43.3909 60.1783 43.2439 58.5297C43.2257 58.3371 43.2166 58.1444 43.2166 57.9551C43.2166 57.5903 43.2485 57.2323 43.3077 56.8835L43.0013 56.831L43.1187 57.1195C44.5434 56.5392 46.2142 55.6328 47.7677 54.6649C49.3212 53.6947 50.7528 52.6675 51.6992 51.8329L51.4919 51.5992L51.402 51.8979C52.5978 52.2639 53.6547 52.9764 54.4406 53.9295C55.2276 54.8826 55.7435 56.0729 55.8631 57.3988C55.879 57.5903 55.8882 57.7818 55.8882 57.9711C55.8882 59.5946 55.2697 61.0972 54.2379 62.2327C53.2049 63.3671 51.7641 64.1321 50.1173 64.2814L50.1458 64.5915L50.1731 64.9039C51.9806 64.7408 53.5682 63.8995 54.6991 62.6545C55.8312 61.4073 56.5134 59.7553 56.5134 57.9711C56.5134 57.7636 56.5043 57.5538 56.4849 57.3441C56.3551 55.8893 55.7868 54.5771 54.9224 53.5316C54.0579 52.4839 52.8985 51.7018 51.5831 51.2994C51.4806 51.2686 51.3678 51.2925 51.2858 51.3644C50.3826 52.1624 48.967 53.1794 47.4374 54.1347C45.9079 55.0878 44.2576 55.9817 42.8829 56.5403C42.7838 56.5825 42.7109 56.6714 42.6927 56.7774C42.6278 57.1616 42.5936 57.555 42.5936 57.9551C42.5936 58.1638 42.6016 58.3747 42.6209 58.5845C42.7827 60.3937 43.6232 61.983 44.868 63.1162C46.1129 64.2495 47.7631 64.9312 49.5455 64.9312C49.7528 64.9312 49.9624 64.921 50.1731 64.9039L50.1458 64.5915Z" fill="#994D2B"/>
<path d="M50.8839 61.4666C50.8736 60.957 51.2768 60.5363 51.787 60.5249C52.2961 60.5158 52.7175 60.9182 52.7278 61.4278C52.738 61.9397 52.3348 62.3615 51.8235 62.3706C51.3155 62.382 50.8941 61.9762 50.8839 61.4666ZM50.0342 59.785C50.0285 59.4794 50.2711 59.2263 50.5752 59.2183C50.8804 59.2126 51.1344 59.4555 51.1401 59.7622C51.147 60.0677 50.9044 60.3219 50.598 60.3276C50.2928 60.3333 50.0399 60.0894 50.0342 59.785ZM52.9806 61.6855C52.9419 59.8499 51.426 58.3941 49.5923 58.4306C47.7587 58.4693 46.3031 59.9879 46.3419 61.8223C46.3624 62.8255 46.827 63.7136 47.54 64.3076C48.3566 64.5664 49.237 64.6724 50.1458 64.5915C50.7711 64.5356 51.3679 64.392 51.9248 64.1788C52.5911 63.5563 53.0011 62.6671 52.9806 61.6855Z" fill="#42180B"/>
<path d="M52.7277 61.4278C52.7174 60.9182 52.296 60.5157 51.787 60.5249C51.2767 60.5363 50.8735 60.9569 50.8838 61.4666C50.894 61.9762 51.3154 62.382 51.8234 62.3706C52.3348 62.3615 52.7379 61.9397 52.7277 61.4278Z" fill="white"/>
<path d="M51.1401 59.7621C51.1344 59.4555 50.8804 59.2126 50.5752 59.2183C50.2711 59.2263 50.0285 59.4794 50.0342 59.785C50.0399 60.0894 50.2927 60.3333 50.598 60.3276C50.9043 60.3219 51.1469 60.0677 51.1401 59.7621Z" fill="white"/>
<path d="M50.1458 64.5915L50.1173 64.2814C49.9248 64.2974 49.7346 64.3065 49.5455 64.3065C47.9237 64.3065 46.4227 63.6863 45.2883 62.6545C44.1539 61.6205 43.3909 60.1783 43.2439 58.5297C43.2257 58.3371 43.2166 58.1444 43.2166 57.9551C43.2166 57.5903 43.2485 57.2323 43.3077 56.8835L43.0013 56.831L43.1187 57.1195C44.5434 56.5392 46.2142 55.6328 47.7677 54.6649C49.3212 53.6947 50.7528 52.6675 51.6992 51.8329L51.4919 51.5992L51.402 51.8979C52.5978 52.2639 53.6547 52.9764 54.4406 53.9295C55.2276 54.8826 55.7435 56.0729 55.8631 57.3988C55.879 57.5903 55.8882 57.7818 55.8882 57.9711C55.8882 59.5946 55.2697 61.0972 54.2379 62.2327C53.2049 63.3671 51.7641 64.1321 50.1173 64.2814L50.1458 64.5915L50.1731 64.9039C51.9806 64.7408 53.5682 63.8995 54.6991 62.6545C55.8312 61.4073 56.5134 59.7553 56.5134 57.9711C56.5134 57.7636 56.5043 57.5538 56.4849 57.3441C56.3551 55.8893 55.7868 54.5771 54.9224 53.5316C54.0579 52.4839 52.8985 51.7018 51.5831 51.2994C51.4806 51.2686 51.3678 51.2925 51.2858 51.3644C50.3826 52.1624 48.967 53.1794 47.4374 54.1347C45.9079 55.0878 44.2576 55.9817 42.8829 56.5403C42.7838 56.5825 42.7109 56.6714 42.6927 56.7774C42.6278 57.1616 42.5936 57.555 42.5936 57.9551C42.5936 58.1638 42.6016 58.3747 42.6209 58.5845C42.7827 60.3937 43.6232 61.983 44.868 63.1162C46.1129 64.2495 47.7631 64.9312 49.5455 64.9312C49.7528 64.9312 49.9624 64.921 50.1731 64.9039L50.1458 64.5915Z" fill="#42180B"/>
<path d="M49.172 66.3928C48.8144 67.2467 46.7109 67.1783 44.4763 66.2389C42.2406 65.2995 40.7179 63.847 41.0767 62.992C41.4354 62.1392 43.5367 62.2076 45.7724 63.147C48.0081 64.0853 49.5297 65.54 49.172 66.3928Z" fill="#FF803B"/>
<path d="M51.5626 43.6084C48.5422 48.1744 43.0595 50.2528 38.0585 51.866C39.4583 51.0007 40.8922 50.173 42.227 49.2074C43.1278 48.7023 51.7961 41.3614 51.5626 43.6084Z" fill="#632B15"/>
<path d="M91.0204 65.0088C87.3633 65.3371 84.1345 62.6363 83.8065 58.9744C83.4944 55.4892 85.9294 52.3893 89.3222 51.8204C91.5944 54.4118 94.403 57.0214 97.0543 57.8514C97.3448 61.4859 94.6558 64.6838 91.0204 65.0088Z" fill="white"/>
<path d="M91.0203 65.0088L90.9929 64.6975C90.8005 64.7158 90.6091 64.7249 90.4201 64.7249C88.7983 64.7237 87.2983 64.1047 86.1628 63.0718C85.0284 62.0389 84.2654 60.5967 84.1185 58.9481C84.1002 58.7543 84.0923 58.5639 84.0923 58.3747C84.0911 55.2908 86.328 52.639 89.3746 52.1282L89.3222 51.8204L89.0887 52.0268C90.2322 53.331 91.5123 54.6432 92.8482 55.7388C94.1853 56.8344 95.5771 57.7157 96.9609 58.1501L97.0543 57.8514L96.7422 57.8765C96.7559 58.0498 96.7627 58.2196 96.7627 58.3895C96.7627 60.013 96.1431 61.5156 95.1124 62.6511C94.0817 63.7866 92.6387 64.5504 90.9929 64.6975L91.0203 65.0088L91.0488 65.32C92.8562 65.1592 94.4427 64.3179 95.5737 63.0718C96.7057 61.8257 97.388 60.1737 97.388 58.3895C97.388 58.2025 97.38 58.0155 97.3652 57.8274C97.3549 57.6997 97.2684 57.5926 97.1465 57.5538C95.88 57.1582 94.5429 56.3203 93.2446 55.2554C91.9451 54.1895 90.6854 52.9012 89.5579 51.614C89.4862 51.532 89.3791 51.4932 89.2709 51.5114C85.9236 52.0735 83.4681 54.9841 83.4681 58.3747C83.4681 58.581 83.4772 58.7908 83.4966 59.0029C83.6572 60.8121 84.4977 62.4014 85.7425 63.5346C86.9874 64.6679 88.6388 65.3485 90.4201 65.3485C90.6285 65.3485 90.8369 65.3394 91.0488 65.32L91.0203 65.0088Z" fill="#994D2B"/>
<path d="M91.7583 61.8861C91.7481 61.3754 92.1524 60.9547 92.6615 60.9421C93.1706 60.9319 93.592 61.3377 93.6022 61.8473C93.6136 62.3558 93.2093 62.7788 92.7002 62.7902C92.1911 62.8004 91.7686 62.3946 91.7583 61.8861ZM90.9087 60.2034C90.9019 59.8967 91.1444 59.6436 91.4497 59.6379C91.756 59.6322 92.01 59.8739 92.0157 60.1794C92.0214 60.4872 91.7788 60.7381 91.4736 60.746C91.1684 60.7517 90.9155 60.5089 90.9087 60.2034ZM93.8551 62.1027C93.8175 60.2683 92.2993 58.8125 90.4679 58.8501C88.6343 58.8877 87.1788 60.4063 87.2163 62.2418C87.2368 63.2439 87.7015 64.1298 88.4156 64.726C89.2322 64.9848 90.1137 65.0908 91.0203 65.0088C91.6444 64.954 92.2412 64.8104 92.7993 64.5972C93.4655 63.9759 93.8756 63.0855 93.8551 62.1027Z" fill="#42180B"/>
<path d="M93.6022 61.8473C93.5919 61.3377 93.1705 60.9319 92.6615 60.9421C92.1524 60.9547 91.7481 61.3754 91.7583 61.8861C91.7686 62.3946 92.1911 62.8005 92.7002 62.7902C93.2093 62.7788 93.6136 62.3558 93.6022 61.8473Z" fill="white"/>
<path d="M92.0158 60.1794C92.0101 59.8739 91.7561 59.6322 91.4497 59.6379C91.1445 59.6436 90.9019 59.8967 90.9087 60.2034C90.9155 60.5089 91.1684 60.7517 91.4736 60.746C91.7789 60.738 92.0215 60.4872 92.0158 60.1794Z" fill="white"/>
<path d="M91.0203 65.0088L90.9929 64.6975C90.8005 64.7158 90.6091 64.7249 90.4201 64.7249C88.7983 64.7237 87.2983 64.1047 86.1628 63.0718C85.0284 62.0389 84.2654 60.5967 84.1185 58.9481C84.1002 58.7543 84.0923 58.5639 84.0923 58.3747C84.0911 55.2908 86.328 52.639 89.3746 52.1282L89.3222 51.8204L89.0887 52.0268C90.2322 53.331 91.5123 54.6432 92.8482 55.7388C94.1853 56.8344 95.5771 57.7157 96.9609 58.1501L97.0543 57.8514L96.7422 57.8765C96.7559 58.0498 96.7627 58.2196 96.7627 58.3895C96.7627 60.013 96.1431 61.5156 95.1124 62.6511C94.0817 63.7866 92.6387 64.5504 90.9929 64.6975L91.0203 65.0088L91.0488 65.32C92.8562 65.1592 94.4427 64.3179 95.5737 63.0718C96.7057 61.8257 97.388 60.1737 97.388 58.3895C97.388 58.2025 97.38 58.0155 97.3652 57.8274C97.3549 57.6997 97.2684 57.5926 97.1465 57.5538C95.88 57.1582 94.5429 56.3203 93.2446 55.2554C91.9451 54.1895 90.6854 52.9012 89.5579 51.614C89.4862 51.532 89.3791 51.4932 89.2709 51.5114C85.9236 52.0735 83.4681 54.9841 83.4681 58.3747C83.4681 58.581 83.4772 58.7908 83.4966 59.0029C83.6572 60.8121 84.4977 62.4014 85.7425 63.5346C86.9874 64.6679 88.6388 65.3485 90.4201 65.3485C90.6285 65.3485 90.8369 65.3394 91.0488 65.32L91.0203 65.0088Z" fill="#42180B"/>
<path d="M90.6832 66.5444C90.9224 67.4394 93.0157 67.6537 95.3562 67.0233C97.6989 66.3928 99.4016 65.1581 99.1613 64.2643C98.921 63.3693 96.8277 63.155 94.4872 63.7855C92.1467 64.4148 90.4429 65.6495 90.6832 66.5444Z" fill="#FF803B"/>
<path d="M90.5818 42.8617C94.9382 46.2477 97.675 51.2709 102.374 54.2658C97.8401 52.4702 93.6319 49.3191 90.9862 45.1806C90.7641 44.7155 89.2288 42.5391 90.5818 42.8617Z" fill="#632B15"/>
<path d="M55.8244 65.9949C55.8529 65.9778 57.5146 64.9426 60.1614 63.9154C62.8048 62.8894 66.4289 61.8747 70.3718 61.8758C72.3364 61.8758 74.3785 62.1267 76.4263 62.748C78.4752 63.3693 80.5298 64.3612 82.5229 65.8524C82.7905 66.0531 83.1687 65.9984 83.368 65.7304C83.5673 65.4637 83.5137 65.0852 83.2461 64.8845C81.1391 63.3066 78.9524 62.2498 76.7771 61.5908C74.6017 60.9307 72.4378 60.6662 70.3718 60.6662C66.1897 60.6685 62.4051 61.7436 59.6592 62.813C56.9144 63.8858 55.2049 64.9552 55.1821 64.9711C54.8996 65.1479 54.8142 65.5218 54.9907 65.8023C55.1684 66.0861 55.542 66.1728 55.8244 65.9949Z" fill="#42180B"/>
<path d="M67.9789 64.6827C67.5552 64.8024 67.1521 64.9597 66.7899 65.1444C66.61 65.2356 66.545 65.4739 66.643 65.678C66.7398 65.8821 66.9642 65.9778 67.143 65.8821C68.365 65.2619 70.2203 64.9335 71.4105 65.678C71.5939 65.7909 71.816 65.7281 71.9071 65.5378C71.997 65.3462 71.9219 65.0988 71.7396 64.9837C70.6679 64.3133 69.2317 64.3281 67.9789 64.6827Z" fill="#632B15"/>
<path d="M30.0337 52.7735L24.9621 80.6699L9.80659 72.0214C9.52186 71.8583 9.15741 71.9586 8.99568 72.2425C8.83168 72.5287 8.9319 72.8935 9.21777 73.0565L25.1033 82.1224C25.2708 82.217 25.4735 82.225 25.6489 82.1441C25.8231 82.062 25.9484 81.9001 25.9826 81.7108L31.2045 52.9878C31.2637 52.6629 31.0485 52.3528 30.725 52.2947C30.4027 52.2354 30.0929 52.4497 30.0337 52.7735Z" fill="#994D2B"/>
<path d="M9.99904 71.6554C9.54462 70.8277 8.74054 70.5313 7.86358 70.5769C6.64835 70.358 5.19282 69.5998 4.60286 69.1735C4.33522 68.9819 3.96279 69.0435 3.77146 69.3091C3.57898 69.5759 3.64048 69.9487 3.90698 70.1414C4.28169 70.4116 5.01857 70.8391 5.87276 71.1971C5.34772 71.4901 4.95365 71.8287 4.70651 72.2095C4.12338 72.2494 3.36486 72.2699 2.82274 72.2847C2.37173 72.2972 1.94578 72.3098 1.60296 72.3258C1.27609 72.3429 1.02211 72.6233 1.03806 72.9516C1.05514 73.28 1.33531 73.5331 1.66218 73.516C1.99246 73.5 2.41273 73.4875 2.85691 73.4761C3.489 73.459 4.00037 73.4407 4.41494 73.4202C4.42291 73.4909 4.43317 73.5639 4.44797 73.6368C3.31475 74.0598 1.94463 74.5819 1.16675 74.9126C0.861523 75.0437 0.722575 75.3925 0.851273 75.6947C0.981109 75.9968 1.33076 76.1381 1.63257 76.0082C2.39451 75.6833 3.77829 75.16 4.91265 74.737C5.03451 74.9183 5.17004 75.0733 5.31582 75.2033C4.52427 75.6012 3.64618 76.0686 3.05622 76.4505C2.78174 76.6295 2.70201 76.9989 2.88082 77.2748C3.04482 77.5279 3.366 77.6145 3.62909 77.4925C3.65529 77.48 3.68035 77.4675 3.70426 77.4504C4.54478 76.9054 6.0789 76.1438 6.96612 75.7186C7.47749 75.6798 8.01961 75.5008 8.54807 75.2101C9.9888 74.4189 10.7895 73.0976 9.99904 71.6554Z" fill="#994D2B"/>
<path d="M109.697 58.6392L110.315 87.7099C110.319 87.9162 110.433 88.1078 110.611 88.2115C110.79 88.3164 111.012 88.3187 111.193 88.2207L127.08 79.6017C127.368 79.4455 127.475 79.083 127.319 78.7945C127.162 78.5038 126.801 78.3966 126.512 78.5528L111.484 86.7066L110.886 58.6141C110.881 58.2846 110.609 58.0247 110.279 58.0315C109.95 58.0372 109.691 58.3097 109.697 58.6392Z" fill="#994D2B"/>
<path d="M126.647 78.1846C127.381 77.5929 128.238 77.6248 129.032 78.0022C130.238 78.2621 131.873 78.1151 132.579 77.9475C132.903 77.8699 133.221 78.0672 133.297 78.3875C133.374 78.7079 133.174 79.0294 132.856 79.1058C132.408 79.2129 131.562 79.3269 130.637 79.3338C131.009 79.8046 131.243 80.2652 131.327 80.7121C131.856 80.9709 132.55 81.2799 133.044 81.4999C133.456 81.6823 133.845 81.8568 134.157 82.0027C134.456 82.1429 134.58 82.4986 134.439 82.795C134.304 83.0937 133.945 83.2214 133.65 83.0812C133.35 82.9398 132.968 82.77 132.562 82.5887C131.979 82.3322 131.514 82.1213 131.139 81.9434C131.102 82.0073 131.068 82.07 131.026 82.1327C131.914 82.9547 132.986 83.9591 133.579 84.561C133.809 84.7982 133.804 85.1732 133.574 85.4035C133.339 85.635 132.962 85.6315 132.726 85.3978C132.15 84.8084 131.068 83.7949 130.18 82.9718C129.996 83.0937 129.814 83.1861 129.632 83.2499C130.208 83.9203 130.844 84.6853 131.243 85.2656C131.432 85.5346 131.362 85.9063 131.091 86.0933C130.844 86.2643 130.514 86.2232 130.32 86.0089C130.297 85.9884 130.279 85.9656 130.267 85.9428C129.697 85.1185 128.567 83.8302 127.907 83.0983C127.449 82.8669 127.017 82.4963 126.636 82.0255C125.605 80.7452 125.368 79.2186 126.647 78.1846Z" fill="#994D2B"/>
</svg>
