<svg width="27" height="37" viewBox="0 0 27 37" fill="none" xmlns="http://www.w3.org/2000/svg">
<path d="M9.32942 21.4915C11.0674 19.3219 15.6846 20.5555 16.2734 24.7156H16.2825C17.0866 20.2614 21.6889 19.3596 23.4452 21.5154C25.2036 23.677 24.592 27.2238 22.4976 29.4709C20.9122 31.1707 16.2768 36.0594 16.2768 36.0594C16.2768 36.0594 11.4717 31.3383 9.90117 29.3147C8.40122 27.3811 7.58916 23.6668 9.32942 21.4915Z" fill="#FF803B"/>
<path d="M20.1218 0.457162C20.8473 -0.448056 22.7709 0.067257 23.0158 1.80017H23.0192C23.354 -0.0558709 25.2731 -0.432095 26.0043 0.466283C26.7377 1.36808 26.4838 2.84561 25.6102 3.78275C24.9497 4.49074 23.0181 6.52805 23.0181 6.52805C23.0181 6.52805 21.0147 4.56142 20.3598 3.71663C19.7346 2.91174 19.3963 1.36352 20.1218 0.457162Z" fill="#FF803B"/>
<path d="M1.08826 17.8752C1.94927 16.8013 4.23503 17.4123 4.52659 19.4713H4.53118C4.92866 17.2664 7.20757 16.8195 8.07656 17.8877C8.94782 18.9571 8.64489 20.714 7.60849 21.8267C6.82265 22.6669 4.52774 25.0884 4.52774 25.0884C4.52774 25.0884 2.14857 22.7513 1.37184 21.748C0.629277 20.7915 0.227252 18.9526 1.08826 17.8752Z" fill="#FF803B"/>
</svg>
