<svg width="86" height="10" viewBox="0 0 86 10" fill="none" xmlns="http://www.w3.org/2000/svg">
<path d="M83.9161 4.42656H1.25366C0.991712 4.42656 0.777588 4.63975 0.777588 4.90311C0.777588 5.16533 0.991712 5.37966 1.25366 5.37966H83.9161C84.1791 5.37966 84.3921 5.16533 84.3921 4.90311C84.3921 4.63975 84.1791 4.42656 83.9161 4.42656ZM79.4527 9.48393L84.9946 5.28276C85.1142 5.19269 85.1837 5.05246 85.1837 4.90311C85.1837 4.75262 85.1142 4.61239 84.9946 4.52233L79.4527 0.323424C79.2442 0.163813 78.9447 0.204859 78.7864 0.413493C78.6269 0.624406 78.6691 0.923104 78.8775 1.08271L83.9183 4.90311L78.8775 8.72236C78.6691 8.88197 78.6269 9.18181 78.7864 9.39158C78.9447 9.60135 79.2442 9.6424 79.4527 9.48393ZM7.08376 8.72236L2.04178 4.90311L7.08376 1.08271C7.29446 0.923104 7.33546 0.624406 7.17601 0.414632C7.01656 0.204858 6.71931 0.163813 6.50975 0.323424L0.966648 4.52233C0.847062 4.61239 0.777588 4.75262 0.777588 4.90311C0.777588 5.05246 0.847062 5.19269 0.966648 5.28276L6.50975 9.48393C6.71931 9.6424 7.01656 9.60135 7.17601 9.39158C7.33546 9.18181 7.29446 8.88197 7.08376 8.72236Z" fill="#42180B"/>
</svg>
