<svg width="105" height="113" viewBox="0 0 105 113" fill="none" xmlns="http://www.w3.org/2000/svg">
<path d="M66.2109 88.4881L65.2878 111.794C65.2815 111.952 65.3385 112.107 65.4526 112.221C65.5624 112.335 65.7124 112.398 65.8709 112.396L75.6744 112.265C75.9955 112.261 76.249 111.999 76.249 111.678C76.2427 111.359 75.9786 111.103 75.6575 111.105L66.4687 111.228L67.3664 88.5324C67.3791 88.2135 67.1319 87.9431 66.8109 87.9304C66.4898 87.9177 66.2215 88.167 66.2109 88.4881Z" fill="#994D2B"/>
<path d="M76.0758 111.995C77.4446 110.841 70.9131 105.725 66.0314 111.492C71.4116 111.424 74.2591 112.159 76.0758 111.995Z" fill="#994D2B"/>
<path d="M35.104 88.9444L30.1715 102.206C30.1251 102.324 30.1251 102.457 30.161 102.578L32.7677 111.086L23.7203 111.158C23.3992 111.16 23.1415 111.42 23.1415 111.741C23.1457 112.062 23.4056 112.32 23.7245 112.316L33.5513 112.242C33.7351 112.24 33.9062 112.149 34.0161 112.003C34.1196 111.857 34.1534 111.665 34.1006 111.49L31.3291 102.426L36.1939 89.3478C36.3017 89.0479 36.1538 88.7141 35.8496 88.6021C35.5518 88.4902 35.218 88.6444 35.104 88.9444Z" fill="#994D2B"/>
<path d="M23.3295 112.153C21.9543 111 28.4858 105.886 33.3676 111.65C27.9936 111.583 25.1462 112.32 23.3295 112.153Z" fill="#994D2B"/>
<path d="M54.8421 91.0272C11.0861 94.2295 -11.9389 35.5369 31.5974 1.66056C32.7951 0.726882 34.6287 0.399462 36.6861 0.965581C41.2637 2.22879 46.9291 7.93223 49.107 21.2973C49.314 22.5711 49.4006 23.8744 49.4006 25.1799C49.3879 33.5618 45.8412 42.0937 48.8091 44.4237C49.3414 44.842 50.0808 45.0595 51.0842 45.0447C57.4657 44.9412 53.0085 36.4114 54.4196 24.9919C54.614 23.4181 54.916 21.7874 55.3808 20.1186C58.6021 8.45188 66.7031 -1.45944 72.4488 0.283281C73.1607 0.498744 73.8367 0.89376 74.4662 1.48734C80.1738 6.88871 84.7387 13.5089 88.0235 20.6805C101.372 49.861 93.4586 88.2029 54.8421 91.0272Z" fill="#E0AB6C"/>
<path d="M72.4488 0.283281C63.167 4.69394 59.8738 14.1279 58.9443 20.558C57.1002 33.3421 65.2815 53.0211 52.4023 51.6692C46.5235 51.0503 43.9506 45.5052 46.1792 37.1233C46.965 34.1681 49.4006 25.1799 49.4006 25.1799C49.3816 35.0595 44.466 45.1483 51.0841 45.0447C58.3486 44.9286 51.5721 33.8998 55.3807 20.1186C58.6021 8.45188 66.7031 -1.45944 72.4488 0.283281Z" fill="#D69763"/>
<path d="M54.8421 91.0272C11.0861 94.2295 -11.9389 35.5369 31.5974 1.66055C32.7951 0.726879 34.6287 0.39946 36.6861 0.965579C27.4318 9.9221 0.705871 49.7427 36.8741 72.9768C58.0339 86.5721 98.2157 66.5826 88.0235 20.6805C101.372 49.861 93.4586 88.2029 54.8421 91.0272Z" fill="#D69763"/>
<path d="M74.4662 1.48734C78.6212 5.33822 82.1954 9.81014 85.1337 14.675C86.6018 17.1084 87.8967 19.6433 89.0416 22.25C90.176 24.8567 91.1688 27.5331 91.9631 30.2665C93.5621 35.7333 94.5021 41.4114 94.5993 47.1297C94.7155 52.8437 93.9973 58.6063 92.263 64.0963C92.0328 64.7765 91.8215 65.4652 91.5575 66.1348L91.173 67.1466L90.7548 68.1416L90.5435 68.6401C90.4696 68.8049 90.3893 68.9675 90.3133 69.1302L89.8549 70.1103C89.7007 70.4356 89.5232 70.7504 89.3564 71.0714C89.1916 71.3904 89.0311 71.7157 88.8473 72.0262C88.4797 72.6494 88.1312 73.2831 87.7362 73.8851C87.5355 74.1893 87.3517 74.4977 87.1447 74.7977L86.5215 75.6849C86.418 75.8328 86.3145 75.9827 86.2068 76.1285L85.873 76.5594L85.214 77.4192L84.5106 78.2493C84.2803 78.5261 84.0458 78.8049 83.7945 79.0668L83.0551 79.8632C82.9347 79.9984 82.8016 80.1251 82.6707 80.2519L82.2862 80.6321L81.8975 81.0123C81.7666 81.1391 81.6398 81.2679 81.5025 81.3862L80.6893 82.1108C80.5519 82.2291 80.4189 82.3558 80.2816 82.4699L79.857 82.8121L79.0099 83.4965L78.1333 84.1429C77.8418 84.3541 77.5481 84.5802 77.2461 84.7724C74.8443 86.4074 72.2608 87.7699 69.5675 88.8514L69.3204 88.957L69.0627 89.0521L68.5536 89.2401L67.5333 89.614C66.8468 89.8379 66.1518 90.0597 65.459 90.2709C64.7598 90.4547 64.0605 90.6533 63.3635 90.8223L62.303 91.0567L61.7686 91.175L61.5067 91.2342L61.2363 91.2806L60.1716 91.4729L59.6372 91.5679L59.3689 91.6144L59.1049 91.6524C58.3888 91.7475 57.6727 91.8594 56.9566 91.9376C56.2405 92.0073 55.5181 92.0855 54.802 92.1446C54.0795 92.1826 53.3529 92.2375 52.6304 92.2587C46.8319 92.4277 40.9764 91.4834 35.5391 89.3837C32.8289 88.3212 30.2286 86.9777 27.793 85.385C25.3532 83.7986 23.095 81.9355 21.0376 79.8801C16.9142 75.7821 13.6696 70.8475 11.3903 65.5349C9.12584 60.2117 7.79715 54.5019 7.52254 48.7456C7.23103 42.9894 7.92389 37.1951 9.57366 31.6966C11.2129 26.1917 13.7625 20.9825 17.005 16.2762C18.6273 13.9208 20.4187 11.6902 22.3451 9.59045C24.2759 7.48652 26.3545 5.53045 28.5323 3.69478L29.3456 3.00614L30.1821 2.34285L31.0186 1.68168C31.1622 1.57183 31.289 1.45988 31.4432 1.35215L31.684 1.1916L31.7981 1.11133L31.9312 1.04374C32.5944 0.67407 33.3401 0.475505 34.0795 0.410021C34.823 0.34665 35.5623 0.414247 36.2784 0.572675C37.7106 0.897983 39.0288 1.58662 40.1864 2.44214C41.3376 3.31455 42.341 4.35385 43.2176 5.48609C44.0879 6.61832 44.8336 7.84351 45.4758 9.11305L45.7208 9.58623L45.9384 10.0721C46.0884 10.3974 46.2426 10.7164 46.3693 11.048L46.7707 12.0366L47.1298 13.0379C47.5882 14.3835 47.9895 15.7438 48.3043 17.1274C48.4775 17.814 48.6084 18.5111 48.7458 19.2039C48.8218 19.5525 48.8725 19.901 48.9359 20.2517L49.107 21.2973L48.9063 20.2559C48.8387 19.9095 48.7817 19.5588 48.7014 19.2145C48.5408 18.5258 48.3972 17.833 48.2071 17.1507C47.8649 15.7776 47.4276 14.432 46.9481 13.1055L46.5637 12.1169L46.1454 11.1473C46.0144 10.8199 45.8476 10.5072 45.6976 10.1883L45.4631 9.71297L45.216 9.24825C44.5463 8.00828 43.7901 6.819 42.9071 5.73112C42.0262 4.64113 41.0229 3.65465 39.8949 2.84138C38.7647 2.04078 37.4994 1.41552 36.158 1.14091C35.4884 1.00783 34.8061 0.961354 34.1428 1.03318C33.4711 1.105 32.8247 1.29722 32.2565 1.62464L32.153 1.68379L32.0516 1.75561L31.8551 1.89503C31.7178 1.9922 31.5805 2.11472 31.4432 2.22456L30.6299 2.8963L29.8167 3.56804L29.0245 4.26724C26.9121 6.12825 24.8948 8.10333 23.038 10.2136C21.1812 12.3239 19.4639 14.5546 17.9155 16.893C14.8166 21.5677 12.4212 26.7008 10.9319 32.0852C9.41946 37.4634 8.85756 43.0908 9.24202 48.6421C9.60746 54.1935 10.9826 59.6646 13.2408 64.7237C14.3688 67.2544 15.7503 69.6688 17.3134 71.9439C17.6916 72.5227 18.1225 73.0655 18.5281 73.6232C18.7287 73.9063 18.9527 74.1661 19.1639 74.4386L19.8187 75.2434C20.7165 76.289 21.6396 77.3178 22.6303 78.2747C24.6075 80.1948 26.7452 81.9566 29.0604 83.4437C31.3693 84.9414 33.826 86.2088 36.3883 87.2164C38.9485 88.2177 41.6186 88.9486 44.3351 89.4112C47.0495 89.878 49.8125 90.0681 52.5734 90.0111C53.262 89.9963 53.9549 89.952 54.6414 89.9245C55.3343 89.8738 56.0293 89.8062 56.7221 89.7492C57.4086 89.6795 58.0973 89.5802 58.7838 89.4978L59.0415 89.4661L59.2992 89.4217L59.8104 89.3372L60.8349 89.1662C63.562 88.6634 66.2448 87.9452 68.8282 86.9545C71.4074 85.9659 73.881 84.7153 76.192 83.2029C76.4835 83.0233 76.7581 82.8142 77.0454 82.6178L77.8861 82.0178L78.6994 81.382L79.1071 81.063C79.2444 80.9574 79.3711 80.8391 79.5021 80.7293L80.2879 80.0533C80.4252 79.9435 80.5456 79.8231 80.6702 79.7048L81.0505 79.3478L81.4222 78.9908C81.5469 78.8746 81.6736 78.7563 81.794 78.6274L82.5101 77.8818C82.7573 77.6367 82.9812 77.3748 83.2093 77.115L83.8916 76.3334L84.538 75.5222L84.8591 75.1167C84.9689 74.9815 85.0661 74.8378 85.1696 74.6984L85.7759 73.8598C85.9829 73.5767 86.1603 73.2831 86.3547 72.9958C86.7497 72.4255 87.094 71.8235 87.4552 71.2299C87.639 70.9384 87.7932 70.6257 87.9643 70.3237C88.1248 70.0174 88.3023 69.7174 88.4586 69.4069L88.917 68.4732C88.9973 68.3169 89.0754 68.1627 89.1451 68.0043L89.3564 67.5269L89.781 66.5742L90.1718 65.6046C90.4337 64.9624 90.6513 64.3013 90.8878 63.6443C92.6686 58.3591 93.4776 52.7486 93.465 47.1423C93.465 44.3371 93.277 41.5297 92.8819 38.7456C92.4975 35.9636 91.9356 33.2006 91.2026 30.4819C89.7303 25.0468 87.5587 19.7975 84.7746 14.8883C81.9715 9.98547 78.5219 5.44172 74.4662 1.48734Z" fill="#CC834B"/>
<path d="M18.2028 31.2741C18.0992 31.2741 18.0126 31.2086 18.0253 31.0375C18.0486 30.9044 18.1732 30.784 18.2999 30.784C18.357 30.784 18.414 30.8115 18.4541 30.877C18.5851 31.084 18.3739 31.2741 18.2028 31.2741Z" fill="#D18D58"/>
<path d="M34.4005 41.346C34.3308 41.346 34.2611 41.2995 34.221 41.1833C34.2168 41.0122 34.4048 40.6911 34.5949 40.6911C34.6519 40.6911 34.7026 40.7165 34.7554 40.7841C34.8758 40.9721 34.6118 41.346 34.4005 41.346Z" fill="#DB9F60"/>
<path d="M11.7558 32.7528C11.6248 32.7528 11.4769 32.7 11.327 32.5753C10.989 32.2078 11.3375 31.8043 11.648 31.5677C11.8318 31.4811 11.9797 31.4431 12.0937 31.4431C12.4507 31.4431 12.531 31.7705 12.4444 32.0979C12.3578 32.4253 12.0937 32.7528 11.7558 32.7528Z" fill="#D18D58"/>
<path d="M21.9501 23.5533C21.8572 23.5533 21.7663 23.528 21.6692 23.4667C21.1939 23.1604 21.515 22.4929 21.9607 22.4929C22.0536 22.4929 22.1445 22.5183 22.2416 22.5795C22.7169 22.8858 22.3958 23.5533 21.9501 23.5533Z" fill="#D18D58"/>
<path d="M15.9784 46.1749C15.332 46.158 14.0075 45.1419 14.5927 44.4554C14.7131 44.354 14.8229 44.3117 14.9243 44.3117C15.2412 44.3117 15.4926 44.6962 15.7376 44.9328C15.8707 45.0363 16.008 45.1335 16.1516 45.2158C16.5466 45.4482 16.4262 46.0925 15.9784 46.1749Z" fill="#D18D58"/>
<path d="M16.798 39.3392C16.6544 39.3392 16.5065 39.1765 16.6164 39.0181C16.7241 38.8576 16.8783 38.6886 16.872 38.4816V38.4752C16.8445 38.4816 16.8213 38.4837 16.7938 38.4837C16.5234 38.4837 16.2023 38.152 16.4959 37.9513C16.5868 37.9154 16.6734 37.9007 16.7537 37.9007C17.3494 37.9007 17.4402 38.8597 16.9649 39.2441C16.9248 39.3117 16.8614 39.3392 16.798 39.3392ZM16.872 38.4752V38.4816V38.4752Z" fill="#D18D58"/>
<path d="M24.1259 37.8901C23.9611 37.8901 23.7837 37.8035 23.7879 37.6429C23.7943 37.5014 23.9316 37.4359 24.0752 37.4359C24.2231 37.4359 24.3836 37.5056 24.4132 37.6282C24.447 37.8077 24.2928 37.8901 24.1259 37.8901Z" fill="#DB9F60"/>
<path d="M23.828 56.8297C23.7837 56.8297 23.7309 56.8023 23.6802 56.7368C23.6168 56.6206 23.6464 56.4284 23.8006 56.4115C23.8048 56.4115 23.8048 56.4115 23.8048 56.4115C23.9548 56.4115 24.0013 56.5171 23.9949 56.6206C23.9844 56.7241 23.9146 56.8297 23.828 56.8297Z" fill="#DB9F60"/>
<path d="M39.0224 54.9201C38.9886 54.9201 38.9485 54.9075 38.902 54.88C38.8112 54.785 38.7837 54.5315 38.8513 54.4195C38.902 54.373 38.9485 54.3519 38.9886 54.3519C39.0985 54.3519 39.1661 54.4934 39.1788 54.635C39.183 54.7786 39.1386 54.9201 39.0224 54.9201Z" fill="#DB9F60"/>
<path d="M13.2682 62.605C13.0464 62.605 12.8225 62.4487 12.8394 62.1804C12.8626 61.8403 13.1774 61.6481 13.4921 61.6481C13.7055 61.6481 13.9104 61.7347 14.0244 61.9164C14.2716 62.2438 13.9674 62.5881 13.6653 62.5881C13.602 62.5881 13.5449 62.5754 13.4879 62.548C13.4245 62.586 13.3485 62.605 13.2682 62.605Z" fill="#D18D58"/>
<path d="M20.2813 61.0777C19.8863 61.0186 19.899 60.5919 19.9729 60.2877C20.1039 60.0131 20.2475 59.9075 20.3785 59.9075C20.6024 59.9075 20.7799 60.2011 20.8094 60.4926C20.8327 60.7862 20.6996 61.0777 20.2813 61.0777Z" fill="#D18D58"/>
<path d="M28.1605 51.9945C27.6683 51.9945 27.5986 51.2087 28.1267 51.1516C28.1436 51.1495 28.1605 51.1495 28.1774 51.1495C28.6696 51.1495 28.7393 51.9353 28.2176 51.9924C28.1943 51.9945 28.1774 51.9945 28.1605 51.9945Z" fill="#DB9F60"/>
<path d="M22.0748 50.1778C21.5826 50.1778 21.515 49.392 22.0346 49.335C22.0579 49.3329 22.0748 49.3329 22.0917 49.3329C22.586 49.3329 22.6536 50.1187 22.1276 50.1757C22.1107 50.1778 22.0917 50.1778 22.0748 50.1778Z" fill="#DB9F60"/>
<path d="M29.6561 67.3874C29.335 67.0875 29.0245 66.7854 28.7224 66.4812C28.7267 66.4812 28.733 66.4812 28.7393 66.4812C28.8238 66.4812 28.9168 66.5002 29.0076 66.5193C29.1048 66.5383 29.1977 66.5594 29.2822 66.5594C29.3012 66.5594 29.3181 66.5573 29.335 66.5573C29.3012 66.5552 29.2611 66.5552 29.221 66.5531C29.2379 66.5552 29.2548 66.5552 29.2717 66.5552C29.4026 66.5552 29.5399 66.5446 29.673 66.5214C29.6899 66.5193 29.7132 66.5171 29.7301 66.5171C30.0575 66.5171 30.275 66.946 30.0511 67.2058C29.9371 67.3051 29.7998 67.36 29.6561 67.3874Z" fill="#DB9F60"/>
<path d="M29.4026 67.4086C29.1513 67.4086 28.8872 67.3558 28.6654 67.3177C28.3042 67.2628 28.1838 66.7727 28.4816 66.5615C28.5556 66.5045 28.6422 66.4833 28.7225 66.4812C29.0245 66.7854 29.335 67.0875 29.6561 67.3874C29.5759 67.4022 29.4892 67.4086 29.4026 67.4086Z" fill="#D18D58"/>
<path d="M27.0135 62.5733C26.6924 62.5691 26.9058 62.1276 26.722 61.9628V61.9607L26.7157 61.9544L26.722 61.9607L26.7157 61.9565C26.6586 62.0326 26.5509 62.0748 26.4474 62.0748C26.2974 62.0748 26.1665 61.9924 26.2172 61.8213C26.3101 61.6396 26.4347 61.5657 26.5678 61.5657C26.9797 61.5657 27.4381 62.2882 27.0135 62.5733Z" fill="#DB9F60"/>
<path d="M15.9172 52.7845C15.8179 52.7845 15.7101 52.7212 15.6806 52.5902C15.6003 52.4233 15.6932 52.3346 15.801 52.3346C15.8981 52.3346 16.008 52.398 16.0418 52.5289C16.1221 52.6979 16.0312 52.7845 15.9172 52.7845Z" fill="#D18D58"/>
<path d="M23.1014 74.1851C23.0486 74.1851 22.9979 74.1534 22.9577 74.0774C22.907 73.9232 23.0486 73.6866 23.188 73.6866C23.2387 73.6866 23.2894 73.7183 23.3295 73.7943C23.376 73.9464 23.2387 74.1851 23.1014 74.1851Z" fill="#D18D58"/>
<path d="M30.744 58.0063C30.6933 58.0063 30.6405 57.9894 30.613 57.9451C30.4926 57.7888 30.7207 57.5881 30.894 57.5881C30.9278 57.5881 30.9616 57.5986 30.9911 57.6198C31.1686 57.7655 30.9278 58.0063 30.744 58.0063Z" fill="#DB9F60"/>
<path d="M43.0064 66.4876C43.0001 66.4876 43.0001 66.4876 43.0001 66.4876C42.8163 66.4707 42.6494 66.2341 42.8332 66.0989C42.8733 66.0693 42.9135 66.0566 42.9599 66.0566C43.074 66.0566 43.1712 66.1644 43.2007 66.2721C43.2282 66.3777 43.1775 66.4876 43.0064 66.4876Z" fill="#DB9F60"/>
<path d="M51.6968 51.0143C51.5531 50.9742 51.4116 50.9277 51.2785 50.8665C51.3187 50.8834 51.3588 50.9024 51.3989 50.9214C51.2954 50.8876 51.1983 50.8263 51.1074 50.763C51.118 50.7334 51.1412 50.7038 51.1708 50.6764C51.2046 50.6531 51.2447 50.6426 51.2912 50.6426C51.4792 50.6426 51.7369 50.8538 51.6968 51.0143Z" fill="#D18D58"/>
<path d="M40.9764 80.2984C40.8285 80.2984 40.6849 80.2286 40.5877 80.0575C40.3131 79.5865 40.7018 78.9211 41.2468 78.9211C41.2531 78.9211 41.2637 78.9211 41.2742 78.9211C41.8256 78.9211 41.8826 79.6435 41.4982 79.8421C41.4749 80.0977 41.2235 80.2984 40.9764 80.2984Z" fill="#D18D58"/>
<path d="M42.9768 85.6934C42.3177 85.6934 42.0663 85.2878 42.0938 84.8801C42.117 84.4724 42.4149 84.0647 42.8564 84.0647C43.0338 84.0647 43.2408 84.1344 43.4584 84.3013C43.6865 84.5273 43.619 84.8104 43.4457 84.9794C43.5028 85.2688 43.395 85.5814 42.9874 85.6934C42.9831 85.6934 42.9831 85.6934 42.9768 85.6934Z" fill="#D18D58"/>
<path d="M44.409 72.7086C44.1745 72.7086 43.94 72.5058 43.7795 72.3199C43.4817 71.7643 43.7225 71.5425 44.0478 71.5425C44.5125 71.5425 45.1483 71.9819 44.7195 72.567C44.6202 72.6684 44.5125 72.7086 44.409 72.7086Z" fill="#DB9F60"/>
<path d="M37.4128 83.3507C37.0875 83.3507 36.7495 83.0064 36.9671 82.6325C37.0579 82.4635 37.2079 82.396 37.3558 82.396C37.6832 82.396 38.0212 82.7403 37.8036 83.1142C37.7106 83.281 37.5628 83.3507 37.4128 83.3507Z" fill="#D18D58"/>
<path d="M37.4424 75.3828C37.436 75.3638 37.4297 75.3469 37.4191 75.3279V75.3321C37.4297 75.349 37.436 75.3659 37.4424 75.3828Z" fill="#D18D58"/>
<path d="M30.0913 82.5502C30.0617 82.5502 30.0406 82.548 30.011 82.5438C29.9941 82.5459 29.9709 82.548 29.954 82.548C29.5463 82.548 29.1407 81.9587 29.7195 81.5996C29.804 81.5531 29.9011 81.5299 29.9941 81.5299C30.2222 81.5299 30.4525 81.6566 30.5328 81.8784C30.5602 81.9249 30.5729 82.0157 30.5771 82.0749C30.5835 82.3896 30.3384 82.5502 30.0913 82.5502ZM30.3722 82.2333C30.3553 82.265 30.3426 82.2924 30.3257 82.3178L30.349 82.2903C30.3553 82.2713 30.3595 82.2523 30.3722 82.2333Z" fill="#D18D58"/>
<path d="M35.4884 63.7267C35.1568 63.7267 34.823 63.3824 35.0364 63.0085C35.1335 62.8395 35.2814 62.7719 35.4314 62.7719C35.7567 62.7719 36.0904 63.1162 35.8771 63.4901C35.7799 63.657 35.6321 63.7267 35.4884 63.7267Z" fill="#DB9F60"/>
<path d="M52.6431 87.4424C52.4023 87.4424 52.1615 87.2903 52.1615 86.9777C52.1551 86.5996 52.4994 86.3355 52.8374 86.3355C52.9916 86.3355 53.1458 86.3905 53.2662 86.513C53.5937 86.8341 53.3064 87.284 52.9642 87.3347C52.8776 87.4065 52.7572 87.4424 52.6431 87.4424Z" fill="#D18D58"/>
<path d="M36.7094 87.3389C36.6397 87.3136 36.5721 87.2882 36.5087 87.2629C36.5319 87.2544 36.5488 87.2502 36.5721 87.2502C36.6164 87.2502 36.6692 87.2777 36.7094 87.3389Z" fill="#D18D58"/>
<path d="M36.3756 87.9325C36.1813 87.9325 36.1644 87.7635 36.2278 87.5924C36.2848 87.4488 36.3925 87.303 36.5087 87.2629C36.5721 87.2882 36.6397 87.3136 36.7094 87.3389C36.7136 87.3558 36.7263 87.3727 36.7368 87.3939C36.7495 87.5523 36.5721 87.8628 36.4284 87.9304C36.4115 87.9325 36.3925 87.9325 36.3756 87.9325Z" fill="#C77A43"/>
<path d="M47.7085 86.4982C47.5776 86.4982 47.4466 86.3588 47.5311 86.2109C47.567 86.1433 47.6283 86.1159 47.6874 86.1159C47.8184 86.1159 47.9494 86.2532 47.8649 86.4031C47.829 86.4707 47.7719 86.4982 47.7085 86.4982Z" fill="#D18D58"/>
<path d="M34.0668 71.0482C33.9295 70.9489 33.7985 70.8518 33.6654 70.7525C33.7246 70.7166 33.7921 70.6933 33.8661 70.6933C33.9421 70.6933 34.0161 70.7166 34.0837 70.7736C34.1829 70.8919 34.147 70.9891 34.0668 71.0482Z" fill="#DB9F60"/>
<path d="M33.8619 71.1074C33.826 71.1074 33.7858 71.1031 33.752 71.0926C33.4774 71.0081 33.5239 70.8412 33.6654 70.7525C33.7985 70.8518 33.9295 70.9489 34.0668 71.0482C34.0097 71.0862 33.9358 71.1074 33.8619 71.1074Z" fill="#D18D58"/>
<path d="M58.6063 78.8746C58.5894 78.8746 58.5789 78.8725 58.562 78.8704C58.3317 78.7943 58.1881 78.3317 58.5028 78.3317C58.5155 78.3317 58.5324 78.3317 58.5493 78.3338C58.7795 78.4099 58.9211 78.8746 58.6063 78.8746Z" fill="#D18D58"/>
<path d="M25.2771 76.9122C25.1398 76.9122 25.0089 76.7728 25.0955 76.6249C25.1356 76.5552 25.1927 76.5277 25.2497 76.5277C25.3807 76.5277 25.518 76.6672 25.4335 76.8171C25.3933 76.8826 25.3363 76.9122 25.2771 76.9122Z" fill="#D18D58"/>
<path d="M48.7986 60.8898C48.5282 60.8898 48.5345 60.3828 48.7521 60.3173C48.7753 60.311 48.7922 60.3088 48.8091 60.3088C49.0795 60.3088 49.0732 60.8834 48.7986 60.8898Z" fill="#DB9F60"/>
<path d="M74.0543 60.2898C74.0078 60.2898 73.9507 60.2645 73.8937 60.2074C73.7733 60.068 73.8071 59.785 74.0183 59.785C74.0247 59.785 74.0374 59.7871 74.0479 59.7871C74.3584 59.8336 74.2655 60.2898 74.0543 60.2898Z" fill="#DB9F60"/>
<path d="M91.849 54.8694C91.8152 54.8694 91.7751 54.861 91.7349 54.8441C91.5681 54.7152 91.4371 54.1977 91.7582 54.1977C91.7645 54.1977 91.7751 54.1977 91.7814 54.1998C92.0455 54.2378 92.1426 54.8716 91.849 54.8694Z" fill="#D18D58"/>
<path d="M62.5607 69.3858C62.2566 69.3858 61.9418 69.1471 62.0453 68.7605C62.1362 68.3972 62.4974 68.1754 62.8523 68.1754C63.0593 68.1754 63.2536 68.2472 63.4015 68.4014C63.7859 68.7668 63.4205 69.2865 63.0234 69.2865C62.979 69.2865 62.9389 69.2801 62.8924 69.2675C62.8016 69.3499 62.6811 69.3858 62.5607 69.3858Z" fill="#DB9F60"/>
<path d="M60.0681 74.9244C59.9583 74.9244 59.8379 74.8949 59.7132 74.8252C58.9169 74.0668 59.6266 73.2831 60.292 73.2831C60.6575 73.2831 61.0081 73.5155 61.099 74.1112C61.1053 74.4492 60.8476 74.616 60.5899 74.616C60.5899 74.616 60.5899 74.616 60.5835 74.616C60.4737 74.7935 60.292 74.9244 60.0681 74.9244Z" fill="#DB9F60"/>
<path d="M70.7019 66.1073C70.2604 66.1073 70.1738 65.668 70.1801 65.3067C70.2667 65.2877 70.3533 65.2434 70.4378 65.1631C70.5413 65.0533 70.5878 64.9329 70.5878 64.8167C70.5878 64.7723 70.5815 64.7301 70.5709 64.6899C70.592 64.6836 70.6216 64.6815 70.6449 64.6815C71.1603 64.6815 71.682 65.9447 70.7124 66.1073C70.7124 66.1073 70.7082 66.1073 70.7019 66.1073Z" fill="#DB9F60"/>
<path d="M63.0931 62.8902C63.1036 62.8669 63.11 62.8458 63.1227 62.8205V62.8268C63.11 62.8479 63.1036 62.8691 63.0931 62.8902Z" fill="#DB9F60"/>
<path d="M52.5628 62.9092C52.5903 62.9029 52.6262 62.8923 52.6536 62.8796C52.6367 62.8881 52.6135 62.8965 52.5966 62.905L52.5628 62.9092ZM52.6536 62.8796C52.6769 62.8712 52.6938 62.8606 52.717 62.8522C52.6938 62.8627 52.6705 62.8712 52.6536 62.8796Z" fill="#DB9F60"/>
<path d="M78.1903 53.6126C77.6643 53.6126 77.4742 52.7697 78.0593 52.6029C78.11 52.5881 78.1607 52.5796 78.2135 52.5796C78.7353 52.5796 78.9233 53.4225 78.3445 53.5893C78.2875 53.6062 78.2367 53.6126 78.1903 53.6126Z" fill="#DB9F60"/>
<path d="M70.5308 52.6937C70.0027 52.6937 69.8147 51.8508 70.3977 51.684C70.4505 51.6692 70.5012 51.6607 70.5476 51.6607C71.0736 51.6607 71.2637 52.5036 70.6786 52.6705C70.6279 52.6874 70.5751 52.6937 70.5308 52.6937Z" fill="#DB9F60"/>
<path d="M82.4425 71.8699C82.1616 71.8699 81.8912 71.8171 81.6863 71.7052C81.1582 70.987 81.9609 70.7947 82.5439 70.7947C82.584 70.7947 82.6242 70.7947 82.6601 70.7968C82.8016 70.7694 82.9453 70.7356 83.0826 70.687C83.1354 70.6701 83.1819 70.6638 83.2325 70.6638C83.5874 70.6638 83.8789 71.0947 83.6783 71.4306C83.4036 71.7178 82.9051 71.8699 82.4425 71.8699Z" fill="#D18D58"/>
<path d="M48.6085 76.6524C48.0867 76.6524 47.8987 75.8095 48.4838 75.6427C48.5345 75.6279 48.5852 75.6194 48.6317 75.6194C49.1598 75.6194 49.3478 76.4623 48.7627 76.6291C48.712 76.6439 48.6613 76.6524 48.6085 76.6524Z" fill="#DB9F60"/>
<path d="M57.3981 84.0584C57.3284 84.0584 57.2671 84.0288 57.2143 83.9549C57.1065 83.7732 57.3009 83.6169 57.472 83.6169C57.4889 83.6169 57.5121 83.619 57.529 83.6232C57.8459 83.7437 57.6156 84.0584 57.3981 84.0584Z" fill="#D18D58"/>
<path d="M53.1817 71.703C53.1353 71.703 53.1015 71.6967 53.0655 71.6862C52.7402 71.4327 53.2219 71.2088 53.5007 71.2088C53.5472 71.2088 53.5873 71.2151 53.6169 71.2257C53.9422 71.4813 53.4669 71.703 53.1817 71.703Z" fill="#DB9F60"/>
<path d="M62.8417 78.9718C62.6347 78.9718 62.5544 78.6359 62.7889 78.5683C62.8121 78.562 62.8354 78.5599 62.8523 78.5599C63.0593 78.5599 63.1395 78.8957 62.903 78.9633C62.8818 78.9697 62.8649 78.9718 62.8417 78.9718Z" fill="#D18D58"/>
<path d="M78.0065 65.6933C78.0762 65.5581 78.1607 65.4715 78.2642 65.4271C78.184 65.5159 78.0931 65.6067 78.0065 65.6933Z" fill="#DB9F60"/>
<path d="M79.0205 66.5108C78.9402 66.5108 78.8599 66.4686 78.8325 66.3672C78.7924 66.1792 78.7628 65.9616 78.6086 65.8327L78.6022 65.8285C78.5389 65.9552 78.3741 66.0334 78.2241 66.0334C78.0826 66.0334 77.9558 65.9574 77.9791 65.7715C77.9896 65.744 77.996 65.7187 78.0065 65.6933C78.0932 65.6067 78.184 65.5159 78.2643 65.4271C78.3213 65.4018 78.3847 65.3891 78.448 65.3891C78.8198 65.3891 79.2444 65.8074 79.2275 66.2531C79.274 66.4094 79.1409 66.5108 79.0205 66.5108ZM78.6022 65.8285V65.8306V65.8285Z" fill="#D18D58"/>
<path d="M63.7352 57.0811C63.6317 57.0811 63.5113 57.0241 63.4543 56.8931C63.3106 56.6882 63.4416 56.5572 63.5979 56.5572C63.7056 56.5572 63.8218 56.6143 63.8789 56.7452C64.0204 56.9501 63.8894 57.0811 63.7352 57.0811Z" fill="#DB9F60"/>
<path d="M76.7686 81.2193C76.7179 81.2193 76.6609 81.1898 76.6039 81.118C76.5236 80.9511 76.6208 80.6025 76.8151 80.6025C76.8489 80.6025 76.889 80.6152 76.9355 80.6469C77.1299 80.7948 76.9756 81.2193 76.7686 81.2193Z" fill="#D18D58"/>
<path d="M52.8311 55.1187C52.6262 55.1187 52.5459 54.7828 52.7804 54.7152C52.8036 54.7089 52.8205 54.7068 52.8438 54.7068C53.0487 54.7068 53.1289 55.0427 52.8945 55.1103C52.8712 55.1166 52.8543 55.1187 52.8311 55.1187Z" fill="#DB9F60"/>
<path d="M82.4235 60.2117C82.2693 60.0385 82.527 59.7364 82.7404 59.7364C82.6369 59.8969 82.5334 60.0532 82.4235 60.2117Z" fill="#DB9F60"/>
<path d="M82.5672 60.275C82.5228 60.275 82.4763 60.2603 82.4362 60.2222C82.4362 60.2201 82.4299 60.2159 82.4235 60.2117C82.5334 60.0532 82.6369 59.8969 82.7404 59.7364C82.7742 59.7364 82.8016 59.7406 82.8249 59.7554C83.0826 59.9033 82.8016 60.275 82.5672 60.275Z" fill="#D18D58"/>
<path d="M84.7556 38.0422C84.7281 38.0422 84.6986 38.038 84.6648 38.0274C84.481 37.9598 84.3733 37.6662 84.5972 37.5775C84.631 37.5648 84.6584 37.5606 84.688 37.5606C84.819 37.5606 84.9119 37.681 84.9288 37.8014C84.9521 37.9218 84.8993 38.0422 84.7556 38.0422Z" fill="#DB9F60"/>
<path d="M78.8388 51.9227C78.6254 51.9227 78.4248 51.8107 78.3572 51.5467C78.2199 51.0376 78.6783 50.5158 79.1768 50.5158C79.2444 50.5158 79.3183 50.5264 79.388 50.5496C79.9732 50.6996 79.8295 51.4727 79.3648 51.5741C79.2909 51.7917 79.0606 51.9227 78.8388 51.9227Z" fill="#DB9F60"/>
<path d="M79.3183 58.1056C79.2909 58.1056 79.2613 58.1035 79.2275 58.1014C78.0002 57.7022 78.6255 56.346 79.4387 56.346C79.6795 56.346 79.9436 56.4706 80.1781 56.7854C80.3513 57.0832 80.2013 57.3621 79.9732 57.4909C79.9499 57.8099 79.7493 58.1056 79.3183 58.1056Z" fill="#DB9F60"/>
<path d="M84.5106 44.9412C84.2127 44.9412 83.9825 44.6202 83.8515 44.3455C83.7247 43.7921 83.9191 43.5851 84.1895 43.5851C84.6943 43.5851 85.4506 44.3181 84.7683 44.8673C84.6753 44.918 84.5908 44.9412 84.5106 44.9412Z" fill="#DB9F60"/>
<path d="M74.2422 54.1217C73.8409 54.1217 73.486 53.5978 73.8536 53.2281C73.9571 53.1183 74.0817 53.0718 74.2021 53.0718C74.6034 53.0718 74.9583 53.5957 74.5971 53.9653C74.4894 54.0752 74.3626 54.1217 74.2422 54.1217Z" fill="#DB9F60"/>
<path d="M76.3737 45.782C76.3694 45.7587 76.3694 45.7397 76.3631 45.7165V45.7207C76.3694 45.7418 76.3694 45.7608 76.3737 45.782Z" fill="#DB9F60"/>
<path d="M66.8468 51.2446C66.7602 51.2446 66.6799 51.2256 66.606 51.196C66.1476 51.1432 65.8202 50.3511 66.5659 50.1271C66.6102 50.1145 66.6567 50.1102 66.7074 50.1102C67.0073 50.1102 67.3052 50.332 67.3327 50.6447C67.3496 50.6996 67.339 50.801 67.3263 50.8623C67.2651 51.1284 67.058 51.2446 66.8468 51.2446ZM67.0644 50.9721C67.0411 50.9996 67.0179 51.0249 66.9947 51.046L67.0242 51.0228C67.0348 51.0059 67.0517 50.989 67.0644 50.9721Z" fill="#DB9F60"/>
<path d="M84.9922 30.07C84.5845 30.07 84.2296 29.5483 84.5972 29.1807C84.7049 29.0709 84.8253 29.0244 84.9457 29.0244C85.0196 29.0244 85.0999 29.0434 85.1633 29.0772C85.0091 29.1617 84.9161 29.3455 84.9161 29.5229C84.9161 29.7194 85.0323 29.9116 85.2774 29.9665H85.2837C85.1865 30.0383 85.0894 30.07 84.9922 30.07Z" fill="#DB9F60"/>
<path d="M77.7023 33.0654C77.3031 33.0654 76.9418 32.5394 77.3073 32.1697C77.4171 32.0599 77.5439 32.0155 77.6579 32.0155C78.0635 32.0155 78.4205 32.5394 78.053 32.9091C77.9431 33.0189 77.8227 33.0654 77.7023 33.0654Z" fill="#DB9F60"/>
<path d="M89.0712 62.6515C88.71 62.6515 88.3318 62.3008 88.5896 61.8636C88.71 61.6249 88.9677 61.5023 89.2148 61.5023C89.4556 61.5023 89.6901 61.6101 89.8147 61.834C90.0513 62.2396 89.6838 62.6113 89.3289 62.6113C89.312 62.6113 89.2951 62.6113 89.2761 62.6092C89.2148 62.6388 89.1451 62.6515 89.0712 62.6515Z" fill="#D18D58"/>
<path d="M70.0829 65.3152C69.6816 65.3152 69.3267 64.7934 69.6943 64.4238C69.802 64.3139 69.9224 64.2696 70.0428 64.2696C70.2836 64.2696 70.5075 64.4597 70.5709 64.6899C70.5815 64.7301 70.5878 64.7723 70.5878 64.8167C70.5878 64.9329 70.5413 65.0533 70.4378 65.1631C70.3533 65.2434 70.2667 65.2877 70.1801 65.3067C70.1463 65.3131 70.1167 65.3152 70.0829 65.3152Z" fill="#DB9F60"/>
<path d="M81.7137 67.5163C81.6799 67.5163 81.6461 67.5079 81.6102 67.4888C81.3884 67.3621 81.5659 67.041 81.7771 67.0305C82.1257 67.0537 81.9651 67.5163 81.7137 67.5163Z" fill="#D18D58"/>
<path d="M71.813 58.6168C71.3271 58.5429 71.8257 57.9747 72.0707 57.9345C72.5523 58.0085 72.0601 58.5767 71.813 58.6168Z" fill="#DB9F60"/>
<path d="M84.0585 60.2729C83.8979 60.2729 83.7543 60.0638 83.8979 59.9159C83.9423 59.8716 83.9951 59.8526 84.0395 59.8526C84.2 59.8526 84.3437 60.0638 84.1958 60.2117C84.1557 60.256 84.1029 60.2729 84.0585 60.2729Z" fill="#D18D58"/>
<path d="M92.2736 41.1241C92.2229 41.1241 92.1764 41.1051 92.1299 41.0608C91.999 40.9171 91.8659 40.7355 91.6652 40.6974H91.661C91.6715 40.8939 91.454 41.1094 91.2765 41.1094C91.1962 41.1094 91.116 41.065 91.0695 40.9573C91.0019 40.5052 91.2892 40.3045 91.6272 40.3045C91.9356 40.3045 92.2799 40.4714 92.4278 40.7629C92.5778 40.9129 92.4341 41.1241 92.2736 41.1241ZM91.661 40.6953L91.6652 40.6974L91.661 40.6953Z" fill="#D18D58"/>
<path d="M73.9676 40.3299C73.881 40.3299 73.7902 40.2982 73.7163 40.2665C73.3783 40.0426 73.6064 39.8715 73.8409 39.8715C74.0141 39.8715 74.1916 39.9602 74.1683 40.1799C74.1345 40.294 74.0606 40.3299 73.9676 40.3299Z" fill="#DB9F60"/>
<path d="M64.7766 57.267C64.6161 57.267 64.4746 57.0579 64.6224 56.91C64.6626 56.8657 64.7154 56.8466 64.7597 56.8466C64.9203 56.8466 65.0639 57.0579 64.9161 57.2057C64.8759 57.248 64.8231 57.267 64.7766 57.267Z" fill="#DB9F60"/>
<path d="M63.2705 43.9907C63.1099 43.9907 62.9663 43.7815 63.1163 43.6337C63.1564 43.5893 63.2071 43.5703 63.2536 43.5703C63.4141 43.5703 63.5578 43.7815 63.4141 43.9294C63.3677 43.9717 63.3212 43.9907 63.2705 43.9907Z" fill="#DB9F60"/>
<path d="M92.3369 33.8005C92.32 33.8005 92.3031 33.7963 92.2905 33.7942C92.0391 33.7308 92.1236 33.3147 92.32 33.2069C92.3602 33.3928 92.4045 33.5787 92.4447 33.7646C92.4109 33.7857 92.3771 33.8005 92.3369 33.8005Z" fill="#C77A43"/>
<path d="M80.5625 12.2605C80.2984 12.2605 80.1316 12.0641 80.0935 11.8444C79.8063 11.7282 79.595 11.4494 79.726 11.029C79.9541 10.6826 80.2245 10.5452 80.4759 10.5452C81.2553 10.5452 81.887 11.8275 80.6766 12.2478C80.6364 12.2563 80.5963 12.2605 80.5625 12.2605Z" fill="#DB9F60"/>
<path d="M72.9473 19.5736C72.565 19.5736 72.3812 19.13 72.5185 18.8279C72.4889 18.5364 72.753 18.2365 73.0445 18.2365C73.1712 18.2365 73.3022 18.2914 73.4184 18.4223C73.7669 18.7899 73.5663 19.4616 73.0677 19.5609C73.0276 19.5694 72.9875 19.5736 72.9473 19.5736Z" fill="#DB9F60"/>
<path d="M87.582 33.754C87.5291 33.754 87.4784 33.7456 87.4214 33.7266C86.8933 33.3865 86.6018 32.4317 86.7898 31.8381C86.9567 31.6607 87.1003 31.5888 87.225 31.5888C87.5862 31.5888 87.7869 32.193 87.8502 32.6197C87.903 32.7549 87.9643 32.888 88.034 33.0147C88.222 33.3485 87.9305 33.754 87.582 33.754Z" fill="#DB9F60"/>
<path d="M70.592 10.7037C70.4146 10.7037 70.2034 10.4544 70.3871 10.2728C70.4273 10.2347 70.4737 10.2178 70.5181 10.2178C70.6512 10.2178 70.7716 10.3741 70.7653 10.5157C70.742 10.6509 70.6723 10.7037 70.592 10.7037Z" fill="#DB9F60"/>
<path d="M76.4539 15.0024C76.3905 15.0003 76.3293 14.9686 76.2891 14.8925C76.2089 14.7341 76.3462 14.601 76.4835 14.601C76.5468 14.601 76.6081 14.6327 76.6482 14.7088C76.7285 14.8672 76.5912 15.0024 76.4539 15.0024Z" fill="#DB9F60"/>
<path d="M76.9587 28.9843C76.7412 28.9843 76.5109 28.8385 76.701 28.6188C76.7517 28.5745 76.832 28.5555 76.9123 28.5555C77.1362 28.5555 77.3643 28.7012 77.1763 28.9209C77.1193 28.9653 77.039 28.9843 76.9587 28.9843Z" fill="#DB9F60"/>
<path d="M75.1358 12.5119C75.0555 12.5119 74.9816 12.4929 74.9182 12.4591C74.914 12.4591 74.9076 12.4591 74.9076 12.4591C74.5929 12.4591 74.2824 12.1 74.5295 11.7704C74.6436 11.6162 74.8105 11.5486 74.9816 11.5486C75.2562 11.5486 75.5329 11.7282 75.5709 12.0281C75.6237 12.3387 75.3766 12.5119 75.1358 12.5119Z" fill="#DB9F60"/>
<path d="M67.6664 13.923C67.6199 13.923 67.5671 13.9039 67.527 13.8575C67.4129 13.7096 67.5798 13.5448 67.734 13.5448C67.7572 13.5448 67.7804 13.5491 67.7973 13.5554C68.0318 13.6674 67.848 13.923 67.6664 13.923Z" fill="#DB9F60"/>
<path d="M71.682 9.07292C71.5215 9.07292 71.4349 8.81732 71.6186 8.73916C71.6419 8.7286 71.6651 8.72226 71.6884 8.72226C71.8468 8.72226 71.9334 8.97786 71.756 9.05813C71.7264 9.06658 71.7053 9.07292 71.682 9.07292Z" fill="#DB9F60"/>
<path d="M23.9653 14.6792C23.7837 14.6792 23.5999 14.5778 23.5365 14.3433C23.4161 13.9314 23.7837 13.5427 24.1724 13.5427C24.2695 13.5427 24.3667 13.5681 24.4596 13.6209C24.8483 13.8427 24.7004 14.3391 24.3836 14.4743C24.2928 14.6031 24.1259 14.6792 23.9653 14.6792Z" fill="#D6925B"/>
<path d="M20.6257 21.762C20.3912 21.762 20.3849 21.4325 20.5517 21.329C20.5919 21.31 20.6257 21.3015 20.6552 21.3015C20.8834 21.3015 20.9003 21.7515 20.6257 21.762Z" fill="#D6925B"/>
<path d="M19.1935 15.0425C19.2441 14.9707 19.2906 14.8989 19.3477 14.8292C19.3477 14.8524 19.3477 14.8799 19.3434 14.9073C19.3202 14.9918 19.2568 15.0341 19.1935 15.0425Z" fill="#D6925B"/>
<path d="M19.1639 15.0425C19.0498 15.0425 18.9358 14.9538 18.9759 14.8123C18.9991 14.7172 19.0731 14.675 19.147 14.675C19.2399 14.675 19.3308 14.7341 19.3477 14.8292C19.2906 14.8989 19.2442 14.9707 19.1935 15.0425C19.1829 15.0425 19.1766 15.0425 19.1639 15.0425Z" fill="#CC7E45"/>
<path d="M27.5691 5.02981C27.5986 5.00657 27.6219 4.98334 27.6493 4.9601C27.6324 4.98968 27.6113 5.01291 27.5691 5.02981Z" fill="#CC7E45"/>
<path d="M10.4207 43.114C9.93487 43.114 9.69406 42.7169 9.69406 42.3219C9.69406 41.9269 9.93487 41.5318 10.4207 41.5318C10.5306 41.5318 10.6446 41.5509 10.7777 41.591C11.0587 41.7198 11.0967 42.0029 10.9953 42.2184C11.1558 42.4782 11.1558 42.8267 10.7714 43.0549C10.6446 43.095 10.5242 43.114 10.4207 43.114Z" fill="#D6925B"/>
<path d="M12.8289 35.7608C11.4579 35.7608 11.3565 34.1427 12.2268 33.9568C12.2944 33.904 12.3705 33.8639 12.4676 33.8512C12.6556 33.8618 12.8458 33.9589 13.0063 34.1047C13.1035 34.1533 13.207 34.2103 13.3147 34.2842C13.4985 34.4553 13.5217 34.6412 13.4583 34.7933C13.5788 35.1672 13.5154 35.5496 13.1267 35.7376C13.0232 35.7524 12.9197 35.7608 12.8289 35.7608Z" fill="#D6925B"/>
<path d="M20.0532 41.3291C19.8398 41.3291 19.6349 41.2023 19.6054 40.9045C19.5547 40.5221 19.8863 40.1863 20.2475 40.1863C20.3278 40.1863 20.4081 40.201 20.4883 40.237C20.896 40.4186 20.7925 40.9193 20.4989 41.0882C20.4144 41.2403 20.2306 41.3291 20.0532 41.3291Z" fill="#E0A564"/>
<path d="M16.6544 23.5406C16.0376 23.5406 16.2551 22.7865 16.4833 22.3493C16.5171 22.2183 16.5403 22.0873 16.5572 21.9521C16.5868 21.724 16.798 21.555 17.0283 21.555C17.0515 21.555 17.0726 21.5571 17.0959 21.5613C17.8922 21.8022 17.3261 23.1815 16.8551 23.5174C16.7811 23.5322 16.7135 23.5406 16.6544 23.5406Z" fill="#D6925B"/>
<path d="M17.4169 48.6907C17.2057 48.6907 17.1761 48.3802 17.3261 48.264C17.3662 48.2387 17.4064 48.226 17.4402 48.226C17.6514 48.226 17.7042 48.6527 17.4402 48.6886C17.4338 48.6907 17.4233 48.6907 17.4169 48.6907Z" fill="#D6925B"/>
<path d="M15.3384 42.1487C15.2349 42.1487 15.125 42.0705 15.1483 41.9353C15.1652 41.8297 15.2454 41.7811 15.3257 41.7811C15.4355 41.7811 15.5433 41.8614 15.52 41.9966C15.5031 42.1001 15.4229 42.1487 15.3384 42.1487Z" fill="#D6925B"/>
<path d="M22.6831 31.441C22.4423 31.441 22.1445 31.0396 22.4994 30.9551H22.5057C22.7507 30.9551 23.0486 31.3565 22.6937 31.441C22.6895 31.441 22.6895 31.441 22.6831 31.441Z" fill="#E0A564"/>
<path d="M9.4427 49.0498C9.39623 49.0498 9.34553 49.0329 9.28638 48.997C9.28216 48.9886 9.26949 48.9801 9.26526 48.9717C9.25259 48.8618 9.24625 48.752 9.24202 48.6421C9.23569 48.6252 9.23569 48.6083 9.23569 48.5914C9.26526 48.5619 9.30962 48.5429 9.36243 48.5386C9.36666 48.5386 9.37299 48.5386 9.37933 48.5386C9.53987 48.5386 9.6138 48.6675 9.62014 48.7942C9.62437 48.9231 9.56311 49.0498 9.4427 49.0498Z" fill="#D6925B"/>
<path d="M9.26525 48.9717C9.16174 48.8682 9.13851 48.6823 9.23568 48.5914C9.23568 48.6083 9.23568 48.6252 9.24202 48.6421C9.24624 48.752 9.25258 48.8618 9.26525 48.9717Z" fill="#CC7E45"/>
<path d="M26.4305 39.937C26.4073 39.937 26.384 39.9349 26.3545 39.9307C26.1601 39.8314 25.9087 39.3075 26.2742 39.2631C26.2805 39.2631 26.2805 39.2631 26.2869 39.2631C26.4305 39.2631 26.5551 39.4321 26.6016 39.6011C26.6481 39.7701 26.6143 39.937 26.4305 39.937Z" fill="#E0A564"/>
<path d="M12.2331 41.4262C11.7515 41.4262 11.4642 40.689 11.9923 40.4165C12.0768 40.3721 12.1571 40.3531 12.2374 40.3531C12.7127 40.3531 12.9999 41.0925 12.4782 41.3629C12.3916 41.4072 12.3113 41.4262 12.2331 41.4262Z" fill="#D6925B"/>
<path d="M19.9265 59.1703C19.7786 59.1703 19.6455 59.1534 19.542 59.1217C18.8153 58.4542 19.749 58.0908 20.3511 57.9979C20.4947 57.9409 20.632 57.8775 20.763 57.7993C20.8369 57.7592 20.9172 57.7402 20.9974 57.7402C21.1981 57.7402 21.3946 57.85 21.4791 58.0296C21.7431 58.7647 20.6552 59.1703 19.9265 59.1703Z" fill="#D6925B"/>
<path d="M15.7376 54.3794C15.67 54.3794 15.6003 54.3456 15.5665 54.2653C15.4799 54.0836 15.4123 53.8682 15.2285 53.7668L15.2222 53.7647C15.1778 53.9294 14.9708 54.0562 14.8039 54.0562C14.6835 54.0562 14.5864 53.9928 14.5695 53.8323C14.6265 53.4816 14.8398 53.338 15.0849 53.338C15.4461 53.338 15.877 53.6548 15.9446 54.0689C16.0249 54.2357 15.8812 54.3794 15.7376 54.3794ZM15.2222 53.7626V53.7647L15.2285 53.7668L15.2222 53.7626Z" fill="#D6925B"/>
<path d="M16.4495 69.7977C16.403 69.7977 16.346 69.7766 16.2763 69.7259C16.1918 69.5907 16.1854 69.3414 16.2889 69.2125C16.3523 69.1703 16.403 69.1534 16.4495 69.1534C16.5868 69.1534 16.6544 69.3139 16.6544 69.4766C16.6544 69.6371 16.5868 69.7977 16.4495 69.7977Z" fill="#D6925B"/>
<path d="M18.0887 47.3134C18.0528 47.3134 18.019 47.305 17.9894 47.2839C17.7549 47.136 18.0084 46.722 18.2365 46.722C18.2534 46.722 18.2703 46.7241 18.2872 46.7283C18.5978 46.8339 18.3464 47.3134 18.0887 47.3134Z" fill="#D6925B"/>
<path d="M30.9552 78.5282C30.8581 78.5282 30.7778 78.4648 30.8179 78.3064C30.8581 78.224 30.951 78.1479 31.0355 78.1479C31.0756 78.1479 31.1158 78.1627 31.1517 78.1965C31.2995 78.374 31.1052 78.5282 30.9552 78.5282Z" fill="#D6925B"/>
<path d="M20.3172 74.2781C20.1166 74.2781 19.9096 74.1492 19.8694 73.9443C19.5885 73.8366 19.4512 73.4099 19.749 73.2071C19.8462 73.1395 19.9497 73.1078 20.0469 73.1078C20.4482 73.1078 20.8432 73.562 20.6996 73.9718C20.6426 74.1872 20.482 74.2781 20.3172 74.2781Z" fill="#D6925B"/>
<path d="M25.6785 78.581C25.5475 78.581 25.4039 78.5176 25.2771 78.3571C25.0786 78.0085 25.4208 77.7529 25.7081 77.6177C25.7989 77.5966 25.8855 77.586 25.9552 77.586C26.3101 77.586 26.3735 77.8353 26.2805 78.0846C26.1897 78.3317 25.9425 78.581 25.6785 78.581Z" fill="#D6925B"/>
<path d="M18.2429 70.1948C18.1457 70.1948 18.0422 70.1589 17.9556 70.0702C17.6578 69.7702 17.9493 69.3456 18.2767 69.3456C18.3675 69.3456 18.471 69.3815 18.5576 69.4703C18.8555 69.7702 18.564 70.1948 18.2429 70.1948Z" fill="#D6925B"/>
<path d="M24.4237 71.5636C24.1322 71.5636 24.0055 71.3883 24.0245 71.1897C23.9146 71.1412 23.8111 71.0567 23.7478 70.9384C23.0612 70.9384 23.1288 70.3807 23.5598 70.1462L23.5534 70.1336C23.5767 70.1272 23.5936 70.1209 23.6168 70.1167C23.7203 70.0723 23.8344 70.0448 23.9611 70.0448C24.0456 70.0448 24.1322 70.0575 24.2188 70.0807C24.2421 70.0786 24.2632 70.0786 24.2928 70.0786C25.4905 70.0786 26.1495 71.4897 24.6307 71.5489L24.5906 71.5594L24.6138 71.5489C24.5969 71.551 24.5843 71.551 24.5737 71.5531C24.5167 71.5594 24.4702 71.5636 24.4237 71.5636ZM24.6307 71.5425C24.6138 71.5467 24.5969 71.5467 24.58 71.551C24.5969 71.5489 24.6075 71.5467 24.6244 71.5446L24.6307 71.5425Z" fill="#D6925B"/>
<path d="M20.6256 64.2104C20.5855 64.2104 20.539 64.2041 20.5052 64.1956C20.2074 64.1217 20.144 63.8196 20.2412 63.6021C20.2813 63.395 20.5052 63.226 20.7165 63.226C20.877 63.226 21.0376 63.3253 21.1073 63.5809C21.177 63.8598 20.9763 64.1787 20.6827 64.2041C20.6658 64.2083 20.6489 64.2104 20.6256 64.2104ZM20.3679 63.9358L20.3785 63.9506L20.4081 63.9738C20.3912 63.9612 20.3785 63.9485 20.3679 63.9358Z" fill="#D6925B"/>
<path d="M37.6705 79.0204C37.5733 79.0204 37.4762 78.9823 37.3896 78.8936C37.0875 78.5958 37.379 78.1691 37.7064 78.1691C37.8036 78.1691 37.9008 78.2071 37.9874 78.2937C38.2894 78.5937 37.9979 79.0204 37.6705 79.0204Z" fill="#D6925B"/>
<path d="M35.2814 73.1015C35.1906 73.1015 35.0871 73.0655 35.0004 72.9768C34.7026 72.6769 34.9962 72.2523 35.3215 72.2523C35.4145 72.2523 35.5116 72.2882 35.6025 72.3769C35.9003 72.6769 35.6088 73.1015 35.2814 73.1015Z" fill="#D6925B"/>
<path d="M14.6096 68.169C14.449 68.169 14.2209 67.9324 14.204 67.7909C14.2209 67.6726 14.2779 67.6283 14.3455 67.6283C14.5019 67.6283 14.73 67.867 14.7532 68.0064C14.7363 68.1247 14.6793 68.169 14.6096 68.169Z" fill="#CC7E45"/>
<path d="M28.6253 84.5485C28.5218 84.483 28.4246 84.4175 28.3211 84.3499L28.3274 84.3436C28.4415 84.238 28.5894 84.1302 28.6253 83.9655V83.9612C28.6189 83.9612 28.6189 83.9612 28.6126 83.9612C28.3845 83.9612 28.1373 83.6 28.4183 83.4859C28.4521 83.4796 28.4859 83.4775 28.5218 83.4775C29.0837 83.4775 29.0435 84.2718 28.6253 84.5485ZM28.6253 83.9612V83.9633V83.9612Z" fill="#CC7E45"/>
<path d="M29.1808 69.7977C29.0478 69.7977 28.9337 69.5864 29.0604 69.4238C29.1048 69.3308 29.1639 69.2949 29.221 69.2949C29.3519 69.2949 29.4618 69.5062 29.335 69.6709C29.2886 69.7618 29.2315 69.7977 29.1808 69.7977Z" fill="#D6925B"/>
<path d="M15.4926 62.2628C15.4524 62.2628 15.4123 62.248 15.3785 62.2121C15.2581 62.0938 15.3785 61.9227 15.5095 61.9227C15.5433 61.9227 15.5834 61.9375 15.6193 61.9734C15.7376 62.0938 15.6235 62.2628 15.4926 62.2628Z" fill="#D6925B"/>
<path d="M26.2573 61.1094C26.2172 61.1094 26.177 61.0946 26.1432 61.0587C26.0228 60.9404 26.1432 60.7693 26.27 60.7693C26.3101 60.7693 26.3502 60.7841 26.384 60.82C26.5044 60.9383 26.3904 61.1094 26.2573 61.1094Z" fill="#E0A564"/>
<path d="M34.5146 84.7661C34.3604 84.7661 34.1766 84.6562 34.2167 84.5062C34.2336 84.4175 34.3139 84.3816 34.4005 84.3816C34.5378 84.3816 34.7026 84.4766 34.7089 84.6013C34.7026 84.7175 34.6181 84.7661 34.5146 84.7661Z" fill="#D6925B"/>
<path d="M50.3786 83.2853C50.3511 83.2853 50.3152 83.281 50.2772 83.2662C50.1568 83.1987 50.0575 83.0107 50.1906 82.9029C50.2371 82.8712 50.2814 82.8565 50.3152 82.8565C50.4251 82.8565 50.5053 82.9642 50.5222 83.0719C50.5455 83.1796 50.5053 83.2853 50.3786 83.2853Z" fill="#D6925B"/>
<path d="M62.8692 72.4339C62.6812 72.3896 62.377 71.9967 62.6748 71.8911C62.6854 71.8868 62.6981 71.8847 62.715 71.8847C62.9663 71.8847 63.2536 72.4234 62.8692 72.4339Z" fill="#E0A564"/>
<path d="M49.6351 89.2697C49.3541 89.2697 49.1767 88.9591 49.0795 88.6972C49.0098 88.2346 49.1767 88.0614 49.3879 88.0614C49.8294 88.0614 50.4885 88.788 49.8294 89.2232C49.7597 89.2549 49.6984 89.2697 49.6351 89.2697Z" fill="#D6925B"/>
<path d="M42.455 89.0457C42.0199 88.9507 41.5847 88.8493 41.1432 88.7373C41.3545 88.4627 41.6312 88.298 41.8826 88.298C42.1699 88.298 42.4212 88.5219 42.455 89.0457Z" fill="#D6925B"/>
<path d="M41.8657 90.104C41.5045 90.0217 41.1496 89.9351 40.7947 89.8463C40.799 89.7703 40.8159 89.6921 40.8454 89.6119C40.856 89.2633 40.9764 88.9634 41.1433 88.7373C41.5848 88.8493 42.0199 88.9507 42.4551 89.0457C42.4614 89.126 42.4677 89.2105 42.4614 89.3013C42.4614 89.3161 42.4614 89.3309 42.4677 89.3436L42.4614 89.3203C42.4551 89.3372 42.4551 89.352 42.4551 89.3668C42.4846 89.7597 42.3072 89.9266 42.0939 89.9266C42.0664 89.9266 42.0432 89.9245 42.0199 89.9182C41.9798 89.99 41.9291 90.0512 41.8657 90.104ZM42.4551 89.3013C42.4551 89.3204 42.4551 89.3373 42.4551 89.3584C42.4551 89.3415 42.4551 89.3246 42.4551 89.3056V89.3013Z" fill="#CC7E45"/>
<path d="M51.2215 76.3757C50.8603 76.3735 50.5561 75.8666 50.9173 75.5645C51.0103 75.4884 51.1074 75.4547 51.1983 75.4547C51.5658 75.4547 51.87 75.9637 51.5088 76.2658C51.4158 76.3419 51.3187 76.3757 51.2215 76.3757Z" fill="#E0A564"/>
<path d="M44.6498 78.4035C44.2823 78.4035 43.9844 77.8945 44.3456 77.5924C44.4386 77.5163 44.5294 77.4825 44.6266 77.4825C44.9878 77.4825 45.292 77.9895 44.9308 78.2937C44.8399 78.3697 44.7406 78.4035 44.6498 78.4035Z" fill="#D6925B"/>
<path d="M60.516 89.219C60.6343 88.9021 61.042 88.9 61.2828 88.7056C61.249 88.7268 61.2131 88.75 61.1793 88.7711C61.3166 88.6824 61.4433 88.5831 61.5637 88.4733C61.644 88.3994 61.7517 88.3656 61.8552 88.3656C61.9883 88.3656 62.1256 88.4226 62.2101 88.5282C62.2904 88.6507 62.32 88.7669 62.3073 88.8746C61.8151 88.9781 61.3293 89.0753 60.835 89.1662L60.516 89.219Z" fill="#D6925B"/>
<path d="M60.9511 89.8358C60.6575 89.8358 60.3997 89.5316 60.5159 89.2232C60.5159 89.2232 60.5159 89.2211 60.5159 89.219L60.8349 89.1662C61.3292 89.0753 61.815 88.9781 62.3072 88.8746C62.2565 89.3204 61.5109 89.6309 61.1391 89.7956C61.0757 89.8231 61.0123 89.8358 60.9511 89.8358Z" fill="#CC7E45"/>
<path d="M56.1771 86.1454C56.1771 86.1454 56.1708 86.1433 56.1602 86.1412L56.1708 86.1433C56.1771 86.1454 56.1771 86.1454 56.1771 86.1454Z" fill="#D6925B"/>
<path d="M56.6757 86.5574C56.475 86.5574 56.3841 86.1602 56.1539 86.1391L56.1602 86.1412L56.1539 86.1391C56.1497 86.306 55.9596 86.4686 55.8053 86.4686C55.7251 86.4686 55.6554 86.4264 55.6216 86.3187C55.5814 85.9469 55.8117 85.799 56.0863 85.799C56.4813 85.799 56.9629 86.1159 56.7961 86.5172C56.7496 86.5447 56.7094 86.5574 56.6757 86.5574Z" fill="#D6925B"/>
<path d="M40.7757 84.4217C40.7081 84.4217 40.6342 84.3985 40.5771 84.352C40.33 84.1746 40.4948 84.0119 40.6912 84.0119C40.782 84.0119 40.8792 84.0457 40.9489 84.1323C41.0567 84.314 40.932 84.4217 40.7757 84.4217Z" fill="#D6925B"/>
<path d="M57.3009 80.1927C57.284 80.1927 57.2608 80.1906 57.2439 80.1843C57.0094 80.0998 57.1741 79.6625 57.3875 79.6625H57.3917C57.6853 79.6921 57.5354 80.1927 57.3009 80.1927Z" fill="#D6925B"/>
<path d="M74.0078 82.4424C73.9613 82.4424 73.9001 82.4276 73.8578 82.415C73.56 82.3115 73.5262 82.003 73.6529 81.7918C73.7036 81.5996 73.917 81.4559 74.1219 81.4559C74.2993 81.4559 74.4725 81.5658 74.5232 81.8488C74.5633 82.1361 74.3352 82.4403 74.0374 82.4403C74.0247 82.4403 74.0183 82.4424 74.0078 82.4424Z" fill="#D6925B"/>
<path d="M62.246 83.9612C62.1362 83.9612 62.0263 83.9169 61.9355 83.8091C61.6714 83.4902 61.9756 83.1057 62.2904 83.1057C62.4002 83.1057 62.5079 83.1501 62.6009 83.2599C62.8649 83.5768 62.5608 83.9633 62.246 83.9612Z" fill="#D6925B"/>
<path d="M67.5629 85.875C67.4024 85.875 67.1784 85.6026 67.1658 85.4547C67.1953 85.347 67.2524 85.3026 67.3158 85.3026C67.4763 85.3026 67.7002 85.5751 67.7044 85.723C67.677 85.8328 67.6263 85.875 67.5629 85.875Z" fill="#D6925B"/>
<path d="M68.995 80.0026C68.9549 80.0026 68.9084 79.9857 68.8746 79.9414C68.7711 79.8146 68.8852 79.6604 69.0183 79.6604C69.0584 79.6604 69.1028 79.6773 69.1387 79.7217C69.2464 79.8484 69.126 80.0026 68.995 80.0026Z" fill="#D6925B"/>
<path d="M79.9541 79.8379C79.9161 79.8379 79.8696 79.8188 79.8337 79.7745C79.726 79.6477 79.8464 79.4935 79.9731 79.4935C80.0175 79.4935 80.064 79.5125 80.0978 79.5569C80.2013 79.6837 80.0809 79.8379 79.9541 79.8379Z" fill="#D6925B"/>
<path d="M87.9242 72.0284C87.8798 71.9206 87.8566 71.7918 87.8798 71.6333C88.0235 71.2447 88.2579 71.0524 88.5093 70.9975C88.3213 71.3439 88.1249 71.6883 87.9242 72.0284Z" fill="#CC7E45"/>
<path d="M81.5659 62.7993C81.4455 62.7993 81.3187 62.7486 81.2089 62.6346C80.8603 62.2586 81.2216 61.7579 81.6166 61.7579C81.737 61.7579 81.8637 61.8065 81.9715 61.9227C82.3221 62.2987 81.9609 62.7993 81.5659 62.7993Z" fill="#D6925B"/>
<path d="M78.7289 74.0056C78.5621 74.0056 78.3572 73.8366 78.4649 73.6317C78.5114 73.5641 78.5684 73.5345 78.6318 73.5345C78.7522 73.5345 78.8789 73.6401 78.9127 73.7626C78.9296 73.9358 78.8388 74.0056 78.7289 74.0056Z" fill="#D6925B"/>
<path d="M88.1417 64.7322C87.9474 64.7322 87.6728 64.4259 87.6495 64.2527C87.6791 64.1111 87.7467 64.0583 87.827 64.0583C88.0234 64.0583 88.298 64.3625 88.3213 64.5378C88.2917 64.6794 88.2283 64.7322 88.1417 64.7322Z" fill="#D6925B"/>
<path d="M89.4662 57.5332C89.4134 57.5332 89.3627 57.5142 89.3226 57.4677C89.1789 57.3177 89.3226 57.117 89.4831 57.117C89.5296 57.117 89.5803 57.136 89.6268 57.1825C89.7641 57.3325 89.6204 57.5332 89.4662 57.5332Z" fill="#D6925B"/>
<path d="M87.0306 56.8656C87.0201 56.8656 87.0137 56.8656 87.0032 56.8656C86.3547 56.8424 86.3842 55.8411 87.0201 55.8411C87.0264 55.8411 87.037 55.8411 87.0433 55.8411C87.696 55.8665 87.6665 56.8656 87.0306 56.8656Z" fill="#D6925B"/>
<path d="M92.9834 53.6147C92.846 53.6147 92.7024 53.5809 92.6348 53.526C92.4637 53.2746 92.6982 53.1732 92.9432 53.1732C93.0193 53.1732 93.0869 53.1817 93.1502 53.1986C93.1397 53.3337 93.1207 53.4689 93.1038 53.6041C93.0636 53.6105 93.0235 53.6147 92.9834 53.6147Z" fill="#D6925B"/>
<path d="M93.1038 53.6041C93.1207 53.4689 93.1397 53.3337 93.1502 53.1986C93.2136 53.2133 93.2643 53.2345 93.3002 53.2619C93.4375 53.471 93.3002 53.5767 93.1038 53.6041Z" fill="#CC7E45"/>
<path d="M89.0987 47.624C89.0944 47.624 89.0944 47.624 89.0881 47.624C88.8241 47.6155 88.8409 47.2142 89.0944 47.2142C89.0987 47.2142 89.0987 47.2142 89.105 47.2142C89.3627 47.2247 89.3522 47.624 89.0987 47.624Z" fill="#D6925B"/>
<path d="M85.3914 29.9771C85.3576 29.9771 85.3175 29.9729 85.2837 29.9665H85.2774C85.0323 29.9116 84.9161 29.7194 84.9161 29.5229C84.9161 29.3455 85.0091 29.1617 85.1633 29.0772C85.2267 29.0434 85.2943 29.0244 85.3703 29.0244C85.4041 29.0244 85.4379 29.0286 85.478 29.0371C86.0399 29.1575 85.8963 29.9792 85.3914 29.9771Z" fill="#E0A564"/>
<path d="M89.1916 39.8314C89.0754 39.8314 88.9677 39.7722 88.9571 39.6391C88.9508 39.504 89.0543 39.4406 89.1684 39.4406C89.255 39.4406 89.3395 39.4765 89.3859 39.5441C89.4894 39.7236 89.3395 39.8314 89.1916 39.8314Z" fill="#E0A564"/>
<path d="M74.2549 52.1719C74.1788 52.1719 74.1112 52.1255 74.0817 52.0051C74.0817 51.8445 74.2823 51.5636 74.4598 51.5636C74.5168 51.5636 74.5696 51.5931 74.6161 51.6628C74.7133 51.8487 74.4492 52.1719 74.2549 52.1719Z" fill="#D0975C"/>
<path d="M43.3317 33.773C43.2345 33.773 43.1374 33.7414 43.0402 33.6695C42.6219 33.3527 42.943 32.7633 43.3549 32.7633C43.4458 32.7633 43.5451 32.795 43.6422 32.8689C44.0647 33.1858 43.7394 33.773 43.3317 33.773Z" fill="#D0975C"/>
<path d="M45.1082 26.3797C45.0913 26.3797 45.0744 26.3797 45.0575 26.3776C44.6963 26.3396 44.5759 26.0079 44.6498 25.7375C44.6435 25.4629 44.9139 25.201 45.1885 25.201C45.3596 25.201 45.537 25.3024 45.6574 25.558C45.7778 25.8727 45.6004 26.2804 45.2624 26.3586C45.2223 26.3755 45.1589 26.3797 45.1082 26.3797ZM44.8399 26.0861L44.8611 26.1114C44.8843 26.122 44.9012 26.1325 44.9181 26.1431C44.8906 26.1241 44.8611 26.1072 44.8399 26.0861Z" fill="#D0975C"/>
<path d="M67.5101 40.9002C67.4192 40.9002 67.3221 40.8686 67.2249 40.7967C66.8066 40.4799 67.1277 39.8905 67.5396 39.8905C67.6305 39.8905 67.734 39.9222 67.8248 39.9961C68.2494 40.313 67.9283 40.9002 67.5101 40.9002Z" fill="#D0975C"/>
<path d="M63.7458 34.3687C63.6549 34.3687 63.5514 34.3392 63.4543 34.2652C63.036 33.9484 63.3571 33.3611 63.769 33.3611C63.8662 33.3611 63.9633 33.3907 64.0605 33.4646C64.4788 33.7815 64.1577 34.3687 63.7458 34.3687Z" fill="#D0975C"/>
<path d="M32.1762 31.2551C32.0854 31.2551 31.9818 31.2234 31.8847 31.1516C31.4664 30.8347 31.7875 30.2454 32.1994 30.2454C32.2966 30.2454 32.3938 30.2771 32.4909 30.351C32.9092 30.6678 32.5902 31.2551 32.1762 31.2551Z" fill="#D0975C"/>
<path d="M38.7837 32.0071C38.6168 32.0008 38.319 31.779 38.2725 31.6226C38.2725 31.4642 38.3465 31.4051 38.4457 31.4051C38.7246 31.4051 39.2062 31.8825 38.7837 32.0071Z" fill="#D0975C"/>
<path d="M38.4563 43.6168C38.4162 43.6168 38.3761 43.6041 38.3359 43.5745C38.169 43.4499 38.3021 43.2133 38.4627 43.2133C38.5028 43.2133 38.5429 43.226 38.5831 43.2556C38.7478 43.3823 38.6232 43.6168 38.4563 43.6168Z" fill="#D0975C"/>
<path d="M38.845 24.9433C38.8112 24.9433 38.7711 24.9306 38.7309 24.901C38.5662 24.7743 38.6908 24.5398 38.8577 24.5398C38.8978 24.5398 38.9379 24.5525 38.9717 24.5821C39.1428 24.7088 39.0119 24.9433 38.845 24.9433Z" fill="#D0975C"/>
<path d="M64.7724 48.1415C64.5992 48.1415 64.4175 48.0443 64.4344 47.8817C64.445 47.757 64.5591 47.7042 64.6858 47.7042C64.8358 47.7042 65.0069 47.7845 65.0238 47.9134C65.047 48.0718 64.9161 48.1415 64.7724 48.1415Z" fill="#D0975C"/>
<path d="M67.5629 42.5944C67.5059 42.5944 67.4467 42.5627 67.396 42.4845C67.3326 42.3177 67.4467 41.9247 67.6474 41.9247C67.6875 41.9247 67.734 41.9416 67.7741 41.9754C67.9516 42.1275 67.7741 42.5944 67.5629 42.5944Z" fill="#D0975C"/>
<path d="M31.3122 42.4275C31.2087 42.4275 31.1052 42.3937 31.0144 42.3367C30.9214 42.3789 30.8179 42.4043 30.7208 42.4043C30.4968 42.4043 30.2856 42.286 30.1546 41.9839C30.0279 41.2572 30.48 40.9298 30.951 40.9298C31.5129 40.9298 32.0854 41.3945 31.7136 42.1909C31.6101 42.3578 31.4601 42.4275 31.3122 42.4275Z" fill="#D0975C"/>
<path d="M44.2548 40.7249C44.1619 40.7249 44.0647 40.7059 43.957 40.6594C43.545 40.4081 43.7626 39.9433 43.9802 39.6413C44.1851 39.4617 44.352 39.3899 44.4829 39.3899C44.7702 39.3899 44.8906 39.7236 44.8505 40.0574C44.8167 40.3912 44.616 40.727 44.2548 40.7249Z" fill="#D0975C"/>
<path d="M31.7178 36.1748C31.6671 36.1748 31.6143 36.1685 31.5636 36.1516C30.9911 35.9805 31.1791 35.1567 31.6946 35.1567C31.7474 35.1567 31.7981 35.1651 31.8509 35.1799C32.4233 35.351 32.229 36.1748 31.7178 36.1748Z" fill="#D0975C"/>
<path d="M30.7503 28.5639C30.4757 28.5639 30.2983 28.3294 30.275 28.0844C30.1546 27.7802 30.3997 27.3598 30.7503 27.3598C30.8771 27.3598 31.0186 27.4169 31.1623 27.5584C31.3925 27.8119 31.3693 28.2597 31.0756 28.4541C31.0355 28.4921 30.9447 28.528 30.8876 28.547C30.8412 28.5597 30.7968 28.5639 30.7503 28.5639ZM30.5771 28.3484L30.613 28.3632C30.6299 28.3653 30.6532 28.3696 30.6764 28.3717C30.6405 28.3653 30.6067 28.3569 30.5771 28.3484Z" fill="#D0975C"/>
<path d="M57.1002 34.3455C57.0474 34.3455 56.9967 34.3371 56.946 34.3223C56.3714 34.1512 56.5616 33.3273 57.077 33.3273C57.1235 33.3273 57.1805 33.3358 57.2312 33.3506C57.8058 33.5196 57.6093 34.3455 57.1002 34.3455Z" fill="#C78554"/>
<path d="M31.4136 52.9366C31.2024 52.9366 30.9911 52.7951 30.9045 52.5986C30.5771 52.3494 30.6405 51.6692 31.2024 51.6692C31.2087 51.6692 31.2193 51.6692 31.2256 51.6692H31.2319C31.7347 51.6692 32.0853 52.2712 31.8107 52.7021C31.7136 52.869 31.5636 52.9366 31.4136 52.9366Z" fill="#D0975C"/>
<path d="M20.2813 37.7443C20.237 37.7443 20.1842 37.738 20.1271 37.7211C19.561 37.5521 19.749 36.7262 20.2645 36.7262C20.3109 36.7262 20.3616 36.7346 20.4187 36.7494C20.9932 36.9205 20.7968 37.7443 20.2813 37.7443Z" fill="#D0975C"/>
<path d="M23.4964 48.5217C23.376 48.5217 23.2556 48.4541 23.2492 48.2978C23.2556 48.1626 23.3527 48.1035 23.4668 48.1035C23.5471 48.1035 23.6274 48.1352 23.6844 48.1901C23.8407 48.3908 23.6675 48.5217 23.4964 48.5217Z" fill="#D0975C"/>
<path d="M30.687 47.1888C30.6701 47.1888 30.6532 47.1846 30.6299 47.1783C30.3997 47.1107 30.4757 46.7811 30.6806 46.7811C30.6975 46.7811 30.7208 46.7832 30.744 46.7896C30.9743 46.8572 30.894 47.1888 30.687 47.1888Z" fill="#D0975C"/>
<path d="M42.8501 29.3159C42.8332 29.2631 42.8226 29.204 42.8269 29.1469C42.8332 28.9653 42.9071 28.8934 42.9874 28.8934C43.0508 28.8934 43.1268 28.9399 43.1839 29.0117C43.0402 29.073 42.9198 29.1786 42.8501 29.3159Z" fill="#D0975C"/>
<path d="M24.447 29.4004C24.4301 29.4004 24.4068 29.3962 24.3836 29.3898C24.1618 29.3223 24.2357 28.9927 24.4427 28.9927C24.4596 28.9927 24.4829 28.9948 24.4998 29.0033C24.7279 29.0709 24.654 29.4004 24.447 29.4004Z" fill="#D0975C"/>
<path d="M41.0334 56.4516C40.9426 56.4516 40.875 56.3967 40.856 56.2531C40.875 56.0883 41.0736 55.9172 41.2299 55.9172C41.3144 55.9172 41.3841 55.9721 41.401 56.1158C41.3841 56.2826 41.1834 56.4516 41.0334 56.4516Z" fill="#D0975C"/>
<path d="M35.0638 22.0578C35.0469 22.0578 35.0237 22.0556 35.0004 22.0493C34.7723 21.9817 34.8526 21.6501 35.0596 21.6501C35.0765 21.6501 35.0976 21.6543 35.1166 21.6606C35.3448 21.7282 35.2708 22.0578 35.0638 22.0578Z" fill="#D0975C"/>
<path d="M57.0664 42.1634C56.9502 42.1634 56.8425 42.1149 56.8129 42.0071C56.7728 41.8297 56.9735 41.7198 57.1509 41.7198C57.2544 41.7198 57.3452 41.7536 57.3875 41.8255C57.4889 42.024 57.2607 42.1634 57.0664 42.1634Z" fill="#C78554"/>
<path d="M33.1732 10.5051C33.0359 10.4903 32.8754 10.353 32.9557 10.2009C33.0021 10.1249 33.0592 10.0953 33.1162 10.0953C33.3275 10.0953 33.5345 10.4819 33.1732 10.5051Z" fill="#D0975C"/>
<path d="M34.7723 16.3628C34.5547 16.3628 34.3308 16.1874 34.1766 16.0206C33.8619 15.4882 34.1069 15.2664 34.4343 15.2664C34.8695 15.2664 35.4588 15.6551 35.0807 16.2149C34.9835 16.3205 34.88 16.3628 34.7723 16.3628Z" fill="#D0975C"/>
<path d="M28.5851 26.798C28.2809 26.798 27.9662 26.4895 28.1479 26.1325C28.2345 25.9593 28.3845 25.8896 28.5323 25.8896C28.8365 25.8896 29.1513 26.1959 28.9675 26.5529C28.883 26.7261 28.733 26.798 28.5851 26.798Z" fill="#D0975C"/>
<path d="M28.281 19.2145C28.2746 19.1976 28.2683 19.1807 28.2577 19.1617L28.2641 19.1659C28.2683 19.1828 28.2746 19.1976 28.281 19.2145Z" fill="#D0975C"/>
<path d="M21.5762 26.3565C21.5593 26.3565 21.5361 26.3543 21.5192 26.3522C21.5023 26.3543 21.4854 26.3565 21.4685 26.3565C21.4051 26.3565 21.3481 26.3438 21.2911 26.3205C21.3946 26.0143 21.5023 25.7058 21.6122 25.4017C21.7769 25.4355 21.9269 25.5369 21.9945 25.6974C22.0241 25.7396 22.041 25.8263 22.0473 25.8833C22.0705 26.1938 21.8234 26.3565 21.5762 26.3565ZM21.8466 26.0586C21.8403 26.0797 21.834 26.0966 21.8234 26.1156L21.834 26.0988L21.8466 26.0586Z" fill="#D0975C"/>
<path d="M21.2911 26.3206C20.9805 26.1917 20.7587 25.7608 21.2108 25.4693C21.2953 25.4143 21.3946 25.389 21.496 25.389C21.5361 25.389 21.5762 25.3932 21.6121 25.4017C21.5023 25.7058 21.3946 26.0143 21.2911 26.3206Z" fill="#C78554"/>
<path d="M25.8855 8.21106C25.6215 8.21106 25.3469 7.97659 25.4039 7.67874C25.5243 7.55411 25.651 7.43159 25.7778 7.30696C25.7947 7.30485 25.8116 7.30274 25.8348 7.30274C26.1369 7.30274 26.4537 7.61115 26.27 7.96814C26.1834 8.13924 26.0355 8.21106 25.8855 8.21106Z" fill="#C78554"/>
<path d="M25.4039 7.67875C25.4102 7.6365 25.4271 7.59214 25.4503 7.54778C25.5243 7.3978 25.6447 7.32386 25.7778 7.30696C25.651 7.4316 25.5243 7.55411 25.4039 7.67875Z" fill="#BD7340"/>
<path d="M43.2451 30.0193C43.0275 30.0193 42.8099 29.8841 42.7994 29.5969C42.7867 29.4955 42.8099 29.4004 42.8501 29.3159C42.9198 29.1786 43.0402 29.073 43.1838 29.0117C43.2641 28.9758 43.3549 28.9568 43.4458 28.9568C43.5852 28.9568 43.7161 29.0033 43.8302 29.1068C44.1513 29.3983 43.9041 29.8398 43.5788 29.9032C43.4859 29.9792 43.3655 30.0193 43.2451 30.0193Z" fill="#D0975C"/>
<path d="M28.0739 37.2965C27.7655 37.2965 27.4508 36.9881 27.6325 36.6311C27.7254 36.46 27.869 36.3882 28.0169 36.3882C28.3274 36.3882 28.6422 36.6966 28.4584 37.0536C28.3654 37.2247 28.2239 37.2965 28.0739 37.2965Z" fill="#D0975C"/>
<path d="M38.4901 36.0375C38.4732 36.0375 38.4626 36.0354 38.45 36.0333C38.2261 35.9868 38.2894 35.67 38.4669 35.6045C38.4901 35.5982 38.5133 35.596 38.5366 35.596C38.6633 35.596 38.7077 35.7059 38.6971 35.8178C38.6844 35.9277 38.6105 36.0375 38.4901 36.0375Z" fill="#D0975C"/>
<path d="M27.8099 31.2023C27.6324 31.2023 27.6155 31.0375 27.6683 30.8727C27.7254 30.708 27.8563 30.5432 27.9768 30.5432C28.0401 30.5432 28.0908 30.5812 28.1373 30.6721C28.1605 30.822 28.0063 31.1241 27.869 31.1959C27.8458 31.2002 27.8268 31.2023 27.8099 31.2023Z" fill="#D0975C"/>
<path d="M38.5302 29.337C38.4098 29.337 38.2852 29.2145 38.3591 29.0709C38.3929 29.0033 38.45 28.9737 38.507 28.9737C38.6337 28.9737 38.7605 29.0983 38.6844 29.2399C38.6506 29.3096 38.5873 29.337 38.5302 29.337Z" fill="#D0975C"/>
<path d="M39.4872 11.3416C39.4365 11.3416 39.3837 11.3163 39.333 11.2571C39.2464 11.0881 39.2463 10.9445 39.2992 10.8304C39.4069 10.9804 39.5167 11.1325 39.6245 11.2867C39.5843 11.3205 39.54 11.3416 39.4872 11.3416Z" fill="#D0975C"/>
<path d="M24.6772 15.3066C24.6476 15.3066 24.6138 15.3023 24.5843 15.2939C24.2188 15.2136 24.4364 14.9073 24.6941 14.9073C24.7406 14.9073 24.7976 14.92 24.842 14.9475C25.0722 15.1059 24.8779 15.3087 24.6772 15.3066Z" fill="#C78554"/>
<path d="M21.5593 31.9416C21.4326 31.9416 21.308 31.8191 21.3819 31.6755C21.4157 31.6079 21.4748 31.5783 21.5361 31.5783C21.6565 31.5783 21.7833 31.7008 21.7093 31.8444C21.6734 31.912 21.6164 31.9416 21.5593 31.9416Z" fill="#D0975C"/>
<path d="M16.7642 21.2044C16.6438 21.2044 16.5171 21.0797 16.5931 20.9382C16.6269 20.8685 16.6839 20.841 16.741 20.841C16.8677 20.841 16.9924 20.9635 16.9184 21.1072C16.8846 21.1748 16.8276 21.2044 16.7642 21.2044Z" fill="#C78554"/>
<path d="M54.7681 47.9556C51.9037 49.1935 50.3279 47.5859 48.8154 44.4237C49.3414 44.8398 50.0808 45.0595 51.0841 45.0447C57.4657 44.9412 53.0085 36.4114 54.4196 24.9919C54.0584 32.9365 59.7301 45.8158 54.7681 47.9556Z" fill="#BF7644"/>
<path d="M88.0235 20.6805C89.0987 22.7337 90.0725 24.844 90.9217 27.0071C91.7687 29.1702 92.4975 31.3818 93.1037 33.6252C94.3247 38.1161 95.0535 42.7465 95.195 47.4106C95.271 49.7406 95.2077 52.079 94.9838 54.4047C94.7599 56.7283 94.3817 59.0393 93.8325 61.3143C92.7489 65.8602 90.9892 70.2709 88.503 74.2548C86.0294 78.2409 82.8376 81.7939 79.0902 84.6351C77.2165 86.0567 75.2118 87.303 73.1206 88.3677C71.023 89.4323 68.8388 90.3132 66.606 91.025C64.3647 91.7327 62.0791 92.2714 59.764 92.6474C57.4488 93.0191 55.1231 93.2536 52.7741 93.3297C50.4314 93.3951 48.0761 93.2832 45.7504 92.9811C43.4247 92.6748 41.12 92.1784 38.8746 91.494C34.3773 90.1294 30.1314 87.979 26.3376 85.216C22.5458 82.453 19.204 79.0858 16.4431 75.3026C13.6759 71.5235 11.4812 67.3325 9.91165 62.924C8.35271 58.5154 7.40214 53.8914 7.12753 49.2252C6.98388 46.8931 7.01346 44.5526 7.19512 42.2247C7.39157 39.8969 7.74012 37.5838 8.2492 35.3066C8.76674 33.0316 9.42369 30.7904 10.2433 28.6062C11.0692 26.4262 12.0325 24.299 13.1373 22.25C15.3426 18.1456 18.076 14.3391 21.2045 10.898C24.3223 7.45272 27.8395 4.38342 31.5974 1.66056C27.8902 4.45313 24.4428 7.5858 21.3756 11.0543C18.3105 14.5229 15.6468 18.3463 13.5154 22.4485C11.384 26.5466 9.79758 30.9256 8.828 35.4334C8.34848 37.6894 8.02106 39.9771 7.86052 42.2754C7.69364 44.5737 7.69364 46.8825 7.85419 49.1787C8.15837 53.7731 9.12584 58.3211 10.6975 62.6451C12.267 66.9671 14.4554 71.063 17.1825 74.7618C19.9032 78.4585 23.1922 81.7411 26.9121 84.426C30.6299 87.1129 34.7829 89.1873 39.1724 90.516C41.3609 91.1814 43.6127 91.663 45.8814 91.9587C48.1564 92.2502 50.4547 92.3558 52.7466 92.2882C55.0322 92.2122 57.3284 91.9756 59.5929 91.6038C61.8616 91.2278 64.1007 90.7145 66.2849 90.0259C68.4733 89.3351 70.6047 88.4796 72.6495 87.4467C74.6964 86.4116 76.6483 85.2054 78.4712 83.8239C80.2985 82.4445 82.0053 80.9046 83.5536 79.2168C85.0999 77.5311 86.492 75.6997 87.7193 73.7605C90.1654 69.8822 91.9419 65.5835 93.0594 61.1242C93.6192 58.8935 94.0205 56.6206 94.274 54.3308C94.5254 52.041 94.6289 49.7321 94.5888 47.4254C94.5085 42.8119 93.8896 38.2027 92.7784 33.7118C92.2165 31.4663 91.5406 29.2504 90.7379 27.0768C89.9415 24.9031 89.0416 22.7633 88.0235 20.6805Z" fill="#AA5631"/>
<path d="M55.3807 20.1186C55.6215 18.9694 55.9363 17.8351 56.2912 16.7134C56.6524 15.5939 57.0706 14.4891 57.5417 13.4075C58.469 11.2381 59.6203 9.15953 60.9617 7.20979C61.644 6.24232 62.377 5.30653 63.1733 4.42778C63.9803 3.55537 64.84 2.7252 65.7969 2.0091C66.7475 1.29511 67.8037 0.690971 68.938 0.310741C69.0796 0.268494 69.2295 0.232583 69.3732 0.192448C69.4471 0.173436 69.5168 0.152312 69.5908 0.137526L69.8147 0.0995031C69.9562 0.0762668 70.1062 0.0403558 70.254 0.0297939L70.7019 0.00233332C70.8519 -0.00611623 70.9997 0.0107824 71.1497 0.0150072C71.2236 0.019232 71.2976 0.0192321 71.3715 0.0276816L71.5891 0.0635921L71.8088 0.101615C71.8468 0.110065 71.8827 0.11429 71.9165 0.122739L72.0263 0.154425L72.4488 0.28328C71.87 0.156537 71.287 0.137526 70.7124 0.196672C70.1463 0.264269 69.5908 0.431148 69.0584 0.636049C68.7944 0.758567 68.524 0.855737 68.279 1.00149L67.9009 1.20639L67.5333 1.43242C67.2861 1.57817 67.058 1.75561 66.8172 1.91615C66.5891 2.08515 66.3651 2.26681 66.1349 2.44425C65.254 3.18359 64.4281 3.99686 63.6719 4.8735C62.9093 5.74169 62.1995 6.65846 61.5405 7.61326C60.8751 8.56172 60.2561 9.54821 59.6794 10.5537C59.088 11.5571 58.5493 12.59 58.0402 13.6357C57.9072 13.8955 57.7867 14.1617 57.6663 14.4257C57.5417 14.6898 57.4213 14.9538 57.3072 15.2221C57.1868 15.4882 57.0664 15.7544 56.9502 16.0227L56.6123 16.8317C56.1708 17.9133 55.7715 19.0117 55.3807 20.1186Z" fill="#AA5631"/>
<path d="M75.2055 11.5803C75.778 12.1845 76.3061 12.8414 76.7687 13.5237C77.2503 14.206 77.6749 14.9158 78.0699 15.6403C78.8599 17.0936 79.5021 18.6103 80.0344 20.1608C81.0906 23.2597 81.7201 26.4769 81.9842 29.7173C82.1151 31.3396 82.1616 32.9682 82.1088 34.5969C82.0856 35.4123 82.0349 36.2276 81.9715 37.043C81.944 37.4486 81.8976 37.8563 81.8511 38.2619C81.8173 38.6696 81.7603 39.0751 81.7032 39.4807C81.6504 39.8884 81.5828 40.294 81.5194 40.6996L81.4159 41.3058L81.2955 41.9121C81.2153 42.3155 81.1413 42.7211 81.0442 43.1225C80.947 43.5259 80.8604 43.9273 80.7526 44.3286C80.5562 45.1335 80.3281 45.9319 80.0809 46.7262C79.9499 47.1254 79.8338 47.5226 79.6965 47.9197C79.5549 48.3126 79.4155 48.7076 79.2676 49.1005C78.0868 52.2416 76.5173 55.3152 74.3859 58.1077C74.1113 58.4521 73.8473 58.8006 73.56 59.1386C73.2685 59.4702 72.9875 59.8103 72.6833 60.1335C72.0771 60.7841 71.4412 61.4115 70.7653 62.0009C70.4273 62.2945 70.0893 62.5902 69.7218 62.8606L69.1894 63.2725C69.0057 63.4077 68.8177 63.5323 68.6339 63.6633L68.072 64.0435L67.4869 64.3963C67.2925 64.5125 67.1045 64.635 66.9038 64.7427L66.3018 65.0596C64.6922 65.8961 62.9664 66.5087 61.2194 66.8741C59.4725 67.2375 57.7023 67.3431 55.9934 67.2332C54.2866 67.1234 52.6368 66.7854 51.0778 66.2953C49.5189 65.7989 48.0466 65.1568 46.6714 64.3625C46.2933 64.1449 46.1623 63.6591 46.3799 63.2831C46.5299 63.0254 46.7982 62.8838 47.0791 62.8859H47.096C48.6211 62.9071 50.0935 62.905 51.5193 62.7867C52.9452 62.6768 54.3204 62.4592 55.6152 62.1255C58.2114 61.4601 60.4463 60.2962 62.3031 58.7372C66.0145 55.6278 68.3867 50.9594 69.9753 45.8791C70.1696 45.2412 70.3534 44.599 70.5308 43.9505C70.6216 43.6273 70.6914 43.2957 70.7758 42.9704C70.8625 42.6451 70.9364 42.3113 71.0103 41.9839C71.0906 41.6544 71.1603 41.3206 71.23 40.989C71.2976 40.6573 71.3673 40.3236 71.4286 39.9877L71.5279 39.4871L71.6187 38.9822C71.6821 38.6463 71.7454 38.3105 71.7961 37.9704C71.906 37.2944 72.02 36.6163 72.1172 35.9361C72.1637 35.5939 72.2207 35.2538 72.2651 34.9116L72.3982 33.8829C72.5693 32.5098 72.7235 31.1283 72.8502 29.7405C73.091 26.9606 73.2579 24.1554 73.298 21.3205C73.3213 19.9031 73.3149 18.4751 73.2579 17.0387C73.241 16.6817 73.2347 16.3142 73.2114 15.9551C73.2009 15.7755 73.1882 15.596 73.1819 15.4122C73.1776 15.2284 73.1607 15.0489 73.1481 14.8672C73.1016 14.1321 73.0276 13.4075 72.9706 12.6471L72.9601 12.5689C72.9072 11.8528 73.4459 11.2276 74.162 11.1747C74.5697 11.1452 74.9478 11.3078 75.2055 11.5803Z" fill="#FAC891"/>
<path d="M60.7715 48.6421C60.7715 52.3451 63.7754 55.3447 67.4763 55.3447C71.1772 55.3447 74.1789 52.3451 74.1789 48.6421C74.1789 44.9391 71.1772 41.9374 67.4763 41.9374C63.7754 41.9374 60.7715 44.9391 60.7715 48.6421Z" fill="white"/>
<path d="M60.7715 48.6421H60.4568C60.4568 52.5184 63.6021 55.6595 67.4762 55.6616C71.3504 55.6595 74.4957 52.5184 74.4957 48.6421C74.4957 44.7659 71.3504 41.6248 67.4762 41.6227C63.6021 41.6248 60.4568 44.7659 60.4568 48.6421H61.0884C61.0884 46.8762 61.8045 45.2813 62.9621 44.1237C64.1197 42.9683 65.7124 42.2543 67.4762 42.2543C69.2401 42.2543 70.8328 42.9683 71.9968 44.1237C73.148 45.2813 73.8641 46.8762 73.8641 48.6421C73.8641 50.4081 73.148 52.0029 71.9968 53.1584C70.8328 54.316 69.2401 55.03 67.4762 55.03C65.7124 55.03 64.1197 54.316 62.9621 53.1584C61.8045 52.0029 61.0884 50.4081 61.0884 48.6421H60.7715Z" fill="#42180B"/>
<path d="M62.0094 48.3739C62.1362 50.0046 63.562 51.2214 65.1907 51.0925C66.8172 50.9615 68.0382 49.5378 67.9051 47.9091C67.7805 46.2784 66.3525 45.0637 64.726 45.1926C63.0931 45.3215 61.8785 46.7452 62.0094 48.3739Z" fill="#42180B"/>
<path d="M62.246 48.5893C62.2798 49.0414 62.6748 49.3794 63.1269 49.3434C63.5811 49.3075 63.919 48.9125 63.8831 48.4605C63.8493 48.0084 63.4543 47.6704 63.0023 47.7042C62.5481 47.7423 62.2101 48.1373 62.246 48.5893Z" fill="white"/>
<path d="M63.6021 46.9987C63.6254 47.2691 63.8599 47.4719 64.1366 47.4507C64.4049 47.4296 64.6119 47.1909 64.5886 46.9205C64.5654 46.648 64.3309 46.4453 64.0563 46.4685C63.7859 46.4896 63.581 46.7262 63.6021 46.9987Z" fill="white"/>
<path d="M66.268 55.8454C66.3757 56.6565 68.1818 57.0896 70.3005 56.8128C72.4256 56.5361 74.0606 55.6553 73.9571 54.8441C73.8535 54.0351 72.0432 53.602 69.9224 53.8787C67.7973 54.1555 66.1645 55.0363 66.268 55.8454Z" fill="#FF803B"/>
<path d="M68.8113 33.0781C72.9938 34.7574 76.5067 38.2407 77.4003 42.7655C77.5608 38.1288 74.5971 32.2923 69.3436 32.4232C68.9254 32.3662 68.2262 32.6978 68.8113 33.0781Z" fill="#632B15"/>
<path d="M44.071 48.9569C43.5957 52.6282 40.2328 55.2159 36.5594 54.7385C32.8881 54.2611 30.2983 50.8961 30.7778 47.2247C31.2531 43.5534 34.6181 40.9657 38.2894 41.4431C41.9629 41.9226 44.5463 45.2856 44.071 48.9569Z" fill="white"/>
<path d="M44.071 48.9569L43.7563 48.9167C43.5493 50.5264 42.7592 51.9163 41.6249 52.9049C40.4905 53.8935 39.0119 54.4808 37.4297 54.4808C37.1551 54.4808 36.8805 54.4618 36.5995 54.4258C34.9899 54.2167 33.5978 53.4246 32.6113 52.2902C31.6206 51.1559 31.0355 49.6793 31.0355 48.0992C31.0355 47.8246 31.0545 47.5458 31.0883 47.2649C31.2995 45.6552 32.0896 44.2674 33.226 43.2767C34.3604 42.2881 35.837 41.7008 37.4128 41.7008C37.6874 41.7008 37.9683 41.7198 38.2493 41.7558C39.861 41.967 41.2468 42.757 42.2375 43.8914C43.2282 45.0257 43.8133 46.5023 43.8133 48.0824C43.8133 48.357 43.7964 48.6358 43.7563 48.9167L44.071 48.9569L44.3858 48.997C44.4217 48.6907 44.4428 48.3844 44.4428 48.0824C44.4428 46.346 43.7964 44.7237 42.7128 43.4773C41.6312 42.231 40.0955 41.3607 38.3296 41.1326C38.0212 41.0925 37.717 41.0713 37.4128 41.0713C35.6764 41.0713 34.0562 41.7177 32.812 42.8014C31.5636 43.8872 30.6933 45.4165 30.463 47.1846C30.4229 47.493 30.406 47.7972 30.406 48.0992C30.406 49.8356 31.0482 51.4601 32.1361 52.7043C33.2197 53.9506 34.7491 54.8209 36.5193 55.0511C36.8234 55.0912 37.1276 55.1103 37.4297 55.1103C39.1661 55.1103 40.7947 54.466 42.0368 53.3802C43.281 52.2944 44.1513 50.7651 44.3794 48.997L44.071 48.9569Z" fill="#42180B"/>
<path d="M42.8796 48.5323C42.5417 50.1314 40.9722 51.1538 39.3731 50.8158C37.774 50.4778 36.7537 48.9062 37.0917 47.3071C37.4297 45.7101 39.0013 44.6877 40.5983 45.0257C42.1973 45.3637 43.224 46.9332 42.8796 48.5323Z" fill="#42180B"/>
<path d="M42.6156 48.714C42.5248 49.1597 42.0896 49.4427 41.6418 49.3498C41.2003 49.2547 40.9151 48.8196 41.0123 48.3739C41.1031 47.9303 41.5383 47.6472 41.9861 47.7401C42.4276 47.8331 42.7128 48.2704 42.6156 48.714Z" fill="white"/>
<path d="M41.4749 46.9607C41.4179 47.2268 41.1602 47.3979 40.8919 47.3409C40.6278 47.286 40.4567 47.024 40.5138 46.7579C40.5708 46.4896 40.8285 46.3206 41.0968 46.3755C41.3608 46.4326 41.532 46.6945 41.4749 46.9607Z" fill="white"/>
<path d="M39.2189 55.8454C39.1091 56.6565 37.3051 57.0896 35.1842 56.8128C33.0592 56.5361 31.42 55.6553 31.5298 54.8441C31.6333 54.0351 33.4436 53.602 35.5624 53.8787C37.6874 54.1555 39.3224 55.0363 39.2189 55.8454Z" fill="#FF803B"/>
<path d="M42.4318 35.3045C38.0148 32.0219 32.0959 35.727 29.8906 39.9539C32.8247 36.61 37.4086 35.2559 41.7453 35.8073C42.134 35.8939 42.8163 35.8537 42.4318 35.3045Z" fill="#632B15"/>
<path d="M46.4137 56.2805C46.2933 58.2767 48.8218 60.1715 52.058 60.5116C55.3005 60.8496 58.0233 59.5061 58.1438 57.5099C58.2642 55.5137 55.7356 53.6189 52.4995 53.2788C49.2569 52.9408 46.5341 54.2843 46.4137 56.2805Z" fill="#632B15"/>
<path d="M52.0812 53.3359L51.984 54.5948C51.9671 54.7997 51.8108 55.0638 51.6101 55.0913C50.8835 55.1948 49.7956 54.8462 49.7428 54.5885L49.6921 53.3105L52.0812 53.3359Z" fill="white"/>
<path d="M55.3343 54.0139L54.9055 55.1969C54.8379 55.387 54.6478 55.5053 54.4407 55.4863C54.1556 55.4588 53.5937 55.4039 53.3127 55.3785C53.0487 55.3532 52.848 55.1187 52.8607 54.8589L52.9515 53.3274L55.3343 54.0139Z" fill="white"/>
<path d="M51.268 60.03L51.3187 58.7647C51.3313 58.5598 51.2109 58.2662 51.0145 58.1965C50.311 57.9451 49.1936 58.0613 49.107 58.3063L48.9063 59.5547L51.268 60.03Z" fill="white"/>
<path d="M54.5612 60.0385L54.2802 58.7795C54.2358 58.5767 54.0626 58.4204 53.8577 58.3971C53.5704 58.3654 53.0086 58.3021 52.7276 58.2704C52.4699 58.2408 52.2418 58.4288 52.2249 58.6886L52.1277 60.218L54.5612 60.0385Z" fill="white"/>
<path d="M46.4137 56.2805L45.9109 56.2509C45.9109 56.3059 45.9046 56.3608 45.9046 56.4178C45.9046 57.0135 46.0989 57.586 46.42 58.0993C46.908 58.8724 47.6875 59.5273 48.6486 60.03C49.6118 60.5328 50.7631 60.8813 52.0073 61.0123C52.3622 61.0503 52.7107 61.0672 53.055 61.0672C54.521 61.0672 55.8455 60.7377 56.8594 60.142C57.3643 59.842 57.7868 59.4723 58.1036 59.0351C58.4184 58.5978 58.6127 58.0866 58.6465 57.5395C58.6465 57.4846 58.6529 57.4275 58.6529 57.3726C58.6529 56.7769 58.4585 56.2045 58.1374 55.6891C57.6495 54.918 56.87 54.2632 55.9089 53.7604C54.9456 53.2577 53.7944 52.9092 52.5502 52.7782C52.1953 52.7402 51.8467 52.7233 51.5024 52.7233C50.0364 52.7233 48.7056 53.0507 47.698 53.6485C47.1932 53.9484 46.7643 54.316 46.4538 54.7554C46.1391 55.1926 45.9447 55.7017 45.9109 56.2509L46.4137 56.2805L46.9185 56.3101C46.9418 55.9637 47.0558 55.6447 47.2734 55.3426C47.5945 54.8885 48.1501 54.4808 48.8831 54.1914C49.6182 53.902 50.5159 53.7309 51.5024 53.7309C51.8108 53.7309 52.1214 53.7478 52.4424 53.7816C53.9422 53.9379 55.2773 54.4512 56.2109 55.1293C56.6757 55.4673 57.0432 55.8454 57.284 56.2277C57.5185 56.6122 57.6389 56.9945 57.6389 57.3726C57.6389 57.4085 57.6389 57.4444 57.6389 57.4804V57.4782C57.6157 57.8268 57.4953 58.1436 57.284 58.4478C56.9629 58.8999 56.4074 59.3097 55.6744 59.5991C54.9393 59.8885 54.0394 60.0575 53.055 60.0575C52.7466 60.0575 52.4298 60.0427 52.115 60.0089C50.6152 59.8526 49.2802 59.3393 48.3444 58.6612C47.8818 58.3232 47.5142 57.9451 47.2734 57.5627C47.0326 57.1783 46.9185 56.7959 46.9122 56.4178C46.9122 56.3819 46.9185 56.346 46.9185 56.3101L46.4137 56.2805Z" fill="#42180B"/>
<path d="M51.1581 63.1099C50.78 63.0064 50.4251 62.8712 50.104 62.7106C49.9435 62.6325 49.8864 62.4212 49.9667 62.2417C50.0533 62.06 50.254 61.9755 50.4082 62.0579C51.4897 62.5944 53.1353 62.8691 54.1788 62.2036C54.3372 62.1023 54.5337 62.1551 54.6182 62.3219C54.6984 62.4909 54.6372 62.7106 54.4766 62.812C53.5366 63.414 52.265 63.4098 51.1581 63.1099Z" fill="#632B15"/>
<path d="M13.3379 67.4022L1.54659 55.0215L25.501 43.3253C25.7883 43.1858 25.9087 42.8394 25.7651 42.55C25.6278 42.2627 25.2771 42.1444 24.992 42.2838L0.325631 54.3266C0.160865 54.4089 0.0425716 54.5653 0.00877345 54.7469C-0.0229123 54.9265 0.0320097 55.1145 0.160865 55.2497L12.4951 68.2028C12.719 68.4331 13.0866 68.4436 13.3147 68.2218C13.5492 68.0022 13.5555 67.6346 13.3379 67.4022Z" fill="#994D2B"/>
<path d="M24.5674 41.8508C24.6815 41.4389 24.7216 41.0016 24.7216 40.558C24.7216 39.8757 24.6244 39.1765 24.4935 38.5597C24.4301 38.2513 24.3561 37.9619 24.2864 37.7084C24.2125 37.4528 24.1322 37.2331 24.0646 37.0515C23.9442 36.7536 23.6062 36.61 23.3084 36.7283C23.0084 36.8487 22.8669 37.1867 22.9873 37.4824C23.038 37.6155 23.1077 37.8056 23.169 38.0316C23.3654 38.7055 23.564 39.7004 23.5598 40.558C23.5598 40.9298 23.526 41.2741 23.4499 41.5466C23.3654 41.855 23.5471 42.174 23.8576 42.2585C24.166 42.3409 24.4871 42.1592 24.5674 41.8508Z" fill="#994D2B"/>
<path d="M26.4073 39.8124C26.4706 39.7448 26.5044 39.6856 26.5382 39.6265C26.6079 39.5187 26.6523 39.4068 26.7051 39.28C26.7959 39.0582 26.8889 38.7921 26.9797 38.4942C27.117 38.0464 27.267 37.531 27.4043 37.0367C27.5353 36.5445 27.6684 36.0692 27.7761 35.7164C27.869 35.4101 27.6895 35.087 27.3874 34.994C27.0769 34.9011 26.7558 35.0764 26.665 35.3827C26.4812 35.9911 26.2467 36.8761 26.0228 37.6429C25.9151 38.0274 25.8052 38.3802 25.7081 38.6442C25.6616 38.7773 25.6172 38.8871 25.5813 38.959C25.5644 38.9949 25.5539 39.0202 25.5475 39.0329L25.5412 39.0392L25.7081 39.1512L25.5644 39.0139C25.5475 39.0329 25.5412 39.0392 25.5412 39.0392L25.7081 39.1512L25.5644 39.0139C25.3405 39.2462 25.3532 39.6138 25.5813 39.8335C25.8158 40.0532 26.1833 40.0447 26.4073 39.8124Z" fill="#994D2B"/>
<path d="M27.1065 40.6404C27.1065 40.6404 27.1403 40.5918 27.1973 40.5031C27.4085 40.1926 27.943 39.4004 28.5218 38.5513C29.1048 37.7042 29.7427 36.7959 30.1377 36.2699C30.3257 36.0122 30.275 35.6489 30.0215 35.4566C29.7638 35.2644 29.3984 35.3172 29.2083 35.5728C28.9675 35.8918 28.6591 36.3248 28.3274 36.798C27.3346 38.2175 26.1432 39.994 26.1432 39.994C25.9658 40.2623 26.0355 40.6214 26.3037 40.7988C26.5678 40.9784 26.929 40.9066 27.1065 40.6404Z" fill="#994D2B"/>
<path d="M28.1479 41.8128C28.1479 41.8128 28.1542 41.8043 28.1711 41.7874C28.2683 41.6628 28.7393 41.0819 29.3055 40.4186C29.5927 40.087 29.8969 39.7342 30.1948 39.4089C30.4926 39.0836 30.7778 38.7836 31.0144 38.5639C31.2489 38.3464 31.2594 37.9788 31.0355 37.7443C30.8179 37.512 30.4525 37.4993 30.2222 37.719C29.9307 37.9894 29.6096 38.3316 29.278 38.6949C28.2873 39.787 27.2501 41.0819 27.2438 41.0882C27.0431 41.3375 27.0832 41.7008 27.3346 41.9015C27.5817 42.1022 27.9472 42.062 28.1479 41.8128Z" fill="#994D2B"/>
<path d="M27.7655 42.6218C28.8471 41.4431 29.1745 39.9835 27.9937 38.8998C26.8192 37.8162 25.651 38.0105 24.5674 39.1871C23.4858 40.3658 22.8944 42.0789 24.0688 43.1626C25.2497 44.2463 26.6819 43.7984 27.7655 42.6218Z" fill="#994D2B"/>
<path d="M91.0019 68.8387L104.416 54.8061C104.54 54.6751 104.597 54.4913 104.57 54.3139C104.54 54.1365 104.432 53.9801 104.272 53.8956L85.9195 44.0245C85.6386 43.8745 85.29 43.9801 85.1337 44.261C84.9858 44.542 85.0894 44.8948 85.3703 45.0469L103.051 54.5547L90.1654 68.0381C89.9415 68.2704 89.9479 68.6359 90.1823 68.8577C90.4105 69.0795 90.778 69.071 91.0019 68.8387Z" fill="#994D2B"/>
<path d="M87.1341 43.8871C87.2207 43.6104 87.3749 43.2936 87.582 42.9725C87.884 42.4909 88.2917 42.0071 88.6867 41.5994C88.8811 41.3966 89.0754 41.2129 89.2486 41.0587C89.4261 40.9045 89.5803 40.7798 89.6943 40.6953C89.9521 40.5094 90.0112 40.1461 89.8274 39.8863C89.6373 39.6286 89.2719 39.5694 89.0142 39.7574C88.8071 39.9095 88.5558 40.1187 88.279 40.3764C87.8671 40.7608 87.4024 41.2509 86.9905 41.7938C86.7856 42.0642 86.5955 42.3472 86.4286 42.6408C86.2638 42.9345 86.1265 43.2365 86.0294 43.5471C85.9301 43.8534 86.1075 44.1787 86.4117 44.2716C86.7159 44.3667 87.0433 44.1934 87.1341 43.8871Z" fill="#994D2B"/>
<path d="M86.699 40.6172L86.4518 40.6679L86.7053 40.6468C86.7053 40.6425 86.7053 40.6341 86.699 40.6172L86.4518 40.6679L86.7053 40.6468L86.6187 40.6552L86.7053 40.651V40.6468L86.6187 40.6552L86.7053 40.651V40.6489C86.7053 40.632 86.7095 40.5559 86.7264 40.4588C86.756 40.2855 86.813 40.0342 86.887 39.7469C87.0032 39.3181 87.151 38.8111 87.301 38.3147C87.4489 37.8204 87.5988 37.3409 87.7002 36.9606C87.7868 36.6522 87.6094 36.3311 87.301 36.2467C86.9905 36.16 86.6694 36.3417 86.5849 36.6501C86.4349 37.1993 86.1772 38.0147 85.9596 38.7688C85.8498 39.147 85.7484 39.5082 85.6724 39.825C85.6386 39.9835 85.6048 40.1292 85.5815 40.2623C85.5583 40.3996 85.5414 40.5179 85.5414 40.6489C85.5414 40.708 85.5477 40.7714 85.5583 40.8474C85.628 41.1601 85.9301 41.3629 86.2469 41.3016C86.5553 41.2382 86.7623 40.9319 86.699 40.6172Z" fill="#994D2B"/>
<path d="M85.685 41.1389C85.685 41.1389 85.6555 40.1884 85.6153 39.0413C85.5921 38.4689 85.571 37.8478 85.5414 37.269C85.5118 36.6924 85.4844 36.1622 85.4506 35.7629C85.421 35.4461 85.14 35.2074 84.8253 35.2327C84.5042 35.2602 84.2697 35.5411 84.293 35.8601C84.3204 36.234 84.3563 36.7557 84.3838 37.3261C84.4239 38.1816 84.4577 39.1448 84.4873 39.8926C84.4979 40.2665 84.5105 40.5855 84.5148 40.8136C84.5211 41.0397 84.5274 41.1727 84.5274 41.1727C84.5338 41.4938 84.8021 41.7452 85.1231 41.7367C85.4379 41.7262 85.6893 41.46 85.685 41.1389Z" fill="#994D2B"/>
<path d="M84.1725 41.4769C84.1725 41.4727 84.0859 40.7376 83.955 39.8187C83.8916 39.3582 83.8113 38.8533 83.7247 38.3696C83.6402 37.8838 83.5473 37.4233 83.4501 37.0409C83.3698 36.7304 83.0487 36.5445 82.7403 36.6269C82.4298 36.7072 82.246 37.024 82.3263 37.3345C82.4129 37.6641 82.5038 38.1056 82.584 38.5703C82.7044 39.2716 82.8143 40.032 82.8945 40.6172C82.9347 40.9087 82.9621 41.158 82.9854 41.3333C82.998 41.4199 83.0023 41.4896 83.0086 41.5361C83.015 41.5825 83.0213 41.6079 83.0213 41.6079C83.0551 41.9247 83.3403 42.155 83.6613 42.1191C83.9761 42.0811 84.2063 41.7938 84.1725 41.4769Z" fill="#994D2B"/>
<path d="M82.9115 42.4951C82.6242 40.9235 83.1291 39.5145 84.6986 39.2251C86.2744 38.9357 87.1574 39.7215 87.4489 41.2953C87.7362 42.8711 87.3243 44.6349 85.7484 44.9243C84.1789 45.2137 83.203 44.0688 82.9115 42.4951Z" fill="#994D2B"/>
</svg>
