<svg width="125" height="131" viewBox="0 0 125 131" fill="none" xmlns="http://www.w3.org/2000/svg">
<path d="M46.0842 94.9197L42.6708 127.08L33.1039 128.843C32.7794 128.902 32.5664 129.212 32.6256 129.536C32.686 129.859 32.9946 130.074 33.3192 130.015L43.3246 128.172C43.5831 128.124 43.779 127.911 43.8086 127.649L47.2698 95.0451C47.3039 94.719 47.067 94.4249 46.739 94.3895C46.4133 94.3553 46.1206 94.5925 46.0842 94.9197Z" fill="#994D2B"/>
<path d="M32.8477 129.781C31.2304 128.902 36.7496 122.406 42.8462 127.21C37.4239 128.246 34.7075 129.573 32.8477 129.781Z" fill="#994D2B"/>
<path d="M65.2806 94.9357L62.792 127.539C62.7807 127.708 62.8376 127.873 62.9538 127.995C63.0699 128.119 63.2339 128.185 63.4025 128.18L73.7917 127.909C74.1208 127.902 74.3805 127.627 74.3703 127.299C74.3634 126.969 74.0901 126.711 73.7609 126.72L64.03 126.972L66.4673 95.0269C66.4924 94.6997 66.2475 94.4135 65.9184 94.3884C65.5904 94.3622 65.3056 94.6085 65.2806 94.9379V94.9357Z" fill="#994D2B"/>
<path d="M74.2222 127.566C75.631 126.38 68.9262 121.121 63.9127 127.049C69.4319 126.979 72.3578 127.736 74.2222 127.566Z" fill="#994D2B"/>
<path d="M60.2226 95.9549C16.7799 109.532 -20.3362 55.6259 15.6421 11.0833C16.633 9.85657 18.4085 9.09158 20.6203 9.17937C25.5404 9.37432 32.6142 13.8024 37.9671 26.8026C38.4773 28.0407 38.8703 29.3381 39.1755 30.6583C41.1435 39.1371 39.5787 48.6008 43.1275 50.2562C43.763 50.5526 44.5603 50.5982 45.5716 50.3451C51.9951 48.7331 45.4771 41.163 44.2038 29.2811C44.0284 27.6451 43.951 25.9259 44.0239 24.128C44.5238 11.5701 50.3653 -0.367604 56.5838 0.0359819C57.3526 0.0861451 58.1293 0.3267 58.9038 0.778169C65.9468 4.89041 72.1209 10.5053 77.1287 16.982C97.5061 43.3337 98.5642 83.9727 60.2226 95.9549Z" fill="#E0AB6C"/>
<path d="M56.5838 0.0359819C48.2469 6.69059 47.149 17.0071 47.7287 23.729C48.8825 37.094 61.7966 55.0559 48.4622 56.7329C42.3815 57.4991 38.4739 52.4976 38.7461 43.4944C38.8418 40.3216 39.1755 30.6583 39.1755 30.6583C41.4955 40.6522 38.9056 52.0164 45.5716 50.3451C52.8789 48.513 43.435 38.9615 44.0239 24.128C44.5238 11.5701 50.3653 -0.367604 56.5838 0.0359819Z" fill="#D69763"/>
<path d="M60.2226 95.9549C16.7799 109.532 -20.3362 55.6259 15.6421 11.0833C16.633 9.85655 18.4085 9.09156 20.6203 9.17935C13.3871 20.4216 -4.21146 67.0027 37.8088 81.9479C62.3945 90.6934 98.2635 60.9888 77.1287 16.982C97.5061 43.3336 98.5642 83.9727 60.2226 95.9549Z" fill="#D69763"/>
<path d="M58.9038 0.778152C64.0095 3.69104 68.6813 7.36663 72.7951 11.5906C74.8497 13.7066 76.7608 15.9628 78.5284 18.3273C80.2949 20.6941 81.9235 23.1669 83.3745 25.7435C86.2787 30.8932 88.5714 36.4111 90.0201 42.1719C91.4858 47.9224 92.1202 53.9169 91.6624 59.8784C91.5895 60.6217 91.5416 61.3685 91.43 62.1095L91.2831 63.2199L91.094 64.327L91.0007 64.8799C90.9653 65.0646 90.9232 65.2458 90.8868 65.4294L90.651 66.5284C90.5701 66.8944 90.4676 67.2558 90.3777 67.6195C90.2809 67.9809 90.2 68.3468 90.0838 68.7048C89.8652 69.4219 89.6602 70.1447 89.3982 70.8482C89.2718 71.2016 89.1556 71.5596 89.0201 71.9096L88.601 72.955C88.5292 73.1295 88.462 73.305 88.388 73.476L88.1545 73.9902L87.6864 75.0163L87.1739 76.0218C87.0053 76.3581 86.8368 76.6945 86.6443 77.0194L86.084 77.9987C85.9928 78.1652 85.8915 78.3225 85.7913 78.481L85.4883 78.9586L85.1853 79.4352C85.0851 79.5948 84.986 79.7533 84.8744 79.9061L84.2241 80.8307C84.1136 80.9823 84.0111 81.1407 83.895 81.289L83.5499 81.737L82.8551 82.6285L82.1228 83.4904C81.8757 83.772 81.6388 84.0673 81.3745 84.3352C79.3347 86.555 77.0467 88.5444 74.5832 90.275L74.3566 90.4403L74.1208 90.5965L73.6493 90.9066L72.7051 91.5257C72.0628 91.9156 71.4182 92.3043 70.7678 92.6794C70.105 93.0306 69.4467 93.3965 68.777 93.734L67.7622 94.2231L67.2543 94.4671L67.0014 94.5891L66.7429 94.7008L65.7099 95.1465L65.194 95.3689L64.9354 95.4783L64.6724 95.5798C63.9731 95.8454 63.2772 96.1259 62.5722 96.3767C61.8627 96.615 61.1577 96.8624 60.4436 97.0949C59.7215 97.3036 59.0051 97.5282 58.2785 97.7231C52.4632 99.2622 46.3233 99.692 40.336 98.8552C37.3475 98.4197 34.4023 97.6752 31.5652 96.6423C28.7237 95.614 26.0073 94.263 23.4471 92.6714C18.3117 89.502 13.8665 85.2804 10.3097 80.4464C6.76652 75.5989 4.07982 70.1379 2.43978 64.384C0.784938 58.6334 0.119811 52.6093 0.486542 46.6592C0.840744 40.7046 2.18922 34.8367 4.3543 29.3119C5.43285 26.5461 6.71982 23.8669 8.17194 21.2869C9.62292 18.7058 11.2618 16.2353 13.026 13.8662L13.6854 12.9747L14.3745 12.1082L15.0646 11.2406C15.182 11.0958 15.2867 10.9533 15.4154 10.8074L15.6182 10.5885L15.7195 10.479L15.8323 10.381C16.42 9.84971 17.1227 9.47235 17.855 9.23293C18.5896 8.99238 19.3572 8.88521 20.1169 8.87495C21.6419 8.86583 23.1316 9.25231 24.5028 9.84515C25.8695 10.454 27.1326 11.2668 28.2818 12.204C29.4321 13.1445 30.473 14.2059 31.4217 15.3369L31.7794 15.7621L32.1188 16.1999C32.342 16.4929 32.5766 16.7779 32.7839 17.0846L33.4205 17.9887L34.0207 18.9167C34.7986 20.1685 35.5298 21.4488 36.171 22.7736C36.5081 23.428 36.8031 24.1029 37.1095 24.771C37.2678 25.1027 37.401 25.4459 37.5434 25.7834L37.9682 26.8015L37.5206 25.7948C37.3703 25.4596 37.2291 25.121 37.0639 24.7915C36.7416 24.1303 36.433 23.4645 36.0799 22.8192C35.4091 21.5149 34.6517 20.2552 33.8488 19.0284L33.2315 18.1198L32.5777 17.2362C32.3648 16.9387 32.1256 16.6616 31.8978 16.3755L31.5527 15.9491L31.1894 15.5387C30.2259 14.4419 29.1747 13.4193 28.0278 12.5255C26.8798 11.6339 25.6338 10.8712 24.3035 10.3171C22.971 9.77333 21.5474 9.43929 20.1283 9.47919C19.421 9.50199 18.7206 9.61714 18.0634 9.84743C17.4085 10.0766 16.7969 10.4254 16.3049 10.8906L16.2093 10.9761L16.125 11.0707L15.9576 11.26C15.8459 11.3911 15.7355 11.5461 15.6239 11.6886L14.9587 12.5608L14.2936 13.433L13.6592 14.3279C11.9634 16.7095 10.3951 19.1801 9.01701 21.7544C7.63893 24.3252 6.43054 26.9873 5.41918 29.7178C3.39419 35.1776 2.1858 40.9349 1.94891 46.7311C1.69607 52.5272 2.45117 58.3507 4.14929 63.8721C5.83033 69.4014 8.51361 74.6059 11.9884 79.1889C13.7253 81.4816 15.6899 83.5953 17.8083 85.5266C18.3265 86.0225 18.888 86.4706 19.429 86.938C19.6989 87.1763 19.9882 87.3872 20.2684 87.6118L21.1157 88.2719C22.2717 89.1167 23.4459 89.9387 24.6748 90.6695C27.1246 92.1459 29.6974 93.4228 32.3898 94.377C35.0742 95.3472 37.8555 96.0483 40.6777 96.461C43.5045 96.8692 46.37 96.9764 49.223 96.8065C52.076 96.6343 54.9119 96.1726 57.6885 95.4635C58.3844 95.2845 59.07 95.0759 59.7614 94.8855C60.4481 94.6723 61.1315 94.4397 61.8171 94.2185C62.497 93.9859 63.1679 93.7226 63.8444 93.4763L64.0972 93.3829L64.3455 93.278L64.8443 93.0693L65.8397 92.6544C68.4741 91.504 71.0138 90.1428 73.3862 88.5318C75.7586 86.9232 77.9635 85.0729 79.9372 82.9979C80.1946 82.7471 80.4224 82.4712 80.6616 82.2044L81.3723 81.3995L82.0454 80.5627L82.3825 80.1443C82.4952 80.0041 82.5955 79.857 82.7025 79.7122L83.3358 78.8435C83.4439 78.701 83.5408 78.5505 83.6387 78.4011L83.9348 77.9531L84.2309 77.5028C84.3312 77.3534 84.4291 77.2052 84.5191 77.049L85.068 76.1233C85.256 75.8189 85.4211 75.5008 85.5897 75.1839L86.0942 74.233L86.5577 73.2606L86.7878 72.7738C86.863 72.6096 86.929 72.442 86.9985 72.2778L87.4188 71.2837C87.5543 70.9519 87.6716 70.6099 87.798 70.2747C88.0611 69.6043 88.2684 68.9146 88.4916 68.2306C88.6089 67.8908 88.6909 67.5385 88.7912 67.1931C88.8845 66.8442 88.9893 66.4988 89.0736 66.1488L89.3173 65.0954C89.3583 64.9186 89.4005 64.7442 89.4381 64.5686L89.5394 64.0374L89.7421 62.9714L89.9039 61.8997C90.0235 61.1872 90.0838 60.4655 90.167 59.7484C90.7182 53.9842 90.2125 48.1174 88.8789 42.4524C88.216 39.6159 87.3584 36.8216 86.3038 34.1002C85.2582 31.3766 84.0362 28.7179 82.6547 26.1414C79.8871 20.9928 76.451 16.1976 72.4785 11.8916C68.4968 7.59579 63.9366 3.81645 58.9038 0.778152Z" fill="#CC834B"/>
<path d="M9.05577 44.199C8.97035 44.199 8.89518 44.1431 8.86899 43.9949C8.85646 43.8421 8.98402 43.6711 9.12524 43.6711C9.17194 43.6711 9.22091 43.6894 9.26533 43.7304C9.46464 43.9242 9.24027 44.199 9.05577 44.199Z" fill="#D18D58"/>
<path d="M27.8068 50.5526C27.7465 50.5526 27.6827 50.5161 27.6269 50.426C27.5722 50.2436 27.7123 49.8355 27.9253 49.8355C27.9697 49.8355 28.0175 49.8537 28.0676 49.897C28.2465 50.0703 28.0335 50.5526 27.8068 50.5526Z" fill="#DB9F60"/>
<path d="M2.81566 47.2247C2.71201 47.2247 2.59357 47.1974 2.46487 47.1335C2.04006 46.8416 2.29631 46.3514 2.55143 46.0379C2.7701 45.8646 2.94777 45.7939 3.08786 45.7939C3.4022 45.7939 3.52406 46.1519 3.47167 46.5099C3.42042 46.8667 3.19491 47.2247 2.81566 47.2247Z" fill="#D18D58"/>
<path d="M10.9554 35.5128C10.8962 35.5128 10.8324 35.5025 10.7641 35.4786C10.1673 35.2676 10.4042 34.4126 10.9383 34.4126C10.9987 34.4126 11.0625 34.424 11.1297 34.4479C11.7265 34.6588 11.4919 35.5128 10.9554 35.5128Z" fill="#D18D58"/>
<path d="M10.1936 59.8031C9.46922 59.8031 8.17428 59.1373 8.56834 58.3724C8.69362 58.2036 8.82802 58.1398 8.96468 58.1398C9.25739 58.1398 9.56945 58.4237 9.84165 58.5844C9.99654 58.6608 10.1571 58.7258 10.3234 58.7748C10.7744 58.9162 10.8074 59.5968 10.3758 59.7849C10.32 59.7974 10.2596 59.8031 10.1936 59.8031Z" fill="#D18D58"/>
<path d="M9.54093 52.6845C9.40312 52.6845 9.2619 52.5637 9.32454 52.3984C9.40312 52.2103 9.51587 52.0039 9.46234 51.7964L9.45893 51.7884C9.41109 51.8147 9.35529 51.8261 9.29606 51.8261C9.03639 51.8261 8.73572 51.5901 8.95439 51.3495C9.0865 51.2606 9.21065 51.2207 9.32226 51.2207C9.84388 51.2207 10.1013 52.0769 9.73682 52.5443C9.70152 52.6424 9.62293 52.6845 9.54093 52.6845ZM9.46121 51.7873V51.7884L9.46234 51.7953L9.46121 51.7873Z" fill="#D18D58"/>
<path d="M16.5361 49.4957C16.4029 49.4957 16.2765 49.441 16.2514 49.3145C16.2161 49.1298 16.4188 49.0226 16.6079 49.0226C16.7229 49.0226 16.8323 49.0625 16.879 49.1503C16.9735 49.3612 16.7446 49.4957 16.5361 49.4957Z" fill="#DB9F60"/>
<path d="M20.7912 68.7083C20.7502 68.7083 20.7035 68.6889 20.6488 68.6444C20.5611 68.5429 20.5395 68.3412 20.6932 68.2876C20.716 68.2819 20.7388 68.2796 20.7593 68.2796C20.8834 68.2796 20.9404 68.3868 20.9404 68.4939C20.9415 68.6011 20.888 68.7083 20.7912 68.7083Z" fill="#DB9F60"/>
<path d="M35.6756 63.1857C35.6483 63.1857 35.6198 63.1812 35.5856 63.1709C35.4729 63.0968 35.3852 62.846 35.4251 62.7172C35.4763 62.6442 35.5276 62.6134 35.5788 62.6134C35.687 62.6134 35.7827 62.7571 35.8169 62.9007C35.8499 63.0432 35.818 63.1857 35.6756 63.1857Z" fill="#DB9F60"/>
<path d="M11.4042 77.0513C11.2106 77.0513 11.0215 76.9419 10.9862 76.7127C10.9122 76.3012 11.3119 75.9979 11.6946 75.9979C11.8506 75.9979 12.0032 76.0503 12.1217 76.1655C12.4736 76.4653 12.1684 76.9396 11.8199 76.9396C11.788 76.9396 11.7584 76.9362 11.7265 76.9282C11.6411 77.0091 11.5215 77.0513 11.4042 77.0513Z" fill="#D18D58"/>
<path d="M18.1956 73.8397C17.8209 73.8397 17.7389 73.4236 17.7411 73.1135C17.8197 72.7589 17.9678 72.6255 18.1238 72.6255C18.5577 72.6255 19.0452 73.6539 18.2388 73.8386C18.224 73.8397 18.2104 73.8397 18.1956 73.8397Z" fill="#D18D58"/>
<path d="M23.9562 62.805C23.5268 62.8027 23.3389 62.1175 23.8172 61.9488C23.8707 61.9282 23.922 61.9203 23.971 61.9203C24.4015 61.9203 24.5871 62.6066 24.1099 62.7765C24.0564 62.7958 24.004 62.805 23.9562 62.805Z" fill="#DB9F60"/>
<path d="M17.3801 62.4059C16.9496 62.4059 16.7628 61.7185 17.24 61.5486C17.2947 61.5304 17.3459 61.5224 17.3949 61.5224C17.8254 61.5224 18.011 62.2087 17.5338 62.3774C17.4803 62.3968 17.4279 62.4059 17.3801 62.4059Z" fill="#DB9F60"/>
<path d="M29.1974 78.0021C28.8079 77.7753 28.4196 77.5415 28.0449 77.3078C28.2419 77.2554 28.4811 77.3033 28.6792 77.2371C28.6405 77.2463 28.6018 77.2543 28.5653 77.2622C28.7168 77.2303 28.866 77.1836 29.0118 77.1243C29.0596 77.1049 29.1086 77.0958 29.1564 77.0958C29.4537 77.0958 29.7031 77.4389 29.5528 77.7285C29.4628 77.8528 29.3387 77.9406 29.1974 78.0021Z" fill="#DB9F60"/>
<path d="M28.1496 78.1675C27.7909 78.1675 27.5733 77.7205 27.8159 77.4446C27.8797 77.3705 27.9583 77.3295 28.0448 77.3078C28.4195 77.5415 28.8079 77.7753 29.1974 78.0021C28.8876 78.1378 28.4947 78.1481 28.1827 78.1652C28.1724 78.1675 28.1599 78.1675 28.1496 78.1675Z" fill="#D18D58"/>
<path d="M25.3354 73.7668C25.0825 73.7668 25.1634 73.3256 24.955 73.2093H24.9527L24.947 73.2036L24.9527 73.2081L24.947 73.2047C24.898 73.3221 24.7466 73.3985 24.6167 73.3985C24.5006 73.3985 24.4026 73.3381 24.4117 73.1876C24.4744 72.9345 24.6258 72.8353 24.799 72.8353C25.2112 72.8353 25.7317 73.3974 25.3946 73.7588C25.373 73.7633 25.3536 73.7668 25.3354 73.7668Z" fill="#DB9F60"/>
<path d="M11.8199 66.4897C11.7333 66.4897 11.6388 66.4463 11.5864 66.3437C11.4486 66.1705 11.5659 66.0485 11.7071 66.0485C11.7937 66.0485 11.8871 66.0941 11.9395 66.1967C12.0773 66.3711 11.9611 66.4897 11.8199 66.4897Z" fill="#D18D58"/>
<path d="M24.1521 86.4273C24.1099 86.4273 24.0621 86.4056 24.0108 86.3497C23.9209 86.1958 24.0222 85.8983 24.1817 85.8983C24.2238 85.8983 24.2716 85.9211 24.3229 85.9758C24.4129 86.1297 24.3115 86.4273 24.1521 86.4273Z" fill="#D18D58"/>
<path d="M28.0369 68.267C27.9993 68.267 27.964 68.2556 27.9321 68.2306C27.7669 68.0881 27.9936 67.7973 28.1781 67.7973C28.1997 67.7973 28.2214 67.8008 28.2419 67.8099C28.4708 67.9262 28.2373 68.267 28.0369 68.267Z" fill="#DB9F60"/>
<path d="M42.4294 73.9412C42.2517 73.9412 42.0626 73.7554 42.2039 73.5889C42.2528 73.5319 42.3109 73.508 42.3667 73.508C42.5922 73.508 42.8029 73.8648 42.4647 73.9378C42.4521 73.9401 42.4419 73.9412 42.4294 73.9412Z" fill="#DB9F60"/>
<path d="M47.6012 56.237C47.4451 56.2313 47.2903 56.2165 47.1388 56.188C47.1843 56.1971 47.231 56.2051 47.2766 56.2142C47.1638 56.2051 47.0522 56.1663 46.9417 56.1241C46.9463 56.0911 46.9611 56.0569 46.9884 56.0215C47.0306 55.9714 47.0978 55.9509 47.1741 55.9509C47.3643 55.9509 47.6012 56.0865 47.6012 56.237Z" fill="#D18D58"/>
<path d="M43.5785 88.3939C43.4612 88.3939 43.3394 88.346 43.2334 88.232C42.8371 87.8113 43.0888 87.0292 43.656 86.9209C43.7038 86.9084 43.7482 86.9038 43.7904 86.9038C44.2505 86.9038 44.4134 87.5297 44.099 87.7976C44.1457 88.0975 43.8735 88.3939 43.5785 88.3939Z" fill="#D18D58"/>
<path d="M46.6718 93.4034C46.1217 93.4034 45.87 92.985 45.8791 92.5666C45.8883 92.1459 46.1593 91.7275 46.6513 91.7275C46.7948 91.7275 46.9566 91.7617 47.1365 91.8438C47.4178 92.0182 47.4178 92.3192 47.2789 92.5335C47.4076 92.8117 47.3711 93.1549 46.9896 93.3635C46.8746 93.3909 46.7698 93.4034 46.6718 93.4034Z" fill="#D18D58"/>
<path d="M45.2493 79.9083C45.0386 79.9083 44.8063 79.7806 44.6298 79.6518C44.1172 79.0681 44.484 78.7797 44.9225 78.7797C45.37 78.7797 45.8951 79.0818 45.6377 79.6803C45.5375 79.8456 45.3985 79.9083 45.2493 79.9083Z" fill="#DB9F60"/>
<path d="M40.688 92.3249C40.3816 92.3249 40.0684 92.0706 40.1812 91.691C40.2529 91.4493 40.4431 91.3444 40.6379 91.3444C40.942 91.3444 41.2574 91.6009 41.1435 91.9794C41.0707 92.22 40.8827 92.3249 40.688 92.3249Z" fill="#D18D58"/>
<path d="M38.9523 84.2474C38.9386 84.2315 38.9295 84.2155 38.9135 84.1973L38.9192 84.2019C38.9295 84.2167 38.9409 84.2315 38.9523 84.2474Z" fill="#D18D58"/>
<path d="M32.9729 93.2734C32.5834 93.2734 32.1609 92.8162 32.6165 92.3591C32.7303 92.2576 32.8784 92.2074 33.0276 92.2074C33.2132 92.2074 33.3989 92.2861 33.5059 92.448C33.5447 92.489 33.5788 92.578 33.5982 92.6361C33.687 92.9884 33.4182 93.2187 33.1381 93.2438C33.0845 93.2643 33.0299 93.2734 32.9729 93.2734ZM33.4239 92.8482C33.4182 92.8824 33.4091 92.9132 33.4 92.9428L33.4148 92.9086C33.4182 92.8892 33.4205 92.8687 33.4239 92.8482Z" fill="#D18D58"/>
<path d="M34.1073 72.9368C33.8032 72.9368 33.4878 72.6825 33.6005 72.3029C33.6734 72.0612 33.8625 71.9575 34.0572 71.9575C34.3624 71.9575 34.6768 72.2128 34.5629 72.5913C34.4923 72.833 34.3009 72.9368 34.1073 72.9368Z" fill="#DB9F60"/>
<path d="M57.02 92.8653C56.815 92.8653 56.618 92.7524 56.5587 92.4936C56.4471 92.0581 56.8344 91.6659 57.2398 91.6659C57.3491 91.6659 57.4619 91.6967 57.5655 91.7617C57.9699 92.0102 57.7899 92.5324 57.4539 92.6646C57.3514 92.7923 57.1829 92.8653 57.02 92.8653Z" fill="#D18D58"/>
<path d="M41.0308 96.5101C40.9579 96.5021 40.885 96.4919 40.8121 96.4804C40.8405 96.4611 40.8713 96.4508 40.9043 96.4508C40.9442 96.4508 40.9886 96.469 41.0308 96.5101Z" fill="#D18D58"/>
<path d="M40.7779 97.1964C40.615 97.1964 40.5786 97.0094 40.6185 96.8236C40.6481 96.6822 40.7221 96.5409 40.8121 96.4804C40.885 96.4918 40.9579 96.5021 41.0307 96.5101C41.0456 96.5238 41.0592 96.5409 41.074 96.5602C41.1264 96.7164 41.0194 97.0721 40.8895 97.1736C40.8485 97.1896 40.8109 97.1964 40.7779 97.1964Z" fill="#C77A43"/>
<path d="M51.9006 93.0648C51.7776 93.0648 51.6534 92.9633 51.6978 92.8117C51.7275 92.7148 51.8038 92.6737 51.8812 92.6737C52.0031 92.6737 52.1284 92.7763 52.0828 92.9268C52.0532 93.0237 51.9769 93.0648 51.9006 93.0648Z" fill="#D18D58"/>
<path d="M34.5173 80.6619C34.3579 80.5947 34.2007 80.5274 34.0447 80.4567C34.1096 80.3917 34.2087 80.3404 34.3157 80.3404C34.367 80.3404 34.4194 80.353 34.4695 80.3792C34.5948 80.4784 34.5857 80.5833 34.5173 80.6619Z" fill="#DB9F60"/>
<path d="M34.2394 80.7816C34.2303 80.7816 34.2223 80.7816 34.2144 80.7805C33.9148 80.7611 33.9205 80.581 34.0447 80.4567C34.2007 80.5274 34.3579 80.5947 34.5173 80.6619C34.4547 80.7326 34.3453 80.7816 34.2394 80.7816Z" fill="#D18D58"/>
<path d="M61.1053 82.7836C60.849 82.7597 60.5802 82.2831 60.9709 82.2444C61.2294 82.2683 61.4971 82.7437 61.1053 82.7836Z" fill="#D18D58"/>
<path d="M26.9743 88.6743C26.8535 88.6743 26.7271 88.5717 26.7715 88.4201C26.8012 88.3244 26.8775 88.2822 26.9549 88.2822C27.0768 88.2822 27.2032 88.3836 27.1576 88.5353C27.1292 88.6322 27.0529 88.6743 26.9743 88.6743Z" fill="#D18D58"/>
<path d="M46.9531 66.9149C46.7174 66.9149 46.6274 66.4532 46.821 66.3392C46.8563 66.3232 46.8871 66.3141 46.9167 66.3141C47.1604 66.3141 47.2641 66.842 46.9998 66.9081C46.9839 66.9138 46.9691 66.9149 46.9531 66.9149Z" fill="#DB9F60"/>
<path d="M72.335 60.3367C72.294 60.3367 72.2439 60.323 72.1881 60.2865C72.0275 60.1691 72.0036 59.8522 72.2496 59.8282C72.2564 59.8271 72.2655 59.8271 72.2723 59.8271C72.4295 59.8271 72.5058 59.9536 72.5138 60.0813C72.5218 60.2102 72.4591 60.3367 72.335 60.3367Z" fill="#DB9F60"/>
<path d="M89.0087 50.6552C88.9893 50.6552 88.9688 50.6529 88.946 50.6495C88.7422 50.5572 88.4768 50.0418 88.8413 49.986C88.8458 49.986 88.8504 49.9848 88.8561 49.9848C88.9996 49.9848 89.1306 50.1524 89.1807 50.32C89.2296 50.4865 89.1955 50.6552 89.0087 50.6552Z" fill="#D18D58"/>
<path d="M62.7681 72.2653C62.4982 72.2653 62.2294 72.0897 62.2397 71.7374C62.2454 71.278 62.6816 70.9326 63.1166 70.9326C63.2579 70.9326 63.4002 70.969 63.5278 71.0534C64.0426 71.3567 63.71 72.051 63.2476 72.051C63.2362 72.051 63.2282 72.0498 63.2169 72.0498C63.1166 72.1923 62.9424 72.2653 62.7681 72.2653Z" fill="#DB9F60"/>
<path d="M61.5472 78.4536C61.4766 78.4536 61.3991 78.4433 61.3171 78.4205C60.2408 77.7878 60.9732 76.7013 61.726 76.7013C62.0403 76.7013 62.3558 76.8871 62.5494 77.3717C62.6348 77.7125 62.4128 77.9428 62.1508 78.0044C62.0608 78.2529 61.8592 78.4536 61.5472 78.4536Z" fill="#DB9F60"/>
<path d="M70.2291 67.0232C69.8772 67.0232 69.7132 66.6504 69.6437 66.321C69.7268 66.2811 69.8054 66.2172 69.8658 66.1169C69.925 66.0223 69.9501 65.9288 69.9512 65.8387C69.9512 65.7555 69.9284 65.6768 69.892 65.6061C69.9387 65.581 69.9911 65.5708 70.0446 65.5708C70.5605 65.5708 71.2655 66.6322 70.3738 67.0039C70.3214 67.0175 70.2735 67.0232 70.2291 67.0232Z" fill="#DB9F60"/>
<path d="M61.9139 65.5526C61.9173 65.5275 61.923 65.5035 61.9242 65.4773V65.483C61.9207 65.5069 61.9185 65.5297 61.9139 65.5526Z" fill="#DB9F60"/>
<path d="M51.2787 68.063C51.3084 68.047 51.338 68.0288 51.3676 68.0083C51.3494 68.0208 51.3323 68.0345 51.3141 68.0482L51.2787 68.063ZM51.3676 68.0083C51.3858 67.9946 51.4029 67.9809 51.4211 67.9672C51.4029 67.9832 51.3858 67.9957 51.3676 68.0083Z" fill="#DB9F60"/>
<path d="M74.8634 52.6184C74.393 52.6184 74.0923 51.9002 74.6014 51.6163C74.6903 51.565 74.778 51.5433 74.86 51.5433C75.3303 51.5433 75.631 52.2616 75.1231 52.5454C75.0331 52.5956 74.9454 52.6184 74.8634 52.6184Z" fill="#DB9F60"/>
<path d="M66.9058 53.4985C66.4366 53.4985 66.1359 52.7826 66.6461 52.4964C66.7361 52.4451 66.8215 52.4246 66.9046 52.4246C67.375 52.4246 67.6757 53.1417 67.1666 53.4279C67.0778 53.4769 66.9901 53.4985 66.9058 53.4985Z" fill="#DB9F60"/>
<path d="M83.1239 70.1174C83.0009 70.1174 82.8813 70.1037 82.7743 70.0741C82.0226 69.4322 82.9451 69.0366 83.5453 68.9237C83.6843 68.8633 83.8187 68.7938 83.9485 68.7128C84.0294 68.6638 84.1137 68.6421 84.1979 68.6421C84.5259 68.6421 84.8323 68.9762 84.7207 69.3228C84.4462 69.797 83.723 70.1174 83.1239 70.1174Z" fill="#D18D58"/>
<path d="M50.4257 82.9044C49.9553 82.9044 49.6547 82.1862 50.1638 81.9023C50.2526 81.851 50.3403 81.8294 50.4223 81.8294C50.8927 81.8294 51.1933 82.5465 50.6842 82.8326C50.5943 82.8816 50.5077 82.9044 50.4257 82.9044Z" fill="#DB9F60"/>
<path d="M61.1075 88.3084C61.0552 88.3084 61.0005 88.289 60.9492 88.2434C60.7795 88.069 60.9902 87.8387 61.1873 87.833C61.5597 87.8831 61.3524 88.3084 61.1075 88.3084Z" fill="#D18D58"/>
<path d="M53.8891 76.8199C53.8811 76.8199 53.872 76.8176 53.8629 76.8176C53.4267 76.6158 54.0121 76.2202 54.2809 76.2202C54.29 76.2202 54.2991 76.2202 54.3082 76.2214C54.7433 76.4231 54.159 76.8199 53.8891 76.8199Z" fill="#DB9F60"/>
<path d="M65.4126 81.8795C65.2247 81.8795 65.104 81.5934 65.3079 81.4782C65.3443 81.4577 65.3796 81.4509 65.4126 81.4509C65.6006 81.4509 65.7202 81.737 65.5163 81.851C65.481 81.8704 65.4468 81.8795 65.4126 81.8795Z" fill="#D18D58"/>
<path d="M77.6446 64.8616C77.6777 64.71 77.7471 64.6029 77.8382 64.5345C77.7722 64.6439 77.7095 64.7533 77.6446 64.8616Z" fill="#DB9F60"/>
<path d="M78.8075 65.4579C78.7414 65.4579 78.6765 65.426 78.6366 65.3496C78.5478 65.1695 78.4681 64.9551 78.2801 64.8617L78.2744 64.8605C78.2369 65.0304 78.0296 65.1661 77.8587 65.1661C77.7437 65.1661 77.6469 65.1045 77.6287 64.9494C77.6332 64.9187 77.6378 64.889 77.6446 64.8617C77.7096 64.7534 77.7722 64.6439 77.8382 64.5345C77.9248 64.4672 78.0319 64.4376 78.1458 64.4376C78.5045 64.4376 78.9293 64.7363 79.0079 65.141C79.099 65.3074 78.9498 65.4579 78.8075 65.4579ZM78.2756 64.8594H78.2744L78.2779 64.8605L78.2756 64.8594Z" fill="#D18D58"/>
<path d="M61.119 59.5364C61.0302 59.5364 60.9334 59.4976 60.8639 59.4041C60.6418 59.2069 60.8047 59.0222 61.0006 59.0222C61.0894 59.0222 61.1862 59.0609 61.2545 59.1556C61.4766 59.3528 61.3138 59.5364 61.119 59.5364Z" fill="#DB9F60"/>
<path d="M80.0215 80.8592C79.9737 80.8592 79.9213 80.8398 79.8632 80.7919C79.7368 80.6311 79.7607 80.2173 79.9954 80.2173C80.0238 80.2173 80.0557 80.223 80.0899 80.2367C80.3313 80.3461 80.255 80.8592 80.0215 80.8592Z" fill="#D18D58"/>
<path d="M49.6706 60.1247C49.4827 60.1247 49.3631 59.8385 49.567 59.7245C49.6034 59.704 49.6364 59.696 49.6695 59.696C49.8585 59.696 49.9781 59.9833 49.7754 60.0962C49.7389 60.1178 49.7036 60.1247 49.6706 60.1247Z" fill="#DB9F60"/>
<path d="M80.8108 58.2766C80.6104 58.1375 80.8028 57.7738 81.0135 57.7202C80.9463 57.9083 80.8803 58.0919 80.8108 58.2766Z" fill="#DB9F60"/>
<path d="M80.9213 58.3119C80.8894 58.3119 80.8564 58.3028 80.8245 58.2846C80.8188 58.2823 80.8142 58.2789 80.8108 58.2766C80.8803 58.0919 80.9464 57.9083 81.0136 57.7202C81.0306 57.7179 81.0466 57.7145 81.0637 57.7145C81.0785 57.7145 81.0921 57.7157 81.1081 57.7202C81.4213 57.8137 81.1764 58.3119 80.9213 58.3119Z" fill="#D18D58"/>
<path d="M77.8542 35.3155C77.8473 35.3155 77.8394 35.3155 77.8325 35.3155C77.6298 35.2904 77.451 35.0202 77.6583 34.8766C77.7061 34.8458 77.7517 34.831 77.7972 34.831C77.9293 34.831 78.0375 34.953 78.066 35.0738C78.0945 35.1958 78.0421 35.3155 77.8542 35.3155Z" fill="#DB9F60"/>
<path d="M75.098 50.7589C74.9272 50.7589 74.7598 50.6757 74.6538 50.4751C74.3668 49.9426 74.811 49.221 75.4078 49.221C75.426 49.221 75.4442 49.2221 75.4613 49.2233C76.0843 49.2369 76.1207 50.0544 75.68 50.2653C75.6515 50.5457 75.3725 50.7589 75.098 50.7589Z" fill="#DB9F60"/>
<path d="M77.082 56.8982C75.6606 56.7774 76.1105 55.0536 77.0489 55.0536C77.2562 55.0536 77.4886 55.1391 77.7289 55.3432C77.976 55.6031 77.8906 55.9189 77.6867 56.1048C77.746 56.4536 77.5911 56.8253 77.082 56.8982Z" fill="#DB9F60"/>
<path d="M79.2129 42.3555C78.9441 42.3555 78.6821 42.1149 78.5045 41.8949C78.1992 41.2758 78.4578 41.0307 78.8131 41.0307C79.3336 41.0307 80.0648 41.5551 79.5523 42.2073C79.4407 42.3121 79.3268 42.3555 79.2129 42.3555Z" fill="#DB9F60"/>
<path d="M70.9945 54.0652C70.6198 54.0652 70.2417 53.6604 70.4991 53.2409C70.6084 53.0619 70.7679 52.9878 70.9284 52.9878C71.3031 52.9878 71.6824 53.3937 71.4261 53.8109C71.3157 53.9899 71.1551 54.0652 70.9945 54.0652Z" fill="#DB9F60"/>
<path d="M71.2894 45.1144C71.2792 45.0939 71.2724 45.0734 71.2621 45.0506L71.2667 45.0574C71.2746 45.0757 71.2815 45.0962 71.2894 45.1144Z" fill="#DB9F60"/>
<path d="M62.808 52.908C62.7726 52.908 62.7362 52.9046 62.7009 52.8989C62.6827 52.9 62.6656 52.9011 62.6485 52.9011C62.1872 52.9011 61.7351 52.2148 62.4048 51.8272C62.4936 51.7816 62.595 51.7588 62.6952 51.7588C62.9583 51.7588 63.2202 51.9093 63.3068 52.1692C63.3364 52.2228 63.3489 52.3254 63.3512 52.3904C63.3467 52.7381 63.0767 52.908 62.808 52.908ZM63.112 52.5637C63.095 52.5956 63.0767 52.6275 63.0585 52.6549L63.0836 52.6264C63.0927 52.6047 63.1029 52.5842 63.112 52.5637Z" fill="#DB9F60"/>
<path d="M76.1686 27.2073C75.795 27.2073 75.418 26.8026 75.6766 26.3853C75.7859 26.2052 75.9453 26.1322 76.1059 26.1322C76.1458 26.1322 76.1879 26.1368 76.2266 26.1459C75.9362 26.4036 76.0433 27.0146 76.5341 27.0192C76.5376 27.0192 76.5398 27.0192 76.541 27.0192C76.5433 27.0192 76.5478 27.0192 76.5512 27.0192H76.5535C76.4487 27.1503 76.3086 27.2073 76.1686 27.2073Z" fill="#DB9F60"/>
<path d="M69.5185 31.9557C69.1415 31.9546 68.7656 31.5487 69.0208 31.1326C69.1312 30.9525 69.2918 30.8784 69.4524 30.8784C69.8282 30.8784 70.2052 31.2842 69.9478 31.7026C69.8385 31.8816 69.6779 31.9557 69.5185 31.9557Z" fill="#DB9F60"/>
<path d="M87.9609 59.1886C87.6306 59.1886 87.2878 58.9321 87.4233 58.4909C87.5099 58.1569 87.8345 57.9562 88.1523 57.9562C88.3368 57.9562 88.5201 58.0235 88.6568 58.1706C89.0087 58.5399 88.683 59.0302 88.2969 59.0815C88.2012 59.1556 88.0828 59.1886 87.9609 59.1886Z" fill="#D18D58"/>
<path d="M69.4353 66.3666C69.0595 66.3666 68.6836 65.963 68.941 65.5457C69.0504 65.3667 69.2098 65.2926 69.3704 65.2926C69.5811 65.2926 69.7918 65.4203 69.892 65.6061C69.9285 65.6768 69.9512 65.7555 69.9512 65.8387C69.9501 65.9288 69.925 66.0223 69.8658 66.1169C69.8055 66.2172 69.7269 66.2811 69.6437 66.321C69.5765 66.3529 69.5048 66.3666 69.4353 66.3666Z" fill="#DB9F60"/>
<path d="M81.7675 65.8376C81.747 65.8376 81.7265 65.8341 81.7048 65.8284C81.4463 65.7521 81.5511 65.3861 81.7652 65.3257C81.7846 65.3223 81.8039 65.3211 81.8221 65.3211C81.9793 65.3211 82.0362 65.4488 82.018 65.5776C81.9998 65.7087 81.9064 65.8376 81.7675 65.8376Z" fill="#D18D58"/>
<path d="M69.6722 59.175C69.2269 59.175 69.5788 58.5183 69.8123 58.4191C69.826 58.4191 69.8396 58.418 69.8533 58.418C70.2986 58.418 69.9467 59.0758 69.7121 59.1727C69.6984 59.1727 69.6848 59.175 69.6722 59.175Z" fill="#DB9F60"/>
<path d="M82.428 57.9585C82.2777 57.9585 82.1262 57.7966 82.2287 57.6302C82.2731 57.5583 82.3369 57.5287 82.4007 57.5287C82.551 57.5287 82.7014 57.6906 82.5989 57.857C82.5556 57.9289 82.4918 57.9585 82.428 57.9585Z" fill="#D18D58"/>
<path d="M85.1899 36.8763C85.1227 36.8763 85.0555 36.8432 84.9997 36.7623C84.7833 36.2344 85.1842 35.9494 85.6239 35.9494C85.8824 35.9494 86.1523 36.0463 86.322 36.247C86.5213 36.3724 86.3938 36.654 86.2081 36.654C86.1717 36.654 86.133 36.6437 86.0942 36.6186C85.9325 36.5069 85.7617 36.361 85.5555 36.361C85.5498 36.361 85.5441 36.361 85.5373 36.361L85.5305 36.3621C85.5931 36.5764 85.3915 36.8763 85.1899 36.8763ZM85.5293 36.361H85.5362H85.5293Z" fill="#D18D58"/>
<path d="M67.4662 40.1836C67.4092 40.1836 67.3511 40.1757 67.301 40.1665C66.85 40.0001 67.1689 39.7242 67.4479 39.7242C67.5869 39.7242 67.7156 39.7914 67.7384 39.9727C67.7327 40.1392 67.6028 40.1836 67.4662 40.1836Z" fill="#DB9F60"/>
<path d="M62.2431 59.476C62.0927 59.476 61.9401 59.3129 62.0438 59.1465C62.0882 59.0735 62.1519 59.045 62.2157 59.045C62.3661 59.045 62.5187 59.2069 62.415 59.3745C62.3706 59.4452 62.3068 59.476 62.2431 59.476Z" fill="#DB9F60"/>
<path d="M57.5884 46.4061C57.438 46.4061 57.2877 46.2442 57.3902 46.0767C57.4346 46.0048 57.4984 45.9752 57.5622 45.9752C57.7125 45.9752 57.8628 46.1371 57.7603 46.3047C57.7171 46.3776 57.6521 46.4061 57.5884 46.4061Z" fill="#DB9F60"/>
<path d="M84.5384 29.2332C84.5362 29.2332 84.5362 29.2332 84.535 29.2332C84.2697 29.2264 84.2583 28.7863 84.4257 28.6336C84.5157 28.8114 84.6011 28.9881 84.6877 29.166C84.6489 29.207 84.5988 29.2332 84.5384 29.2332Z" fill="#C77A43"/>
<path d="M67.4923 10.2442C67.2816 10.2442 67.1154 10.1028 67.0345 9.91927C66.7167 9.87138 66.4377 9.63995 66.4753 9.18392C66.6518 8.68685 66.9707 8.49646 67.2873 8.49646C68.0242 8.49646 68.7577 9.53278 67.7201 10.1906C67.6404 10.2282 67.5641 10.2442 67.4923 10.2442Z" fill="#DB9F60"/>
<path d="M61.5324 19.4366C61.1998 19.4366 60.972 19.0786 61.0313 18.7719C60.9219 18.4538 61.1748 18.0377 61.5256 18.0377C61.6269 18.0377 61.734 18.0708 61.8445 18.1494C62.2841 18.4367 62.2408 19.1653 61.759 19.3841C61.6782 19.4206 61.603 19.4366 61.5324 19.4366Z" fill="#DB9F60"/>
<path d="M79.6639 30.3186C79.6446 30.3186 79.6252 30.3174 79.6047 30.314C78.9885 30.0951 78.4715 29.199 78.5182 28.5549C78.6685 28.2927 78.8257 28.1901 78.9771 28.1901C79.3143 28.1901 79.6252 28.7054 79.7767 29.0953C79.8621 29.2196 79.9543 29.3381 80.0568 29.4499C80.3484 29.7736 80.0808 30.3186 79.6639 30.3186Z" fill="#DB9F60"/>
<path d="M57.1191 11.0171C56.9471 11.0171 56.7307 10.8313 56.8594 10.6238C56.9027 10.5611 56.9608 10.5349 57.02 10.5349C57.1442 10.5349 57.274 10.6512 57.3013 10.78C57.3104 10.951 57.2216 11.0171 57.1191 11.0171Z" fill="#DB9F60"/>
<path d="M64.0608 13.9768C64.0072 13.9768 63.9537 13.9551 63.9093 13.9027C63.7795 13.7465 63.9275 13.555 64.0824 13.555C64.1359 13.555 64.1895 13.5778 64.2339 13.6313C64.3637 13.7864 64.2157 13.9768 64.0608 13.9768Z" fill="#DB9F60"/>
<path d="M67.7987 28.0065C67.613 28.0065 67.4513 27.9039 67.5675 27.6827C67.6335 27.5984 67.7668 27.5539 67.8875 27.5539C68.072 27.5539 68.2326 27.6565 68.1176 27.8765C68.0492 27.9621 67.9183 28.0065 67.7987 28.0065Z" fill="#DB9F60"/>
<path d="M62.0689 11.7799C62.0279 11.7799 61.9903 11.7742 61.9515 11.7628C61.9151 11.7742 61.8764 11.7787 61.8399 11.7787C61.5472 11.7787 61.2454 11.5097 61.3992 11.1597C61.496 10.9282 61.7249 10.8119 61.9527 10.8119C62.1873 10.8119 62.4231 10.9339 62.5142 11.1756C62.652 11.5222 62.3559 11.7799 62.0689 11.7799Z" fill="#DB9F60"/>
<path d="M54.9312 14.9641C54.8948 14.9641 54.8561 14.9515 54.8185 14.9242C54.6499 14.7919 54.8242 14.5548 55.0007 14.5548C55.0076 14.5548 55.0133 14.5548 55.0212 14.5571C55.3037 14.6175 55.134 14.9641 54.9312 14.9641Z" fill="#DB9F60"/>
<path d="M57.8514 9.10867C57.7022 9.10867 57.5883 8.89662 57.7398 8.78375C57.774 8.75753 57.8093 8.74727 57.8423 8.74727C57.9904 8.74727 58.1054 8.95932 57.9539 9.07219C57.9198 9.09841 57.8833 9.10867 57.8514 9.10867Z" fill="#DB9F60"/>
<path d="M10.8928 26.0638C10.7414 26.0627 10.591 25.9897 10.4965 25.8119C10.2516 25.3821 10.6241 24.8383 11.0819 24.8383C11.14 24.8383 11.1992 24.8462 11.2584 24.8656C11.7049 24.9944 11.6684 25.5326 11.386 25.7435C11.304 25.9316 11.0978 26.0638 10.8928 26.0638Z" fill="#D6925B"/>
<path d="M9.25506 34.009C9.06031 34.009 8.99767 33.7149 9.1275 33.5826C9.1742 33.5404 9.22203 33.5245 9.26417 33.5245C9.46804 33.5245 9.56485 33.9303 9.30745 34.0022C9.28923 34.0067 9.27101 34.009 9.25506 34.009Z" fill="#D6925B"/>
<path d="M6.27112 27.5459C6.30529 27.4616 6.34173 27.3783 6.3759 27.2928C6.38615 27.3168 6.3907 27.3441 6.3907 27.3738C6.38729 27.4638 6.3349 27.5208 6.27112 27.5459Z" fill="#D6925B"/>
<path d="M6.19366 27.5596C6.09458 27.5596 5.99321 27.4946 5.99777 27.3647C6.00005 27.2404 6.09571 27.18 6.19252 27.18C6.26883 27.18 6.34514 27.2187 6.37589 27.2928C6.34172 27.3783 6.30528 27.4616 6.27111 27.5459C6.24605 27.555 6.221 27.5596 6.19366 27.5596Z" fill="#CC7E45"/>
<path d="M12.3723 15.4429C12.3939 15.4121 12.4144 15.3814 12.4349 15.3529C12.4281 15.3848 12.4065 15.4144 12.3723 15.4429Z" fill="#CC7E45"/>
<path d="M3.84979 58.0246C3.3965 58.0246 3.11063 57.6131 3.08899 57.2004C3.07077 56.7877 3.3145 56.3772 3.91698 56.3772C3.9557 56.3772 3.99557 56.3784 4.03657 56.3807C4.35432 56.4445 4.45797 56.7192 4.40444 56.9621C4.63108 57.1878 4.71308 57.5401 4.37824 57.8605C4.18463 57.9767 4.00809 58.0246 3.84979 58.0246Z" fill="#D6925B"/>
<path d="M4.37941 50.043C3.27238 50.043 2.93754 48.6772 3.70289 48.3169C3.75756 48.2474 3.82475 48.1881 3.92042 48.1539C3.95687 48.1482 3.99445 48.1447 4.03545 48.1447C4.19376 48.1447 4.36232 48.1961 4.52405 48.2827C4.63452 48.3078 4.75069 48.3431 4.87711 48.391C5.10034 48.5198 5.16867 48.7034 5.14362 48.8733C5.34862 49.2221 5.37823 49.6246 5.03314 49.9039C4.79169 50.0008 4.5753 50.043 4.37941 50.043Z" fill="#D6925B"/>
<path d="M13.2287 53.9363C13.0499 53.9363 12.8745 53.8394 12.7937 53.5989C12.6331 53.1805 12.9793 52.705 13.411 52.705C13.4497 52.705 13.4907 52.7073 13.5305 52.7165C13.9816 52.8031 13.9998 53.3332 13.7447 53.5738C13.6786 53.7858 13.4508 53.9363 13.2287 53.9363Z" fill="#E0A564"/>
<path d="M5.57409 36.7554C5.09574 36.7554 5.13902 36.0315 5.25861 35.5755C5.26089 35.4352 5.25861 35.295 5.24152 35.1548C5.21419 34.8926 5.43514 34.6475 5.69709 34.6326C6.55697 34.6874 6.30755 36.2162 5.9112 36.6688C5.77909 36.7281 5.66748 36.7554 5.57409 36.7554Z" fill="#D6925B"/>
<path d="M12.3768 61.9944C12.1957 61.9944 12.1149 61.7196 12.2276 61.5817C12.2766 61.5304 12.3267 61.5098 12.3723 61.5098C12.567 61.5098 12.69 61.8883 12.4452 61.983C12.4224 61.9909 12.3996 61.9944 12.3768 61.9944Z" fill="#D6925B"/>
<path d="M8.72657 55.8699C8.63432 55.8699 8.54207 55.814 8.53409 55.6943C8.52612 55.5621 8.62976 55.4914 8.73226 55.4914C8.82566 55.4914 8.91677 55.5484 8.92588 55.6681C8.93499 55.8004 8.83135 55.8699 8.72657 55.8699Z" fill="#D6925B"/>
<path d="M13.6126 43.3097C13.3677 43.3097 13.0556 43.011 13.37 42.8537C13.3905 42.848 13.4121 42.8468 13.4372 42.8468C13.6786 42.8468 13.9918 43.1444 13.6786 43.3006C13.657 43.3074 13.6342 43.3097 13.6126 43.3097Z" fill="#E0A564"/>
<path d="M4.40214 64.2437C4.36797 64.2437 4.32925 64.2357 4.28369 64.2186C4.2723 64.2141 4.26091 64.2072 4.25066 64.2004C4.21649 64.0921 4.18233 63.9815 4.1493 63.8721C4.1436 63.8561 4.13905 63.8401 4.13449 63.8219C4.15841 63.7866 4.19713 63.7569 4.2518 63.7387C4.27799 63.7307 4.30533 63.7284 4.32925 63.7284C4.47503 63.7284 4.56386 63.8561 4.58208 63.9861C4.60031 64.1138 4.5445 64.2437 4.40214 64.2437Z" fill="#D6925B"/>
<path d="M4.25068 64.2004C4.1254 64.1183 4.06048 63.9371 4.13451 63.8219C4.13906 63.8401 4.14362 63.8561 4.14931 63.8721C4.18234 63.9815 4.21651 64.0921 4.25068 64.2004Z" fill="#CC7E45"/>
<path d="M19.3857 51.0189C19.1602 50.9653 18.7866 50.4944 19.1454 50.3633C19.1636 50.3588 19.1807 50.3576 19.1989 50.3576C19.4996 50.3576 19.8538 51.004 19.3857 51.0189Z" fill="#E0A564"/>
<path d="M5.36223 55.8824C4.92147 55.8824 4.55588 55.2748 4.98525 54.9065C5.09687 54.8119 5.21417 54.7709 5.32693 54.7709C5.76769 54.7709 6.13442 55.3808 5.70505 55.749C5.59343 55.8425 5.47499 55.8824 5.36223 55.8824Z" fill="#D6925B"/>
<path d="M17.101 72.0361C17.0783 72.0361 17.0555 72.0338 17.0338 72.0327C16.1386 71.5311 16.9997 70.9428 17.5851 70.7068C17.7138 70.6167 17.8379 70.5198 17.9529 70.4104C18.0509 70.3215 18.1773 70.2781 18.306 70.2781C18.4666 70.2781 18.6272 70.3454 18.7331 70.472C19.2433 71.2632 17.8072 72.0361 17.101 72.0361Z" fill="#D6925B"/>
<path d="M12.0237 68.1439C11.9691 68.1439 11.9133 68.12 11.8666 68.063C11.7413 67.9011 11.6183 67.6981 11.4099 67.64L11.4007 67.6389C11.3962 67.8395 11.1695 68.0413 10.9828 68.0413C10.8894 68.0413 10.804 67.9889 10.7618 67.86C10.7299 67.412 11.0067 67.2216 11.3313 67.2216C11.6695 67.2216 12.0625 67.4314 12.2025 67.7757C12.3415 67.941 12.1866 68.1439 12.0237 68.1439ZM11.4007 67.6366V67.6389L11.4076 67.64L11.4007 67.6366Z" fill="#D6925B"/>
<path d="M16.3847 83.5657C16.3448 83.5657 16.2947 83.5531 16.2389 83.5281C16.117 83.4118 16.051 83.1621 16.1284 83.0071C16.1956 82.9341 16.2594 82.9044 16.3163 82.9044C16.4507 82.9044 16.5453 83.0698 16.5692 83.2351C16.592 83.4004 16.5418 83.5657 16.3847 83.5657Z" fill="#D6925B"/>
<path d="M12.731 60.4439C12.7105 60.4439 12.6889 60.4404 12.6661 60.4336C12.3802 60.3333 12.575 59.7997 12.8312 59.7997C12.8335 59.7997 12.8369 59.7997 12.8392 59.7997C13.1957 59.8351 13.0135 60.4439 12.731 60.4439Z" fill="#D6925B"/>
<path d="M33.0948 88.9651C33.0163 88.9651 32.9502 88.9115 32.9513 88.769C32.973 88.6629 33.0652 88.5535 33.1711 88.5535C33.2008 88.5535 33.2304 88.5603 33.26 88.5797C33.4695 88.7382 33.2554 88.9651 33.0948 88.9651Z" fill="#D6925B"/>
<path d="M21.2774 87.1911C21.1066 87.1911 20.9358 87.1067 20.8617 86.946C20.5508 86.9027 20.3116 86.5048 20.5679 86.2278C20.6795 86.0978 20.8287 86.0431 20.9802 86.0431C21.3515 86.0431 21.7478 86.3771 21.7079 86.7773C21.6988 87.0589 21.4904 87.1911 21.2774 87.1911Z" fill="#D6925B"/>
<path d="M27.726 90.2727C27.6144 90.2727 27.4936 90.2306 27.3672 90.1291C27.0825 89.8247 27.3706 89.4838 27.6246 89.282C27.7795 89.2056 27.9059 89.1749 28.005 89.1749C28.2977 89.1749 28.3683 89.4485 28.2954 89.7232C28.2237 89.998 28.0084 90.2727 27.726 90.2727Z" fill="#D6925B"/>
<path d="M18.2422 83.5509C18.1693 83.5509 18.0919 83.5281 18.0144 83.4813C17.609 83.2271 17.8732 82.6616 18.2502 82.6616C18.3242 82.6616 18.4028 82.6821 18.4803 82.7312C18.8846 82.9831 18.6215 83.5509 18.2422 83.5509Z" fill="#D6925B"/>
<path d="M24.7614 83.479C24.5518 83.479 24.4334 83.3479 24.4083 83.1781C24.2853 83.1564 24.1634 83.0937 24.0701 82.9877C23.9881 83.0082 23.9129 83.0162 23.8491 83.0162C23.3685 83.0162 23.3582 82.5328 23.6897 82.2341L23.684 82.2204C23.7022 82.2101 23.7227 82.1999 23.7432 82.1896C23.8844 82.0836 24.0769 82.0106 24.3115 82.0106C24.3229 82.0106 24.332 82.0106 24.3434 82.0106C24.4869 81.9707 24.6304 81.9513 24.7659 81.9513C25.8023 81.9513 26.4766 83.0219 25.1053 83.3981L25.0689 83.4163L25.0882 83.4038C25.0734 83.4083 25.0598 83.4118 25.045 83.4152C24.9368 83.4597 24.8411 83.479 24.7614 83.479ZM25.1053 83.3913C25.0871 83.4004 25.0712 83.4049 25.0529 83.4118C25.0689 83.4061 25.0848 83.4004 25.1008 83.3947L25.1053 83.3913Z" fill="#D6925B"/>
<path d="M19.2035 76.9385C18.88 76.9339 18.749 76.6432 18.798 76.3981C18.7866 76.1518 19.0247 75.8976 19.2764 75.8976C19.4142 75.8976 19.5577 75.9751 19.6625 76.1735C19.7991 76.4391 19.6727 76.8085 19.3834 76.9043C19.3401 76.9282 19.257 76.9362 19.2035 76.9385ZM18.9985 76.707L19.0156 76.7207L19.052 76.7378C19.0315 76.7264 19.0156 76.7184 18.9985 76.707Z" fill="#D6925B"/>
<path d="M39.9545 87.8809C39.8816 87.8809 39.8053 87.8603 39.7256 87.8113C39.3224 87.5594 39.5844 86.9939 39.9636 86.9939C40.0365 86.9939 40.114 87.0144 40.1937 87.0623C40.5969 87.3154 40.3349 87.8809 39.9545 87.8809Z" fill="#D6925B"/>
<path d="M36.1448 82.4598C36.0719 82.4598 35.9956 82.4393 35.9182 82.3903C35.5127 82.1383 35.777 81.5728 36.154 81.5728C36.228 81.5728 36.3066 81.5934 36.384 81.6424C36.7872 81.8943 36.5252 82.4598 36.1448 82.4598Z" fill="#D6925B"/>
<path d="M14.141 82.3549C13.977 82.3549 13.7333 82.1873 13.682 82.0642C13.6718 81.9137 13.7401 81.8601 13.8335 81.8601C13.9975 81.8601 14.2412 82.0254 14.2913 82.1508C14.3027 82.299 14.2344 82.3549 14.141 82.3549Z" fill="#CC7E45"/>
<path d="M32.2076 95.5992C32.0903 95.557 31.973 95.5148 31.8557 95.4715L31.8579 95.4624C31.9513 95.3278 32.0766 95.1853 32.0698 95.0109L32.0675 95.0063C32.047 95.012 32.0242 95.0155 32.0014 95.0155C31.7759 95.0155 31.5094 94.743 31.7463 94.5731C31.8283 94.54 31.9024 94.5264 31.9696 94.5264C32.4365 94.5264 32.5379 95.248 32.2076 95.5992ZM32.0698 95.0063V95.0075V95.0063Z" fill="#CC7E45"/>
<path d="M29.2567 80.557C29.1303 80.557 28.9947 80.3837 29.0779 80.2025C29.1063 80.0793 29.1701 80.0326 29.2373 80.0326C29.3626 80.0326 29.4981 80.2047 29.415 80.3872C29.3877 80.5069 29.3227 80.557 29.2567 80.557Z" fill="#D6925B"/>
<path d="M13.6479 76.1723C13.6183 76.1723 13.5864 76.1643 13.5556 76.145C13.395 76.0435 13.4987 75.8166 13.6513 75.8166C13.6809 75.8166 13.7116 75.8257 13.7435 75.8451C13.9041 75.9466 13.7982 76.1723 13.6479 76.1723Z" fill="#D6925B"/>
<path d="M24.25 72.4614C24.2193 72.4614 24.1885 72.4534 24.1566 72.434C23.996 72.3337 24.1008 72.1068 24.2523 72.1068C24.2819 72.1068 24.3115 72.1148 24.3434 72.1342C24.5051 72.2356 24.3992 72.4614 24.25 72.4614Z" fill="#E0A564"/>
<path d="M38.1243 94.4374C37.9865 94.4374 37.8418 94.3667 37.843 94.2345C37.8475 94.1125 37.9637 94.0578 38.0856 94.0578C38.2097 94.0578 38.3384 94.1137 38.3657 94.2151C38.3988 94.3656 38.2644 94.4374 38.1243 94.4374Z" fill="#D6925B"/>
<path d="M53.8231 89.1874C53.8094 89.1874 53.7946 89.1874 53.7798 89.1862C53.6386 89.1475 53.4985 88.9788 53.6056 88.8397C53.6568 88.7815 53.7103 88.7576 53.7616 88.7576C53.8709 88.7576 53.9689 88.8659 53.9962 88.9731C54.0258 89.0802 53.9859 89.1874 53.8231 89.1874Z" fill="#D6925B"/>
<path d="M63.9389 75.2568C63.7396 75.2546 63.3364 74.9319 63.6132 74.7541C63.6405 74.7404 63.6701 74.7336 63.7009 74.7336C63.9525 74.7336 64.3056 75.1611 63.9389 75.2568Z" fill="#E0A564"/>
<path d="M54.462 95.4179C54.2126 95.4179 53.9916 95.1773 53.847 94.9618C53.6431 94.434 53.8436 94.2322 54.1272 94.2322C54.5827 94.2322 55.2501 94.7669 54.7342 95.3164C54.6419 95.3894 54.5486 95.4179 54.462 95.4179Z" fill="#D6925B"/>
<path d="M46.6183 96.8829C46.3621 96.8829 46.1024 96.8817 45.845 96.8772C46.0136 96.4941 46.3165 96.2444 46.6092 96.2444C46.8598 96.2444 47.1046 96.4303 47.2424 96.8783C47.034 96.8817 46.8279 96.8829 46.6183 96.8829Z" fill="#D6925B"/>
<path d="M46.5716 98.088C46.2972 98.088 46.0238 98.0857 45.7516 98.08C45.7425 98.0002 45.7379 97.9181 45.7471 97.8303C45.6787 97.4757 45.7288 97.144 45.845 96.8772C46.1024 96.8818 46.3621 96.8829 46.6183 96.8829C46.8279 96.8829 47.034 96.8818 47.2425 96.8783C47.2675 96.957 47.2892 97.0425 47.3051 97.136C47.3108 97.1497 47.3153 97.1645 47.3233 97.1782L47.3097 97.1565C47.3119 97.1713 47.3154 97.185 47.3188 97.2021C47.4554 97.6354 47.2618 97.8508 47.0067 97.8645C46.9851 97.9443 46.9475 98.0184 46.8962 98.0868C46.7869 98.0868 46.6798 98.088 46.5716 98.088ZM47.2971 97.136C47.3051 97.1577 47.3097 97.1748 47.3153 97.1941C47.3108 97.177 47.3062 97.1588 47.3005 97.1428L47.2971 97.136Z" fill="#CC7E45"/>
<path d="M53.0121 82.0049C52.6705 82.0049 52.339 81.6036 52.6056 81.2468C52.7046 81.1134 52.8333 81.0587 52.9598 81.0587C53.3003 81.0587 53.634 81.46 53.3663 81.8168C53.2673 81.9502 53.1397 82.0049 53.0121 82.0049Z" fill="#E0A564"/>
<path d="M46.8506 85.6087C46.509 85.6087 46.1764 85.2085 46.4452 84.8506C46.5431 84.7172 46.6707 84.6624 46.7982 84.6624C47.1388 84.6624 47.4713 85.0626 47.2048 85.4206C47.1057 85.5528 46.9771 85.6087 46.8506 85.6087Z" fill="#D6925B"/>
<path d="M65.5277 92.7855C65.5721 92.4366 65.9821 92.3363 66.1791 92.0855C66.1495 92.1151 66.1188 92.1459 66.0892 92.1755C66.2076 92.0558 66.3147 91.9224 66.4081 91.7833C66.4958 91.6579 66.6427 91.593 66.7907 91.593C66.8898 91.593 66.9912 91.6237 67.0732 91.6853C67.1848 91.7913 67.2395 91.9019 67.252 92.0136C66.7839 92.2337 66.3124 92.4469 65.8397 92.6543L65.5277 92.7855Z" fill="#D6925B"/>
<path d="M66.0095 93.3179C65.743 93.3179 65.4856 93.0899 65.5277 92.7912C65.5277 92.7889 65.5277 92.7866 65.5277 92.7855L65.8398 92.6544C66.3124 92.4469 66.7839 92.2337 67.252 92.0136C67.3056 92.4788 66.6268 92.9656 66.2908 93.2198C66.2042 93.2871 66.1063 93.3179 66.0095 93.3179Z" fill="#CC7E45"/>
<path d="M60.0734 91.1244C60.0085 91.1244 59.947 91.0902 59.8992 91.0092C59.7363 90.56 60.0757 90.3525 60.4402 90.3525C60.8035 90.3525 61.1907 90.5578 61.1304 90.9317C61.0791 90.9841 61.0301 91.0046 60.9823 91.0046C60.8912 91.0046 60.8035 90.9294 60.7112 90.8519C60.6213 90.7755 60.5267 90.7003 60.4219 90.7003C60.4106 90.7003 60.4015 90.7003 60.3935 90.7014L60.4003 90.7025H60.3935C60.4299 90.8872 60.2443 91.1244 60.0734 91.1244Z" fill="#D6925B"/>
<path d="M44.3792 92.6076C44.3314 92.6076 44.2813 92.5974 44.2368 92.5746C43.9031 92.44 44.115 92.1949 44.3519 92.1949C44.4225 92.1949 44.4954 92.2166 44.5569 92.2667C44.7402 92.448 44.5694 92.6076 44.3792 92.6076Z" fill="#D6925B"/>
<path d="M60.1076 84.4242C60.1008 84.4242 60.0951 84.4242 60.0894 84.4219C59.8263 84.3922 59.8935 83.8974 60.1144 83.8587C60.1247 83.8575 60.1349 83.8575 60.144 83.8575C60.2876 83.8575 60.3434 83.9989 60.3297 84.1403C60.3183 84.2817 60.2386 84.4242 60.1076 84.4242Z" fill="#D6925B"/>
<path d="M77.4453 82.7539C77.4282 82.7539 77.4111 82.7539 77.3974 82.7528C77.074 82.7163 76.9681 82.4142 77.0398 82.1702C77.0489 81.9331 77.2904 81.7085 77.533 81.7085C77.6833 81.7085 77.8371 81.7963 77.9327 82.0243C78.0455 82.3059 77.8826 82.6662 77.5842 82.7346C77.5501 82.7494 77.4931 82.7539 77.4453 82.7539Z" fill="#D6925B"/>
<path d="M65.9422 87.0725C65.8568 87.0725 65.7691 87.044 65.6826 86.979C65.3113 86.6952 65.596 86.1742 65.9627 86.1742C66.0482 86.1742 66.137 86.2027 66.2224 86.2665C66.5937 86.5492 66.3078 87.0725 65.9422 87.0725Z" fill="#D6925B"/>
<path d="M71.8134 87.7441C71.6482 87.7441 71.3988 87.5434 71.3589 87.4077C71.3623 87.2675 71.4238 87.2139 71.5093 87.2139C71.6744 87.2139 71.9227 87.4157 71.9648 87.5503C71.9614 87.6916 71.8976 87.7441 71.8134 87.7441Z" fill="#D6925B"/>
<path d="M71.8828 81.4657C71.8487 81.4657 71.8134 81.4554 71.7792 81.4281C71.63 81.3152 71.7439 81.1066 71.8897 81.1066C71.9238 81.1066 71.9603 81.118 71.9945 81.143C72.1437 81.257 72.0286 81.4657 71.8828 81.4657Z" fill="#D6925B"/>
<path d="M82.9132 78.709C82.8791 78.709 82.8426 78.6976 82.8084 78.6725C82.6604 78.5596 82.7743 78.351 82.9223 78.351C82.9542 78.351 82.9895 78.3612 83.0248 78.3875C83.1729 78.4992 83.0579 78.709 82.9132 78.709Z" fill="#D6925B"/>
<path d="M89.1522 68.9271C89.0816 68.828 89.0292 68.7037 89.0121 68.5372C89.0645 68.1109 89.2581 67.86 89.4985 67.746C89.3891 68.1405 89.2752 68.535 89.1522 68.9271Z" fill="#CC7E45"/>
<path d="M80.4474 61.1085C80.3518 61.1085 80.2538 61.0777 80.1536 61.0128C79.6741 60.6913 80.0067 60.0186 80.4623 60.0186C80.5568 60.0186 80.657 60.0471 80.755 60.1144C81.2344 60.4359 80.903 61.1085 80.4474 61.1085Z" fill="#D6925B"/>
<path d="M80.2664 73.1032C80.1058 73.1032 79.9236 72.987 79.9794 72.7817C80.0158 72.6803 80.091 72.6392 80.1764 72.6392C80.2846 72.6392 80.4053 72.7088 80.4589 72.8091C80.5318 73.0132 80.4088 73.1032 80.2664 73.1032Z" fill="#D6925B"/>
<path d="M87.6021 61.503C87.4005 61.503 87.0999 61.283 87.0441 61.1279C87.0361 60.9489 87.1169 60.8828 87.2263 60.8828C87.4279 60.8828 87.7285 61.1006 87.7855 61.2567C87.7923 61.4357 87.7126 61.503 87.6021 61.503Z" fill="#D6925B"/>
<path d="M87.2434 53.9101C87.2058 53.9101 87.1659 53.8976 87.1272 53.8713C86.9347 53.7437 87.0668 53.4735 87.2514 53.4735C87.2878 53.4735 87.3277 53.4849 87.3664 53.5122C87.5589 53.6399 87.4267 53.9101 87.2434 53.9101Z" fill="#D6925B"/>
<path d="M84.5316 53.8223C83.9519 53.8223 83.8107 52.8875 84.4439 52.7655C84.4826 52.7575 84.5202 52.7541 84.5578 52.7541C85.1375 52.7541 85.2788 53.6878 84.6467 53.8109C84.6057 53.8189 84.5692 53.8223 84.5316 53.8223Z" fill="#D6925B"/>
<path d="M89.7148 49.1343C89.6465 49.1343 89.5839 49.1252 89.5406 49.1047C89.2479 48.8288 89.6807 48.6498 89.9768 48.6498C89.9813 48.6498 89.9848 48.6498 89.9893 48.6498C90.0053 48.79 90.0212 48.9314 90.0383 49.0716C89.9381 49.1115 89.8185 49.1343 89.7148 49.1343Z" fill="#D6925B"/>
<path d="M90.0383 49.0716C90.0212 48.9314 90.0053 48.79 89.9893 48.6498C90.0531 48.6498 90.1089 48.6601 90.1499 48.6795C90.3412 48.8584 90.2251 48.9975 90.0383 49.0716Z" fill="#CC7E45"/>
<path d="M84.5225 43.9778C84.2913 43.9778 84.2344 43.605 84.4872 43.556C84.502 43.5525 84.5168 43.5503 84.5316 43.5503C84.764 43.5503 84.8209 43.9242 84.5669 43.9744C84.5521 43.9767 84.5362 43.9778 84.5225 43.9778Z" fill="#D6925B"/>
<path d="M76.541 27.0192C76.5399 27.0192 76.5376 27.0192 76.5342 27.0192C76.0433 27.0147 75.9362 26.4036 76.2267 26.1459C76.303 26.0787 76.4032 26.0342 76.5342 26.0308C76.5376 26.0308 76.541 26.0308 76.5456 26.0308C77.1685 26.0308 77.1822 27.0044 76.5535 27.0192H76.5512C76.5478 27.0192 76.5456 27.0192 76.541 27.0192Z" fill="#E0A564"/>
<path d="M82.7617 36.0782C82.6695 36.0782 82.5818 36.0361 82.5487 35.9312C82.502 35.7693 82.6467 35.6724 82.789 35.6724C82.854 35.6724 82.9155 35.6917 82.9622 35.7316C83.1296 35.9163 82.9382 36.0782 82.7617 36.0782Z" fill="#E0A564"/>
<path d="M70.6175 52.0837C70.5549 52.0837 70.4934 52.0449 70.4444 51.948C70.4069 51.777 70.5606 51.4099 70.7576 51.4099C70.8032 51.4099 70.8533 51.4316 70.9011 51.4783C71.0549 51.6539 70.8294 52.0837 70.6175 52.0837Z" fill="#D0975C"/>
<path d="M34.9729 40.7936C34.9045 40.7936 34.8328 40.7788 34.7565 40.7457C34.22 40.5063 34.4786 39.7447 34.9637 39.7447C35.0321 39.7447 35.105 39.7595 35.1801 39.7926C35.7177 40.032 35.458 40.7936 34.9729 40.7936Z" fill="#D0975C"/>
<path d="M35.0014 32.9009C34.6756 32.9009 34.5014 32.6158 34.5093 32.3445C34.433 32.0355 34.7052 31.6639 35.0355 31.6639C35.1824 31.6639 35.3419 31.738 35.4854 31.9261C35.6893 32.2145 35.6027 32.6671 35.2792 32.8267C35.2314 32.861 35.1346 32.8872 35.0742 32.8974C35.0492 32.8997 35.023 32.9009 35.0014 32.9009ZM34.785 32.6523L34.818 32.6717C34.8373 32.6785 34.8578 32.6842 34.8795 32.6899C34.8465 32.6797 34.8146 32.666 34.785 32.6523Z" fill="#D0975C"/>
<path d="M61.0848 42.2848C61.0164 42.2848 60.9447 42.27 60.8695 42.2369C60.3297 41.9975 60.5905 41.2359 61.0757 41.2359C61.144 41.2359 61.2157 41.2507 61.292 41.2838C61.8285 41.5232 61.5699 42.2848 61.0848 42.2848Z" fill="#D0975C"/>
<path d="M55.7376 36.5719C55.6693 36.5719 55.5986 36.5571 55.5223 36.5229C54.9848 36.2846 55.2444 35.5219 55.7296 35.5219C55.798 35.5219 55.8708 35.5367 55.9449 35.5709C56.4836 35.8092 56.2228 36.5719 55.7376 36.5719Z" fill="#D0975C"/>
<path d="M23.1134 40.8825C23.0439 40.8825 22.9721 40.8677 22.897 40.8335C22.3594 40.5963 22.6191 39.8325 23.1031 39.8325C23.1715 39.8325 23.2455 39.8485 23.3195 39.8827C23.8582 40.1198 23.5974 40.8825 23.1134 40.8825Z" fill="#D0975C"/>
<path d="M30.014 40.0765C29.8341 40.0765 29.538 39.934 29.4571 39.8017C29.4127 39.6068 29.5163 39.5315 29.6587 39.5315C29.9594 39.5315 30.4343 39.8621 30.0653 40.0708C30.0494 40.0742 30.0323 40.0765 30.014 40.0765Z" fill="#D0975C"/>
<path d="M32.4343 51.8933C32.4058 51.8933 32.3773 51.8865 32.3477 51.8739C32.1324 51.777 32.2361 51.4726 32.4308 51.4726C32.4582 51.4726 32.4866 51.4783 32.5163 51.492C32.7315 51.5878 32.6279 51.8933 32.4343 51.8933Z" fill="#D0975C"/>
<path d="M53.0957 51.9205L53.093 51.9138L53.0957 51.9205Z" fill="#C78554"/>
<path d="M28.423 32.9168C28.3945 32.9168 28.3672 32.9111 28.3376 32.8974C28.1212 32.8017 28.226 32.4984 28.4196 32.4984C28.4458 32.4984 28.4754 32.5041 28.5061 32.5178C28.7214 32.6124 28.6166 32.9168 28.423 32.9168Z" fill="#D0975C"/>
<path d="M60.0165 50.2562C59.8753 50.2562 59.7397 50.1946 59.7226 50.0624C59.7033 49.8959 59.8764 49.8093 60.045 49.8093C60.168 49.8093 60.2898 49.8571 60.3297 49.9518C60.4014 50.1467 60.2033 50.2562 60.0165 50.2562Z" fill="#D0975C"/>
<path d="M61.6007 43.9778C61.554 43.9778 61.5005 43.9562 61.4424 43.9037C61.3354 43.7407 61.3661 43.2744 61.6053 43.2744C61.6372 43.2744 61.6702 43.2812 61.7066 43.2972C61.9322 43.4169 61.841 43.9778 61.6007 43.9778Z" fill="#D0975C"/>
<path d="M24.2386 52.5056C24.0576 52.5056 23.8685 52.4178 23.7079 52.1989C23.3526 51.3746 23.9357 50.9163 24.504 50.9163C25.0029 50.9163 25.4903 51.2686 25.3252 52.0393C25.2454 52.2832 25.0541 52.3859 24.8594 52.3859C24.791 52.3859 24.7227 52.3745 24.6589 52.3505C24.537 52.4451 24.389 52.5056 24.2386 52.5056Z" fill="#D0975C"/>
<path d="M37.4933 47.6112C37.4432 47.6112 37.3897 47.6078 37.3316 47.5964C36.8612 47.4402 36.9671 46.9192 37.1186 46.5612C37.3133 46.2853 37.4956 46.1781 37.647 46.1781C37.9227 46.1781 38.1026 46.5361 38.1038 46.8952C38.1072 47.2532 37.9295 47.6112 37.4933 47.6112Z" fill="#D0975C"/>
<path d="M23.7888 45.9695C23.7762 45.9695 23.7626 45.9695 23.75 45.9672C23.0872 45.9285 23.1362 44.9149 23.7762 44.9149C23.7888 44.9149 23.8002 44.9172 23.8138 44.9172C24.4767 44.9571 24.4277 45.9695 23.7888 45.9695Z" fill="#D0975C"/>
<path d="M21.0314 38.4998C20.8014 38.4998 20.6157 38.3253 20.5451 38.1155C20.3333 37.81 20.5349 37.2571 20.9608 37.2571C21.0656 37.2571 21.1886 37.2913 21.3184 37.3734C21.6123 37.5751 21.6909 38.0335 21.4426 38.2991C21.4107 38.3481 21.3287 38.4051 21.2729 38.437C21.1886 38.4815 21.1077 38.4998 21.0314 38.4998ZM20.9153 38.3094L20.9517 38.3173C20.9722 38.3151 20.995 38.3139 21.0155 38.3116C21.0052 38.3116 20.9961 38.3116 20.9859 38.3116C20.9608 38.3116 20.9369 38.3105 20.9153 38.3094Z" fill="#D0975C"/>
<path d="M48.9941 38.1212C48.9827 38.1212 48.969 38.1201 48.9565 38.1201C48.2937 38.0791 48.3415 37.0678 48.9827 37.0678C48.9941 37.0678 49.0055 37.0678 49.0191 37.0689C49.6831 37.1077 49.6342 38.1212 48.9941 38.1212Z" fill="#C78554"/>
<path d="M27.4435 62.9896C27.2613 62.9896 27.0757 62.9007 26.9697 62.7537C26.5768 62.5769 26.4789 61.8564 27.0734 61.7379C27.1246 61.7265 27.1748 61.7196 27.2249 61.7196C27.677 61.7196 28.0654 62.1939 27.9105 62.6442C27.8296 62.887 27.6394 62.9896 27.4435 62.9896Z" fill="#D0975C"/>
<path d="M12.6104 50.2573C12.599 50.2573 12.5853 50.2573 12.5739 50.2562C11.9099 50.2174 11.9578 49.2062 12.5967 49.2062C12.6104 49.2062 12.6229 49.2062 12.6354 49.2062C13.2983 49.2461 13.2504 50.2573 12.6104 50.2573Z" fill="#D0975C"/>
<path d="M18.4518 60.3903C18.3516 60.3903 18.2559 60.3401 18.2206 60.2136C18.1864 60.046 18.3276 59.9582 18.4723 59.9582C18.5304 59.9582 18.5885 59.9707 18.6363 60.0015C18.8652 60.193 18.6511 60.3903 18.4518 60.3903Z" fill="#D0975C"/>
<path d="M25.4254 57.3394C25.4208 57.3394 25.4162 57.3394 25.4106 57.3394C25.1452 57.3223 25.1645 56.9176 25.4208 56.9176C25.4254 56.9176 25.4288 56.9176 25.4356 56.9176C25.6998 56.9336 25.6805 57.3394 25.4254 57.3394Z" fill="#D0975C"/>
<path d="M33.5424 36.3895C33.5083 36.3393 33.4832 36.2823 33.473 36.2242C33.4377 36.0087 33.514 35.9254 33.6153 35.9254C33.6745 35.9254 33.744 35.9539 33.8032 36.003C33.6745 36.0965 33.5766 36.2321 33.5424 36.3895Z" fill="#D0975C"/>
<path d="M14.92 40.8278C14.9155 40.8278 14.9109 40.8278 14.9052 40.8266C14.641 40.8118 14.6603 40.4059 14.9155 40.4059C14.92 40.4059 14.9257 40.4059 14.9303 40.4059C15.1968 40.423 15.1763 40.8278 14.92 40.8278Z" fill="#D0975C"/>
<path d="M38.0662 64.2608C37.9933 64.2608 37.9272 64.2152 37.8851 64.0978C37.86 63.9097 38.0548 63.6657 38.2222 63.6657C38.2939 63.6657 38.3611 63.7113 38.4033 63.8299C38.4283 64.0169 38.2336 64.2608 38.0662 64.2608Z" fill="#D0975C"/>
<path d="M23.9129 30.8943C23.9072 30.8943 23.9027 30.8943 23.8981 30.8932C23.6316 30.8784 23.651 30.4736 23.9072 30.4736C23.9118 30.4736 23.9175 30.4736 23.922 30.4736C24.1885 30.4896 24.1692 30.8943 23.9129 30.8943Z" fill="#D0975C"/>
<path d="M50.8414 46.0299C50.7571 46.0299 50.6808 45.9969 50.641 45.9216C50.5407 45.7244 50.8016 45.5397 51.0088 45.5397C51.0737 45.5397 51.1352 45.5591 51.1774 45.6024C51.3494 45.803 51.0658 46.0299 50.8414 46.0299Z" fill="#C78554"/>
<path d="M19.2912 19.6555C19.1511 19.6555 18.9894 19.5574 19.0304 19.4001C19.068 19.2907 19.1386 19.2485 19.2149 19.2485C19.421 19.2485 19.6591 19.5517 19.3265 19.6543C19.314 19.6555 19.3026 19.6555 19.2912 19.6555Z" fill="#D0975C"/>
<path d="M22.2171 25.2099C22.0212 25.2099 21.8059 25.105 21.6385 24.9933C21.1077 24.4415 21.4859 24.1497 21.9232 24.1497C22.3401 24.1497 22.8104 24.4153 22.6009 24.9773C22.5052 25.1484 22.3663 25.2099 22.2171 25.2099Z" fill="#D0975C"/>
<path d="M18.421 37.2251C18.1386 37.2251 17.8482 36.9983 17.9359 36.6437C17.9962 36.3997 18.1853 36.2937 18.3778 36.2937C18.6614 36.2937 18.9529 36.5194 18.8641 36.8763C18.8037 37.1191 18.6135 37.2251 18.421 37.2251Z" fill="#D0975C"/>
<path d="M16.4393 29.6174C16.4257 29.6003 16.4154 29.5855 16.4006 29.5696L16.4052 29.5741C16.4177 29.5878 16.4291 29.6015 16.4393 29.6174Z" fill="#D0975C"/>
<path d="M11.1354 38.461C11.1069 38.461 11.0796 38.4576 11.0523 38.453C11.0853 38.1178 11.1229 37.7815 11.1628 37.4497C11.1684 37.4486 11.1741 37.4486 11.1821 37.4486C11.3484 37.4486 11.5158 37.5159 11.6183 37.6584C11.657 37.6949 11.6946 37.7781 11.714 37.8339C11.8165 38.1691 11.5614 38.4017 11.2914 38.4325C11.2413 38.4519 11.1901 38.461 11.1354 38.461ZM11.5557 38.0585C11.5534 38.0791 11.5477 38.1007 11.5443 38.1212L11.5511 38.1007C11.5534 38.087 11.5534 38.0722 11.5557 38.0585Z" fill="#D0975C"/>
<path d="M11.0523 38.453C10.7083 38.3983 10.3837 38.0164 10.7698 37.6116C10.8735 37.509 11.017 37.4543 11.1628 37.4497C11.1229 37.7815 11.0853 38.1178 11.0523 38.453Z" fill="#C78554"/>
<path d="M11.3086 19.0683C11.066 19.0683 10.8188 18.903 10.8074 18.6317C10.902 18.4778 10.9976 18.3227 11.0944 18.1688C11.1491 18.1483 11.2072 18.138 11.2664 18.138C11.55 18.138 11.8416 18.3638 11.7527 18.7206C11.6912 18.9635 11.5022 19.0683 11.3086 19.0683Z" fill="#C78554"/>
<path d="M10.8074 18.6317C10.8051 18.5872 10.8097 18.5382 10.8233 18.488C10.8655 18.3193 10.9691 18.2167 11.0944 18.1688C10.9976 18.3227 10.9019 18.4778 10.8074 18.6317Z" fill="#BD7340"/>
<path d="M33.9832 37.0188C33.7975 37.0188 33.6176 36.9196 33.5515 36.6859C33.5196 36.5821 33.5196 36.483 33.5424 36.3895C33.5766 36.2321 33.6745 36.0965 33.8032 36.003C33.916 35.9198 34.0527 35.8696 34.1927 35.8696C34.2896 35.8696 34.3864 35.8924 34.4786 35.9448C34.875 36.1637 34.7258 36.6677 34.4114 36.809C34.3146 36.9413 34.1472 37.0188 33.9832 37.0188Z" fill="#D0975C"/>
<path d="M20.3811 47.9635C20.0998 47.9635 19.8082 47.7366 19.8959 47.3809C19.9574 47.1381 20.1465 47.0309 20.3401 47.0309C20.6226 47.0309 20.9153 47.2566 20.8253 47.6135C20.7649 47.8563 20.5747 47.9635 20.3811 47.9635Z" fill="#D0975C"/>
<path d="M30.6746 44.2218C30.4434 44.2218 30.4355 43.8889 30.5983 43.7828C30.6382 43.7623 30.6735 43.7543 30.7065 43.7543C30.932 43.7543 30.9548 44.2058 30.6792 44.2218C30.678 44.2218 30.6769 44.2218 30.6746 44.2218Z" fill="#D0975C"/>
<path d="M18.7376 41.8561C18.585 41.8561 18.5463 41.6771 18.5793 41.4981C18.6112 41.3191 18.7114 41.1413 18.839 41.1413C18.8891 41.1413 18.9438 41.1687 18.9984 41.2359C19.0565 41.383 18.97 41.7262 18.8504 41.8288C18.8071 41.847 18.7707 41.8561 18.7376 41.8561Z" fill="#D0975C"/>
<path d="M29.136 37.4349C29.0232 37.4349 28.907 37.3448 28.9424 37.2023C28.9674 37.1054 29.0426 37.0621 29.12 37.0621C29.2328 37.0621 29.3489 37.1533 29.3136 37.2958C29.2897 37.3927 29.2134 37.4349 29.136 37.4349Z" fill="#D0975C"/>
<path d="M25.8604 19.0125C25.8183 19.0125 25.7716 18.9965 25.7226 18.96C25.5973 18.8084 25.5597 18.6636 25.5859 18.5359C25.7329 18.6625 25.8798 18.7902 26.0267 18.919C25.9823 18.9749 25.9265 19.0125 25.8604 19.0125Z" fill="#D0975C"/>
<path d="M11.7994 26.5267C11.7937 26.5267 11.7869 26.5256 11.7789 26.5256C11.7766 26.5256 11.7743 26.5256 11.7709 26.5256C11.5648 26.5256 11.5135 26.4195 11.5534 26.3124C11.591 26.2075 11.7174 26.1015 11.8666 26.1015C11.8962 26.1015 11.9269 26.106 11.9577 26.1151C12.2538 26.2337 12.042 26.5267 11.7994 26.5267Z" fill="#C78554"/>
<path d="M12.6046 44.0804C12.4918 44.0804 12.3757 43.9892 12.411 43.8478C12.4349 43.7509 12.5101 43.7076 12.5887 43.7076C12.7014 43.7076 12.8176 43.7977 12.7823 43.9402C12.7584 44.0382 12.682 44.0804 12.6046 44.0804Z" fill="#D0975C"/>
<path d="M5.23015 34.3533C5.11626 34.3533 4.99895 34.2644 5.03425 34.1219C5.05931 34.025 5.13448 33.9816 5.21193 33.9816C5.32468 33.9816 5.44199 34.0717 5.40668 34.2153C5.38276 34.3122 5.30645 34.3533 5.23015 34.3533Z" fill="#C78554"/>
<path d="M49.9803 52.42C47.3768 54.3479 45.4031 53.095 43.1275 50.2562C43.763 50.5526 44.5603 50.5982 45.5728 50.3451C51.9951 48.733 45.4771 41.163 44.2038 29.2811C45.7163 37.4007 54.487 49.083 49.9803 52.42Z" fill="#BF7644"/>
<path d="M92.594 56.6942C92.5906 57.653 92.5575 58.6118 92.496 59.5694C92.2478 63.4628 91.5257 67.3345 90.2661 71.0397C88.708 75.6547 86.3174 80.003 83.2025 83.7629C81.649 85.6406 79.9167 87.3735 78.0546 88.9468C76.1913 90.5178 74.1926 91.9258 72.1004 93.1719C70.007 94.418 67.8249 95.5022 65.5755 96.4291C63.3262 97.3526 61.0301 98.1392 58.6771 98.772C56.323 99.391 53.921 99.8357 51.4985 100.078C49.0761 100.319 46.6308 100.361 44.2004 100.199C39.3372 99.8835 34.5378 98.7104 30.0573 96.8133C25.5746 94.9162 21.4039 92.2998 17.7218 89.1292C15.5328 87.2493 13.5157 85.1766 11.6878 82.9466C10.993 82.0984 10.3245 81.2285 9.68671 80.3381C9.48285 80.0531 9.28012 79.7658 9.08309 79.4762C8.78241 79.0419 8.48971 78.6007 8.20498 78.1549C7.53872 77.1186 6.91118 76.0583 6.32236 74.9752C5.91235 74.2239 5.52056 73.4646 5.15041 72.694C4.45681 71.2597 3.82927 69.7936 3.27234 68.3013C3.09695 67.8304 2.92725 67.3584 2.76553 66.883C2.54685 66.2468 2.34299 65.6084 2.15051 64.9631C2.02523 64.5402 1.90451 64.116 1.78948 63.6885C1.27469 61.7721 0.868095 59.8282 0.573116 57.8662C0.215497 55.4674 0.0275757 53.0459 0.00138071 50.6233C-0.015703 48.2006 0.125522 45.7768 0.437585 43.377C0.755342 40.9771 1.22457 38.5967 1.85895 36.2641C3.11517 31.5921 4.98072 27.0979 7.32346 22.8808C9.66279 18.6579 12.493 14.7235 15.6421 11.0844C12.5602 14.7817 9.81655 18.764 7.53644 22.997C5.25975 27.2313 3.46824 31.7243 2.28604 36.3758C1.09816 41.0227 0.530976 45.8259 0.615256 50.613C0.665368 53.0072 0.874928 55.3968 1.24963 57.7601C1.56625 59.7325 2.00018 61.6854 2.54344 63.6076C2.64936 63.9872 2.75983 64.3657 2.87486 64.7431C3.0867 65.4351 3.31448 66.1237 3.55707 66.8078C3.69032 67.1874 3.83041 67.5648 3.97391 67.9421C4.53996 69.4368 5.17889 70.904 5.88387 72.3371C6.30413 73.1899 6.74831 74.0335 7.21527 74.8612C7.75283 75.8212 8.32571 76.764 8.92591 77.6863C9.29834 78.2552 9.68102 78.8184 10.0762 79.3725C10.2049 79.5526 10.3336 79.7328 10.4646 79.9118C11.1183 80.8044 11.7994 81.6743 12.5078 82.5202C14.2856 84.6408 16.2355 86.612 18.3379 88.4053C21.9642 91.5017 26.0586 94.0441 30.4503 95.8807C34.8408 97.7174 39.5263 98.8335 44.271 99.1413C46.6411 99.2964 49.0248 99.2508 51.3915 99.0137C53.7559 98.772 56.1009 98.3342 58.4004 97.7265C60.6941 97.1086 62.9583 96.3242 65.1575 95.4156C67.3557 94.5001 69.5002 93.4512 71.5469 92.2348C73.5912 91.0229 75.5456 89.6525 77.3644 88.126C79.1856 86.5971 80.8723 84.9121 82.3927 83.0857C83.9109 81.2593 85.2719 79.2995 86.4336 77.228C87.6021 75.1554 88.5759 72.9756 89.3549 70.7262C90.577 67.1954 91.3173 63.5015 91.618 59.7701C91.7022 58.744 91.7501 57.7157 91.7671 56.6862C91.7774 56.107 91.7763 55.5279 91.7671 54.9476C91.7501 54.0583 91.7102 53.1679 91.6487 52.2798C91.5872 51.3757 91.4995 50.4751 91.3924 49.5756C91.389 49.5607 91.3879 49.5436 91.3867 49.5288C91.2979 48.7946 91.1954 48.0615 91.0781 47.3319C90.9278 46.3982 90.7535 45.4679 90.5553 44.5421C90.4096 43.849 90.249 43.1592 90.0781 42.4729C90.0303 42.2814 89.9813 42.091 89.9301 41.9017C89.5394 40.4117 89.093 38.9341 88.593 37.476C87.6021 34.5847 86.4029 31.7619 85.0088 29.0349C83.9155 26.8972 82.7082 24.8143 81.3859 22.8067C80.0682 20.7967 78.6514 18.846 77.1287 16.9797C78.7004 18.8039 80.1844 20.7089 81.5511 22.6949C82.9189 24.6821 84.1774 26.7456 85.322 28.8696C86.7821 31.5784 88.0543 34.3943 89.1078 37.2901C89.6328 38.7323 90.1032 40.1928 90.5155 41.6726C90.5747 41.8858 90.6316 42.0978 90.6897 42.3133C90.8651 42.9677 91.0291 43.6289 91.1806 44.2902C91.4038 45.2535 91.602 46.2226 91.7751 47.1974C91.897 47.894 92.0086 48.5905 92.1031 49.2928C92.11 49.3396 92.1168 49.3874 92.1225 49.4353C92.2489 50.3713 92.3491 51.3085 92.4266 52.249C92.4926 53.0904 92.5405 53.9352 92.5678 54.7811C92.5883 55.4196 92.5974 56.0569 92.594 56.6942Z" fill="#AA5631"/>
<path d="M44.0238 24.128C43.9965 22.9093 44.0478 21.6882 44.1412 20.4672C44.2437 19.2508 44.4054 18.0354 44.6229 16.8304C45.05 14.4169 45.722 12.0455 46.616 9.75395C47.0773 8.61502 47.5955 7.49547 48.1946 6.41696C48.8016 5.34643 49.4724 4.30327 50.2708 3.35472C51.0658 2.40732 51.9849 1.54771 53.044 0.893307C53.1796 0.818062 53.3185 0.746238 53.4552 0.672133C53.5235 0.636791 53.5907 0.596888 53.6602 0.564966L53.8766 0.47376C54.0212 0.415616 54.159 0.344932 54.3082 0.299329L54.7536 0.163661C54.9016 0.122618 55.0576 0.104377 55.208 0.072455C55.2843 0.0599142 55.3583 0.0416721 55.4369 0.0325515L55.6658 0.0177311L55.8982 0.00405013C55.9346 0.00291006 55.9733 -0.00165053 56.0121 0.000629616L56.1259 0.00747064L56.5838 0.035972C55.9722 0.0462327 55.3765 0.16252 54.8128 0.358613C54.2502 0.562686 53.7308 0.862525 53.2399 1.19543C53.0053 1.38126 52.757 1.54315 52.5395 1.74836L52.2047 2.04364L51.8903 2.36172C51.6739 2.56579 51.4849 2.80065 51.2821 3.0184C51.0874 3.243 50.9052 3.48127 50.7172 3.71385C49.9997 4.67037 49.3597 5.68731 48.8027 6.751C48.2378 7.81013 47.7367 8.9046 47.2959 10.0253C46.8449 11.1426 46.4577 12.2849 46.1069 13.441C45.7493 14.5936 45.4509 15.7644 45.181 16.9433C45.1104 17.2385 45.0523 17.535 44.9896 17.8302C44.9281 18.1278 44.8655 18.4231 44.8108 18.7206C44.755 19.0182 44.6947 19.3157 44.6446 19.6144L44.4976 20.5105C44.3052 21.7099 44.1571 22.915 44.0238 24.128Z" fill="#AA5631"/>
<path d="M62.0369 10.8074C62.7579 11.2851 63.4423 11.8232 64.0744 12.4046C64.7202 12.9792 65.3147 13.5971 65.8887 14.2367C67.0299 15.5193 68.0356 16.9033 68.9376 18.3433C70.7382 21.2276 72.13 24.3332 73.1607 27.5482C73.6778 29.1546 74.1106 30.7906 74.442 32.4517C74.6151 33.2805 74.7529 34.1162 74.8839 34.9541C74.9499 35.3737 74.9966 35.7955 75.0502 36.2173C75.1071 36.638 75.1481 37.0621 75.1846 37.4874C75.2267 37.9103 75.2574 38.3344 75.2859 38.7597L75.3235 39.3993L75.3474 40.04C75.3634 40.4675 75.3816 40.895 75.377 41.3237C75.3782 41.7535 75.3827 42.181 75.3713 42.612C75.3599 43.4705 75.3189 44.3324 75.2563 45.1954C75.221 45.6275 75.1937 46.0584 75.1492 46.4917C75.1003 46.9237 75.0559 47.3558 74.9978 47.7879C74.5479 51.2423 73.6835 54.7218 72.1926 58.0486C71.9956 58.4624 71.8099 58.8763 71.6038 59.2867C71.3863 59.6914 71.1835 60.0996 70.9501 60.4986C70.4945 61.3012 69.9979 62.0833 69.4547 62.8414C69.1791 63.2188 68.9103 63.5973 68.6062 63.9564L68.1609 64.4991C68.0128 64.6792 67.8465 64.8514 67.6928 65.0258L67.2144 65.5423L66.7099 66.0382C66.5402 66.2012 66.3762 66.37 66.2008 66.5262L65.6666 66.989C64.2373 68.2146 62.6383 69.243 60.9618 70.0239C59.2807 70.806 57.5211 71.3304 55.7706 71.6223C54.0178 71.9141 52.2741 71.9632 50.584 71.8366C48.8916 71.701 47.2504 71.4 45.673 70.9234C45.2391 70.7923 44.9942 70.3329 45.1252 69.8985C45.214 69.6044 45.4532 69.3969 45.7333 69.3353L45.7527 69.3307C47.2971 68.991 48.7834 68.6399 50.199 68.1838C51.6136 67.7358 52.9507 67.1897 54.1807 66.5478C56.6464 65.2618 58.6293 63.5551 60.1338 61.5418C63.1485 57.5207 64.4469 52.2388 64.8466 46.7265C64.8922 46.0356 64.9309 45.3413 64.9525 44.6447C64.9708 44.2982 64.9639 43.9436 64.973 43.5959C64.9844 43.2459 64.9765 42.8924 64.9787 42.5424C64.981 42.1913 64.9673 41.8379 64.9605 41.4845C64.9525 41.1333 64.9423 40.7788 64.9275 40.4253L64.9093 39.8952L64.8785 39.3639C64.8648 39.0094 64.8478 38.6548 64.8204 38.2991C64.7737 37.59 64.7293 36.8774 64.6644 36.1649C64.6325 35.808 64.6109 35.4501 64.5721 35.0943L64.4674 34.0238C64.317 32.5942 64.1462 31.1611 63.9423 29.728C63.5323 26.8607 63.0369 23.9843 62.4093 21.1068C62.0939 19.6692 61.7533 18.227 61.3581 16.7859C61.2568 16.4302 61.1634 16.062 61.0552 15.7051C61.0016 15.525 60.9481 15.3449 60.8969 15.1602C60.8468 14.9766 60.7887 14.7988 60.7317 14.6175C60.5165 13.8867 60.2648 13.1719 60.0279 12.416L60.0028 12.3385C59.7796 11.6271 60.1759 10.8689 60.8889 10.6443C61.2887 10.5178 61.71 10.593 62.0369 10.8074Z" fill="#FAC891"/>
<path d="M38.2313 49.0192C38.9488 52.6515 36.5901 56.1789 32.9627 56.8971C29.333 57.6154 25.8103 55.2543 25.0928 51.6209C24.3741 47.9886 26.7351 44.4635 30.3625 43.7429C33.9911 43.0258 37.5149 45.3881 38.2313 49.0192Z" fill="white"/>
<path d="M38.2313 49.0192L37.9272 49.0796C38.0104 49.4992 38.0491 49.9164 38.0491 50.3269C38.0491 51.8215 37.5218 53.2363 36.6152 54.3536C35.7075 55.4709 34.4239 56.2894 32.9012 56.5916C32.4832 56.6737 32.0664 56.7136 31.6552 56.7136C30.1621 56.7136 28.7476 56.1857 27.6314 55.2793C26.5153 54.3707 25.6987 53.0836 25.398 51.5604C25.3149 51.1409 25.275 50.7236 25.275 50.312C25.275 48.8186 25.8012 47.4026 26.7089 46.2853C27.6155 45.168 28.9013 44.3517 30.4241 44.0496C30.842 43.9664 31.2589 43.9265 31.6689 43.9265C33.162 43.9265 34.5754 44.4532 35.6927 45.3607C36.8088 46.2693 37.6243 47.5565 37.9272 49.0796L38.2313 49.0192L38.5365 48.9588C38.2085 47.2886 37.3088 45.8737 36.0845 44.8785C34.8613 43.882 33.3089 43.304 31.6689 43.304C31.2179 43.304 30.7612 43.3473 30.3033 43.4374C28.6348 43.7692 27.2192 44.6664 26.226 45.8931C25.2306 47.1176 24.652 48.6715 24.652 50.312C24.652 50.7635 24.6965 51.223 24.7864 51.6813C25.1167 53.3515 26.0142 54.7663 27.2385 55.7616C28.464 56.758 30.0163 57.336 31.6552 57.336C32.1074 57.336 32.5629 57.2927 33.0219 57.2015C34.6893 56.872 36.1038 55.9725 37.0992 54.7469C38.0935 53.5225 38.6721 51.9686 38.6721 50.3269C38.6721 49.8765 38.6277 49.4171 38.5365 48.9588L38.2313 49.0192Z" fill="#42180B"/>
<path d="M36.4136 50.8125C36.6027 52.4371 35.4421 53.9067 33.8192 54.096C32.1973 54.2863 30.7304 53.1246 30.5391 51.5011C30.3512 49.8777 31.5117 48.407 33.1335 48.2177C34.7542 48.0296 36.2234 49.1902 36.4136 50.8125Z" fill="#42180B"/>
<path d="M36.2211 51.0702C36.2735 51.5205 35.9501 51.9298 35.5013 51.9822C35.0503 52.0347 34.6426 51.7132 34.5902 51.2617C34.5367 50.8102 34.8601 50.4021 35.31 50.3496C35.7599 50.2961 36.1676 50.6198 36.2211 51.0702Z" fill="white"/>
<path d="M34.5811 49.7728C34.613 50.043 34.4193 50.2892 34.1483 50.32C33.8795 50.3508 33.6335 50.1581 33.6016 49.8879C33.5708 49.6166 33.7645 49.3715 34.0332 49.3395C34.3043 49.3088 34.5503 49.5026 34.5811 49.7728Z" fill="white"/>
<path d="M34.244 57.1536C34.2975 57.9676 32.6096 58.744 30.4753 58.8842C28.341 59.0233 26.5677 58.4772 26.5141 57.6621C26.4606 56.8469 28.1473 56.0728 30.2817 55.9315C32.416 55.7912 34.1904 56.3385 34.244 57.1536Z" fill="#FF803B"/>
<path d="M24.7705 41.3568C21.1317 44.0188 18.5907 48.2633 18.8413 52.8681C17.5441 48.4127 18.97 42.0271 24.0917 40.8529C24.4801 40.6955 25.242 40.8426 24.7705 41.3568Z" fill="#632B15"/>
<path d="M70.2792 42.7283C70.9956 46.3605 68.6358 49.8868 65.0072 50.6062C61.3797 51.3244 57.8559 48.9611 57.1384 45.3299C56.4209 41.6977 58.7796 38.1703 62.4093 37.452C66.0368 36.7338 69.5594 39.0949 70.2792 42.7283Z" fill="white"/>
<path d="M70.2793 42.7283L69.9718 42.7887C70.0549 43.2082 70.0959 43.6255 70.0959 44.0371C70.0959 45.5306 69.5686 46.9465 68.662 48.0638C67.7543 49.1799 66.4696 49.9985 64.948 50.2995C64.5277 50.3827 64.112 50.4226 63.7009 50.4226C62.2089 50.4226 60.7944 49.8959 59.6794 48.9884C58.5632 48.0798 57.7455 46.7926 57.4437 45.2695C57.3617 44.8499 57.3218 44.4327 57.3218 44.0223C57.3218 42.5276 57.8491 41.1128 58.7546 39.9955C59.6623 38.8783 60.9481 38.0597 62.4686 37.7576C62.8888 37.6755 63.3057 37.6356 63.7157 37.6356C65.2088 37.6356 66.6222 38.1634 67.7383 39.0698C68.8545 39.9784 69.6711 41.2656 69.9718 42.7887L70.2793 42.7283L70.5833 42.6679C70.2531 40.9976 69.3556 39.5828 68.1313 38.5875C66.9081 37.5911 65.3557 37.0131 63.7157 37.0131C63.2647 37.0131 62.8068 37.0564 62.3479 37.1465C60.6805 37.4771 59.266 38.3766 58.2717 39.6022C57.2763 40.8266 56.7 42.3806 56.7 44.0223C56.7 44.4726 56.7421 44.932 56.8332 45.3903C57.1624 47.0605 58.061 48.4754 59.2865 49.4707C60.5085 50.4671 62.0609 51.0451 63.7009 51.0451C64.1519 51.0451 64.6109 51.0018 65.0687 50.9117C66.7372 50.58 68.1506 49.6827 69.1449 48.456C70.1403 47.2316 70.7177 45.6776 70.7177 44.0371C70.7177 43.5856 70.6745 43.1273 70.5833 42.6679L70.2793 42.7283Z" fill="#42180B"/>
<path d="M68.4593 44.5227C68.6495 46.1462 67.4866 47.6158 65.866 47.805C64.2442 47.9943 62.775 46.8325 62.587 45.2102C62.398 43.5867 63.5585 42.1161 65.1792 41.9268C66.801 41.7364 68.2691 42.8993 68.4593 44.5227Z" fill="#42180B"/>
<path d="M68.2668 44.7804C68.3203 45.2296 67.9969 45.6377 67.5459 45.6913C67.0971 45.7438 66.6883 45.4223 66.6359 44.9708C66.5835 44.5193 66.9047 44.1112 67.3557 44.0587C67.8067 44.0052 68.2144 44.3289 68.2668 44.7804Z" fill="white"/>
<path d="M66.6267 43.4807C66.6586 43.7521 66.4662 43.9972 66.1951 44.0291C65.924 44.0599 65.6803 43.8672 65.6484 43.5959C65.6165 43.3257 65.809 43.0806 66.0812 43.0487C66.3511 43.0179 66.596 43.2117 66.6267 43.4807Z" fill="white"/>
<path d="M63.9731 51.321C64.2339 52.0962 66.0881 52.1692 68.1153 51.4863C70.1415 50.8023 71.5754 49.6212 71.3134 48.847C71.0526 48.0718 69.1984 47.9988 67.1712 48.6806C65.1451 49.3646 63.7134 50.5457 63.9731 51.321Z" fill="#FF803B"/>
<path d="M57.6487 32.0709C60.7841 27.5482 67.5686 29.1683 71.0093 32.4688C67.1655 30.2365 62.39 30.4189 58.4596 32.3262C58.1202 32.5326 57.4619 32.7127 57.6487 32.0709Z" fill="#632B15"/>
<path d="M60.0803 58.7509C59.7648 58.3051 59.3502 57.7932 58.8127 57.2391C58.414 56.8276 57.9482 56.3932 57.4061 55.944C56.5793 55.2565 55.511 54.6546 54.6283 54.3775C52.9586 53.8565 51.363 53.8554 49.912 54.3855C49.0214 54.7139 48.1729 55.2223 47.3871 55.8984C47.1206 56.1287 46.862 56.375 46.6092 56.644C46.4851 56.774 46.3643 56.9096 46.2447 57.0499C45.8404 57.5173 45.46 58.0383 45.1013 58.6038C44.853 58.9971 44.6161 59.411 44.3917 59.851C43.8109 60.9797 43.5159 62.5564 43.3644 63.7672C43.2824 64.4193 43.2426 64.9665 43.2232 65.2755C43.2129 65.4431 43.2095 65.5423 43.2073 65.5548C43.1663 65.7213 43.2483 65.8911 43.4066 65.9721C43.5637 66.0553 43.7585 66.0325 43.8974 65.9117C44.599 65.2903 45.3017 64.734 45.9999 64.2346H46.001C47.4919 63.1652 48.9576 62.3626 50.3631 61.7664C54.7183 59.9263 58.4778 60.1064 60.4652 60.7335C60.6429 60.7893 60.8422 60.7266 60.9527 60.5761C61.0131 60.4918 60.8183 59.794 60.0803 58.7509Z" fill="#632B15"/>
<path d="M51.4336 63.5745C51.0828 63.7432 50.756 63.9416 50.4701 64.1559C50.3266 64.2608 50.3061 64.4786 50.4211 64.6416C50.5373 64.8035 50.7457 64.8537 50.887 64.7442C51.855 64.0214 53.4199 63.4559 54.5668 63.9234C54.7422 63.9952 54.9255 63.9063 54.9757 63.7273C55.0258 63.546 54.9244 63.3419 54.7467 63.2701C53.716 62.8494 52.47 63.0786 51.4336 63.5745Z" fill="#632B15"/>
<path d="M92.594 56.6942C92.5906 57.653 92.5575 58.6118 92.496 59.5694C92.2033 59.6367 91.9095 59.7028 91.6179 59.7701C87.5258 60.7038 83.5852 61.5908 83.436 61.7435C68.039 80.4681 48.543 83.5497 28.5073 77.4925C28.2396 77.4241 19.0155 78.4274 10.0762 79.3725C9.74364 79.409 9.41449 79.442 9.08307 79.4762C8.78239 79.0419 8.48969 78.6007 8.20496 78.1549C7.5387 77.1186 6.91116 76.0583 6.32234 74.9752C6.59112 74.9422 6.86105 74.908 7.12527 74.8738C7.15602 74.8692 7.1845 74.8669 7.21525 74.8612C12.2675 74.2239 16.691 73.6744 16.912 73.6117C18.962 73.0314 17.4268 66.427 15.4485 65.6289C15.0498 65.4693 8.3143 66.3335 3.55705 66.8077C3.28599 66.834 3.0229 66.8602 2.76551 66.883C2.54684 66.2468 2.34297 65.6084 2.1505 64.9631C2.02521 64.5401 1.90449 64.116 1.78946 63.6885C2.02863 63.6646 2.28033 63.6372 2.54342 63.6076C7.10819 63.1025 15.0476 61.9351 15.9143 61.8621C20.2433 60.7027 35.031 57.889 40.8212 56.8184C48.305 55.48 53.6818 52.3585 61.4652 52.1749C65.694 52.3174 70.1175 52.0655 74.2347 50.8923C79.009 49.9654 83.7184 48.4742 89.9232 44.8169C90.0121 44.7656 90.2672 44.6595 90.5553 44.5421C90.7637 44.4578 90.9892 44.3688 91.1806 44.2902C91.4038 45.2535 91.602 46.2226 91.7751 47.1974C91.897 47.8939 92.0086 48.5905 92.1031 49.2928C91.8708 49.384 91.6339 49.4798 91.3924 49.5755C87.9518 50.9413 83.723 52.5739 83.3403 54.2726C82.9975 55.7376 84.5521 56.9267 85.8937 56.2393C86.0817 56.1446 88.6795 55.5951 91.7671 54.9476C92.0302 54.8928 92.2979 54.837 92.5678 54.7811C92.5883 55.4196 92.5974 56.0569 92.594 56.6942Z" fill="#FFFEA6"/>
<path d="M39.7256 59.5113C39.7256 59.5113 53.2057 55.3774 57.4288 54.8142C61.6531 54.251 74.7324 54.2407 74.7324 54.2407C74.7324 54.2407 59.4629 56.2929 57.1954 56.6406C54.9267 56.9872 39.7256 59.5113 39.7256 59.5113Z" fill="#E2DF83"/>
<path d="M31.506 66.8579C31.506 66.8579 44.8746 64.2631 55.9927 62.122C56.1932 63.5232 55.6089 64.0522 55.6476 65.4784C43.6184 65.8866 31.506 66.8579 31.506 66.8579Z" fill="#E2DF83"/>
<path d="M31.7156 69.4698C31.7156 69.4698 41.6469 70.5928 55.0804 70.741C55.1499 72.3816 56.1932 73.8739 56.0861 75.4324C40.5843 74.721 31.7156 69.4698 31.7156 69.4698Z" fill="#E2DF83"/>
<path d="M80.6445 57.3497C80.6445 57.3497 73.1459 58.0976 62.1007 60.5088C63.2704 61.5577 63.4127 62.0913 64.0892 63.3852C75.0866 59.0644 80.6445 57.3497 80.6445 57.3497Z" fill="#E2DF83"/>
<path d="M82.4281 59.0906C82.4281 59.0906 76.9214 62.5587 64.9423 67.9262C65.6997 69.4254 65.5118 71.172 66.3876 72.5275C79.9396 65.8478 82.4281 59.0906 82.4281 59.0906Z" fill="#E2DF83"/>
<path d="M89.2342 52.0107L104.784 61.5771C104.983 61.6991 105.231 61.6957 105.427 61.5657L121.88 50.5594C122.153 50.377 122.226 50.0076 122.043 49.7329C121.862 49.4592 121.492 49.3863 121.218 49.5687L105.081 60.3618L89.8584 50.9961C89.5771 50.8239 89.2103 50.9117 89.0372 51.191C88.8675 51.4715 88.9541 51.8374 89.2342 52.0107Z" fill="#994D2B"/>
<path d="M120.484 49.4399C120.363 49.0101 120.163 48.5951 119.923 48.1961C119.566 47.5964 119.115 47.0366 118.68 46.5635C118.462 46.3264 118.25 46.112 118.052 45.9285C117.854 45.7438 117.674 45.5887 117.515 45.4667C117.253 45.2672 116.879 45.3174 116.68 45.5796C116.48 45.843 116.531 46.2158 116.794 46.4153C116.947 46.5327 117.172 46.7277 117.419 46.9716C117.79 47.3365 118.214 47.8096 118.571 48.3078C118.751 48.5563 118.913 48.8106 119.044 49.058C119.176 49.3054 119.276 49.5448 119.338 49.7614C119.426 50.0772 119.755 50.2642 120.07 50.1741C120.387 50.0863 120.571 49.7568 120.484 49.4399Z" fill="#994D2B"/>
<path d="M121.032 46.6741C121.052 46.5794 121.054 46.5076 121.054 46.4381C121.054 46.3081 121.04 46.1838 121.019 46.0436C120.981 45.8008 120.921 45.5169 120.846 45.2068C120.735 44.7382 120.592 44.2081 120.452 43.6985C120.314 43.1923 120.18 42.7055 120.089 42.3372C120.009 42.018 119.685 41.8242 119.366 41.9029C119.048 41.9838 118.854 42.3064 118.934 42.6257C119.082 43.2208 119.319 44.0496 119.518 44.8066C119.617 45.1851 119.707 45.5454 119.771 45.8407C119.803 45.9866 119.828 46.1177 119.843 46.2237C119.858 46.3275 119.866 46.4096 119.864 46.4381V46.4472L120.091 46.4632L119.87 46.413C119.866 46.4347 119.864 46.4438 119.864 46.4472L120.091 46.4632L119.87 46.413C119.797 46.7345 120 47.0537 120.32 47.1244C120.641 47.1974 120.96 46.9967 121.032 46.6741Z" fill="#994D2B"/>
<path d="M122.086 47.0366C122.086 47.0366 122.088 46.9773 122.095 46.8667C122.116 46.4848 122.172 45.5044 122.24 44.4475C122.308 43.3918 122.389 42.2563 122.461 41.5825C122.496 41.2564 122.26 40.9612 121.935 40.9281C121.607 40.8928 121.314 41.1287 121.279 41.4559C121.235 41.8641 121.189 42.4091 121.145 43.0008C121.014 44.7758 120.897 46.9716 120.897 46.9739C120.879 47.3022 121.133 47.5827 121.46 47.6021C121.789 47.6181 122.068 47.3661 122.086 47.0366Z" fill="#994D2B"/>
<path d="M123.623 47.5234C123.623 47.5234 123.624 47.512 123.626 47.4904C123.651 47.3273 123.759 46.5669 123.911 45.6833C123.987 45.2421 124.072 44.7679 124.164 44.3255C124.255 43.882 124.352 43.4659 124.441 43.149C124.534 42.8332 124.352 42.5025 124.036 42.4113C123.719 42.3201 123.39 42.5025 123.299 42.8195C123.186 43.2094 123.078 43.6825 122.979 44.1784C122.68 45.6617 122.445 47.3524 122.443 47.3581C122.397 47.6842 122.625 47.9852 122.951 48.0319C123.276 48.0764 123.578 47.8506 123.623 47.5234Z" fill="#994D2B"/>
<path d="M123.708 48.4389C124.046 46.8303 123.565 45.3698 121.955 45.0324C120.346 44.6949 119.421 45.4804 119.083 47.0891C118.747 48.6988 119.125 50.5241 120.732 50.8616C122.341 51.2002 123.372 50.0487 123.708 48.4389Z" fill="#994D2B"/>
<path d="M8.24942 69.2817L5.0821 47.9623L22.4847 35.1673C22.7489 34.9724 22.807 34.5984 22.6123 34.3328C22.4175 34.0683 22.0451 34.0113 21.7797 34.2062L4.08897 47.2145C3.90902 47.3456 3.81905 47.5645 3.85094 47.7822L7.07179 69.4573C7.12076 69.7822 7.42371 70.0068 7.74944 69.9589C8.07289 69.911 8.2984 69.6078 8.24942 69.2817Z" fill="#994D2B"/>
<path d="M22.7865 37.094C23.0837 37.0952 23.4425 37.1556 23.8172 37.2616C24.3798 37.4201 24.9789 37.6766 25.4948 37.9445C25.7522 38.0779 25.9902 38.2136 26.193 38.339C26.3968 38.4644 26.5643 38.5796 26.6816 38.6696C26.9424 38.8691 27.3159 38.8201 27.5153 38.5579C27.7157 38.2968 27.6645 37.9229 27.4036 37.7222C27.1929 37.5615 26.9128 37.3768 26.5779 37.1818C26.0768 36.89 25.4595 36.5787 24.8046 36.3336C24.1498 36.0896 23.4619 35.9084 22.7933 35.9015C22.4653 35.9004 22.1977 36.1649 22.1942 36.4944C22.1931 36.8238 22.4585 37.0918 22.7865 37.094Z" fill="#994D2B"/>
<path d="M25.873 35.6963L25.742 35.4523L25.8479 35.7089L25.873 35.6963L25.742 35.4523L25.8479 35.7089L25.8138 35.6245L25.8411 35.7111L25.8479 35.7089L25.8138 35.6245L25.8411 35.7111C25.8445 35.7089 25.8787 35.7009 25.9311 35.6918C26.0222 35.6769 26.1623 35.661 26.3308 35.6496C26.8422 35.6142 27.5984 35.6108 28.3228 35.6108C28.4731 35.6108 28.6212 35.6108 28.767 35.6108C29.1337 35.6108 29.4765 35.6097 29.7692 35.604C30.0961 35.5983 30.358 35.3258 30.3512 34.9963C30.3432 34.6668 30.071 34.4058 29.743 34.4126C29.4697 34.4183 29.1314 34.4194 28.767 34.4194C28.6235 34.4194 28.4731 34.4194 28.3228 34.4194C27.7317 34.4194 27.1121 34.4217 26.5951 34.4422C26.3354 34.4525 26.1019 34.4685 25.898 34.4924C25.7967 34.5049 25.7033 34.5198 25.611 34.5403C25.5643 34.5505 25.5188 34.5631 25.471 34.579C25.422 34.5939 25.373 34.6132 25.3138 34.6452C25.0234 34.7991 24.9129 35.1605 25.0678 35.4501C25.2227 35.7408 25.5826 35.8514 25.873 35.6963Z" fill="#994D2B"/>
<path d="M24.7819 34.1504C24.7865 34.1492 25.7614 34.0238 26.9276 33.8232C27.5119 33.7229 28.144 33.6043 28.7305 33.472C29.0232 33.4071 29.3045 33.3364 29.5665 33.2634C29.8273 33.1904 30.0665 33.1141 30.2783 33.0308C30.5847 32.9123 30.735 32.5645 30.6154 32.259C30.4947 31.9523 30.1496 31.8018 29.8433 31.9227C29.6849 31.9842 29.4799 32.0504 29.2453 32.1165C28.8342 32.2305 28.3353 32.3445 27.824 32.446C27.0552 32.5987 26.2523 32.7298 25.6464 32.8222C25.3434 32.8689 25.0871 32.9054 24.9083 32.9305C24.8195 32.9419 24.75 32.9522 24.7022 32.959C24.6783 32.9613 24.6601 32.9647 24.6464 32.9658L24.6293 32.967C24.3036 33.008 24.0724 33.3079 24.1157 33.6351C24.1567 33.9611 24.4562 34.1914 24.7819 34.1504Z" fill="#994D2B"/>
<path d="M24.2819 33.4618C24.2864 33.4606 24.9846 33.1596 25.8502 32.7583C26.2818 32.5588 26.7568 32.3319 27.2078 32.1062C27.6588 31.8782 28.0859 31.6513 28.4321 31.4404C28.7134 31.2683 28.8022 30.9023 28.6325 30.6207C28.4606 30.3391 28.0938 30.2502 27.8137 30.4212C27.513 30.6047 27.1064 30.8236 26.6725 31.0414C26.0199 31.3697 25.3035 31.7026 24.7511 31.9512C24.4755 32.0766 24.2409 32.1803 24.0735 32.2521C23.9915 32.2898 23.9265 32.3183 23.8821 32.3376C23.8366 32.357 23.8138 32.3661 23.8138 32.3661C23.5108 32.4973 23.3708 32.8461 23.5006 33.1482C23.6304 33.4515 23.9801 33.5917 24.2819 33.4618Z" fill="#994D2B"/>
<path d="M22.9084 32.5235C24.3707 31.7744 25.9037 31.8565 26.6543 33.3204C27.4025 34.7831 26.89 35.8833 25.4277 36.6346C23.9653 37.3859 22.1066 37.4999 21.3572 36.036C20.6078 34.571 21.446 33.2736 22.9084 32.5235Z" fill="#994D2B"/>
</svg>
