<svg width="149" height="70" viewBox="0 0 149 70" fill="none" xmlns="http://www.w3.org/2000/svg">
<path d="M111.544 12.5447C111.535 12.5807 111.524 12.6191 111.517 12.6552C111.406 13.1469 111.499 13.7153 111.838 14.3851C113.982 18.6457 118.28 12.8762 126.436 10.1132C127.561 9.73207 128.758 9.40954 130.033 9.17722C138.945 7.55553 148.262 9.7862 148.96 14.2182C149.044 14.7663 148.999 15.3505 148.8 15.9662C147.019 21.5621 144.041 26.7813 140.278 31.3216C125.064 49.6451 96.9511 56.7995 82.3874 32.3907C85.551 30.5186 88.7914 28.9353 89.2026 26.5287C91.4171 13.6453 103.861 12.2108 111.544 12.5447Z" fill="#E0AB6C"/>
<path d="M148.96 14.2182C142.965 9.40728 135.533 10.2553 130.901 11.7192C121.679 14.631 111.081 26.5287 107.798 17.421C107.154 15.6279 107.328 13.9521 108.245 12.5289C109.406 12.486 110.518 12.4996 111.544 12.5447C111.395 13.0612 111.474 13.6634 111.838 14.3851C114.278 19.2344 119.507 11.0944 130.033 9.17722C138.945 7.55553 148.262 9.7862 148.96 14.2182Z" fill="#D69763"/>
<path d="M89.824 23.9575C95.767 38.6024 117.659 49.1445 140.278 31.3217C125.064 49.6452 96.9511 56.7996 82.3874 32.3908C85.551 30.5187 88.7914 28.9354 89.2026 26.5288C89.3608 25.6153 89.571 24.7605 89.824 23.9575Z" fill="#D69763"/>
<path d="M148.804 15.9661C147.557 20.0101 145.711 23.8738 143.383 27.4262C142.222 29.2035 140.936 30.9019 139.551 32.5168C138.163 34.1295 136.681 35.6609 135.099 37.0887C131.936 39.9373 128.415 42.4184 124.592 44.34C120.777 46.2707 116.66 47.6601 112.394 48.2759C111.861 48.3435 111.327 48.4247 110.789 48.4631L109.983 48.5352L109.176 48.5736L108.774 48.5961C108.638 48.6006 108.503 48.6006 108.367 48.6006L107.558 48.6097C107.287 48.6097 107.018 48.5961 106.747 48.5871C106.476 48.5758 106.207 48.5781 105.938 48.5533C105.398 48.5127 104.86 48.4811 104.32 48.4067C104.053 48.3751 103.784 48.3503 103.518 48.3097L102.713 48.1766C102.582 48.1563 102.449 48.1383 102.313 48.1112L101.918 48.0278L101.12 47.8608L100.332 47.6579C100.07 47.5902 99.8051 47.5248 99.5475 47.4436L98.7679 47.2C98.6391 47.1639 98.5126 47.1188 98.3838 47.0714L98.0019 46.9338L97.6177 46.794C97.4912 46.7511 97.3624 46.7038 97.2358 46.6497L96.4856 46.3406C96.3613 46.2865 96.2325 46.2392 96.1105 46.1805L95.7422 46.0091L95.0033 45.6595L94.2847 45.2806C94.0452 45.152 93.8011 45.0302 93.5706 44.8881C91.6883 43.8032 89.9303 42.5086 88.3236 41.0493L88.17 40.914L88.0231 40.7719L87.7293 40.4899L87.1463 39.9261C86.7735 39.5359 86.3984 39.1434 86.0301 38.7442C85.6798 38.3337 85.3183 37.93 84.9748 37.5127L84.4709 36.8744L84.2201 36.5564L84.0958 36.3985L83.9737 36.2338L83.4992 35.5797L83.2619 35.2504L83.1422 35.0858L83.0315 34.9189C82.7332 34.4655 82.4258 34.0212 82.1389 33.5678C81.9852 33.3152 81.8316 33.0671 81.6802 32.8168C82.1524 32.5281 82.6292 32.2461 83.1038 31.971C83.2484 32.2123 83.3953 32.4536 83.5376 32.695C83.8065 33.1371 84.1003 33.5679 84.3782 34.0054L84.4844 34.1678L84.5997 34.3257L84.8234 34.6437L85.2708 35.2775C86.4956 36.9466 87.8559 38.5209 89.3586 39.9328C90.8658 41.3493 92.5154 42.6056 94.2824 43.6679C94.5016 43.81 94.7344 43.9273 94.9581 44.0536L95.6337 44.4235L96.3297 44.7663L96.68 44.94C96.793 44.9941 96.915 45.0437 97.0302 45.0934L97.7443 45.4046C97.8595 45.4565 97.9793 45.5016 98.1036 45.549L98.4629 45.6843L98.8267 45.8219C98.9464 45.867 99.0707 45.9166 99.1905 45.9527L99.9271 46.1918C100.171 46.2775 100.422 46.3452 100.673 46.4128L101.421 46.6181L102.178 46.7895L102.557 46.8775C102.682 46.9023 102.813 46.9248 102.937 46.9451L103.703 47.085C103.961 47.1301 104.218 47.1594 104.471 47.191C104.987 47.2722 105.504 47.3105 106.019 47.3579C106.277 47.3872 106.537 47.3894 106.797 47.4052C107.056 47.4165 107.316 47.4346 107.574 47.4391L108.356 47.4458C108.485 47.4458 108.613 47.4503 108.747 47.4481L109.135 47.4368L109.917 47.412L110.695 47.3556C111.214 47.3286 111.734 47.2586 112.251 47.2045C116.393 46.6857 120.441 45.4091 124.214 43.5799C126.103 42.6687 127.936 41.6267 129.683 40.4583C131.434 39.2968 133.113 38.0202 134.706 36.6443C137.89 33.8881 140.721 30.7214 143.123 27.2525C145.516 23.7791 147.46 19.9808 148.804 15.9661Z" fill="#CC834B"/>
<path d="M123.982 12.8355C123.86 12.7475 123.769 12.5265 123.857 12.4204C123.925 12.3483 123.997 12.355 124.054 12.3956C124.158 12.4701 124.232 12.6618 124.212 12.7655C124.153 12.8918 124.061 12.8918 123.982 12.8355Z" fill="#DB9F60"/>
<path d="M137.18 18.1565C136.954 17.9941 136.966 17.5994 137.244 17.4799C137.359 17.4325 137.467 17.3738 137.576 17.3084C137.822 17.1257 138.102 16.7807 138.389 16.9882C138.419 17.0085 138.444 17.0333 138.471 17.0626C138.841 17.6287 137.763 18.2557 137.28 18.2084C137.244 18.1971 137.207 18.1791 137.18 18.1565Z" fill="#D18D58"/>
<path d="M137.257 13.036C137.239 13.0247 137.221 13.0021 137.207 12.9773C136.85 12.6029 137.106 11.7526 137.684 12.0661C137.897 12.2556 137.553 12.4992 137.352 12.4157V12.4225C137.33 12.5736 137.424 12.7134 137.494 12.8442C137.569 12.9954 137.372 13.1194 137.257 13.036ZM137.352 12.4157V12.4202V12.4157Z" fill="#D18D58"/>
<path d="M131.888 11.2411C131.838 11.205 131.809 11.1463 131.836 11.0697C131.884 10.9433 132.119 10.923 132.232 11.0042C132.275 11.0358 132.302 11.0809 132.297 11.1418C132.281 11.3065 132.012 11.3313 131.888 11.2411Z" fill="#DB9F60"/>
<path d="M137.275 30.5253C137.135 30.4261 137.063 30.2231 137.221 30.0562C137.386 29.8577 137.707 29.869 137.903 30.0088C138.014 30.09 138.089 30.2141 138.077 30.3652C138.066 30.6313 137.752 30.7103 137.567 30.5795C137.567 30.5795 137.564 30.5772 137.562 30.5749C137.463 30.611 137.357 30.5862 137.275 30.5253Z" fill="#D18D58"/>
<path d="M132.453 28.7641C132.277 28.6378 132.286 28.392 132.376 28.207C132.467 28.0198 132.641 27.8913 132.792 27.9995C132.855 28.0469 132.916 28.1371 132.968 28.2837C132.991 28.516 132.959 28.8318 132.661 28.8386C132.571 28.8273 132.503 28.8002 132.453 28.7641Z" fill="#D18D58"/>
<path d="M124.915 32.5281C124.879 32.5033 124.854 32.4784 124.827 32.4491C124.675 32.2191 124.906 31.901 125.17 31.9777C125.279 32.0093 125.389 32.0319 125.5 32.0431C125.471 32.0386 125.444 32.0364 125.414 32.0319C125.561 32.0634 125.733 32.0161 125.875 32.0364C125.624 32.2326 125.364 32.4288 125.1 32.6205C125.035 32.598 124.969 32.5687 124.915 32.5281Z" fill="#DB9F60"/>
<path d="M125.1 29.7548C125.364 29.5631 125.624 29.3669 125.875 29.1707C125.925 29.1774 125.972 29.1932 126.015 29.2248C126.031 29.2361 126.04 29.2451 126.051 29.2519C126.25 29.4368 126.115 29.7909 125.839 29.7954C125.613 29.8044 125.331 29.827 125.1 29.7548Z" fill="#D18D58"/>
<path d="M136.634 23.0893C136.586 23.0554 136.57 22.9945 136.627 22.9088C136.672 22.7848 136.814 22.7622 136.882 22.8119C136.925 22.8412 136.945 22.9066 136.889 22.99C136.841 23.1163 136.701 23.1366 136.634 23.0893Z" fill="#D18D58"/>
<path d="M129.265 38.2596C129.188 38.2054 129.14 38.0611 129.183 37.9709C129.24 37.8919 129.301 37.8897 129.353 37.9258C129.427 37.9799 129.475 38.1265 129.432 38.2145C129.375 38.2934 129.314 38.2957 129.265 38.2596Z" fill="#D18D58"/>
<path d="M115.187 30.6469C115.114 30.595 115.133 30.5025 115.187 30.4349C115.246 30.3695 115.338 30.3311 115.424 30.3943C115.426 30.3965 115.435 30.401 115.442 30.4078C115.564 30.5251 115.417 30.683 115.279 30.6762C115.239 30.6717 115.207 30.6627 115.187 30.6469Z" fill="#DB9F60"/>
<path d="M110.299 18.3841C110.286 18.2375 110.584 18.0818 110.713 18.1743C110.717 18.1766 110.719 18.1811 110.724 18.1833C110.749 18.2081 110.758 18.2307 110.765 18.2532C110.688 18.2916 110.611 18.3299 110.532 18.3412C110.566 18.3344 110.6 18.3254 110.629 18.3141C110.523 18.348 110.414 18.3705 110.299 18.3841Z" fill="#D18D58"/>
<path d="M115.279 41.0308C115.18 40.9586 115.112 40.8414 115.119 40.7173C115.117 40.7151 115.117 40.7151 115.112 40.7128C114.85 40.5256 114.963 40.0001 115.374 40.0565C115.467 40.0632 115.551 40.0971 115.627 40.1512C115.871 40.3271 115.966 40.7083 115.772 40.9632C115.632 41.1481 115.429 41.1368 115.279 41.0308Z" fill="#D18D58"/>
<path d="M113.334 44.845C113.151 44.7142 113.121 44.5134 113.182 44.3375C113.067 44.1954 113.042 43.9789 113.234 43.8345C113.528 43.6631 113.77 43.6879 113.939 43.8097C114.36 44.1119 114.303 45.0277 113.449 44.9104C113.404 44.8901 113.366 44.8698 113.334 44.845Z" fill="#D18D58"/>
<path d="M113.503 35.0989C113.474 35.0786 113.449 35.0538 113.42 35.0177C113.103 34.4516 113.906 34.1809 114.193 34.3862C114.315 34.4742 114.339 34.6478 114.141 34.923C113.969 35.0809 113.704 35.2433 113.503 35.0989Z" fill="#DB9F60"/>
<path d="M117.663 43.6499C117.618 43.616 117.573 43.5641 117.546 43.4942C117.395 43.1311 117.844 42.8807 118.097 43.0634C118.145 43.0973 118.19 43.1491 118.215 43.2168C118.364 43.5777 117.919 43.8326 117.663 43.6499Z" fill="#D18D58"/>
<path d="M118.552 37.7988C118.561 37.7875 118.57 37.7761 118.577 37.7647L118.579 37.7625C118.57 37.7761 118.561 37.7852 118.552 37.7988Z" fill="#D18D58"/>
<path d="M123.141 43.7401C123.048 43.6747 122.987 43.562 123.012 43.4154C123.017 43.3702 123.037 43.3048 123.062 43.271C123.179 43.0522 123.491 43.0003 123.69 43.1424C123.692 43.1447 123.692 43.1447 123.692 43.1447C124.108 43.4808 123.695 43.9025 123.383 43.8146C123.299 43.8168 123.209 43.7898 123.141 43.7401ZM123.152 43.5529C123.155 43.5665 123.159 43.5823 123.164 43.598L123.175 43.6184C123.168 43.5981 123.157 43.5755 123.152 43.5529Z" fill="#D18D58"/>
<path d="M105.773 45.1184C105.592 44.9899 105.515 44.7102 105.744 44.5365C105.92 44.3989 106.153 44.4237 106.317 44.5433C106.455 44.6403 106.546 44.8027 106.521 44.9876C106.476 45.3056 106.134 45.3575 105.933 45.2131C105.918 45.2019 105.902 45.1883 105.888 45.1748C105.847 45.1635 105.807 45.1432 105.773 45.1184Z" fill="#D18D58"/>
<path d="M117.957 46.7312C118.007 46.6703 118.059 46.6658 118.111 46.6928C118.061 46.7064 118.009 46.7176 117.957 46.7312Z" fill="#D18D58"/>
<path d="M118.1 47.1886C118.005 47.1187 117.903 46.8796 117.93 46.7668C117.941 46.7533 117.948 46.742 117.957 46.7307C118.009 46.7172 118.061 46.7059 118.111 46.6924C118.12 46.6946 118.127 46.6992 118.133 46.7037C118.303 46.8255 118.411 47.272 118.109 47.1931C118.104 47.1909 118.104 47.1909 118.1 47.1886Z" fill="#C77A43"/>
<path d="M109.813 45.0326C109.791 45.019 109.773 44.9965 109.764 44.9717C109.705 44.8273 109.883 44.7258 109.983 44.798C110.001 44.8093 110.019 44.8318 110.03 44.8612C110.089 45.0033 109.913 45.1048 109.813 45.0326Z" fill="#D18D58"/>
<path d="M121.478 34.9123C121.421 34.8604 121.405 34.7837 121.489 34.7048C121.588 34.6371 121.71 34.6642 121.79 34.7206C121.792 34.7228 121.796 34.7273 121.801 34.7296C121.69 34.7882 121.586 34.8514 121.478 34.9123Z" fill="#DB9F60"/>
<path d="M121.494 34.9255C121.487 34.921 121.48 34.9142 121.478 34.9119C121.586 34.851 121.69 34.7879 121.801 34.7292C121.9 34.8104 121.916 34.939 121.699 34.9728C121.631 34.9864 121.552 34.9661 121.494 34.9255Z" fill="#D18D58"/>
<path d="M102.435 38.3408C102.316 38.2551 102.449 38.0025 102.603 37.9731C102.652 37.9731 102.686 37.9844 102.711 38.0025C102.831 38.0882 102.697 38.3385 102.544 38.3701C102.496 38.3701 102.46 38.3588 102.435 38.3408Z" fill="#D18D58"/>
<path d="M127.38 40.0702C127.362 40.0567 127.344 40.0364 127.33 40.0071C127.272 39.8627 127.452 39.7635 127.554 39.8357C127.572 39.8492 127.588 39.8695 127.602 39.8966C127.66 40.0432 127.484 40.1447 127.38 40.0702Z" fill="#D18D58"/>
<path d="M99.9746 30.7713C99.7803 30.6338 99.6966 30.3338 99.9497 30.1488C100.164 29.9752 100.474 30.0045 100.686 30.1578C100.815 30.2503 100.906 30.3834 100.926 30.548C100.976 30.927 100.54 31.0623 100.302 30.8931C100.28 30.8773 100.264 30.8616 100.246 30.8413C100.149 30.857 100.049 30.8255 99.9746 30.7713Z" fill="#DB9F60"/>
<path d="M101.611 35.225C101.538 35.1732 101.484 35.1032 101.446 35.022C101.376 35.013 101.308 34.9882 101.254 34.9499C101.152 34.8777 101.091 34.7581 101.113 34.6003C101.294 33.98 101.798 33.962 102.124 34.1965C102.44 34.4243 102.582 34.889 102.074 35.2611C101.884 35.3356 101.724 35.3085 101.611 35.225Z" fill="#DB9F60"/>
<path d="M94.5581 27.6654C94.1174 27.3473 94.6395 26.5805 94.9829 26.7158C94.94 26.8263 94.9468 26.9571 95.0372 27.0767C95.0439 27.0857 95.0485 27.0925 95.0552 27.0992C95.0665 27.1128 95.0801 27.1263 95.0891 27.1353L95.0936 27.1376C95.1004 27.1443 95.1095 27.1511 95.1162 27.1579C95.1208 27.1601 95.1208 27.1601 95.1253 27.1624C95.1253 27.1624 95.1253 27.1624 95.1275 27.1646C95.1524 27.1827 95.1773 27.1962 95.2021 27.2052C95.2066 27.2052 95.2112 27.2075 95.2157 27.2097C95.1863 27.4827 95.0756 27.8029 94.7411 27.7533C94.6666 27.7285 94.6055 27.6992 94.5581 27.6654Z" fill="#DB9F60"/>
<path d="M85.9984 30.2319C86.03 30.25 86.0594 30.2658 86.0865 30.2861C86.2582 30.4101 86.3125 30.5928 86.0639 30.8545C85.7927 30.956 85.4131 30.9289 85.0945 30.8026C85.4063 30.6131 85.7069 30.4237 85.9984 30.2319Z" fill="#D18D58"/>
<path d="M109.949 37.5981C109.614 37.3568 109.908 36.7546 110.335 36.9395C110.365 36.9531 110.392 36.9689 110.414 36.9846C110.746 37.2237 110.453 37.8259 110.03 37.6432C110.001 37.632 109.974 37.6162 109.949 37.5981Z" fill="#DB9F60"/>
<path d="M102.82 42.2854C102.707 42.2064 102.661 42.035 102.858 41.9921C102.91 41.9854 102.966 42.0034 103.009 42.035C103.086 42.0891 103.125 42.1793 103.057 42.265C102.982 42.3462 102.887 42.335 102.82 42.2854Z" fill="#D18D58"/>
<path d="M106.955 33.4638C106.839 33.3803 106.788 33.2698 106.943 33.1751C107.034 33.1571 107.194 33.2067 107.303 33.2834C107.413 33.3646 107.468 33.4773 107.307 33.5698C107.221 33.5901 107.059 33.5382 106.955 33.4638Z" fill="#DB9F60"/>
<path d="M99.2808 38.0061C99.1475 37.9114 99.2627 37.6678 99.4322 37.74C99.4458 37.7467 99.4571 37.7535 99.4639 37.758C99.5972 37.855 99.4819 38.0963 99.3102 38.0242C99.2989 38.0174 99.2876 38.0106 99.2808 38.0061Z" fill="#D18D58"/>
<path d="M89.3653 26.7496C89.3111 26.6752 89.2546 26.6007 89.2026 26.5286C89.2071 26.5308 89.2139 26.5353 89.2207 26.5421C89.2817 26.585 89.3314 26.6526 89.3653 26.7496Z" fill="#DB9F60"/>
<path d="M89.2026 26.5286C89.2546 26.6007 89.3111 26.6752 89.3653 26.7496C89.3721 26.7699 89.3766 26.7879 89.3811 26.8105C89.3811 26.9842 89.2252 27.0135 89.0942 26.9616C89.1394 26.8218 89.1778 26.6774 89.2026 26.5286Z" fill="#D18D58"/>
<path d="M88.7462 38.3497C88.6355 38.2708 88.597 38.0114 88.7326 37.9302C88.7959 37.9031 88.8433 37.9031 88.884 37.9324C88.9812 38.0024 88.9993 38.2121 88.936 38.3136C88.8614 38.3858 88.7959 38.3858 88.7462 38.3497Z" fill="#D18D58"/>
<path d="M108.988 21.287C108.857 21.19 108.975 20.951 109.144 21.0231C109.153 21.0276 109.167 21.0344 109.176 21.0412C109.309 21.1359 109.194 21.3795 109.025 21.3051C109.011 21.3006 109 21.2938 108.988 21.287Z" fill="#DB9F60"/>
<path d="M95.1253 27.1625C95.1208 27.1602 95.1208 27.1602 95.1162 27.158C95.1095 27.1512 95.1004 27.1444 95.0936 27.1377L95.0891 27.1354C95.0801 27.1264 95.0665 27.1129 95.0552 27.0993C95.0484 27.0926 95.0439 27.0858 95.0371 27.0768C94.9468 26.9572 94.94 26.8264 94.9829 26.7159C95.0733 26.5016 95.3625 26.3641 95.5749 26.5174C95.6066 26.54 95.636 26.567 95.6631 26.6031C95.9184 26.9369 95.5275 27.3204 95.2157 27.2099C95.2111 27.2076 95.2066 27.2053 95.2021 27.2053C95.1773 27.1963 95.1524 27.1828 95.1275 27.1647C95.1253 27.1625 95.1253 27.1625 95.1253 27.1625Z" fill="#DB9F60"/>
<path d="M141.442 16.3898C141.18 16.1869 141.214 15.9275 141.358 15.7493C141.302 15.5801 141.358 15.3749 141.582 15.3072C141.808 15.2644 141.98 15.305 142.102 15.3929C142.57 15.729 142.262 16.771 141.442 16.3898Z" fill="#D6925B"/>
<path d="M140.369 10.7289C140.122 10.5507 140.12 10.2733 140.24 10.0161C140.208 9.89435 140.242 9.75902 140.396 9.65076C140.482 9.60565 140.561 9.57182 140.64 9.54701C140.775 9.45453 140.925 9.4004 141.065 9.40942C141.105 9.4207 141.142 9.43874 141.175 9.4613C141.196 9.47709 141.212 9.49288 141.232 9.51092C141.279 9.52671 141.322 9.55152 141.363 9.57858C141.858 9.93495 141.51 11.0672 140.394 10.7469C140.385 10.7379 140.376 10.7334 140.369 10.7289Z" fill="#D6925B"/>
<path d="M134.527 14.153C134.473 14.1146 134.433 14.065 134.408 14.0086C134.209 13.8552 134.179 13.4718 134.498 13.3771C134.64 13.332 134.783 13.3681 134.898 13.4492C135.052 13.562 135.144 13.7582 135.09 13.9545C135.022 14.268 134.713 14.2883 134.527 14.153Z" fill="#E0A564"/>
<path d="M135.904 19.9066C135.834 19.8548 135.827 19.751 135.865 19.6743C135.899 19.5976 135.976 19.5503 136.071 19.6179C136.073 19.6202 136.078 19.6247 136.084 19.6292C136.182 19.7285 136.125 19.9721 135.953 19.9292C135.935 19.9269 135.915 19.9157 135.904 19.9066Z" fill="#D6925B"/>
<path d="M138.073 15.258C138.041 15.2354 138.021 15.2016 138.019 15.152C138.016 15.0211 138.166 14.9783 138.249 15.0392C138.281 15.0617 138.301 15.0956 138.303 15.1452C138.306 15.276 138.157 15.3189 138.073 15.258Z" fill="#D6925B"/>
<path d="M141.804 20.9397C141.686 20.854 141.743 20.5495 141.964 20.5901C141.994 20.5969 142.014 20.6059 142.027 20.6149C142.039 20.624 142.048 20.633 142.055 20.6398C142.05 20.651 142.05 20.6668 142.048 20.6781C142.032 20.7593 142.014 20.8382 141.998 20.9194C141.994 20.9262 141.985 20.9307 141.975 20.9352C141.901 20.9736 141.844 20.969 141.804 20.9397Z" fill="#D6925B"/>
<path d="M141.998 20.9193C142.014 20.8381 142.032 20.7592 142.048 20.678C142.05 20.6667 142.05 20.6509 142.055 20.6396C142.118 20.7186 142.082 20.8517 141.998 20.9193Z" fill="#CC7E45"/>
<path d="M140.33 14.9716C139.921 14.6761 140.371 14.031 140.789 14.3197C140.794 14.322 140.798 14.3242 140.8 14.3265C141.207 14.6197 140.76 15.267 140.337 14.9761C140.335 14.9738 140.33 14.9716 140.33 14.9716Z" fill="#D6925B"/>
<path d="M132.313 27.1532C132.069 26.9795 131.922 26.7359 132.062 26.4653C132.18 26.2894 132.44 26.2375 132.614 26.3615C132.616 26.3638 132.616 26.3638 132.616 26.3638C132.634 26.3773 132.652 26.3909 132.665 26.3999C132.74 26.454 132.819 26.5036 132.903 26.5487C133.07 26.5961 133.271 26.6796 133.422 26.7878C133.662 26.9615 133.768 27.1983 133.395 27.4577C133.124 27.5096 132.632 27.3833 132.313 27.1532Z" fill="#D6925B"/>
<path d="M136.593 24.275C136.527 24.2299 136.493 24.1419 136.552 24.0607C136.661 23.684 137.171 23.4743 137.436 23.666C137.526 23.7314 137.587 23.8442 137.594 24.0156C137.553 24.2005 137.372 24.1848 137.246 24.0945C137.178 24.0472 137.126 23.9773 137.115 23.9006L137.113 23.9051C136.968 23.9615 136.891 24.1126 136.814 24.2411C136.758 24.3269 136.658 24.3223 136.593 24.275ZM137.115 23.9006L137.113 23.9028L137.115 23.9006Z" fill="#D6925B"/>
<path d="M134.618 35.6453C134.541 35.5889 134.527 35.4401 134.566 35.325C134.609 35.2145 134.692 35.1333 134.819 35.2258C134.83 35.2326 134.837 35.2393 134.846 35.2483C134.912 35.3521 134.882 35.5348 134.805 35.6273C134.722 35.6769 134.663 35.6769 134.618 35.6453Z" fill="#D6925B"/>
<path d="M135.522 18.8145C135.382 18.7152 135.309 18.4356 135.513 18.3972C135.556 18.3905 135.594 18.404 135.635 18.4333C135.764 18.5258 135.836 18.7626 135.68 18.8348C135.623 18.8618 135.567 18.8483 135.522 18.8145Z" fill="#D6925B"/>
<path d="M122.976 40.7111C122.908 40.6615 122.865 40.569 122.958 40.4878C123.008 40.445 123.066 40.4562 123.114 40.4901C123.15 40.5149 123.179 40.5577 123.191 40.5983C123.211 40.7743 123.069 40.7765 122.976 40.7111Z" fill="#D6925B"/>
<path d="M131.235 38.5636C131.174 38.5185 131.131 38.4508 131.115 38.3516C131.038 37.9681 131.538 37.6163 131.854 37.8418C131.868 37.8531 131.881 37.8644 131.895 37.8757C132.098 38.0561 131.956 38.3583 131.737 38.4125C131.671 38.611 131.398 38.6786 131.235 38.5636Z" fill="#D6925B"/>
<path d="M126.808 41.2208C126.497 40.9975 126.402 40.3367 127.052 40.5758C127.071 40.587 127.093 40.6028 127.111 40.6141C127.29 40.7449 127.464 40.9479 127.299 41.1622C127.125 41.3359 126.946 41.3201 126.808 41.2208Z" fill="#D6925B"/>
<path d="M133.165 35.7327C133.007 35.6199 132.941 35.3718 133.138 35.2207C133.267 35.1237 133.402 35.1418 133.502 35.2139C133.658 35.3244 133.725 35.5703 133.526 35.7214C133.402 35.8207 133.267 35.8049 133.165 35.7327Z" fill="#D6925B"/>
<path d="M127.999 36.0239C127.52 35.6788 128.112 34.9999 128.878 35.133C129.054 35.1082 129.206 35.1488 129.319 35.2165C129.337 35.2232 129.353 35.23 129.366 35.2345L129.364 35.2458C129.656 35.4578 129.653 35.8796 129.145 35.8119C129.086 35.8954 129.003 35.9495 128.914 35.9743C128.91 36.1457 128.768 36.2765 128.474 36.1886L128.444 36.1841L128.458 36.1908L128.431 36.1818C128.236 36.148 128.096 36.0939 127.999 36.0239ZM128.471 36.1886C128.458 36.1841 128.442 36.1796 128.429 36.1773H128.433C128.447 36.1818 128.458 36.1841 128.471 36.1886Z" fill="#D6925B"/>
<path d="M131.942 31.0617C131.809 30.967 131.748 30.773 131.809 30.6129C131.922 30.3445 132.143 30.3467 132.295 30.455C132.381 30.5159 132.442 30.6129 132.446 30.7099C132.501 30.8835 132.428 31.1001 132.195 31.1271C132.155 31.1294 132.096 31.1294 132.062 31.1159C132.019 31.1068 131.979 31.0888 131.942 31.0617ZM132.324 30.9467C132.313 30.9557 132.302 30.9647 132.29 30.9715L132.313 30.9557L132.324 30.9467Z" fill="#D6925B"/>
<path d="M117.894 40.4152C117.74 40.3047 117.672 40.0589 117.871 39.9055C117.996 39.8063 118.131 39.8243 118.231 39.8965C118.389 40.0093 118.459 40.2551 118.26 40.4085C118.131 40.5032 117.996 40.4874 117.894 40.4152Z" fill="#D6925B"/>
<path d="M120.233 36.2583C120.077 36.1478 120.011 35.8997 120.208 35.7486C120.334 35.6494 120.468 35.6651 120.572 35.7418C120.728 35.8524 120.795 36.0982 120.597 36.2493C120.472 36.3486 120.332 36.3305 120.233 36.2583Z" fill="#D6925B"/>
<path d="M136.15 34.6187C136.121 34.5984 136.105 34.5623 136.1 34.4992C136.136 34.3819 136.383 34.1992 136.487 34.2736C136.516 34.2939 136.532 34.3323 136.532 34.3932C136.498 34.5082 136.254 34.6932 136.15 34.6187Z" fill="#CC7E45"/>
<path d="M125.179 34.4342C125.154 34.4161 125.134 34.3868 125.118 34.3395C125.025 34.1861 125.181 34.0169 125.285 34.0914C125.31 34.1094 125.333 34.141 125.344 34.1838C125.439 34.3395 125.283 34.5086 125.179 34.4342Z" fill="#D6925B"/>
<path d="M136.046 30.1507C135.985 30.1078 135.958 30.0086 136.035 29.9477C136.087 29.9071 136.141 29.9138 136.182 29.9432C136.245 29.9883 136.272 30.0875 136.191 30.1462C136.141 30.1868 136.084 30.18 136.046 30.1507Z" fill="#D6925B"/>
<path d="M119.749 45.0029C119.717 44.9804 119.699 44.9443 119.704 44.8924C119.72 44.7729 119.934 44.7165 120.032 44.7864C120.056 44.8044 120.075 44.8315 120.077 44.8653C120.097 45.0142 119.853 45.0773 119.749 45.0029Z" fill="#D6925B"/>
<path d="M108.141 42.4029C108.08 42.36 108.091 42.263 108.137 42.1909C108.182 42.1209 108.263 42.0758 108.349 42.1367C108.356 42.1435 108.363 42.148 108.369 42.1548C108.46 42.2495 108.372 42.3803 108.272 42.4187C108.209 42.4299 108.166 42.4209 108.141 42.4029Z" fill="#D6925B"/>
<path d="M99.8797 33.1592C99.7305 33.051 99.9994 32.7375 100.158 32.8051C100.171 32.8096 100.178 32.8164 100.185 32.8209C100.345 32.9359 100.099 33.1728 99.9633 33.1886C99.9271 33.184 99.8977 33.1728 99.8797 33.1592Z" fill="#E0A564"/>
<path d="M108.035 46.8755C107.531 46.4402 108.301 45.8944 108.582 46.0951C108.672 46.1605 108.715 46.3049 108.647 46.5575C108.53 46.7808 108.308 47.0469 108.035 46.8755Z" fill="#D6925B"/>
<path d="M108.087 37.1632C108.069 37.1519 108.051 37.1316 108.03 37.1136C107.75 36.8091 108.177 36.3828 108.475 36.5971C108.496 36.6128 108.516 36.6286 108.534 36.6489C108.817 36.9557 108.39 37.3797 108.087 37.1632Z" fill="#E0A564"/>
<path d="M112.773 39.295C112.753 39.2792 112.737 39.2634 112.715 39.2408C112.437 38.9386 112.859 38.51 113.162 38.7266C113.182 38.7424 113.201 38.7582 113.221 38.7807C113.499 39.0829 113.076 39.5115 112.773 39.295Z" fill="#D6925B"/>
<path d="M98.8086 45.4223C98.8063 45.3411 98.838 45.2599 98.9103 45.1742C99.0278 45.0682 99.2176 45.0592 99.3441 45.1494C99.3622 45.1629 99.3825 45.1787 99.3961 45.1967C99.4752 45.2915 99.5611 45.3772 99.6514 45.4539C99.6334 45.4358 99.6085 45.4178 99.5859 45.3975C99.6062 45.42 99.6311 45.4403 99.656 45.4584C99.7011 45.49 99.7531 45.5193 99.8028 45.5486C99.8526 45.5757 99.9 45.6027 99.9475 45.6366C100.018 45.6862 100.081 45.7539 100.103 45.8486L99.8706 45.7809C99.5113 45.6659 99.1611 45.5463 98.8086 45.4223Z" fill="#D6925B"/>
<path d="M99.2243 45.9865C99.0097 45.8309 98.804 45.6324 98.8085 45.4226C99.1611 45.5467 99.5113 45.6662 99.8706 45.7812L100.103 45.8489C100.101 45.8512 100.106 45.8534 100.103 45.8557C100.171 46.1399 99.8367 46.3767 99.5859 46.2165C99.4887 46.1579 99.3531 46.079 99.2243 45.9865Z" fill="#CC7E45"/>
<path d="M103.138 44.2132C103.134 44.2109 103.127 44.2042 103.125 44.2019C103.018 43.8117 103.644 43.6178 103.911 43.8072C104.008 43.8771 104.056 43.9922 104.01 44.1658C103.956 44.2899 103.848 44.2809 103.76 44.22C103.685 44.1658 103.628 44.0711 103.635 43.9854H103.631L103.635 43.9831C103.439 43.9786 103.33 44.353 103.138 44.2132Z" fill="#D6925B"/>
<path d="M115.119 44.1441C115.067 44.1058 115.047 44.0358 115.114 43.9479C115.209 43.8554 115.352 43.8712 115.426 43.9253C115.499 43.9772 115.512 44.0697 115.37 44.1464C115.291 44.196 115.185 44.1915 115.119 44.1441Z" fill="#D6925B"/>
<path d="M103.294 39.4453C103.168 39.3551 103.145 39.0642 103.335 39.0664C103.36 39.0687 103.38 39.0777 103.403 39.0912C103.518 39.1747 103.554 39.4341 103.394 39.4656C103.355 39.4747 103.323 39.4656 103.294 39.4453Z" fill="#D6925B"/>
<path d="M90.5607 39.4753C90.4341 39.385 90.3664 39.2091 90.4115 39.0535C90.5042 38.7535 90.755 38.7535 90.9155 38.8685C90.9945 38.9272 91.051 39.0061 91.0646 39.0941C91.1346 39.2632 91.0804 39.4888 90.8499 39.5361C90.8115 39.5429 90.7482 39.5474 90.7121 39.5361C90.6578 39.5294 90.6059 39.5091 90.5607 39.4753Z" fill="#D6925B"/>
<path d="M99.1747 41.7301C99.0233 41.6219 98.951 41.3986 99.1272 41.2362C99.2538 41.1144 99.4097 41.1324 99.5181 41.2091C99.6695 41.3174 99.7396 41.5429 99.5679 41.7076C99.4368 41.8271 99.2854 41.8113 99.1747 41.7301Z" fill="#D6925B"/>
<path d="M95.1501 42.6846C95.1253 42.6665 95.1072 42.6304 95.0981 42.574C95.123 42.45 95.3625 42.238 95.471 42.3146C95.5004 42.3349 95.5185 42.371 95.5252 42.4274C95.4981 42.5492 95.2609 42.7635 95.1501 42.6846Z" fill="#D6925B"/>
<path d="M94.6304 38.1891C94.5694 38.144 94.54 38.0561 94.6101 37.9906C94.6598 37.941 94.7208 37.9478 94.7682 37.9816C94.8247 38.0222 94.8541 38.1124 94.784 38.1779C94.7343 38.2252 94.6733 38.2185 94.6304 38.1891Z" fill="#D6925B"/>
<path d="M86.5113 37.0209C86.4503 36.9758 86.4209 36.8878 86.491 36.8224C86.5429 36.7728 86.604 36.7796 86.6491 36.8134C86.7079 36.854 86.735 36.9442 86.6672 37.0096C86.6153 37.0593 86.5542 37.0525 86.5113 37.0209Z" fill="#D6925B"/>
<path d="M87.9689 32.814C87.9259 32.7824 87.9033 32.7283 87.9237 32.6403C87.9689 32.5321 88.1225 32.4554 88.2152 32.523C88.2378 32.5388 88.2559 32.5591 88.2671 32.5885C88.344 32.7847 88.0818 32.8975 87.9689 32.814Z" fill="#D6925B"/>
<path d="M120.757 14.1236C120.694 14.0627 120.68 13.9454 120.78 13.8867C120.838 13.8529 120.892 13.8619 120.935 13.8935C120.985 13.9296 121.017 13.9995 120.999 14.0604C120.92 14.0807 120.838 14.1033 120.757 14.1236Z" fill="#D0975C"/>
<path d="M106.044 15.695L106.042 15.6904L106.044 15.695Z" fill="#C78554"/>
<path d="M126.103 13.9068C126.056 13.8729 126.013 13.8211 125.984 13.7556C125.726 12.9572 126.555 12.7068 126.976 13.0091C127.165 13.1467 127.269 13.3925 127.154 13.7489C126.973 14.0579 126.693 14.0556 126.485 13.9293C126.363 13.9834 126.219 13.988 126.103 13.9068Z" fill="#D0975C"/>
<path d="M134.738 11.4915C134.5 11.3201 134.512 10.86 134.884 10.7991C134.993 10.781 135.086 10.8081 135.156 10.8577C135.391 11.0269 135.379 11.487 135.007 11.5479C134.898 11.5659 134.805 11.5389 134.738 11.4915Z" fill="#D0975C"/>
<path d="M129.009 10.4201C128.957 10.384 128.914 10.3299 128.892 10.2577C128.765 9.91265 129.186 9.69161 129.423 9.86303C129.473 9.89912 129.511 9.95099 129.54 10.0232C129.662 10.366 129.242 10.587 129.009 10.4201Z" fill="#D0975C"/>
<path d="M111.072 17.8085C109.305 16.2815 109.877 14.6982 111.517 12.6547C111.406 13.1464 111.499 13.7148 111.838 14.3847C113.982 18.6453 118.28 12.8758 126.435 10.1128C120.965 12.454 114.129 20.4519 111.072 17.8085Z" fill="#BF7644"/>
<path d="M140.278 31.3218C139.241 32.7112 138.136 34.0532 136.954 35.3275C135.775 36.5996 134.521 37.8085 133.206 38.9476C130.575 41.2233 127.69 43.2194 124.596 44.8321C123.048 45.6373 121.453 46.3546 119.812 46.9568C118.174 47.5658 116.493 48.0597 114.78 48.4296C111.363 49.1762 107.818 49.4265 104.324 49.0499C100.831 48.6777 97.3985 47.6808 94.2621 46.0817C92.6961 45.2855 91.2025 44.3404 89.8037 43.2803C88.4027 42.2158 87.0989 41.0316 85.8922 39.7595C84.6878 38.4852 83.5805 37.1206 82.5772 35.6861C82.0191 34.8922 81.4903 34.0802 80.9909 33.2502C81.2101 33.1104 81.4293 32.9705 81.653 32.833C82.1456 33.6494 82.6721 34.4524 83.2212 35.2328C84.2133 36.6334 85.2889 37.9754 86.4662 39.2227C87.6412 40.47 88.9111 41.6271 90.2737 42.6669C91.6341 43.7044 93.0848 44.6269 94.6078 45.4073C96.1331 46.1877 97.7262 46.835 99.369 47.3289C101.007 47.8229 102.695 48.1657 104.399 48.3574C107.811 48.7431 111.287 48.5424 114.656 47.8477C116.344 47.5026 118.005 47.0312 119.629 46.4561C121.254 45.8809 122.847 45.202 124.386 44.4261C127.47 42.8744 130.376 40.9617 133.041 38.7536C134.372 37.6484 135.646 36.4733 136.85 35.2283C138.055 33.9832 139.205 32.6841 140.278 31.3218Z" fill="#AA5631"/>
<path d="M130.033 9.17705C130.887 8.96729 131.753 8.80941 132.627 8.68536C133.499 8.56582 134.378 8.48913 135.26 8.45304C137.024 8.37185 138.801 8.47109 140.552 8.74175C141.424 8.88384 142.296 9.07556 143.148 9.32592C143.998 9.5853 144.834 9.89204 145.632 10.3048C146.42 10.713 147.17 11.225 147.796 11.8656C147.873 11.949 147.945 12.037 148.018 12.1205C148.056 12.1656 148.092 12.2039 148.126 12.249L148.223 12.3843C148.287 12.4768 148.361 12.5648 148.416 12.6618L148.58 12.955C148.632 13.0497 148.669 13.1557 148.716 13.2572C148.739 13.3091 148.761 13.361 148.779 13.4128L148.827 13.573L148.872 13.7309C148.879 13.7579 148.888 13.7827 148.895 13.8121L148.906 13.8933L148.958 14.2203C148.854 13.7895 148.68 13.3903 148.452 13.0249C148.219 12.6618 147.927 12.3438 147.616 12.0505C147.448 11.9175 147.295 11.7663 147.116 11.6468L146.854 11.4573L146.581 11.2837C146.404 11.1664 146.208 11.0694 146.025 10.9611C145.835 10.8596 145.638 10.7694 145.446 10.6724C144.66 10.3206 143.846 10.0296 143.01 9.80633C142.174 9.57402 141.327 9.39584 140.466 9.26051C139.612 9.12067 138.746 9.02819 137.879 8.96278C137.013 8.89286 136.139 8.8658 135.269 8.86354C135.049 8.85678 134.833 8.86354 134.613 8.8658C134.396 8.87031 134.177 8.87256 133.963 8.88384C133.743 8.89061 133.524 8.89286 133.305 8.90414L132.65 8.94023C131.777 8.99436 130.907 9.08232 130.033 9.17705Z" fill="#AA5631"/>
<path d="M130.392 25.3353C130.3 25.2676 130.297 25.015 130.494 25.0443C130.512 25.0489 130.528 25.0579 130.539 25.0646C130.607 25.1143 130.6 25.2293 130.553 25.297C130.489 25.3624 130.433 25.3646 130.392 25.3353Z" fill="#EDC98D"/>
<path d="M132.216 20.5311C131.972 20.3575 132.13 19.8861 132.48 19.9695C132.525 19.9808 132.564 19.9988 132.596 20.0214C132.84 20.1973 132.684 20.6687 132.331 20.583C132.284 20.5717 132.248 20.5559 132.216 20.5311Z" fill="#EDC98D"/>
<path d="M127.52 29.3052C127.193 29.021 127.757 28.4278 128.063 28.6465C128.11 28.6804 128.153 28.739 128.185 28.8247C128.212 29.0119 127.983 29.0277 127.857 28.9375C127.832 28.9195 127.814 28.8992 127.8 28.8744L127.796 28.8789L127.8 28.8744L127.796 28.8789C127.644 28.9826 127.757 29.3322 127.52 29.3052Z" fill="#EDC98D"/>
<path d="M120.972 29.2932C120.922 29.2572 120.881 29.2075 120.852 29.1354C120.703 28.7745 121.152 28.5241 121.403 28.7046C121.453 28.7407 121.494 28.7903 121.523 28.8602C121.672 29.2211 121.227 29.4759 120.972 29.2932Z" fill="#EDC98D"/>
<path d="M128.166 28.2694C128.105 28.2243 128.078 28.1273 128.155 28.0641C128.205 28.0258 128.259 28.0326 128.3 28.0596C128.363 28.107 128.39 28.2062 128.311 28.2649C128.259 28.3032 128.205 28.2965 128.166 28.2694Z" fill="#F0CC8F"/>
<path d="M131.366 19.1867C131.301 19.1416 131.276 19.0559 131.364 18.9634C131.436 18.907 131.554 18.9048 131.622 18.9521C131.662 18.9815 131.685 19.0243 131.678 19.0852C131.653 19.2499 131.466 19.2589 131.366 19.1867Z" fill="#E8C58B"/>
<path d="M132.898 20.0418C132.862 19.2433 132.736 18.4697 132.528 17.7231C132.704 17.757 132.882 17.7908 133.05 17.8224C133.074 18.5802 133.023 19.3313 132.898 20.0418Z" fill="#B18F68"/>
<path d="M60.0984 69.0404C60.0894 69.0832 60.051 69.1216 59.9967 69.099C60.0261 69.0787 60.0532 69.0562 60.0826 69.0291C60.0871 69.0291 60.0939 69.0314 60.1007 69.0269C60.0984 69.0314 60.0984 69.0359 60.0984 69.0404Z" fill="#DB9F60"/>
<path d="M60.1001 69.027C60.0936 69.0314 60.087 69.0292 60.0827 69.0292L60.098 69.0183C60.098 69.0227 60.098 69.027 60.1001 69.027Z" fill="#D18D58"/>
<path d="M59.6443 69.9447C59.6397 69.9672 59.6262 69.9853 59.5968 69.9943C59.5109 70.0033 59.4838 69.9221 59.4951 69.8567C59.5064 69.7913 59.5561 69.7462 59.6217 69.8431C59.6352 69.8725 59.6488 69.9086 59.6443 69.9447Z" fill="#E0A564"/>
<path d="M63.6709 33.6204C45.3878 60.8464 0.164646 47.3969 0.255033 6.187C0.257293 5.05024 0.910343 3.821 2.19159 2.8737C5.04557 0.758055 11.0225 0.0498333 19.9075 4.91491C20.7527 5.37954 21.5616 5.92762 22.3299 6.52984C27.1996 10.3393 30.571 16.2397 33.2939 15.7502C36.3897 22.7761 43.1756 33.2889 55.7349 29.5786C58.0782 28.8862 60.9322 31.0875 64.0144 33.0927C63.8992 33.2686 63.7884 33.4445 63.6709 33.6204Z" fill="#E0AB6C"/>
<path d="M34.7379 18.7114C32.5167 18.4588 30.1146 16.8574 27.8888 13.9208C26.5081 12.0938 22.33 6.52954 22.33 6.52954C27.1996 10.3391 30.5711 16.2371 33.294 15.75C33.7075 16.6905 34.1866 17.6897 34.7379 18.7114Z" fill="#D69763"/>
<path d="M63.6709 33.6198C45.3878 60.8457 0.164646 47.3963 0.255033 6.18635C0.257293 5.04959 0.910343 3.82035 2.19159 2.87305C3.20845 12.4385 14.369 46.4918 44.7415 35.8911C47.9616 34.7678 50.8156 32.765 53.1476 30.1576C53.9814 30.0313 54.8423 29.8396 55.7349 29.578C58.0782 28.8855 60.9322 31.0869 64.0144 33.092C63.8992 33.2679 63.7884 33.4439 63.6709 33.6198Z" fill="#D69763"/>
<path d="M64.7082 33.537C64.5771 33.7445 64.4438 33.952 64.3082 34.1573C63.9987 34.6016 63.6959 35.0527 63.375 35.4903C60.8035 38.9795 57.5472 41.9906 53.8029 44.2235C51.9274 45.3332 49.9344 46.2467 47.8735 46.9459C45.8127 47.6519 43.6728 48.1233 41.5148 48.3871C37.1965 48.9285 32.7901 48.5721 28.6074 47.4692C24.4225 46.3527 20.4454 44.5077 16.9226 42.0199C13.3929 39.5434 10.2972 36.4692 7.81601 32.9687C5.32358 29.4704 3.4277 25.5752 2.14871 21.4995C1.5047 19.4628 1.01887 17.381 0.666357 15.2812C0.316105 13.1745 0.121772 11.0521 0.042683 8.92521L0.0110474 8.12902L0.0042683 7.33509L0.00200861 6.53891C0.00200861 6.40358 -0.00251077 6.27276 0.00200861 6.13518L0.0178264 5.91865L0.0268652 5.81264L0.0449427 5.70889C0.133071 5.14502 0.359039 4.61498 0.661838 4.15261C0.966896 3.68347 1.34878 3.27748 1.77134 2.92788C2.62551 2.23545 3.63785 1.77758 4.67505 1.49114C5.71902 1.21597 6.79689 1.10094 7.86573 1.1077C8.93682 1.11221 10.0011 1.24303 11.0474 1.44603L11.4383 1.52046L11.8292 1.61293C12.0868 1.67834 12.3467 1.73022 12.602 1.80916L13.3681 2.02794L14.1251 2.27604C15.1284 2.6279 16.1181 3.01359 17.0785 3.46694C17.5621 3.68347 18.0321 3.92706 18.5066 4.16388C18.7439 4.28117 18.9766 4.40748 19.2071 4.53604L19.9076 4.91496L19.2003 4.55408C18.9631 4.43229 18.7326 4.30372 18.4908 4.19772C18.0095 3.97217 17.5372 3.7376 17.0468 3.53235C16.0797 3.10606 15.0854 2.74293 14.0799 2.41588L13.3206 2.18582L12.5546 1.9896C12.3015 1.91517 12.0416 1.8678 11.784 1.81141L11.3976 1.72796L11.0067 1.66255C9.9695 1.48211 8.91648 1.38287 7.86799 1.40317C6.81949 1.41896 5.77551 1.55654 4.77673 1.84525C3.78247 2.14297 2.83114 2.60083 2.05155 3.26169C1.66514 3.5955 1.32167 3.97668 1.05728 4.40071C0.7929 4.827 0.605345 5.29614 0.539815 5.77881L0.526256 5.86903L0.521737 5.96376L0.512698 6.1442C0.508179 6.26599 0.517218 6.40583 0.517218 6.5344L0.539815 7.32156L0.560152 8.11323L0.607605 8.9004C0.729628 11.0025 0.966896 13.0933 1.3533 15.1594C1.74197 17.2254 2.26622 19.2598 2.93057 21.2469C4.25926 25.2211 6.18452 28.9922 8.67017 32.3507C11.1468 35.7136 14.2042 38.6367 17.6547 40.9621C21.0962 43.301 24.958 45.0062 28.9825 46.0054C30.9936 46.5061 33.0522 46.8038 35.1153 46.9301C35.6328 46.973 36.1503 46.9707 36.6655 46.991C36.9253 47.0023 37.1829 46.9865 37.4405 46.9865L38.2179 46.973C39.2483 46.9278 40.2787 46.8557 41.3023 46.7091C43.3451 46.4316 45.3675 45.9828 47.3131 45.3039C49.2587 44.6363 51.141 43.7724 52.9126 42.7326C54.6842 41.6838 56.3451 40.4501 57.8704 39.063C59.3979 37.6826 60.7831 36.1421 62.0237 34.4889C62.3333 34.0761 62.6248 33.6498 62.9276 33.2303C63.0586 33.0341 63.1897 32.8356 63.3185 32.6348C63.7772 32.9393 64.2404 33.2438 64.7082 33.537Z" fill="#CC834B"/>
<path d="M51.5523 41.7915C51.5252 41.9539 51.1387 42.0035 51.0551 41.8479C51.0393 41.814 51.0348 41.7802 51.0393 41.7554C51.0664 41.5975 51.3851 41.584 51.5003 41.6584C51.5432 41.7103 51.5591 41.7531 51.5523 41.7915Z" fill="#D18D58"/>
<path d="M61.3797 31.6967C61.3639 31.7869 61.3367 31.8771 61.2938 31.956C61.0814 32.2064 60.6295 32.0485 60.6272 31.717C60.6272 31.6064 60.6182 31.4959 60.6001 31.3899C60.5346 31.2185 60.4758 30.9975 60.4781 30.8125C60.7786 30.9884 61.0837 31.1756 61.391 31.3696C61.4 31.4824 61.3978 31.5929 61.3797 31.6967Z" fill="#D18D58"/>
<path d="M56.6909 29.9349C56.6796 30.0003 56.6344 30.0567 56.553 30.0612C56.1892 30.2011 55.7056 29.9079 55.735 29.5786C55.8774 29.5357 56.0243 29.5064 56.1711 29.4861C56.1757 29.5177 56.1734 29.5492 56.1689 29.5786C56.1598 29.6372 56.1372 29.6868 56.1011 29.7207L56.1033 29.7252C56.2321 29.8041 56.3948 29.7703 56.5372 29.7545C56.6525 29.7455 56.7067 29.8492 56.6909 29.9349Z" fill="#D18D58"/>
<path d="M53.0482 33.7802C52.9623 33.893 52.8742 34.0058 52.7861 34.1185C52.777 34.0847 52.7748 34.0486 52.7816 34.008C52.8042 33.8704 52.9217 33.7283 53.0482 33.7802Z" fill="#DB9F60"/>
<path d="M53.1341 33.9745C53.107 34.1324 52.9556 34.2948 52.8223 34.1775C52.8042 34.1617 52.7951 34.1414 52.7861 34.1188C52.8742 34.0061 52.9624 33.8933 53.0482 33.7805C53.0527 33.7828 53.055 33.7873 53.0595 33.7873C53.1273 33.8211 53.1454 33.9001 53.1341 33.9745Z" fill="#D18D58"/>
<path d="M37.5896 40.9165C37.5602 40.885 37.5422 40.8399 37.5444 40.788C37.5444 40.779 37.5444 40.7699 37.5467 40.7654C37.5512 40.7384 37.558 40.7226 37.5693 40.7068C37.576 40.7744 37.5828 40.8466 37.5896 40.9165Z" fill="#DB9F60"/>
<path d="M32.3359 43.0479C32.3314 43.0705 32.3269 43.0863 32.3179 43.1133V43.1088C32.2591 43.0096 32.1755 42.96 32.0896 42.9442C31.8998 42.9126 31.6942 43.0524 31.6603 43.2441C31.5835 43.1629 31.536 43.0524 31.5563 42.9306C31.5631 42.8968 31.5767 42.8539 31.597 42.8156C31.8004 42.4029 32.4015 42.6555 32.3359 43.0479Z" fill="#DB9F60"/>
<path d="M56.4332 38.2894C56.3993 38.4901 56.2389 38.6638 55.9858 38.6119C55.6988 38.56 55.5384 38.2601 55.5813 37.9939C55.5994 37.8992 55.6401 37.8112 55.7101 37.7391C56.0061 37.394 56.4355 37.7255 56.4061 38.0435C56.44 38.1202 56.449 38.2082 56.4332 38.2894Z" fill="#D18D58"/>
<path d="M58.0557 31.5924C58.0285 31.7458 57.8048 31.8834 57.7212 31.6758C57.7122 31.6465 57.7122 31.6195 57.7167 31.5901C57.7393 31.4593 57.8839 31.3398 58.0059 31.4458C58.0511 31.4886 58.0647 31.5405 58.0557 31.5924Z" fill="#D18D58"/>
<path d="M53.4934 34.9894C53.4911 35.0007 53.4844 35.0188 53.4776 35.0345C53.394 35.1992 53.1544 35.0977 53.1793 34.9398C53.1816 34.9263 53.1883 34.9105 53.1951 34.8947C53.2787 34.7278 53.5183 34.8315 53.4934 34.9894Z" fill="#D18D58"/>
<path d="M41.9215 45.4276C41.9034 45.5223 41.8085 45.6058 41.6955 45.5539C41.3611 45.5066 41.1058 45.1321 41.1532 44.8547C41.1577 44.8186 41.169 44.7893 41.1826 44.76C41.3295 44.7104 41.4786 44.6585 41.6323 44.5999C41.6707 44.6405 41.6797 44.7059 41.6684 44.7668C41.6503 44.8795 41.5667 44.9968 41.4628 45.0284L41.4651 45.0329C41.5419 45.166 41.7023 45.2156 41.8356 45.2742C41.908 45.3036 41.9306 45.3712 41.9215 45.4276ZM41.4605 45.0261L41.4651 45.0329L41.4628 45.0284L41.4605 45.0261Z" fill="#D18D58"/>
<path d="M36.7468 47.2411C36.7468 47.2456 36.7446 47.2501 36.7446 47.2591C36.6022 47.2704 36.4598 47.2884 36.3175 47.2997C36.3469 47.1396 36.6225 46.9794 36.7265 47.1396C36.7468 47.1711 36.7536 47.2072 36.7468 47.2411Z" fill="#C77A43"/>
<path d="M21.9911 37.1275C21.9866 37.1478 21.9821 37.1659 21.9753 37.1884C21.7064 37.2764 21.4375 37.3644 21.1663 37.4546C21.0511 37.3666 21.0149 37.2403 21.0352 37.1185C21.0624 36.9629 21.1844 36.8163 21.3403 36.7802C21.5392 36.5952 21.9482 36.6358 21.9934 36.9899C21.9979 37.0396 21.9979 37.0847 21.9911 37.1275Z" fill="#DB9F60"/>
<path d="M35.5718 43.9956C35.5402 44.1873 35.3616 44.3587 35.1447 44.3226C35.0385 44.3 34.93 44.291 34.8216 44.2865C34.451 44.3587 33.8612 44.3474 33.9313 43.9392C33.9403 43.8783 33.9651 43.8061 34.0103 43.7249C34.3855 43.4475 35.1312 43.4249 35.4995 43.7159C35.5695 43.7993 35.5876 43.9008 35.5718 43.9956Z" fill="#DB9F60"/>
<path d="M15.1238 37.4408C15.117 37.4792 15.0899 37.5198 15.0312 37.5491C14.9069 37.5965 14.7306 37.5175 14.7532 37.3822C14.7555 37.3687 14.76 37.3551 14.7645 37.3438C14.8639 37.1454 15.1487 37.292 15.1238 37.4408Z" fill="#DB9F60"/>
<path d="M17.2209 40.5894C17.0808 40.6029 16.9565 40.5375 16.8729 40.4382C16.9881 40.4924 17.1034 40.5442 17.2209 40.5894Z" fill="#DB9F60"/>
<path d="M16.6989 34.6212C16.6785 34.7295 16.5701 34.8265 16.4639 34.7205C16.4345 34.6799 16.4254 34.628 16.4345 34.5806C16.4503 34.4927 16.5158 34.4205 16.613 34.4543C16.6876 34.4836 16.7079 34.5558 16.6989 34.6212Z" fill="#DB9F60"/>
<path d="M14.2336 38.6162C14.2087 38.7673 13.9624 38.7448 13.976 38.5801C13.976 38.5756 13.9782 38.5711 13.9782 38.5689C14.0031 38.4155 14.2494 38.438 14.2358 38.6027C14.2358 38.6072 14.2358 38.6117 14.2336 38.6162Z" fill="#DB9F60"/>
<path d="M6.66129 3.66307C6.65225 3.71494 6.63192 3.76456 6.60254 3.80967C6.60028 3.8187 6.60028 3.82772 6.59802 3.839C6.55735 4.08033 6.25681 4.28333 6.01502 4.06906C5.88848 3.95854 5.8478 3.7984 5.87266 3.64728C5.90882 3.44203 6.07151 3.25031 6.30426 3.23904C6.57316 3.22325 6.69519 3.45782 6.66129 3.66307Z" fill="#D6925B"/>
<path d="M5.74619 0.0496209C5.74167 0.0834532 5.7236 0.112774 5.68744 0.137585C5.6671 0.146607 5.64903 0.157884 5.63321 0.16014C5.66936 0.106008 5.70778 0.0518762 5.74619 0C5.74845 0.0180439 5.75071 0.031577 5.74619 0.0496209Z" fill="#D6925B"/>
<path d="M0.682147 8.35435C0.679887 8.38142 0.668589 8.40172 0.652771 8.41751C0.664069 8.3927 0.675368 8.36789 0.684407 8.34082C0.684407 8.34533 0.684407 8.34984 0.682147 8.35435Z" fill="#CC7E45"/>
<path d="M62.7491 34.8133C62.5547 35.0365 62.3604 35.2531 62.1593 35.4741C62.1548 35.4245 62.1548 35.3749 62.1638 35.323C62.1887 35.1764 62.279 35.0208 62.4576 34.8764C62.5638 34.8223 62.6609 34.8042 62.7491 34.8133Z" fill="#CC7E45"/>
<path d="M54.6865 32.7361C54.6481 32.9661 54.4244 33.1714 54.1509 33.0451C53.9656 32.9639 53.9091 32.797 53.934 32.6458C53.9724 32.418 54.1939 32.215 54.4696 32.3368C54.6526 32.4225 54.7113 32.5849 54.6865 32.7361Z" fill="#D6925B"/>
<path d="M57.6399 36.7868C57.6331 36.8274 57.6015 36.8657 57.5382 36.9041C57.3914 36.9334 57.0479 36.7733 57.075 36.6154C57.0818 36.577 57.1112 36.5364 57.1767 36.4981C57.3213 36.4688 57.667 36.6312 57.6399 36.7868Z" fill="#D6925B"/>
<path d="M52.8607 39.4804C52.8449 39.5706 52.7545 39.654 52.646 39.6044C52.5737 39.5706 52.5488 39.5029 52.5601 39.442C52.5737 39.3518 52.6641 39.2729 52.7725 39.3225C52.8471 39.3518 52.8697 39.4195 52.8607 39.4804Z" fill="#D6925B"/>
<path d="M51.8121 38.027C51.7737 38.2436 51.5274 38.3766 51.3218 38.3293C51.4076 38.1376 51.4822 37.8895 51.55 37.603C51.6517 37.6278 51.7398 37.7 51.7872 37.8263C51.8144 37.8962 51.8211 37.9662 51.8121 38.027Z" fill="#D6925B"/>
<path d="M50.9557 42.9262C50.863 42.9691 50.7704 43.0164 50.6778 43.0593C50.6145 42.9601 50.567 42.8134 50.5851 42.712C50.5987 42.6308 50.6552 42.5766 50.7862 42.6127C50.8563 42.6601 50.9308 42.8022 50.9557 42.9262Z" fill="#D6925B"/>
<path d="M50.9603 43.0438C50.9445 43.1273 50.8857 43.1791 50.7592 43.1453C50.7321 43.1273 50.7027 43.1002 50.6778 43.0596C50.7705 43.0167 50.8631 42.9694 50.9558 42.9265C50.9625 42.9694 50.9648 43.01 50.9603 43.0438Z" fill="#CC7E45"/>
<path d="M32.3675 43.3411C32.3201 43.6185 31.8975 43.7855 31.7077 43.4765C31.6602 43.3953 31.649 43.3186 31.6603 43.2441C31.6941 43.0524 31.8998 42.9126 32.0896 42.9442C32.1755 42.9599 32.2591 43.0096 32.3178 43.1088V43.1133C32.3675 43.1877 32.3788 43.2712 32.3675 43.3411Z" fill="#E0A564"/>
<path d="M24.8699 12.7075C24.8292 12.9466 24.5558 13.1541 24.2914 12.9759C24.1558 12.8857 24.1151 12.7504 24.1355 12.6286C24.1762 12.385 24.4496 12.1752 24.7117 12.3534C24.8495 12.4481 24.8902 12.5812 24.8699 12.7075Z" fill="#D0975C"/>
<path d="M20.0703 15.7976C20.0341 16.0074 19.8217 16.1765 19.6025 16.1675C19.2884 16.1359 19.1913 15.9284 19.2229 15.7367C19.2478 15.5879 19.3472 15.4525 19.485 15.4074C19.6568 15.2946 19.9234 15.2992 20.0387 15.5427C20.0545 15.5856 20.0771 15.6555 20.0726 15.6961C20.0771 15.7277 20.0748 15.7638 20.0703 15.7976ZM19.7788 15.457C19.7969 15.4751 19.8172 15.4864 19.8398 15.5044C19.8262 15.4931 19.8149 15.4819 19.8037 15.4706L19.7788 15.457Z" fill="#D0975C"/>
<path d="M30.2366 26.9936C30.196 27.2327 29.9225 27.4424 29.6582 27.262C29.5226 27.1718 29.4796 27.041 29.5022 26.9147C29.5429 26.6756 29.8141 26.4658 30.0785 26.644C30.2163 26.7342 30.257 26.8673 30.2366 26.9936Z" fill="#D0975C"/>
<path d="M20.3844 5.4287C20.3438 5.67004 20.0726 5.87754 19.8082 5.69936C19.6704 5.60914 19.6297 5.47607 19.65 5.35202C19.6907 5.11068 19.9641 4.90318 20.2285 5.08136C20.3641 5.17158 20.407 5.3024 20.3844 5.4287Z" fill="#D0975C"/>
<path d="M22.5018 9.80729C22.4792 9.94037 22.3436 9.93586 22.2148 9.87496C22.0905 9.80955 21.973 9.69001 21.9888 9.59077C21.9956 9.54566 22.0317 9.50731 22.1086 9.48025C22.2306 9.47799 22.4611 9.63362 22.504 9.74865C22.504 9.77121 22.504 9.78925 22.5018 9.80729Z" fill="#D0975C"/>
<path d="M17.5236 11.5688C17.5056 11.6658 17.3971 11.7493 17.2932 11.6771C17.2367 11.641 17.2208 11.5891 17.2276 11.5373C17.2457 11.4425 17.3542 11.3568 17.4604 11.429C17.5146 11.4651 17.5304 11.5215 17.5236 11.5688Z" fill="#D0975C"/>
<path d="M18.1361 5.1113C18.1338 5.12709 18.127 5.14514 18.1225 5.15641C18.0547 5.41354 17.7451 5.5421 17.5079 5.43835C17.2955 5.33009 17.2322 5.1722 17.2548 5.03462C17.2864 4.8429 17.474 4.67148 17.6661 4.68276C17.874 4.63089 18.1203 4.73238 18.1429 5.00304C18.1429 5.03462 18.1429 5.07522 18.1361 5.1113ZM17.9259 4.83388C17.9395 4.85418 17.953 4.87448 17.9666 4.89252C17.9598 4.87899 17.9508 4.86771 17.944 4.85418L17.9259 4.83388Z" fill="#D0975C"/>
<path d="M28.6097 22.2929C28.56 22.5793 28.142 22.7733 27.9228 22.4643C27.8595 22.3763 27.8414 22.2838 27.855 22.1959C27.9047 21.9094 28.3227 21.72 28.5419 22.0245C28.6052 22.1169 28.6233 22.2094 28.6097 22.2929Z" fill="#C78554"/>
<path d="M21.5843 13.2732C21.5798 13.28 21.5753 13.2845 21.5708 13.289C21.5143 13.3499 21.4759 13.4333 21.4578 13.5145C21.4578 13.519 21.4555 13.5281 21.4555 13.5326C21.4555 13.5326 21.4555 13.5326 21.4533 13.5371C21.4533 13.5461 21.451 13.5641 21.4487 13.5754V13.5799C21.3651 13.5529 21.3041 13.4897 21.3154 13.4243C21.3222 13.3815 21.3651 13.3341 21.4578 13.2957C21.4962 13.28 21.5414 13.2732 21.5843 13.2732Z" fill="#D0975C"/>
<path d="M14.5634 9.59045C14.5454 9.70773 14.3782 9.78216 14.29 9.66037C14.2629 9.62428 14.2584 9.58594 14.2629 9.5521C14.2832 9.43933 14.4505 9.36039 14.5363 9.48218C14.5612 9.52278 14.5702 9.55436 14.5634 9.59045Z" fill="#D0975C"/>
<path d="M34.1368 20.3805C34.1233 20.4707 34.0668 20.5429 33.9651 20.5249C33.8543 20.5023 33.7956 20.3444 33.8159 20.2226C33.8295 20.1459 33.8724 20.085 33.9538 20.076C34.0916 20.067 34.1594 20.2452 34.1368 20.3805Z" fill="#C78554"/>
<path d="M5.92695 11.0768C5.91339 11.1602 5.82752 11.176 5.74843 11.1535C5.66708 11.1264 5.59703 11.061 5.61059 10.9798C5.61511 10.9527 5.62641 10.9279 5.64901 10.9009C5.73939 10.8039 5.87498 10.8851 5.92017 10.9821C5.92921 11.0182 5.93147 11.0497 5.92695 11.0768Z" fill="#D0975C"/>
<path d="M10.4667 10.8331C10.4599 10.8737 10.4463 10.9098 10.4237 10.9527C10.0531 11.4354 9.51986 10.858 9.57635 10.5309C9.60121 10.3843 9.74131 10.2873 10.0667 10.355C10.2678 10.4475 10.5051 10.6121 10.4667 10.8331Z" fill="#D0975C"/>
<path d="M16.3599 3.9514C16.3486 4.0123 16.3192 4.0732 16.265 4.12733C16.0096 4.39348 15.6277 4.10929 15.6752 3.82735C15.6842 3.76645 15.7159 3.7033 15.7678 3.64917C16.0232 3.38528 16.4073 3.66721 16.3599 3.9514Z" fill="#D0975C"/>
<path d="M10.9031 5.42023C10.8894 5.41796 10.8758 5.41568 10.8621 5.41341L10.8598 5.41113C10.8735 5.41568 10.8872 5.41568 10.9031 5.42023Z" fill="#D0975C"/>
<path d="M2.5442 6.53624C2.5329 6.59714 2.50352 6.66029 2.45155 6.71442C2.22784 6.94448 1.90922 6.76179 1.86177 6.52045C1.92052 6.40542 1.97701 6.28588 2.03577 6.1686C2.28207 6.02876 2.58713 6.28137 2.5442 6.53624Z" fill="#C78554"/>
<path d="M2.03573 6.1687C1.97697 6.28599 1.92048 6.40553 1.86173 6.52056C1.85495 6.48447 1.85269 6.44838 1.85947 6.41229C1.86851 6.35139 1.90014 6.2905 1.95212 6.23637C1.97923 6.2093 2.00861 6.18675 2.03573 6.1687Z" fill="#BD7340"/>
<path d="M22.1741 13.7512C22.138 13.9655 21.9165 14.1527 21.6725 14.0173C21.5075 13.9249 21.4352 13.7535 21.4487 13.5798V13.5753C21.451 13.564 21.4533 13.5459 21.4533 13.5369C21.4555 13.5324 21.4555 13.5324 21.4555 13.5324C21.4555 13.5279 21.4578 13.5189 21.4578 13.5144C21.4759 13.4332 21.5143 13.3497 21.5708 13.2888C21.5753 13.2843 21.5798 13.2798 21.5843 13.273C21.634 13.2279 21.6951 13.1873 21.7696 13.1693C22.0566 13.0836 22.2329 13.3497 22.1944 13.5753C22.1899 13.5978 22.1831 13.6226 22.1764 13.6452C22.1786 13.6813 22.1786 13.7174 22.1741 13.7512Z" fill="#D0975C"/>
<path d="M20.5584 10.2757C20.5539 10.3005 20.5426 10.3253 20.52 10.3501C20.4183 10.4539 20.2647 10.3434 20.285 10.2238C20.2895 10.2035 20.3008 10.1787 20.3234 10.1562C20.4251 10.0524 20.5788 10.1629 20.5584 10.2757Z" fill="#D0975C"/>
<path d="M8.04431 15.3152C8.04205 15.3264 8.03979 15.34 8.03527 15.3535C7.89969 15.3129 7.76636 15.2723 7.63078 15.2317C7.70083 15.1663 7.80252 15.1347 7.94262 15.155C8.02849 15.1866 8.0556 15.2498 8.04431 15.3152Z" fill="#D0975C"/>
<path d="M7.27146 3.93115C7.25339 4.0349 7.16978 4.10707 7.04776 4.01911C6.9777 3.95821 6.95963 3.87025 6.97319 3.79582C6.99578 3.66049 7.11781 3.57027 7.23079 3.75296C7.2692 3.80484 7.2805 3.87476 7.27146 3.93115Z" fill="#C78554"/>
<path d="M65.402 33.963C64.9794 34.6194 64.5365 35.2622 64.0733 35.8937C63.0293 37.3079 61.8814 38.6409 60.6295 39.8724C59.3776 41.0971 58.0218 42.2271 56.5824 43.2331C53.7058 45.2517 50.479 46.7629 47.103 47.7215C43.727 48.6846 40.1997 49.1018 36.6949 48.9868C33.1924 48.8763 29.7079 48.2403 26.3884 47.1351C23.0667 46.0276 19.9031 44.4556 17.0243 42.4707C15.5849 41.4828 14.2155 40.3912 12.9297 39.2093C11.644 38.0252 10.4418 36.7531 9.33457 35.4088C8.22958 34.0578 7.21272 32.6391 6.30432 31.1527C5.39819 29.6618 4.58696 28.1146 3.88872 26.5245C2.48319 23.3375 1.50022 19.9768 0.910446 16.5552C0.318408 13.1314 0.130853 9.64893 0.255136 6.18677C0.194125 9.64893 0.451729 13.1224 1.08444 16.5236C1.71715 19.9227 2.74079 23.2518 4.17796 26.3936C5.61286 29.5355 7.46354 32.4789 9.67578 35.1246C10.7853 36.4441 11.9829 37.6891 13.2619 38.8439C14.5431 39.9987 15.9035 41.0611 17.3316 42.0219C20.1833 43.9571 23.3085 45.4818 26.5828 46.5464C29.8571 47.611 33.2805 48.2064 36.7152 48.3057C40.1545 48.4004 43.605 47.9786 46.9019 47.0245C50.1988 46.0705 53.3375 44.5796 56.144 42.6083C57.545 41.6272 58.8647 40.5242 60.0872 39.3243C61.3074 38.1199 62.4282 36.8162 63.4451 35.4359C63.8925 34.8224 64.3241 34.1954 64.7354 33.5548C64.9568 33.6946 65.1805 33.83 65.402 33.963Z" fill="#AA5631"/>
<path d="M37.9196 40.8602C37.8992 40.982 37.6868 41.0113 37.5897 40.9166C37.5829 40.8467 37.5761 40.7745 37.5693 40.7068C37.6349 40.6098 37.8043 40.6346 37.8789 40.7226C37.9151 40.7767 37.9263 40.8196 37.9196 40.8602Z" fill="#EDC98D"/>
<path d="M40.2628 43.5937C40.2493 43.6636 40.1996 43.7178 40.0956 43.6952C40.0052 43.6727 39.9465 43.5644 39.96 43.4764C39.9691 43.4291 40.0007 43.384 40.0595 43.3682C40.1973 43.3321 40.2809 43.4855 40.2628 43.5937Z" fill="#F0CC8F"/>
<path d="M59.1316 56.3772C59.2174 56.499 59.231 56.7381 59.1135 56.8103C59.0253 56.8554 58.9598 56.8261 58.9191 56.7697C58.8446 56.6637 58.8378 56.4584 58.892 56.3682C58.9892 56.2667 59.0751 56.2983 59.1316 56.3772Z" fill="#DB9F60"/>
<path d="M48.4049 47.0389C48.5654 47.2667 48.423 47.6343 48.1225 47.6569C47.9959 47.6636 47.8761 47.6839 47.7519 47.711C47.4581 47.8035 47.083 48.0381 46.8774 47.7471C46.857 47.72 46.8412 47.6884 46.8254 47.6501C46.6604 46.9938 47.8852 46.7547 48.3258 46.9577C48.3575 46.9802 48.3846 47.0095 48.4049 47.0389Z" fill="#D18D58"/>
<path d="M46.6536 51.85C46.6649 51.8703 46.6762 51.8951 46.6807 51.9244C46.8954 52.3936 46.3757 53.1153 45.9305 52.6281C45.7927 52.38 46.1972 52.2627 46.3599 52.4071L46.3621 52.4003C46.4322 52.265 46.3892 52.1004 46.3644 51.956C46.344 51.7868 46.5723 51.735 46.6536 51.85ZM46.3599 52.4071V52.4026V52.4071Z" fill="#D18D58"/>
<path d="M51.1391 55.3009C51.173 55.3528 51.182 55.4182 51.1323 55.4791C51.0442 55.5851 50.816 55.5287 50.7346 55.4114C50.7052 55.3686 50.6939 55.3167 50.7188 55.2626C50.7888 55.1114 51.0487 55.1746 51.1391 55.3009Z" fill="#DB9F60"/>
<path d="M52.3684 35.3198C52.4678 35.4596 52.4678 35.6762 52.2644 35.7799C52.043 35.9152 51.7447 35.8002 51.6046 35.6017C51.5255 35.4889 51.4961 35.3491 51.5571 35.2093C51.6566 34.9612 51.9774 34.9882 52.1085 35.1732C52.1085 35.1732 52.1108 35.1754 52.113 35.1799C52.217 35.1777 52.3096 35.2363 52.3684 35.3198Z" fill="#D18D58"/>
<path d="M56.3477 38.5586C56.4719 38.7345 56.3838 38.9646 56.2369 39.1112C56.0901 39.2578 55.8844 39.321 55.776 39.1699C55.7308 39.1044 55.7037 39.0007 55.7037 38.8451C55.7556 38.6173 55.8912 38.3286 56.1759 38.421C56.255 38.4616 56.3115 38.5067 56.3477 38.5586Z" fill="#D18D58"/>
<path d="M64.704 37.462C64.7311 37.4981 64.7469 37.5297 64.7628 37.5658C64.8305 37.8319 64.5074 38.0575 64.2814 37.8996C64.1911 37.8342 64.0939 37.7778 63.9922 37.7304C64.0193 37.744 64.0442 37.753 64.069 37.7665C63.9425 37.6898 63.764 37.6786 63.6352 37.6132C63.9357 37.5094 64.2475 37.4102 64.5594 37.3154C64.6136 37.3583 64.6656 37.4079 64.704 37.462Z" fill="#DB9F60"/>
<path d="M64.5594 37.3154C64.2476 37.4101 63.9357 37.5094 63.6352 37.6131C63.59 37.5906 63.5516 37.559 63.5199 37.5161C63.5109 37.5026 63.5041 37.4891 63.4973 37.4778C63.3685 37.2387 63.6126 36.95 63.8747 37.0357C64.0894 37.0988 64.3651 37.171 64.5594 37.3154Z" fill="#D18D58"/>
<path d="M50.538 42.5578C50.5697 42.6052 50.5651 42.6683 50.4838 42.7292C50.4002 42.833 50.2578 42.8059 50.2104 42.7383C50.181 42.6954 50.1832 42.6277 50.2623 42.5668C50.3482 42.4631 50.4883 42.4879 50.538 42.5578Z" fill="#D18D58"/>
<path d="M62.4715 30.6261C62.5257 30.7028 62.5234 30.8562 62.4556 30.9261C62.3743 30.9825 62.3155 30.9645 62.2794 30.9126C62.2274 30.8382 62.2297 30.6848 62.2997 30.6126C62.3788 30.5585 62.4376 30.5765 62.4715 30.6261Z" fill="#D18D58"/>
<path d="M73.2818 42.4176C73.3315 42.4897 73.284 42.5709 73.2117 42.6161C73.1349 42.6589 73.0355 42.6657 72.9745 42.5777C72.9699 42.5755 72.9654 42.5687 72.9609 42.5597C72.8841 42.4085 73.0761 42.307 73.2027 42.3589C73.2411 42.3747 73.266 42.395 73.2818 42.4176Z" fill="#DB9F60"/>
<path d="M73.8783 55.6005C73.8466 55.7426 73.5122 55.7945 73.4218 55.6636C73.4173 55.6591 73.4173 55.6569 73.4128 55.6524C73.3992 55.6185 73.3947 55.5937 73.397 55.5712C73.4828 55.5599 73.5665 55.5509 73.6478 55.5644C73.6116 55.5622 73.5777 55.5576 73.5461 55.5599C73.6568 55.5622 73.7676 55.5757 73.8783 55.6005Z" fill="#D18D58"/>
<path d="M76.5945 32.5725C76.6669 32.674 76.694 32.807 76.6443 32.9221C76.6465 32.9243 76.6465 32.9243 76.651 32.9288C76.8363 33.1927 76.5584 33.6528 76.1878 33.4634C76.1019 33.4273 76.0341 33.3664 75.9799 33.292C75.8059 33.0461 75.8421 32.6537 76.1087 32.4777C76.3008 32.3492 76.4906 32.4259 76.5945 32.5725Z" fill="#D18D58"/>
<path d="M79.6858 29.6043C79.8168 29.7893 79.7784 29.9878 79.6632 30.1344C79.7242 30.3058 79.6745 30.5178 79.4463 30.5922C79.1141 30.6599 78.8926 30.5561 78.7729 30.3847C78.4769 29.963 78.8294 29.1149 79.5977 29.5051C79.6338 29.5389 79.6632 29.5727 79.6858 29.6043Z" fill="#D18D58"/>
<path d="M76.3302 38.7589C76.3505 38.7882 76.3686 38.8198 76.3844 38.8626C76.4951 39.5009 75.65 39.4964 75.4466 39.2077C75.3608 39.0837 75.3924 38.91 75.6703 38.716C75.885 38.6236 76.1878 38.5559 76.3302 38.7589Z" fill="#DB9F60"/>
<path d="M75.2003 29.3198C75.2342 29.3672 75.2591 29.4326 75.2613 29.5048C75.2862 29.8972 74.78 29.9897 74.5992 29.7326C74.5653 29.6852 74.5405 29.6221 74.5382 29.5499C74.5156 29.1597 75.0195 29.065 75.2003 29.3198Z" fill="#D18D58"/>
<path d="M72.4438 34.5593C72.4324 34.5661 72.421 34.5752 72.4096 34.5821L72.4073 34.5843C72.421 34.5752 72.4324 34.5684 72.4438 34.5593Z" fill="#D18D58"/>
<path d="M70.0549 27.4456C70.1205 27.5403 70.1408 27.6666 70.0707 27.7952C70.0504 27.838 70.0097 27.8922 69.9758 27.917C69.7928 28.0839 69.481 28.032 69.3409 27.8335C69.3386 27.829 69.3386 27.829 69.3386 27.829C69.0561 27.3757 69.5849 27.1118 69.8516 27.2967C69.9306 27.3238 70.0075 27.3779 70.0549 27.4456ZM69.9849 27.6193C69.9871 27.608 69.9871 27.5899 69.9871 27.5741L69.9826 27.5516C69.9826 27.5719 69.9849 27.5967 69.9849 27.6193Z" fill="#D18D58"/>
<path d="M86.919 31.8167C87.0478 31.9971 87.0275 32.2858 86.7563 32.3738C86.5439 32.446 86.3315 32.3467 86.2163 32.1821C86.1191 32.0445 86.0875 31.8618 86.1688 31.6949C86.3157 31.4107 86.6569 31.4716 86.7993 31.6746C86.8106 31.6881 86.8219 31.7084 86.8286 31.7242C86.8625 31.749 86.8942 31.7806 86.919 31.8167Z" fill="#D18D58"/>
<path d="M75.9324 26.3133C75.8668 26.3539 75.8149 26.3427 75.7765 26.2998C75.8262 26.3021 75.8804 26.3088 75.9324 26.3133Z" fill="#D18D58"/>
<path d="M75.9482 25.833C76.0183 25.93 76.0319 26.1894 75.9708 26.2886C75.9573 26.2976 75.946 26.3067 75.9324 26.3134C75.8805 26.3089 75.8262 26.3022 75.7765 26.2999C75.7675 26.2954 75.7629 26.2864 75.7584 26.2796C75.6387 26.1104 75.6816 25.6548 75.9437 25.8262C75.946 25.8308 75.946 25.8308 75.9482 25.833Z" fill="#C77A43"/>
<path d="M83.0753 30.5759C83.0888 30.5985 83.1001 30.6233 83.1001 30.6503C83.1092 30.806 82.9058 30.8443 82.8358 30.7428C82.8222 30.7248 82.8132 30.7 82.8109 30.6684C82.8019 30.5128 83.003 30.4744 83.0753 30.5759Z" fill="#D18D58"/>
<path d="M68.7353 36.3328C68.7692 36.4004 68.7601 36.4771 68.6539 36.5245C68.5387 36.5561 68.4325 36.4906 68.376 36.4117C68.3737 36.4072 68.3714 36.4049 68.3692 36.4004C68.4912 36.3801 68.611 36.3553 68.7353 36.3328Z" fill="#DB9F60"/>
<path d="M68.7218 36.3145C68.7285 36.3213 68.7331 36.3281 68.7353 36.3326C68.611 36.3551 68.4913 36.3799 68.3692 36.4002C68.3015 36.292 68.3286 36.1634 68.5432 36.2017C68.6133 36.213 68.6811 36.2559 68.7218 36.3145Z" fill="#D18D58"/>
<path d="M87.8523 39.3095C87.9359 39.429 87.728 39.6253 87.5743 39.6027C87.5269 39.5869 87.4975 39.5644 87.4794 39.5396C87.3958 39.42 87.6037 39.226 87.7574 39.2463C87.8026 39.2621 87.8342 39.2847 87.8523 39.3095Z" fill="#D18D58"/>
<path d="M64.8464 29.5318C64.8599 29.5499 64.869 29.5747 64.8712 29.6063C64.8803 29.7619 64.6769 29.7957 64.6068 29.6965C64.5933 29.6785 64.5842 29.6514 64.5797 29.6221C64.5729 29.4642 64.7741 29.4258 64.8464 29.5318Z" fill="#D18D58"/>
<path d="M87.6964 47.2647C87.8342 47.461 87.8161 47.77 87.5156 47.8624C87.2557 47.9572 86.9732 47.8286 86.8241 47.6143C86.7315 47.4858 86.6908 47.3302 86.7224 47.1678C86.8015 46.7934 87.258 46.8069 87.4275 47.046C87.441 47.0663 87.4523 47.0866 87.4636 47.1114C87.5608 47.1294 87.6444 47.1903 87.6964 47.2647Z" fill="#DB9F60"/>
<path d="M87.6104 42.5233C87.6624 42.5955 87.6895 42.679 87.7008 42.7669C87.7641 42.7985 87.8183 42.8459 87.8568 42.9C87.9291 43.0015 87.9494 43.1323 87.8748 43.2767C87.502 43.8022 87.0207 43.6556 86.7879 43.3263C86.5642 43.0083 86.5823 42.5211 87.1834 42.3361C87.389 42.3271 87.5291 42.4083 87.6104 42.5233Z" fill="#DB9F60"/>
<path d="M91.7954 51.9694C92.1095 52.4137 91.3638 52.9686 91.0836 52.7273C91.1604 52.637 91.1988 52.513 91.1514 52.3686C91.1491 52.3596 91.1446 52.3506 91.1424 52.3416C91.1356 52.3258 91.1265 52.31 91.1198 52.2987L91.1175 52.2942C91.1152 52.2852 91.1062 52.2762 91.1017 52.2671C91.0994 52.2649 91.0994 52.2649 91.0972 52.2604C91.0972 52.2604 91.0971 52.2604 91.0949 52.2559C91.0768 52.2311 91.0587 52.213 91.0361 52.195C91.0339 52.1927 91.0294 52.1882 91.0271 52.1859C91.1423 51.9356 91.3525 51.6717 91.6531 51.8273C91.7163 51.8747 91.7638 51.922 91.7954 51.9694Z" fill="#DB9F60"/>
<path d="M101.991 52.3353C102.043 52.412 102.086 52.4932 102.113 52.5789C102.138 52.9059 101.706 53.1134 101.469 52.8789C101.392 52.7999 101.306 52.7277 101.221 52.6646C101.02 52.5744 100.778 52.4255 100.66 52.2586C100.538 52.0872 100.55 51.8955 100.868 51.7308C101.252 51.7195 101.747 51.9879 101.991 52.3353Z" fill="#D18D58"/>
<path d="M80.5083 37.5598C80.7455 37.8958 80.2687 38.3695 79.9275 38.0537C79.9027 38.0334 79.8823 38.0086 79.8688 37.9883C79.6315 37.6523 80.1061 37.1786 80.4473 37.4899C80.4699 37.5102 80.4902 37.535 80.5083 37.5598Z" fill="#DB9F60"/>
<path d="M88.7832 35.4571C88.8623 35.5676 88.8488 35.7436 88.6499 35.7233C88.5979 35.7097 88.5505 35.6736 88.5188 35.6308C88.4669 35.5541 88.4578 35.4571 88.5505 35.3985C88.6499 35.3466 88.7335 35.3872 88.7832 35.4571Z" fill="#D18D58"/>
<path d="M81.9838 42.4428C82.0652 42.5578 82.0765 42.6796 81.898 42.718C81.8076 42.7067 81.672 42.6074 81.5952 42.4992C81.5183 42.3864 81.5025 42.2623 81.6833 42.2285C81.7714 42.2353 81.9093 42.339 81.9838 42.4428Z" fill="#DB9F60"/>
<path d="M90.7244 40.656C90.8193 40.789 90.6295 40.9808 90.4916 40.8567C90.4826 40.8454 90.4735 40.8364 90.469 40.8296C90.3741 40.6966 90.5639 40.5049 90.6995 40.6289C90.7108 40.6379 90.7198 40.6492 90.7244 40.656Z" fill="#D18D58"/>
<path d="M96.4029 54.5293C96.4322 54.6195 96.4594 54.7075 96.4842 54.7909C96.482 54.7887 96.4775 54.7819 96.4707 54.7729C96.4277 54.712 96.4029 54.633 96.4029 54.5293Z" fill="#DB9F60"/>
<path d="M97.4175 54.374C97.4559 54.4281 97.4626 54.5003 97.4062 54.5612C97.2457 54.9153 96.6966 55.0484 96.4842 54.7913C96.4594 54.7078 96.4322 54.6199 96.4029 54.5296C96.4029 54.5093 96.4074 54.4913 96.4074 54.4687C96.4797 54.268 96.6944 54.3469 96.7938 54.489C96.8277 54.5341 96.848 54.586 96.8458 54.6356L96.8503 54.6379C96.9994 54.6041 97.0898 54.4642 97.1802 54.3537C97.257 54.2657 97.3655 54.3018 97.4175 54.374ZM96.848 54.6402V54.6379V54.6402Z" fill="#D18D58"/>
<path d="M100.791 43.7706C100.87 43.8834 100.821 44.1383 100.667 44.1721C100.597 44.1766 100.552 44.1608 100.525 44.1202C100.455 44.0233 100.507 43.818 100.599 43.7436C100.694 43.6985 100.755 43.721 100.791 43.7706Z" fill="#D18D58"/>
<path d="M76.0702 53.2869C76.1629 53.42 75.9731 53.6094 75.8352 53.4831C75.8285 53.4786 75.8194 53.4673 75.8126 53.456C75.7177 53.323 75.9075 53.1313 76.0431 53.2576C76.0522 53.2666 76.0612 53.2756 76.0702 53.2869Z" fill="#DB9F60"/>
<path d="M91.0972 52.2602C91.0994 52.2647 91.0994 52.2647 91.1017 52.267C91.1062 52.276 91.1153 52.285 91.1175 52.294L91.1198 52.2985C91.1266 52.3098 91.1356 52.3256 91.1424 52.3414C91.1446 52.3504 91.1492 52.3594 91.1514 52.3685C91.1989 52.5128 91.1605 52.6369 91.0836 52.7271C90.9277 52.903 90.6114 52.9368 90.46 52.7226C90.4374 52.691 90.4193 52.6549 90.4035 52.6121C90.2724 52.2128 90.7673 51.9805 91.0271 52.1858C91.0294 52.188 91.0339 52.1925 91.0362 52.1948C91.0588 52.2128 91.0768 52.2309 91.0949 52.2557C91.0972 52.2602 91.0972 52.2602 91.0972 52.2602Z" fill="#DB9F60"/>
<path d="M99.5552 54.5951C99.6433 54.7214 99.58 54.9762 99.3744 54.8883C99.3496 54.8748 99.3292 54.8567 99.3111 54.8319C99.2343 54.7236 99.2547 54.5364 99.4151 54.5251C99.4783 54.5251 99.5235 54.5522 99.5552 54.5951Z" fill="#D18D58"/>
<path d="M43.7974 47.3162C43.9781 47.5936 43.8606 47.8259 43.6663 47.9477C43.664 48.1259 43.5443 48.3018 43.3115 48.2928C43.0833 48.2589 42.9319 48.1642 42.846 48.0424C42.5161 47.5733 43.1466 46.6869 43.7974 47.3162Z" fill="#D6925B"/>
<path d="M42.9545 53.0182C43.1308 53.2663 43.0404 53.5279 42.8438 53.7332C42.8347 53.8572 42.7579 53.9745 42.5771 54.0264C42.4822 54.0399 42.3964 54.0467 42.3128 54.0467C42.1523 54.0873 41.9964 54.0895 41.8653 54.0354C41.8314 54.0106 41.8021 53.9835 41.7795 53.9497C41.7636 53.9294 41.7523 53.9091 41.741 53.8843C41.7026 53.855 41.6687 53.8189 41.6394 53.7783C41.2891 53.2798 41.9896 52.3235 42.9364 52.9911C42.9455 53.0024 42.95 53.0091 42.9545 53.0182Z" fill="#D6925B"/>
<path d="M49.598 51.6878C49.6364 51.742 49.659 51.8029 49.6635 51.8638C49.8014 52.0735 49.7042 52.4457 49.372 52.4321C49.2229 52.4276 49.0986 52.3464 49.0173 52.2314C48.9088 52.0758 48.8862 51.8592 49.0014 51.6923C49.1687 51.4194 49.4669 51.5006 49.598 51.6878Z" fill="#E0A564"/>
<path d="M50.1832 45.8008C50.2329 45.8729 50.2036 45.9744 50.1448 46.0331C50.0861 46.0962 49.9979 46.1143 49.9324 46.0196C49.9279 46.0173 49.9279 46.0128 49.9211 46.006C49.8624 45.8797 49.9934 45.6677 50.1448 45.7624C50.1606 45.7737 50.1742 45.7895 50.1832 45.8008Z" fill="#D6925B"/>
<path d="M46.6106 49.4863C46.6332 49.5179 46.64 49.5563 46.6265 49.6036C46.5858 49.7277 46.4299 49.7187 46.3711 49.6375C46.3485 49.6036 46.3417 49.5653 46.3553 49.5179C46.396 49.3939 46.5519 49.4029 46.6106 49.4863Z" fill="#D6925B"/>
<path d="M44.9453 42.8981C45.0311 43.0176 44.8775 43.2883 44.6809 43.1778C44.656 43.162 44.6402 43.1462 44.6289 43.1327C44.6221 43.1214 44.6153 43.1101 44.6131 43.1011C44.6199 43.0898 44.6221 43.0763 44.6312 43.0673C44.6696 42.9951 44.7148 42.9274 44.7554 42.8552C44.7645 42.8485 44.7713 42.8485 44.7826 42.8462C44.8662 42.8372 44.9182 42.8598 44.9453 42.8981Z" fill="#D6925B"/>
<path d="M44.7554 42.8552C44.7148 42.9274 44.6696 42.9951 44.6312 43.0672C44.6221 43.0763 44.6199 43.0898 44.6131 43.1011C44.5769 43.0063 44.656 42.8936 44.7554 42.8552Z" fill="#CC7E45"/>
<path d="M44.3826 49.022C44.6719 49.4325 44.0346 49.8949 43.7341 49.4867C43.7318 49.4822 43.7296 49.4799 43.7273 49.4754C43.4403 49.0671 44.0731 48.6003 44.3781 49.013C44.3804 49.0175 44.3826 49.022 44.3826 49.022Z" fill="#D6925B"/>
<path d="M55.9522 40.1259C56.1262 40.3718 56.1849 40.6469 55.9635 40.8567C55.794 40.9852 55.5319 40.9514 55.4099 40.7777C55.4053 40.7732 55.4053 40.7732 55.4053 40.7732C55.394 40.7552 55.3828 40.7371 55.3715 40.7214C55.3195 40.6469 55.2585 40.5747 55.1975 40.5048C55.0551 40.4056 54.8901 40.2612 54.7839 40.1101C54.6145 39.8665 54.5896 39.6094 55.028 39.4854C55.3014 39.526 55.7262 39.8034 55.9522 40.1259Z" fill="#D6925B"/>
<path d="M50.9651 41.4477C51.0103 41.5131 51.0148 41.6056 50.9312 41.6642C50.7075 41.9845 50.1561 42.0161 49.9663 41.7477C49.903 41.6575 49.8827 41.5312 49.9347 41.3665C50.0318 41.2064 50.199 41.2785 50.2872 41.4049C50.3346 41.4725 50.364 41.556 50.3482 41.6327L50.3527 41.6281C50.5086 41.6214 50.6306 41.5041 50.7436 41.4094C50.8272 41.344 50.9176 41.3823 50.9651 41.4477ZM50.3482 41.6327L50.3504 41.6304L50.3482 41.6327Z" fill="#D6925B"/>
<path d="M56.5556 31.3481C56.6121 31.4293 56.5737 31.5737 56.4991 31.6684C56.4245 31.7586 56.3183 31.8083 56.2279 31.682C56.2212 31.6707 56.2166 31.6617 56.2099 31.6504C56.1827 31.5308 56.2709 31.3662 56.3726 31.3053C56.4697 31.285 56.5262 31.3053 56.5556 31.3481Z" fill="#D6925B"/>
<path d="M50.1877 46.9579C50.2872 47.1 50.2623 47.3842 50.0589 47.3548C50.016 47.3481 49.9821 47.3233 49.955 47.2827C49.8646 47.1519 49.8714 46.9038 50.0431 46.8857C50.1041 46.8812 50.1538 46.9105 50.1877 46.9579Z" fill="#D6925B"/>
<path d="M69.2189 30.3647C69.2663 30.4323 69.2754 30.5338 69.1624 30.5812C69.1014 30.6037 69.0494 30.5744 69.0155 30.5293C68.9907 30.4932 68.9771 30.4436 68.9771 30.3985C69.0155 30.2271 69.1534 30.2699 69.2189 30.3647Z" fill="#D6925B"/>
<path d="M60.7089 29.6971C60.7519 29.758 60.7722 29.8346 60.7519 29.9361C60.7021 30.3218 60.1124 30.4932 59.8886 30.1752C59.8773 30.1617 59.8683 30.1459 59.8593 30.1301C59.7282 29.8933 59.961 29.6542 60.1847 29.6745C60.3135 29.5099 60.5937 29.5347 60.7089 29.6971Z" fill="#D6925B"/>
<path d="M65.7638 28.6303C65.9853 28.9439 65.8587 29.6002 65.3232 29.1604C65.3096 29.1423 65.2915 29.122 65.2802 29.104C65.1537 28.9236 65.0543 28.6732 65.2825 28.5243C65.5039 28.4183 65.6666 28.4928 65.7638 28.6303Z" fill="#D6925B"/>
<path d="M57.9588 31.7403C58.0696 31.8982 58.0537 32.1531 57.8165 32.2343C57.6628 32.2816 57.5408 32.223 57.4685 32.1215C57.36 31.9659 57.3758 31.711 57.6131 31.632C57.7645 31.5802 57.8865 31.6388 57.9588 31.7403Z" fill="#D6925B"/>
<path d="M62.9347 33.1519C63.2759 33.6345 62.4918 34.0834 61.8139 33.7067C61.6399 33.6729 61.5088 33.5849 61.423 33.4834C61.4094 33.4721 61.3958 33.4586 61.3845 33.4518L61.3913 33.4406C61.1834 33.1451 61.3258 32.7481 61.7845 32.9782C61.8659 32.9195 61.963 32.8947 62.0534 32.9015C62.1144 32.7391 62.2929 32.6624 62.5415 32.8406L62.5664 32.8541L62.5573 32.8451L62.5799 32.8609C62.7517 32.9556 62.8669 33.0549 62.9347 33.1519ZM62.5438 32.8429C62.5551 32.8519 62.5664 32.8586 62.5777 32.8677L62.5754 32.8632C62.5641 32.8564 62.5551 32.8519 62.5438 32.8429Z" fill="#D6925B"/>
<path d="M57.5815 36.5533C57.6764 36.6864 57.6719 36.8894 57.5612 37.0202C57.3668 37.239 57.1589 37.1645 57.0505 37.0112C56.9895 36.9254 56.9623 36.8149 56.9895 36.7202C56.9962 36.5375 57.1386 36.3571 57.3646 36.4089C57.403 36.4202 57.4595 36.4383 57.4866 36.4631C57.525 36.4856 57.5566 36.5172 57.5815 36.5533ZM57.1838 36.5352C57.1973 36.533 57.2109 36.5285 57.2245 36.524L57.1973 36.5307L57.1838 36.5352Z" fill="#D6925B"/>
<path d="M73.9235 32.3023C74.032 32.4579 74.0162 32.7127 73.7789 32.7917C73.6275 32.8436 73.5055 32.7827 73.4354 32.6834C73.3224 32.5233 73.3382 32.2707 73.5755 32.1895C73.7292 32.1399 73.8512 32.2008 73.9235 32.3023Z" fill="#D6925B"/>
<path d="M70.351 35.4661C70.4617 35.6217 70.4436 35.8765 70.2064 35.9555C70.0572 36.0074 69.9352 35.9487 69.8606 35.845C69.7521 35.6893 69.768 35.4345 70.003 35.3555C70.1566 35.3014 70.2809 35.3646 70.351 35.4661Z" fill="#D6925B"/>
<path d="M54.7726 31.8193C54.7929 31.8464 54.7975 31.887 54.7794 31.9479C54.7093 32.0471 54.4156 32.1396 54.341 32.0336C54.3207 32.0065 54.3184 31.9637 54.3365 31.9073C54.4088 31.8103 54.698 31.7133 54.7726 31.8193Z" fill="#CC7E45"/>
<path d="M65.0791 35.5744C65.0972 35.5992 65.1062 35.6353 65.1062 35.6849C65.1423 35.8586 64.9412 35.9691 64.8667 35.8631C64.8486 35.8383 64.8396 35.8022 64.8418 35.7571C64.8034 35.5789 65.0045 35.4707 65.0791 35.5744Z" fill="#D6925B"/>
<path d="M53.4056 36.0748C53.4508 36.1357 53.4417 36.2372 53.3491 36.2711C53.2881 36.2914 53.2384 36.2666 53.2113 36.2282C53.1661 36.1628 53.1728 36.0613 53.2678 36.032C53.3288 36.0094 53.3785 36.0342 53.4056 36.0748Z" fill="#D6925B"/>
<path d="M73.675 27.3601C73.6976 27.3939 73.7021 27.4323 73.6795 27.4796C73.6253 27.5879 73.4061 27.5699 73.336 27.4729C73.3179 27.4481 73.3112 27.4165 73.3202 27.3826C73.3496 27.2383 73.6004 27.2563 73.675 27.3601Z" fill="#D6925B"/>
<path d="M83.7916 33.6077C83.8345 33.6686 83.7938 33.7588 83.726 33.8106C83.6605 33.8603 83.5679 33.8783 83.5068 33.7904C83.5023 33.7836 83.4978 33.7768 83.4933 33.7678C83.4413 33.6483 83.5678 33.5558 83.6718 33.5513C83.7351 33.5603 83.7735 33.5828 83.7916 33.6077Z" fill="#D6925B"/>
<path d="M88.5686 45.0405C88.6748 45.1916 88.3177 45.3991 88.1889 45.2841C88.1799 45.2751 88.1753 45.2683 88.1708 45.2593C88.0556 45.0969 88.3674 44.9548 88.5008 44.9864C88.5324 45.0022 88.555 45.0225 88.5686 45.0405Z" fill="#E0A564"/>
<path d="M85.3553 29.4175C85.6897 29.9926 84.7836 30.2565 84.5847 29.9746C84.5215 29.8843 84.5282 29.7355 84.6751 29.519C84.8604 29.3453 85.1542 29.1649 85.3553 29.4175Z" fill="#D6925B"/>
<path d="M82.1263 38.5764C82.1376 38.5944 82.1511 38.6192 82.1624 38.6418C82.3274 39.023 81.7828 39.2846 81.5726 38.9869C81.5568 38.9643 81.5433 38.9418 81.5342 38.9169C81.367 38.5358 81.9116 38.2741 82.1263 38.5764Z" fill="#E0A564"/>
<path d="M78.3955 35.033C78.409 35.0556 78.4203 35.0736 78.4339 35.1029C78.5966 35.4796 78.0565 35.7458 77.8418 35.4435C77.826 35.421 77.817 35.4007 77.8034 35.3736C77.6407 34.9969 78.1808 34.7308 78.3955 35.033Z" fill="#D6925B"/>
<path d="M93.6009 33.8016C93.5738 33.8783 93.5173 33.9459 93.4224 34.0023C93.2778 34.0655 93.0947 34.0113 93.0043 33.885C92.993 33.867 92.9795 33.8444 92.9704 33.8219C92.9275 33.7069 92.8755 33.5986 92.8123 33.4948C92.8258 33.5196 92.8416 33.5467 92.8574 33.5715C92.8461 33.5445 92.8281 33.5174 92.8123 33.4926C92.7784 33.4452 92.7399 33.4024 92.7015 33.3572C92.6631 33.3144 92.627 33.2761 92.5953 33.2287C92.5434 33.1565 92.5072 33.0731 92.5162 32.9761L92.7151 33.1182C93.0156 33.3437 93.3094 33.5693 93.6009 33.8016Z" fill="#D6925B"/>
<path d="M93.3907 33.1338C93.5444 33.3504 93.6732 33.603 93.6009 33.8015C93.3094 33.5691 93.0156 33.3436 92.7151 33.118L92.5163 32.976C92.5185 32.9737 92.5163 32.9714 92.5185 32.9692C92.5479 32.6782 92.9411 32.5655 93.1241 32.7955C93.1987 32.8857 93.3004 33.003 93.3907 33.1338Z" fill="#CC7E45"/>
<path d="M88.5843 33.5899L88.5731 33.5854L88.5843 33.5899Z" fill="#D6925B"/>
<path d="M89.1132 33.5312C89.1155 33.5334 89.12 33.5425 89.1223 33.5447C89.0952 33.9484 88.4376 33.9281 88.25 33.662C88.1823 33.565 88.1755 33.4387 88.2726 33.2898C88.3653 33.1929 88.4647 33.2357 88.5257 33.3214C88.58 33.3981 88.6026 33.5041 88.5687 33.5853H88.5732H88.5664C88.7517 33.6552 88.9754 33.335 89.1132 33.5312Z" fill="#D6925B"/>
<path d="M77.7673 29.6829C77.8057 29.737 77.8012 29.8115 77.7063 29.8701C77.5888 29.9265 77.46 29.8678 77.4058 29.7912C77.3538 29.719 77.3719 29.6265 77.5323 29.5994C77.6249 29.5791 77.7221 29.6175 77.7673 29.6829Z" fill="#D6925B"/>
<path d="M87.4026 37.9859C87.4907 38.1122 87.4184 38.3941 87.2398 38.331C87.2173 38.3197 87.1992 38.3062 87.1856 38.2836C87.1043 38.1686 87.154 37.9115 87.3144 37.934C87.3551 37.9385 87.3822 37.9566 87.4026 37.9859Z" fill="#D6925B"/>
<path d="M99.4468 42.1155C99.5349 42.2418 99.5417 42.4313 99.4468 42.5621C99.2615 42.817 99.0242 42.7335 98.9112 42.5711C98.8547 42.4922 98.8276 42.3975 98.8434 42.3095C98.8344 42.1291 98.9587 41.9328 99.1937 41.9622C99.2298 41.9689 99.2908 41.9847 99.3202 42.0073C99.3722 42.0321 99.4129 42.0682 99.4468 42.1155Z" fill="#D6925B"/>
<path d="M92.0439 37.1709C92.1501 37.3221 92.1456 37.5589 91.9264 37.6536C91.7683 37.7258 91.6259 37.6581 91.5491 37.5499C91.4429 37.3988 91.4474 37.1619 91.6643 37.0649C91.827 36.995 91.9648 37.0582 92.0439 37.1709Z" fill="#D6925B"/>
<path d="M96.1589 37.584C96.1769 37.6088 96.1837 37.6494 96.1724 37.7058C96.1091 37.8141 95.8109 37.9358 95.7363 37.8276C95.7159 37.7983 95.7092 37.7599 95.7205 37.7035C95.786 37.5975 96.0798 37.4735 96.1589 37.584Z" fill="#D6925B"/>
<path d="M95.1781 42.0021C95.2211 42.063 95.2188 42.1577 95.1329 42.1961C95.0674 42.2254 95.0132 42.1983 94.9793 42.1532C94.9386 42.0946 94.9409 42.0021 95.029 41.9615C95.0923 41.9322 95.1465 41.9592 95.1781 42.0021Z" fill="#D6925B"/>
<path d="M102.468 45.7557C102.511 45.8188 102.509 45.9113 102.42 45.9519C102.357 45.979 102.301 45.9542 102.269 45.9068C102.228 45.8482 102.231 45.7557 102.317 45.7173C102.382 45.688 102.436 45.7128 102.468 45.7557Z" fill="#D6925B"/>
<path d="M105.159 53.5913C105.166 53.686 105.173 53.783 105.177 53.88C105.114 53.8958 105.051 53.9093 104.99 53.9206C104.992 53.8935 104.994 53.8665 104.997 53.8394C105.035 53.7266 105.091 53.6432 105.159 53.5913Z" fill="#CC7E45"/>
<path d="M97.2865 58.0166C97.2752 57.8655 97.3452 57.7121 97.5283 57.6422C97.63 57.6061 97.7226 57.6084 97.7994 57.64L97.2865 58.0166Z" fill="#D6925B"/>
<path d="M99.7111 49.2566C99.7427 49.2995 99.745 49.3581 99.6975 49.4348C99.6184 49.5228 99.449 49.5431 99.3834 49.4506C99.3676 49.4281 99.3563 49.4032 99.3563 49.3717C99.3473 49.1619 99.6297 49.1416 99.7111 49.2566Z" fill="#D6925B"/>
<path d="M62.6025 56.2124C62.6409 56.2913 62.6161 56.4063 62.5008 56.4289C62.4375 56.4424 62.3878 56.4154 62.3585 56.3725C62.3223 56.3229 62.3155 56.2462 62.3517 56.1943C62.4353 56.1988 62.5189 56.2056 62.6025 56.2124Z" fill="#D0975C"/>
<path d="M57.4775 54.6718C57.5114 54.7191 57.5362 54.7823 57.5408 54.8545C57.5249 55.6912 56.6572 55.6574 56.3612 55.2356C56.2256 55.0439 56.2075 54.7778 56.4312 54.4778C56.7047 54.2432 56.9713 54.3379 57.125 54.5274C57.2583 54.5139 57.3961 54.5567 57.4775 54.6718Z" fill="#D0975C"/>
<path d="M48.5269 54.1349C48.6941 54.374 48.5336 54.8048 48.1631 54.7416C48.0523 54.7213 47.9755 54.6695 47.9235 54.595C47.7586 54.3605 47.919 53.9297 48.2919 53.9928C48.4003 54.0131 48.4794 54.0673 48.5269 54.1349Z" fill="#D0975C"/>
<path d="M53.5909 57.0175C53.6248 57.0694 53.6496 57.1325 53.6474 57.2092C53.6541 57.5769 53.1841 57.649 53.0169 57.41C52.9807 57.3603 52.9604 57.2972 52.9581 57.2182C52.9536 56.8551 53.4237 56.7829 53.5909 57.0175Z" fill="#D0975C"/>
<path d="M57.1702 42.4723C57.2357 42.5648 57.1544 42.8061 56.9804 42.7137C56.9646 42.7024 56.951 42.6911 56.9442 42.6798C56.8945 42.6099 56.9397 42.5039 57.0075 42.4565C57.0888 42.4159 57.1431 42.4317 57.1702 42.4723Z" fill="#EDC98D"/>
<path d="M53.8733 46.4148C54.0473 46.6606 53.7422 47.0531 53.4395 46.8613C53.3988 46.8343 53.3694 46.8072 53.3468 46.7734C53.1751 46.5275 53.4756 46.1328 53.7807 46.3291C53.8213 46.3539 53.8507 46.3832 53.8733 46.4148Z" fill="#EDC98D"/>
<path d="M61.1857 39.6564C61.4026 40.0331 60.6727 40.4097 60.4581 40.103C60.4242 40.0556 60.4016 39.9857 60.3993 39.8955C60.4355 39.7083 60.6569 39.7692 60.7473 39.8955C60.7654 39.9203 60.7744 39.9451 60.7812 39.9722L60.7835 39.9699L60.7812 39.9722L60.7857 39.9699C60.9642 39.9203 60.9688 39.5549 61.1857 39.6564Z" fill="#EDC98D"/>
<path d="M67.3704 41.806C67.4066 41.8579 67.4269 41.9166 67.4337 41.9955C67.4563 42.3834 66.9478 42.4759 66.7693 42.2233C66.7354 42.1714 66.7128 42.1128 66.7083 42.0338C66.6857 41.6459 67.1896 41.5512 67.3704 41.806Z" fill="#EDC98D"/>
<path d="M60.2366 40.4257C60.2795 40.4866 60.2727 40.5881 60.1801 40.6219C60.1191 40.6422 60.0694 40.6174 60.0423 40.5791C59.9971 40.5136 60.0016 40.4121 60.0988 40.3828C60.1575 40.3625 60.2095 40.3851 60.2366 40.4257Z" fill="#F0CC8F"/>
<path d="M54.2349 47.9639C54.2824 48.0271 54.2801 48.115 54.1649 48.1759C54.0767 48.203 53.966 48.1692 53.9163 48.1015C53.8892 48.0609 53.8801 48.0135 53.9072 47.9571C53.9863 47.8105 54.1649 47.8624 54.2349 47.9639Z" fill="#E8C58B"/>
<path d="M53.0689 46.656C52.8407 47.4206 52.7073 48.1943 52.6599 48.9679C52.5017 48.8799 52.3458 48.7897 52.1967 48.704C52.4226 47.98 52.7186 47.2853 53.0689 46.656Z" fill="#B18F68"/>
</svg>
