<svg width="136" height="132" viewBox="0 0 136 132" fill="none" xmlns="http://www.w3.org/2000/svg">
<path d="M76.7385 86.8747L72.6782 109.464C72.6612 109.574 72.6668 109.688 72.7078 109.794L79.7862 129.594L70.6191 130.531C70.266 130.568 70.0132 130.884 70.0485 131.235C70.0838 131.588 70.3958 131.845 70.7489 131.808L80.7327 130.787C80.9274 130.767 81.1039 130.658 81.2099 130.492C81.3158 130.325 81.3397 130.118 81.2691 129.933L73.9732 109.522L77.997 87.1016C78.0619 86.7527 77.833 86.4209 77.4799 86.3582C77.1325 86.2944 76.8034 86.527 76.7385 86.8747Z" fill="#994D2B"/>
<path d="M70.2717 131.632C68.7661 130.57 74.9971 124.756 80.5037 130.232C74.9971 130.635 72.143 131.638 70.2717 131.632Z" fill="#994D2B"/>
<path d="M110.98 79.7504L106.821 104.717C106.804 104.855 106.826 104.997 106.891 105.123L117.246 124.708L108.703 129.068C108.386 129.228 108.263 129.616 108.421 129.931C108.58 130.246 108.969 130.371 109.286 130.21L118.406 125.555C118.558 125.478 118.676 125.341 118.729 125.177C118.776 125.015 118.759 124.836 118.682 124.684L108.127 104.713L112.245 79.9601C112.305 79.6113 112.069 79.2806 111.716 79.2225C111.368 79.1643 111.039 79.4004 110.98 79.7504Z" fill="#994D2B"/>
<path d="M108.774 130.229C106.973 129.821 110.534 122.071 117.7 125.041C112.764 127.511 110.504 129.525 108.774 130.229Z" fill="#994D2B"/>
<path d="M41.7431 56.8942L23.369 66.3819L10.7077 52.7967C10.4663 52.5379 10.0608 52.5219 9.80116 52.7636C9.54262 53.0065 9.53123 53.4124 9.77154 53.6712L22.7631 67.6109C22.9567 67.8218 23.2688 67.8754 23.5217 67.7443L42.3251 58.0342C42.6429 57.8712 42.767 57.4859 42.6019 57.1701C42.4436 56.8554 42.0552 56.7323 41.7431 56.8942Z" fill="#994D2B"/>
<path d="M10.6723 53.1183C10.4958 54.0463 9.81929 54.5764 8.97194 54.801C7.88314 55.387 6.73626 56.5579 6.3012 57.145C6.10644 57.4095 5.73629 57.4665 5.47093 57.2727C5.2067 57.0777 5.14747 56.706 5.34222 56.4393C5.61784 56.0665 6.18274 55.4315 6.88886 54.8284C6.30119 54.7109 5.82399 54.5114 5.47093 54.2253C4.90033 54.3678 4.17028 54.5821 3.65322 54.7349C3.21816 54.8626 2.81158 54.9823 2.47674 55.0724C2.16468 55.1579 1.83551 54.9697 1.74667 54.6528C1.66467 54.3347 1.8526 54.0075 2.17036 53.9209C2.48811 53.8354 2.89355 53.7168 3.31723 53.5914C3.92426 53.4136 4.41744 53.2722 4.81833 53.1627C4.80011 53.0932 4.78872 53.0214 4.78302 52.9473C3.57122 52.8948 2.11112 52.8219 1.26491 52.7478C0.934626 52.7181 0.700031 52.4285 0.722809 52.1013C0.758115 51.773 1.04625 51.5313 1.3697 51.5598C2.19427 51.6328 3.67712 51.7057 4.88323 51.7582C4.947 51.5484 5.02445 51.3592 5.12353 51.1904C4.24771 51.0548 3.27055 50.8826 2.58834 50.6991C2.27628 50.6147 2.08266 50.2875 2.17036 49.9694C2.24666 49.681 2.52911 49.4974 2.81725 49.5328C2.84117 49.5362 2.87078 49.5419 2.90039 49.5487C3.86504 49.8087 5.55976 50.0584 6.5358 50.1917C7.03578 50.0698 7.60638 50.072 8.19519 50.1837C9.81358 50.4927 10.9775 51.5017 10.6723 53.1183Z" fill="#994D2B"/>
<path d="M98.9781 89.7523C138.809 71.7801 131.132 9.40444 76.9447 0.384181C75.4493 0.135645 73.6908 0.718221 72.1613 2.19234C68.7479 5.47119 66.4951 13.1633 70.9255 25.9104C71.3492 27.1258 71.8902 28.3069 72.5143 29.4492C76.4971 36.7924 83.6518 42.5863 82.1507 46.0396C81.8865 46.6564 81.3455 47.1991 80.4571 47.6619C74.8206 50.6045 74.6794 41.0107 68.0304 31.669C67.1124 30.3807 66.0715 29.0981 64.8768 27.8543C56.5228 19.1578 44.7259 14.3159 40.5199 18.5718C40.0017 19.0996 39.5951 19.7677 39.3309 20.5863C36.8891 28.031 36.036 36.0012 36.5599 43.8438C38.7136 75.7625 63.8301 105.611 98.9781 89.7523Z" fill="#E0AB6C"/>
<path d="M40.5198 18.5718C50.7393 18.0314 58.099 24.7362 61.9587 29.9303C69.643 40.2617 71.8081 61.3952 82.4512 54.0919C87.2996 50.7618 86.9226 44.6795 80.998 38.3908C78.9035 36.1734 72.5142 29.4492 72.5142 29.4492C77.2088 38.1047 86.3053 44.6099 80.457 47.6619C74.0438 51.0092 74.7442 38.1263 64.8767 27.8543C56.5227 19.1578 44.7258 14.3159 40.5198 18.5718Z" fill="#D69763"/>
<path d="M98.9781 89.7523C138.809 71.7801 131.132 9.40444 76.9446 0.384181C75.4492 0.135645 73.6908 0.718221 72.1612 2.19234C84.5104 5.6479 126.802 27.8588 106.15 65.3958C94.0716 87.3604 49.4091 88.9189 36.5598 43.8438C38.7135 75.7625 63.83 105.611 98.9781 89.7523Z" fill="#D69763"/>
<path d="M39.3252 20.5851C37.5189 25.9344 36.5007 31.5549 36.2421 37.2108C36.1123 40.0404 36.1772 42.8792 36.413 45.7043C36.6533 48.5306 37.0599 51.3443 37.6544 54.1192C38.848 59.6691 40.7135 65.0935 43.3433 70.1521C45.9559 75.214 49.3146 79.9248 53.4397 83.9127C53.9636 84.3995 54.475 84.9023 55.0285 85.364L55.8395 86.0697L56.6811 86.7424L57.0991 87.0787C57.2403 87.1893 57.3872 87.293 57.5341 87.4013L58.3997 88.0398C58.6936 88.2518 58.9931 88.4456 59.2938 88.6474C59.5933 88.8458 59.8815 89.0567 60.1935 89.2403C60.8063 89.6165 61.4122 90.003 62.0534 90.3416C62.3654 90.5137 62.6763 90.6973 62.9941 90.8615L63.9656 91.3437C64.1239 91.4235 64.2834 91.5079 64.4474 91.5843L64.9416 91.8032L65.9302 92.2421L66.9427 92.6365C67.2776 92.7699 67.6124 92.9033 67.9541 93.0139L68.9837 93.3593C69.1545 93.4209 69.3253 93.47 69.5019 93.519L70.0189 93.6672L70.5428 93.8165C70.7137 93.8678 70.8902 93.918 71.0667 93.9568L72.1202 94.2053C72.2968 94.2463 72.4733 94.2931 72.6487 94.3262L73.1783 94.4265L74.25 94.6237L75.3206 94.7731C75.6793 94.8209 76.0381 94.8802 76.3969 94.9042C79.2738 95.196 82.1803 95.163 85.0515 94.8358L85.3226 94.8084L85.5925 94.7696L86.1289 94.6932L87.1995 94.5359C87.9056 94.4048 88.6174 94.2725 89.3236 94.1266C90.0229 93.9556 90.729 93.7994 91.4237 93.6136L92.4647 93.3172L92.9829 93.169L93.2414 93.0949L93.5011 93.0094L94.5238 92.6707L95.0364 92.5009L95.2949 92.4154L95.542 92.3208C96.2185 92.0631 96.8951 91.8214 97.5602 91.5523C98.2253 91.2707 98.8836 90.9983 99.543 90.7087C100.196 90.3997 100.855 90.1033 101.502 89.7795C106.656 87.1745 111.333 83.5661 115.099 79.1449C116.97 76.9264 118.612 74.5128 119.988 71.9602C121.37 69.4099 122.465 66.7068 123.288 63.9307C124.953 58.3785 125.46 52.5128 124.936 46.7737C124.395 41.0335 122.848 35.3992 120.359 30.221C117.882 25.0371 114.528 20.2898 110.474 16.2528C106.427 12.2033 101.725 8.85038 96.6536 6.26584C94.1184 4.97071 91.4886 3.86825 88.8053 2.94137C86.1164 2.01449 83.3693 1.28713 80.5926 0.711393L79.5505 0.49248L78.5096 0.308951L77.4618 0.128797C77.2852 0.0991552 77.1144 0.0626776 76.9322 0.0410162L76.644 0.0125214L76.5028 -3.8147e-06L76.3616 0.00110954C75.603 -0.00687097 74.8559 0.172116 74.1794 0.467395C73.4961 0.763814 72.8787 1.17425 72.3252 1.65308C71.225 2.61872 70.4016 3.84772 69.7957 5.1474C69.2012 6.45735 68.8128 7.84711 68.5839 9.25282C68.3538 10.6608 68.2901 12.0882 68.3254 13.5042L68.3368 14.0365L68.3721 14.5678C68.4017 14.9212 68.4131 15.2758 68.4598 15.627L68.5782 16.6838L68.7365 17.7315C68.978 19.1258 69.2661 20.5133 69.6488 21.8734C69.8253 22.5574 70.0428 23.2301 70.249 23.905C70.3492 24.2436 70.4665 24.5754 70.5838 24.9083L70.9255 25.9116L70.6077 24.9014C70.5018 24.5651 70.3845 24.2311 70.2957 23.8902C70.1078 23.2107 69.9016 22.5369 69.7433 21.8483C69.3959 20.4814 69.1363 19.095 68.9313 17.7019L68.7957 16.6564L68.7069 15.6041C68.6659 15.2564 68.6602 14.9053 68.6431 14.553L68.6192 14.0274V13.4996C68.6135 12.0973 68.7126 10.6927 68.9723 9.32007C69.2251 7.94857 69.6374 6.60555 70.2376 5.35717C70.8492 4.12019 71.6613 2.971 72.7022 2.09428C73.2261 1.65991 73.8024 1.2951 74.4197 1.03973C75.0381 0.786632 75.6964 0.647547 76.3445 0.666929L76.4675 0.668077L76.5916 0.682898L76.8319 0.711393C76.9914 0.733055 77.1736 0.775246 77.3444 0.806028L78.374 1.00779L79.4093 1.21073L80.4332 1.44673C83.1689 2.07491 85.8635 2.84903 88.4933 3.81695C91.123 4.78373 93.6833 5.9238 96.148 7.23717C101.078 9.86503 105.609 13.2271 109.474 17.2379C113.346 21.235 116.511 25.899 118.806 30.9461C121.118 35.9875 122.506 41.4348 122.93 46.9425C123.141 49.6969 123.078 52.4661 122.788 55.2034C122.73 55.892 122.612 56.5704 122.524 57.2521C122.483 57.5953 122.407 57.9316 122.348 58.2702L122.16 59.286C121.87 60.629 121.547 61.9686 121.13 63.2774C120.311 65.8996 119.276 68.4568 117.952 70.8612C116.646 73.2702 115.093 75.548 113.334 77.6446C111.563 79.7389 109.575 81.6463 107.415 83.3427C105.262 85.0414 102.931 86.5189 100.484 87.781C99.8722 88.0968 99.2492 88.3852 98.6308 88.6896C98.001 88.9724 97.3597 89.2437 96.7311 89.5207C96.0956 89.7886 95.4418 90.0269 94.8006 90.2812L94.5591 90.3758L94.312 90.459L93.8246 90.6277L92.8474 90.9641C90.2233 91.8191 87.5286 92.4621 84.8043 92.8201C82.0743 93.1792 79.3148 93.2568 76.5791 93.0276C76.2329 93.0105 75.8912 92.9592 75.5495 92.9204L74.5325 92.795L73.5143 92.6229L73.0018 92.5385C72.8378 92.51 72.6669 92.4667 72.5018 92.4336L71.4904 92.2136C71.3253 92.1794 71.1613 92.1338 70.9904 92.0882L70.4961 91.9548L69.9962 91.8214C69.831 91.7781 69.6602 91.7336 69.5019 91.6789L68.519 91.3642C68.1898 91.2662 67.8664 91.1442 67.5429 91.0234L66.5771 90.6631L65.6238 90.2595L65.1478 90.0588C64.9952 89.9882 64.8357 89.9106 64.6831 89.8365L63.7469 89.3908C63.436 89.2391 63.1353 89.0693 62.8358 88.9085C62.2174 88.595 61.6297 88.2325 61.0352 87.8836C60.7356 87.7137 60.4532 87.5142 60.1582 87.3295C59.8701 87.1391 59.5762 86.9567 59.2938 86.7606L58.4464 86.1598C58.3052 86.0583 58.164 85.9614 58.0227 85.8577L57.6105 85.5396L56.787 84.9057L55.9932 84.2399C55.4522 83.8044 54.9454 83.3267 54.4283 82.8638C50.3624 79.0765 46.9912 74.5425 44.3432 69.6253C43.0141 67.1662 41.849 64.6125 40.8718 61.9869C39.89 59.3647 39.0723 56.6775 38.4243 53.9459C37.1362 48.4838 36.5473 42.8507 36.6601 37.2256C36.7831 31.6005 37.6476 25.9765 39.3252 20.5851Z" fill="#CC834B"/>
<path d="M102.578 20.0128C102.444 20.0128 102.297 19.9296 102.308 19.7517C102.32 19.624 102.414 19.5705 102.515 19.5705C102.608 19.5705 102.702 19.6149 102.762 19.689C102.89 19.8977 102.738 20.0128 102.578 20.0128Z" fill="#D18D58"/>
<path d="M93.1947 36.5257C92.9942 36.5257 92.7243 36.3569 92.7357 36.1734C92.7528 36.0434 92.8359 35.9933 92.9293 35.9933C93.1001 35.9933 93.3302 36.1438 93.3883 36.2714C93.4236 36.4538 93.3245 36.5257 93.1947 36.5257Z" fill="#DB9F60"/>
<path d="M108.804 18.2799C108.133 18.2799 107.369 17.1923 108.597 17.1239C108.98 17.1866 109.474 17.3747 109.357 17.8558C109.233 18.1636 109.021 18.2799 108.804 18.2799Z" fill="#D18D58"/>
<path d="M95.5477 15.0478C95.1947 15.0478 94.8359 14.683 95.0591 14.276C95.1593 14.0901 95.3245 14.0115 95.4896 14.0115C95.8416 14.0115 96.2014 14.3774 95.9771 14.7844C95.878 14.9703 95.7129 15.0478 95.5477 15.0478Z" fill="#D18D58"/>
<path d="M111.587 32.0087C111.216 32.0087 110.922 31.5709 111.128 31.2266C111.216 31.0829 111.286 30.9359 111.351 30.7808C111.474 30.3909 111.51 29.8015 111.981 29.8015C112.028 29.8015 112.074 29.8072 112.128 29.8175C112.97 30.1424 112.292 31.6621 111.734 31.9847C111.686 32.0018 111.634 32.0087 111.587 32.0087Z" fill="#D18D58"/>
<path d="M107.679 26.4063C107.651 26.4063 107.616 26.3972 107.579 26.379C106.903 26.2524 106.515 25.134 107.386 25.0223C107.763 25.0622 107.579 25.5946 107.298 25.6596L107.304 25.6665C107.397 25.8489 107.609 25.9264 107.785 26.0108C107.986 26.1179 107.868 26.4063 107.679 26.4063ZM107.298 25.6596L107.304 25.6642L107.298 25.6596Z" fill="#D18D58"/>
<path d="M100.484 28.6432C100.402 28.6432 100.326 28.6021 100.296 28.4995C100.249 28.324 100.484 28.1188 100.673 28.1188C100.743 28.1188 100.808 28.1473 100.849 28.2168C100.961 28.4083 100.69 28.6432 100.484 28.6432Z" fill="#DB9F60"/>
<path d="M121.329 45.3224C121.1 45.3224 120.865 45.1594 120.906 44.855C120.93 44.5119 121.283 44.2747 121.606 44.2747C121.788 44.2747 121.965 44.3511 122.071 44.5232C122.265 44.8208 121.989 45.1526 121.688 45.1537C121.688 45.1537 121.682 45.1526 121.677 45.1526C121.6 45.2677 121.465 45.3224 121.329 45.3224Z" fill="#D18D58"/>
<path d="M114.752 47.1716C114.464 47.1716 114.281 46.8992 114.234 46.6267C114.187 46.3519 114.275 46.0795 114.522 46.0795C114.628 46.0795 114.763 46.1296 114.934 46.2505C115.14 46.4819 115.352 46.8501 115.035 47.0896C114.929 47.1466 114.834 47.1716 114.752 47.1716Z" fill="#D18D58"/>
<path d="M109.551 57.1165C109.491 57.1165 109.445 57.1108 109.392 57.0983C109.051 56.9694 109.051 56.445 109.398 56.3196C109.539 56.2706 109.675 56.2079 109.803 56.1349C109.768 56.1531 109.738 56.1725 109.703 56.1908C109.887 56.111 110.033 55.9252 110.203 55.834C110.086 56.2421 109.956 56.6582 109.822 57.0698C109.733 57.0983 109.639 57.1165 109.551 57.1165Z" fill="#DB9F60"/>
<path d="M109.822 57.0698C109.956 56.6582 110.086 56.2421 110.203 55.8339C110.263 55.8043 110.327 55.7849 110.398 55.7849C110.422 55.7849 110.439 55.786 110.457 55.7883C110.816 55.8328 110.945 56.3196 110.651 56.5396C110.415 56.7255 110.127 56.9694 109.822 57.0698Z" fill="#D18D58"/>
<path d="M114.84 37.7718C114.764 37.7718 114.699 37.717 114.693 37.5825C114.646 37.4115 114.782 37.2769 114.893 37.2769C114.964 37.2769 115.035 37.3317 115.04 37.4651C115.087 37.6372 114.951 37.7718 114.84 37.7718Z" fill="#D18D58"/>
<path d="M118.711 59.9313C118.588 59.9313 118.423 59.8127 118.4 59.6828C118.4 59.5539 118.464 59.5026 118.547 59.5026C118.67 59.5026 118.835 59.6235 118.859 59.7535C118.859 59.8834 118.794 59.9313 118.711 59.9313Z" fill="#D18D58"/>
<path d="M97.5841 62.655C97.4657 62.655 97.4133 62.5398 97.419 62.4258C97.4304 62.3107 97.501 62.1967 97.6422 62.1967C97.6478 62.1967 97.6604 62.1967 97.6718 62.1979C97.8949 62.2286 97.8596 62.5147 97.7071 62.6162C97.6604 62.6424 97.6194 62.655 97.5841 62.655Z" fill="#DB9F60"/>
<path d="M82.7508 53.1866C82.6221 53.0407 82.8214 52.6395 83.0333 52.6395C83.0389 52.6395 83.0458 52.6406 83.0515 52.6406C83.0982 52.6486 83.1278 52.6645 83.1517 52.6828C83.0982 52.7854 83.0458 52.8846 82.9695 52.9621C82.9979 52.9267 83.0275 52.8903 83.0515 52.8549C82.9626 52.9735 82.8636 53.0829 82.7508 53.1866Z" fill="#D18D58"/>
<path d="M105.78 73.8232C105.614 73.8232 105.449 73.7502 105.362 73.6089C105.356 73.61 105.356 73.61 105.35 73.61C104.92 73.61 104.632 72.9533 105.12 72.6956C105.226 72.6307 105.343 72.601 105.468 72.601C105.867 72.601 106.268 72.9396 106.256 73.366C106.25 73.6738 106.02 73.8232 105.78 73.8232Z" fill="#D18D58"/>
<path d="M106.65 79.4688C106.35 79.4688 106.161 79.2738 106.092 79.0367C105.856 78.9706 105.661 78.7551 105.756 78.4495C105.938 78.0357 106.22 77.8749 106.497 77.8749C107.185 77.8749 107.839 78.9101 106.826 79.4483C106.761 79.4631 106.703 79.4688 106.65 79.4688Z" fill="#D18D58"/>
<path d="M99.2366 68.7863C99.1899 68.7863 99.1432 68.7795 99.084 68.7635C98.3015 68.3941 98.9542 67.4786 99.4246 67.4786C99.625 67.4786 99.7902 67.6462 99.7902 68.1C99.7253 68.4055 99.5658 68.7863 99.2366 68.7863Z" fill="#DB9F60"/>
<path d="M110.392 74.8002C110.316 74.8002 110.227 74.7774 110.145 74.7238C109.698 74.4502 109.986 73.8277 110.404 73.8277C110.48 73.8277 110.569 73.8494 110.651 73.903C111.093 74.1777 110.81 74.8002 110.392 74.8002Z" fill="#D18D58"/>
<path d="M116.375 70.6332C116.222 70.6332 116.07 70.5591 115.981 70.3813C115.952 70.3277 115.923 70.2422 115.923 70.1863C115.882 69.8591 116.176 69.5581 116.499 69.5581C116.505 69.5581 116.505 69.5581 116.505 69.5581C117.217 69.598 117.099 70.3779 116.693 70.5249C116.605 70.5922 116.488 70.6332 116.375 70.6332ZM116.241 70.4235C116.252 70.4349 116.27 70.4485 116.287 70.4611L116.317 70.4736C116.293 70.46 116.263 70.4429 116.241 70.4235Z" fill="#D18D58"/>
<path d="M98.7013 85.6502C98.4075 85.6502 98.1068 85.4097 98.2196 85.0437C98.3016 84.7564 98.5715 84.6025 98.8426 84.6025C99.0658 84.6025 99.2902 84.7074 99.4075 84.9263C99.608 85.3036 99.2777 85.6286 98.9485 85.6286C98.9246 85.6286 98.8961 85.6263 98.8722 85.6229C98.8187 85.6411 98.7606 85.6502 98.7013 85.6502Z" fill="#D18D58"/>
<path d="M113.11 77.9057C113.117 77.8031 113.169 77.7564 113.245 77.745C113.204 77.7985 113.158 77.8521 113.11 77.9057Z" fill="#D18D58"/>
<path d="M113.622 78.2922C113.463 78.2922 113.169 78.1098 113.11 77.9673C113.11 77.9445 113.11 77.9251 113.11 77.9057C113.158 77.8521 113.204 77.7986 113.245 77.745C113.258 77.7416 113.269 77.7416 113.281 77.7416C113.557 77.7416 114.022 78.1383 113.634 78.2922C113.628 78.2922 113.628 78.2922 113.622 78.2922Z" fill="#C77A43"/>
<path d="M102.996 82.4135C102.961 82.4135 102.926 82.4044 102.896 82.3839C102.719 82.2744 102.832 82.0248 102.996 82.0248C103.026 82.0248 103.061 82.0339 103.096 82.0556C103.273 82.165 103.161 82.4135 102.996 82.4135Z" fill="#D18D58"/>
<path d="M107.698 62.3734C107.597 62.3597 107.521 62.2901 107.551 62.1396C107.603 61.9891 107.756 61.9242 107.886 61.9242C107.891 61.9242 107.897 61.9242 107.904 61.9242C107.833 62.0724 107.768 62.2229 107.698 62.3734Z" fill="#DB9F60"/>
<path d="M107.727 62.3745C107.715 62.3745 107.703 62.3734 107.698 62.3734C107.768 62.2229 107.833 62.0724 107.904 61.9242C108.074 61.9333 108.192 62.061 107.986 62.2651C107.921 62.3335 107.821 62.3745 107.727 62.3745Z" fill="#D18D58"/>
<path d="M89.8179 80.9132C89.6231 80.9132 89.5707 80.537 89.712 80.3854C89.7643 80.3477 89.811 80.3318 89.8532 80.3318C90.0468 80.3318 90.1003 80.708 89.9591 80.8596C89.9055 80.8973 89.8589 80.9132 89.8179 80.9132Z" fill="#D18D58"/>
<path d="M118.088 63.3596C118.058 63.3596 118.023 63.3504 117.988 63.3299C117.811 63.2193 117.929 62.9708 118.094 62.9708C118.123 62.9708 118.159 62.9799 118.194 63.0004C118.371 63.111 118.259 63.3596 118.088 63.3596Z" fill="#D18D58"/>
<path d="M49.351 75.6506C49.1323 75.6506 48.9797 75.1536 49.1677 75.01C49.2098 74.9815 49.2508 74.9689 49.2861 74.9689C49.4979 74.9689 49.5856 75.385 49.515 75.5526C49.4569 75.621 49.4034 75.6506 49.351 75.6506Z" fill="#D18D58"/>
<path d="M81.2623 74.6372C80.9445 74.6372 80.621 74.3784 80.7509 73.9816C80.8454 73.6259 81.2042 73.4173 81.5516 73.4173C81.7623 73.4173 81.9627 73.4903 82.1153 73.6522C82.4627 74.025 82.0983 74.5129 81.7099 74.5129C81.6746 74.5129 81.6449 74.5084 81.6096 74.5004C81.5151 74.595 81.3864 74.6372 81.2623 74.6372Z" fill="#DB9F60"/>
<path d="M86.499 78.1851C86.3817 78.1851 86.2701 78.1509 86.1641 78.0939C86.081 78.1383 85.9876 78.1634 85.8988 78.1634C85.7336 78.1634 85.5754 78.0847 85.4751 77.8943C85.187 77.0837 85.7166 76.671 86.2518 76.671C86.77 76.671 87.2871 77.0644 87.0286 77.8613C86.8816 78.0927 86.6869 78.1851 86.499 78.1851Z" fill="#DB9F60"/>
<path d="M72.996 75.4922C72.2728 75.4922 72.2375 74.2529 72.7136 74.1343C72.7557 74.2871 72.8605 74.4228 73.0552 74.4821C73.0666 74.4866 73.0791 74.49 73.0905 74.4934C73.1144 74.498 73.1372 74.5014 73.1554 74.5037L73.1611 74.5049C73.1725 74.5071 73.1908 74.5072 73.2022 74.5072C73.2078 74.5072 73.2078 74.5072 73.2135 74.5072C73.2135 74.5072 73.2135 74.5072 73.2204 74.5072C73.2614 74.5072 73.2967 74.5014 73.332 74.4923C73.3377 74.49 73.3434 74.4889 73.3491 74.4866C73.5313 74.8059 73.6611 75.238 73.2614 75.4443C73.1612 75.4774 73.0723 75.4922 72.996 75.4922Z" fill="#DB9F60"/>
<path d="M64.7947 86.316C64.6717 86.316 64.5475 86.3 64.4359 86.2624C64.0589 86.0378 64.1649 85.4097 64.6011 85.3321C64.748 85.3082 64.8893 85.2706 65.0236 85.2261C65.2776 85.0768 65.6239 84.9263 65.8949 84.9263C66.1774 84.9263 66.3778 85.0825 66.3129 85.559C66.0305 85.9854 65.3596 86.316 64.7947 86.316Z" fill="#D18D58"/>
<path d="M97.3483 74.2575C96.8016 74.2575 96.6478 73.3763 97.2538 73.2452C97.2948 73.236 97.3369 73.2314 97.3722 73.2314C97.919 73.2314 98.0716 74.1128 97.4713 74.245C97.4303 74.2541 97.3893 74.2575 97.3483 74.2575Z" fill="#DB9F60"/>
<path d="M93.3063 84.8853C93.1241 84.8853 92.9419 84.7371 93.1184 84.5364C93.1708 84.4896 93.2471 84.4645 93.3177 84.4645C93.4418 84.4645 93.5534 84.5318 93.5477 84.6777C93.5295 84.8248 93.4179 84.8853 93.3063 84.8853Z" fill="#D18D58"/>
<path d="M90.894 72.1153C90.7061 72.1153 90.5649 72.0366 90.6583 71.812C90.7414 71.7231 90.9533 71.6513 91.1298 71.6513C91.312 71.6513 91.4589 71.7311 91.3587 71.9545C91.2824 72.0446 91.0649 72.1153 90.894 72.1153Z" fill="#DB9F60"/>
<path d="M86.1516 83.0098C85.9341 83.0098 85.8692 82.6564 86.1106 82.6028C86.1289 82.6005 86.146 82.5982 86.1573 82.5982C86.376 82.5982 86.4398 82.9494 86.1995 83.003C86.1812 83.0064 86.1642 83.0098 86.1516 83.0098Z" fill="#D18D58"/>
<path d="M66.6773 78.5453C66.56 78.5077 66.4427 78.4712 66.33 78.4336C66.3357 78.4325 66.3482 78.4325 66.3596 78.4325C66.4598 78.4325 66.5657 78.4667 66.6773 78.5453Z" fill="#DB9F60"/>
<path d="M66.0715 79.7697C65.9838 79.7697 65.9007 79.7218 65.8779 79.6147C65.6125 79.1678 65.8893 78.4678 66.33 78.4336C66.4428 78.4712 66.5601 78.5077 66.6774 78.5453C66.7013 78.5613 66.7184 78.5795 66.7423 78.5989C66.9075 78.8292 66.6535 79.0036 66.4245 79.0036C66.3482 79.0036 66.2776 78.9865 66.2241 78.9455L66.2184 78.95C66.1421 79.1382 66.2241 79.3433 66.2776 79.5269C66.3129 79.6774 66.1888 79.7697 66.0715 79.7697ZM66.2184 78.9455V78.9477V78.9455Z" fill="#D18D58"/>
<path d="M75.0495 91.5844C74.8673 91.5844 74.6259 91.3335 74.709 91.142C74.7557 91.0599 74.8081 91.0245 74.873 91.0245C75.0324 91.0245 75.2147 91.2377 75.2261 91.3962C75.2022 91.5319 75.1327 91.5844 75.0495 91.5844Z" fill="#D18D58"/>
<path d="M83.5983 57.3491C83.3808 57.3491 83.3215 56.9957 83.563 56.9432C83.5755 56.9398 83.5926 56.9375 83.6108 56.9375C83.8283 56.9375 83.8932 57.2909 83.6518 57.3434C83.6336 57.3479 83.6165 57.3491 83.5983 57.3491Z" fill="#DB9F60"/>
<path d="M60.2118 75.8365C60.0466 75.751 59.8758 75.6598 59.7118 75.5686C59.7528 75.5481 59.7995 75.5378 59.853 75.5378C60.0409 75.5378 60.2528 75.6609 60.2118 75.8365Z" fill="#DB9F60"/>
<path d="M59.976 75.9915C59.7642 75.9915 59.517 75.8296 59.6412 75.6279C59.6583 75.6028 59.6822 75.5834 59.7118 75.5686C59.8758 75.6598 60.0466 75.7509 60.2118 75.8364C60.2118 75.8433 60.2061 75.8467 60.2061 75.8524C60.1765 75.9516 60.0762 75.9915 59.976 75.9915Z" fill="#D18D58"/>
<path d="M47.4149 57.1199C47.4502 57.0732 47.5026 57.0389 47.5732 57.0287C47.5857 57.0275 47.5971 57.0276 47.6028 57.0276C47.6381 57.0276 47.662 57.0332 47.6859 57.0446C47.5971 57.0697 47.5026 57.0948 47.4149 57.1199Z" fill="#DB9F60"/>
<path d="M43.4491 50.6899C43.4195 50.6899 43.3968 50.6888 43.3614 50.6831L43.3671 50.6808C43.4845 50.5816 43.5312 50.4608 43.5312 50.3445C43.5312 50.0902 43.3022 49.8485 43.0437 49.8485C43.1314 49.7277 43.2669 49.6433 43.4321 49.6433C43.4788 49.6433 43.538 49.6502 43.5904 49.6684C44.1792 49.8451 43.9787 50.6899 43.4491 50.6899Z" fill="#DB9F60"/>
<path d="M55.0342 81.2837C54.7631 81.2837 54.4989 81.1116 54.5103 80.7661C54.516 80.3774 54.8747 80.1003 55.2335 80.1003C55.3633 80.1003 55.4874 80.1346 55.599 80.2109C56.116 80.5245 55.7756 81.1629 55.3519 81.1914C55.2574 81.2552 55.1458 81.2837 55.0342 81.2837Z" fill="#D18D58"/>
<path d="M73.2136 74.5072C73.2079 74.5072 73.2079 74.5072 73.2022 74.5072C73.1908 74.5072 73.1726 74.5072 73.1612 74.5049L73.1555 74.5038C73.1373 74.5015 73.1145 74.4981 73.0906 74.4935C73.0792 74.4901 73.0667 74.4867 73.0553 74.4821C72.8605 74.4228 72.7557 74.2872 72.7136 74.1344C72.643 73.8311 72.8492 73.4572 73.1965 73.4572C73.2489 73.4572 73.3024 73.4651 73.3617 73.4834C73.897 73.6441 73.7728 74.3624 73.3491 74.4867C73.3435 74.489 73.3377 74.4901 73.332 74.4924C73.2967 74.5015 73.2614 74.5072 73.2204 74.5072C73.2136 74.5072 73.2136 74.5072 73.2136 74.5072Z" fill="#DB9F60"/>
<path d="M64.1945 81.9279C63.9883 81.9279 63.7594 81.6645 64.0123 81.506C64.0476 81.4901 64.0829 81.4832 64.1239 81.4832C64.3004 81.4832 64.4883 81.6474 64.3767 81.8299C64.33 81.8994 64.2651 81.9279 64.1945 81.9279Z" fill="#D18D58"/>
<path d="M58.7232 76.6882C58.705 76.6882 58.6822 76.6848 58.6583 76.6791C58.4225 76.6072 58.5056 76.2675 58.7175 76.2675C58.7346 76.2675 58.7585 76.2709 58.7813 76.2777C59.017 76.3495 58.935 76.6882 58.7232 76.6882Z" fill="#D18D58"/>
<path d="M42.4436 63.8064C42.3137 63.8064 42.1839 63.6993 42.2261 63.5397C42.2135 63.0882 42.6497 62.6709 43.0256 62.6709C43.0723 62.6709 43.1144 62.6778 43.1554 62.6892C43.2556 62.8727 43.3547 63.0563 43.4675 63.2432C43.4196 63.3025 43.3376 63.3299 43.2556 63.3299C43.1019 63.3299 42.931 63.2478 42.8672 63.1167L42.8604 63.1213C42.7021 63.2501 42.6725 63.4724 42.6258 63.6617C42.6019 63.762 42.5199 63.8064 42.4436 63.8064ZM42.8672 63.1156L42.8604 63.1201L42.8672 63.1167V63.1156Z" fill="#D18D58"/>
<path d="M38.9129 57.4152C38.9072 57.4152 38.9015 57.4152 38.889 57.4152C38.8423 57.2316 38.7899 57.0481 38.7421 56.8645C38.9607 56.8679 39.2306 57.1929 39.0427 57.365C39.0074 57.3992 38.9607 57.4152 38.9129 57.4152Z" fill="#C77A43"/>
<path d="M38.7603 32.9868C38.1658 32.9868 37.913 32.5639 37.93 32.1421C37.9426 31.7179 38.225 31.2938 38.7067 31.2938C38.8662 31.2938 39.0427 31.3417 39.242 31.45C39.5598 31.7522 39.5074 32.0976 39.3127 32.337C39.3901 32.5787 39.307 32.8717 38.9892 32.9675C38.9072 32.9811 38.8309 32.9868 38.7603 32.9868Z" fill="#DB9F60"/>
<path d="M48.9444 35.7903C48.9148 35.7903 48.8921 35.7892 48.8625 35.7846C48.6859 35.4529 48.5094 35.1177 48.3329 34.7802C48.4206 34.6103 48.58 34.5362 48.744 34.5362C48.9558 34.5362 49.1745 34.6639 49.2565 34.86C49.5446 35.08 49.5799 35.6273 49.1267 35.7641C49.0617 35.7824 49.0037 35.7903 48.9444 35.7903Z" fill="#DB9F60"/>
<path d="M42.9196 55.151C42.6611 55.151 42.3957 54.956 42.3957 54.663C42.4026 54.5183 42.3901 54.3735 42.373 54.2298C42.1965 53.759 42.078 52.9826 42.6315 52.9826C42.7135 52.9826 42.8137 53.0009 42.931 53.0396C43.3786 53.4717 43.5733 54.4453 43.2727 54.9948C43.1793 55.1042 43.0495 55.151 42.9196 55.151Z" fill="#DB9F60"/>
<path d="M47.0151 26.8441C46.9616 26.8441 46.9024 26.8156 46.85 26.7449C46.7611 26.5933 46.826 26.3436 47.0083 26.3436C47.0265 26.3436 47.0436 26.3447 47.0618 26.3493C47.3443 26.4348 47.2144 26.8441 47.0151 26.8441Z" fill="#DB9F60"/>
<path d="M43.3376 30.2963C43.2909 30.1162 43.349 29.9372 43.4605 29.8049C43.4139 29.9679 43.3729 30.1298 43.3376 30.2963Z" fill="#DB9F60"/>
<path d="M51.0686 28.2841C50.9216 28.2841 50.7679 28.1643 50.8863 27.999C50.933 27.9523 50.998 27.9306 51.0629 27.9306C51.1802 27.9306 51.2918 28.0002 51.269 28.1358C51.2451 28.2396 51.1562 28.2841 51.0686 28.2841Z" fill="#DB9F60"/>
<path d="M45.2737 25.9355C45.0676 25.9355 45.0437 25.6083 45.2612 25.59C45.2669 25.5889 45.2737 25.5889 45.2794 25.5889C45.4844 25.5889 45.5083 25.9161 45.2908 25.9344C45.2851 25.9355 45.2794 25.9355 45.2737 25.9355Z" fill="#DB9F60"/>
<path d="M89.5411 8.23587C89.4705 8.23587 89.3998 8.22218 89.3349 8.1914C89.3235 8.1914 89.311 8.19366 89.294 8.19366C88.9705 8.19366 88.6345 7.84369 88.8646 7.47888C88.9819 7.28736 89.1823 7.19958 89.3873 7.19958C89.6641 7.19958 89.9522 7.36943 90.0171 7.67382C90.1002 8.02381 89.8178 8.23587 89.5411 8.23587Z" fill="#D6925B"/>
<path d="M95.9953 12.8167C95.7652 12.8167 95.6308 12.3869 95.9474 12.3766C96.1365 12.3914 96.2891 12.6856 96.083 12.7939C96.0533 12.8087 96.0249 12.8167 95.9953 12.8167Z" fill="#D6925B"/>
<path d="M94.0887 6.23504C94.042 6.23504 94.001 6.2168 93.9589 6.17576C93.9418 6.15296 93.9236 6.13018 93.9179 6.10852C93.9942 6.145 94.0774 6.18373 94.1537 6.22248C94.1297 6.23046 94.1126 6.23504 94.0887 6.23504Z" fill="#D6925B"/>
<path d="M94.1537 6.22244C94.0774 6.18368 93.9943 6.14495 93.918 6.10847C93.8713 5.9865 93.9829 5.85653 94.107 5.85653C94.148 5.85653 94.1947 5.87478 94.2357 5.91696C94.3416 6.03096 94.2653 6.17798 94.1537 6.22244Z" fill="#CC7E45"/>
<path d="M82.0516 1.4262C82.0162 1.4262 81.9866 1.41707 81.9627 1.40109C81.998 1.41022 82.0334 1.41936 82.0687 1.4262C82.063 1.4262 82.0573 1.4262 82.0516 1.4262Z" fill="#CC7E45"/>
<path d="M114.81 26.7769C114.369 26.7609 114.204 26.4531 114.222 26.1487C114.028 26.0084 113.929 25.7428 114.117 25.4954C114.328 25.2742 114.546 25.183 114.746 25.183C115.511 25.183 115.993 26.5512 114.81 26.7769Z" fill="#D6925B"/>
<path d="M109.239 21.4824C108.833 21.4824 108.616 21.1837 108.545 20.812C108.415 20.706 108.345 20.5327 108.427 20.2967C108.486 20.1816 108.545 20.0824 108.61 19.9935C108.686 19.7882 108.804 19.6149 108.962 19.5146C109.015 19.4941 109.068 19.485 109.121 19.485C109.157 19.485 109.186 19.4884 109.222 19.4941C109.286 19.4747 109.35 19.4667 109.415 19.4667C110.227 19.4667 110.733 20.9625 109.28 21.4824C109.263 21.4824 109.251 21.4824 109.239 21.4824Z" fill="#D6925B"/>
<path d="M105.603 29.74C105.514 29.74 105.432 29.7194 105.362 29.675C105.026 29.6658 104.697 29.2736 104.968 28.9214C105.085 28.7629 105.267 28.6899 105.456 28.6899C105.709 28.6899 105.962 28.8313 106.056 29.0867C106.226 29.4777 105.908 29.74 105.603 29.74Z" fill="#E0A564"/>
<path d="M100.22 12.5419C99.649 12.469 98.4953 11.533 99.0784 10.9424C99.1604 10.8786 99.2606 10.8466 99.3665 10.8466C99.5077 10.8466 99.649 10.907 99.7367 11.0279C99.8141 11.1385 99.9018 11.2411 99.9895 11.3403C100.437 11.6401 101.055 12.2808 100.22 12.5419Z" fill="#D6925B"/>
<path d="M111.574 34.8954C111.457 34.8954 111.368 34.7859 111.351 34.6753C111.327 34.5647 111.374 34.453 111.528 34.453C111.534 34.453 111.539 34.4541 111.551 34.4541C111.734 34.4872 111.863 34.7927 111.645 34.8817C111.621 34.8931 111.593 34.8954 111.574 34.8954Z" fill="#D6925B"/>
<path d="M110.292 28.1758C110.239 28.1758 110.192 28.1552 110.151 28.1028C110.045 27.9626 110.175 27.8007 110.31 27.8007C110.363 27.8007 110.409 27.8212 110.45 27.8736C110.556 28.0138 110.428 28.1758 110.292 28.1758Z" fill="#D6925B"/>
<path d="M98.7834 22.2702C98.5248 22.2702 98.6068 21.8392 98.8016 21.7411C98.8369 21.732 98.8608 21.7286 98.8892 21.7286C99.1489 21.7286 99.0658 22.1584 98.8665 22.2576C98.8369 22.2668 98.8073 22.2702 98.7834 22.2702Z" fill="#E0A564"/>
<path d="M118.746 31.4192C118.553 31.4192 118.376 31.0453 118.647 30.9154C118.682 30.9005 118.711 30.8949 118.735 30.8949C118.753 30.8949 118.77 30.896 118.782 30.9005C118.788 30.9154 118.8 30.9302 118.805 30.9461C118.852 31.0453 118.894 31.1445 118.941 31.2459C118.941 31.2585 118.935 31.2687 118.928 31.2801C118.876 31.3805 118.811 31.4192 118.746 31.4192Z" fill="#D6925B"/>
<path d="M118.941 31.246C118.894 31.1445 118.852 31.0453 118.805 30.9461C118.8 30.9302 118.788 30.9153 118.782 30.9005C118.911 30.9347 118.976 31.108 118.941 31.246Z" fill="#CC7E45"/>
<path d="M112.504 26.1054C111.833 26.1054 111.816 25.0565 112.492 25.0428C112.498 25.0428 112.504 25.0428 112.511 25.0428C113.175 25.0428 113.199 26.0917 112.516 26.1054C112.511 26.1054 112.504 26.1054 112.504 26.1054Z" fill="#D6925B"/>
<path d="M113.345 45.5379C112.946 45.5379 112.598 45.3897 112.539 44.9861C112.528 44.7057 112.769 44.4457 113.052 44.4457C113.057 44.4457 113.057 44.4457 113.057 44.4457C113.087 44.4457 113.117 44.4469 113.139 44.4469C113.263 44.4469 113.387 44.4378 113.511 44.4229C113.728 44.3443 114.011 44.277 114.258 44.277C114.652 44.277 114.951 44.4503 114.752 45.0237C114.499 45.2882 113.869 45.5379 113.345 45.5379Z" fill="#D6925B"/>
<path d="M115.722 39.0885C115.617 39.0885 115.511 39.0213 115.511 38.8867C115.334 38.3965 115.723 37.7718 116.158 37.7718C116.306 37.7718 116.458 37.847 116.6 38.0283C116.7 38.2586 116.494 38.384 116.287 38.384C116.176 38.384 116.064 38.3509 115.994 38.2768V38.2836C115.882 38.4569 115.917 38.6804 115.934 38.8788C115.94 39.0179 115.828 39.0885 115.722 39.0885ZM115.994 38.2757V38.2814V38.2757Z" fill="#D6925B"/>
<path d="M122.453 52.9325C122.324 52.9325 122.195 52.7808 122.147 52.6269C122.106 52.4753 122.136 52.3213 122.342 52.3213C122.359 52.3213 122.371 52.3225 122.389 52.3248C122.541 52.3864 122.654 52.6075 122.641 52.7683C122.589 52.8857 122.524 52.9325 122.453 52.9325Z" fill="#D6925B"/>
<path d="M110.31 34.0117C110.08 34.0117 109.786 33.7678 109.974 33.5672C110.015 33.5261 110.069 33.5101 110.134 33.5101C110.344 33.5101 110.61 33.7108 110.498 33.9114C110.457 33.9821 110.387 34.0117 110.31 34.0117Z" fill="#D6925B"/>
<path d="M113.834 67.4832C113.723 67.4832 113.604 67.4148 113.639 67.2552C113.663 67.1696 113.734 67.1355 113.81 67.1355C113.869 67.1355 113.934 67.1583 113.981 67.1948C114.139 67.368 113.987 67.4832 113.834 67.4832Z" fill="#D6925B"/>
<path d="M121.076 58.7251C120.976 58.7251 120.876 58.6864 120.783 58.5895C120.4 58.2372 120.665 57.4631 121.182 57.4631C121.206 57.4631 121.229 57.4654 121.253 57.4688C121.612 57.5041 121.694 57.943 121.5 58.1711C121.582 58.4378 121.342 58.7251 121.076 58.7251Z" fill="#D6925B"/>
<path d="M118.37 65.0502C117.858 65.0502 117.241 64.4095 118.129 64.1621C118.159 64.161 118.194 64.1599 118.223 64.1599C118.517 64.1599 118.865 64.2442 118.852 64.6067C118.8 64.9294 118.594 65.0502 118.37 65.0502Z" fill="#D6925B"/>
<path d="M120.953 54.1591C120.694 54.1591 120.43 53.9448 120.524 53.6267C120.588 53.4227 120.747 53.3349 120.911 53.3349C121.165 53.3349 121.43 53.5481 121.335 53.8661C121.277 54.0713 121.117 54.1591 120.953 54.1591Z" fill="#D6925B"/>
<path d="M115.605 58.4971C114.817 58.4971 114.929 57.3012 115.858 56.8497C116.029 56.6867 116.222 56.6103 116.399 56.5955C116.423 56.5886 116.447 56.5852 116.464 56.5795L116.47 56.5932C116.952 56.5954 117.276 57.0526 116.676 57.3775C116.676 57.5121 116.629 57.6352 116.552 57.7298C116.681 57.9214 116.629 58.1722 116.246 58.3067L116.211 58.325L116.228 58.3215L116.193 58.3318C115.958 58.4481 115.763 58.4971 115.605 58.4971ZM116.241 58.3079C116.222 58.3136 116.205 58.3215 116.187 58.3272L116.193 58.3261C116.211 58.3204 116.222 58.3136 116.241 58.3079Z" fill="#D6925B"/>
<path d="M115.993 50.056C115.776 50.056 115.557 49.893 115.499 49.6741C115.41 49.2956 115.652 49.1246 115.899 49.1246C116.04 49.1246 116.181 49.1805 116.263 49.2819C116.458 49.429 116.546 49.7209 116.317 49.9295C116.276 49.9637 116.211 50.0093 116.164 50.0196C116.111 50.0435 116.052 50.056 115.993 50.056ZM116.317 49.6342C116.311 49.6524 116.306 49.6695 116.299 49.6878L116.311 49.6536L116.317 49.6342Z" fill="#D6925B"/>
<path d="M108.121 71.1211C107.868 71.1211 107.603 70.9056 107.698 70.5876C107.756 70.3835 107.915 70.2958 108.08 70.2958C108.339 70.2958 108.603 70.5078 108.51 70.8281C108.445 71.0333 108.285 71.1211 108.121 71.1211Z" fill="#D6925B"/>
<path d="M107.403 64.8006C107.15 64.8006 106.886 64.5863 106.98 64.267C107.038 64.063 107.198 63.9752 107.368 63.9752C107.621 63.9752 107.886 64.1872 107.792 64.5064C107.733 64.7128 107.568 64.8006 107.403 64.8006Z" fill="#D6925B"/>
<path d="M123.306 50.6295C123.26 50.6295 123.212 50.6021 123.16 50.5371C123.106 50.3855 123.23 49.9945 123.401 49.9945C123.448 49.9945 123.494 50.023 123.542 50.0868C123.595 50.2384 123.477 50.6295 123.306 50.6295Z" fill="#CC7E45"/>
<path d="M118.865 71.6205C118.335 71.5749 117.906 70.8202 118.541 70.5922C118.553 70.5899 118.564 70.5887 118.57 70.5887C118.841 70.5887 118.788 71.0117 118.588 71.1075V71.1098C118.694 71.2397 118.87 71.2637 119.029 71.3013L119.034 71.3036C118.976 71.4096 118.923 71.5157 118.865 71.6205ZM118.582 71.1075L118.588 71.1086L118.582 71.1075Z" fill="#CC7E45"/>
<path d="M111.322 58.9726C111.281 58.9726 111.234 58.9566 111.181 58.919C110.963 58.8232 110.998 58.5199 111.169 58.5199C111.21 58.5199 111.257 58.5359 111.305 58.5735C111.528 58.6681 111.493 58.9726 111.322 58.9726Z" fill="#D6925B"/>
<path d="M119.712 45.8742C119.612 45.8742 119.506 45.7876 119.541 45.661C119.564 45.5789 119.629 45.5436 119.694 45.5436C119.8 45.5436 119.906 45.6291 119.865 45.7568C119.841 45.8389 119.776 45.8742 119.712 45.8742Z" fill="#D6925B"/>
<path d="M113.699 74.6417C113.646 74.6417 113.598 74.6166 113.563 74.5573C113.487 74.4136 113.675 74.1879 113.834 74.1879C113.875 74.1879 113.916 74.2027 113.946 74.2381C114.081 74.3829 113.869 74.6417 113.699 74.6417Z" fill="#D6925B"/>
<path d="M99.1433 80.8676C99.0431 80.8676 98.9782 80.7548 98.9725 80.6419C98.9668 80.5313 99.0192 80.4173 99.1604 80.4173C99.1717 80.4173 99.1843 80.4196 99.1957 80.4207C99.3665 80.4538 99.3721 80.6636 99.2958 80.781C99.2366 80.8426 99.1843 80.8676 99.1433 80.8676Z" fill="#D6925B"/>
<path d="M83.0219 77.2958C82.7748 77.2958 82.8215 76.7474 83.0459 76.6949C83.0629 76.6915 83.0755 76.6915 83.0868 76.6915C83.3511 76.6915 83.2691 77.1407 83.1336 77.2627C83.0926 77.2844 83.0515 77.2958 83.0219 77.2958Z" fill="#E0A564"/>
<path d="M102.514 85.7893C101.632 85.7118 102.037 84.5204 102.496 84.5204C102.643 84.5204 102.803 84.6436 102.926 84.9696C102.973 85.3037 102.944 85.7642 102.514 85.7893Z" fill="#D6925B"/>
<path d="M108.886 82.1331C108.586 81.4674 108.915 81.1219 109.386 81.1219C109.545 81.1219 109.716 81.1607 109.887 81.2405C109.556 81.5426 109.222 81.8402 108.886 82.1331Z" fill="#D6925B"/>
<path d="M109.904 82.7784C109.822 82.7625 109.745 82.7328 109.681 82.6906C109.616 82.7442 109.539 82.7738 109.456 82.7738C109.309 82.7738 109.151 82.6713 109.039 82.4136C109.027 82.3999 109.021 82.3874 109.015 82.3737L109.021 82.3988C109.015 82.384 109.01 82.3726 109.004 82.3589C108.956 82.2802 108.915 82.205 108.886 82.1331C109.222 81.8401 109.556 81.5425 109.887 81.2404C110.14 81.3578 110.387 81.5631 110.563 81.8606C110.627 81.9188 110.675 81.9815 110.722 82.0431C110.45 82.2916 110.181 82.5356 109.904 82.7784ZM109.01 82.3532V82.3589C109.021 82.3737 109.027 82.3897 109.034 82.4045C109.027 82.3874 109.015 82.3725 109.01 82.3532Z" fill="#CC7E45"/>
<path d="M95.0011 75.2379C94.9715 75.2379 94.9362 75.2334 94.9009 75.2277C94.3599 75.116 94.4886 74.3214 94.9772 74.3214C95.0125 74.3214 95.0478 74.3247 95.0831 74.3327C95.6241 74.4445 95.4954 75.2379 95.0011 75.2379Z" fill="#E0A564"/>
<path d="M101.72 73.8938C101.684 73.8938 101.655 73.8904 101.614 73.8824C101.078 73.7718 101.202 72.9784 101.697 72.9784C101.732 72.9784 101.761 72.9818 101.803 72.9886C102.338 73.1004 102.214 73.8938 101.72 73.8938Z" fill="#D6925B"/>
<path d="M91.4238 91.4053C91.3588 91.3175 91.3292 91.2035 91.3418 91.0564C91.3828 90.8489 91.5821 90.6916 91.7882 90.6916C91.8178 90.6916 91.8531 90.695 91.8827 90.7019C92.041 90.7418 92.2005 90.7691 92.3588 90.7817C92.3235 90.7771 92.2825 90.7748 92.2415 90.7714C92.2825 90.7794 92.3235 90.7828 92.3645 90.7828C92.442 90.7828 92.5183 90.7748 92.5946 90.7668C92.6709 90.7566 92.7415 90.7486 92.8178 90.7486C92.9363 90.7486 93.0536 90.7714 93.1538 90.858L92.8474 90.9641C92.3714 91.1191 91.8998 91.265 91.4238 91.4053Z" fill="#D6925B"/>
<path d="M92.312 91.6892C91.959 91.6892 91.582 91.6356 91.4237 91.4053C91.8997 91.2651 92.3712 91.1192 92.8473 90.9641L93.1537 90.8581C93.1537 90.8603 93.1594 90.8615 93.1594 90.8626C93.4532 91.1203 93.2767 91.6345 92.8826 91.6584C92.73 91.671 92.5239 91.6892 92.312 91.6892Z" fill="#CC7E45"/>
<path d="M95.4953 86.1017L95.5066 86.0926L95.4953 86.1017Z" fill="#D6925B"/>
<path d="M95.1537 86.7242C95.148 86.7242 95.1366 86.7231 95.1298 86.7231C94.713 86.3833 95.2357 85.6833 95.6719 85.6833C95.8302 85.6833 95.9714 85.7711 96.0602 85.9934C96.0955 86.169 95.9714 86.2453 95.8302 86.2453C95.7072 86.2453 95.5717 86.1883 95.5124 86.088L95.5067 86.0926L95.5124 86.0869C95.2949 86.2362 95.4714 86.7242 95.1537 86.7242Z" fill="#D6925B"/>
<path d="M108.032 77.3175C107.945 77.3175 107.868 77.2559 107.874 77.1077C107.904 76.9355 108.068 76.8409 108.192 76.8409C108.309 76.8409 108.398 76.9287 108.304 77.126C108.257 77.2423 108.138 77.3175 108.032 77.3175Z" fill="#D6925B"/>
<path d="M91.6059 81.4411C91.3998 81.4411 91.1469 81.1447 91.3531 80.9987C91.3827 80.9816 91.4123 80.9748 91.4476 80.9748C91.6355 80.9748 91.877 81.2256 91.7301 81.3852C91.6948 81.424 91.6526 81.4411 91.6059 81.4411Z" fill="#D6925B"/>
<path d="M77.8855 91.3905C77.6793 91.3905 77.4675 91.2514 77.3969 91.0496C77.2625 90.6517 77.5324 90.4557 77.7978 90.4557C77.9265 90.4557 78.0506 90.499 78.1326 90.5845C78.3388 90.7133 78.4561 90.9983 78.2443 91.2309C78.2089 91.2685 78.144 91.3221 78.0973 91.3369C78.0324 91.3722 77.9618 91.3905 77.8855 91.3905Z" fill="#D6925B"/>
<path d="M88.9409 87.1221C88.6937 87.1221 88.4409 86.9362 88.5058 86.6239C88.5468 86.3936 88.729 86.291 88.9056 86.291C89.1528 86.291 89.4056 86.4791 89.3464 86.7903C89.2997 87.0218 89.1231 87.1221 88.9409 87.1221Z" fill="#D6925B"/>
<path d="M85.3395 91.288C85.2985 91.288 85.2519 91.2652 85.1983 91.2093C85.1277 91.0576 85.2222 90.6392 85.3988 90.6392C85.4455 90.6392 85.4933 90.6631 85.5457 90.7179C85.6106 90.8707 85.5229 91.288 85.3395 91.288Z" fill="#D6925B"/>
<path d="M81.2749 86.8279C81.1746 86.8279 81.0744 86.7527 81.0983 86.6295C81.1154 86.5372 81.1861 86.495 81.2624 86.495C81.3569 86.495 81.4571 86.5691 81.4332 86.6945C81.4161 86.7869 81.3455 86.8279 81.2749 86.8279Z" fill="#D6925B"/>
<path d="M71.6021 91.8864C71.5019 91.8864 71.4017 91.8123 71.4256 91.6869C71.4427 91.5946 71.5132 91.5535 71.5907 91.5535C71.6841 91.5535 71.7842 91.6288 71.7603 91.753C71.7433 91.8465 71.6727 91.8864 71.6021 91.8864Z" fill="#D6925B"/>
<path d="M60.9998 88.806C60.665 88.6019 60.3347 88.3933 59.9999 88.1789C60.0648 88.1607 60.1286 88.1504 60.1992 88.1504C60.3996 88.1504 60.6229 88.2336 60.8529 88.4366C60.9463 88.5665 60.9942 88.6897 60.9998 88.806Z" fill="#CC7E45"/>
<path d="M61.9475 77.7575C61.6354 77.7575 61.3177 77.509 61.4236 77.1225C61.4885 76.8614 61.6947 76.7485 61.8997 76.7485C62.206 76.7485 62.5238 76.9959 62.4236 77.3835C62.353 77.6435 62.1525 77.7575 61.9475 77.7575Z" fill="#D6925B"/>
<path d="M69.8959 86.1987C69.8253 86.1987 69.7604 86.1553 69.7137 86.0459C69.6784 85.892 69.7843 85.6913 69.937 85.6913C69.9723 85.6913 70.0076 85.6993 70.0429 85.721C70.2786 85.8726 70.0839 86.1987 69.8959 86.1987Z" fill="#D6925B"/>
<path d="M57.2756 82.5344C57.2221 82.5344 57.164 82.5025 57.0991 82.4272C57.0285 82.2414 57.164 81.7534 57.3758 81.7534C57.4282 81.7534 57.4875 81.7854 57.5524 81.8606C57.623 82.0453 57.4874 82.5344 57.2756 82.5344Z" fill="#D6925B"/>
<path d="M52.6801 76.8545C52.5571 76.8545 52.4272 76.7542 52.4682 76.6015C52.4978 76.4966 52.581 76.451 52.663 76.451C52.786 76.451 52.9102 76.5502 52.8691 76.7052C52.8452 76.8089 52.7632 76.8545 52.6801 76.8545Z" fill="#D6925B"/>
<path d="M54.3578 75.1548C54.0628 75.1548 53.8338 74.8595 53.8509 74.5801C54.122 74.6485 54.4637 74.693 54.8578 74.7181C54.8453 74.8549 54.7689 74.9883 54.6163 75.0783C54.5286 75.1308 54.4398 75.1548 54.3578 75.1548Z" fill="#D6925B"/>
<path d="M47.727 75.1171C47.6507 75.0053 47.5676 74.8936 47.4912 74.7819C47.6086 74.6759 47.7919 74.5824 47.9263 74.5824C48.0379 74.5824 48.1211 74.6462 48.1029 74.8241C48.0562 74.9289 47.8853 75.0589 47.727 75.1171Z" fill="#D6925B"/>
<path d="M47.5731 75.149C47.4615 75.149 47.3795 75.0829 47.3966 74.9073C47.4148 74.8674 47.4444 74.8241 47.4911 74.7819C47.5674 74.8936 47.6506 75.0054 47.7269 75.1171C47.6733 75.1365 47.6209 75.149 47.5731 75.149Z" fill="#CC7E45"/>
<path d="M43.0722 50.7971C42.6963 50.7971 42.3843 50.2795 42.7487 49.9614C42.8433 49.8816 42.9435 49.8486 43.0437 49.8486C43.3022 49.8486 43.5312 50.0902 43.5312 50.3445C43.5312 50.4607 43.4844 50.5816 43.3671 50.6808L43.3614 50.683C43.2726 50.7628 43.1667 50.7971 43.0722 50.7971Z" fill="#E0A564"/>
<path d="M81.6802 34.1554C81.3568 34.1554 81.022 33.8442 81.1985 33.4565C81.2862 33.257 81.457 33.1738 81.621 33.1738C81.9513 33.1738 82.2861 33.4851 82.1095 33.8704C82.0162 34.0711 81.851 34.1554 81.6802 34.1554Z" fill="#D0975C"/>
<path d="M76.5563 28.5383C76.2738 28.5383 76.0027 28.2966 75.9674 28.0059C75.9378 27.5875 76.1907 27.413 76.4504 27.413C76.6497 27.413 76.8501 27.5134 76.9378 27.6832C77.1269 27.885 77.1793 28.2339 76.8854 28.4391C76.8319 28.471 76.7442 28.5155 76.6907 28.52C76.6497 28.5314 76.603 28.5383 76.5563 28.5383ZM76.9378 28.0811C76.9207 28.1096 76.9093 28.1381 76.8911 28.17C76.9025 28.1506 76.915 28.1324 76.9264 28.1153L76.9378 28.0811Z" fill="#D0975C"/>
<path d="M64.0886 44.3727C63.7652 44.3727 63.4293 44.0615 63.6058 43.6739C63.6946 43.4744 63.8597 43.3912 64.0294 43.3912C64.354 43.3912 64.6888 43.7024 64.5123 44.0877C64.4246 44.2895 64.2595 44.3727 64.0886 44.3727Z" fill="#D0975C"/>
<path d="M90.2529 26.6514C89.9294 26.6514 89.5934 26.3402 89.77 25.9549C89.8588 25.7543 90.0228 25.6699 90.1936 25.6699C90.5171 25.6699 90.8531 25.9823 90.6766 26.3687C90.5877 26.5682 90.4237 26.6514 90.2529 26.6514Z" fill="#D0975C"/>
<path d="M84.9695 30.4034C84.7872 30.4034 84.7633 30.2233 84.8168 30.042C84.8749 29.8619 85.0048 29.6818 85.1403 29.6818C85.1984 29.6818 85.2576 29.7194 85.3112 29.8129C85.3397 29.9736 85.187 30.3111 85.0458 30.3932C85.0162 30.4 84.9934 30.4034 84.9695 30.4034Z" fill="#D0975C"/>
<path d="M90.7176 40.4326C90.6003 40.4144 90.4943 40.2981 90.5593 40.1568C90.5934 40.077 90.6583 40.0439 90.729 40.0439C90.8121 40.0439 90.8998 40.0963 90.9294 40.175C90.8588 40.2594 90.7882 40.346 90.7176 40.4326Z" fill="#D0975C"/>
<path d="M76.0627 53.5918L76.0563 53.588L76.0627 53.5918Z" fill="#C78554"/>
<path d="M81.5516 24.2551C81.4217 24.2551 81.2862 24.1296 81.3568 23.9768C81.3921 23.8959 81.457 23.8617 81.5276 23.8617C81.6563 23.8617 81.7919 23.9871 81.7212 24.1422C81.6859 24.222 81.6153 24.2551 81.5516 24.2551Z" fill="#D0975C"/>
<path d="M96.3187 36.0331C96.2424 36.0331 96.1536 36.0114 96.0716 35.9624C95.1719 35.3012 95.8712 34.3834 96.5602 34.3834C96.8722 34.3834 97.1775 34.567 97.3301 35.0424C97.3779 35.5201 97.0715 35.7367 96.7481 35.7595C96.6604 35.9157 96.5067 36.0331 96.3187 36.0331Z" fill="#D0975C"/>
<path d="M84.146 40.6983C83.8339 40.6983 83.5401 40.4019 83.4274 40.1066C83.3214 39.8113 83.3989 39.5149 83.8226 39.5149C83.9046 39.5149 84.0048 39.5275 84.1164 39.5537C84.4512 39.7133 84.8578 40.02 84.6221 40.4327C84.4694 40.6219 84.3043 40.6983 84.146 40.6983Z" fill="#D0975C"/>
<path d="M93 30.7467C92.6116 30.7467 92.2654 30.2382 92.6184 29.8836C92.7244 29.781 92.8416 29.7354 92.9589 29.7354C93.3416 29.7354 93.6889 30.2427 93.3359 30.5985C93.23 30.7022 93.1116 30.7467 93 30.7467Z" fill="#D0975C"/>
<path d="M90.1767 23.628C90.1528 23.628 90.1288 23.6246 90.1117 23.6212C89.7587 23.5892 89.5229 23.2096 89.6061 22.8767C89.6995 22.5723 89.8942 22.4537 90.0821 22.4537C90.3407 22.4537 90.606 22.6623 90.6356 22.9154C90.7473 23.1765 90.671 23.5231 90.3179 23.6121C90.2769 23.6189 90.2234 23.628 90.1767 23.628ZM90.4944 23.2917C90.4705 23.3133 90.4466 23.3362 90.4238 23.3567C90.4409 23.3453 90.4523 23.3316 90.4705 23.3202L90.4944 23.2917Z" fill="#D0975C"/>
<path d="M69.9073 41.1942C69.5189 41.1942 69.1716 40.6869 69.5315 40.3312C69.6305 40.2263 69.749 40.183 69.8663 40.183C70.2547 40.183 70.5963 40.6903 70.2433 41.0449C70.1374 41.1486 70.0189 41.1942 69.9073 41.1942Z" fill="#C78554"/>
<path d="M103.756 26.6937C103.367 26.6937 103.02 26.1875 103.373 25.8306C103.479 25.7269 103.596 25.6836 103.715 25.6836C104.096 25.6836 104.444 26.1897 104.091 26.5466C103.985 26.6503 103.867 26.6937 103.756 26.6937Z" fill="#D0975C"/>
<path d="M80.2099 29.968C80.1974 29.9634 80.1917 29.9588 80.186 29.9531C80.0915 29.8916 79.9742 29.8597 79.8626 29.8551C79.8569 29.8551 79.8444 29.8551 79.8387 29.8551C79.8387 29.8551 79.8387 29.8551 79.833 29.8551C79.8216 29.8551 79.7977 29.8563 79.7806 29.8574H79.7738C79.792 29.7423 79.8626 29.6476 79.9503 29.6476C80.0095 29.6476 80.0801 29.6921 80.1507 29.8049C80.1803 29.8528 80.1974 29.911 80.2099 29.968Z" fill="#D0975C"/>
<path d="M96.2778 21.325C96.1183 21.325 95.9839 21.1221 96.124 20.9796C96.1661 20.9374 96.2129 20.9192 96.2595 20.9192C96.4133 20.9192 96.5545 21.1221 96.4065 21.2657C96.3655 21.3068 96.3245 21.325 96.2778 21.325Z" fill="#D0975C"/>
<path d="M83.498 19.9308C83.3397 19.9308 83.2042 19.7278 83.3454 19.5852C83.3864 19.5431 83.4343 19.5271 83.481 19.5271C83.6336 19.5271 83.7748 19.7289 83.6336 19.8715C83.5869 19.9125 83.5458 19.9308 83.498 19.9308Z" fill="#D0975C"/>
<path d="M73.6442 48.0301C73.52 48.0301 73.4141 47.9731 73.4141 47.8352C73.4198 47.6858 73.6146 47.5741 73.7786 47.5741C73.8845 47.5741 73.9733 47.6174 74.003 47.7212C74.044 47.899 73.8264 48.0301 73.6442 48.0301Z" fill="#C78554"/>
<path d="M79.6324 8.91647C79.5208 8.91647 79.4798 8.80702 79.4912 8.69872C79.5094 8.58814 79.5801 8.47985 79.6917 8.47985C79.727 8.47985 79.7623 8.49011 79.8033 8.51405C79.9502 8.60981 79.8739 8.80588 79.7566 8.88568C79.7099 8.90734 79.6678 8.91647 79.6324 8.91647Z" fill="#D0975C"/>
<path d="M80.957 14.8255C80.9035 14.8255 80.8511 14.8152 80.7919 14.7958C80.0744 14.4151 80.7156 13.5874 81.1564 13.5874C81.3568 13.5874 81.5151 13.7515 81.4981 14.1939C81.4218 14.4777 81.2566 14.8255 80.957 14.8255Z" fill="#D0975C"/>
<path d="M91.3064 21.0377C91.2233 21.0377 91.1356 21.0127 91.0525 20.9534C90.647 20.6775 90.9351 20.1108 91.3178 20.1108C91.3998 20.1108 91.4886 20.1359 91.5706 20.1941C91.9772 20.4711 91.6879 21.0377 91.3064 21.0377Z" fill="#D0975C"/>
<path d="M97.1832 17.3359C97.0306 17.3359 96.878 17.2607 96.7948 17.0794C96.7777 17.027 96.7481 16.9438 96.7538 16.8925C96.7367 16.7192 96.8187 16.5584 96.9485 16.4524C97.1832 16.6656 97.4303 16.8845 97.666 17.1022C97.6125 17.1649 97.5544 17.2139 97.4838 17.2402C97.395 17.3017 97.2891 17.3359 97.1832 17.3359ZM97.0545 17.141L97.0841 17.1672L97.1012 17.1775C97.0841 17.1661 97.0716 17.1535 97.0545 17.141Z" fill="#D0975C"/>
<path d="M97.6661 17.1021C97.4304 16.8844 97.1832 16.6655 96.9486 16.4523C97.0477 16.3691 97.1719 16.3178 97.3017 16.3178C97.3131 16.3178 97.3245 16.3178 97.3302 16.3178C97.8665 16.3623 97.8779 16.8445 97.6661 17.1021Z" fill="#C78554"/>
<path d="M84.8522 3.46695C84.7691 3.46695 84.6814 3.44187 84.5982 3.38373C84.2463 3.14432 84.416 2.68375 84.7224 2.56747C84.8875 2.61763 85.0572 2.66778 85.2223 2.71794C85.4638 3.01206 85.1984 3.46695 84.8522 3.46695Z" fill="#C78554"/>
<path d="M85.2222 2.71792C85.0571 2.66775 84.8874 2.61759 84.7223 2.56742C84.769 2.55145 84.8168 2.54007 84.8635 2.54007C84.9455 2.54007 85.0343 2.56516 85.1163 2.62445C85.1573 2.65182 85.1926 2.68485 85.2222 2.71792Z" fill="#BD7340"/>
<path d="M79.7099 30.847C79.4206 30.847 79.1268 30.5996 79.251 30.2484C79.333 30.0101 79.5448 29.8779 79.7737 29.8573H79.7806C79.7976 29.8562 79.8215 29.855 79.8329 29.855C79.8386 29.855 79.8386 29.855 79.8386 29.855C79.8443 29.855 79.8569 29.855 79.8625 29.855C79.9742 29.8596 80.0915 29.8915 80.186 29.9531C80.1917 29.9588 80.1974 29.9634 80.2099 29.9679C80.2805 30.0226 80.3443 30.0945 80.3864 30.188C80.563 30.546 80.2509 30.8356 79.9445 30.8356C79.9149 30.8356 79.8796 30.8322 79.8511 30.8265C79.8033 30.839 79.7566 30.847 79.7099 30.847Z" fill="#D0975C"/>
<path d="M96.7367 29.9964C96.6536 29.9964 96.5659 29.9725 96.4839 29.9132C96.0774 29.6373 96.3598 29.0719 96.7481 29.0719C96.8301 29.0719 96.9132 29.0969 97.0009 29.1551C97.4018 29.4298 97.1194 29.9964 96.7367 29.9964Z" fill="#D0975C"/>
<path d="M87.1289 33.81C86.9228 33.81 86.7463 33.4702 87.0287 33.3984C87.0344 33.3973 87.0469 33.395 87.0583 33.395C87.2348 33.395 87.4114 33.6253 87.2462 33.7644C87.2109 33.7963 87.1699 33.81 87.1289 33.81Z" fill="#D0975C"/>
<path d="M94.2128 24.5002C94.0648 24.5002 93.7892 24.3121 93.7299 24.1707C93.7242 24.0202 93.8005 23.9632 93.8951 23.9632C94.1536 23.9632 94.5944 24.3714 94.2185 24.5002C94.2185 24.5002 94.2185 24.5002 94.2128 24.5002Z" fill="#D0975C"/>
<path d="M83.9216 27.9557C83.8863 27.9557 83.851 27.9443 83.8157 27.9226C83.6574 27.8109 83.769 27.584 83.9285 27.584C83.957 27.584 83.9923 27.5954 84.0276 27.6182C84.187 27.7288 84.0754 27.9557 83.9216 27.9557Z" fill="#D0975C"/>
<path d="M74.5325 12.6389C74.5142 12.6389 74.4972 12.6366 74.4789 12.6331C74.5029 12.4462 74.5256 12.2626 74.5495 12.0768C74.6498 12.1532 74.7147 12.2797 74.7204 12.469C74.6964 12.5898 74.6202 12.6389 74.5325 12.6389Z" fill="#D0975C"/>
<path d="M89.3235 9.09777C89.1823 9.09777 89.0707 9.00314 89.1583 8.82187C89.2233 8.71812 89.3349 8.6748 89.4351 8.6748C89.6173 8.6748 89.7642 8.81731 89.5467 9.00429C89.4875 9.06699 89.3998 9.09777 89.3235 9.09777Z" fill="#C78554"/>
<path d="M100.019 22.1778C99.9838 22.1778 99.9484 22.1687 99.9188 22.1459C99.7548 22.0342 99.8665 21.8073 100.025 21.8073C100.054 21.8073 100.09 21.8175 100.125 21.8415C100.284 21.9521 100.173 22.1778 100.019 22.1778Z" fill="#D0975C"/>
<path d="M99.1193 10.4909C99.0897 10.4909 99.0544 10.4818 99.0191 10.4578C98.8608 10.3484 98.9724 10.1215 99.125 10.1215C99.1603 10.1215 99.1956 10.1318 99.2253 10.1546C99.3904 10.264 99.2776 10.4909 99.1193 10.4909Z" fill="#C78554"/>
<path d="M78.6155 51.9645C81.7099 51.6863 82.3272 49.5282 82.1507 46.0395C81.8865 46.6563 81.3455 47.199 80.4571 47.6619C74.8206 50.6044 74.6794 41.0107 68.0304 31.6689C72.1077 38.4637 73.2558 52.4433 78.6155 51.9645Z" fill="#BF7644"/>
<path d="M36.5598 43.8438C36.5952 46.1559 36.7421 48.4691 37.0245 50.7675C37.307 53.0659 37.7193 55.3494 38.2477 57.6068C39.3126 62.1192 40.8718 66.5267 42.9548 70.6811C43.9969 72.7595 45.1609 74.7763 46.4616 76.7087C47.7565 78.64 49.1858 80.4858 50.745 82.2198C53.8508 85.6902 57.4817 88.7205 61.5465 91.0326C65.6067 93.3504 70.0895 94.9476 74.7203 95.6579C77.0323 96.0159 79.3796 96.155 81.7155 96.0957C84.0571 96.0353 86.3874 95.7696 88.6823 95.3318C90.9761 94.8895 93.2357 94.2761 95.4361 93.5054C97.6421 92.7348 99.7901 91.8341 101.879 90.7852C103.968 89.7295 105.973 88.5153 107.868 87.145C109.757 85.7712 111.539 84.2423 113.18 82.5756C116.47 79.2465 119.17 75.344 121.177 71.1223C123.189 66.9006 124.518 62.362 125.142 57.7345C125.771 53.1081 125.707 48.3927 124.989 43.7857C124.265 39.1798 122.901 34.6753 120.93 30.4536C119.947 28.3445 118.817 26.3038 117.547 24.352C116.276 22.4036 114.869 20.543 113.345 18.7873C111.816 17.0384 110.175 15.3887 108.421 13.8644C106.662 12.3436 104.808 10.9356 102.873 9.66555C98.9952 7.11406 94.7948 5.07559 90.4294 3.54447C86.0582 2.00651 81.5219 0.988421 76.9446 0.384182C81.5094 1.07165 86.0161 2.1798 90.3474 3.76565C94.6775 5.35035 98.8255 7.43442 102.637 10.019C106.451 12.5978 109.909 15.6829 112.898 19.1738C114.386 20.9249 115.758 22.7741 116.993 24.7099C118.229 26.6469 119.324 28.6706 120.27 30.7592C122.182 34.933 123.494 39.3759 124.171 43.9111C124.847 48.4463 124.871 53.075 124.242 57.6102C123.606 62.1454 122.288 66.5837 120.305 70.7017C118.323 74.8208 115.67 78.6138 112.457 81.8607C110.857 83.4842 109.116 84.9731 107.268 86.3127C105.414 87.6477 103.455 88.83 101.414 89.8595C99.3778 90.8799 97.2538 91.7623 95.0944 92.5124C92.9293 93.2569 90.7232 93.8725 88.4818 94.3058C86.2404 94.739 83.9695 95.0023 81.6859 95.0662C79.4093 95.1312 77.1268 95.0001 74.8729 94.6569C72.6202 94.3149 70.3959 93.7756 68.2365 93.03C66.0828 92.2867 63.994 91.3438 62.0055 90.2254C58.0227 87.9863 54.4283 85.0632 51.3327 81.6863C49.7804 79.9978 48.3567 78.1954 47.0504 76.3063C45.7441 74.4195 44.555 72.4448 43.4958 70.4052C41.3786 66.3226 39.7306 61.9904 38.578 57.5247C38.0006 55.2936 37.5427 53.0271 37.2124 50.7424C36.8833 48.4577 36.6532 46.1559 36.5598 43.8438Z" fill="#AA5631"/>
<path d="M64.8766 27.8542C64.1181 26.9615 63.306 26.1168 62.4587 25.3016C61.6113 24.4933 60.723 23.7249 59.7993 22.9986C57.9577 21.5382 55.9635 20.2625 53.8633 19.1908C52.8098 18.6664 51.721 18.1933 50.6038 17.8022C49.4854 17.4203 48.3442 17.0999 47.162 16.9278C45.9912 16.7545 44.7851 16.7248 43.6086 16.9312C43.4605 16.962 43.3136 16.9996 43.1724 17.0338C43.0961 17.0532 43.0254 17.0669 42.9548 17.0885L42.743 17.1604C42.6018 17.2105 42.4549 17.2481 42.3193 17.3097L41.9139 17.4978C41.784 17.5605 41.661 17.6483 41.5312 17.7213C41.4663 17.76 41.4013 17.7954 41.3433 17.8398L41.1667 17.9755L40.9959 18.1112C40.9663 18.1363 40.9367 18.1568 40.9071 18.1819L40.8308 18.2605L40.5198 18.5729C40.9663 18.1898 41.4663 17.8934 41.9959 17.6757C42.5311 17.4625 43.096 17.3462 43.6609 17.2721C43.9434 17.2561 44.2259 17.2139 44.514 17.2219L44.9434 17.2208L45.3728 17.2482C45.6552 17.2584 45.9433 17.304 46.2258 17.3314C46.5082 17.3679 46.7907 17.4237 47.0731 17.4693C48.1972 17.6996 49.3031 18.0211 50.3794 18.4292C51.4625 18.8283 52.516 19.2946 53.5513 19.819C54.5809 20.3332 55.5865 20.9066 56.5751 21.5109C57.5637 22.1117 58.5283 22.7604 59.4702 23.4353C59.7116 23.6018 59.9406 23.7762 60.1763 23.9495C60.4052 24.1239 60.641 24.2972 60.8642 24.4751C61.0943 24.654 61.3289 24.8285 61.5589 25.0109L62.2355 25.5604C63.1352 26.298 64.0065 27.0687 64.8766 27.8542Z" fill="#AA5631"/>
<path d="M43.4606 29.7844C43.2488 30.587 43.1019 31.4113 43.0199 32.231C42.9196 33.0553 42.89 33.8784 42.8843 34.7038C42.8786 36.3524 43.0369 37.9872 43.308 39.597C43.849 42.8166 44.8319 45.9324 46.1382 48.8977C46.7908 50.3821 47.5208 51.8322 48.3386 53.2357C48.744 53.9402 49.1745 54.63 49.6153 55.314C49.8328 55.6572 50.0743 55.9901 50.3032 56.3264C50.5276 56.665 50.7679 56.9956 51.015 57.3228C51.2508 57.6546 51.4979 57.9784 51.7508 58.3044L52.1278 58.7867L52.5218 59.2621C52.7803 59.5779 53.04 59.896 53.3156 60.2015C53.5924 60.5093 53.8578 60.8217 54.1402 61.1227C54.6983 61.7326 55.2757 62.3243 55.8691 62.9058C56.1697 63.1908 56.4636 63.4849 56.77 63.7665C57.0809 64.0447 57.3873 64.3263 57.705 64.6011C60.2289 66.7911 63.0647 68.7384 66.2537 70.1748C66.6535 70.347 67.0543 70.526 67.4598 70.6879C67.8778 70.8407 68.2833 71.0048 68.7012 71.1428C69.5429 71.4278 70.3959 71.6729 71.2661 71.8679C71.708 71.9659 72.143 72.0651 72.5906 72.129L73.2558 72.2327C73.4733 72.268 73.7022 72.2863 73.9254 72.3125L74.5963 72.3798L75.2739 72.414C75.4971 72.422 75.7261 72.4391 75.9504 72.4391L76.6269 72.4322C78.4389 72.3969 80.2384 72.1153 81.9388 71.6056C83.6461 71.0949 85.2405 70.3493 86.6813 69.4418C88.1288 68.5343 89.4113 67.4558 90.5411 66.2872C91.6709 65.1095 92.6594 63.8463 93.4829 62.4987C93.7118 62.1271 93.6002 61.6426 93.2243 61.4145C92.9772 61.2595 92.6708 61.264 92.4294 61.3974L92.4123 61.4066C91.0877 62.1465 89.7996 62.8442 88.4933 63.4188C87.1938 64.0002 85.8874 64.462 84.5925 64.7857C82.0037 65.4356 79.4913 65.4755 77.1326 64.9887C72.4084 64.0265 68.1136 61.0623 64.3119 57.3627C63.8415 56.8942 63.3768 56.421 62.9121 55.9354C62.6821 55.6971 62.4588 55.4394 62.2299 55.1932C61.9999 54.9503 61.7823 54.6927 61.5591 54.4407C61.329 54.1922 61.1172 53.93 60.8997 53.6712C60.6764 53.4147 60.4589 53.1547 60.2471 52.8902L59.9236 52.4969L59.6059 52.0967C59.394 51.8322 59.1765 51.5677 58.9704 51.2953C58.5524 50.756 58.1287 50.2167 57.7232 49.6638C57.5171 49.3868 57.3053 49.1166 57.1105 48.835L56.4989 48.0016C55.6982 46.8797 54.9101 45.742 54.1402 44.5825C52.6095 42.2636 51.1335 39.882 49.7565 37.416C49.0686 36.1825 48.391 34.9295 47.7566 33.6435C47.6028 33.322 47.432 32.9983 47.2851 32.6733C47.2088 32.5103 47.1325 32.3461 47.0505 32.1831C46.973 32.0178 46.9024 31.8536 46.8261 31.6871C46.5152 31.0236 46.2441 30.351 45.9321 29.6578L45.8968 29.5872C45.6029 28.9328 44.8376 28.6409 44.185 28.9339C43.8137 29.0992 43.5608 29.4219 43.4606 29.7844Z" fill="#FAC891"/>
<path d="M123.018 40.1226L133.996 61.5103L120.441 82.9859C120.253 83.2846 120.341 83.6813 120.641 83.8706C120.941 84.0598 121.335 83.9709 121.524 83.6711L135.273 61.8866C135.392 61.6939 135.403 61.4533 135.303 61.2504L124.16 39.5366C123.994 39.2219 123.613 39.0977 123.295 39.2584C122.983 39.4215 122.859 39.8091 123.018 40.1226Z" fill="#994D2B"/>
<path d="M120.335 82.9141C119.906 83.7543 120.112 84.5889 120.641 85.2866C121.141 86.4175 121.335 88.049 121.312 88.7775C121.3 89.1047 121.559 89.3806 121.889 89.3897C122.218 89.3988 122.494 89.1389 122.5 88.8094C122.518 88.3477 122.453 87.4983 122.271 86.5908C122.807 86.8587 123.307 86.9955 123.766 86.9853C124.124 87.4493 124.565 88.0649 124.883 88.505C125.148 88.871 125.395 89.2175 125.601 89.4923C125.801 89.7557 126.172 89.8081 126.436 89.6109C126.696 89.4114 126.748 89.0386 126.555 88.7763C126.354 88.5107 126.107 88.1698 125.849 87.8096C125.477 87.2954 125.178 86.8815 124.925 86.5486C124.983 86.5019 125.037 86.454 125.089 86.4004C126.072 87.1016 127.272 87.9452 127.984 88.4035C128.261 88.5825 128.631 88.5016 128.807 88.2245C128.984 87.9486 128.908 87.5793 128.631 87.4014C127.937 86.9534 126.724 86.1006 125.737 85.3983C125.819 85.1965 125.871 84.997 125.895 84.8032C126.672 85.2353 127.549 85.6993 128.196 85.974C128.501 86.1017 128.848 85.9592 128.978 85.6571C129.09 85.3789 128.984 85.0654 128.737 84.9149C128.713 84.9001 128.684 84.8864 128.661 84.8762C127.737 84.4863 126.248 83.6426 125.395 83.1467C125.078 82.7442 124.624 82.3953 124.089 82.1206C122.624 81.3704 121.082 81.4502 120.335 82.9141Z" fill="#994D2B"/>
<path d="M89.5935 47.622C90.729 51.8482 95.0716 54.3518 99.2958 53.214C103.514 52.0774 106.014 47.7291 104.879 43.5029C103.743 39.2766 99.4017 36.7707 95.1775 37.9097C90.959 39.0475 88.458 43.3946 89.5935 47.622Z" fill="white"/>
<path d="M89.5935 47.622L89.2347 47.7166C89.729 49.5692 90.8178 51.106 92.2357 52.1788C93.6537 53.2505 95.4008 53.8604 97.231 53.8604C97.9428 53.8604 98.6717 53.7681 99.3904 53.5743C101.238 53.0761 102.773 51.9873 103.844 50.5691C104.914 49.1497 105.527 47.3985 105.527 45.5664C105.527 44.8527 105.432 44.1265 105.239 43.406C104.743 41.5557 103.656 40.0177 102.238 38.946C100.82 37.8721 99.0726 37.2621 97.2424 37.2621C96.5306 37.2621 95.8073 37.3556 95.083 37.5494C93.2357 38.0476 91.7005 39.1353 90.6299 40.5547C89.5525 41.9729 88.9466 43.7264 88.9466 45.5573C88.9466 46.271 89.0411 46.9961 89.2347 47.7177L89.5935 47.622L89.9522 47.5228C89.7757 46.8661 89.688 46.206 89.688 45.5573C89.688 43.8917 90.2472 42.2967 91.2175 41.0027C92.1947 39.7099 93.5888 38.7226 95.2778 38.2677C95.9304 38.091 96.5955 38.0077 97.2424 38.0077C98.9075 38.0077 100.496 38.563 101.79 39.5389C103.085 40.5159 104.067 41.9136 104.52 43.5998C104.697 44.2565 104.785 44.9177 104.785 45.5664C104.785 47.2309 104.226 48.827 103.249 50.1199C102.279 51.4127 100.885 52.4 99.1956 52.8549C98.5374 53.0316 97.8779 53.1148 97.231 53.1148C95.5716 53.1148 93.9771 52.5608 92.6822 51.5837C91.3941 50.6067 90.4055 49.2112 89.9522 47.5239L89.5935 47.622Z" fill="#42180B"/>
<path d="M92.4589 48.5705C93.1058 50.3912 95.1012 51.3432 96.9189 50.6945C98.7423 50.0469 99.6899 48.0461 99.043 46.2276C98.3961 44.4058 96.395 43.455 94.5773 44.1037C92.7596 44.7513 91.812 46.7498 92.4589 48.5705Z" fill="#42180B"/>
<path d="M92.7949 48.7438C92.9772 49.2488 93.5295 49.5133 94.0363 49.3332C94.542 49.153 94.8062 48.5979 94.624 48.0917C94.4475 47.5855 93.8883 47.3221 93.3826 47.5023C92.8769 47.6813 92.6184 48.2364 92.7949 48.7438Z" fill="white"/>
<path d="M93.853 46.5081C93.9658 46.8125 94.2949 46.9709 94.6013 46.8626C94.9008 46.7543 95.0591 46.4203 94.9532 46.1182C94.8473 45.815 94.5124 45.6565 94.2129 45.7637C93.9065 45.872 93.7471 46.2048 93.853 46.5081Z" fill="white"/>
<path d="M98.0658 54.1569C98.4371 55.0484 100.632 54.988 102.967 54.0212C105.302 53.0533 106.897 51.545 106.527 50.6534C106.161 49.7608 103.968 49.8223 101.632 50.7879C99.2958 51.757 97.7013 53.2642 98.0658 54.1569Z" fill="#FF803B"/>
<path d="M94.1833 31.824C99.4895 31.3326 105.055 33.1031 108.433 37.3818C106.262 32.9139 101.197 28.7526 95.9657 30.2039C95.4248 30.3225 92.7415 31.3235 94.1833 31.824Z" fill="#632B15"/>
<path d="M56.7643 60.1593C58.6879 64.0914 63.4292 65.716 67.3538 63.7916C71.2842 61.8671 72.9083 57.121 70.9835 53.1901C69.0599 49.2591 64.3186 47.6311 60.394 49.5566C56.4693 51.4822 54.8452 56.2283 56.7643 60.1593Z" fill="white"/>
<path d="M56.7642 60.1594L56.4283 60.3235C57.1515 61.792 58.2459 62.9571 59.5466 63.7517C60.8472 64.5475 62.3472 64.9728 63.8825 64.9728C65.1068 64.9728 66.3482 64.7003 67.519 64.1268C68.9894 63.4074 70.1488 62.3084 70.9426 61.0076C71.7376 59.7068 72.167 58.2042 72.167 56.6696C72.167 55.444 71.8902 54.1979 71.3196 53.0259C70.6021 51.5564 69.5019 50.3923 68.2012 49.5988C66.9074 48.8031 65.4006 48.3755 63.8711 48.3755C62.6467 48.3755 61.3996 48.648 60.2288 49.2226C58.7641 49.9432 57.5991 51.0399 56.8052 52.343C56.0103 53.6427 55.5866 55.1464 55.5866 56.6798C55.5866 57.9054 55.8577 59.1493 56.4283 60.3235L56.7642 60.1594L57.0991 59.9964C56.5752 58.927 56.328 57.796 56.328 56.6798C56.328 55.2844 56.7164 53.914 57.4407 52.7295C58.1639 51.545 59.2174 50.5474 60.5591 49.8919C61.624 49.3674 62.7526 49.12 63.8711 49.12C65.2651 49.12 66.6363 49.5088 67.8185 50.2327C69.0019 50.9567 69.9962 52.0135 70.6488 53.3543C71.1727 54.4236 71.4198 55.5546 71.4198 56.6696C71.4198 58.0651 71.0314 59.4366 70.3139 60.6188C69.5896 61.8034 68.5304 62.8009 67.1956 63.4576C66.1238 63.9809 64.9952 64.2283 63.8825 64.2294C62.4884 64.2294 61.1172 63.8396 59.935 63.1167C58.7528 62.3928 57.7585 61.3359 57.0991 59.9964L56.7642 60.1594Z" fill="#42180B"/>
<path d="M59.7584 60.5424C60.7413 62.2069 62.8882 62.7564 64.5475 61.7725C66.2069 60.7898 66.7593 58.643 65.7775 56.9808C64.7947 55.3186 62.6467 54.7668 60.9885 55.7518C59.3291 56.7346 58.7755 58.8802 59.7584 60.5424Z" fill="#42180B"/>
<path d="M60.1229 60.6473C60.394 61.1091 60.9942 61.2619 61.4532 60.9894C61.9179 60.7158 62.0705 60.1195 61.7937 59.6577C61.5238 59.196 60.9292 59.0421 60.4646 59.3169C60.0056 59.5893 59.853 60.1856 60.1229 60.6473Z" fill="white"/>
<path d="M60.7414 58.2521C60.9054 58.528 61.2584 58.6215 61.5352 58.4573C61.8119 58.2931 61.9065 57.9362 61.7413 57.6569C61.5762 57.3799 61.2174 57.2898 60.9407 57.4528C60.665 57.617 60.5762 57.975 60.7414 58.2521Z" fill="white"/>
<path d="M68.8423 63.7232C69.1487 64.6375 67.4597 66.0364 65.0657 66.847C62.6649 67.6576 60.476 67.5721 60.1707 66.6554C59.8587 65.7422 61.5534 64.3422 63.9473 63.5339C66.3425 62.7233 68.5303 62.8088 68.8423 63.7232Z" fill="#FF803B"/>
<path d="M61.0238 41.0837C54.8395 39.0749 49.6153 45.4639 48.7383 51.0331C50.6973 46.3599 55.0753 43.1084 59.9521 42.0277C60.2881 41.9353 60.6582 41.8635 60.9942 41.7689C61.3177 41.6834 61.3347 41.1954 61.0238 41.0837Z" fill="#632B15"/>
<path d="M92.5831 54.8238C92.418 54.7395 92.2118 54.7645 92.0706 54.8934C84.9285 61.296 77.833 61.402 74.7557 60.4581C74.5678 60.4022 74.3616 60.4695 74.25 60.6279C74.1316 60.7818 74.8673 62.8921 77.997 65.4504C78.874 66.1653 79.9981 66.7854 80.9218 67.0682C82.6746 67.5994 84.3454 67.5892 85.8635 67.0203C86.7929 66.6669 87.6812 66.1276 88.499 65.4117C88.9113 65.0537 89.3053 64.6467 89.6823 64.1975C90.3941 63.3596 91.0353 62.3722 91.6002 61.247C92.6947 59.074 92.7824 55.3414 92.795 55.2605C92.836 55.086 92.7471 54.9082 92.5831 54.8238Z" fill="#42180B"/>
<path d="M89.3179 63.3458C88.376 64.4848 87.1699 65.5074 85.6346 66.0832C85.4695 66.1482 85.3112 66.2018 85.1461 66.2474C83.7042 66.6658 82.2805 66.5392 80.9924 66.1527C81.0926 65.8039 81.3045 65.4367 81.604 65.0731C82.3921 64.0903 83.7224 63.1463 84.7747 62.8442C85.7873 62.5512 87.1756 62.5136 88.2166 62.7986C88.6699 62.9206 89.0526 63.1007 89.3179 63.3458Z" fill="#C13D3D"/>
<path d="M90.3474 62.1237L89.4237 63.5933C89.0468 64.0436 88.647 64.4506 88.2404 64.8086C87.4227 65.5245 86.5343 66.0638 85.605 66.416C84.0868 66.9849 82.416 66.9963 80.6621 66.4662C80.645 66.3454 80.6746 66.5757 80.6211 66.3898C80.5926 66.2599 79.9924 66.1687 80.0562 66.0159C80.1621 65.732 80.3979 65.4618 80.669 65.3843C81.0095 65.2783 81.4742 65.1369 81.8511 65.2977C81.8978 65.0537 83.3921 64.7618 83.5276 65.0457C83.498 64.8393 85.3225 64.3469 85.3931 64.6205C85.3396 64.2146 87.0229 63.6172 87.1163 63.9113C87.04 63.6115 88.3407 62.8807 88.4933 63.0552C88.7586 62.4543 89.3235 62.126 89.6527 62.1272C90.0468 62.1294 90.3474 62.1237 90.3474 62.1237Z" fill="white"/>
<path d="M78.956 61.3678C78.956 61.3678 85.646 60.1993 88.8816 58.0582C88.8816 58.0582 89.1641 59.7113 88.1755 60.3566C87.9523 60.5037 86.9637 61.1501 86.6459 61.0737C86.5229 61.426 84.9228 61.9698 84.5754 61.8627C84.4103 62.1386 82.6928 62.7017 82.1222 62.6117C81.7623 62.842 80.3922 63.0803 79.9275 62.842C79.374 62.5547 78.956 61.3678 78.956 61.3678Z" fill="white"/>
<path d="M89.8941 62.4954C88.8645 64.0652 87.4523 65.5428 85.564 66.2519C83.9695 66.847 82.3397 66.6737 80.8739 66.1595C78.9981 65.5074 76.3092 63.0825 75.6031 61.6403C77.5563 61.923 80.2566 61.7167 82.5276 61.1239C85.6631 60.3087 88.7586 58.6955 91.5592 56.4279C91.9533 57.739 90.8941 60.9734 89.8941 62.4954ZM92.5831 54.8238C92.418 54.7395 92.2118 54.7645 92.0706 54.8934C84.9285 61.296 77.833 61.402 74.7557 60.4581C74.5678 60.4022 74.3616 60.4695 74.25 60.6279C74.1316 60.7818 74.8673 62.8921 77.997 65.4504C78.874 66.1653 79.9981 66.7854 80.9218 67.0682C82.6746 67.5994 84.3454 67.5892 85.8635 67.0203C86.7929 66.6669 87.6812 66.1276 88.499 65.4117C88.9113 65.0537 89.3053 64.6467 89.6823 64.1975C90.3941 63.3596 91.0353 62.3722 91.6002 61.247C92.6947 59.074 92.7824 55.3414 92.795 55.2605C92.836 55.086 92.7471 54.9082 92.5831 54.8238Z" fill="#632B15"/>
<path d="M83.9991 69.8237C83.5458 69.8488 83.0925 69.8294 82.6746 69.7678C82.4627 69.7393 82.3215 69.525 82.3454 69.2913C82.375 69.0576 82.563 68.8877 82.7748 68.9219C84.187 69.1214 86.1289 68.8216 87.0525 67.685C87.1994 67.5105 87.4341 67.498 87.5935 67.6576C87.7461 67.815 87.7518 68.0851 87.6106 68.2607C86.7815 69.2833 85.3578 69.7519 83.9991 69.8237Z" fill="#632B15"/>
<path d="M96.9543 61.7121C95.3712 61.7121 93.5421 61.4545 91.7529 60.93C92.7062 58.732 92.7825 55.3368 92.795 55.2604C92.8007 55.2342 92.8064 55.2057 92.8064 55.1784C92.8064 55.0324 92.7244 54.8956 92.5832 54.8238C92.5182 54.7919 92.4476 54.7748 92.377 54.7748C92.2654 54.7748 92.1595 54.8135 92.0706 54.8933C90.2939 56.486 88.5173 57.6888 86.8112 58.5837C86.482 58.3455 86.1756 58.0924 85.8818 57.8256C85.8226 57.7652 85.7519 57.7059 85.6927 57.6443C85.6289 57.5816 85.564 57.52 85.4991 57.4562C85.4399 57.3924 85.375 57.3262 85.3169 57.2613C84.3397 56.1942 83.8579 55.086 83.7452 53.9687C83.7167 53.6837 83.7167 53.3976 83.7338 53.1137C83.7338 53.0829 83.7395 53.051 83.7395 53.0202C85.0162 51.7285 85.7053 50.1575 85.7873 48.4006C85.9399 48.2011 86.0936 48.0039 86.2576 47.8089C86.9694 46.9619 87.7701 46.1558 88.6049 45.4102C88.7234 45.3053 88.8407 45.2004 88.958 45.0978C88.9523 45.2494 88.9466 45.4034 88.9466 45.5573C88.9466 46.271 89.0411 46.996 89.2348 47.7177C89.729 49.5692 90.8178 51.106 92.2358 52.1788C93.6537 53.2505 95.4008 53.8604 97.2311 53.8604C97.4953 53.8604 97.7538 53.849 98.0192 53.8228C98.0078 53.9425 98.0249 54.0531 98.0659 54.1568C98.2424 54.5798 98.8255 54.7884 99.6433 54.7884C100.549 54.7884 101.738 54.5308 102.967 54.0212C105.303 53.0532 106.897 51.5449 106.527 50.6534C106.356 50.2304 105.767 50.0207 104.956 50.0207C104.721 50.0207 104.462 50.0389 104.191 50.0731C105.05 48.7529 105.527 47.1899 105.527 45.5664C105.527 44.8527 105.432 44.1265 105.239 43.406C104.743 41.5556 103.656 40.0177 102.238 38.946C101.702 38.539 101.119 38.2015 100.502 37.9359C102.485 36.944 104.514 35.9704 106.226 35.1621C107.033 35.8085 107.774 36.5473 108.433 37.3818C108.015 36.5177 107.486 35.6637 106.867 34.8611C107.345 34.6365 107.792 34.4279 108.198 34.2398C108.515 34.0904 108.845 34.0232 109.174 34.0232C109.333 34.0232 109.486 34.0391 109.639 34.0699C111.846 39.9766 112.511 46.6506 110.686 54.0565C110.316 54.4099 109.868 54.7919 109.363 55.1886C108.892 55.5569 108.38 55.9365 107.839 56.3207C107.333 56.681 106.804 57.0446 106.274 57.4038C105.938 57.6272 105.603 57.8496 105.273 58.065C103.344 59.3259 101.508 60.4341 100.619 60.9733C99.8198 61.4636 98.5021 61.7121 96.9543 61.7121ZM102.779 55.7119C102.366 55.7119 102.078 56.3344 102.52 56.608C102.608 56.6616 102.691 56.6844 102.773 56.6844C103.191 56.6844 103.473 56.0619 103.032 55.7883C102.944 55.7336 102.861 55.7119 102.779 55.7119ZM109.922 50.4619C109.421 50.4619 109.274 51.5438 109.851 51.5974C110.127 51.4412 109.733 51.1539 109.816 50.9225V50.9202V50.9213V50.9133V50.9202V50.9133C109.851 50.9293 109.887 50.9373 109.928 50.9373C110.134 50.9373 110.368 50.7412 110.192 50.5588C110.092 50.4926 109.998 50.4619 109.922 50.4619ZM109.722 49.6444C109.657 49.6444 109.592 49.6786 109.569 49.7607C109.534 49.8884 109.639 49.9739 109.739 49.9739C109.803 49.9739 109.868 49.9374 109.892 49.8565C109.933 49.7299 109.827 49.6444 109.722 49.6444ZM109.804 44.6578C109.786 44.6578 109.762 44.6612 109.739 44.6703C109.504 44.7911 109.703 45.0636 109.857 45.0636C109.922 45.0636 109.98 45.018 109.998 44.8983C109.998 44.7866 109.915 44.6578 109.804 44.6578ZM108.092 37.5962C108.038 37.5962 107.986 37.6075 107.927 37.6304C107.486 37.8116 107.679 38.4455 108.08 38.4455C108.133 38.4455 108.186 38.4352 108.244 38.4113C108.692 38.23 108.491 37.5962 108.092 37.5962ZM106.209 37.1983C106.097 37.1983 105.973 37.294 105.938 37.4103C105.915 37.5813 106.009 37.6509 106.115 37.6509C106.28 37.6509 106.473 37.4958 106.373 37.2986C106.332 37.2267 106.274 37.1983 106.209 37.1983Z" fill="#F0CF93"/>
<path d="M83.7395 53.0202C83.7748 52.6064 83.8511 52.1902 83.9696 51.7787C84.0983 51.334 84.2748 50.8928 84.4923 50.455C84.834 49.755 85.2759 49.0664 85.7873 48.4006C85.7053 50.1575 85.0162 51.7285 83.7395 53.0202Z" fill="#EBC58F"/>
<path d="M110.686 54.0565C112.511 46.6506 111.846 39.9766 109.639 34.0699C110.433 34.2329 111.121 34.8064 111.392 35.6467C112.651 39.613 112.71 46.1023 112.34 49.9295C112.322 50.1153 112.305 50.2954 112.281 50.4699C112.269 50.6147 112.245 50.7606 112.221 50.9065C112.122 51.4845 111.952 52.0694 111.734 52.6565C111.71 52.7147 111.686 52.7728 111.663 52.8287C111.657 52.8447 111.651 52.8606 111.645 52.8755C111.498 53.2027 111.163 53.6051 110.686 54.0565Z" fill="#EBC58F"/>
<path d="M109.857 45.0637C109.703 45.0637 109.504 44.7912 109.739 44.6703C109.762 44.6612 109.786 44.6578 109.803 44.6578C109.915 44.6578 109.998 44.7866 109.998 44.8983C109.98 45.0181 109.922 45.0637 109.857 45.0637Z" fill="#EDC98D"/>
<path d="M108.08 38.4455C107.68 38.4455 107.486 37.8117 107.927 37.6304C107.986 37.6076 108.038 37.5962 108.092 37.5962C108.491 37.5962 108.692 38.2301 108.244 38.4113C108.186 38.4353 108.133 38.4455 108.08 38.4455Z" fill="#EDC98D"/>
<path d="M109.851 51.5974C109.274 51.5438 109.421 50.4619 109.922 50.4619C109.998 50.4619 110.092 50.4927 110.192 50.5588C110.368 50.7412 110.134 50.9373 109.928 50.9373C109.887 50.9373 109.851 50.9293 109.816 50.9133V50.9202V50.9133V50.9213V50.9225C109.733 51.1539 110.127 51.4412 109.851 51.5974Z" fill="#EDC98D"/>
<path d="M102.773 56.6844C102.691 56.6844 102.608 56.6616 102.52 56.608C102.078 56.3344 102.366 55.7119 102.779 55.7119C102.861 55.7119 102.944 55.7336 103.031 55.7883C103.473 56.0619 103.191 56.6844 102.773 56.6844Z" fill="#EDC98D"/>
<path d="M109.739 49.9739C109.639 49.9739 109.534 49.8884 109.569 49.7607C109.592 49.6786 109.657 49.6444 109.721 49.6444C109.827 49.6444 109.933 49.73 109.892 49.8565C109.868 49.9375 109.803 49.9739 109.739 49.9739Z" fill="#F0CC8F"/>
<path d="M106.115 37.6509C106.009 37.6509 105.915 37.5813 105.938 37.4103C105.973 37.294 106.097 37.1983 106.209 37.1983C106.274 37.1983 106.332 37.2267 106.373 37.2986C106.473 37.4958 106.28 37.6509 106.115 37.6509Z" fill="#E8C58B"/>
<path d="M97.2311 53.1148C95.5717 53.1148 93.9772 52.5607 92.6823 51.5837C91.3941 50.6067 90.4056 49.2112 89.9523 47.5239L89.5935 47.6219L89.9523 47.5228C89.7757 46.8661 89.688 46.206 89.688 45.5573C89.688 45.1697 89.7233 44.7866 89.7757 44.4103C91.5764 42.9442 93.353 41.8007 94.4065 41.176C95.6947 40.4144 97.3541 39.5297 99.1194 38.6348C99.2777 38.5527 99.4371 38.4706 99.6023 38.3885C100.39 38.6496 101.132 39.0395 101.79 39.5389C103.085 40.5159 104.067 41.9136 104.52 43.5998C104.697 44.2564 104.785 44.9177 104.785 45.5664C104.785 47.2309 104.226 48.827 103.249 50.1198C103.208 50.1745 103.167 50.2304 103.126 50.2852C102.643 50.4083 102.143 50.577 101.632 50.7879C100.119 51.4149 98.9189 52.2666 98.3609 53.0304C97.9839 53.0886 97.6069 53.1148 97.2311 53.1148ZM95.7482 43.8985C95.3598 43.8985 94.9658 43.9646 94.5774 44.1037C92.7597 44.7513 91.8121 46.7498 92.459 48.5705C92.9647 50.0036 94.312 50.8974 95.7482 50.8974C96.1366 50.8974 96.5363 50.8324 96.919 50.6944C98.7424 50.0469 99.69 48.046 99.0431 46.2276C98.5374 44.7945 97.1889 43.8985 95.7482 43.8985Z" fill="#FFF9DC"/>
<path d="M97.231 53.8604C95.4008 53.8604 93.6537 53.2505 92.2357 52.1788C90.8178 51.106 89.729 49.5692 89.2347 47.7177C89.0411 46.9961 88.9466 46.271 88.9466 45.5573C88.9466 45.4034 88.9522 45.2495 88.9579 45.0978C89.229 44.8607 89.5058 44.6316 89.7757 44.4104C89.7233 44.7866 89.688 45.1697 89.688 45.5573C89.688 46.206 89.7757 46.8661 89.9522 47.5228L89.5935 47.622L89.9522 47.5239C90.4055 49.2112 91.3941 50.6067 92.6822 51.5837C93.9771 52.5608 95.5716 53.1148 97.231 53.1148C97.6069 53.1148 97.9838 53.0886 98.3608 53.0305C98.1547 53.3121 98.0362 53.5823 98.0191 53.8228C97.7538 53.8491 97.4952 53.8604 97.231 53.8604ZM103.126 50.2852C103.167 50.2305 103.208 50.1746 103.249 50.1199C104.226 48.827 104.785 47.2309 104.785 45.5664C104.785 44.9177 104.697 44.2565 104.52 43.5998C104.067 41.9136 103.085 40.5159 101.79 39.5389C101.132 39.0395 100.39 38.6496 99.6022 38.3886C99.9018 38.2369 100.201 38.0864 100.502 37.9359C101.119 38.2016 101.702 38.539 102.238 38.946C103.656 40.0177 104.743 41.5557 105.239 43.406C105.432 44.1265 105.527 44.8527 105.527 45.5664C105.527 47.1899 105.05 48.7529 104.191 50.0731C103.856 50.1165 103.496 50.1883 103.126 50.2852Z" fill="#A18663"/>
<path d="M95.7481 50.8973C94.3119 50.8973 92.9646 50.0035 92.4589 48.5705C91.812 46.7498 92.7596 44.7513 94.5773 44.1037C94.9657 43.9646 95.3597 43.8985 95.7481 43.8985C97.1888 43.8985 98.5373 44.7946 99.043 46.2276C99.6899 48.046 98.7423 50.0468 96.9189 50.6944C96.5362 50.8323 96.1365 50.8973 95.7481 50.8973ZM93.7117 47.4452C93.6001 47.4452 93.4942 47.4635 93.3826 47.5022C92.8769 47.6812 92.6184 48.2364 92.7949 48.7437C92.9362 49.1405 93.312 49.389 93.7117 49.389C93.8177 49.389 93.9304 49.3719 94.0363 49.3332C94.542 49.153 94.8062 48.5978 94.624 48.0916C94.4828 47.6926 94.1069 47.4452 93.7117 47.4452ZM94.4065 45.7294C94.3415 45.7294 94.2709 45.742 94.2129 45.7636C93.9065 45.8719 93.747 46.2048 93.853 46.5081C93.9418 46.7475 94.165 46.8957 94.4065 46.8957C94.4714 46.8957 94.5363 46.8854 94.6012 46.8626C94.9008 46.7543 95.0591 46.4203 94.9531 46.1182C94.8711 45.8788 94.6422 45.7294 94.4065 45.7294Z" fill="#A18663"/>
<path d="M93.7117 49.3891C93.312 49.3891 92.9362 49.1405 92.7949 48.7438C92.6184 48.2365 92.8769 47.6813 93.3826 47.5023C93.4942 47.4635 93.6001 47.4453 93.7117 47.4453C94.1069 47.4453 94.4828 47.6927 94.624 48.0917C94.8062 48.5979 94.542 49.1531 94.0363 49.3332C93.9304 49.372 93.8177 49.3891 93.7117 49.3891Z" fill="#FFF9DC"/>
<path d="M94.4065 46.8957C94.1651 46.8957 93.9418 46.7475 93.853 46.5081C93.7471 46.2048 93.9065 45.872 94.2129 45.7637C94.271 45.742 94.3416 45.7295 94.4065 45.7295C94.6423 45.7295 94.8712 45.8788 94.9532 46.1182C95.0591 46.4203 94.9008 46.7544 94.6013 46.8627C94.5364 46.8855 94.4714 46.8957 94.4065 46.8957Z" fill="#FFF9DC"/>
<path d="M99.6432 54.7884C98.8255 54.7884 98.2424 54.5798 98.0658 54.1569C98.0248 54.0531 98.0077 53.9425 98.0191 53.8228C98.0362 53.5823 98.1547 53.3121 98.3608 53.0305C98.9189 52.2666 100.119 51.415 101.632 50.788C102.143 50.577 102.643 50.4083 103.126 50.2852C103.496 50.1883 103.856 50.1165 104.191 50.0731C104.462 50.0389 104.721 50.0207 104.956 50.0207C105.767 50.0207 106.356 50.2305 106.527 50.6534C106.897 51.545 105.303 53.0533 102.967 54.0212C101.738 54.5308 100.549 54.7884 99.6432 54.7884Z" fill="#FFBA7B"/>
<path d="M108.433 37.3818C107.774 36.5473 107.033 35.8085 106.226 35.1621C106.444 35.0595 106.662 34.958 106.867 34.8611C107.486 35.6637 108.015 36.5177 108.433 37.3818Z" fill="#B18F68"/>
<path d="M90.8178 60.6325C90.0935 60.3794 89.3817 60.0807 88.6995 59.7375C88.9295 59.2404 88.9352 58.6533 88.9113 58.3215C89.8179 57.7538 90.7005 57.1222 91.5592 56.4279C91.8234 57.3206 91.4237 59.1036 90.8178 60.6325Z" fill="#A18663"/>
<path d="M88.6994 59.7375C88.311 59.5403 87.9409 59.3305 87.5753 59.1036C88.0229 58.8597 88.4705 58.5974 88.9112 58.3215C88.9351 58.6533 88.9294 59.2404 88.6994 59.7375Z" fill="#FFF9DC"/>
<path d="M91.7528 60.93C91.4407 60.8388 91.1298 60.7396 90.8177 60.6325C91.4236 59.1036 91.8234 57.3206 91.5592 56.4279C90.7004 57.1222 89.8178 57.7538 88.9112 58.3215C88.4705 58.5974 88.0229 58.8597 87.5753 59.1036C87.3111 58.9383 87.0582 58.7662 86.8111 58.5838C88.5172 57.6888 90.2939 56.486 92.0705 54.8933C92.1594 54.8135 92.2653 54.7748 92.3769 54.7748C92.4475 54.7748 92.5181 54.7919 92.5831 54.8238C92.7243 54.8956 92.8063 55.0324 92.8063 55.1784C92.8063 55.2057 92.8006 55.2342 92.7949 55.2604C92.7824 55.3368 92.7061 58.732 91.7528 60.93Z" fill="#B18F68"/>
<path d="M58.0819 74.6269C52.3452 71.1292 47.0618 65.9339 42.8433 58.781C43.1257 58.4607 43.5027 58.2133 43.9492 58.0867C44.9207 57.8108 46.1086 57.4768 47.4149 57.1199C47.309 57.267 47.3967 57.5384 47.5618 57.5384C47.6153 57.5384 47.6677 57.5144 47.7326 57.4562C47.8329 57.3365 47.8272 57.1108 47.6859 57.0447C48.5264 56.8155 49.4148 56.5795 50.31 56.3424C50.5332 56.6753 50.7747 57.0002 51.015 57.3229C51.2507 57.6546 51.4979 57.9784 51.7507 58.3045L52.1277 58.7867L52.5218 59.2621C52.7803 59.5779 53.04 59.896 53.3156 60.2016C53.5924 60.5094 53.8577 60.8218 54.1402 61.1227C54.6982 61.7327 55.2756 62.3244 55.869 62.9058C56.1697 63.1909 56.4635 63.485 56.7699 63.7666C57.0808 64.0447 57.3872 64.3264 57.705 64.6011C58.1526 64.9865 58.6058 65.3638 59.0705 65.7355C58.9931 65.715 58.9111 65.7047 58.8347 65.7047C58.6343 65.7047 58.435 65.772 58.2881 65.9259C57.8872 66.2953 58.2585 66.8323 58.6639 66.8323C58.7049 66.8323 58.7459 66.8265 58.7938 66.814C58.8872 66.9006 59.0113 66.9405 59.1343 66.9405C59.4463 66.9405 59.7584 66.7011 59.6639 66.3089C59.6525 66.2554 59.6286 66.2052 59.6058 66.1573C59.788 66.293 59.9646 66.4264 60.1411 66.5609C60.1468 66.5928 60.1582 66.6247 60.1707 66.6555C60.2231 66.8277 60.3472 66.969 60.5238 67.0808C60.4941 67.0819 60.4589 67.0865 60.4293 67.0944C59.8234 67.2267 59.9759 68.108 60.5238 68.108C60.5648 68.108 60.6058 68.1045 60.6468 68.0954C61.0761 67.9997 61.1172 67.5186 60.9053 67.2541C61.0055 67.286 61.1115 67.3133 61.2288 67.3339C62.7948 68.4089 64.4712 69.3712 66.2536 70.1749C66.6534 70.3471 67.0543 70.5261 67.4597 70.688C67.8777 70.8407 68.2832 71.0049 68.7012 71.1429C69.2251 71.3207 69.7547 71.4826 70.2899 71.6274C69.1488 72.5976 68.0247 73.2349 67.1192 73.3865C65.56 73.6453 61.4474 74.3499 58.0819 74.6269ZM61.37 70.9388C60.9941 70.9388 60.6354 71.1725 60.5523 71.7654C60.5466 72.1097 60.8062 72.2841 61.0704 72.2864C61.1878 72.4722 61.37 72.6079 61.6 72.6079C61.723 72.6079 61.8643 72.5668 62.0055 72.4699C62.7469 71.6912 62.0351 70.9388 61.37 70.9388ZM67.4597 71.4472C67.4244 71.4472 67.3834 71.4598 67.3424 71.4883C67.1306 71.6525 67.3242 71.9489 67.5064 71.9489C67.5782 71.9489 67.642 71.901 67.6773 71.7802C67.7126 71.632 67.601 71.4472 67.4597 71.4472ZM50.9683 62.0485C50.4444 62.0485 49.9034 63.3231 50.8806 63.4998C50.892 63.4998 50.8977 63.4998 50.9034 63.4998C51.3749 63.4998 51.4512 62.9879 51.433 62.6071C51.327 62.2024 51.1448 62.0485 50.9683 62.0485ZM44.5733 60.8001C44.4548 60.8001 44.3261 60.9027 44.3136 61.027C44.3079 61.1672 44.3911 61.2219 44.4845 61.2219C44.6314 61.2219 44.8147 61.0805 44.7373 60.9061C44.702 60.832 44.6382 60.8001 44.5733 60.8001Z" fill="#F0CF93"/>
<path d="M55.6869 74.7421C55.3931 74.7421 55.1106 74.7341 54.8578 74.7181C54.8874 74.4308 54.6516 74.1241 54.3521 74.1241C54.2689 74.1241 54.1812 74.1469 54.0924 74.1994C53.9341 74.2951 53.8578 74.4354 53.851 74.5802C53.6927 74.5403 53.5571 74.4901 53.4455 74.4331C52.6927 74.0386 52.0105 73.578 51.4387 73.0513C49.121 70.9137 45.5619 66.863 43.4675 63.2432C43.4959 63.2022 43.5141 63.1429 43.5084 63.0665C43.4321 62.8476 43.3023 62.7291 43.1554 62.6892C42.8843 62.1932 42.6497 61.7075 42.4493 61.2401C42.078 60.3771 42.2727 59.4285 42.8433 58.781C47.0619 65.9338 52.3453 71.1291 58.082 74.6269C57.2165 74.6987 56.3987 74.7421 55.6869 74.7421ZM48.3033 67.5858C48.268 67.5858 48.2327 67.5949 48.1974 67.6154C48.0094 67.7294 48.1268 67.9985 48.3033 67.9985C48.3386 67.9985 48.3739 67.9882 48.4092 67.9688C48.5971 67.8537 48.4798 67.5858 48.3033 67.5858Z" fill="#EBC58F"/>
<path d="M67.5065 71.9488C67.3243 71.9488 67.1307 71.6524 67.3425 71.4883C67.3835 71.4598 67.4245 71.4472 67.4598 71.4472C67.601 71.4472 67.7126 71.6319 67.6773 71.7801C67.642 71.901 67.5783 71.9488 67.5065 71.9488Z" fill="#EDC98D"/>
<path d="M60.5238 68.1079C59.9759 68.1079 59.8233 67.2267 60.4292 67.0944C60.4589 67.0864 60.4941 67.0819 60.5238 67.0807C60.6354 67.1492 60.7584 67.2073 60.9053 67.254C61.1172 67.5185 61.0761 67.9996 60.6468 68.0954C60.6058 68.1045 60.5648 68.1079 60.5238 68.1079Z" fill="#EDC98D"/>
<path d="M47.5618 57.5383C47.3967 57.5383 47.309 57.267 47.4149 57.1199C47.5026 57.0948 47.5971 57.0697 47.6859 57.0446C47.8272 57.1108 47.8329 57.3365 47.7326 57.4562C47.6677 57.5143 47.6153 57.5383 47.5618 57.5383Z" fill="#EDC98D"/>
<path d="M59.1344 66.9405C59.0114 66.9405 58.8872 66.9006 58.7939 66.8139C58.746 66.8265 58.705 66.8322 58.664 66.8322C58.2585 66.8322 57.8873 66.2952 58.2882 65.9258C58.4351 65.7719 58.6344 65.7047 58.8348 65.7047C58.9111 65.7047 58.9931 65.715 59.0706 65.7355C59.2471 65.8768 59.4294 66.0171 59.6059 66.1573C59.6287 66.2052 59.6526 66.2553 59.664 66.3089C59.7585 66.7011 59.4464 66.9405 59.1344 66.9405Z" fill="#EDC98D"/>
<path d="M61.6001 72.6078C61.37 72.6078 61.1878 72.4722 61.0705 72.2863C60.8062 72.2841 60.5466 72.1096 60.5523 71.7653C60.6354 71.1725 60.9942 70.9388 61.37 70.9388C62.0352 70.9388 62.747 71.6912 62.0055 72.4699C61.8643 72.5668 61.7231 72.6078 61.6001 72.6078Z" fill="#EDC98D"/>
<path d="M50.9034 63.4998C50.8977 63.4998 50.892 63.4998 50.8806 63.4998C49.9035 63.3231 50.4444 62.0485 50.9683 62.0485C51.1448 62.0485 51.327 62.2024 51.4329 62.6071C51.4511 62.9879 51.3748 63.4998 50.9034 63.4998Z" fill="#EDC98D"/>
<path d="M43.4674 63.2433C43.3547 63.0563 43.2556 62.8727 43.1554 62.6892C43.3023 62.7291 43.4321 62.8476 43.5084 63.0665C43.5141 63.1429 43.4959 63.2022 43.4674 63.2433Z" fill="#E8C089"/>
<path d="M54.8577 74.718C54.4636 74.693 54.122 74.6485 53.851 74.5801C53.8578 74.4353 53.9341 74.2951 54.0923 74.1993C54.1812 74.1469 54.2689 74.1241 54.352 74.1241C54.6515 74.1241 54.8873 74.4308 54.8577 74.718Z" fill="#EBC38B"/>
<path d="M48.3032 67.9985C48.1267 67.9985 48.0094 67.7294 48.1973 67.6154C48.2326 67.5949 48.2679 67.5858 48.3032 67.5858C48.4797 67.5858 48.597 67.8537 48.4091 67.9689C48.3738 67.9882 48.3385 67.9985 48.3032 67.9985Z" fill="#EBC38B"/>
<path d="M44.4845 61.2219C44.3911 61.2219 44.3079 61.1672 44.3136 61.027C44.3262 60.9027 44.4548 60.8001 44.5733 60.8001C44.6382 60.8001 44.702 60.832 44.7373 60.9061C44.8147 61.0805 44.6314 61.2219 44.4845 61.2219Z" fill="#F0CC8F"/>
<path d="M75.3912 64.5407C73.5849 63.9763 71.8435 63.1293 70.1727 62.0735C70.4609 61.7384 70.7194 61.3815 70.9426 61.0076C71.7376 59.7067 72.167 58.2041 72.167 56.6696C72.167 55.9992 72.085 55.3231 71.9141 54.6551C74.5143 55.5888 76.3912 57.365 76.2909 60.5709C76.2909 60.6405 76.291 60.71 76.2853 60.7807C75.7033 60.7032 75.1851 60.5926 74.7557 60.4581C74.709 60.4455 74.6669 60.4387 74.6202 60.4387C74.4733 60.4387 74.332 60.5071 74.25 60.6279C74.2375 60.6382 74.2375 60.6564 74.2375 60.6815C74.2375 60.9392 74.6259 61.9595 75.8149 63.3459C75.6907 63.7472 75.5495 64.1462 75.3912 64.5407ZM75.0791 63.6639C74.9493 63.6639 74.791 63.7916 74.8081 63.9923C74.7853 64.1724 74.873 64.2511 74.9732 64.2511C75.1088 64.2511 75.2671 64.1211 75.25 63.9216C75.2671 63.7415 75.1794 63.6639 75.0791 63.6639Z" fill="#F0CF93"/>
<path d="M74.9732 64.2511C74.873 64.2511 74.7853 64.1724 74.8081 63.9923C74.791 63.7916 74.9492 63.6639 75.0791 63.6639C75.1793 63.6639 75.267 63.7415 75.2499 63.9216C75.267 64.1211 75.1087 64.2511 74.9732 64.2511Z" fill="#EDC98D"/>
<path d="M70.29 71.6274C69.7547 71.4826 69.2252 71.3207 68.7013 71.1428C68.2833 71.0049 67.8778 70.8407 67.4598 70.6879C67.0544 70.5261 66.6535 70.3471 66.2537 70.1749C64.4713 69.3711 62.7948 68.4089 61.2288 67.3338C61.4703 67.3806 61.747 67.4023 62.0534 67.4023C62.9008 67.4023 63.9588 67.2198 65.0658 66.847C67.4598 66.0364 69.1488 64.6376 68.8425 63.7232C68.8072 63.6206 68.7479 63.5283 68.6659 63.4462C69.2309 63.0472 69.7365 62.5854 70.1727 62.0735C71.8435 63.1292 73.5849 63.9763 75.3912 64.5407C74.2671 67.3464 72.2433 69.9697 70.29 71.6274ZM60.1412 66.5609C59.9646 66.4264 59.7881 66.293 59.6059 66.1573C59.4293 66.0171 59.2471 65.8768 59.0706 65.7355C58.6059 65.3638 58.1526 64.9864 57.705 64.6011C57.3873 64.3263 57.0809 64.0447 56.77 63.7665C56.4636 63.4849 56.1698 63.1908 55.8691 62.9058C55.2757 62.3244 54.6983 61.7326 54.1402 61.1227C53.8578 60.8217 53.5924 60.5094 53.3157 60.2015C53.04 59.896 52.7803 59.5779 52.5218 59.2621L52.1278 58.7867L51.7508 58.3044C51.4979 57.9784 51.2508 57.6546 51.015 57.3229C50.7747 57.0002 50.5333 56.6753 50.3101 56.3424C51.433 56.0471 52.5742 55.7553 53.6926 55.4805C54.3988 55.3072 55.0923 55.1419 55.7575 54.988C55.6459 55.542 55.5866 56.1098 55.5866 56.6798C55.5866 57.9054 55.8577 59.1492 56.4283 60.3235C57.1515 61.7919 58.246 62.9571 59.5466 63.7517C60.1878 64.1439 60.8758 64.446 61.5944 64.6512C60.6115 65.2977 60.0409 66.0057 60.1412 66.5609Z" fill="#FDDEA6"/>
<path d="M62.5477 64.1086C61.624 63.9433 60.7357 63.607 59.935 63.1167C58.7528 62.3928 57.7585 61.336 57.0991 59.9964L56.7643 60.1594L57.0991 59.9964C56.5752 58.927 56.3281 57.796 56.3281 56.6799C56.3281 56.0448 56.4112 55.4155 56.5638 54.8067C57.4112 54.6198 58.205 54.4567 58.9168 54.329C60.2881 54.0816 62.8005 53.7373 65.4952 53.7373C67.3664 53.7373 69.3368 53.9049 71.0668 54.386C71.3082 55.1385 71.4198 55.9069 71.4198 56.6696C71.4198 58.0651 71.0315 59.4366 70.3139 60.6188C69.7194 61.5902 68.9017 62.435 67.8892 63.0688C67.625 63.0084 67.3072 62.9765 66.9598 62.9765C66.1068 62.9765 65.0476 63.1601 63.9474 63.534C63.4474 63.7027 62.9714 63.8988 62.5477 64.1086ZM62.7652 55.2628C62.1593 55.2628 61.5466 55.4212 60.9885 55.7518C59.3291 56.7346 58.7756 58.8802 59.7585 60.5424C60.4111 61.6483 61.5762 62.2606 62.7709 62.2617C63.3768 62.2617 63.9884 62.1043 64.5476 61.7726C66.207 60.7898 66.7594 58.6431 65.7776 56.9808C65.1239 55.8773 63.9588 55.2628 62.7652 55.2628Z" fill="#FFF9DC"/>
<path d="M61.5944 64.6512C60.8757 64.446 60.1878 64.1439 59.5466 63.7517C58.2459 62.9571 57.1515 61.7919 56.4283 60.3235C55.8577 59.1492 55.5866 57.9054 55.5866 56.6798C55.5866 56.1098 55.6458 55.5421 55.7574 54.988C56.0342 54.9253 56.2984 54.8649 56.5638 54.8067C56.4112 55.4155 56.328 56.0448 56.328 56.6798C56.328 57.796 56.5752 58.9269 57.0991 59.9963L56.7642 60.1593L57.0991 59.9963C57.7585 61.3359 58.7528 62.3928 59.935 63.1167C60.7356 63.6069 61.624 63.9432 62.5476 64.1086C62.2003 64.2818 61.8768 64.4631 61.5944 64.6512ZM68.6659 63.4462C68.4951 63.2718 68.2308 63.1463 67.8892 63.0688C68.9017 62.4349 69.7194 61.5901 70.3139 60.6188C71.0314 59.4365 71.4198 58.065 71.4198 56.6696C71.4198 55.9069 71.3082 55.1385 71.0668 54.386C71.3549 54.467 71.643 54.5559 71.9141 54.6551C72.0849 55.3232 72.167 55.9992 72.167 56.6696C72.167 58.2041 71.7376 59.7067 70.9426 61.0076C70.7194 61.3815 70.4609 61.7383 70.1727 62.0735C69.7365 62.5854 69.2308 63.0472 68.6659 63.4462Z" fill="#A18663"/>
<path d="M62.7708 62.2617C61.5761 62.2605 60.411 61.6483 59.7584 60.5424C58.7755 58.8802 59.3291 56.7346 60.9885 55.7518C61.5465 55.4212 62.1592 55.2628 62.7651 55.2628C63.9587 55.2628 65.1238 55.8772 65.7775 56.9808C66.7593 58.643 66.2069 60.7898 64.5475 61.7725C63.9883 62.1043 63.3767 62.2617 62.7708 62.2617ZM60.9588 59.1812C60.7937 59.1812 60.6171 59.2245 60.4645 59.3168C60.0055 59.5893 59.8529 60.1856 60.1229 60.6473C60.3051 60.954 60.6297 61.125 60.9588 61.125C61.1297 61.125 61.2994 61.0805 61.4531 60.9893C61.9178 60.7157 62.0704 60.1194 61.7937 59.6577C61.6114 59.351 61.2937 59.1812 60.9588 59.1812ZM61.2413 57.3707C61.1354 57.3707 61.0351 57.3981 60.9406 57.4528C60.665 57.617 60.5762 57.975 60.7413 58.252C60.8472 58.4367 61.0408 58.5382 61.2413 58.5382C61.3415 58.5382 61.4406 58.5131 61.5351 58.4572C61.8119 58.2931 61.9064 57.9362 61.7412 57.6569C61.6296 57.4745 61.4406 57.3707 61.2413 57.3707Z" fill="#A18663"/>
<path d="M60.9589 61.125C60.6297 61.125 60.3051 60.954 60.1229 60.6473C59.853 60.1856 60.0056 59.5893 60.4646 59.3168C60.6172 59.2245 60.7937 59.1811 60.9589 59.1811C61.2937 59.1811 61.6115 59.351 61.7937 59.6577C62.0705 60.1194 61.9179 60.7157 61.4532 60.9893C61.2994 61.0805 61.1297 61.125 60.9589 61.125Z" fill="#FFF9DC"/>
<path d="M61.2413 58.5382C61.0409 58.5382 60.8473 58.4368 60.7414 58.2521C60.5762 57.975 60.665 57.617 60.9407 57.4528C61.0352 57.3981 61.1354 57.3708 61.2413 57.3708C61.4407 57.3708 61.6297 57.4745 61.7413 57.6569C61.9065 57.9363 61.8119 58.2931 61.5352 58.4573C61.4407 58.5131 61.3416 58.5382 61.2413 58.5382Z" fill="#FFF9DC"/>
<path d="M62.0534 67.4023C61.747 67.4023 61.4702 67.3806 61.2288 67.3338C61.1115 67.3133 61.0056 67.286 60.9053 67.2541C60.7584 67.2073 60.6354 67.1492 60.5238 67.0808C60.3472 66.969 60.2231 66.8276 60.1707 66.6555C60.1582 66.6247 60.1468 66.5928 60.1411 66.5609C60.0409 66.0057 60.6115 65.2977 61.5944 64.6513C61.8768 64.4631 62.2003 64.2819 62.5476 64.1086C62.9713 63.8988 63.4474 63.7027 63.9474 63.534C65.0475 63.1601 66.1067 62.9765 66.9598 62.9765C67.3071 62.9765 67.6249 63.0084 67.8891 63.0688C68.2308 63.1464 68.495 63.2718 68.6659 63.4462C68.7479 63.5283 68.8071 63.6206 68.8424 63.7232C69.1488 64.6376 67.4598 66.0364 65.0658 66.847C63.9587 67.2198 62.9007 67.4023 62.0534 67.4023Z" fill="#FFBA7B"/>
<path d="M76.0678 62.3733C75.873 62.1123 75.7147 61.8637 75.6031 61.6403C75.791 61.6676 75.9858 61.6904 76.1908 61.7075C76.1555 61.9298 76.1145 62.1522 76.0678 62.3733Z" fill="#A18663"/>
<path d="M75.8148 63.3459C74.6258 61.9595 74.2375 60.9392 74.2375 60.6815C74.2375 60.6564 74.2374 60.6382 74.25 60.6279C74.332 60.5071 74.4732 60.4387 74.6201 60.4387C74.6668 60.4387 74.709 60.4455 74.7557 60.4581C75.185 60.5926 75.7033 60.7032 76.2852 60.7807C76.2682 61.0885 76.2328 61.3975 76.1907 61.7076C75.9857 61.6905 75.791 61.6677 75.603 61.6403C75.7146 61.8638 75.8729 62.1123 76.0677 62.3734C75.9971 62.6983 75.9151 63.0232 75.8148 63.3459Z" fill="#B18F68"/>
<path d="M53.7096 73.9406C52.934 73.5267 52.3156 73.1026 51.8156 72.6409C51.5867 72.4265 51.3396 72.1917 51.0799 71.9397C45.8147 66.0752 47.5208 58.96 52.6038 56.3287C53.0104 56.225 53.4215 56.1235 53.8224 56.0232C55.9522 55.5021 57.6936 55.1157 59.017 54.8797C60.1286 54.6779 70.0428 53.0088 74.0666 56.486C74.332 56.7095 74.5552 56.9512 74.7557 57.2088L75.0974 57.7116C75.5552 58.5131 75.767 59.4525 75.7317 60.5527C75.6611 62.9594 74.4493 65.724 72.3321 68.3371C70.3606 70.7609 68.1898 72.3593 66.9131 72.8666C64.3824 73.8767 55.7984 75.0578 53.7096 73.9406ZM84.3339 52.7112C85.1221 47.4475 93.7118 42.2328 94.6947 41.6571C95.8484 40.9731 97.4189 40.1237 99.3722 39.1318C99.7959 38.9141 100.231 38.6952 100.667 38.4786C106.256 37.0592 112.08 41.4724 111.822 49.5031C111.792 49.8041 111.762 50.105 111.727 50.4049C111.651 51.0821 111.457 51.8094 111.145 52.628C110.292 54.8409 103.014 59.5494 100.437 60.4444C99.1433 60.8947 96.4543 61.1022 93.3826 60.5527C90.0707 59.9598 87.3521 58.6567 85.728 56.8828C84.5629 55.6104 84.1107 54.2469 84.3339 52.7112ZM41.931 61.459C43.7726 65.7674 48.5094 71.1075 51.0571 73.4606C51.6277 73.9885 52.327 74.4673 53.1869 74.9267C55.7278 76.288 64.453 74.9758 67.1955 73.9577C67.2365 73.9394 67.2832 73.9223 67.3242 73.9052C69.0486 73.22 71.3549 71.3116 73.1965 69.0417C75.4732 66.2394 76.7738 63.2375 76.8501 60.5869C76.8615 60.2004 76.8501 59.8276 76.8091 59.4685C77.0506 59.1299 77.4503 58.7856 77.6975 58.6373C79.2031 57.7526 81.8978 57.0298 83.1574 56.6365C83.4103 56.5567 83.8157 56.5419 84.1278 56.6331C84.3453 56.9763 84.605 57.3115 84.9045 57.6375C86.6926 59.5905 89.6344 61.0178 93.189 61.6517C96.0602 62.1682 99.0544 62.1089 100.808 61.5012C100.849 61.4852 100.896 61.4693 100.943 61.4511C103.678 60.433 111.145 55.7279 112.186 53.0305C112.533 52.1218 112.751 51.3055 112.84 50.5326C113.24 47.0804 113.34 39.9424 111.922 35.4779C111.669 34.6867 111.093 34.0425 110.333 33.7085C109.575 33.3745 108.709 33.3836 107.962 33.7324C105.568 34.8463 102.05 36.5131 98.8665 38.1354C96.895 39.1387 95.3006 39.9983 94.1241 40.6949C92.4772 41.6662 84.3282 46.7338 83.2748 52.2917C82.6449 53.1091 81.7395 54.0657 80.8329 54.2355C79.7509 54.435 78.7157 54.8124 77.7624 55.363C76.7146 55.9718 75.8559 56.038 74.9675 55.794C74.914 55.7416 74.8559 55.6891 74.7967 55.6389C70.4722 51.9041 60.7231 53.4341 58.8165 53.7795C57.476 54.0189 55.705 54.41 53.557 54.939C50.0913 55.7895 46.3386 56.8281 43.7965 57.5486C43.0027 57.7755 42.3376 58.333 41.9845 59.082C41.6258 59.8299 41.6076 60.6963 41.931 61.459Z" fill="#FFFEA6"/>
</svg>
