<svg width="98" height="110" viewBox="0 0 98 110" fill="none" xmlns="http://www.w3.org/2000/svg">
<path d="M60.2836 80.5172L60.5275 108.638C60.5315 108.949 60.7753 109.201 61.0841 109.213L70.8213 109.603C71.1423 109.617 71.4105 109.365 71.4247 109.046C71.4348 108.725 71.187 108.455 70.868 108.445L61.6834 108.075L61.4416 80.5071C61.4396 80.1881 61.1775 79.9301 60.8565 79.9322C60.5376 79.9362 60.2796 80.1983 60.2836 80.5172Z" fill="#994D2B"/>
<path d="M71.2174 109.302C72.5887 108.148 66.0573 103.031 61.1714 108.8C66.549 108.733 69.3992 109.469 71.2174 109.302Z" fill="#994D2B"/>
<path d="M40.8966 81.6204L42.2171 107.935L33.5323 108.475C33.2113 108.496 32.9695 108.772 32.9878 109.091C33.0081 109.412 33.2844 109.654 33.6054 109.635L42.8611 109.056C43.176 109.036 43.4198 108.764 43.4036 108.447L42.0546 81.5615C42.0384 81.2425 41.7661 80.9967 41.4451 81.0129C41.1262 81.0272 40.8804 81.3014 40.8966 81.6204Z" fill="#994D2B"/>
<path d="M33.1788 109.503C31.8054 108.349 38.1825 103.002 43.0683 108.77C37.6888 108.705 34.995 109.67 33.1788 109.503Z" fill="#994D2B"/>
<path d="M43.8586 92.5684C87.9229 97.5416 113.512 39.1813 70.8924 3.23716C69.7182 2.24577 67.8796 1.84352 65.779 2.33312C61.1064 3.42609 55.154 8.96206 52.4236 22.3743C52.1656 23.6522 52.0275 24.9625 51.9787 26.281C51.6557 34.7485 54.896 43.5045 51.804 45.7412C51.2514 46.1414 50.4957 46.3324 49.4819 46.2775C43.0399 45.92 47.8831 37.483 46.9141 25.893C46.782 24.2942 46.5382 22.6384 46.138 20.934C43.3487 9.02301 35.5618 -1.30944 29.6886 0.222343C28.9592 0.411277 28.2624 0.783051 27.6042 1.35798C21.6213 6.58515 16.7496 13.0902 13.1497 20.2026C-1.49569 49.1441 4.97072 88.1802 43.8586 92.5684Z" fill="#E0AB6C"/>
<path d="M29.6885 0.222343C38.8874 5.04524 41.8392 14.7032 42.5198 21.2346C43.8769 34.2203 34.8263 53.7679 47.8912 52.9146C53.8518 52.5266 56.6695 47.0272 54.7538 38.4723C54.0773 35.4555 51.9787 26.281 51.9787 26.281C51.5988 36.262 56.1677 46.6452 49.4819 46.2775C42.1521 45.8712 49.4332 35.0024 46.138 20.934C43.3487 9.02301 35.5617 -1.30944 29.6885 0.222343Z" fill="#D69763"/>
<path d="M43.8586 92.5684C87.9229 97.5416 113.512 39.1813 70.8924 3.23716C69.7182 2.24577 67.8796 1.84352 65.779 2.33312C74.7686 11.7473 100.177 53.0243 62.7276 75.0524C40.8133 87.9405 1.02952 66.1562 13.1497 20.2026C-1.49569 49.1441 4.97072 88.1802 43.8586 92.5684Z" fill="#D69763"/>
<path d="M27.6042 1.35798C23.2567 5.08181 19.4617 9.45776 16.3047 14.2522C14.7262 16.6515 13.3143 19.1604 12.0567 21.7466C10.8033 24.3348 9.70017 26.9981 8.788 29.7285C6.95554 35.1853 5.77725 40.8817 5.4522 46.6534C5.10887 52.4189 5.60457 58.2677 7.13839 63.8809C7.34561 64.5777 7.53047 65.2827 7.77223 65.9693L8.11759 67.0054L8.50154 68.0273L8.69454 68.5392C8.76158 68.7079 8.83471 68.8745 8.90378 69.0431L9.33042 70.0507C9.47669 70.3859 9.63921 70.711 9.79361 71.0421C9.9541 71.3692 10.0983 71.7064 10.2751 72.0254C10.6164 72.6694 10.9455 73.3235 11.3254 73.9472C11.5123 74.2621 11.689 74.5831 11.882 74.8919L12.4773 75.8142C12.5789 75.9666 12.6723 76.123 12.7759 76.2733L13.0949 76.7223L13.7308 77.6162L14.4032 78.4837C14.6287 78.7721 14.8522 79.0627 15.0959 79.3369L15.8131 80.1719C15.9289 80.3121 16.0569 80.4461 16.1828 80.5782L16.5587 80.9784L16.9365 81.3786C17.0625 81.5127 17.1864 81.6468 17.3205 81.7707L18.1128 82.5346C18.2469 82.6605 18.3749 82.7926 18.513 82.9145L18.9254 83.2761L19.7523 84.0014L20.6136 84.688C20.9021 84.9156 21.1825 85.1532 21.4852 85.3605C23.8458 87.1076 26.3995 88.5845 29.075 89.7852L29.3249 89.903L29.5788 90.0066L30.0847 90.2179L31.1025 90.6364C31.7871 90.8903 32.4758 91.1402 33.1686 91.382C33.8674 91.5953 34.5643 91.8228 35.2672 92.0219L36.3277 92.3023L36.8579 92.4424L37.124 92.5135L37.3902 92.5704L38.4608 92.8061L38.9951 92.9239L39.2632 92.9828L39.5335 93.0296C40.2526 93.1555 40.9677 93.2936 41.6889 93.4034C42.4121 93.5029 43.1334 93.6085 43.8586 93.6979C44.5879 93.765 45.3152 93.8483 46.0466 93.899C51.8934 94.2993 57.8458 93.5801 63.4204 91.6765C66.1995 90.7095 68.8791 89.4561 71.4044 87.9446C73.9336 86.4392 76.2862 84.6474 78.4417 82.6544C82.7709 78.6787 86.2468 73.8253 88.7599 68.5494C91.2566 63.2633 92.823 57.5506 93.3349 51.7465C93.8591 45.9464 93.3857 40.0671 91.9392 34.4458C90.505 28.8225 88.1342 23.4612 85.0462 18.5794C83.5043 16.1355 81.7815 13.8114 79.9186 11.6132C78.0536 9.41307 76.0302 7.35308 73.9072 5.41295L73.1109 4.68362L72.2922 3.98274L71.4734 3.28185C71.3333 3.16403 71.2073 3.04823 71.057 2.93243L70.8213 2.75975L70.7055 2.67442L70.5796 2.60129C69.9213 2.20107 69.1798 1.96948 68.4343 1.87602C67.6866 1.78257 66.9329 1.82117 66.2036 1.95119C64.7429 2.22342 63.3899 2.86539 62.1872 3.68613C60.9886 4.51907 59.9322 5.53078 59.0038 6.63797C58.0754 7.7472 57.277 8.95394 56.5761 10.2094L56.314 10.6808L56.0703 11.1622C55.9098 11.4832 55.7371 11.8001 55.5949 12.1313L55.154 13.1125L54.7497 14.11C54.2357 15.4488 53.7726 16.8079 53.4008 18.1934C53.1997 18.8801 53.0412 19.5789 52.8726 20.2737C52.7832 20.6211 52.7182 20.9726 52.643 21.322L52.4236 22.3743L52.6654 21.3281C52.7487 20.9807 52.8238 20.6292 52.9213 20.2859C53.1062 19.5952 53.2789 18.9004 53.4983 18.2198C53.8985 16.8485 54.3922 15.5057 54.9346 14.1852L55.3592 13.2019L55.8204 12.2389C55.9687 11.9139 56.1474 11.6051 56.312 11.2902L56.5639 10.8189L56.8361 10.3598C57.5573 9.13271 58.374 7.96254 59.3065 6.89801C60.241 5.83348 61.2934 4.87459 62.4656 4.09854C63.6378 3.33671 64.94 2.75365 66.3052 2.53018C66.9837 2.42251 67.6765 2.40219 68.3469 2.50174C69.0173 2.60129 69.6654 2.82069 70.224 3.17418L70.3297 3.23919L70.4272 3.31436L70.6222 3.46469C70.7522 3.5683 70.8884 3.69629 71.0204 3.81209L71.8168 4.52313L72.6152 5.23417L73.3851 5.97366C75.4472 7.93613 77.4015 10.0103 79.1954 12.2146C80.9872 14.4188 82.6327 16.7409 84.1015 19.1645C87.0432 24.0077 89.2597 29.2877 90.5537 34.7851C91.8621 40.2784 92.2115 45.985 91.6041 51.5738C91.0129 57.1687 89.4039 62.6376 86.9234 67.6575C85.6821 70.1685 84.1929 72.5516 82.521 74.7883C82.1167 75.3571 81.6617 75.8874 81.231 76.4359C81.0156 76.7122 80.7779 76.9681 80.5524 77.2322L79.8637 78.0205C78.9109 79.0403 77.9399 80.0419 76.8977 80.9683C74.8255 82.8291 72.5989 84.5235 70.1997 85.9334C67.8085 87.3534 65.2772 88.5358 62.6525 89.452C60.0257 90.3621 57.3014 90.9939 54.5405 91.3535C51.7796 91.7172 48.9802 91.7984 46.1929 91.6319C45.496 91.5912 44.8013 91.5181 44.1044 91.4632C43.4096 91.384 42.7128 91.2885 42.016 91.2032C41.3212 91.1057 40.6325 90.9777 39.9398 90.866L39.6797 90.8233L39.4237 90.7684L38.9077 90.6628L37.8798 90.4495C35.1473 89.8339 32.4657 89.003 29.8998 87.8999C27.334 86.7988 24.8839 85.4356 22.6127 83.8165C22.3201 83.6235 22.052 83.402 21.7737 83.1928L20.9448 82.5529L20.1484 81.8784L19.7482 81.5391C19.6162 81.4274 19.4922 81.3035 19.3642 81.1856L18.5983 80.4726C18.4663 80.3568 18.3464 80.2308 18.2246 80.1048L17.8589 79.731L17.4932 79.3552C17.3733 79.2313 17.2494 79.1074 17.1356 78.9753L16.4388 78.1911C16.2031 77.9352 15.9858 77.6609 15.7684 77.3887L15.1102 76.574L14.4865 75.7289L14.1777 75.3063C14.0761 75.1641 13.9806 75.0158 13.8831 74.8716L13.3001 74C13.1071 73.7075 12.9344 73.4028 12.7495 73.1041C12.3757 72.5129 12.0507 71.8913 11.7114 71.2778C11.5367 70.9751 11.3924 70.6541 11.234 70.3412C11.0816 70.0263 10.917 69.7155 10.7728 69.3966L10.3441 68.4336C10.273 68.2731 10.1979 68.1146 10.1308 67.9521L9.93785 67.4625L9.54779 66.4833L9.1943 65.4879C8.95052 64.8296 8.75752 64.1511 8.54624 63.4807C6.9596 58.0727 6.36231 52.3722 6.59594 46.7103C6.70768 43.8783 7.01649 41.0504 7.52234 38.255C8.0221 35.4575 8.70064 32.6926 9.54983 29.9764C11.2502 24.544 13.6535 19.3291 16.6623 14.4818C19.6811 9.6406 23.3501 5.18948 27.6042 1.35798Z" fill="#CC834B"/>
<path d="M83.2503 33.6779C83.0756 33.6779 82.8562 33.4727 83.0024 33.2655C83.0451 33.2045 83.102 33.1801 83.1568 33.1801C83.2848 33.1801 83.4128 33.3081 83.427 33.4463C83.4331 33.6129 83.3478 33.6779 83.2503 33.6779Z" fill="#D18D58"/>
<path d="M66.486 43.2058C66.2767 43.2058 66.0147 42.8117 66.1467 42.6228C66.1975 42.5618 66.2503 42.5354 66.3052 42.5354C66.4982 42.5354 66.6851 42.8727 66.6648 43.0474C66.6241 43.1591 66.5571 43.2058 66.486 43.2058Z" fill="#DB9F60"/>
<path d="M89.7106 35.427C89.3653 35.427 89.1113 35.0939 89.028 34.7587C88.9427 34.4255 89.0341 34.0923 89.3795 34.0923C89.5014 34.0923 89.6558 34.135 89.8488 34.2345C90.1515 34.4864 90.4867 34.907 90.1332 35.2665C89.9829 35.3783 89.8406 35.427 89.7106 35.427Z" fill="#D18D58"/>
<path d="M79.7804 25.7325C79.3172 25.7325 79.0085 25.0296 79.5082 24.737C79.5996 24.6822 79.691 24.6598 79.7764 24.6598C80.2396 24.6598 80.5484 25.3607 80.0486 25.6553C79.9572 25.7081 79.8678 25.7325 79.7804 25.7325Z" fill="#D18D58"/>
<path d="M84.902 48.8149C84.8999 48.8149 84.8959 48.8149 84.8938 48.8149C84.4469 48.7154 84.3514 48.0572 84.7577 47.8398C84.9081 47.7626 85.0482 47.6691 85.1864 47.5696C85.4383 47.3441 85.7064 46.9764 86.0193 46.9764C86.127 46.9764 86.2428 47.0211 86.3626 47.1328C86.9254 47.8459 85.5622 48.8149 84.902 48.8149Z" fill="#D18D58"/>
<path d="M84.3453 41.8772C84.2783 41.8772 84.2153 41.8488 84.1726 41.7756C83.7115 41.3734 83.8374 40.4267 84.4205 40.4267C84.5058 40.4267 84.5972 40.447 84.7029 40.4897C84.9791 40.6989 84.6582 41.0158 84.39 41.0158C84.3575 41.0158 84.327 41.0118 84.2986 41.0036V41.0097C84.2843 41.219 84.4306 41.3957 84.5383 41.5603C84.6379 41.7228 84.4916 41.8772 84.3453 41.8772ZM84.2986 41.0016V41.0097V41.0016Z" fill="#D18D58"/>
<path d="M77.0134 40.124C76.8387 40.124 76.6722 40.0346 76.7148 39.8477C76.7494 39.7319 76.8997 39.6669 77.046 39.6669C77.1983 39.6669 77.3466 39.738 77.3466 39.8883C77.3446 40.0447 77.176 40.124 77.0134 40.124Z" fill="#DB9F60"/>
<path d="M76.5503 59.2632C76.4588 59.2632 76.3938 59.1576 76.3857 59.0519C76.3776 58.9483 76.4284 58.8427 76.5686 58.8427C76.5746 58.8427 76.5807 58.8427 76.5889 58.8427C76.7453 58.865 76.7636 59.06 76.6965 59.1758C76.6437 59.2388 76.5929 59.2632 76.5503 59.2632Z" fill="#DB9F60"/>
<path d="M61.2812 56.7299C61.1593 56.7299 61.1146 56.5876 61.1308 56.4434C61.145 56.3012 61.2161 56.159 61.3258 56.159C61.3685 56.159 61.4152 56.1813 61.468 56.2321C61.529 56.3479 61.4904 56.6039 61.399 56.6953C61.3523 56.7197 61.3137 56.7299 61.2812 56.7299Z" fill="#DB9F60"/>
<path d="M86.9965 65.5163C86.9111 65.5163 86.8279 65.494 86.7568 65.4493C86.7039 65.4716 86.6511 65.4838 86.5983 65.4838C86.2854 65.4838 85.9766 65.1161 86.2387 64.791C86.3586 64.6204 86.5576 64.5412 86.7588 64.5412C87.0859 64.5412 87.4211 64.7504 87.4251 65.1039C87.4353 65.368 87.2159 65.5163 86.9965 65.5163Z" fill="#D18D58"/>
<path d="M79.9572 63.696C79.1202 63.6656 79.4533 62.5096 79.8942 62.5096C80.0303 62.5096 80.1766 62.6193 80.3005 62.9098C80.3615 63.2186 80.3594 63.6513 79.9572 63.696Z" fill="#D18D58"/>
<path d="M72.3775 54.2087C72.3531 54.2087 72.3307 54.2067 72.3043 54.2026C71.7863 54.1254 71.8757 53.3514 72.3592 53.3514C72.3835 53.3514 72.4079 53.3555 72.4323 53.3575C72.9504 53.4367 72.8589 54.2087 72.3775 54.2087Z" fill="#DB9F60"/>
<path d="M78.596 52.616C78.5717 52.616 78.5473 52.6139 78.5229 52.6119C78.0049 52.5327 78.0943 51.7607 78.5778 51.7607C78.6001 51.7607 78.6245 51.7627 78.6509 51.7668C79.171 51.844 79.0775 52.616 78.596 52.616Z" fill="#DB9F60"/>
<path d="M70.2382 69.6952C70.092 69.6607 69.9579 69.5997 69.8482 69.4961C69.6369 69.2279 69.8583 68.8135 70.1834 68.8135C70.2057 68.8135 70.2322 68.8155 70.2565 68.8196C70.4048 68.8501 70.5572 68.8663 70.7096 68.8704C70.671 68.8684 70.6324 68.8684 70.5938 68.8684C70.6202 68.8704 70.6466 68.8724 70.671 68.8724C70.7543 68.8724 70.8396 68.8582 70.9249 68.844C71.0102 68.8298 71.0935 68.8155 71.1748 68.8155C71.187 68.8155 71.2012 68.8155 71.2154 68.8176C70.9005 69.1101 70.5714 69.4047 70.2382 69.6952Z" fill="#DB9F60"/>
<path d="M70.5714 69.7277C70.4577 69.7277 70.3459 69.7175 70.2383 69.6952C70.5714 69.4047 70.9005 69.1101 71.2154 68.8176C71.3008 68.8216 71.382 68.846 71.4572 68.907C71.7497 69.1325 71.6075 69.6221 71.2398 69.6627C71.0387 69.6891 70.803 69.7277 70.5714 69.7277Z" fill="#D18D58"/>
<path d="M73.1047 64.9373C73.1007 64.9373 73.0986 64.9373 73.0966 64.9373C72.6822 64.6366 73.1575 63.9378 73.572 63.9378C73.7101 63.9378 73.8422 64.015 73.9336 64.21C73.9743 64.3786 73.8483 64.4558 73.7061 64.4558C73.5984 64.4558 73.4786 64.4111 73.4217 64.3258L73.4176 64.3299V64.3319H73.4156C73.2266 64.4904 73.4176 64.9373 73.1047 64.9373ZM73.4217 64.3258L73.4176 64.3299L73.4217 64.3258Z" fill="#DB9F60"/>
<path d="M84.7029 55.4926C84.585 55.4926 84.4875 55.4012 84.5769 55.2306C84.6135 55.1026 84.7232 55.0437 84.8166 55.0437C84.9365 55.0437 85.032 55.1351 84.9426 55.3057C84.9081 55.4337 84.7984 55.4926 84.7029 55.4926Z" fill="#D18D58"/>
<path d="M76.5929 76.8198C76.4507 76.8198 76.3167 76.572 76.3715 76.4155C76.4162 76.3424 76.467 76.314 76.5158 76.314C76.66 76.314 76.7941 76.5618 76.7372 76.7162C76.6925 76.7894 76.6417 76.8198 76.5929 76.8198Z" fill="#D18D58"/>
<path d="M69.5211 60.1774C69.3342 60.1774 69.0904 59.9194 69.2773 59.7751C69.3058 59.7589 69.3383 59.7487 69.3728 59.7487C69.5475 59.7487 69.7751 59.9661 69.6511 60.1205C69.6166 60.1611 69.5699 60.1774 69.5211 60.1774Z" fill="#DB9F60"/>
<path d="M56.7995 68.2548C56.44 68.2447 56.6147 67.8221 56.8483 67.8221C56.893 67.8221 56.9377 67.8363 56.9844 67.8709C57.1591 68.0131 56.9824 68.2447 56.7995 68.2548Z" fill="#DB9F60"/>
<path d="M48.6246 52.2828C48.5941 52.1203 48.8501 51.9232 49.0472 51.9232C49.0919 51.9232 49.1366 51.9354 49.1731 51.9618C49.2036 51.9923 49.2239 52.0228 49.2361 52.0512C49.1366 52.1121 49.0391 52.1711 48.9334 52.1995C48.9741 52.1832 49.0167 52.167 49.0614 52.1487C48.9192 52.2056 48.7729 52.2483 48.6246 52.2828Z" fill="#D18D58"/>
<path d="M58.309 82.2847C58.051 82.2847 57.795 82.0673 57.7848 81.8012C57.409 81.5899 57.4842 80.8809 58.0185 80.8809C58.0286 80.8809 58.0368 80.8809 58.0469 80.8809C58.0489 80.8809 58.049 80.8809 58.049 80.8809C58.6117 80.8809 58.9936 81.5838 58.693 82.0551C58.5934 82.2177 58.4512 82.2847 58.309 82.2847Z" fill="#D18D58"/>
<path d="M56.119 87.6561C56.0946 87.6561 56.0702 87.6541 56.0438 87.6541C55.6395 87.522 55.542 87.2031 55.6152 86.9126C55.4405 86.7358 55.3856 86.4473 55.6233 86.2279C55.8386 86.0756 56.0398 86.0126 56.2145 86.0126C56.6614 86.0126 56.956 86.423 56.9783 86.8333C57.0027 87.2457 56.7549 87.6561 56.119 87.6561Z" fill="#D18D58"/>
<path d="M55.1418 74.4815C55.0321 74.4815 54.9204 74.4389 54.8188 74.3271C54.4145 73.7319 55.0402 73.3174 55.5034 73.3174C55.8508 73.3174 56.1088 73.549 55.7777 74.1138C55.6131 74.2926 55.3775 74.4815 55.1418 74.4815Z" fill="#DB9F60"/>
<path d="M61.787 85.5088C61.6306 85.5088 61.4762 85.4336 61.3827 85.2528C61.1857 84.8749 61.5189 84.5458 61.8459 84.5458C62.0024 84.5458 62.1568 84.621 62.2502 84.7998C62.4473 85.1797 62.1121 85.5088 61.787 85.5088Z" fill="#D18D58"/>
<path d="M62.0552 77.4618C62.0633 77.4435 62.0714 77.4273 62.0795 77.409L62.0836 77.4049C62.0714 77.4232 62.0653 77.4415 62.0552 77.4618Z" fill="#D18D58"/>
<path d="M69.3525 84.9948C69.3261 84.9948 69.2997 84.9928 69.2753 84.9867C69.257 84.9887 69.2367 84.9907 69.2184 84.9907C68.9624 84.9907 68.7044 84.8201 68.7227 84.491C68.7308 84.432 68.745 84.3406 68.7755 84.2939C68.8649 84.0826 69.0863 83.9648 69.3078 83.9648C69.4134 83.9648 69.5191 83.9912 69.6085 84.046C70.1712 84.4259 69.7567 84.9948 69.3525 84.9948ZM68.9279 84.6616C68.934 84.6799 68.9421 84.7002 68.9502 84.7185L68.9685 84.7469C68.9543 84.7205 68.9401 84.6921 68.9279 84.6616Z" fill="#D18D58"/>
<path d="M64.5133 65.7662C64.3569 65.7662 64.2025 65.691 64.1091 65.5122C63.912 65.1323 64.2452 64.8032 64.5723 64.8032C64.7287 64.8032 64.8831 64.8764 64.9786 65.0572C65.1756 65.4371 64.8404 65.7662 64.5133 65.7662Z" fill="#DB9F60"/>
<path d="M46.2497 89.0355C46.1238 89.0355 45.9978 88.9929 45.9044 88.9136C45.557 88.8486 45.2888 88.3854 45.6321 88.0705C45.75 87.9588 45.8962 87.908 46.0445 87.908C46.398 87.908 46.7515 88.1924 46.7292 88.5845C46.717 88.8913 46.4854 89.0355 46.2497 89.0355Z" fill="#D18D58"/>
<path d="M62.3233 89.5658C62.366 89.5048 62.4127 89.4804 62.4615 89.4804C62.4838 89.4804 62.5062 89.4865 62.5265 89.4947C62.4595 89.519 62.3924 89.5414 62.3233 89.5658Z" fill="#D18D58"/>
<path d="M62.6443 90.1773C62.624 90.1773 62.6037 90.1752 62.5813 90.1732C62.4391 90.098 62.2705 89.7791 62.2928 89.6186C62.303 89.5983 62.3132 89.58 62.3233 89.5658C62.3924 89.5414 62.4594 89.519 62.5265 89.4947C62.6362 89.5414 62.7418 89.6856 62.7926 89.8278C62.8536 90.0025 62.8332 90.1773 62.6443 90.1773Z" fill="#C77A43"/>
<path d="M51.2514 88.2778C51.1884 88.2778 51.1275 88.2473 51.0909 88.1762C51.0117 88.0238 51.1458 87.8918 51.2758 87.8918C51.3388 87.8918 51.3997 87.9222 51.4363 87.9954C51.5155 88.1457 51.3834 88.2778 51.2514 88.2778Z" fill="#D18D58"/>
<path d="M65.6388 73.2159C65.5596 73.1549 65.5291 73.0533 65.6327 72.9375C65.6937 72.8868 65.7668 72.8664 65.8379 72.8664C65.9171 72.8664 65.9964 72.8928 66.0553 72.9335C65.9171 73.0269 65.779 73.1224 65.6388 73.2159Z" fill="#DB9F60"/>
<path d="M65.8582 73.2849C65.777 73.2849 65.6957 73.2606 65.6388 73.2159C65.779 73.1224 65.9172 73.0269 66.0553 72.9335C66.1955 73.029 66.2341 73.1996 65.9517 73.2727C65.9212 73.2809 65.8907 73.2849 65.8582 73.2849Z" fill="#D18D58"/>
<path d="M40.5553 80.1455C40.2201 80.1455 40.3846 79.6701 40.6203 79.601C40.6345 79.601 40.6447 79.601 40.6549 79.601C40.9921 79.601 40.8255 80.0744 40.5898 80.1434C40.5797 80.1434 40.5675 80.1455 40.5553 80.1455Z" fill="#D18D58"/>
<path d="M74.2932 79.4873C74.2302 79.4873 74.1672 79.4568 74.1307 79.3857C74.0494 79.2333 74.1855 79.1013 74.3155 79.1013C74.3765 79.1013 74.4374 79.1317 74.4781 79.2049C74.5553 79.3552 74.4232 79.4873 74.2932 79.4873Z" fill="#D18D58"/>
<path d="M51.1742 62.3715C51.1722 62.3715 51.1681 62.3715 51.164 62.3715C50.8898 62.3552 50.902 61.7843 51.1681 61.7843C51.1864 61.7843 51.2087 61.7884 51.2311 61.7945C51.4464 61.8697 51.4363 62.3715 51.1742 62.3715Z" fill="#DB9F60"/>
<path d="M25.6844 60.7604C25.465 60.7604 25.3898 60.2891 25.7047 60.2546C25.7148 60.2546 25.721 60.2546 25.7291 60.2546C25.9465 60.2546 25.9749 60.5451 25.8469 60.6832C25.788 60.7381 25.7331 60.7604 25.6844 60.7604Z" fill="#DB9F60"/>
<path d="M7.93269 54.5805C7.62796 54.5805 7.74784 53.9344 8.01803 53.906C8.02413 53.906 8.02817 53.906 8.03223 53.906C8.3715 53.906 8.21711 54.4342 8.0424 54.5581C7.99974 54.5744 7.96317 54.5805 7.93269 54.5805Z" fill="#D18D58"/>
<path d="M36.9493 70.4062C36.8193 70.4062 36.6893 70.3636 36.5938 70.2721C36.5572 70.2823 36.5186 70.2864 36.4821 70.2864C36.0717 70.2864 35.706 69.7358 36.1164 69.3762C36.2606 69.234 36.4495 69.1711 36.6446 69.1711C37.0143 69.1711 37.3942 69.4108 37.4734 69.7947C37.5588 70.1787 37.25 70.4062 36.9493 70.4062Z" fill="#DB9F60"/>
<path d="M39.249 76.0966C39.0093 76.0966 38.8244 75.9564 38.7127 75.7655C38.4506 75.7573 38.1946 75.5786 38.2129 75.2352C38.3246 74.6542 38.672 74.4287 39.0296 74.4287C39.7142 74.4287 40.4375 75.2637 39.5862 76.0113C39.4644 76.0722 39.3526 76.0966 39.249 76.0966Z" fill="#DB9F60"/>
<path d="M28.8597 66.7698C28.8454 66.7698 28.8333 66.7698 28.819 66.7677C27.8561 66.5686 28.4188 65.3314 28.9348 65.3314C28.9653 65.3314 28.9938 65.3355 29.0242 65.3436C29.01 65.3883 29.0019 65.4371 29.0019 65.4858C29.0019 65.5996 29.0405 65.7174 29.1421 65.8271C29.2193 65.9104 29.3046 65.9592 29.394 65.9815C29.3858 66.3411 29.2802 66.7698 28.8597 66.7698Z" fill="#DB9F60"/>
<path d="M36.6466 63.822C36.6385 63.8017 36.6303 63.7793 36.6242 63.759V63.7509C36.6283 63.7773 36.6385 63.7996 36.6466 63.822Z" fill="#DB9F60"/>
<path d="M47.2838 64.2608L47.2472 64.2547C47.2269 64.2466 47.2086 64.2364 47.1903 64.2283C47.2228 64.2405 47.2553 64.2527 47.2838 64.2608ZM47.1903 64.2283C47.17 64.2181 47.1497 64.21 47.1294 64.1978C47.1497 64.208 47.17 64.2181 47.1903 64.2283Z" fill="#DB9F60"/>
<path d="M21.7879 53.8532C21.733 53.8532 21.6761 53.8451 21.6152 53.8247C21.0423 53.6338 21.2536 52.809 21.7696 52.809C21.8244 52.809 21.8813 52.8191 21.9422 52.8394C22.5151 53.0284 22.3039 53.8532 21.7879 53.8532Z" fill="#DB9F60"/>
<path d="M29.5626 53.2295C29.5078 53.2295 29.4509 53.2214 29.3899 53.2011C28.815 53.0101 29.0263 52.1853 29.5423 52.1853C29.5992 52.1853 29.6561 52.1954 29.717 52.2158C30.2899 52.4047 30.0786 53.2295 29.5626 53.2295Z" fill="#DB9F60"/>
<path d="M16.8349 72.1249C16.3392 72.1249 15.8009 71.9502 15.5205 71.6292C15.3336 71.2879 15.6262 70.8735 15.9817 70.8735C16.0365 70.8735 16.0914 70.8816 16.1462 70.9019C16.2844 70.9568 16.4266 70.9974 16.5708 71.0299C16.5769 71.0299 16.581 71.0299 16.585 71.0299C17.1783 71.0299 18.1168 71.2392 17.5196 71.9868C17.3286 72.0802 17.0889 72.1249 16.8349 72.1249Z" fill="#D18D58"/>
<path d="M50.7435 78.2988C50.6887 78.2988 50.6298 78.2886 50.5708 78.2683C49.998 78.0794 50.2092 77.2546 50.7252 77.2546C50.778 77.2546 50.837 77.2627 50.8979 77.283C51.4708 77.474 51.2595 78.2988 50.7435 78.2988Z" fill="#DB9F60"/>
<path d="M41.565 85.4275C41.3415 85.4275 41.114 85.0923 41.4431 84.9846C41.4573 84.9826 41.4735 84.9806 41.4878 84.9806C41.6665 84.9806 41.8656 85.1492 41.7458 85.332C41.695 85.4011 41.632 85.4275 41.565 85.4275Z" fill="#D18D58"/>
<path d="M46.3269 73.1184C46.0425 73.1184 45.5367 72.8685 45.8861 72.6186C45.9125 72.6105 45.945 72.6064 45.9816 72.6064C46.266 72.6064 46.7718 72.8563 46.4224 73.1062C46.396 73.1143 46.3635 73.1184 46.3269 73.1184Z" fill="#DB9F60"/>
<path d="M36.2687 80.0764C36.2464 80.0764 36.224 80.0723 36.1997 80.0642C35.9701 79.987 36.0554 79.6579 36.2606 79.6579C36.2829 79.6579 36.3053 79.662 36.3297 79.6701C36.5592 79.7453 36.4759 80.0764 36.2687 80.0764Z" fill="#D18D58"/>
<path d="M21.4689 66.0607C21.3876 65.9673 21.3064 65.8759 21.2231 65.7824C21.3226 65.8312 21.408 65.9206 21.4689 66.0607Z" fill="#DB9F60"/>
<path d="M20.4267 66.847C20.2988 66.847 20.1646 66.7373 20.2175 66.5788C20.2175 66.1359 20.6461 65.7357 21.0199 65.7357C21.091 65.7357 21.1601 65.752 21.2231 65.7824C21.3064 65.8759 21.3877 65.9673 21.4689 66.0607C21.4791 66.0851 21.4892 66.1115 21.5014 66.142C21.5136 66.3228 21.3937 66.398 21.2515 66.398C21.1012 66.398 20.9244 66.3106 20.8655 66.1745L20.8615 66.1765C20.6989 66.3025 20.6624 66.5219 20.6096 66.7088C20.5811 66.8063 20.5039 66.847 20.4267 66.847ZM20.8655 66.1745H20.8635H20.8655Z" fill="#D18D58"/>
<path d="M36.2423 57.9305C36.0778 57.9305 35.9417 57.7924 36.1001 57.5872C36.1591 57.4612 36.2728 57.4084 36.3744 57.4084C36.541 57.4084 36.6791 57.5465 36.5186 57.7517C36.4597 57.8777 36.3459 57.9305 36.2423 57.9305Z" fill="#DB9F60"/>
<path d="M22.1109 81.791C21.9016 81.791 21.7574 81.3482 21.9585 81.2059C22.0012 81.1775 22.0438 81.1673 22.0784 81.1673C22.2815 81.1673 22.3648 81.5269 22.2775 81.6955C22.2206 81.7626 22.1637 81.791 22.1109 81.791Z" fill="#D18D58"/>
<path d="M47.3264 56.3825C47.3041 56.3825 47.2818 56.3784 47.2574 56.3723C47.0278 56.2951 47.1111 55.966 47.3183 55.966C47.3407 55.966 47.363 55.97 47.3874 55.9761C47.617 56.0533 47.5316 56.3825 47.3264 56.3825Z" fill="#DB9F60"/>
<path d="M17.2291 60.3501C17.1275 60.1855 17.03 60.023 16.9325 59.8564C17.1437 59.8666 17.3936 60.1794 17.2291 60.3501Z" fill="#DB9F60"/>
<path d="M17.0909 60.4069C16.8532 60.4069 16.5729 60.0128 16.8411 59.8727C16.8675 59.8605 16.8918 59.8564 16.9203 59.8564C16.9243 59.8564 16.9264 59.8564 16.9325 59.8564C17.03 60.023 17.1275 60.1855 17.2291 60.3501C17.225 60.3541 17.221 60.3562 17.2169 60.3602C17.1783 60.3927 17.1356 60.4069 17.0909 60.4069Z" fill="#D18D58"/>
<path d="M15.7664 37.8669C15.616 37.8669 15.5652 37.745 15.5896 37.6252C15.6099 37.5033 15.7034 37.3814 15.8375 37.3814C15.8679 37.3814 15.9025 37.3895 15.937 37.4037C16.1605 37.5033 16.0406 37.7958 15.8517 37.8568C15.8192 37.8629 15.7907 37.8669 15.7664 37.8669Z" fill="#DB9F60"/>
<path d="M21.2068 52.1223C20.9732 52.1223 20.7314 51.9781 20.6603 51.7485C20.2012 51.6266 20.0875 50.8404 20.6786 50.7124C20.7416 50.6941 20.8046 50.686 20.8655 50.686C21.3856 50.686 21.8447 51.2426 21.6822 51.7587C21.605 52.0146 21.4079 52.1223 21.2068 52.1223Z" fill="#DB9F60"/>
<path d="M20.4877 58.347C20.0265 58.347 19.8234 58.03 19.8173 57.6989C19.5877 57.5587 19.4495 57.2723 19.6364 56.9777C19.8741 56.6811 20.1321 56.5633 20.3719 56.5633C21.2028 56.5633 21.8082 57.9874 20.5405 58.3449C20.5222 58.347 20.506 58.347 20.4877 58.347Z" fill="#DB9F60"/>
<path d="M15.744 44.8453C15.6587 44.8453 15.5693 44.8189 15.4738 44.7579C14.8136 44.185 15.5774 43.4862 16.0873 43.4862C16.3697 43.4862 16.5749 43.7015 16.4185 44.2683C16.2763 44.5365 16.0406 44.8453 15.744 44.8453Z" fill="#DB9F60"/>
<path d="M25.7514 54.5236C25.6255 54.5236 25.4954 54.4748 25.3857 54.3529C25.0343 53.971 25.402 53.4651 25.8002 53.4651C25.9261 53.4651 26.0562 53.5159 26.1659 53.6358C26.5173 54.0198 26.1496 54.5236 25.7514 54.5236Z" fill="#DB9F60"/>
<path d="M23.9169 46.0155C23.9189 45.9972 23.923 45.9769 23.9251 45.9565L23.9291 45.9505C23.923 45.9748 23.921 45.9931 23.9169 46.0155Z" fill="#DB9F60"/>
<path d="M33.3453 51.9131C33.1239 51.9131 32.9065 51.7891 32.8496 51.5088C32.8395 51.4438 32.8313 51.3422 32.8496 51.2873C32.8903 50.9826 33.1848 50.7713 33.4835 50.7713C33.5383 50.7713 33.5952 50.7794 33.65 50.7957C34.3895 51.0496 34.032 51.8379 33.5647 51.8724C33.4936 51.8988 33.4205 51.9131 33.3453 51.9131ZM33.1097 51.6286C33.1239 51.6469 33.1361 51.6632 33.1483 51.6815L33.1767 51.7079C33.1543 51.6835 33.132 51.6571 33.1097 51.6286Z" fill="#DB9F60"/>
<path d="M15.8578 29.8078C15.7521 29.8078 15.6445 29.7712 15.5469 29.6899H15.551C15.8151 29.6432 15.9329 29.438 15.9309 29.2308C15.9309 29.0581 15.8476 28.8834 15.6993 28.7961C15.7643 28.7676 15.8334 28.7514 15.9045 28.7514C16.0304 28.7514 16.1605 28.8022 16.2722 28.922C16.6216 29.304 16.2559 29.8078 15.8578 29.8078Z" fill="#DB9F60"/>
<path d="M23.0962 33.1212C22.9702 33.1212 22.8402 33.0704 22.7285 32.9485C22.379 32.5666 22.7447 32.0608 23.1449 32.0608C23.2709 32.0608 23.3989 32.1116 23.5106 32.2334C23.86 32.6154 23.4944 33.1212 23.0962 33.1212Z" fill="#DB9F60"/>
<path d="M10.4416 62.5502C10.3624 62.5502 10.2832 62.534 10.2141 62.4974C10.204 62.4995 10.1938 62.4995 10.1836 62.4995C9.81594 62.4995 9.44213 62.1013 9.70217 61.6929C9.83219 61.4837 10.0597 61.3821 10.2872 61.3821C10.5513 61.3821 10.8195 61.5162 10.9414 61.7722C11.175 62.215 10.7992 62.5502 10.4416 62.5502Z" fill="#D18D58"/>
<path d="M29.5077 65.9957C29.4712 65.9957 29.4305 65.9917 29.394 65.9815C29.3046 65.9592 29.2193 65.9104 29.1421 65.8271C29.0405 65.7174 29.0019 65.5996 29.0019 65.4858C29.0019 65.4371 29.01 65.3883 29.0242 65.3436C29.0933 65.1181 29.3188 64.9393 29.5565 64.9393C29.6825 64.9393 29.8125 64.9901 29.9222 65.11C30.2716 65.4919 29.9079 65.9957 29.5077 65.9957Z" fill="#DB9F60"/>
<path d="M17.6638 67.7571C17.4038 67.7571 17.2534 67.2695 17.611 67.2634C17.8284 67.2817 17.9949 67.6129 17.7613 67.7327C17.7288 67.749 17.6963 67.7571 17.6638 67.7571Z" fill="#D18D58"/>
<path d="M28.0125 59.1616C27.7627 59.1108 27.2853 58.5156 27.7769 58.4607C28.0247 58.5115 28.5021 59.1047 28.0125 59.1616Z" fill="#DB9F60"/>
<path d="M15.5855 60.348C15.5348 60.348 15.484 60.3277 15.4393 60.279C15.2991 60.1266 15.4454 59.9234 15.6059 59.9234C15.6546 59.9234 15.7074 59.9438 15.7521 59.9925C15.8923 60.1449 15.746 60.348 15.5855 60.348Z" fill="#D18D58"/>
<path d="M9.05818 40.707C8.87534 40.707 8.66 40.4754 8.67829 40.2743H8.67017C8.46498 40.3048 8.32479 40.4815 8.18665 40.6237C8.14398 40.6644 8.09522 40.6806 8.05053 40.6806C7.88597 40.6806 7.74379 40.4572 7.90021 40.3109C8.05664 40.0305 8.39185 39.8782 8.69252 39.8782C9.04804 39.8782 9.3548 40.0915 9.26135 40.5587C9.21259 40.6644 9.13741 40.707 9.05818 40.707ZM8.6803 40.2723L8.67218 40.2743L8.6803 40.2723Z" fill="#D18D58"/>
<path d="M26.5742 40.6075C26.4787 40.6075 26.3934 40.5689 26.367 40.447C26.3528 40.2316 26.5194 40.1484 26.6859 40.1484C26.9318 40.1484 27.1776 40.3332 26.82 40.5526C26.7469 40.579 26.6555 40.6075 26.5742 40.6075Z" fill="#DB9F60"/>
<path d="M35.1758 58.0768C35.127 58.0768 35.0742 58.0585 35.0295 58.0097C34.8913 57.8553 35.0376 57.6542 35.1961 57.6542C35.2469 57.6542 35.2977 57.6745 35.3424 57.7233C35.4825 57.8756 35.3363 58.0768 35.1758 58.0768Z" fill="#DB9F60"/>
<path d="M37.2235 44.7295C37.1748 44.7295 37.122 44.7092 37.0773 44.6604C36.9371 44.5081 37.0834 44.3049 37.2439 44.3049C37.2947 44.3049 37.3454 44.3252 37.3901 44.374C37.5303 44.5263 37.382 44.7295 37.2235 44.7295Z" fill="#DB9F60"/>
<path d="M8.27805 33.2797C8.23538 33.2797 8.19477 33.2655 8.1582 33.2411C8.21102 33.0542 8.25976 32.8693 8.31258 32.6824C8.50151 32.7982 8.57058 33.2228 8.31664 33.2756C8.30445 33.2797 8.29227 33.2797 8.27805 33.2797Z" fill="#C77A43"/>
<path d="M21.0382 11.9972C20.9955 11.9972 20.9488 11.9911 20.9021 11.9789C19.7157 11.5117 20.3719 10.2663 21.1438 10.2663C21.4079 10.2663 21.6862 10.4126 21.9077 10.7864C22.0275 11.2151 21.8041 11.4873 21.5075 11.5929C21.4587 11.8083 21.2921 11.9972 21.0382 11.9972Z" fill="#DB9F60"/>
<path d="M28.433 19.6846C28.3924 19.6846 28.3457 19.6785 28.2969 19.6663C27.7951 19.5464 27.6204 18.8598 27.9902 18.5022C28.106 18.3803 28.2319 18.3295 28.3538 18.3295C28.6585 18.3295 28.9247 18.6485 28.882 18.9492C29.0039 19.2539 28.8129 19.6846 28.433 19.6846Z" fill="#DB9F60"/>
<path d="M13.0929 33.426C12.7292 33.426 12.4407 32.9953 12.6439 32.658C12.7211 32.5341 12.7861 32.4021 12.845 32.268C12.9222 31.8434 13.1477 31.2502 13.5073 31.2502C13.6373 31.2502 13.7856 31.3274 13.9502 31.5204C14.1147 32.1258 13.7836 33.0786 13.2351 33.4016C13.1863 33.4178 13.1396 33.426 13.0929 33.426Z" fill="#DB9F60"/>
<path d="M31.1574 10.8189C31.0721 10.8189 30.9969 10.764 30.9786 10.6239C30.9806 10.4817 31.1046 10.3313 31.2366 10.3313C31.2833 10.3313 31.3301 10.3496 31.3727 10.3923C31.5474 10.5792 31.3321 10.8189 31.1574 10.8189Z" fill="#DB9F60"/>
<path d="M25.0627 14.9267C24.9246 14.9267 24.7824 14.7824 24.8718 14.624C24.9104 14.5509 24.9733 14.5224 25.0383 14.5224C25.1765 14.5224 25.3187 14.6646 25.2313 14.8231C25.1907 14.8962 25.1277 14.9267 25.0627 14.9267Z" fill="#DB9F60"/>
<path d="M24.0124 29.0297C23.923 29.0297 23.8356 29.0053 23.7767 28.9566C23.5979 28.7331 23.8173 28.5949 24.0327 28.5949C24.1221 28.5949 24.2094 28.6193 24.2683 28.6701C24.4451 28.8915 24.2257 29.0297 24.0124 29.0297Z" fill="#DB9F60"/>
<path d="M26.5092 12.4645C26.2593 12.4645 26.0013 12.2776 26.0643 11.9606C26.1151 11.6681 26.3873 11.4974 26.6575 11.4974C26.8383 11.4974 27.017 11.5746 27.1268 11.7412C27.3604 12.0764 27.0475 12.4198 26.7367 12.4198C26.7286 12.4198 26.7204 12.4198 26.7103 12.4198C26.6493 12.4502 26.5803 12.4645 26.5092 12.4645Z" fill="#DB9F60"/>
<path d="M33.9812 14.1872C33.7963 14.1872 33.6115 13.915 33.8553 13.8114C33.8735 13.8053 33.8939 13.8032 33.9121 13.8032C34.0726 13.8032 34.2412 13.98 34.1153 14.1263C34.0747 14.1689 34.03 14.1872 33.9812 14.1872Z" fill="#DB9F60"/>
<path d="M30.1172 9.12865C30.0928 9.12865 30.0664 9.12256 30.04 9.11037C29.8612 9.02504 29.9547 8.77516 30.1131 8.77516C30.1395 8.77516 30.166 8.78126 30.1904 8.79345C30.3691 8.87877 30.2777 9.12865 30.1172 9.12865Z" fill="#DB9F60"/>
<path d="M78.1003 16.688C77.9317 16.688 77.757 16.6047 77.6635 16.4646C77.3527 16.3142 77.2207 15.8084 77.6229 15.6012C77.7103 15.5544 77.8017 15.5321 77.8931 15.5321C78.2953 15.5321 78.6671 15.9486 78.5249 16.3671C78.4558 16.5926 78.2811 16.688 78.1003 16.688Z" fill="#D6925B"/>
<path d="M81.1822 23.9752C81.1781 23.9752 81.1741 23.9752 81.17 23.9752C80.8978 23.9529 80.9323 23.5059 81.1538 23.5059C81.1883 23.5059 81.2248 23.5161 81.2655 23.5405C81.4219 23.6502 81.4077 23.9752 81.1822 23.9752Z" fill="#D6925B"/>
<path d="M82.8867 17.2447C82.8196 17.2345 82.7607 17.1878 82.7424 17.1025C82.7363 17.074 82.7363 17.0476 82.7404 17.0232C82.7891 17.0964 82.8379 17.1715 82.8867 17.2447Z" fill="#D6925B"/>
<path d="M82.9232 17.2467C82.9111 17.2467 82.8989 17.2467 82.8867 17.2447C82.8379 17.1715 82.7891 17.0964 82.7404 17.0232C82.7587 16.9298 82.8501 16.8749 82.9374 16.8749C83.0167 16.8749 83.0939 16.9217 83.1162 17.0212C83.1467 17.1614 83.033 17.2467 82.9232 17.2467Z" fill="#CC7E45"/>
<path d="M74.8234 6.8005C74.7848 6.78018 74.7584 6.7558 74.7462 6.72533C74.7727 6.74971 74.797 6.77612 74.8234 6.8005Z" fill="#CC7E45"/>
<path d="M90.6614 45.9444C90.5476 45.9444 90.4197 45.922 90.2774 45.8712C89.8975 45.6254 89.9117 45.274 90.0865 45.0159C89.991 44.7945 90.0397 44.5121 90.3323 44.3943C90.4481 44.3618 90.5558 44.3455 90.6553 44.3455C91.1571 44.3455 91.4009 44.7457 91.3989 45.1439C91.3928 45.5441 91.1449 45.9444 90.6614 45.9444Z" fill="#D6925B"/>
<path d="M88.5587 38.4236C88.445 38.4236 88.3211 38.4114 88.189 38.387C87.805 38.1818 87.7583 37.7918 87.8924 37.422C87.8355 37.2636 87.868 37.0767 88.057 36.9121C88.1687 36.841 88.2743 36.7861 88.3759 36.7415C88.5486 36.6033 88.7416 36.5119 88.9305 36.5078C89.028 36.5241 89.1032 36.5688 89.1662 36.6236C90.0296 36.843 89.8813 38.4236 88.5587 38.4236Z" fill="#D6925B"/>
<path d="M80.9933 43.7584C80.8043 43.7584 80.6134 43.6609 80.5281 43.4984C80.2396 43.3155 80.1583 42.8056 80.5748 42.639C80.6479 42.6106 80.7231 42.5964 80.7942 42.5964C81.168 42.5964 81.5113 42.956 81.4422 43.348C81.4036 43.6365 81.2005 43.7584 80.9933 43.7584Z" fill="#E0A564"/>
<path d="M85.1396 25.9275C85.0746 25.9275 84.9995 25.9174 84.9101 25.897C84.4489 25.5395 83.9288 24.1235 84.7415 23.9122C84.7618 23.9082 84.778 23.9082 84.7983 23.9082C85.032 23.9082 85.2514 24.091 85.2737 24.3287C85.2819 24.4648 85.3062 24.5989 85.3347 24.733C85.546 25.1758 85.7308 25.9275 85.1396 25.9275Z" fill="#D6925B"/>
<path d="M83.3499 51.2975C83.3397 51.2975 83.3296 51.2975 83.3174 51.2955C83.0553 51.2487 83.1203 50.8282 83.3295 50.8282C83.3681 50.8282 83.4088 50.8424 83.4534 50.8729C83.5957 50.9928 83.555 51.2975 83.3499 51.2975Z" fill="#D6925B"/>
<path d="M85.7085 44.7742C85.6211 44.7742 85.5378 44.7234 85.5236 44.6117C85.5074 44.4776 85.613 44.4044 85.7166 44.4044C85.804 44.4044 85.8893 44.4552 85.9035 44.567C85.9198 44.699 85.8141 44.7742 85.7085 44.7742Z" fill="#D6925B"/>
<path d="M78.7179 33.6677C78.7118 33.6677 78.7057 33.6677 78.6996 33.6677C78.3482 33.5702 78.6529 33.1842 78.8967 33.1842C78.9028 33.1842 78.9089 33.1842 78.915 33.1842C79.2644 33.2817 78.9597 33.6677 78.7179 33.6677Z" fill="#E0A564"/>
<path d="M91.3907 51.9801C91.2648 51.9801 91.2018 51.8501 91.2099 51.7221C91.218 51.5921 91.2972 51.4641 91.4537 51.4641C91.4618 51.4641 91.4699 51.4641 91.4801 51.4661C91.537 51.4702 91.5796 51.4925 91.6081 51.523C91.606 51.5392 91.606 51.5575 91.604 51.5738C91.5918 51.6855 91.5796 51.7952 91.5654 51.907C91.5573 51.9151 91.5492 51.9232 91.539 51.9293C91.4821 51.9638 91.4334 51.9801 91.3907 51.9801Z" fill="#D6925B"/>
<path d="M91.5655 51.907C91.5797 51.7952 91.5919 51.6855 91.6041 51.5738C91.6061 51.5575 91.6061 51.5392 91.6081 51.523C91.7016 51.6185 91.6711 51.8054 91.5655 51.907Z" fill="#CC7E45"/>
<path d="M74.5979 42.1007C74.407 42.1007 74.3745 41.9321 74.4232 41.7634C74.474 41.5928 74.6081 41.4262 74.7523 41.4262C74.7584 41.4262 74.7625 41.4262 74.7686 41.4262C75.1383 41.4831 74.8661 42.0032 74.6609 42.0946C74.6365 42.0986 74.6162 42.1007 74.5979 42.1007Z" fill="#E0A564"/>
<path d="M88.8838 44.1688C88.8005 44.1688 88.7111 44.1464 88.6197 44.0957C88.1077 43.8031 88.4145 43.0839 88.8879 43.0839C88.9732 43.0839 89.0606 43.1063 89.152 43.1591C89.6639 43.4496 89.3572 44.1688 88.8838 44.1688Z" fill="#D6925B"/>
<path d="M80.4651 61.7843C79.7276 61.7843 78.5615 61.3252 78.8642 60.5695C78.9597 60.3968 79.1507 60.2952 79.3416 60.2952C79.431 60.2952 79.5204 60.3176 79.5996 60.3663C79.7297 60.4496 79.8678 60.5187 80.006 60.5817C80.6114 60.6995 81.5418 61.1038 80.7779 61.7478C80.6906 61.7722 80.5829 61.7843 80.4651 61.7843Z" fill="#D6925B"/>
<path d="M84.8187 57.1098C84.6724 57.1098 84.5221 56.9554 84.6176 56.7888C84.6968 56.3825 85.1234 56.0838 85.4871 56.0838C85.743 56.0838 85.9665 56.2342 86.0112 56.6039C85.9909 56.7603 85.8934 56.8213 85.7776 56.8213C85.6049 56.8213 85.3956 56.6831 85.3591 56.5104L85.3509 56.5125C85.162 56.6059 85.0807 56.8213 84.9914 57.0021C84.9487 57.0772 84.8837 57.1098 84.8187 57.1098ZM85.3591 56.5084L85.353 56.5125L85.3591 56.5084Z" fill="#D6925B"/>
<path d="M83.4839 72.6552C83.3478 72.6552 83.2808 72.4906 83.2848 72.3281C83.2869 72.1656 83.358 72.003 83.4961 72.003C83.5429 72.003 83.5997 72.0233 83.6647 72.0701C83.7663 72.2021 83.75 72.454 83.6546 72.5881C83.5896 72.6348 83.5327 72.6552 83.4839 72.6552Z" fill="#D6925B"/>
<path d="M82.7242 49.8815C82.4662 49.8815 82.2203 49.3777 82.5393 49.2822C82.5535 49.2802 82.5677 49.2781 82.5819 49.2781C82.8196 49.2781 83.0655 49.7149 82.8217 49.8551C82.7892 49.8734 82.7567 49.8815 82.7242 49.8815Z" fill="#D6925B"/>
<path d="M68.4931 80.8951C68.3408 80.8951 68.1397 80.7285 68.3001 80.5518C68.3327 80.5213 68.3713 80.5071 68.4078 80.5071C68.5013 80.5071 68.5947 80.5883 68.6293 80.6757C68.6597 80.8342 68.5846 80.8951 68.4931 80.8951Z" fill="#D6925B"/>
<path d="M79.4168 77.025C79.24 77.025 79.0714 76.9275 79.0206 76.7C78.8947 76.2876 79.2949 75.8548 79.691 75.8548C79.8007 75.8548 79.9104 75.8873 80.01 75.9645C80.3046 76.1819 80.1502 76.6086 79.8617 76.7061C79.8129 76.9052 79.6118 77.025 79.4168 77.025Z" fill="#D6925B"/>
<path d="M73.826 81.1572C73.5578 81.1572 73.314 80.9032 73.2246 80.6493C73.1373 80.3954 73.1982 80.1414 73.5416 80.1414C73.6188 80.1414 73.7122 80.1556 73.8199 80.1841C74.1023 80.3303 74.4375 80.6046 74.2221 80.9479C74.0921 81.0983 73.958 81.1572 73.826 81.1572Z" fill="#D6925B"/>
<path d="M81.6718 72.9843C81.3366 72.9843 81.0461 72.5353 81.363 72.2407C81.4524 72.1574 81.5479 72.1229 81.6413 72.1229C81.9745 72.1229 82.265 72.5739 81.9481 72.8685C81.8607 72.9497 81.7632 72.9843 81.6718 72.9843Z" fill="#D6925B"/>
<path d="M75.3821 74.1219C75.3293 74.1219 75.2724 74.1158 75.2074 74.1016C75.1932 74.1016 75.179 74.0996 75.1648 74.0996L75.1871 74.1077L75.1465 74.0976C73.6391 73.9797 74.3115 72.6247 75.4898 72.6247C75.5324 72.6247 75.5771 72.6267 75.6218 72.6308C75.699 72.6125 75.7742 72.6064 75.8453 72.6064C75.9896 72.6064 76.1196 72.6389 76.2272 72.6917C76.2496 72.6978 76.2699 72.7039 76.2923 72.71L76.2861 72.7242C76.7006 72.9721 76.7534 73.5165 76.1114 73.5165C76.0952 73.5165 76.081 73.5165 76.0627 73.5145C75.9936 73.6323 75.888 73.7136 75.7722 73.7603C75.7823 73.9533 75.6604 74.1219 75.3821 74.1219ZM75.1465 74.0915L75.1525 74.0935C75.1688 74.0955 75.183 74.0976 75.2013 74.1016C75.183 74.0976 75.1668 74.0955 75.1465 74.0915Z" fill="#D6925B"/>
<path d="M79.5001 66.8449C79.4716 66.8449 79.4473 66.8429 79.4269 66.8368C79.1324 66.7982 78.9434 66.4691 79.0247 66.1887C79.1019 65.9429 79.2563 65.8474 79.4168 65.8474C79.6362 65.8474 79.8637 66.0303 79.8942 66.2456C79.9856 66.4711 79.9125 66.7718 79.6057 66.8348C79.5752 66.8409 79.5366 66.8449 79.5001 66.8449ZM79.7581 66.5788C79.7439 66.591 79.7296 66.6032 79.7154 66.6154L79.7459 66.593L79.7581 66.5788Z" fill="#D6925B"/>
<path d="M61.6956 81.1247C61.3604 81.1247 61.0699 80.6737 61.3868 80.3791C61.4742 80.2978 61.5717 80.2633 61.6631 80.2633C62.0003 80.2633 62.2888 80.7143 61.9719 81.0089C61.8825 81.0901 61.787 81.1247 61.6956 81.1247Z" fill="#D6925B"/>
<path d="M64.3407 75.2413C64.0054 75.2413 63.717 74.7923 64.0339 74.4978C64.1212 74.4165 64.2188 74.382 64.3102 74.382C64.6454 74.382 64.9359 74.8309 64.619 75.1276C64.5296 75.2088 64.4341 75.2413 64.3407 75.2413Z" fill="#D6925B"/>
<path d="M85.4078 71.0827C85.3367 71.0827 85.2798 71.036 85.2636 70.9121C85.29 70.7739 85.5256 70.5464 85.6861 70.5464C85.7572 70.5464 85.8162 70.5931 85.8304 70.7171C85.802 70.8572 85.5683 71.0827 85.4078 71.0827Z" fill="#CC7E45"/>
<path d="M70.5979 87.067C70.1915 86.7744 70.1793 85.9882 70.7218 85.9882C70.7624 85.9882 70.8051 85.9923 70.8498 86.0024C71.126 86.1264 70.8701 86.4758 70.6405 86.4758C70.6344 86.4758 70.6283 86.4758 70.6222 86.4737V86.4778C70.6466 86.6464 70.7929 86.7602 70.9066 86.8719L70.9127 86.8801C70.8071 86.941 70.7035 87.004 70.5979 87.067ZM70.6202 86.4737V86.4758V86.4737Z" fill="#CC7E45"/>
<path d="M70.6283 72.1473C70.5714 72.1473 70.5125 72.1107 70.4698 72.0132C70.348 71.8446 70.4678 71.6394 70.5999 71.6394C70.6567 71.6394 70.7157 71.678 70.7583 71.7735C70.8782 71.9441 70.7604 72.1473 70.6283 72.1473Z" fill="#D6925B"/>
<path d="M84.7516 65.0836C84.6196 65.0836 84.5017 64.9028 84.6297 64.7849C84.6643 64.7524 84.7029 64.7382 84.7394 64.7382C84.8735 64.7382 84.9893 64.919 84.8613 65.0369C84.8268 65.0694 84.7902 65.0836 84.7516 65.0836Z" fill="#D6925B"/>
<path d="M73.9255 63.4888C73.7914 63.4888 73.6756 63.31 73.8036 63.1922C73.8381 63.1597 73.8767 63.1455 73.9133 63.1455C74.0494 63.1455 74.1632 63.3243 74.0372 63.4441C74.0027 63.4766 73.9621 63.4888 73.9255 63.4888Z" fill="#E0A564"/>
<path d="M64.6515 87.0527C64.5438 87.0527 64.4483 87.002 64.4524 86.8801C64.4605 86.7582 64.621 86.6708 64.7592 86.6708C64.8526 86.6708 64.9339 86.7094 64.9542 86.8008C64.9847 86.9512 64.8059 87.0527 64.6515 87.0527Z" fill="#D6925B"/>
<path d="M48.6835 84.9277C48.5535 84.9277 48.5149 84.8201 48.5352 84.7124C48.5576 84.6047 48.6388 84.497 48.7465 84.497C48.7892 84.497 48.8339 84.5113 48.8826 84.5478C49.0086 84.6636 48.907 84.8485 48.779 84.9115C48.7425 84.9237 48.71 84.9277 48.6835 84.9277Z" fill="#D6925B"/>
<path d="M36.4963 73.4698C36.1062 73.4454 36.413 72.9233 36.6629 72.9233C36.6811 72.9233 36.6974 72.9254 36.7137 72.9294C37.0103 73.0493 36.6852 73.4312 36.4963 73.4698Z" fill="#E0A564"/>
<path d="M49.2036 91.0021C49.1386 91.0021 49.0695 90.9838 48.9944 90.9472C48.3544 90.4861 49.0228 89.7892 49.4697 89.7892C49.6952 89.7892 49.8639 89.968 49.7765 90.4454C49.6709 90.6994 49.4779 91.0021 49.2036 91.0021Z" fill="#D6925B"/>
<path d="M56.4501 91.061C56.505 90.545 56.7528 90.3276 57.0373 90.3276C57.2953 90.3276 57.5817 90.5064 57.7849 90.7989C57.342 90.8944 56.895 90.9817 56.4501 91.061Z" fill="#D6925B"/>
<path d="M57.0027 92.1499C56.9418 92.095 56.891 92.03 56.8544 91.9589C56.8362 91.961 56.8158 91.963 56.7976 91.963C56.5761 91.963 56.3892 91.7883 56.4359 91.382C56.4359 91.3677 56.4359 91.3515 56.4359 91.3373L56.4278 91.3617C56.4319 91.3474 56.4339 91.3332 56.4359 91.317C56.4339 91.2255 56.44 91.1402 56.4501 91.061C56.8951 90.9817 57.342 90.8944 57.7849 90.7989C57.9454 91.0346 58.0551 91.3434 58.0551 91.6928C58.0794 91.7781 58.0896 91.8573 58.0977 91.9325C57.7341 92.0117 57.3704 92.0828 57.0027 92.1499ZM56.444 91.317L56.44 91.321C56.44 91.3393 56.438 91.3576 56.438 91.3738C56.44 91.3556 56.44 91.3373 56.444 91.317Z" fill="#CC7E45"/>
<path d="M48.1126 77.9148C48.0131 77.9148 47.9115 77.8783 47.818 77.7929C47.4706 77.476 47.7815 76.9864 48.1451 76.9864C48.2447 76.9864 48.3483 77.021 48.4417 77.1083C48.7871 77.4232 48.4763 77.9148 48.1126 77.9148Z" fill="#E0A564"/>
<path d="M54.6705 80.2227C54.5709 80.2227 54.4694 80.1881 54.3759 80.1008C54.0285 79.7859 54.3393 79.2943 54.703 79.2943C54.8025 79.2943 54.9041 79.3308 54.9996 79.4161C55.347 79.731 55.0341 80.2227 54.6705 80.2227Z" fill="#D6925B"/>
<path d="M38.2028 90.5165L37.8797 90.4495C37.3861 90.3398 36.8965 90.222 36.4089 90.096C36.4008 89.9863 36.4333 89.8725 36.5206 89.7506C36.608 89.6511 36.738 89.6003 36.868 89.6003C36.9777 89.6003 37.0895 89.6409 37.1748 89.7202C37.2906 89.838 37.4165 89.9436 37.5506 90.0371C37.5181 90.0147 37.4836 89.9904 37.4491 89.968C37.6847 90.1732 38.0951 90.1915 38.2028 90.5165Z" fill="#D6925B"/>
<path d="M37.7538 91.1219C37.6868 91.1219 37.6177 91.1077 37.5527 91.0732C37.1829 90.8924 36.4434 90.549 36.4089 90.096C36.8965 90.2219 37.3861 90.3398 37.8797 90.4495L38.2028 90.5165C38.2028 90.5186 38.2028 90.5206 38.2028 90.5226C38.3084 90.8314 38.0463 91.1219 37.7538 91.1219Z" fill="#CC7E45"/>
<path d="M42.7087 87.585C42.7067 87.585 42.7087 87.585 42.7108 87.583L42.725 87.5809C42.7148 87.585 42.7087 87.585 42.7087 87.585Z" fill="#D6925B"/>
<path d="M42.1927 87.9791C42.1541 87.9791 42.1135 87.9669 42.0668 87.9344C41.9205 87.5342 42.3918 87.2376 42.7859 87.2376C43.0744 87.2376 43.3202 87.394 43.2593 87.7821C43.2227 87.8857 43.1536 87.9263 43.0764 87.9263C42.918 87.9263 42.7311 87.7496 42.7311 87.5809H42.725L42.7311 87.5789C42.4995 87.5911 42.3938 87.9791 42.1927 87.9791Z" fill="#D6925B"/>
<path d="M58.3395 86.4575C58.181 86.4575 58.0429 86.3417 58.1688 86.1568C58.2359 86.0776 58.3293 86.0451 58.4167 86.0451C58.6219 86.0451 58.7986 86.2218 58.5325 86.3925C58.4756 86.4372 58.4045 86.4575 58.3395 86.4575Z" fill="#D6925B"/>
<path d="M41.8149 81.529C41.5772 81.529 41.437 81.0068 41.7377 80.9886C41.7377 80.9886 41.7377 80.9886 41.7397 80.9886C41.9571 80.9886 42.1094 81.4457 41.8656 81.5229C41.8494 81.5269 41.8332 81.529 41.8149 81.529Z" fill="#D6925B"/>
<path d="M24.8575 83.1359C24.8433 83.1359 24.8291 83.1339 24.8169 83.1318C24.5183 83.1217 24.2968 82.8048 24.3517 82.5163C24.4106 82.24 24.5792 82.1344 24.7519 82.1344C24.9632 82.1344 25.1866 82.2908 25.2334 82.4919C25.3471 82.7113 25.3024 83.0201 24.9977 83.1156C24.9591 83.1237 24.9022 83.1359 24.8575 83.1359Z" fill="#D6925B"/>
<path d="M36.6812 85.139C36.3561 85.139 36.0534 84.7307 36.3358 84.4138C36.4272 84.3122 36.5349 84.2715 36.6385 84.2715C36.9656 84.2715 37.2662 84.6799 36.9839 84.9948C36.8924 85.0964 36.7848 85.139 36.6812 85.139Z" fill="#D6925B"/>
<path d="M31.2284 86.8597C31.1594 86.8597 31.1045 86.815 31.0801 86.6993C31.0944 86.553 31.3239 86.2909 31.4865 86.2909C31.5515 86.2909 31.6083 86.3356 31.6327 86.4514C31.6185 86.5977 31.3889 86.8597 31.2284 86.8597Z" fill="#D6925B"/>
<path d="M30.0096 80.8707C29.8795 80.8707 29.7597 80.7082 29.8714 80.5802C29.908 80.5416 29.9507 80.5233 29.9933 80.5233C30.1233 80.5233 30.2432 80.6879 30.1294 80.8139C30.0949 80.8545 30.0502 80.8707 30.0096 80.8707Z" fill="#D6925B"/>
<path d="M18.9478 80.2694C18.8177 80.2694 18.6979 80.1048 18.8116 79.9789C18.8462 79.9383 18.8909 79.922 18.9315 79.922C19.0615 79.922 19.1834 80.0845 19.0697 80.2105C19.0331 80.2511 18.9904 80.2694 18.9478 80.2694Z" fill="#D6925B"/>
<path d="M11.2055 72.066C11.0186 71.7125 10.8338 71.359 10.657 70.9994C10.911 71.0665 11.1405 71.2696 11.2705 71.6678C11.2848 71.8283 11.2563 71.9583 11.2055 72.066Z" fill="#CC7E45"/>
<path d="M18.0112 62.9972C17.6049 62.9972 17.2474 62.4649 17.6191 62.0952C17.7288 61.9875 17.8487 61.9428 17.9685 61.9428C18.3728 61.9428 18.7324 62.4751 18.3606 62.8428C18.2509 62.9505 18.129 62.9972 18.0112 62.9972Z" fill="#D6925B"/>
<path d="M20.4226 74.4267C20.3089 74.4267 20.2114 74.3556 20.2378 74.1747C20.2764 74.0549 20.4044 73.9553 20.5222 73.9553C20.5872 73.9553 20.6502 73.9858 20.6929 74.061C20.7944 74.2682 20.5892 74.4267 20.4226 74.4267Z" fill="#D6925B"/>
<path d="M11.2807 64.6874C11.1953 64.6874 11.1263 64.6326 11.1039 64.4843C11.1324 64.3116 11.4168 64.0191 11.6118 64.0191C11.6972 64.0191 11.7662 64.0759 11.7886 64.2222C11.7601 64.3969 11.4777 64.6874 11.2807 64.6874Z" fill="#D6925B"/>
<path d="M10.2344 57.3637C10.0719 57.3637 9.92767 57.1524 10.078 57.0041C10.1207 56.9614 10.1715 56.9432 10.2162 56.9432C10.3787 56.9432 10.5229 57.1544 10.3746 57.3027C10.3299 57.3454 10.2832 57.3637 10.2344 57.3637Z" fill="#D6925B"/>
<path d="M12.7373 56.7888C12.071 56.7867 12.071 55.7506 12.7373 55.7506C13.4037 55.7527 13.4037 56.7888 12.7373 56.7888Z" fill="#D6925B"/>
<path d="M6.86411 53.2661C6.80926 53.2661 6.75643 53.262 6.70564 53.2518C6.69549 53.1157 6.68533 52.9776 6.67517 52.8394C6.72799 52.8293 6.78895 52.8232 6.84787 52.8232C7.1079 52.8232 7.37605 52.9309 7.18712 53.1909C7.12008 53.2397 6.9921 53.2661 6.86411 53.2661Z" fill="#D6925B"/>
<path d="M6.70563 53.2518C6.51263 53.2153 6.37654 53.1035 6.52485 52.8984C6.56141 52.8719 6.61421 52.8516 6.67516 52.8394C6.68532 52.9776 6.69547 53.1157 6.70563 53.2518Z" fill="#CC7E45"/>
<path d="M11.0003 47.3725C10.7342 47.3725 10.7322 46.9561 11.0003 46.9561C11.2685 46.9581 11.2685 47.3725 11.0003 47.3725Z" fill="#D6925B"/>
<path d="M15.4575 29.6981C14.9253 29.6981 14.8054 28.8428 15.3844 28.7432C15.4169 28.7371 15.4454 28.7351 15.4738 28.7351C15.5612 28.7351 15.6363 28.7575 15.6993 28.7961C15.8476 28.8834 15.9309 29.0581 15.9309 29.2308C15.9329 29.438 15.8151 29.6432 15.551 29.6899H15.5469C15.5144 29.694 15.486 29.6981 15.4575 29.6981Z" fill="#E0A564"/>
<path d="M11.2198 39.4983C11.0633 39.4983 10.9069 39.3825 11.0186 39.1996C11.0674 39.1366 11.1527 39.1041 11.234 39.1041C11.3518 39.1041 11.4656 39.1732 11.4534 39.3134C11.4371 39.4414 11.3274 39.4983 11.2198 39.4983Z" fill="#E0A564"/>
<path d="M25.8103 52.555C25.6092 52.555 25.3492 52.2117 25.4568 52.0268C25.5036 51.9598 25.5564 51.9313 25.6133 51.9313C25.792 51.9313 25.985 52.23 25.983 52.3925C25.9464 52.5083 25.8814 52.555 25.8103 52.555Z" fill="#D0975C"/>
<path d="M57.7828 35.2036C57.3582 35.2036 57.0413 34.5839 57.4842 34.2772C57.5776 34.2101 57.6731 34.1817 57.7645 34.1817C58.1891 34.1817 58.506 34.8013 58.0632 35.1081C57.9697 35.1751 57.8722 35.2036 57.7828 35.2036Z" fill="#D0975C"/>
<path d="M56.2998 27.6665C56.2368 27.6665 56.1515 27.6584 56.1068 27.6361C55.7675 27.5446 55.603 27.1261 55.7411 26.8133C55.8651 26.5675 56.0398 26.472 56.2084 26.472C56.4948 26.472 56.7691 26.7503 56.7528 27.0327C56.8158 27.311 56.6797 27.6401 56.3161 27.6665C56.31 27.6665 56.3039 27.6665 56.2998 27.6665ZM56.5477 27.3801C56.5213 27.3984 56.4928 27.4166 56.4623 27.4329C56.4806 27.4227 56.5009 27.4146 56.5192 27.4045L56.5477 27.3801Z" fill="#D0975C"/>
<path d="M33.0731 41.4384C32.6485 41.4384 32.3336 40.8208 32.7745 40.512C32.8699 40.447 32.9654 40.4186 33.0569 40.4186C33.4815 40.4186 33.7964 41.0382 33.3555 41.3449C33.26 41.41 33.1645 41.4384 33.0731 41.4384Z" fill="#D0975C"/>
<path d="M37.1382 34.9943C36.7137 34.9943 36.3967 34.3747 36.8396 34.0659C36.9331 34.0009 37.0285 33.9725 37.1179 33.9725C37.5425 33.9725 37.8594 34.5921 37.4186 34.8988C37.3231 34.9638 37.2276 34.9943 37.1382 34.9943Z" fill="#D0975C"/>
<path d="M69.1453 33.1029C68.7207 33.1029 68.4058 32.4833 68.8467 32.1766C68.9422 32.1116 69.0376 32.0811 69.127 32.0811C69.5516 32.0811 69.8685 32.7007 69.4256 33.0095C69.3322 33.0745 69.2367 33.1029 69.1453 33.1029Z" fill="#D0975C"/>
<path d="M62.429 33.6007C62.0064 33.4605 62.494 33.0034 62.7804 33.0034C62.8861 33.0034 62.9653 33.0664 62.9592 33.2309C62.9023 33.3874 62.5955 33.6007 62.429 33.6007Z" fill="#D0975C"/>
<path d="M62.305 45.339C62.1344 45.339 62.0064 45.0911 62.1831 44.9672C62.2217 44.9408 62.2604 44.9306 62.2969 44.9306C62.4655 44.9306 62.5935 45.1785 62.4148 45.3004C62.3782 45.3268 62.3396 45.339 62.305 45.339Z" fill="#D0975C"/>
<path d="M62.6504 26.4638C62.4798 26.4638 62.3518 26.216 62.5285 26.0921C62.5671 26.0657 62.6057 26.0555 62.6423 26.0555C62.8109 26.0555 62.9369 26.3034 62.7601 26.4253C62.7236 26.4517 62.685 26.4638 62.6504 26.4638Z" fill="#D0975C"/>
<path d="M35.5577 48.8617C35.4053 48.8617 35.2631 48.7865 35.2895 48.6199C35.3159 48.496 35.4784 48.4229 35.6247 48.4229C35.7588 48.4229 35.8807 48.4797 35.8909 48.6118C35.9031 48.7723 35.7223 48.8617 35.5577 48.8617Z" fill="#D0975C"/>
<path d="M32.9472 43.149C32.7318 43.149 32.5632 42.6614 32.748 42.5131C32.7927 42.4826 32.8334 42.4684 32.872 42.4684C33.0812 42.4684 33.1808 42.8767 33.1137 43.0433C33.0569 43.1185 33.002 43.149 32.9472 43.149Z" fill="#D0975C"/>
<path d="M70.1814 44.4207C70.0717 44.4207 69.962 44.3923 69.8604 44.3394C69.7751 44.3923 69.6755 44.4207 69.578 44.4207C69.4216 44.4207 69.2672 44.3476 69.1656 44.1647C68.8243 43.3643 69.3891 42.9214 69.9396 42.9214C70.4292 42.9214 70.9067 43.2688 70.7421 44.0205C70.604 44.309 70.3947 44.4207 70.1814 44.4207Z" fill="#D0975C"/>
<path d="M56.5781 42.188C56.2064 42.188 56.0113 41.8488 55.9788 41.5075C55.9463 41.1682 56.0763 40.8269 56.3607 40.8269C56.4968 40.8269 56.6675 40.9061 56.8747 41.1032C57.084 41.4181 57.2831 41.8955 56.8605 42.1311C56.7589 42.1697 56.6635 42.188 56.5781 42.188Z" fill="#D0975C"/>
<path d="M69.4175 38.0904C68.8832 38.0904 68.7105 37.2311 69.3017 37.0807C69.3505 37.0685 69.3952 37.0624 69.4398 37.0624C69.9721 37.0624 70.1448 37.9218 69.5557 38.0721C69.5069 38.0843 69.4602 38.0904 69.4175 38.0904Z" fill="#D0975C"/>
<path d="M70.6953 30.4416C70.6466 30.4416 70.5938 30.4355 70.5389 30.4193C70.48 30.3969 70.3906 30.3583 70.352 30.3177C70.0636 30.1084 70.0554 29.6574 70.2992 29.4096C70.4414 29.2775 70.5816 29.2247 70.7076 29.2247C71.0692 29.2247 71.313 29.6696 71.1748 29.9764C71.1443 30.2161 70.9635 30.4416 70.6953 30.4416ZM70.8579 30.2303C70.8274 30.2385 70.7969 30.2466 70.7624 30.2507C70.7827 30.2486 70.803 30.2466 70.8233 30.2425L70.8579 30.2303Z" fill="#D0975C"/>
<path d="M43.8565 35.234C43.3243 35.234 43.1496 34.3747 43.7408 34.2223C43.7895 34.2101 43.8342 34.2061 43.8789 34.2061C44.4132 34.2061 44.5859 35.0654 43.9947 35.2158C43.9459 35.2279 43.9012 35.234 43.8565 35.234Z" fill="#C78554"/>
<path d="M69.0559 55.0294C68.8995 55.0294 68.7451 54.9563 68.6435 54.7775C68.3916 54.3387 68.7532 53.7577 69.2469 53.7577C69.257 53.7577 69.2692 53.7577 69.2773 53.7577C69.8685 53.7618 69.9071 54.4667 69.5638 54.7085C69.4764 54.8974 69.2652 55.0294 69.0559 55.0294Z" fill="#D0975C"/>
<path d="M80.8998 40.1301C80.3655 40.1301 80.1929 39.2707 80.784 39.1204C80.8328 39.1082 80.8795 39.1021 80.9222 39.1021C81.4565 39.1021 81.6292 39.9615 81.038 40.1118C80.9892 40.124 80.9445 40.1301 80.8998 40.1301Z" fill="#D0975C"/>
<path d="M77.2207 50.8871C77.0419 50.8871 76.8652 50.7469 77.0297 50.5438C77.0866 50.493 77.1658 50.4646 77.243 50.4646C77.3609 50.4646 77.4685 50.5296 77.4665 50.6697C77.4563 50.8221 77.3385 50.8871 77.2207 50.8871Z" fill="#D0975C"/>
<path d="M70.0046 49.2538C69.7893 49.2538 69.7222 48.9104 69.9579 48.8495C69.9762 48.8434 69.9965 48.8414 70.0127 48.8414C70.226 48.8414 70.2951 49.1867 70.0595 49.2456C70.0392 49.2517 70.0209 49.2538 70.0046 49.2538Z" fill="#D0975C"/>
<path d="M58.4248 30.7199C58.3598 30.5798 58.242 30.466 58.1018 30.401C58.1607 30.3319 58.2318 30.2893 58.2988 30.2893C58.3842 30.2893 58.4553 30.3624 58.4593 30.5493C58.4593 30.6082 58.4471 30.6671 58.4248 30.7199Z" fill="#D0975C"/>
<path d="M77.0155 31.5366C76.8022 31.5366 76.7331 31.1933 76.9688 31.1323C76.9891 31.1283 77.0074 31.1242 77.0236 31.1242C77.239 31.1242 77.306 31.4696 77.0703 31.5285C77.052 31.5346 77.0317 31.5366 77.0155 31.5366Z" fill="#D0975C"/>
<path d="M59.1907 58.1987C59.0342 58.1987 58.8331 58.0158 58.825 57.8452C58.8453 57.705 58.9164 57.6501 59.0017 57.6501C59.1561 57.6501 59.3573 57.833 59.3674 58.0057C59.3471 58.1438 59.276 58.1987 59.1907 58.1987Z" fill="#D0975C"/>
<path d="M66.5835 23.6989C66.3701 23.6989 66.3011 23.3556 66.5367 23.2967C66.5591 23.2906 66.5753 23.2885 66.5936 23.2885C66.8069 23.2885 66.876 23.6319 66.6383 23.6928C66.62 23.6969 66.6017 23.6989 66.5835 23.6989Z" fill="#D0975C"/>
<path d="M43.5762 43.1286C43.371 43.1286 43.1313 42.9763 43.2471 42.7772C43.2897 42.7081 43.3771 42.6776 43.4705 42.6776C43.6575 42.6776 43.8687 42.7995 43.818 42.9824C43.7875 43.086 43.6879 43.1286 43.5762 43.1286Z" fill="#C78554"/>
<path d="M68.9421 12.1069C68.5866 12.0683 68.8019 11.6965 69.0112 11.6965C69.0742 11.6965 69.1351 11.727 69.1818 11.8083C69.255 11.9647 69.0864 12.0988 68.9421 12.1069Z" fill="#D0975C"/>
<path d="M67.1137 17.9598C67 17.9598 66.8882 17.9131 66.7928 17.7973C66.4433 17.2305 67.0142 16.8668 67.453 16.8668C67.8024 16.8668 68.0665 17.0964 67.713 17.6368C67.5525 17.7952 67.3291 17.9598 67.1137 17.9598Z" fill="#D0975C"/>
<path d="M72.9504 28.7432C72.7939 28.7432 72.6416 28.666 72.5562 28.4812C72.3876 28.1216 72.7005 27.827 73.0072 27.827C73.1637 27.827 73.316 27.9042 73.4014 28.0891C73.568 28.4487 73.2551 28.7432 72.9504 28.7432Z" fill="#D0975C"/>
<path d="M73.5395 21.0965C73.5476 21.0823 73.5558 21.066 73.5639 21.0498L73.5679 21.0457C73.5578 21.064 73.5497 21.0802 73.5395 21.0965Z" fill="#D0975C"/>
<path d="M80.1562 28.5807C80.1339 28.5807 80.1116 28.5787 80.0872 28.5746C80.075 28.5767 80.0608 28.5767 80.0486 28.5767C79.7967 28.5767 79.5387 28.4019 79.5732 28.0789C79.5834 28.0241 79.6037 27.9367 79.6342 27.8941C79.7093 27.7356 79.8637 27.6381 80.0303 27.6096C80.1298 27.9225 80.2274 28.2374 80.3208 28.5502C80.266 28.5706 80.2111 28.5807 80.1562 28.5807ZM79.7662 28.2658C79.7703 28.278 79.7743 28.2922 79.7784 28.3065L79.7885 28.3227C79.7804 28.3044 79.7723 28.2861 79.7662 28.2658Z" fill="#D0975C"/>
<path d="M80.3208 28.5503C80.2274 28.2374 80.1298 27.9225 80.0303 27.6096C80.0608 27.6056 80.0933 27.6035 80.1258 27.6035C80.2355 27.6035 80.3432 27.632 80.4366 27.695C80.8795 28.0078 80.6398 28.4345 80.3208 28.5503Z" fill="#C78554"/>
<path d="M76.4122 10.0814C76.2578 10.0814 76.1054 10.0042 76.018 9.81938C75.8514 9.45776 76.1663 9.16522 76.469 9.16522C76.4954 9.16522 76.5218 9.16725 76.5462 9.17131C76.6661 9.30133 76.788 9.43135 76.9058 9.56137C76.9505 9.85798 76.6783 10.0814 76.4122 10.0814Z" fill="#C78554"/>
<path d="M76.9058 9.56137C76.788 9.43135 76.6661 9.30133 76.5462 9.17131C76.6742 9.19366 76.794 9.27289 76.8652 9.42526C76.8855 9.47198 76.8997 9.51871 76.9058 9.56137Z" fill="#BD7340"/>
<path d="M58.0185 31.4147C57.8905 31.4147 57.7605 31.37 57.6691 31.2827C57.342 31.2055 57.1084 30.7524 57.4456 30.4701C57.5553 30.3746 57.6853 30.334 57.8154 30.334C57.9149 30.334 58.0145 30.3563 58.1018 30.401C58.242 30.466 58.3598 30.5798 58.4248 30.7199C58.4614 30.8073 58.4797 30.9028 58.4695 31.0064C58.4451 31.2847 58.2339 31.4147 58.0185 31.4147Z" fill="#D0975C"/>
<path d="M73.0519 39.3682C72.8955 39.3682 72.7411 39.291 72.6558 39.1062C72.4872 38.7466 72.8021 38.452 73.1068 38.452C73.2632 38.452 73.4156 38.5292 73.5009 38.7141C73.6675 39.0737 73.3546 39.3682 73.0519 39.3682Z" fill="#D0975C"/>
<path d="M62.5712 37.6821C62.4452 37.6821 62.3721 37.5703 62.362 37.4586C62.3518 37.3448 62.4026 37.2331 62.5265 37.2331C62.5488 37.2331 62.5732 37.2371 62.6017 37.2453C62.7764 37.3184 62.8312 37.6414 62.6037 37.68C62.5935 37.6821 62.5834 37.6821 62.5712 37.6821Z" fill="#D0975C"/>
<path d="M73.5517 33.2228C73.5314 33.2228 73.507 33.2208 73.4806 33.2147C73.3485 33.1375 73.2023 32.8246 73.2287 32.6743C73.2774 32.5869 73.3343 32.5504 73.3912 32.5504C73.5131 32.5504 73.639 32.719 73.6939 32.8876C73.7447 33.0542 73.7244 33.2228 73.5517 33.2228Z" fill="#D0975C"/>
<path d="M62.7946 30.9129C62.7317 30.9129 62.6687 30.8825 62.6362 30.8093C62.5691 30.6651 62.6931 30.5473 62.8149 30.5473C62.8779 30.5473 62.9389 30.5777 62.9734 30.6509C63.0405 30.7951 62.9165 30.9129 62.7946 30.9129Z" fill="#D0975C"/>
<path d="M62.5407 12.7001C62.492 12.7001 62.4412 12.6757 62.3985 12.6392C62.5143 12.4888 62.6321 12.3405 62.75 12.1922C62.7967 12.3101 62.7886 12.4543 62.6971 12.6229C62.6464 12.6778 62.5935 12.7001 62.5407 12.7001Z" fill="#D0975C"/>
<path d="M77.3527 17.2955C77.1394 17.2955 76.9444 17.0781 77.1841 16.9237C77.2308 16.8993 77.2796 16.8892 77.3243 16.8892C77.5904 16.8892 77.8098 17.2162 77.4299 17.2853C77.4035 17.2914 77.3771 17.2955 77.3527 17.2955Z" fill="#C78554"/>
<path d="M79.8332 34.2183C79.7703 34.2183 79.7093 34.1878 79.6748 34.1126C79.6077 33.9704 79.7337 33.8526 79.8556 33.8526C79.9186 33.8526 79.9795 33.8831 80.014 33.9562C80.0811 34.1004 79.9551 34.2183 79.8332 34.2183Z" fill="#D0975C"/>
<path d="M85.099 23.5648C85.0381 23.5648 84.9771 23.5344 84.9426 23.4592C84.8755 23.3149 85.0015 23.1971 85.1234 23.1971C85.1864 23.1971 85.2473 23.2276 85.2798 23.3028C85.3469 23.447 85.2209 23.5648 85.099 23.5648Z" fill="#C78554"/>
<path d="M45.6484 49.0729C48.4926 50.4341 50.1503 48.8739 51.804 45.7412C51.2514 46.1414 50.4956 46.3324 49.4819 46.2775C43.0399 45.92 47.8831 37.483 46.914 25.893C46.9608 33.9318 40.7219 46.7123 45.6484 49.0729Z" fill="#BF7644"/>
<path d="M13.1497 20.2026C11.9816 22.2342 10.911 24.3267 9.97036 26.4781C9.02569 28.6274 8.20289 30.8317 7.49794 33.0745C6.09008 37.5602 5.16778 42.2104 4.83866 46.9134C4.67005 49.2639 4.64567 51.6266 4.77772 53.9832C4.90977 56.3398 5.20229 58.6903 5.66345 61.0083C6.57968 65.6443 8.17853 70.1665 10.5311 74.2906C12.8714 78.4146 15.9573 82.1303 19.6283 85.1472C21.4628 86.6586 23.4375 87.9954 25.5097 89.1554C27.5819 90.3134 29.7536 91.2906 31.9842 92.0991C34.2148 92.9016 36.5044 93.5374 38.8244 94.0067C41.1485 94.478 43.4889 94.8051 45.8576 94.9758C48.2244 95.1342 50.6034 95.116 52.966 94.9026C55.3287 94.6853 57.6752 94.2749 59.9708 93.6715C64.5641 92.477 68.9401 90.4718 72.8793 87.8328C76.8185 85.1939 80.3269 81.9251 83.2666 78.2135C86.2123 74.5059 88.5933 70.3615 90.3526 65.9714C92.1079 61.5812 93.2476 56.9493 93.7148 52.2483C93.9485 49.8978 94.0175 47.533 93.92 45.1744C93.8205 42.8158 93.5563 40.4653 93.1338 38.1473C92.7031 35.8272 92.1221 33.5377 91.3826 31.301C90.637 29.0642 89.7472 26.8783 88.7131 24.7634C86.6511 20.5317 84.0406 16.5783 81.0217 12.9805C78.0069 9.37447 74.5756 6.13618 70.8924 3.23716C74.5207 6.20322 77.8789 9.50449 80.8389 13.1308C83.7968 16.7551 86.3383 20.7227 88.3251 24.9503C90.316 29.1739 91.7442 33.6596 92.5446 38.2509C92.9388 40.5486 93.1744 42.8706 93.2516 45.1988C93.3248 47.5269 93.2313 49.8571 92.9835 52.1711C92.4878 56.801 91.3318 61.3537 89.5745 65.6585C87.8152 69.9613 85.4444 74.0102 82.5433 77.6365C79.6443 81.2628 76.1948 84.4483 72.3307 87.0121C68.4708 89.5759 64.1903 91.5079 59.7088 92.674C57.468 93.2612 55.1804 93.6573 52.8726 93.8645C50.5647 94.0697 48.2427 94.0839 45.9308 93.9255C43.6229 93.7589 41.311 93.4277 39.0377 92.9625C36.7665 92.4912 34.5236 91.8858 32.3417 91.0996C30.1619 90.3174 28.041 89.3687 26.0176 88.2453C23.9962 87.1178 22.0703 85.8196 20.2805 84.3528C18.4907 82.8881 16.8309 81.2669 15.3357 79.4994C13.8384 77.734 12.5037 75.8284 11.3457 73.8233C9.02772 69.809 7.40449 65.3985 6.4517 60.8478C5.97225 58.5725 5.66145 56.2606 5.50096 53.9385C5.33437 51.6144 5.32421 49.2802 5.4522 46.952C5.72036 42.2957 6.52485 37.6658 7.8291 33.1741C8.48123 30.9292 9.25322 28.7168 10.1491 26.5532C11.043 24.3896 12.0364 22.2646 13.1497 20.2026Z" fill="#AA5631"/>
<path d="M46.138 20.934C45.9409 19.7638 45.6667 18.6058 45.3538 17.458C45.0288 16.3122 44.6509 15.1806 44.2222 14.0694C43.369 11.8408 42.2902 9.69748 41.0124 7.67406C40.3623 6.66845 39.6614 5.69534 38.8894 4.77504C38.1093 3.86288 37.2764 2.98931 36.3378 2.22951C35.4033 1.46971 34.3652 0.819619 33.2316 0.388931C33.0873 0.340174 32.9431 0.297511 32.7988 0.252817C32.7257 0.23047 32.6526 0.206092 32.5815 0.187808L32.36 0.139051C32.2097 0.112641 32.0634 0.0699778 31.9131 0.0537254L31.4621 0.00700031C31.3117 -0.00722052 31.1594 0.00496906 31.0111 0.00293751C30.9359 0.00496906 30.8587 0.000905668 30.7856 0.00700031L30.5601 0.0354419L30.3386 0.0638834C30.3021 0.0699781 30.2655 0.0740409 30.2289 0.0801356L30.1192 0.108577L29.6885 0.222344C30.2736 0.116704 30.8648 0.118736 31.4418 0.204061C32.0167 0.29548 32.5693 0.484414 33.0995 0.713979C33.3575 0.848061 33.6257 0.957765 33.8735 1.11419L34.2473 1.3336L34.6069 1.57942C34.8487 1.73585 35.0742 1.92275 35.3078 2.09543C35.5374 2.27421 35.7547 2.4672 35.9762 2.65411C36.8396 3.43625 37.638 4.29154 38.3673 5.20573C39.1027 6.11383 39.7853 7.06866 40.4131 8.05803C41.049 9.04333 41.63 10.0632 42.1765 11.1033C42.7311 12.1394 43.2349 13.2019 43.7083 14.2807C43.8322 14.5488 43.9419 14.821 44.0557 15.0933C44.1694 15.3635 44.2832 15.6357 44.3909 15.91C44.4965 16.1842 44.6102 16.4585 44.7139 16.7327L45.0206 17.5636C45.4249 18.6729 45.7865 19.7983 46.138 20.934Z" fill="#AA5631"/>
<path d="M26.4543 11.5198C25.851 12.111 25.2943 12.7509 24.7966 13.4233C24.2867 14.0917 23.8296 14.7926 23.3989 15.5077C22.5436 16.944 21.8346 18.4514 21.2373 19.9934C20.0468 23.0834 19.285 26.3074 18.8909 29.5701C18.6918 31.2014 18.5801 32.8449 18.5679 34.4925C18.5557 35.3173 18.576 36.1421 18.6065 36.967C18.6186 37.3794 18.6552 37.7918 18.6796 38.2042C18.702 38.6166 18.7405 39.031 18.7852 39.4414C18.8218 39.8538 18.8706 40.2662 18.9234 40.6786L19.0026 41.2962L19.0981 41.9138C19.1611 42.3241 19.222 42.7365 19.3073 43.1449C19.3845 43.5553 19.4577 43.9656 19.5511 44.376C19.7177 45.1947 19.9148 46.0114 20.1342 46.824C20.2479 47.2303 20.3516 47.6366 20.4755 48.043C20.6014 48.4472 20.7254 48.8515 20.8574 49.2538C21.926 52.4717 23.3928 55.6389 25.4325 58.544C25.6945 58.9036 25.9485 59.2652 26.2207 59.6187C26.5051 59.9661 26.7753 60.3176 27.0699 60.6568C27.6529 61.3394 28.2726 61.9977 28.9348 62.6213C29.266 62.9301 29.5931 63.243 29.9506 63.5294L30.4768 63.9662C30.6515 64.1105 30.8405 64.2445 31.0213 64.3827L31.5738 64.789L32.1467 65.1709C32.3397 65.2949 32.5266 65.4249 32.7237 65.5427L33.321 65.8881C34.9157 66.7941 36.6324 67.4828 38.3816 67.9196C40.1328 68.3584 41.9124 68.5352 43.6412 68.4905C45.3721 68.4478 47.0502 68.1736 48.6449 67.7408C50.2377 67.298 51.7532 66.7108 53.1732 65.9632C53.5633 65.758 53.7157 65.2745 53.5085 64.8825C53.3703 64.6184 53.1021 64.464 52.8238 64.4558H52.8035C51.2656 64.4152 49.7765 64.3543 48.3382 64.1775C46.9019 64.0109 45.5224 63.7367 44.2283 63.3486C41.632 62.5726 39.4217 61.3069 37.6116 59.6614C33.9853 56.3723 31.7729 51.5636 30.3732 46.369C30.2066 45.7168 30.04 45.0606 29.8897 44.3984C29.8104 44.0692 29.7515 43.732 29.6784 43.3988C29.6032 43.0677 29.5464 42.7284 29.4793 42.3932C29.4123 42.06 29.3594 41.7187 29.3026 41.3815C29.2436 41.0422 29.1888 40.703 29.138 40.3617L29.0588 39.8518L28.9897 39.3378C28.9389 38.9965 28.8881 38.6552 28.8495 38.3098C28.7622 37.6231 28.6748 36.9324 28.6057 36.2417C28.5712 35.8943 28.5245 35.5489 28.4981 35.2015L28.4005 34.1573C28.2807 32.7637 28.1791 31.3639 28.1121 29.9561C27.976 27.1404 27.9211 24.2982 27.9922 21.4337C28.0288 20.0015 28.0897 18.5591 28.2015 17.1106C28.236 16.751 28.2563 16.3813 28.2929 16.0197C28.3132 15.8389 28.3294 15.656 28.3437 15.4711C28.3579 15.2863 28.3823 15.1055 28.4026 14.9226C28.4737 14.1831 28.5834 13.4538 28.6708 12.6879L28.6809 12.6107C28.7622 11.8875 28.2441 11.2354 27.5209 11.1541C27.1146 11.1074 26.7266 11.2557 26.4543 11.5198Z" fill="#FAC891"/>
<path d="M69.7771 51.7627C69.0152 55.5373 65.3382 57.9793 61.5656 57.2174C57.791 56.4556 55.349 52.7785 56.1108 49.0039C56.8727 45.2313 60.5498 42.7894 64.3244 43.5512C68.097 44.313 70.5389 47.9881 69.7771 51.7627Z" fill="white"/>
<path d="M69.7771 51.7627L69.3992 51.6855C69.0823 53.2498 68.2412 54.5683 67.0914 55.5008C65.9395 56.4312 64.4849 56.9696 62.9511 56.9696C62.5204 56.9696 62.0816 56.9269 61.6407 56.8375C60.0764 56.5226 58.758 55.6795 57.8275 54.5297C56.8971 53.3798 56.3587 51.9252 56.3587 50.3914C56.3587 49.9607 56.3994 49.5219 56.4908 49.0811C56.8057 47.5168 57.6488 46.1983 58.7986 45.2679C59.9485 44.3374 61.403 43.797 62.9369 43.797C63.3676 43.797 63.8064 43.8417 64.2472 43.9291C65.8095 44.246 67.13 45.0891 68.0604 46.2389C68.9909 47.3888 69.5313 48.8434 69.5313 50.3772C69.5313 50.8079 69.4866 51.2467 69.3992 51.6855L69.7771 51.7627L70.155 51.8399C70.2566 51.3483 70.3033 50.8587 70.3033 50.3772C70.3012 48.6605 69.6999 47.0353 68.6597 45.7514C67.6216 44.4695 66.1426 43.5248 64.3996 43.1733C63.9079 43.0738 63.4183 43.025 62.9369 43.025C61.2202 43.025 59.595 43.6284 58.3131 44.6686C57.0291 45.7067 56.0845 47.1836 55.733 48.9287C55.6335 49.4183 55.5847 49.9079 55.5847 50.3914C55.5847 52.1081 56.1881 53.7313 57.2282 55.0152C58.2663 56.2992 59.7433 57.2438 61.4884 57.5953C61.98 57.6948 62.4696 57.7416 62.9511 57.7416C64.6678 57.7416 66.291 57.1402 67.5769 56.1001C68.8589 55.0619 69.8055 53.583 70.155 51.8399L69.7771 51.7627Z" fill="#42180B"/>
<path d="M65.9029 51.2284C65.4377 52.8618 63.7332 53.8085 62.0999 53.3433C60.4645 52.876 59.5198 51.1736 59.985 49.5402C60.4503 47.9048 62.1547 46.9581 63.7881 47.4254C65.4235 47.8926 66.3702 49.5951 65.9029 51.2284Z" fill="#42180B"/>
<path d="M65.6164 51.3991C65.4864 51.8521 65.0131 52.1162 64.5601 51.9862C64.107 51.8562 63.8429 51.3828 63.9729 50.9298C64.103 50.4747 64.5743 50.2126 65.0293 50.3406C65.4824 50.4707 65.7465 50.944 65.6164 51.3991Z" fill="white"/>
<path d="M64.5601 49.4975C64.4829 49.7698 64.1985 49.9262 63.9262 49.849C63.652 49.7718 63.4935 49.4874 63.5727 49.2152C63.6499 48.9429 63.9344 48.7845 64.2066 48.8617C64.4788 48.9409 64.6373 49.2253 64.5601 49.4975Z" fill="white"/>
<path d="M59.985 57.5648C60.2816 56.6953 62.3701 56.6201 64.6494 57.3962C66.9268 58.1743 68.5358 59.511 68.2392 60.3805C67.9426 61.25 65.8542 61.3252 63.5748 60.5471C61.2954 59.7711 59.6884 58.4343 59.985 57.5648Z" fill="#FF803B"/>
<path d="M59.4629 34.4052C66.746 36.9873 67.2234 35.1 73.958 40.5445C72.2352 38.4805 70.4617 35.5753 67.8105 34.7079C67.195 34.2508 57.9027 32.6784 59.4629 34.4052Z" fill="#632B15"/>
<path d="M40.7849 51.7363C40.7442 55.5861 37.5913 58.674 33.7395 58.6334C29.8917 58.5928 26.8017 55.4398 26.8423 51.59C26.883 47.7423 30.038 44.6523 33.8878 44.6929C37.7375 44.7336 40.8255 47.8865 40.7849 51.7363Z" fill="white"/>
<path d="M40.7849 51.7363L40.3968 51.7322C40.3785 53.5403 39.635 55.1656 38.4445 56.3459C37.252 57.5222 35.6186 58.2474 33.8146 58.2474C33.7923 58.2474 33.7679 58.2474 33.7455 58.2474C31.9375 58.2291 30.3102 57.4856 29.1319 56.2951C27.9536 55.1026 27.2283 53.4672 27.2283 51.6652C27.2283 51.6408 27.2283 51.6185 27.2283 51.5961V51.5941C27.2486 49.7881 27.9922 48.1608 29.1827 46.9825C30.3752 45.8042 32.0086 45.0789 33.8126 45.0789C33.8349 45.0789 33.8593 45.0789 33.8816 45.0789H33.8837C35.6918 45.0992 37.317 45.8428 38.4953 47.0333C39.6736 48.2258 40.3989 49.8592 40.3989 51.6632C40.3989 51.6855 40.3988 51.7099 40.3968 51.7343V51.7322L40.7849 51.7363L41.1688 51.7383C41.1688 51.714 41.1688 51.6875 41.1688 51.6632C41.1708 49.6499 40.3602 47.8195 39.0438 46.4908C37.7314 45.1602 35.9091 44.3273 33.8898 44.3069H33.8918C33.8634 44.3069 33.8369 44.3069 33.8126 44.3069C31.7993 44.3069 29.9689 45.1175 28.6403 46.4319C27.3096 47.7463 26.4787 49.5686 26.4563 51.586C26.4563 51.6124 26.4563 51.6388 26.4563 51.6652C26.4563 53.6785 27.2669 55.5089 28.5834 56.8375C29.8978 58.1662 31.7201 58.9991 33.7374 59.0214C33.7618 59.0214 33.7882 59.0214 33.8146 59.0214C35.8279 59.0214 37.6583 58.2088 38.9869 56.8944C40.3155 55.58 41.1505 53.7577 41.1688 51.7404V51.7383L40.7849 51.7363Z" fill="#42180B"/>
<path d="M36.8782 51.9374C36.7279 53.6317 35.2306 54.8811 33.5383 54.7288C31.8481 54.5764 30.5966 53.0812 30.749 51.3889C30.8993 49.6966 32.3946 48.4472 34.0889 48.5996C35.7812 48.7499 37.0306 50.2451 36.8782 51.9374Z" fill="#42180B"/>
<path d="M36.6283 52.1589C36.5856 52.6282 36.1712 52.9755 35.7019 52.9329C35.2306 52.8923 34.8832 52.4758 34.9259 52.0065C34.9665 51.5372 35.383 51.1898 35.8523 51.2304C36.3236 51.2731 36.671 51.6896 36.6283 52.1589Z" fill="white"/>
<path d="M35.2326 50.4889C35.2083 50.7713 34.9584 50.9785 34.678 50.9542C34.3957 50.9298 34.1864 50.6799 34.2108 50.3975C34.2372 50.1151 34.485 49.9079 34.7674 49.9323C35.0498 49.9587 35.2591 50.2066 35.2326 50.4889Z" fill="white"/>
<path d="M35.3159 59.3038C35.2062 58.3917 33.1787 57.8838 30.7876 58.1702C28.3965 58.4567 26.5457 59.4278 26.6554 60.3399C26.7651 61.2521 28.7926 61.76 31.1817 61.4755C33.5749 61.1891 35.4236 60.216 35.3159 59.3038Z" fill="#FF803B"/>
<path d="M38.7493 34.2406C33.5241 35.4027 29.329 38.9701 24.9083 41.7919C28.5875 40.3414 32.3804 39.1204 35.8381 37.1823C36.3134 36.843 40.3745 34.6124 38.7493 34.2406Z" fill="#632B15"/>
<path d="M57.8438 57.8452C57.8072 57.896 56.5964 60.3866 55.0382 61.571C54.2317 62.1846 53.4049 62.6884 52.5679 63.0723C52.123 63.2796 51.674 63.4522 51.2291 63.5904C50.3413 63.8646 49.4515 64.0069 48.582 64.0089C47.168 64.0089 45.7987 63.5965 44.527 62.7981C43.8545 62.3755 43.1252 61.6746 42.6295 60.9758C40.8458 58.4668 40.8905 56.8639 41.0307 56.7888C41.1729 56.7116 41.3639 56.7177 41.498 56.803C42.3045 57.3129 43.5823 57.8614 45.2522 58.2352C47.0928 58.6497 49.4088 58.8508 52.1006 58.5562C53.7258 58.3774 55.4872 58.0199 57.3603 57.4165C57.5167 57.3657 57.6914 57.4023 57.8011 57.4998C57.9128 57.5973 57.9291 57.7395 57.8438 57.8452Z" fill="#632B15"/>
<path d="M57.5045 57.8208L57.6386 58.3063C56.3181 58.67 54.7883 59.0316 53.2443 59.3018C51.6963 59.572 50.1361 59.7528 48.7404 59.7528C48.3503 59.7528 47.9725 59.7386 47.6109 59.7081H47.6129C46.5646 59.6187 45.4635 59.4379 44.4274 59.1901C43.3934 58.9422 42.4203 58.6293 41.6259 58.2718L41.8331 57.8106L42.3349 57.7537C42.3471 57.8533 42.3756 57.9854 42.4263 58.1377C42.5076 58.4039 42.6498 58.7248 42.8286 59.0621C43.0988 59.57 43.4584 60.1164 43.8505 60.5979C44.2405 61.0814 44.6671 61.4999 45.045 61.7579C45.5367 62.0931 46.0771 62.3816 46.6662 62.5848C47.2533 62.79 47.8851 62.9098 48.5698 62.9098H48.5677C49.3885 62.9098 50.1767 62.7615 50.9202 62.5157C51.6638 62.2719 52.3627 61.9306 52.9965 61.5467H52.9985C53.2931 61.3699 53.7055 61.0835 54.1443 60.7422C54.8066 60.2322 55.542 59.5964 56.1027 59.0133C56.3831 58.7228 56.6208 58.4445 56.7772 58.2149C56.8585 58.1011 56.9174 57.9975 56.954 57.9183C56.9925 57.8411 57.0027 57.7863 57.0007 57.7802L57.5045 57.8208L57.6386 58.3063L57.5045 57.8208L58.0083 57.8594C57.988 58.0971 57.9027 58.2921 57.795 58.4912C57.604 58.8366 57.3196 59.188 56.9804 59.5557C56.4684 60.1063 55.8285 60.6832 55.2048 61.1911C54.577 61.701 53.9737 62.1378 53.5166 62.4121H53.5186C52.8319 62.8265 52.0661 63.2024 51.2372 63.4746C50.4063 63.7489 49.5104 63.9195 48.5698 63.9195H48.5677C47.7652 63.9195 47.0176 63.7773 46.335 63.5396C45.6504 63.3019 45.0288 62.9708 44.4762 62.5909C44.0983 62.3308 43.7306 61.9916 43.3852 61.6076C42.8652 61.0306 42.3918 60.3562 42.0261 59.7C41.8433 59.3729 41.6869 59.0499 41.569 58.7431C41.4512 58.4364 41.3659 58.1479 41.3334 57.8696C41.311 57.6887 41.3882 57.51 41.5365 57.4023C41.6828 57.2967 41.8758 57.2763 42.0424 57.3515C42.7555 57.6725 43.6778 57.9711 44.6651 58.2068C45.6504 58.4445 46.7048 58.6192 47.6962 58.7005H47.6982C48.0253 58.7289 48.3747 58.7431 48.7404 58.7431C50.0487 58.7431 51.5622 58.5704 53.0676 58.3063C54.577 58.0422 56.0763 57.6887 57.3704 57.3332C57.5289 57.2906 57.6995 57.3271 57.8255 57.4307C57.9514 57.5343 58.0205 57.6969 58.0083 57.8594L57.5045 57.8208ZM57.8438 57.8452L58.2521 58.1418L57.8661 57.8614L58.2724 58.1133C58.2684 58.1174 58.2643 58.1255 58.2521 58.1418L57.8661 57.8614L58.2724 58.1133L57.9717 57.9264L58.2785 58.0991L58.2724 58.1133L57.9717 57.9264L58.2785 58.0991C58.2785 58.1032 58.2663 58.1255 58.2521 58.1519C58.1952 58.2596 58.0794 58.481 57.9169 58.7655C57.6691 59.1962 57.3156 59.7731 56.8828 60.3562C56.4461 60.9372 55.9341 61.5243 55.3449 61.9733C54.512 62.6071 53.6527 63.1292 52.7791 63.5294L52.7832 63.5274C52.3159 63.7468 51.8446 63.9276 51.3774 64.0719C50.4449 64.3603 49.5063 64.5087 48.584 64.5127H48.5758C47.0664 64.5127 45.5996 64.0678 44.2588 63.2247H44.2568C43.885 62.9911 43.5112 62.6904 43.1618 62.3532C42.8123 62.018 42.4873 61.6482 42.2171 61.2683C41.5101 60.2749 41.0733 59.4095 40.8153 58.7045C40.6833 58.351 40.598 58.0402 40.5431 57.77C40.4882 57.4998 40.4659 57.2743 40.4659 57.0874C40.4659 56.9716 40.472 56.8721 40.4964 56.7685C40.5065 56.7156 40.5228 56.6628 40.5533 56.5958C40.5716 56.5612 40.5919 56.5247 40.6264 56.48C40.663 56.4373 40.7117 56.3865 40.793 56.3439L41.0307 56.7888L40.7849 56.3459C40.9393 56.2626 41.0957 56.2281 41.2501 56.2281C41.4268 56.2301 41.6036 56.2728 41.7661 56.3743H41.7681C42.4121 56.7847 43.4299 57.2418 44.7504 57.5933C46.073 57.9447 47.7003 58.1905 49.5815 58.1905C51.7979 58.1905 54.3657 57.8492 57.2058 56.935H57.2079C57.3074 56.9025 57.407 56.8883 57.5086 56.8883C57.73 56.8883 57.9555 56.9594 58.1383 57.1219C58.2176 57.191 58.2826 57.2763 58.3293 57.3739C58.376 57.4714 58.4045 57.5831 58.4024 57.6969C58.4045 57.8655 58.3395 58.0341 58.2379 58.1621L57.8438 57.8452L58.2521 58.1418L57.8438 57.8452L57.4497 57.5303L57.6569 57.6969H57.3928C57.3907 57.6298 57.4192 57.5648 57.4497 57.5303L57.6569 57.6969H57.3928H57.6589L57.4171 57.8106C57.4029 57.7802 57.3928 57.7395 57.3928 57.6969H57.6589L57.4171 57.8106L57.602 57.7233L57.4659 57.8756C57.4517 57.8635 57.4334 57.8411 57.4171 57.8106L57.602 57.7233L57.4659 57.8756L57.5086 57.831V57.898C57.5045 57.896 57.4984 57.9021 57.4659 57.8756L57.5086 57.831V57.898V57.8756L57.5147 57.896L57.5086 57.898V57.8756L57.5147 57.896H57.5167C54.577 58.8427 51.9015 59.2002 49.5815 59.2002C47.6129 59.2002 45.9003 58.9422 44.4924 58.5684C43.0846 58.1946 41.9855 57.707 41.2277 57.2296H41.2298L41.2501 57.1951V57.2377C41.2501 57.2377 41.2501 57.2418 41.2298 57.2296L41.2501 57.1951V57.2377V57.1849L41.2765 57.2296C41.2562 57.2398 41.2501 57.2377 41.2501 57.2377V57.1849L41.2765 57.2296L41.2704 57.2337L41.051 56.8253L41.4106 57.1179C41.3821 57.1504 41.3415 57.1951 41.2704 57.2337L41.051 56.8253L41.4106 57.1179L41.116 56.8782L41.4756 57.0061C41.4675 57.0244 41.4573 57.059 41.4106 57.1179L41.116 56.8782L41.4756 57.0061L41.3232 56.9533L41.4817 56.9858C41.4817 56.9879 41.4796 56.9919 41.4756 57.0061L41.3232 56.9533L41.4817 56.9858L41.4796 56.9919C41.4796 57.0061 41.4756 57.0407 41.4756 57.0874C41.4756 57.189 41.4898 57.3556 41.5325 57.5689C41.6625 58.2129 42.0505 59.2937 43.0399 60.6832C43.2674 61.0022 43.5538 61.3313 43.8606 61.6259C44.1694 61.9205 44.4965 62.1825 44.7951 62.3715V62.3694C45.9937 63.1211 47.2634 63.501 48.5758 63.503H48.5799C49.3966 63.501 50.2356 63.369 51.0787 63.1069L51.0767 63.1089C51.5013 62.9769 51.9299 62.8103 52.3545 62.6132L52.3586 62.6112C53.159 62.2455 53.9533 61.762 54.7335 61.1688C55.0809 60.9047 55.4262 60.5532 55.7411 60.1733C56.2165 59.6025 56.6248 58.9686 56.9174 58.477C57.0616 58.2312 57.1774 58.0199 57.2607 57.8675C57.3013 57.7923 57.3318 57.7314 57.3562 57.6867C57.3664 57.6644 57.3765 57.6461 57.3846 57.6298L57.3968 57.6075L57.407 57.5912C57.4131 57.5831 57.4171 57.575 57.4334 57.5506L57.4497 57.5303L57.8438 57.8452Z" fill="#42180B"/>
<path d="M48.9598 64.3116C48.5515 64.468 48.1655 64.659 47.8262 64.8723C47.6556 64.9779 47.6109 65.2197 47.7247 65.4127C47.8405 65.6057 48.07 65.6808 48.2386 65.5691C49.3925 64.852 51.2006 64.3624 52.4439 64.9942C52.6349 65.0917 52.8502 65.0104 52.9214 64.8134C52.9945 64.6163 52.899 64.3786 52.708 64.2811C51.5887 63.7102 50.1706 63.8525 48.9598 64.3116Z" fill="#632B15"/>
<path d="M7.68688 51.7038L0.0482711 69.2929C-0.0289277 69.4677 -0.0126833 69.6708 0.0909257 69.8333C0.192503 69.9959 0.369253 70.0954 0.560219 70.1035L21.6518 70.8268C21.9727 70.8369 22.2409 70.587 22.2531 70.2661C22.2632 69.9451 22.0134 69.6769 21.6924 69.6667L1.45206 68.972L8.75142 52.165C8.87737 51.8704 8.74329 51.5291 8.44871 51.4011C8.15617 51.2751 7.81487 51.4092 7.68688 51.7038Z" fill="#994D2B"/>
<path d="M23.0291 69.4778C23.6325 69.6911 24.2887 69.7602 24.9286 69.7622C25.4649 69.7622 25.987 69.7114 26.4543 69.6383C26.9175 69.5652 27.3198 69.4697 27.6245 69.3742C27.9292 69.2787 28.0999 68.9537 28.0044 68.6469C27.9069 68.3422 27.5818 68.1715 27.2771 68.269C27.0455 68.3402 26.6859 68.4275 26.2715 68.4925C25.8591 68.5575 25.3898 68.6022 24.9286 68.6022C24.378 68.6022 23.8377 68.5352 23.4212 68.3869C23.1185 68.2792 22.7853 68.4356 22.6797 68.7363C22.572 69.039 22.7285 69.3701 23.0312 69.4778H23.0291Z" fill="#994D2B"/>
<path d="M24.6869 71.4951C24.7498 71.5642 24.8047 71.6069 24.8595 71.6475C24.9631 71.7186 25.0708 71.7775 25.1927 71.8405C25.4081 71.9461 25.6681 72.0558 25.9586 72.1716C26.3934 72.3464 26.8951 72.5312 27.3766 72.7059C27.8581 72.8807 28.3213 73.0472 28.6667 73.1813C28.9653 73.2971 29.3005 73.1488 29.4163 72.8502C29.5321 72.5515 29.3838 72.2163 29.0852 72.1005C28.4919 71.8689 27.6285 71.5683 26.8789 71.2859C26.5051 71.1457 26.1618 71.0076 25.9058 70.8938C25.7778 70.8369 25.6722 70.7821 25.6011 70.7435C25.5686 70.7232 25.5421 70.7069 25.5299 70.7008L25.5259 70.6947L25.3999 70.8511L25.5482 70.7191C25.53 70.7008 25.5259 70.6947 25.5259 70.6947L25.3999 70.8511L25.5482 70.7191C25.3329 70.4814 24.9672 70.4611 24.7295 70.6764C24.4918 70.8897 24.4736 71.2574 24.6869 71.4951Z" fill="#994D2B"/>
<path d="M23.8052 72.131C23.8052 72.131 23.8519 72.1676 23.9352 72.2326C24.2277 72.4662 24.9774 73.0594 25.7798 73.7075C26.5803 74.3535 27.4356 75.0565 27.9292 75.4932C28.171 75.7045 28.5367 75.6822 28.7479 75.4404C28.9592 75.2007 28.9369 74.835 28.6972 74.6217C28.3965 74.3576 27.9902 74.0163 27.5432 73.6486C26.2065 72.5475 24.5264 71.2209 24.5244 71.2209C24.2724 71.0218 23.9088 71.0645 23.7097 71.3164C23.5106 71.5663 23.5553 71.9319 23.8052 72.131Z" fill="#994D2B"/>
<path d="M22.5558 73.0797C22.5558 73.0797 22.5639 73.0879 22.5802 73.1021C22.696 73.2118 23.2384 73.7258 23.856 74.3434C24.1627 74.6522 24.4918 74.9853 24.7925 75.3084C25.0952 75.6293 25.3715 75.9381 25.5726 76.19C25.7717 76.4399 26.1374 76.4806 26.3873 76.2794C26.6372 76.0803 26.6778 75.7147 26.4787 75.4648C26.2308 75.156 25.9139 74.8045 25.5767 74.447C24.565 73.3743 23.3522 72.2387 23.3501 72.2346C23.1145 72.0152 22.7488 72.0274 22.5294 72.261C22.312 72.4947 22.3222 72.8603 22.5558 73.0797Z" fill="#994D2B"/>
<path d="M21.7777 72.6348C22.8686 73.807 24.3009 74.2418 25.4731 73.1529C26.6453 72.064 26.5437 70.8857 25.4528 69.7135C24.3639 68.5392 22.7 67.816 21.5258 68.9049C20.3536 69.9959 20.6908 71.4606 21.7777 72.6348Z" fill="#994D2B"/>
<path d="M75.3638 66.9892C74.7625 66.981 74.1612 66.7759 73.6208 66.4975C73.0804 66.2172 72.6111 65.8678 72.2657 65.6016C72.0138 65.4046 71.6481 65.4493 71.4531 65.7012C71.256 65.9531 71.3008 66.3188 71.5527 66.5158C71.9163 66.7982 72.4445 67.1944 73.0865 67.5275C73.7305 67.8587 74.4984 68.135 75.3456 68.1492C75.6665 68.1532 75.9286 67.8993 75.9347 67.5783C75.9388 67.2573 75.6848 66.9932 75.3638 66.9892Z" fill="#994D2B"/>
<path d="M73.0255 68.5006L73.1332 68.7038L73.056 68.4884C73.054 68.4905 73.0458 68.4925 73.0255 68.5006L73.1332 68.7038L73.056 68.4884C73.0438 68.4925 72.9707 68.5088 72.8711 68.5189C72.7228 68.5372 72.5075 68.5494 72.2617 68.5575C72.0159 68.5636 71.7355 68.5677 71.443 68.5677C70.799 68.5677 70.0981 68.5535 69.5353 68.5535C69.4297 68.5535 69.3261 68.5535 69.2306 68.5555C68.9096 68.5596 68.6536 68.8216 68.6577 69.1426C68.6618 69.4636 68.9238 69.7196 69.2448 69.7155C69.3342 69.7135 69.4317 69.7135 69.5353 69.7135C70.0818 69.7135 70.7847 69.7257 71.443 69.7257C71.8818 69.7257 72.3003 69.7216 72.6517 69.7013C72.8264 69.6891 72.9829 69.6769 73.1271 69.6546C73.1982 69.6444 73.2653 69.6322 73.3343 69.6139C73.4054 69.5956 73.4745 69.5753 73.5619 69.5306C73.8463 69.3823 73.958 69.0329 73.8097 68.7485C73.6614 68.4641 73.3099 68.3544 73.0255 68.5006Z" fill="#994D2B"/>
<path d="M74.1043 69.5469C74.1023 69.5469 73.1312 69.7826 71.9732 70.0853C71.3942 70.2376 70.7725 70.4062 70.1976 70.5749C69.6227 70.7435 69.1006 70.906 68.7105 71.0543C68.4099 71.1681 68.2595 71.5033 68.3753 71.8019C68.4871 72.1026 68.8222 72.2529 69.1229 72.1391C69.4561 72.0112 69.962 71.8507 70.5206 71.6881C71.3617 71.4444 72.3267 71.1904 73.0804 70.9974C73.4583 70.9019 73.7813 70.8207 74.0129 70.7638C74.1266 70.7353 74.218 70.713 74.281 70.6988C74.344 70.6825 74.3765 70.6744 74.3765 70.6744C74.6874 70.5992 74.8803 70.2864 74.8031 69.9755C74.728 69.6627 74.4151 69.4717 74.1043 69.5469Z" fill="#994D2B"/>
<path d="M74.2973 70.8166C74.2932 70.8186 73.6736 71.0726 72.8915 71.424C72.5014 71.5988 72.0687 71.7978 71.6522 72.003C71.2337 72.2082 70.8315 72.4195 70.4942 72.6206C70.2179 72.7852 70.1286 73.1407 70.2911 73.417C70.4556 73.6913 70.8132 73.7806 71.0875 73.6181C71.3841 73.4414 71.764 73.2423 72.1642 73.0452C72.7655 72.7486 73.4115 72.4601 73.9032 72.2428C74.151 72.1371 74.3603 72.0477 74.5065 71.9847C74.5797 71.9543 74.6386 71.9299 74.6772 71.9136C74.6975 71.9055 74.7138 71.8994 74.7219 71.8954L74.7381 71.8893C75.0327 71.7674 75.1749 71.4281 75.053 71.1335C74.9311 70.8369 74.5919 70.6947 74.2973 70.8166Z" fill="#994D2B"/>
<path d="M75.8859 71.617C74.4537 72.3342 72.9605 72.2407 72.2434 70.8085C71.5283 69.3762 72.0382 68.3097 73.4684 67.5925C74.9006 66.8754 76.7107 66.7799 77.4299 68.2122C78.147 69.6444 77.3162 70.8999 75.8859 71.617Z" fill="#994D2B"/>
<path d="M89.6619 50.9257L96.175 67.8932L76.339 68.2203C76.02 68.2243 75.7641 68.4905 75.7702 68.8094C75.7742 69.1304 76.0404 69.3844 76.3593 69.3803L97.0222 69.039C97.2131 69.0349 97.3879 68.9415 97.4935 68.783C97.6012 68.6266 97.6235 68.4295 97.5545 68.2508L90.7467 50.5113C90.6309 50.2126 90.2978 50.0623 89.9971 50.1781C89.6985 50.2919 89.5481 50.6271 89.6619 50.9257Z" fill="#994D2B"/>
</svg>
