<svg width="112" height="131" viewBox="0 0 112 131" fill="none" xmlns="http://www.w3.org/2000/svg">
<path d="M61.2707 90.5223L55.6388 111.754C55.6035 111.887 55.616 112.033 55.6729 112.156L61.7228 125.258L53.4987 129.228C53.2015 129.371 53.0773 129.728 53.2197 130.025C53.362 130.32 53.7185 130.444 54.0146 130.302L62.7684 126.076C63.0611 125.935 63.1852 125.586 63.0485 125.289L56.8449 111.853L62.421 90.829C62.5053 90.5109 62.3162 90.1837 61.9996 90.0994C61.6807 90.0161 61.355 90.2043 61.2707 90.5223Z" fill="#994D2B"/>
<path d="M45.0537 85.1834L38.3238 107.178C38.2919 107.284 38.2896 107.393 38.3158 107.5L42.7257 124.786L33.5404 124.664C33.2124 124.658 32.9413 124.922 32.9367 125.251C32.9322 125.58 33.1953 125.851 33.5244 125.854L43.4877 125.988C43.6722 125.991 43.8476 125.907 43.9626 125.762C44.0765 125.615 44.1175 125.426 44.0708 125.244L39.5117 107.367L46.1926 85.5334C46.2894 85.2187 46.1117 84.8858 45.7985 84.7889C45.483 84.6931 45.1505 84.8698 45.0537 85.1834Z" fill="#994D2B"/>
<path d="M53.4464 130.109C51.6754 129.602 55.657 122.064 62.6488 125.431C57.5795 127.619 55.2174 129.504 53.4464 130.109Z" fill="#994D2B"/>
<path d="M33.0598 125.649C31.6703 124.438 38.4651 119.295 43.3772 125.307C37.858 125.145 34.9197 125.851 33.0598 125.649Z" fill="#994D2B"/>
<path d="M41.4297 87.5467C77.6164 112.051 126.625 72.768 105.851 21.8637C105.281 20.4614 103.859 19.2666 101.802 18.7365C97.2252 17.5531 89.4987 19.6668 80.9865 30.135C80.1756 31.1325 79.4569 32.2167 78.8112 33.3454C74.6609 40.5951 73.4867 49.7282 69.7648 50.2675C69.0996 50.3644 68.3548 50.1866 67.4938 49.6735C62.035 46.4141 70.1178 41.2586 74.5698 30.6879C75.1848 29.232 75.7293 27.6724 76.1575 26.0011C79.1688 14.3176 77.0937 1.72776 71.267 0.377915C70.5449 0.210325 69.7647 0.216026 68.9288 0.417819C61.3186 2.24878 54.0922 5.70092 47.7006 10.2692C21.6877 28.8547 9.49222 65.9207 41.4297 87.5467Z" fill="#E0AB6C"/>
<path d="M71.267 0.377914C77.0926 8.80191 75.2532 18.5894 72.8626 24.6067C68.1111 36.5752 51.2779 49.5139 63.0725 54.7457C68.4505 57.1319 73.4241 53.6171 75.661 45.2649C76.4491 42.3212 78.8112 33.3454 78.8112 33.3454C73.9184 41.8914 73.1611 53.0539 67.4938 49.6735C61.2822 45.966 72.6041 39.8005 76.1575 26.0011C79.1688 14.3176 77.0937 1.72776 71.267 0.377914Z" fill="#D69763"/>
<path d="M41.4297 87.5468C77.6164 112.051 126.625 72.768 105.851 21.8637C105.281 20.4614 103.859 19.2667 101.802 18.7365C105.346 31.0721 108.659 78.7625 65.9027 80.875C40.8842 82.1097 16.1162 44.875 47.7006 10.2692C21.6877 28.8547 9.49222 65.9207 41.4297 87.5468Z" fill="#D69763"/>
<path d="M68.9287 0.416687C63.4312 1.68217 58.1193 3.7685 53.1719 6.51266C50.6993 7.88872 48.3201 9.43466 46.04 11.1185C43.7645 12.8059 41.5823 14.6277 39.5379 16.5955C35.4458 20.5253 31.8127 24.9647 28.8914 29.8591C25.9552 34.7386 23.7161 40.0753 22.4895 45.6821C22.3517 46.3856 22.1911 47.0844 22.0875 47.7958L21.9155 48.8584L21.7845 49.9278L21.7185 50.4625C21.6991 50.6414 21.6877 50.8204 21.6718 50.9994L21.5841 52.0745C21.5568 52.4336 21.5511 52.7928 21.534 53.153C21.5226 53.5122 21.4964 53.8724 21.5032 54.2315C21.5078 54.9521 21.4964 55.6726 21.5419 56.392C21.5613 56.7522 21.5682 57.1136 21.5989 57.4728L21.6957 58.5501C21.7117 58.7291 21.7253 58.9093 21.7458 59.0882L21.8187 59.6252L21.9645 60.698L22.157 61.764C22.2219 62.1197 22.2822 62.4754 22.3711 62.8265L22.6148 63.8823C22.6524 64.0601 22.7014 64.2334 22.7503 64.4078L22.8973 64.93L23.0431 65.4521C23.0932 65.6254 23.141 65.7999 23.2002 65.9709L23.5419 67.0004C23.6023 67.1725 23.6524 67.3447 23.7173 67.5145L23.912 68.0196L24.3038 69.0331L24.74 70.0261C24.8881 70.3567 25.0259 70.6919 25.1933 71.0123C26.4564 73.6173 28.011 76.0776 29.7945 78.3498L29.9597 78.5664L30.1328 78.7739L30.4813 79.19L31.176 80.0223C31.6601 80.557 32.1452 81.0917 32.6384 81.6172C33.152 82.1234 33.6554 82.6422 34.1793 83.1381L34.9766 83.8677L35.3763 84.2326L35.5745 84.415L35.7818 84.5894L36.6075 85.2837L37.0221 85.6314L37.2282 85.8047L37.4412 85.97C38.0129 86.4078 38.5733 86.8593 39.153 87.2845C39.7395 87.6995 40.3192 88.1225 40.9115 88.5329C41.5174 88.9251 42.1142 89.331 42.7281 89.7106C47.6493 92.7352 53.173 94.8284 58.9086 95.7177C61.7787 96.144 64.6897 96.274 67.5826 96.1098C70.4788 95.9502 73.3512 95.4611 76.1449 94.7064C81.7404 93.2141 86.9919 90.5622 91.5965 87.1044C96.1921 83.6283 100.17 79.3519 103.268 74.5146C106.379 69.6875 108.652 64.3349 109.958 58.761C111.277 53.1907 111.659 47.4219 111.194 41.7443C110.965 38.9044 110.523 36.085 109.901 33.3112C109.28 30.5363 108.456 27.8115 107.489 25.1449L107.128 24.1439L106.734 23.1566L106.34 22.1681C106.271 22.0028 106.215 21.8432 106.136 21.6722L106.011 21.4157L105.947 21.2869L105.872 21.166C105.478 20.515 104.937 19.9735 104.328 19.5505C103.719 19.1264 103.044 18.8152 102.349 18.5963C100.948 18.1642 99.4744 18.1072 98.0496 18.2725C96.6226 18.4538 95.2388 18.8528 93.9211 19.3966C92.6045 19.9404 91.3562 20.6302 90.1695 21.4077L89.7254 21.6973L89.2914 22.0074C89.0067 22.2149 88.7117 22.4132 88.4361 22.6356L87.6012 23.2911L86.7926 23.9786C85.7323 24.9134 84.7072 25.8893 83.7517 26.9291C83.2608 27.4364 82.803 27.9757 82.336 28.5047C82.1003 28.7669 81.8828 29.0451 81.6584 29.3164L80.9864 30.135L81.6755 29.3323C81.9078 29.0667 82.1311 28.7931 82.3737 28.5377C82.8509 28.019 83.3201 27.4923 83.8212 26.9975C84.7995 25.9817 85.8439 25.0331 86.9202 24.1291L87.7402 23.4644L88.583 22.8339C88.8597 22.6173 89.1581 22.4292 89.4463 22.2286L89.8814 21.9333L90.3289 21.6562C91.518 20.9152 92.7651 20.2654 94.0668 19.7614C95.3698 19.2587 96.7262 18.9041 98.1032 18.7616C99.4756 18.6316 100.879 18.7183 102.171 19.1469C102.815 19.3647 103.428 19.6645 103.967 20.0579C104.506 20.45 104.972 20.9391 105.297 21.5035L105.36 21.6084L105.412 21.7189L105.513 21.939C105.579 22.0906 105.637 22.2639 105.702 22.4247L106.072 23.4108L106.442 24.397L106.779 25.3957C107.681 28.0532 108.44 30.7597 108.995 33.5073C109.552 36.2537 109.926 39.0332 110.103 41.823C110.457 47.4025 109.976 53.0299 108.594 58.4247C107.227 63.8218 104.923 68.967 101.837 73.5729C98.7638 78.189 94.8607 82.2317 90.4007 85.4832C88.1696 87.1101 85.7812 88.5101 83.3007 89.6981C82.6857 90.0104 82.0479 90.2681 81.4203 90.5486C81.1071 90.6922 80.7814 90.8051 80.4625 90.9339L79.5013 91.3067C78.2052 91.7627 76.9 92.1948 75.5663 92.5266C72.907 93.2049 70.1907 93.6667 67.4527 93.8C64.7148 93.9483 61.9654 93.824 59.256 93.4215C56.5465 93.0134 53.8803 92.3191 51.3063 91.3728C48.7301 90.4254 46.2507 89.2158 43.8931 87.7953C43.3043 87.4407 42.7315 87.0588 42.1483 86.6917C41.5766 86.3052 41.0128 85.9028 40.4422 85.5094C39.8819 85.107 39.3386 84.6795 38.7851 84.2656L38.5778 84.1094L38.3774 83.9453L37.9788 83.6158L37.1781 82.9591C35.0734 81.1715 33.1133 79.2174 31.3787 77.0797C29.6419 74.9455 28.126 72.6335 26.8846 70.1789C26.7172 69.8779 26.5839 69.561 26.4381 69.2497L26.0065 68.3126L25.6181 67.3572L25.4245 66.8795C25.3607 66.7199 25.3083 66.5557 25.2503 66.3938L24.9075 65.4213C24.8471 65.2595 24.7993 65.0941 24.7503 64.9288L24.6034 64.4341L24.4542 63.9404C24.4052 63.7751 24.3551 63.6109 24.3163 63.4433L24.0669 62.4401C23.9781 62.1083 23.9143 61.7697 23.8471 61.4311L23.6444 60.4176L23.4884 59.3949L23.4098 58.8842C23.387 58.7132 23.3722 58.541 23.3528 58.37L23.2412 57.3417C23.2082 56.9974 23.1956 56.6519 23.1717 56.3076C23.1148 55.619 23.1148 54.9281 23.1 54.2361C23.0852 53.8907 23.1057 53.5452 23.1102 53.1986C23.1216 52.8543 23.1216 52.5077 23.141 52.1623L23.2059 51.126C23.2173 50.9527 23.2253 50.7805 23.2412 50.6072L23.2947 50.0908L23.4018 49.0568L23.5499 48.0273C23.6364 47.3387 23.7799 46.6592 23.9007 45.9751C24.9872 40.5233 27.0714 35.271 29.864 30.4314C31.2558 28.0076 32.8172 25.6773 34.537 23.4667C36.251 21.2515 38.1075 19.1458 40.0903 17.1609C44.056 13.1935 48.5376 9.73678 53.3803 6.87748C58.2264 4.02958 63.4642 1.81784 68.9287 0.416687Z" fill="#CC834B"/>
<path d="M102.809 54.1358C102.618 54.1358 102.438 53.7755 102.697 53.641C102.731 53.625 102.763 53.617 102.792 53.617C102.955 53.617 103.048 53.8393 102.987 53.9933C102.937 54.0959 102.872 54.1358 102.809 54.1358Z" fill="#D18D58"/>
<path d="M83.8098 54.7868C83.5706 54.7868 83.484 54.2224 83.7084 54.105C83.746 54.089 83.779 54.0822 83.8098 54.0822C84.0512 54.0822 84.0763 54.5496 83.9692 54.7138C83.9112 54.7651 83.8576 54.7868 83.8098 54.7868Z" fill="#DB9F60"/>
<path d="M107.855 58.6641C107.415 58.6641 107.241 58.3062 107.243 57.9482C107.248 57.5902 107.429 57.2311 107.704 57.2311C107.856 57.2311 108.038 57.3417 108.232 57.6198C108.379 57.979 108.48 58.5 108.008 58.6505C107.955 58.6607 107.902 58.6641 107.855 58.6641Z" fill="#D18D58"/>
<path d="M103.568 45.6411C102.922 45.6411 102.882 44.623 103.546 44.59C103.557 44.59 103.568 44.59 103.578 44.59C104.223 44.59 104.264 45.608 103.598 45.64C103.587 45.6411 103.578 45.6411 103.568 45.6411Z" fill="#D18D58"/>
<path d="M97.913 68.2236C97.6465 68.2236 97.4028 68.178 97.241 68.0925C96.8971 67.8007 97.1157 67.1828 97.569 67.1782C97.5701 67.1782 97.5736 67.1782 97.5747 67.1782C97.7399 67.1782 97.9039 67.1622 98.0656 67.136C98.3071 67.0767 98.5941 66.9491 98.8378 66.9491C99.0337 66.9491 99.2 67.0311 99.2922 67.2934C99.4107 67.9307 98.5929 68.2236 97.913 68.2236Z" fill="#D18D58"/>
<path d="M100.039 61.805C99.9379 61.805 99.8365 61.7423 99.8297 61.6112C99.6418 61.1278 100.018 60.4917 100.45 60.4917C100.593 60.4917 100.742 60.5624 100.879 60.7311C100.989 60.9625 100.778 61.0936 100.569 61.0936C100.465 61.0936 100.36 61.0617 100.293 60.9944L100.289 61.0001C100.182 61.1769 100.228 61.3969 100.248 61.5907C100.258 61.7321 100.147 61.805 100.039 61.805ZM100.292 60.9933L100.289 60.999L100.292 60.9933Z" fill="#D18D58"/>
<path d="M94.5362 56.9461C94.3118 56.9461 94.0271 56.7169 94.2013 56.5162C94.2435 56.474 94.3027 56.4547 94.3676 56.4547C94.5749 56.4547 94.8356 56.6428 94.7343 56.84C94.6921 56.9153 94.6182 56.9461 94.5362 56.9461Z" fill="#DB9F60"/>
<path d="M85.246 73.4178C85.1367 73.4178 85.1002 73.3186 85.1151 73.2183C85.1299 73.1191 85.1982 73.0188 85.2995 73.0188C85.3326 73.0188 85.369 73.0291 85.4089 73.053C85.5364 73.1453 85.4624 73.3232 85.3508 73.3927C85.311 73.4098 85.2756 73.4178 85.246 73.4178Z" fill="#DB9F60"/>
<path d="M73.1325 64.2288C72.9389 64.2288 72.915 64.0989 72.9685 63.97C73.0209 63.8412 73.1485 63.7124 73.2579 63.7124C73.3171 63.7124 73.3718 63.7523 73.4048 63.8549C73.4071 63.9849 73.2556 64.1901 73.1325 64.2288Z" fill="#DB9F60"/>
<path d="M91.6627 83.7001C91.5044 83.7001 91.3438 83.6158 91.2652 83.4778C90.886 83.4596 90.6718 82.8588 91.1149 82.6661C91.1957 82.6239 91.2823 82.6045 91.37 82.6045C91.7936 82.6045 92.2196 83.0651 92.0066 83.4824C91.9349 83.6352 91.7993 83.7001 91.6627 83.7001Z" fill="#D18D58"/>
<path d="M86.2892 78.8674C86.2414 78.8674 86.1878 78.8571 86.132 78.8355C85.4885 78.4684 86.0819 77.7398 86.4885 77.7398C86.6741 77.7398 86.8211 77.8926 86.7926 78.3053C86.7163 78.5584 86.5614 78.8674 86.2892 78.8674Z" fill="#D18D58"/>
<path d="M84.0319 67.1246C83.9522 67.1246 83.8714 67.0995 83.7916 67.0403C83.4329 66.778 83.6994 66.2764 84.0479 66.2764C84.1264 66.2764 84.2085 66.3015 84.2893 66.3608C84.6458 66.6219 84.3793 67.1246 84.0319 67.1246Z" fill="#DB9F60"/>
<path d="M90.1866 68.5782C90.1091 68.5782 90.0271 68.552 89.9463 68.4938C89.5898 68.2316 89.8563 67.73 90.2037 67.73C90.2811 67.73 90.3631 67.7551 90.4428 67.8144C90.8004 68.0754 90.5339 68.5782 90.1866 68.5782Z" fill="#DB9F60"/>
<path d="M74.9081 79.6301C74.7942 79.5343 74.7053 79.4203 74.6575 79.2789C74.6074 79.0122 74.8443 78.791 75.0857 78.791C75.1677 78.791 75.2497 78.8172 75.3226 78.8742C75.4388 78.9688 75.5641 79.0521 75.695 79.125C75.662 79.1068 75.629 79.0885 75.5948 79.0703C75.7588 79.1854 75.9923 79.2082 76.1609 79.3097C75.7497 79.4226 75.3306 79.5298 74.9081 79.6301Z" fill="#DB9F60"/>
<path d="M75.941 80.0884C75.8932 80.0884 75.8453 80.0804 75.7964 80.0622C75.5151 79.9573 75.1552 79.8387 74.9081 79.6301C75.3306 79.5297 75.7497 79.4226 76.1608 79.3097C76.2337 79.3542 76.2929 79.4123 76.3316 79.4989C76.4615 79.7828 76.2246 80.0884 75.941 80.0884Z" fill="#D18D58"/>
<path d="M79.6767 76.8118C79.6471 76.8118 79.6129 76.8027 79.5765 76.7822C79.3908 76.4094 79.8556 76.0765 80.2291 76.0765C80.4592 76.0765 80.6551 76.2042 80.638 76.5279C80.6129 76.6351 80.5434 76.6773 80.466 76.6773C80.3259 76.6773 80.1551 76.5428 80.1403 76.3957L80.1334 76.3968L80.1323 76.398C79.9261 76.4424 79.8692 76.8118 79.6767 76.8118ZM80.1403 76.3946L80.1357 76.3968L80.1403 76.3957V76.3946Z" fill="#DB9F60"/>
<path d="M94.1341 73.867C93.9678 73.867 93.8278 73.696 94.035 73.5523C94.0886 73.4953 94.1557 73.4714 94.2172 73.4714C94.3858 73.4714 94.5247 73.6436 94.3175 73.7861C94.2639 73.8431 94.1967 73.867 94.1341 73.867Z" fill="#D18D58"/>
<path d="M77.2565 88.7769C77.0766 88.7769 77.0527 88.4337 77.1882 88.3094C77.2315 88.2832 77.2691 88.2707 77.3033 88.2707C77.4843 88.2707 77.506 88.6138 77.3704 88.7393C77.3272 88.7655 77.2896 88.7769 77.2565 88.7769Z" fill="#D18D58"/>
<path d="M78.7097 71.0077C78.5013 71.0077 78.3396 70.5699 78.6004 70.5243C78.6072 70.5243 78.6129 70.5232 78.6197 70.5232C78.8099 70.5232 78.9773 70.9051 78.7689 70.9952C78.7496 71.0031 78.7291 71.0077 78.7097 71.0077Z" fill="#DB9F60"/>
<path d="M63.9437 72.2447C63.9061 72.2447 63.8685 72.2378 63.8344 72.223C63.5724 72.0771 63.7843 71.8434 63.979 71.8434C64.0553 71.8434 64.1293 71.8799 64.1726 71.9722C64.2421 72.1352 64.0918 72.2447 63.9437 72.2447Z" fill="#DB9F60"/>
<path d="M64.4802 54.6134C64.4209 54.6134 64.3628 54.6089 64.3059 54.5975C64.3526 54.6009 64.397 54.6066 64.4414 54.61C64.2934 54.5952 64.1465 54.5656 64.003 54.5279C64.0326 54.4231 64.1874 54.3638 64.3344 54.3638C64.4608 54.3638 64.5826 54.406 64.6248 54.4994C64.6396 54.5393 64.6441 54.5747 64.6396 54.6055C64.586 54.61 64.5325 54.6134 64.4802 54.6134Z" fill="#D18D58"/>
<path d="M58.9371 85.2199C58.6011 85.2199 58.3608 84.8094 58.5043 84.5107C58.3106 84.2109 58.5521 83.7549 58.9074 83.7549C58.9849 83.7549 59.068 83.7765 59.1546 83.8267C59.6454 84.0821 59.6602 84.8721 59.1808 85.148C59.0965 85.1982 59.0145 85.2199 58.9371 85.2199Z" fill="#D18D58"/>
<path d="M54.8416 88.9912C54.6844 88.9912 54.5068 88.9422 54.3109 88.8259C54.017 88.5295 54.0785 88.2034 54.2721 87.9834C54.2038 87.7485 54.2881 87.4704 54.5956 87.3894C54.6605 87.3803 54.7209 87.3757 54.7812 87.3757C55.3609 87.3757 55.6024 87.7805 55.5853 88.1829C55.5682 88.5865 55.2926 88.9912 54.8416 88.9912Z" fill="#D18D58"/>
<path d="M59.8141 76.9646C59.5954 76.9646 59.4006 76.8814 59.3312 76.6226C59.2765 76.1369 59.6079 75.9499 59.9519 75.9499C60.4815 75.9499 61.0396 76.3923 60.2662 76.8757C60.1284 76.9247 59.9655 76.9646 59.8141 76.9646Z" fill="#DB9F60"/>
<path d="M60.5488 89.6388C60.3062 89.6388 60.0647 89.4837 60.067 89.1725C60.067 88.8624 60.3073 88.7062 60.5488 88.7062C60.7902 88.7062 61.0316 88.8624 61.0316 89.1736C61.0316 89.4837 60.7902 89.6388 60.5488 89.6388Z" fill="#D18D58"/>
<path d="M64.216 82.6718C64.2308 82.6604 64.2455 82.649 64.2603 82.6376L64.2649 82.6353C64.2467 82.6467 64.233 82.6592 64.216 82.6718Z" fill="#D18D58"/>
<path d="M67.3719 92.6463C67.2648 92.6463 67.1589 92.6155 67.0769 92.5505C66.8252 92.4491 66.643 92.164 66.8229 91.8653C66.8537 91.8163 66.9118 91.7434 66.9596 91.7171C67.053 91.6373 67.1714 91.6009 67.2899 91.6009C67.4892 91.6009 67.6931 91.7057 67.799 91.8813C68.0541 92.3544 67.7022 92.6463 67.3719 92.6463ZM66.9243 92.1048C66.9209 92.1253 66.9186 92.1458 66.9152 92.1663L66.9197 92.2017C66.9197 92.1709 66.9197 92.1378 66.9243 92.1048Z" fill="#D18D58"/>
<path d="M71.9525 73.6379C71.71 73.6379 71.4685 73.4817 71.4685 73.1704C71.4697 72.8603 71.7111 72.7041 71.9525 72.7041C72.1928 72.7041 72.4343 72.8603 72.4343 73.1716C72.4343 73.4817 72.1928 73.6379 71.9525 73.6379Z" fill="#DB9F60"/>
<path d="M45.3692 85.6143C45.1665 85.6143 44.9604 85.4786 44.8829 85.2882C44.6107 85.0728 44.5891 84.5438 45.031 84.4275C45.0845 84.4127 45.1357 84.4047 45.1881 84.4047C45.6471 84.4047 46.007 84.9576 45.7541 85.3783C45.6585 85.5459 45.5161 85.6143 45.3692 85.6143Z" fill="#D18D58"/>
<path d="M59.1273 93.4022C59.0579 93.3919 58.9872 93.3805 58.9178 93.3702C58.9519 93.352 58.9838 93.3429 59.0123 93.3429C59.0578 93.3429 59.0966 93.3657 59.1273 93.4022Z" fill="#D18D58"/>
<path d="M59.01 94.0771C58.9678 94.0771 58.9189 94.0588 58.8642 94.0178C58.7743 93.8878 58.7743 93.5321 58.8654 93.4022C58.8836 93.3885 58.9018 93.3782 58.9178 93.3702C58.9872 93.3805 59.0578 93.3919 59.1273 93.4022C59.1853 93.4706 59.2138 93.5903 59.2138 93.7111C59.2138 93.8935 59.1455 94.0771 59.01 94.0771Z" fill="#C77A43"/>
<path d="M49.9408 87.2024C49.8451 87.2024 49.7483 87.1397 49.7483 87.0166C49.7483 86.8924 49.8451 86.8297 49.9408 86.8297C50.0387 86.8297 50.1333 86.8924 50.1333 87.0166C50.1333 87.1409 50.0365 87.2024 49.9408 87.2024Z" fill="#D18D58"/>
<path d="M69.2841 80.6026C69.2431 80.5114 69.2635 80.411 69.4048 80.3563C69.4253 80.3517 69.4458 80.3495 69.4663 80.3495C69.6052 80.3495 69.7203 80.4429 69.7749 80.5456C69.6121 80.5649 69.4481 80.5843 69.2841 80.6026Z" fill="#DB9F60"/>
<path d="M69.6406 80.81C69.6087 80.81 69.5711 80.8055 69.5301 80.7952C69.423 80.7713 69.324 80.6915 69.2841 80.6026C69.4481 80.5843 69.6121 80.5649 69.775 80.5456C69.7807 80.557 69.7864 80.5684 69.7921 80.5798C69.8376 80.6949 69.8034 80.81 69.6406 80.81Z" fill="#D18D58"/>
<path d="M44.3007 75.1998C44.2848 75.1998 44.27 75.1975 44.2529 75.194C43.9283 75.0584 44.2404 74.73 44.4807 74.73C44.4978 74.73 44.5126 74.7323 44.5274 74.7357C44.8542 74.8714 44.5422 75.1998 44.3007 75.1998Z" fill="#D18D58"/>
<path d="M74.0676 90.064C73.9697 90.064 73.8752 90.0013 73.8752 89.8771C73.8752 89.7528 73.9719 89.6901 74.0676 89.6901C74.1632 89.6901 74.26 89.7528 74.26 89.8771C74.26 90.0013 74.1632 90.064 74.0676 90.064Z" fill="#D18D58"/>
<path d="M61.6967 64.5298C61.6659 64.5298 61.6363 64.5218 61.6067 64.5047C61.3983 64.3793 61.5919 63.9746 61.8014 63.9746C61.8435 63.9746 61.8868 63.9917 61.9278 64.0316C62.0634 64.1764 61.8937 64.5298 61.6967 64.5298Z" fill="#DB9F60"/>
<path d="M40.1905 51.46C40.0482 51.46 40.0026 51.3426 40.022 51.224C40.0425 51.1066 40.1301 50.9892 40.2611 50.9892C40.2895 50.9892 40.3191 50.9949 40.351 51.0074C40.5708 51.0975 40.4603 51.3825 40.2804 51.4475C40.2474 51.4555 40.2178 51.46 40.1905 51.46Z" fill="#DB9F60"/>
<path d="M27.5383 37.949C27.118 37.8954 27.4745 37.3562 27.749 37.3562C27.7729 37.3562 27.7946 37.3596 27.8174 37.3676C28.1363 37.5203 27.7502 37.9205 27.5383 37.949Z" fill="#D18D58"/>
<path d="M45.7997 65.0896C45.5787 65.0896 45.351 64.9573 45.2781 64.7419C44.8316 64.637 44.6995 63.8788 45.269 63.7397C45.3361 63.7203 45.4022 63.7112 45.4682 63.7112C45.9625 63.7112 46.4056 64.2288 46.2644 64.727C46.1949 64.9813 45.999 65.0896 45.7997 65.0896Z" fill="#DB9F60"/>
<path d="M45.2656 71.1251C44.8237 71.1149 44.6301 70.8219 44.6153 70.5106C44.3909 70.3818 44.2497 70.1093 44.4239 69.8197C44.6608 69.5199 44.9194 69.4002 45.1551 69.4002C45.9706 69.4002 46.5412 70.8139 45.2656 71.1251Z" fill="#DB9F60"/>
<path d="M40.3455 58.2001C40.2669 58.2001 40.1826 58.1773 40.0938 58.1237C39.4355 57.5822 40.1746 56.8788 40.6678 56.8788C40.7669 56.8788 40.8569 56.9073 40.9218 56.9723C40.8386 57.0566 40.7851 57.1695 40.7851 57.3052C40.7851 57.3496 40.7908 57.3975 40.8044 57.4477C40.8341 57.5571 40.8876 57.6381 40.9548 57.6985C40.8193 57.9448 40.6109 58.2001 40.3455 58.2001Z" fill="#DB9F60"/>
<path d="M48.27 59.1304C48.2734 59.1088 48.2779 59.086 48.2813 59.0643L48.2836 59.0575C48.2757 59.0837 48.2745 59.1065 48.27 59.1304Z" fill="#DB9F60"/>
<path d="M57.3551 64.3805L57.3255 64.3588C57.3141 64.3406 57.3004 64.3235 57.2867 64.3064C57.3095 64.3337 57.3312 64.3588 57.3551 64.3805ZM57.2867 64.3064C57.2754 64.2904 57.2617 64.2733 57.2492 64.2539C57.2628 64.2721 57.2754 64.2892 57.2867 64.3064Z" fill="#DB9F60"/>
<path d="M40.0677 43.6745C39.9492 43.6745 39.8285 43.6289 39.7214 43.5183C39.3695 43.1546 39.7214 42.6507 40.1109 42.6507C40.2294 42.6507 40.3501 42.6963 40.4571 42.8069C40.8091 43.1705 40.456 43.6745 40.0677 43.6745Z" fill="#DB9F60"/>
<path d="M47.1379 46.6865C47.0206 46.6865 46.8988 46.6409 46.7929 46.5303C46.441 46.1667 46.7929 45.6616 47.1823 45.6616C47.2996 45.6616 47.4203 45.7084 47.5274 45.8178C47.8793 46.1826 47.5274 46.6865 47.1379 46.6865Z" fill="#DB9F60"/>
<path d="M27.8457 57.5138C27.2205 57.4944 26.4107 56.9016 26.2638 56.2848C26.257 55.9872 26.5258 55.7832 26.7923 55.7832C26.9198 55.7832 27.0462 55.8311 27.143 55.9382C27.2387 56.0477 27.3447 56.1491 27.4563 56.2438C27.9745 56.5128 28.7147 57.1319 27.8457 57.5138Z" fill="#D18D58"/>
<path d="M54.1673 78.2791C54.05 78.2791 53.9282 78.2335 53.8223 78.1229C53.4715 77.7592 53.8223 77.2553 54.2129 77.2553C54.3302 77.2553 54.4521 77.3009 54.5569 77.4115C54.9088 77.7752 54.5568 78.2791 54.1673 78.2791Z" fill="#DB9F60"/>
<path d="M42.7861 80.2822C42.6586 80.2822 42.5652 80.1636 42.5424 80.0462C42.5208 79.9265 42.5686 79.8091 42.7258 79.8091C42.7428 79.8091 42.7633 79.8102 42.785 79.8136C42.9672 79.8729 43.0947 80.1431 42.8909 80.2571C42.8556 80.2742 42.8191 80.2822 42.7861 80.2822Z" fill="#D18D58"/>
<path d="M52.5603 71.7134C52.3189 71.6712 51.844 71.1092 52.3166 71.043C52.558 71.0864 53.0318 71.6473 52.5603 71.7134Z" fill="#DB9F60"/>
<path d="M40.5961 73.1784C40.5482 73.1784 40.5015 73.1602 40.4571 73.1157C40.317 72.9709 40.4571 72.7691 40.6143 72.7691C40.6621 72.7691 40.7088 72.7874 40.7521 72.8307C40.8922 72.9777 40.7521 73.1784 40.5961 73.1784Z" fill="#D18D58"/>
<path d="M34.0017 54.1438C33.9721 54.0252 33.9425 53.9043 33.9129 53.7858C33.9789 53.8747 34.0131 53.9933 34.0017 54.1438Z" fill="#DB9F60"/>
<path d="M32.8218 54.3763C32.6647 54.3763 32.5246 54.1654 32.6715 54.0218C32.8184 53.7402 33.1509 53.584 33.4471 53.584C33.6372 53.584 33.8115 53.649 33.9128 53.7858C33.9425 53.9043 33.9721 54.0252 34.0017 54.1437C33.9994 54.17 33.996 54.1985 33.9914 54.227C33.9459 54.3319 33.873 54.374 33.7944 54.374C33.6167 54.374 33.4083 54.1586 33.422 53.9659L33.4174 53.967C33.2181 54.0001 33.086 54.1757 32.9562 54.3159C32.9141 54.3581 32.8663 54.3763 32.8218 54.3763ZM33.422 53.9648H33.4197H33.422Z" fill="#D18D58"/>
<path d="M50.7494 53.8325C50.5216 53.8325 50.3462 53.5703 50.6435 53.4312C50.7038 53.3867 50.7687 53.3674 50.8291 53.3674C51.058 53.3674 51.2334 53.6307 50.9339 53.7687C50.8747 53.8143 50.8109 53.8325 50.7494 53.8325Z" fill="#DB9F60"/>
<path d="M27.4483 68.1974C27.1727 68.1974 27.2376 67.6365 27.5064 67.5977C27.5155 67.5977 27.5223 67.5977 27.5303 67.5977C27.8322 67.5977 27.7365 68.0492 27.5611 68.1723C27.5189 68.1894 27.4813 68.1974 27.4483 68.1974Z" fill="#D18D58"/>
<path d="M61.0759 57.5378C61.0292 57.5378 60.9803 57.5184 60.937 57.475C60.7969 57.3291 60.937 57.1273 61.093 57.1273C61.1409 57.1273 61.1887 57.1467 61.232 57.19C61.372 57.3348 61.232 57.5378 61.0759 57.5378Z" fill="#DB9F60"/>
<path d="M32.9106 47.2121C32.8969 47.0217 32.8855 46.8359 32.8753 46.6455C33.0553 46.7515 33.1327 47.1403 32.9106 47.2121Z" fill="#DB9F60"/>
<path d="M32.8503 47.2212C32.5792 47.2212 32.4527 46.6193 32.791 46.6193C32.8206 46.6204 32.8491 46.6295 32.8753 46.6455C32.8856 46.8359 32.8969 47.0217 32.9106 47.2121C32.9049 47.2132 32.8992 47.2144 32.8947 47.2167C32.8799 47.2201 32.8651 47.2212 32.8503 47.2212Z" fill="#D18D58"/>
<path d="M42.0321 26.9325C42.0173 26.9325 42.0025 26.9313 41.9888 26.9291C41.6415 26.8424 41.8636 26.4844 42.0948 26.4844C42.1551 26.4844 42.2177 26.5107 42.2701 26.5734C42.4079 26.7489 42.2132 26.9325 42.0321 26.9325Z" fill="#DB9F60"/>
<path d="M40.3727 41.9028C40.0618 41.9028 39.7794 41.5813 39.8363 41.2666C39.5243 40.9816 39.7076 40.3477 40.1723 40.3477C40.2212 40.3477 40.2714 40.3546 40.326 40.3705C40.9125 40.5005 41.146 41.3214 40.7235 41.7443C40.6142 41.856 40.4912 41.9028 40.3727 41.9028Z" fill="#DB9F60"/>
<path d="M37.0004 47.0069C36.9127 47.0069 36.8193 46.9978 36.7168 46.9761C36.2681 46.7686 36.2317 46.3844 36.3809 46.08C36.2453 45.8531 36.2533 45.5396 36.5528 45.3675C36.7271 45.2911 36.8865 45.258 37.0266 45.258C37.5346 45.258 37.817 45.6947 37.8284 46.1325C37.8387 46.5702 37.5778 47.0069 37.0004 47.0069Z" fill="#DB9F60"/>
<path d="M38.9173 33.0364C38.7567 33.0364 38.6098 32.9703 38.5039 32.7879C38.2624 32.1723 38.7863 31.8747 39.2453 31.8747C39.7145 31.8747 40.1165 32.1882 39.5528 32.7902C39.3717 32.9167 39.1337 33.0364 38.9173 33.0364Z" fill="#DB9F60"/>
<path d="M43.2508 46.0789C43.0424 46.0789 42.8397 45.966 42.7702 45.7049C42.6677 45.315 42.9877 45.0619 43.2986 45.0619C43.5071 45.0619 43.7109 45.1759 43.7793 45.437C43.8829 45.8258 43.5617 46.0789 43.2508 46.0789Z" fill="#DB9F60"/>
<path d="M45.2985 37.7484C45.3099 37.7324 45.3224 37.7164 45.3338 37.7016L45.3407 37.6971C45.3236 37.7153 45.3122 37.7313 45.2985 37.7484Z" fill="#DB9F60"/>
<path d="M51.23 47.317C51.1651 47.317 51.1024 47.3045 51.0421 47.2794C50.7528 47.244 50.4794 46.9955 50.5865 46.633C50.6047 46.5737 50.6457 46.4813 50.6867 46.4414C50.7983 46.283 50.9828 46.2054 51.1685 46.2054C51.3291 46.2054 51.4942 46.2647 51.6104 46.3776C52.0649 46.861 51.6298 47.317 51.23 47.317ZM50.7585 46.8564C50.7608 46.8792 50.763 46.9009 50.7665 46.9225L50.7801 46.9579C50.7721 46.926 50.7642 46.8929 50.7585 46.8564Z" fill="#DB9F60"/>
<path d="M45.9124 19.9564C45.7256 19.9564 45.5411 19.8641 45.4546 19.6543L45.458 19.6554C45.5115 19.6725 45.5616 19.6805 45.6095 19.6816H45.6106C45.6117 19.6816 45.614 19.6816 45.6151 19.6816C45.9739 19.6782 46.1652 19.237 46.0035 18.9543C46.0012 18.9509 45.999 18.9474 45.9978 18.9429C46.1914 18.9566 46.3725 19.0717 46.4386 19.3157C46.5411 19.7044 46.2233 19.9564 45.9124 19.9564Z" fill="#DB9F60"/>
<path d="M50.7153 26.1629C50.5069 26.1629 50.3041 26.0501 50.2346 25.789C50.1321 25.3991 50.4522 25.146 50.7631 25.146C50.9716 25.146 51.1755 25.2589 51.2438 25.5199C51.3475 25.9098 51.0263 26.1629 50.7153 26.1629Z" fill="#DB9F60"/>
<path d="M26.2639 46.0983C26.0874 46.0983 25.9063 46.0219 25.8061 45.8805C25.4644 45.7266 25.3004 45.1862 25.7263 44.9422C25.8277 44.8829 25.9382 44.8556 26.0486 44.8556C26.4233 44.8556 26.7855 45.1748 26.7707 45.5784C26.7741 45.9364 26.5213 46.0983 26.2639 46.0983Z" fill="#D18D58"/>
<path d="M41.2873 57.8205C41.1654 57.8205 41.047 57.7817 40.9547 57.6985C40.8875 57.6381 40.834 57.5571 40.8044 57.4477C40.7907 57.3975 40.785 57.3496 40.785 57.3052C40.785 57.1695 40.8386 57.0566 40.9217 56.9723C41.0288 56.8662 41.1825 56.8058 41.334 56.8058C41.5413 56.8058 41.7452 56.9187 41.8146 57.1798C41.9171 57.5685 41.5982 57.8205 41.2873 57.8205Z" fill="#DB9F60"/>
<path d="M30.0041 53.9066H30.0018C29.7011 53.8952 29.7193 53.397 29.9699 53.397C30.004 53.397 30.0416 53.4061 30.0849 53.4278C30.2637 53.5418 30.2603 53.9066 30.0041 53.9066Z" fill="#D18D58"/>
<path d="M42.9888 51.134C42.9535 51.134 42.9137 51.1248 42.8659 51.1066C42.6916 50.9652 42.5573 50.3598 42.8556 50.3598C42.8909 50.3598 42.9319 50.369 42.9797 50.3872C43.154 50.5297 43.2884 51.134 42.9888 51.134Z" fill="#DB9F60"/>
<path d="M31.5736 46.4813C31.4904 46.4813 31.4084 46.4357 31.3799 46.3308C31.34 46.1758 31.4676 46.0743 31.5929 46.0743C31.6749 46.0743 31.7569 46.1199 31.7843 46.2237C31.8264 46.3799 31.6966 46.4813 31.5736 46.4813Z" fill="#D18D58"/>
<path d="M34.849 26.3351C34.6303 26.3351 34.4959 25.9566 34.6235 25.7605L34.6166 25.7571C34.5677 25.74 34.5187 25.7331 34.4697 25.7331C34.3217 25.7331 34.1736 25.7947 34.0346 25.8403C34.013 25.846 33.9914 25.8483 33.972 25.8483C33.7602 25.8483 33.6884 25.5017 33.9276 25.4356C34.0574 25.3501 34.2112 25.3125 34.3683 25.3125C34.8945 25.3125 35.4229 25.7537 35.0027 26.2758C34.9469 26.318 34.8968 26.3351 34.849 26.3351ZM34.6178 25.7571L34.6235 25.7594L34.6178 25.7571Z" fill="#D18D58"/>
<path d="M50.3314 34.3031C50.1629 34.2814 49.9237 34.2233 49.9829 34.0032C50.0353 33.8847 50.123 33.8402 50.2164 33.8402C50.5079 33.8402 50.8508 34.27 50.3314 34.3031Z" fill="#DB9F60"/>
<path d="M49.7095 53.4609C49.6275 53.4609 49.5456 53.4164 49.5171 53.3115C49.4761 53.1564 49.6048 53.055 49.7289 53.055C49.8121 53.055 49.8929 53.1006 49.9214 53.2043C49.9624 53.3605 49.8337 53.4609 49.7095 53.4609Z" fill="#DB9F60"/>
<path d="M57.5977 42.735C57.5145 42.735 57.4325 42.6894 57.4052 42.5857C57.3642 42.4295 57.4917 42.3292 57.617 42.3292C57.7002 42.3292 57.781 42.3736 57.8095 42.4785C57.8505 42.6336 57.7229 42.735 57.5977 42.735Z" fill="#DB9F60"/>
<path d="M37.562 19.489C37.5438 19.489 37.5255 19.4867 37.5062 19.4821C37.4492 19.465 37.4094 19.4274 37.3843 19.3772C37.5141 19.2381 37.6428 19.0991 37.7715 18.96C37.8775 19.1333 37.7716 19.489 37.562 19.489Z" fill="#C77A43"/>
<path d="M58.5442 6.76118C58.4382 6.76118 58.3266 6.72242 58.2241 6.63121C57.5385 5.83772 58.2184 5.15938 58.8539 5.15938C59.2423 5.15938 59.6136 5.41247 59.6477 6.04863C59.5669 6.42828 59.3061 6.57877 59.035 6.57877C58.9997 6.57877 58.9655 6.57649 58.9302 6.57079C58.8311 6.68479 58.6933 6.76118 58.5442 6.76118Z" fill="#DB9F60"/>
<path d="M61.4837 16.8611C61.3778 16.8611 61.2673 16.8235 61.166 16.7323C60.7821 16.3971 60.945 15.7165 61.4279 15.5728C61.4962 15.55 61.56 15.5397 61.6204 15.5397C62.0395 15.5397 62.2172 16.0756 62.003 16.3709C61.9769 16.6274 61.7434 16.8611 61.4837 16.8611Z" fill="#DB9F60"/>
<path d="M41.7406 21.8398C41.3124 21.7668 41.1905 21.1466 41.5652 20.9209C41.6893 20.8468 41.8055 20.7624 41.9194 20.6724C42.1403 20.3885 42.5071 20.0476 42.8066 20.0476C42.9877 20.0476 43.1448 20.1764 43.2257 20.5241C43.0913 21.1295 42.367 21.8101 41.7406 21.8398Z" fill="#DB9F60"/>
<path d="M67.8194 10.3342C67.6861 10.3342 67.57 10.2487 67.6395 10.056C67.6896 9.96364 67.8012 9.8998 67.9048 9.8998C67.9834 9.8998 68.0562 9.93856 68.0893 10.0343C68.1405 10.2259 67.9697 10.3342 67.8194 10.3342Z" fill="#DB9F60"/>
<path d="M60.593 11.1322C60.421 11.1322 60.2969 10.878 60.478 10.7583C60.5167 10.7343 60.5532 10.7229 60.5873 10.7229C60.7605 10.7229 60.8835 10.9772 60.7024 11.0969C60.6648 11.122 60.6283 11.1322 60.593 11.1322Z" fill="#DB9F60"/>
<path d="M53.3485 23.0049C53.2049 23.0049 53.0261 22.9092 52.9737 22.7792C52.9384 22.5991 53.0352 22.5273 53.1594 22.5273C53.3018 22.5273 53.4817 22.623 53.5341 22.753C53.5683 22.9331 53.4715 23.0049 53.3485 23.0049Z" fill="#DB9F60"/>
<path d="M63.331 9.73791C63.2479 9.73791 63.1636 9.71625 63.0941 9.67293C62.7821 9.66495 62.4826 9.2967 62.7377 8.97634C62.8481 8.83383 63.0087 8.76999 63.1704 8.76999C63.4506 8.76999 63.7364 8.96152 63.7672 9.27048C63.8036 9.57374 63.5667 9.73791 63.331 9.73791Z" fill="#DB9F60"/>
<path d="M68.7113 14.5638C68.6031 14.5638 68.5256 14.4624 68.5074 14.3609C68.4892 14.2583 68.5336 14.158 68.6691 14.158C68.6771 14.158 68.6839 14.158 68.693 14.1591C68.8662 14.1922 68.9744 14.4749 68.7762 14.5524C68.7546 14.5604 68.7318 14.5638 68.7113 14.5638Z" fill="#DB9F60"/>
<path d="M67.6395 8.37439C67.5939 8.37439 67.5472 8.35387 67.5108 8.30485C67.414 8.17488 67.5359 8.03009 67.6588 8.03009C67.7055 8.03009 67.7511 8.05061 67.7887 8.0985C67.8855 8.22846 67.7647 8.37439 67.6395 8.37439Z" fill="#DB9F60"/>
<path d="M106.203 36.9674C105.964 36.9674 105.744 36.7565 105.717 36.5194C105.515 36.2469 105.629 35.7453 106.072 35.7453C106.073 35.7453 106.073 35.7453 106.075 35.7453C106.078 35.7453 106.079 35.7453 106.081 35.7453C106.612 35.7453 106.899 36.4589 106.514 36.8283C106.417 36.9264 106.307 36.9674 106.203 36.9674Z" fill="#D6925B"/>
<path d="M105.441 44.7142C105.409 44.7142 105.379 44.7051 105.346 44.6857C105.145 44.558 105.302 44.2525 105.475 44.2525C105.529 44.2525 105.582 44.2798 105.629 44.3494C105.702 44.493 105.595 44.7142 105.441 44.7142Z" fill="#D6925B"/>
<path d="M109.921 39.5907C109.867 39.5508 109.835 39.4847 109.858 39.4003C109.866 39.3718 109.877 39.349 109.893 39.3308C109.902 39.4174 109.911 39.5041 109.921 39.5907Z" fill="#D6925B"/>
<path d="M110.048 39.634C110.003 39.634 109.956 39.6181 109.921 39.5907C109.911 39.5041 109.902 39.4174 109.893 39.3308C109.927 39.2863 109.98 39.2669 110.032 39.2669C110.145 39.2669 110.261 39.3593 110.222 39.5007C110.197 39.593 110.122 39.634 110.048 39.634Z" fill="#CC7E45"/>
<path d="M107.654 26.7763C107.63 26.7421 107.62 26.7079 107.621 26.676C107.634 26.709 107.642 26.7421 107.654 26.7763Z" fill="#CC7E45"/>
<path d="M103.92 68.3092C103.719 68.3092 103.501 68.2145 103.288 67.9831C103.068 67.5955 103.24 67.2934 103.511 67.1486C103.527 66.9263 103.679 66.7142 103.954 66.7142C103.972 66.7142 103.99 66.7153 104.01 66.7165C105.176 66.965 104.682 68.3092 103.92 68.3092Z" fill="#D6925B"/>
<path d="M105.776 60.8462C105.508 60.8462 105.203 60.7436 104.883 60.4871C104.642 60.1337 104.781 59.7734 105.067 59.5089C105.089 59.3459 105.203 59.1965 105.444 59.1395C105.514 59.1338 105.578 59.1327 105.641 59.1327C105.696 59.1327 105.748 59.1338 105.798 59.1373C105.88 59.1202 105.961 59.111 106.039 59.111C106.166 59.111 106.286 59.135 106.391 59.1863C106.467 59.2444 106.513 59.3174 106.544 59.3961C107.08 59.8772 106.601 60.8462 105.776 60.8462Z" fill="#D6925B"/>
<path d="M96.3617 61.9453C96.1066 61.9453 95.8618 61.707 95.8606 61.4493C95.7001 61.1712 95.8413 60.7186 96.2388 60.7186C96.2558 60.7186 96.2751 60.7186 96.2945 60.7208C96.7648 60.763 97.0154 61.3638 96.7284 61.7355C96.6225 61.8848 96.4915 61.9453 96.3617 61.9453Z" fill="#E0A564"/>
<path d="M108.124 48.2667C108.014 48.2667 107.884 48.2108 107.732 48.0774C107.507 47.5826 107.663 46.2487 108.355 46.2487C108.398 46.2487 108.443 46.2533 108.491 46.2647C108.727 46.3502 108.862 46.6364 108.766 46.8724C108.711 46.9955 108.669 47.1232 108.634 47.252C108.618 47.6647 108.483 48.2667 108.124 48.2667Z" fill="#D6925B"/>
<path d="M94.8391 69.5758C94.8049 69.5758 94.7685 69.5644 94.7321 69.5381C94.5498 69.3968 94.7207 69.1186 94.8892 69.1186C94.945 69.1186 95.0019 69.1505 95.0452 69.2303C95.101 69.3751 94.986 69.5758 94.8391 69.5758Z" fill="#D6925B"/>
<path d="M99.8993 64.9596C99.7809 64.9596 99.6578 64.8525 99.7113 64.7088C99.7432 64.6256 99.8105 64.5902 99.8788 64.5902C99.9973 64.5902 100.119 64.6974 100.065 64.8411C100.034 64.9243 99.9665 64.9596 99.8993 64.9596Z" fill="#D6925B"/>
<path d="M98.9187 52.0643C98.8594 52.0643 98.8025 52.0517 98.7592 52.0244C98.5473 51.826 98.7934 51.6595 99.0075 51.6595C99.0667 51.6595 99.1226 51.6721 99.167 51.6994C99.3766 51.8978 99.1328 52.0643 98.9187 52.0643Z" fill="#E0A564"/>
<path d="M101.588 73.8545C101.409 73.8545 101.359 73.7359 101.388 73.6173C101.414 73.4988 101.519 73.3802 101.647 73.3802C101.69 73.3802 101.734 73.3927 101.781 73.4212C101.826 73.452 101.854 73.4896 101.865 73.5307C101.856 73.5455 101.848 73.558 101.837 73.5729C101.776 73.6641 101.715 73.7553 101.654 73.8465C101.642 73.8499 101.629 73.8522 101.618 73.8545C101.608 73.8545 101.598 73.8545 101.588 73.8545Z" fill="#D6925B"/>
<path d="M101.654 73.8465C101.715 73.7553 101.776 73.6641 101.836 73.5729C101.848 73.5581 101.856 73.5455 101.865 73.5307C101.903 73.6561 101.791 73.8054 101.654 73.8465Z" fill="#CC7E45"/>
<path d="M91.3951 57.5389C91.3905 57.5389 91.3859 57.5389 91.3814 57.5389C90.9885 57.4066 91.3871 56.9734 91.6684 56.9734C91.7105 56.9734 91.7492 56.9825 91.7833 57.0042C92.0703 57.2185 91.6228 57.5389 91.3951 57.5389Z" fill="#E0A564"/>
<path d="M103.066 65.9116C102.914 65.9116 102.762 65.842 102.652 65.6733C102.39 65.2663 102.759 64.8593 103.13 64.8593C103.284 64.8593 103.437 64.9288 103.544 65.0976C103.806 65.5046 103.437 65.9116 103.066 65.9116Z" fill="#D6925B"/>
<path d="M87.7402 77.5084C87.1047 77.3727 85.8975 76.2087 86.6093 75.6033C86.6936 75.5463 86.7927 75.5201 86.8929 75.5201C87.0706 75.5201 87.2471 75.6056 87.3416 75.7629C87.4168 75.8941 87.5045 76.0172 87.599 76.1369C88.0739 76.5154 88.6991 77.2952 87.7402 77.5084Z" fill="#D6925B"/>
<path d="M94.4677 75.5224C94.273 75.5224 94.0736 75.2363 94.1294 75.0276L94.1226 75.0265C94.1192 75.0265 94.1169 75.0265 94.1135 75.0265C93.9097 75.0265 93.7423 75.1758 93.5851 75.2898C93.5464 75.3149 93.5076 75.3263 93.47 75.3263C93.2924 75.3263 93.1637 75.0573 93.355 74.933C93.5213 74.7266 93.7935 74.6263 94.0509 74.6263C94.4723 74.6263 94.8526 74.8965 94.6567 75.4084C94.5998 75.4893 94.5349 75.5224 94.4677 75.5224ZM94.1306 75.0265H94.1238H94.1306Z" fill="#D6925B"/>
<path d="M85.2324 88.3003C85.0342 88.3003 85 88.1487 85.0478 87.9971C85.0957 87.8454 85.2244 87.6949 85.3508 87.6949C85.418 87.6949 85.4864 87.7371 85.541 87.8477C85.5672 88.0108 85.4397 88.2228 85.295 88.2958C85.2722 88.2992 85.2517 88.3003 85.2324 88.3003Z" fill="#D6925B"/>
<path d="M94.9518 68.0526C94.8003 68.0526 94.7172 67.8942 94.7103 67.7357C94.7035 67.5772 94.7696 67.4188 94.9233 67.4188C94.9392 67.4188 94.9564 67.4199 94.9723 67.4233C95.216 67.4838 95.2524 68.0401 94.9575 68.0526C94.9564 68.0526 94.9529 68.0526 94.9518 68.0526Z" fill="#D6925B"/>
<path d="M68.3377 88.6367C68.1771 88.6367 67.9937 88.3243 68.2534 88.2297C68.2694 88.2251 68.2842 88.2228 68.299 88.2228C68.422 88.2228 68.496 88.371 68.4835 88.4884C68.4516 88.5956 68.397 88.6367 68.3377 88.6367Z" fill="#D6925B"/>
<path d="M79.794 90.2898C79.5423 90.2898 79.2826 90.0914 79.3703 89.7687C79.4296 89.4564 79.7485 89.2682 80.0503 89.2682C80.2667 89.2682 80.4716 89.364 80.5707 89.5795C80.7176 89.8816 80.442 90.1632 80.1642 90.1632C80.1437 90.1632 80.122 90.1621 80.1015 90.1587C80.0229 90.2487 79.909 90.2898 79.794 90.2898Z" fill="#D6925B"/>
<path d="M73.0016 91.3352C72.6987 91.3352 72.5324 91.0548 72.505 90.7743C72.4743 90.4927 72.5802 90.2134 72.8148 90.2134C72.9287 90.2134 73.0688 90.2761 73.2396 90.4334C73.4184 90.6911 73.5881 91.0833 73.2419 91.2851C73.1531 91.3193 73.0745 91.3352 73.0016 91.3352Z" fill="#D6925B"/>
<path d="M83.557 87.777C83.1208 87.777 82.9704 87.0748 83.4533 86.9425C83.4977 86.9322 83.5353 86.9265 83.5741 86.9265C84.0114 86.9265 84.1606 87.6288 83.6754 87.7611C83.6344 87.7713 83.5934 87.777 83.557 87.777Z" fill="#D6925B"/>
<path d="M77.5891 85.9107C77.4889 85.9107 77.3659 85.8651 77.2303 85.7546L77.1951 85.7318L77.2087 85.75L77.1803 85.7226C76.1894 85.1001 76.719 84.4264 77.49 84.4264C77.7372 84.4264 78.0094 84.4959 78.2633 84.6578C78.4957 84.7205 78.6596 84.8448 78.7667 84.9884C78.7815 85.0032 78.7975 85.0181 78.8123 85.034L78.802 85.0443C78.999 85.3646 78.9125 85.7443 78.5913 85.7443C78.4957 85.7443 78.3795 85.7101 78.244 85.6326C78.1506 85.6907 78.0458 85.7169 77.9433 85.7169C77.9228 85.7169 77.9023 85.7158 77.8807 85.7135C77.826 85.8309 77.7246 85.9107 77.5891 85.9107ZM77.1814 85.7158L77.1859 85.7203L77.2247 85.75C77.2099 85.7386 77.1962 85.7295 77.1814 85.7158Z" fill="#D6925B"/>
<path d="M84.5125 81.436C84.4738 81.436 84.4328 81.4303 84.3896 81.4177C84.3406 81.4018 84.2665 81.3698 84.2335 81.3368C83.9943 81.1681 83.9807 80.7941 84.1777 80.5866C84.2927 80.4715 84.4066 80.4247 84.5102 80.4247C84.7961 80.4247 85.0011 80.7793 84.9123 81.0335C84.8918 81.2387 84.7426 81.436 84.5125 81.436ZM84.6401 81.2615C84.6219 81.2672 84.6037 81.2707 84.5855 81.2741L84.6242 81.2695L84.6401 81.2615Z" fill="#D6925B"/>
<path d="M62.4005 85.75C61.9643 85.75 61.814 85.0477 62.2991 84.9154C62.3401 84.904 62.3811 84.8983 62.4176 84.8983C62.8549 84.8983 63.0041 85.6018 62.5212 85.7329C62.4791 85.7443 62.4392 85.75 62.4005 85.75Z" fill="#D6925B"/>
<path d="M67.3992 81.8213C66.963 81.8213 66.8127 81.119 67.2978 80.9868C67.3388 80.9754 67.3798 80.9708 67.4163 80.9708C67.8524 80.9708 68.0027 81.6731 67.5199 81.8042C67.4777 81.8156 67.4368 81.8213 67.3992 81.8213Z" fill="#D6925B"/>
<path d="M87.6446 87.8101C87.5034 87.8101 87.3974 87.7462 87.4669 87.5684C87.5318 87.4863 87.7209 87.4145 87.8701 87.4145C88.0102 87.4145 88.1161 87.4783 88.0489 87.6573C87.984 87.7383 87.7938 87.8101 87.6446 87.8101Z" fill="#CC7E45"/>
<path d="M67.2808 94.9721C67.0917 94.5958 67.3184 94.0349 67.6839 94.0349C67.7785 94.0349 67.881 94.0714 67.988 94.1569C68.136 94.3484 67.9185 94.5058 67.7215 94.5058C67.668 94.5058 67.6145 94.4944 67.5735 94.4659L67.5712 94.4693C67.5165 94.6278 67.5906 94.7942 67.6395 94.9436L67.6407 94.9527C67.5211 94.9595 67.4015 94.9664 67.2808 94.9721ZM67.5712 94.4659V94.467L67.5735 94.4659H67.5712Z" fill="#CC7E45"/>
<path d="M74.1906 81.9672C74.1097 81.9672 74.0402 81.9068 74.0505 81.7609C74.0266 81.5933 74.1587 81.4793 74.2692 81.4793C74.3512 81.4793 74.4195 81.5397 74.4104 81.6845C74.4343 81.8532 74.3022 81.9672 74.1906 81.9672Z" fill="#D6925B"/>
<path d="M89.7526 82.2579C89.5784 82.2579 89.518 81.9764 89.7116 81.9239C89.7276 81.9194 89.7446 81.9171 89.7595 81.9171C89.9349 81.9171 89.9941 82.1987 89.8005 82.2511C89.7834 82.2557 89.7674 82.2579 89.7526 82.2579Z" fill="#D6925B"/>
<path d="M81.032 75.9123C80.8577 75.9123 80.7974 75.6318 80.991 75.5794C81.007 75.5748 81.024 75.5725 81.0388 75.5725C81.2131 75.5725 81.2734 75.853 81.0787 75.9066C81.0627 75.91 81.0456 75.9123 81.032 75.9123Z" fill="#E0A564"/>
<path d="M62.2742 92.2837C62.1056 92.2837 61.912 92.1617 62.0031 91.9964C62.0384 91.9383 62.1113 91.9121 62.1899 91.9121C62.3436 91.9121 62.5179 92.009 62.4758 92.1583C62.4518 92.2461 62.3676 92.2837 62.2742 92.2837Z" fill="#D6925B"/>
<path d="M49.2289 83.1073C49.2255 83.1073 49.2244 83.1073 49.221 83.1073C48.8862 83.0423 49.1071 82.7117 49.3075 82.7117C49.3724 82.7117 49.4373 82.7459 49.4783 82.836C49.5364 82.9933 49.369 83.1073 49.2289 83.1073Z" fill="#D6925B"/>
<path d="M43.8043 67.4997C43.7758 67.4997 43.7508 67.4974 43.7303 67.4906C43.4501 67.3207 43.7781 67.0653 44.0161 67.0653C44.0754 67.0653 44.13 67.0813 44.1676 67.1201C44.3487 67.3298 44.0116 67.4997 43.8043 67.4997Z" fill="#E0A564"/>
<path d="M46.9887 88.6652C46.8645 88.6652 46.7461 88.6139 46.6527 88.4782C46.3759 87.9264 46.8873 87.622 47.3041 87.622C47.6799 87.622 47.9783 87.8671 47.5649 88.3984C47.4043 88.5306 47.188 88.6652 46.9887 88.6652Z" fill="#D6925B"/>
<path d="M54.3905 92.3727C53.9612 92.2518 53.533 92.123 53.1059 91.9885C53.3109 91.6863 53.5295 91.5598 53.7277 91.5598C54.0591 91.5598 54.3359 91.9098 54.3905 92.3727Z" fill="#D6925B"/>
<path d="M54.1457 93.5048C53.7938 93.4067 53.443 93.303 53.0922 93.1947C53.0637 93.1171 53.0489 93.0385 53.0501 92.9598C52.8212 92.8766 52.7016 92.6258 52.9476 92.2655C52.9544 92.2507 52.9601 92.2381 52.9681 92.2245L52.951 92.2416L52.9772 92.2074C53.0193 92.1264 53.0626 92.0534 53.1059 91.9885C53.533 92.123 53.9612 92.2518 54.3906 92.3727C54.4247 92.6508 54.3792 92.9689 54.2186 93.2767C54.2015 93.3611 54.1753 93.4352 54.1457 93.5048ZM52.9851 92.2096L52.9806 92.2131C52.9715 92.2279 52.9601 92.2427 52.9521 92.2575C52.9635 92.2416 52.9715 92.2267 52.9851 92.2096Z" fill="#CC7E45"/>
<path d="M52.0398 76.7366C51.8746 76.7366 51.7106 76.6511 51.6366 76.447C51.5102 76.0981 51.804 75.8439 52.0899 75.8439C52.2573 75.8439 52.419 75.9305 52.4931 76.1335C52.6218 76.4823 52.3257 76.7366 52.0398 76.7366Z" fill="#E0A564"/>
<path d="M56.7094 81.7552C56.5431 81.7552 56.3791 81.6685 56.3062 81.4656C56.1786 81.1167 56.4747 80.8625 56.7583 80.8625C56.9258 80.8625 57.0886 80.9491 57.1615 81.1521C57.2902 81.5009 56.9941 81.7552 56.7094 81.7552Z" fill="#D6925B"/>
<path d="M37.4298 83.1655L37.1781 82.9591C36.7988 82.6376 36.4253 82.3093 36.0551 81.9775C36.0984 81.8783 36.1793 81.7928 36.3103 81.7267C36.3592 81.7084 36.4093 81.6993 36.4617 81.6993C36.6474 81.6993 36.8341 81.8156 36.8945 81.9992C36.9423 82.1554 37.005 82.3047 37.0801 82.4495C37.0608 82.413 37.0426 82.3777 37.0232 82.3412C37.1348 82.6273 37.4833 82.8314 37.4298 83.1655Z" fill="#D6925B"/>
<path d="M36.972 83.5405C36.8353 83.5405 36.6975 83.4813 36.6064 83.3536C36.3673 83.0264 35.8787 82.3902 36.0552 81.9775C36.4253 82.3093 36.7989 82.6376 37.1781 82.9591L37.4298 83.1655C37.4276 83.1666 37.4275 83.1689 37.4275 83.17C37.39 83.4049 37.1827 83.5405 36.972 83.5405Z" fill="#CC7E45"/>
<path d="M42.7166 82.6695C42.7042 82.6661 42.7008 82.6649 42.7019 82.6649C42.7019 82.6649 42.703 82.6661 42.7041 82.6661L42.7166 82.6695Z" fill="#D6925B"/>
<path d="M42.9501 83.154C42.7678 83.154 42.6301 82.8474 42.7235 82.6718L42.7166 82.6695L42.7235 82.6706C42.6938 82.657 42.6631 82.6513 42.6312 82.6513C42.5514 82.6513 42.4672 82.6866 42.3852 82.722C42.3009 82.7584 42.2212 82.7938 42.1494 82.7938C42.0845 82.7938 42.0275 82.7641 41.9831 82.6775C42.0184 82.4107 42.2542 82.2967 42.5093 82.2967C42.9455 82.2967 43.4364 82.6262 43.0924 83.0902C43.0435 83.1347 42.9945 83.154 42.9501 83.154Z" fill="#D6925B"/>
<path d="M57.009 88.8681C56.7892 88.8681 56.5933 88.6275 56.8495 88.4919C56.8883 88.4759 56.927 88.4679 56.9657 88.4679C57.2345 88.4679 57.4475 88.8282 57.0591 88.8647C57.0431 88.867 57.0249 88.8681 57.009 88.8681Z" fill="#D6925B"/>
<path d="M44.7702 76.9851C44.7599 76.9851 44.7497 76.984 44.7371 76.9817C44.4934 76.9349 44.5618 76.4401 44.7906 76.4401C44.8146 76.4401 44.8408 76.4447 44.8681 76.4572C45.0537 76.5507 44.9934 76.9851 44.7702 76.9851Z" fill="#D6925B"/>
<path d="M29.3743 70.6657C29.3459 70.6657 29.3174 70.6623 29.2866 70.6577C29.2354 70.6452 29.1579 70.6201 29.1215 70.5893C28.863 70.4422 28.8163 70.066 28.9962 69.8391C29.1124 69.7 29.2342 69.6442 29.3493 69.6442C29.6226 69.6442 29.8412 69.9668 29.7775 70.2211C29.7763 70.4411 29.6283 70.6657 29.3743 70.6657Z" fill="#D6925B"/>
<path d="M38.7327 77.8128C38.3181 77.8128 38.1268 77.1527 38.5881 76.9806C38.6439 76.96 38.6963 76.9498 38.7452 76.9498C39.1598 76.9498 39.35 77.611 38.8888 77.7832C38.8341 77.8048 38.7817 77.8128 38.7327 77.8128Z" fill="#D6925B"/>
<path d="M33.1213 76.8016C32.9983 76.8016 32.9106 76.7411 32.9562 76.5713C33.0199 76.4755 33.2329 76.3774 33.3889 76.3774C33.5131 76.3774 33.6008 76.439 33.5529 76.6077C33.488 76.7035 33.2773 76.8016 33.1213 76.8016Z" fill="#D6925B"/>
<path d="M34.7556 71.0066C34.5894 71.0066 34.5142 70.7421 34.6987 70.6737C34.7215 70.6646 34.7419 70.6611 34.7613 70.6611C34.9264 70.6611 35.0039 70.9256 34.8171 70.9952C34.7966 71.0031 34.7761 71.0066 34.7556 71.0066Z" fill="#D6925B"/>
<path d="M25.3767 65.4202C25.2116 65.4202 25.1342 65.1557 25.321 65.0862C25.3415 65.0782 25.3619 65.0748 25.3824 65.0748C25.5475 65.0748 25.6238 65.3381 25.4393 65.4077C25.4166 65.4168 25.3961 65.4202 25.3767 65.4202Z" fill="#D6925B"/>
<path d="M22.2993 54.6933C22.2947 54.2999 22.2981 53.9055 22.3072 53.5121C22.4974 53.6843 22.6045 53.9682 22.5362 54.3752C22.4747 54.5222 22.3915 54.6237 22.2993 54.6933Z" fill="#CC7E45"/>
<path d="M32.594 49.9346C32.0712 49.9346 31.8708 49.0955 32.4528 48.9165C32.5097 48.8994 32.5644 48.8914 32.6156 48.8914C33.1372 48.8914 33.34 49.7294 32.758 49.9095C32.6999 49.9266 32.6464 49.9346 32.594 49.9346Z" fill="#D6925B"/>
<path d="M29.4096 61.007C29.2365 61.007 29.0679 60.877 29.2194 60.6695C29.2764 60.6114 29.3641 60.5795 29.4449 60.5795C29.5577 60.5795 29.6613 60.6399 29.667 60.7767C29.6625 60.9374 29.5361 61.007 29.4096 61.007Z" fill="#D6925B"/>
<path d="M25.8847 48.3123C25.7207 48.3123 25.6011 48.2359 25.6751 48.0215C25.7537 47.9167 25.9962 47.8175 26.1819 47.8175C26.3459 47.8175 26.4666 47.8939 26.3914 48.1071C26.3128 48.2131 26.0703 48.3123 25.8847 48.3123Z" fill="#D6925B"/>
<path d="M28.2548 41.4251C28.0463 41.4251 27.9654 41.0888 28.1989 41.0169C28.2206 41.0112 28.2434 41.0067 28.2627 41.0067C28.4723 41.0067 28.5532 41.343 28.3208 41.4137C28.2969 41.4217 28.2753 41.4251 28.2548 41.4251Z" fill="#D6925B"/>
<path d="M30.8548 42.108C30.7808 42.108 30.7 42.0886 30.6168 42.0453C30.118 41.7831 30.3959 41.0774 30.8548 41.0774C30.9289 41.0774 31.0097 41.0967 31.0917 41.1401C31.5917 41.4034 31.3138 42.108 30.8548 42.108Z" fill="#D6925B"/>
<path d="M27.3823 36.3666C27.2661 36.3666 27.0908 36.2948 26.9689 36.1967C27.0224 36.0713 27.076 35.947 27.1318 35.8216C27.4051 35.9003 27.7683 36.1899 27.4176 36.3643C27.4062 36.3654 27.3948 36.3666 27.3823 36.3666Z" fill="#D6925B"/>
<path d="M26.9689 36.1967C26.8174 36.0759 26.7491 35.9163 26.9746 35.8045C26.986 35.8034 26.9962 35.8022 27.0076 35.8022C27.0452 35.8022 27.0862 35.8091 27.1317 35.8216C27.0759 35.947 27.0224 36.0713 26.9689 36.1967Z" fill="#CC7E45"/>
<path d="M33.5005 33.049C33.4709 33.049 33.4379 33.0421 33.406 33.025C33.2056 32.919 33.3183 32.6374 33.5005 32.6374C33.5301 32.6374 33.5632 32.6443 33.5962 32.6625C33.7954 32.7674 33.6838 33.049 33.5005 33.049Z" fill="#D6925B"/>
<path d="M45.6106 19.6816H45.6095C45.5617 19.6805 45.5116 19.6725 45.458 19.6554L45.4546 19.6543C44.933 19.4844 45.1198 18.7274 45.5935 18.7274C45.6414 18.7274 45.6926 18.7365 45.7462 18.7536C45.8657 18.7912 45.9455 18.8608 45.9979 18.9429C45.999 18.9474 46.0013 18.9508 46.0035 18.9543C46.1653 19.237 45.9739 19.6771 45.6152 19.6816C45.614 19.6816 45.6118 19.6816 45.6106 19.6816Z" fill="#E0A564"/>
<path d="M37.3194 26.2769C37.1292 26.2769 36.9242 26.0318 37.1588 25.8916C37.1873 25.8779 37.2192 25.8722 37.2522 25.8722C37.415 25.8722 37.5893 26.025 37.4834 26.1892C37.4401 26.2519 37.3809 26.2769 37.3194 26.2769Z" fill="#E0A564"/>
<path d="M44.031 44.346C43.8101 44.346 43.694 43.8306 43.8967 43.7052C43.9354 43.6847 43.9707 43.6756 44.0026 43.6756C44.2212 43.6756 44.2759 44.1043 44.187 44.2639C44.1324 44.322 44.0789 44.346 44.031 44.346Z" fill="#D0975C"/>
<path d="M80.015 43.8455C79.441 43.8455 79.3487 42.9266 79.9615 42.849C79.9865 42.8456 80.0104 42.8445 80.0343 42.8445C80.6083 42.8445 80.7029 43.7645 80.0879 43.8409C80.0628 43.8443 80.0389 43.8455 80.015 43.8455Z" fill="#D0975C"/>
<path d="M82.1687 36.5843C82.1038 36.5843 82.0354 36.5695 81.9648 36.5387C81.909 36.5114 81.8281 36.4624 81.7951 36.4168C81.5411 36.1808 81.5878 35.7418 81.8532 35.5321C81.9853 35.4374 82.1072 35.3975 82.2165 35.3975C82.6014 35.3975 82.8121 35.89 82.6345 36.1865C82.5787 36.3997 82.4021 36.5843 82.1687 36.5843ZM82.1983 36.4031C82.2188 36.4031 82.2415 36.4031 82.262 36.4031L82.2962 36.394C82.2655 36.3997 82.2324 36.4019 82.1983 36.4031Z" fill="#D0975C"/>
<path d="M55.599 37.9901C55.0249 37.9901 54.9315 37.0712 55.5454 36.9925C55.5716 36.9902 55.5944 36.9879 55.6183 36.9879C56.1935 36.9879 56.2858 37.908 55.6707 37.9855C55.6468 37.9889 55.6218 37.9901 55.599 37.9901Z" fill="#D0975C"/>
<path d="M62.0918 34.2176C61.5178 34.2176 61.4256 33.2975 62.0383 33.2211C62.0634 33.2166 62.0873 33.2154 62.1112 33.2154C62.6863 33.2154 62.7774 34.1355 62.1647 34.213C62.1397 34.2164 62.1158 34.2176 62.0918 34.2176Z" fill="#D0975C"/>
<path d="M90.8941 47.211C90.3189 47.211 90.2266 46.2909 90.8416 46.2134C90.8656 46.21 90.8906 46.2077 90.9123 46.2077C91.4874 46.2077 91.5808 47.1277 90.9658 47.2053C90.9407 47.2087 90.9168 47.211 90.8941 47.211Z" fill="#D0975C"/>
<path d="M84.7938 44.558C84.7118 44.558 84.6366 44.5466 84.5876 44.5204C84.353 44.2764 84.6776 44.1157 84.9532 44.1157C85.1651 44.1157 85.3484 44.2126 85.2209 44.4406C85.1389 44.5136 84.9532 44.558 84.7938 44.558Z" fill="#D0975C"/>
<path d="M79.1995 54.74C78.9706 54.74 78.933 54.3718 79.179 54.341C79.1893 54.3398 79.1984 54.3387 79.2087 54.3387C79.4376 54.3387 79.4752 54.7069 79.2292 54.7377C79.2189 54.7389 79.2098 54.74 79.1995 54.74Z" fill="#D0975C"/>
<path d="M60.1443 49.0406L60.1456 49.0339L60.1443 49.0406Z" fill="#C78554"/>
<path d="M88.1287 38.4062C87.8986 38.4062 87.8621 38.0379 88.1082 38.0072C88.1161 38.0049 88.1276 38.0049 88.1355 38.0049C88.3667 38.0049 88.4031 38.3731 88.156 38.4039C88.148 38.4051 88.1366 38.4062 88.1287 38.4062Z" fill="#D0975C"/>
<path d="M54.3575 45.6126C54.1491 45.6126 53.8894 45.4222 54.0352 45.2272C54.0762 45.1771 54.1423 45.1566 54.2151 45.1566C54.4076 45.1566 54.6434 45.3105 54.5636 45.4963C54.5283 45.5784 54.4475 45.6126 54.3575 45.6126Z" fill="#D0975C"/>
<path d="M54.5637 39.3912C54.288 39.3912 54.3518 38.779 54.6081 38.7288C54.6217 38.7277 54.6331 38.7265 54.6456 38.7265C54.944 38.7265 54.8381 39.2282 54.6844 39.3604C54.6388 39.3821 54.599 39.3912 54.5637 39.3912Z" fill="#D0975C"/>
<path d="M86.6628 57.5856C86.4566 57.5856 86.2835 57.4693 86.1651 57.3052C86.1548 57.3052 86.1446 57.3063 86.1343 57.3063C85.8906 57.3063 85.6481 57.1524 85.6389 56.8332C85.6879 56.2289 86.049 55.9872 86.4271 55.9872C87.0568 55.9872 87.731 56.6553 87.0818 57.4283C86.9338 57.5389 86.7926 57.5856 86.6628 57.5856Z" fill="#D0975C"/>
<path d="M75.8282 49.4273C74.8636 49.3121 75.3362 48.0238 75.8453 48.0238C76.0138 48.0238 76.1847 48.1641 76.3088 48.5357C76.3509 48.9051 76.3054 49.4136 75.8282 49.4273Z" fill="#D0975C"/>
<path d="M88.8917 51.704C88.8495 51.704 88.8085 51.6983 88.7641 51.688C88.1753 51.5489 88.3348 50.6893 88.8678 50.6893C88.9099 50.6893 88.9509 50.695 88.9965 50.7053C89.5841 50.8455 89.4247 51.704 88.8917 51.704Z" fill="#D0975C"/>
<path d="M93.4496 45.5944C93.3379 45.5944 93.2229 45.5522 93.1204 45.4518C93.0794 45.4062 93.0202 45.331 93.0032 45.2763C92.8483 44.9639 93.0476 44.5649 93.3721 44.46C93.4473 44.4406 93.5156 44.4303 93.5771 44.4303C94.1135 44.4303 94.1921 45.1075 93.8778 45.3561C93.7799 45.4963 93.6192 45.5944 93.4496 45.5944ZM93.3915 45.4074C93.4109 45.4142 93.4302 45.4211 93.4496 45.429L93.4849 45.4336C93.4553 45.4268 93.4245 45.4176 93.3915 45.4074Z" fill="#D0975C"/>
<path d="M67.8867 37.5135C67.8468 37.5135 67.8046 37.5078 67.7602 37.4975C67.1725 37.3585 67.332 36.4988 67.865 36.4988C67.9049 36.4988 67.9482 36.5045 67.9926 36.5148C68.5792 36.6539 68.4209 37.5135 67.8867 37.5135Z" fill="#C78554"/>
<path d="M80.8315 66.3368C80.5867 66.3368 80.3429 66.1841 80.3338 65.866C80.3179 65.4761 80.672 65.1808 81.0342 65.1808C81.1424 65.1808 81.2518 65.2082 81.3531 65.2663C81.8679 65.5388 81.5775 66.1738 81.1687 66.2274C81.073 66.3003 80.9522 66.3368 80.8315 66.3368Z" fill="#D0975C"/>
<path d="M97.9813 58.7394C97.9403 58.7394 97.8993 58.7348 97.8549 58.7246C97.2672 58.5843 97.4255 57.7259 97.9586 57.7259C97.9984 57.7259 98.0417 57.7316 98.0861 57.7418C98.675 57.8809 98.5155 58.7394 97.9813 58.7394Z" fill="#D0975C"/>
<path d="M89.7266 66.4235C89.5136 66.4235 89.2891 66.1328 89.5876 66.0039C89.6104 65.9982 89.6343 65.9948 89.6571 65.9948C89.8246 65.9948 90.0079 66.1373 89.9111 66.3152C89.8632 66.3938 89.7949 66.4235 89.7266 66.4235Z" fill="#D0975C"/>
<path d="M84.1469 61.6888C84.131 61.6888 84.1139 61.6865 84.0968 61.6819C83.8611 61.626 83.926 61.2829 84.1389 61.2829C84.1549 61.2829 84.1731 61.284 84.1902 61.2886C84.4247 61.3444 84.361 61.6888 84.1469 61.6888Z" fill="#D0975C"/>
<path d="M82.4078 40.1721C82.4089 40.1607 82.409 40.1482 82.409 40.1368C82.409 39.9954 82.3588 39.8586 82.2746 39.7458C82.319 39.7275 82.3634 39.7173 82.4044 39.7173C82.5353 39.7173 82.6287 39.8142 82.516 40.0399C82.4909 40.0912 82.4522 40.1357 82.4078 40.1721Z" fill="#D0975C"/>
<path d="M98.3651 49.4159C98.348 49.4159 98.332 49.4136 98.3138 49.4102C98.0792 49.3543 98.1419 49.0111 98.356 49.0111C98.3731 49.0111 98.389 49.0123 98.4072 49.0168C98.6419 49.0727 98.5781 49.4159 98.3651 49.4159Z" fill="#D0975C"/>
<path d="M70.5938 64.5503C70.4196 64.5503 70.2784 64.2345 70.3604 64.0533C70.4162 63.9769 70.4743 63.9461 70.5278 63.9461C70.702 63.9461 70.8432 64.2619 70.7613 64.4432C70.7066 64.5196 70.6485 64.5503 70.5938 64.5503Z" fill="#D0975C"/>
<path d="M92.8426 37.7962C92.8267 37.7962 92.8096 37.794 92.7925 37.7906C92.5567 37.7347 92.6194 37.3915 92.8335 37.3915C92.8506 37.3915 92.8665 37.3938 92.8847 37.3972C93.1194 37.4531 93.0556 37.7962 92.8426 37.7962Z" fill="#D0975C"/>
<path d="M63.9198 44.2593C63.692 44.2593 63.4108 43.9161 63.6511 43.7622C63.6795 43.7463 63.7114 43.7383 63.7456 43.7383C63.9551 43.7383 64.2227 44.029 64.0565 44.2035C64.0177 44.2434 63.9699 44.2593 63.9198 44.2593Z" fill="#C78554"/>
<path d="M100.22 28.7475C100.177 28.7475 100.135 28.7384 100.097 28.7224C99.8514 28.5582 100.062 28.3713 100.244 28.3713C100.345 28.3713 100.436 28.4271 100.441 28.5708C100.437 28.6928 100.33 28.7475 100.22 28.7475Z" fill="#D0975C"/>
<path d="M96.1009 33.057C95.8789 33.057 95.6761 32.976 95.618 32.7092C95.5884 32.2646 95.8846 32.0959 96.1978 32.0959C96.7137 32.0959 97.2763 32.5542 96.4973 32.992C96.3754 33.0285 96.2353 33.057 96.1009 33.057Z" fill="#D0975C"/>
<path d="M96.2298 45.1486C95.9918 45.1486 95.7526 44.989 95.7674 44.6823C95.7799 44.3973 96.0009 44.2593 96.2207 44.2593C96.4587 44.2593 96.6978 44.4189 96.683 44.7256C96.6705 45.0106 96.4508 45.1486 96.2298 45.1486Z" fill="#D0975C"/>
<path d="M100.001 38.6798C100.014 38.6695 100.029 38.6604 100.044 38.6502L100.048 38.6479C100.03 38.6581 100.017 38.6695 100.001 38.6798Z" fill="#D0975C"/>
<path d="M102.512 48.2952C102.433 48.2838 102.359 48.2564 102.298 48.2097C102.059 48.1059 101.889 47.8209 102.075 47.5416C102.109 47.4971 102.166 47.4298 102.211 47.407C102.3 47.3409 102.403 47.3113 102.506 47.3113C102.568 47.3113 102.63 47.3215 102.688 47.3409C102.633 47.6579 102.573 47.9782 102.512 48.2952ZM102.158 47.7924C102.155 47.8049 102.152 47.8186 102.151 47.8323L102.152 47.8528C102.154 47.8334 102.155 47.8129 102.158 47.7924Z" fill="#D0975C"/>
<path d="M102.585 48.2997C102.562 48.2997 102.536 48.2975 102.512 48.2952C102.573 47.9782 102.633 47.6579 102.688 47.3409C102.821 47.3854 102.937 47.4755 103.004 47.5997C103.229 48.0421 102.899 48.2997 102.585 48.2997Z" fill="#C78554"/>
<path d="M107.782 30.4268C107.544 30.4268 107.304 30.2672 107.319 29.9605C107.333 29.6755 107.553 29.5376 107.775 29.5376C107.883 29.5376 107.991 29.5706 108.077 29.6367C108.121 29.8043 108.168 29.9731 108.21 30.1418C108.145 30.3333 107.964 30.4268 107.782 30.4268Z" fill="#C78554"/>
<path d="M108.21 30.1418C108.168 29.9731 108.121 29.8043 108.077 29.6367C108.177 29.7143 108.244 29.8374 108.237 30.0039C108.234 30.054 108.226 30.1008 108.21 30.1418Z" fill="#BD7340"/>
<path d="M81.9613 40.6499C81.7609 40.6499 81.5593 40.5085 81.4921 40.3181C81.2427 40.1015 81.2461 39.5976 81.6698 39.5064C81.713 39.4961 81.754 39.4915 81.7961 39.4915C81.9898 39.4915 82.1617 39.5953 82.2745 39.7458C82.3587 39.8586 82.4089 39.9954 82.4089 40.1368C82.4089 40.1482 82.4089 40.1608 82.4077 40.1722C82.402 40.2656 82.3736 40.358 82.3167 40.4424C82.2233 40.5894 82.0923 40.6499 81.9613 40.6499Z" fill="#D0975C"/>
<path d="M91.4598 54.4767C91.2218 54.4767 90.9826 54.317 90.9974 54.0104C91.01 53.7253 91.231 53.5874 91.4519 53.5874C91.6911 53.5874 91.9302 53.747 91.9154 54.0548C91.9017 54.3398 91.6819 54.4767 91.4598 54.4767Z" fill="#D0975C"/>
<path d="M82.9363 48.1743C82.917 48.1743 82.8976 48.172 82.8748 48.1652C82.6447 48.082 82.7529 47.7206 82.9374 47.7206C82.9796 47.7206 83.0252 47.74 83.073 47.7844C83.1801 47.9144 83.1106 48.1743 82.9363 48.1743Z" fill="#D0975C"/>
<path d="M94.552 49.303C94.511 49.303 94.4632 49.2836 94.4108 49.2392C94.3311 49.1115 94.3459 48.7729 94.4382 48.6532C94.4906 48.619 94.5349 48.6041 94.5737 48.6041C94.7046 48.6041 94.7627 48.7786 94.757 48.953C94.7502 49.1274 94.6785 49.303 94.552 49.303Z" fill="#D0975C"/>
<path d="M86.2301 42.3634C86.1345 42.3634 86.0388 42.2995 86.0445 42.1764C86.049 42.0624 86.1368 42.0077 86.2267 42.0077C86.3224 42.0077 86.4169 42.0704 86.4112 42.1935C86.4067 42.3075 86.319 42.3634 86.2301 42.3634Z" fill="#D0975C"/>
<path d="M94.3209 26.3317C94.2309 26.3317 94.1717 26.2724 94.1421 26.1926C94.3129 26.1139 94.4826 26.0375 94.6534 25.9634C94.6397 26.0877 94.5668 26.2108 94.4097 26.3146C94.3767 26.326 94.3471 26.3317 94.3209 26.3317Z" fill="#D0975C"/>
<path d="M105.257 37.1498C105.223 37.1498 105.184 37.1441 105.137 37.1293C104.903 37.0757 104.775 36.7291 105.088 36.7018C105.393 36.7018 105.533 37.1498 105.257 37.1498Z" fill="#C78554"/>
<path d="M99.5918 53.047C99.4961 53.047 99.4016 52.982 99.405 52.8589C99.4107 52.746 99.4996 52.6913 99.5884 52.6913C99.6841 52.6913 99.7786 52.754 99.7729 52.8771C99.7684 52.9911 99.6795 53.047 99.5918 53.047Z" fill="#D0975C"/>
<path d="M109.057 46.1473C108.962 46.1473 108.866 46.0834 108.873 45.9614C108.878 45.8463 108.966 45.7916 109.054 45.7916C109.149 45.7916 109.246 45.8554 109.241 45.9785C109.234 46.0925 109.146 46.1473 109.057 46.1473Z" fill="#C78554"/>
<path d="M62.8687 50.3598C64.7285 52.8532 66.8902 52.2478 69.7648 50.2675C69.0997 50.3644 68.3548 50.1866 67.4938 49.6735C62.035 46.4141 70.1178 41.2586 74.5699 30.689C70.9356 37.7335 59.649 46.0458 62.8687 50.3598Z" fill="#BF7644"/>
<path d="M47.7006 10.2692C45.7507 11.5107 43.8601 12.8492 42.0561 14.2982C40.2498 15.745 38.5243 17.2932 36.8831 18.9303C33.6042 22.2046 30.6749 25.8449 28.2365 29.8032C27.0167 31.7812 25.9143 33.8334 24.9519 35.9539C23.9906 38.0733 23.1717 40.26 22.5135 42.4968C21.1957 46.9659 20.5238 51.6493 20.6923 56.327C20.8518 61.0024 21.846 65.6596 23.6717 69.9782C24.5817 72.1364 25.6944 74.2079 26.9723 76.1688C28.2524 78.1298 29.7012 79.9767 31.2785 81.7016C32.8582 83.4254 34.5654 85.0272 36.3775 86.5002C38.1895 87.9731 40.0835 89.331 42.072 90.5645C44.0651 91.7844 46.1494 92.8572 48.3099 93.7522C50.4715 94.6437 52.7061 95.3597 54.9862 95.8818C59.543 96.9387 64.2786 97.1895 68.9208 96.6844C73.5675 96.1817 78.122 94.9299 82.3839 93.0339C86.6514 91.1425 90.6239 88.6093 94.1648 85.5813C97.7034 82.5475 100.816 79.0201 103.373 75.1279C104.65 73.1807 105.791 71.1445 106.783 69.0411C107.775 66.9342 108.618 64.7613 109.31 62.5404C109.995 60.3173 110.536 58.0508 110.91 55.757C111.28 53.4643 111.505 51.1476 111.567 48.8265C111.703 44.1841 111.231 39.536 110.241 35.0111C109.257 30.4815 107.742 26.0831 105.851 21.8637C107.664 26.1173 109.086 30.5374 110.013 35.0589C110.936 39.5805 111.342 44.208 111.145 48.8105C110.952 53.413 110.147 57.9835 108.747 62.3625C108.041 64.5492 107.187 66.688 106.189 68.7561C105.19 70.823 104.041 72.8182 102.767 74.7255C100.22 78.5436 97.1317 81.9935 93.6306 84.9508C90.1262 87.9047 86.2049 90.3582 82.0183 92.1994C77.8294 94.0406 73.3626 95.2457 68.8194 95.7177C64.2763 96.1931 59.6591 95.9217 55.214 94.89C52.9908 94.3769 50.8121 93.6758 48.7028 92.8036C46.597 91.9269 44.5606 90.8758 42.6153 89.6798C40.678 88.4759 38.8125 87.1306 37.0415 85.6862C35.2727 84.2348 33.5928 82.6775 32.0462 80.9948C30.5018 79.3131 29.0839 77.513 27.8322 75.6056C26.5828 73.696 25.494 71.6815 24.6034 69.5815C23.7116 67.4826 23.0021 65.3039 22.5066 63.0762C22.0055 60.8497 21.7117 58.5752 21.6171 56.2928C21.4292 51.7234 22.0283 47.1278 23.2754 42.7168C23.8984 40.5096 24.6842 38.348 25.6045 36.2446C26.5213 34.1389 27.5794 32.0948 28.7547 30.119C31.1168 26.1732 33.9345 22.4953 37.1257 19.1686C38.7225 17.5064 40.4069 15.9262 42.1768 14.4453C43.9455 12.9632 45.7849 11.562 47.7006 10.2692Z" fill="#AA5631"/>
<path d="M76.1575 26.001C76.5208 24.8872 76.8112 23.7505 77.0607 22.6036C77.3021 21.4556 77.49 20.2938 77.6233 19.1264C77.8978 16.7893 77.9365 14.4236 77.7452 12.0705C77.637 10.8951 77.4695 9.72309 77.2155 8.56592C76.9524 7.4133 76.6233 6.26753 76.1541 5.17534C75.6849 4.08429 75.0767 3.03998 74.2828 2.14503C74.1803 2.03786 74.071 1.93411 73.9673 1.82809C73.9138 1.77564 73.8614 1.72206 73.8068 1.6719L73.6336 1.52825C73.5175 1.4359 73.4093 1.33216 73.2863 1.24893L72.9138 1.00267C72.7886 0.921729 72.6507 0.862446 72.5209 0.791762C72.4537 0.7587 72.3899 0.721076 72.3227 0.692575L72.1143 0.61505L71.9059 0.538666C71.8717 0.527265 71.8375 0.512443 71.8022 0.502183L71.6952 0.477102L71.2669 0.377914C71.825 0.554626 72.341 0.827104 72.8056 1.16457C73.2669 1.50773 73.661 1.92613 74.0186 2.36962C74.1826 2.60448 74.3682 2.82223 74.5106 3.07191L74.7372 3.43559L74.9388 3.81409C75.0801 4.06263 75.1905 4.32941 75.3158 4.58592C75.4331 4.847 75.5356 5.11606 75.645 5.38055C76.039 6.45906 76.3454 7.57177 76.5641 8.70272C76.7919 9.83368 76.949 10.9794 77.0459 12.1309C77.1506 13.2824 77.1917 14.4407 77.1951 15.599C77.2053 16.7573 77.1563 17.9179 77.0789 19.0762C77.0641 19.3658 77.0356 19.6543 77.0105 19.945C76.9843 20.2334 76.9604 20.523 76.9285 20.8126C76.8955 21.101 76.8705 21.3906 76.8352 21.679L76.7236 22.5455C76.5687 23.6992 76.3705 24.8484 76.1575 26.001Z" fill="#AA5631"/>
<path d="M63.2775 8.76998C62.4825 9.0094 61.7058 9.31494 60.9643 9.67406C60.2127 10.0252 59.4951 10.4276 58.7913 10.8575C57.3881 11.7194 56.0796 12.7124 54.8541 13.7874C52.402 15.941 50.2642 18.4104 48.4283 21.0805C47.5092 22.4155 46.6596 23.7996 45.8965 25.2338C45.5081 25.9475 45.1494 26.6771 44.7997 27.4136C44.6232 27.7796 44.4638 28.1558 44.2975 28.5274C44.1289 28.898 43.9751 29.2776 43.8237 29.6573C43.6676 30.0346 43.5219 30.4165 43.3784 30.7996L43.1677 31.3776L42.9684 31.9602C42.8351 32.3478 42.7019 32.7354 42.5857 33.1322C42.4684 33.5255 42.3443 33.9177 42.2372 34.3179C42.0083 35.1102 41.8089 35.914 41.6267 36.7246C41.5413 37.1316 41.4468 37.5352 41.3705 37.9456C41.2942 38.356 41.2167 38.7653 41.1495 39.178C40.6097 42.4785 40.4445 45.917 40.8955 49.3874C40.9605 49.8217 41.0174 50.2538 41.0948 50.6882C41.1825 51.1214 41.2566 51.5523 41.3591 51.9844C41.5572 52.8475 41.7987 53.7048 42.088 54.5507C42.2372 54.9749 42.3784 55.3967 42.5606 55.8117L42.8192 56.433C42.9069 56.6405 43.0094 56.8434 43.105 57.0475L43.4012 57.654L43.728 58.2503C43.8396 58.4464 43.9433 58.6459 44.0617 58.8386L44.425 59.4132C45.4011 60.9352 46.5855 62.3215 47.9135 63.5049C49.2426 64.6871 50.7141 65.6573 52.2437 66.4098C53.7732 67.1634 55.3632 67.6912 56.9519 68.0424C58.5441 68.3867 60.1363 68.5645 61.7183 68.5622C62.1534 68.5611 62.5053 68.2077 62.5041 67.7722C62.5041 67.4769 62.3424 67.2204 62.101 67.0858L62.085 67.0756C60.7582 66.3357 59.4883 65.6015 58.3129 64.7909C57.1376 63.9871 56.0579 63.1161 55.1069 62.1858C53.1947 60.3207 51.8439 58.2024 51.0159 55.9348C49.3554 51.4041 49.6219 46.1894 50.7745 41.0124C50.9248 40.3648 51.0797 39.7161 51.2528 39.0686C51.3325 38.7448 51.4339 38.4221 51.5227 38.0995C51.6093 37.7746 51.7152 37.4519 51.8109 37.1293C51.9031 36.8055 52.0125 36.4851 52.1184 36.1625C52.2232 35.841 52.3302 35.5184 52.4396 35.198L52.6047 34.7158L52.779 34.2346C52.8894 33.9131 53.0045 33.5916 53.1263 33.2724C53.3655 32.6328 53.6024 31.9898 53.8598 31.3537C53.9873 31.0345 54.1058 30.7118 54.2413 30.396L54.632 29.4395C55.165 28.1683 55.7174 26.8971 56.3016 25.6362C57.4702 23.1132 58.7196 20.6062 60.0919 18.1357C60.7776 16.901 61.4905 15.6697 62.2513 14.4555C62.4427 14.1557 62.6306 13.841 62.8287 13.5435C62.9267 13.393 63.0258 13.2413 63.1237 13.0863C63.2194 12.9312 63.3241 12.7853 63.4255 12.6337C63.8253 12.0203 64.2535 11.4343 64.6806 10.805L64.7239 10.74C65.1271 10.1483 64.971 9.34116 64.3788 8.93871C64.0462 8.71184 63.6385 8.66396 63.2775 8.76998Z" fill="#FAC891"/>
<path d="M82.0183 62.2291C79.9968 65.1523 75.9912 65.8831 73.0699 63.8606C70.1486 61.837 69.4197 57.8262 71.4401 54.903C73.4617 51.9788 77.4672 51.248 80.3886 53.2716C83.3099 55.2941 84.0388 59.3049 82.0183 62.2291Z" fill="white"/>
<path d="M82.0183 62.2291L81.7689 62.0558C80.5787 63.7785 78.6676 64.7008 76.7235 64.702C75.5208 64.7008 74.3067 64.3485 73.2407 63.6109C71.5209 62.4195 70.5996 60.5076 70.5996 58.5592C70.5996 57.3553 70.9526 56.1411 71.6895 55.0752C72.8797 53.3525 74.7907 52.4302 76.7349 52.4302C77.9375 52.4302 79.1516 52.7825 80.2165 53.5201C81.9363 54.7115 82.8588 56.6245 82.8588 58.5718C82.8588 59.7757 82.5057 60.9899 81.7689 62.0558L82.0183 62.2291L82.2666 62.4013C83.0741 61.2316 83.4635 59.8931 83.4635 58.5718C83.4635 56.4341 82.4488 54.3307 80.5593 53.0219C79.3908 52.2136 78.0549 51.8248 76.7349 51.8248C74.5994 51.8248 72.4981 52.8395 71.1918 54.7309C70.3843 55.9006 69.9936 57.2379 69.9948 58.5592C69.9936 60.6969 71.0084 62.8003 72.8967 64.1091C74.0653 64.9186 75.4012 65.3073 76.7235 65.3062C78.859 65.3073 80.9591 64.2915 82.2666 62.4013L82.0183 62.2291Z" fill="#994D2B"/>
<path d="M74.8375 59.4565C74.686 59.7107 74.3569 59.7951 74.1029 59.6435C73.8501 59.4918 73.767 59.1635 73.9161 58.9093C74.0688 58.655 74.3968 58.5707 74.6507 58.7223C74.9047 58.8739 74.9879 59.2023 74.8375 59.4565ZM73.3205 60.4666C73.0688 60.8907 72.521 61.0298 72.0973 60.7778C71.6748 60.5247 71.5347 59.9775 71.7852 59.5534C72.0381 59.1293 72.5859 58.9902 73.0084 59.2422C73.4332 59.4941 73.571 60.0425 73.3205 60.4666ZM76.973 62.936C77.8795 61.4094 77.3796 59.4371 75.8546 58.5285C74.3307 57.621 72.3581 58.1226 71.4504 59.648C71.1053 60.2317 70.9664 60.8793 71.0085 61.5086C71.4766 62.4218 72.1679 63.2358 73.0699 63.8606C73.4446 64.1205 73.8398 64.3337 74.2441 64.5036C75.3273 64.4922 76.3773 63.9358 76.973 62.936Z" fill="#42180B"/>
<path d="M73.0083 59.2421C72.5858 58.9902 72.038 59.1293 71.7852 59.5534C71.5346 59.9775 71.6747 60.5247 72.0972 60.7778C72.5209 61.0298 73.0687 60.8907 73.3204 60.4666C73.571 60.0425 73.4331 59.4941 73.0083 59.2421Z" fill="white"/>
<path d="M74.6506 58.7223C74.3967 58.5706 74.0687 58.655 73.916 58.9092C73.7668 59.1635 73.8499 59.4918 74.1028 59.6435C74.3568 59.7951 74.6859 59.7107 74.8374 59.4565C74.9878 59.2023 74.9046 58.8739 74.6506 58.7223Z" fill="white"/>
<path d="M82.0183 62.2291L81.7689 62.0558C80.5787 63.7785 78.6676 64.7008 76.7235 64.702C75.5208 64.7008 74.3067 64.3485 73.2407 63.6109C71.5209 62.4195 70.5996 60.5076 70.5996 58.5592C70.5996 57.3553 70.9526 56.1411 71.6895 55.0752C72.8797 53.3525 74.7907 52.4302 76.7349 52.4302C77.9375 52.4302 79.1516 52.7825 80.2165 53.5201C81.9363 54.7115 82.8588 56.6245 82.8588 58.5718C82.8588 59.7757 82.5057 60.9899 81.7689 62.0558L82.0183 62.2291L82.2666 62.4013C83.0741 61.2316 83.4635 59.8931 83.4635 58.5718C83.4635 56.4341 82.4488 54.3307 80.5593 53.0219C79.3908 52.2136 78.0549 51.8248 76.7349 51.8248C74.5994 51.8248 72.4981 52.8395 71.1918 54.7309C70.3843 55.9006 69.9936 57.2379 69.9948 58.5592C69.9936 60.6969 71.0084 62.8003 72.8967 64.1091C74.0653 64.9186 75.4012 65.3073 76.7235 65.3062C78.859 65.3073 80.9591 64.2915 82.2666 62.4013L82.0183 62.2291Z" fill="#42180B"/>
<path d="M72.2407 65.4305C72.1484 66.2091 73.7258 67.038 75.7668 67.2819C77.8054 67.5248 79.5342 67.0904 79.6265 66.3117C79.7187 65.5319 78.1414 64.7031 76.1016 64.4603C74.0629 64.2163 72.3329 64.6507 72.2407 65.4305Z" fill="#FF803B"/>
<path d="M81.237 47.9714C84.0342 50.3496 86.5956 53.0709 88.3108 56.3464C87.3939 53.3947 86.0716 50.28 83.4476 48.4593C83.1447 48.2074 80.794 46.9396 81.237 47.9714Z" fill="#632B15"/>
<path d="M55.9029 50.5696C53.837 53.462 49.8212 54.1312 46.9307 52.0631C44.0413 49.9962 43.3727 45.9751 45.4387 43.0828C47.5024 40.1892 51.5204 39.5212 54.4098 41.5881C57.3004 43.6562 57.9689 47.6761 55.9029 50.5696Z" fill="white"/>
<path d="M55.9031 50.5696L55.6571 50.3929C54.4612 52.07 52.5786 52.9615 50.6652 52.9626C49.4306 52.9615 48.1869 52.591 47.1061 51.818C45.433 50.6198 44.5401 48.7352 44.5401 46.8211C44.5401 45.5852 44.9114 44.3403 45.6836 43.2583C46.8806 41.5824 48.7632 40.6909 50.6754 40.6909C51.91 40.6909 53.1526 41.0614 54.2346 41.8344C55.9088 43.0326 56.8005 44.9171 56.8005 46.8313C56.8005 48.0672 56.4292 49.311 55.6571 50.3929L55.9031 50.5696L56.1479 50.7452C56.9964 49.5584 57.4041 48.188 57.4041 46.8313C57.4041 44.7302 56.4235 42.6575 54.5853 41.3419C53.3997 40.4937 52.0308 40.0844 50.6754 40.0844C48.5764 40.0844 46.5047 41.0671 45.1916 42.9072C44.3453 44.0929 43.9353 45.4644 43.9376 46.8211C43.9353 48.9222 44.9159 50.9949 46.7553 52.3094C47.9397 53.1587 49.311 53.5669 50.6652 53.5669C52.7642 53.5669 54.8348 52.5864 56.1479 50.7452L55.9031 50.5696Z" fill="#994D2B"/>
<path d="M48.7654 47.6886C48.6094 47.9406 48.2814 48.0181 48.0286 47.8642C47.7757 47.708 47.6994 47.3774 47.8532 47.1266C48.0081 46.8746 48.3384 46.796 48.5901 46.951C48.8418 47.1061 48.9203 47.4367 48.7654 47.6886ZM47.2336 48.6748C46.9739 49.0944 46.425 49.2255 46.0047 48.9667C45.5856 48.7079 45.4546 48.1572 45.7143 47.7377C45.9705 47.3181 46.5218 47.187 46.9409 47.4458C47.3611 47.7046 47.491 48.2541 47.2336 48.6748ZM50.8474 51.2001C51.7779 49.6872 51.3075 47.7069 49.7962 46.7754C48.2848 45.844 46.3076 46.316 45.3772 47.8277C45.0218 48.4058 44.8715 49.051 44.9056 49.6815C45.3601 50.6015 46.0377 51.4258 46.9307 52.0643C47.3031 52.3299 47.6926 52.5499 48.0946 52.7255C49.1777 52.7312 50.2381 52.1897 50.8474 51.2001Z" fill="#42180B"/>
<path d="M46.9409 47.4458C46.5217 47.187 45.9705 47.3181 45.7143 47.7377C45.4546 48.1572 45.5856 48.7079 46.0047 48.9667C46.425 49.2255 46.9739 49.0944 47.2336 48.6748C47.491 48.2541 47.3611 47.7046 46.9409 47.4458Z" fill="white"/>
<path d="M48.5901 46.951C48.3384 46.796 48.0081 46.8746 47.8532 47.1266C47.6995 47.3774 47.7758 47.708 48.0286 47.8642C48.2814 48.0181 48.6095 47.9406 48.7655 47.6887C48.9204 47.4367 48.8418 47.1061 48.5901 46.951Z" fill="white"/>
<path d="M55.9031 50.5696L55.6571 50.3929C54.4612 52.07 52.5786 52.9615 50.6652 52.9626C49.4306 52.9615 48.1869 52.591 47.1061 51.818C45.433 50.6198 44.5401 48.7352 44.5401 46.8211C44.5401 45.5852 44.9114 44.3403 45.6836 43.2583C46.8806 41.5824 48.7632 40.6909 50.6754 40.6909C51.91 40.6909 53.1526 41.0614 54.2346 41.8344C55.9088 43.0326 56.8005 44.9171 56.8005 46.8313C56.8005 48.0672 56.4292 49.311 55.6571 50.3929L55.9031 50.5696L56.1479 50.7452C56.9964 49.5584 57.4041 48.188 57.4041 46.8313C57.4041 44.7302 56.4235 42.6575 54.5853 41.3419C53.3997 40.4937 52.0308 40.0844 50.6754 40.0844C48.5764 40.0844 46.5047 41.0671 45.1916 42.9072C44.3453 44.0929 43.9353 45.4644 43.9376 46.8211C43.9353 48.9222 44.9159 50.9949 46.7553 52.3094C47.9397 53.1587 49.311 53.5669 50.6652 53.5669C52.7642 53.5669 54.8348 52.5864 56.1479 50.7452L55.9031 50.5696Z" fill="#42180B"/>
<path d="M46.9682 53.8804C46.409 54.431 44.7872 53.6877 43.3487 52.2216C41.908 50.7566 41.1939 49.1217 41.752 48.5722C42.3123 48.0215 43.9319 48.7649 45.3726 50.2299C46.8121 51.696 47.5262 53.3309 46.9682 53.8804Z" fill="#FF803B"/>
<path d="M56.5283 36.0713C53.8109 34.1719 50.0069 34.5607 47.1584 35.9573C48.6743 35.5891 50.2665 35.5092 51.803 35.7509C52.3212 35.6575 57.1946 36.9754 56.5283 36.0713Z" fill="#632B15"/>
<path d="M54.4247 58.0759C55.5977 60.551 54.764 64.9254 57.2867 65.9332C59.8106 66.9399 64.5541 64.8661 64.9881 63.7808C65.4209 62.6943 62.659 63.6656 60.1363 62.6578C57.6147 61.65 54.8574 56.9905 54.4247 58.0759Z" fill="#632B15"/>
<path d="M54.4247 58.0759L53.9566 58.2982C54.2151 58.8408 54.3791 59.5363 54.501 60.2899C54.5933 60.8553 54.6627 61.4527 54.7482 62.0467C54.8757 62.9394 55.0284 63.8241 55.3598 64.605C55.5249 64.9938 55.739 65.3586 56.0249 65.6722C56.3085 65.9857 56.6672 66.2445 57.0955 66.4143C57.6467 66.6344 58.2583 66.7199 58.8881 66.7199C59.5749 66.7199 60.289 66.6173 60.9837 66.452C62.0269 66.2034 63.0235 65.8147 63.8173 65.3917C64.2137 65.1808 64.5599 64.9608 64.8378 64.735C64.9779 64.6221 65.1008 64.507 65.2079 64.385C65.3138 64.2619 65.4038 64.1319 65.4699 63.9723C65.5166 63.8537 65.5496 63.7261 65.5519 63.5801C65.5519 63.4604 65.5234 63.3282 65.4608 63.2119C65.4038 63.1024 65.3218 63.0146 65.2375 62.9519C65.1589 62.8927 65.0781 62.8528 65.0018 62.822C64.8537 62.765 64.7125 62.7376 64.5633 62.7182C64.3036 62.6852 64.0166 62.6783 63.6966 62.6715C63.2171 62.6624 62.6647 62.6555 62.0861 62.5917C61.5064 62.5278 60.904 62.407 60.3288 62.1767C59.8493 61.9863 59.3072 61.6101 58.7731 61.1438C57.969 60.4449 57.1763 59.5522 56.5055 58.8249C56.1684 58.4601 55.8643 58.1351 55.5853 57.8855C55.4429 57.7601 55.3096 57.6529 55.165 57.5651C55.0921 57.5218 55.0158 57.4819 54.9292 57.45C54.845 57.4192 54.7459 57.3952 54.6309 57.3941C54.5591 57.3941 54.4817 57.4043 54.4065 57.4294C54.2915 57.4659 54.1821 57.5377 54.1058 57.6221C54.0284 57.7053 53.9783 57.7965 53.943 57.8832C53.8894 58.0177 53.8951 58.1671 53.9566 58.2982L54.4247 58.0759L54.9053 58.2685L54.7618 58.2104L54.8894 58.2993C54.9019 58.2811 54.9053 58.2708 54.9053 58.2685L54.7618 58.2104L54.8894 58.2993L54.6366 58.1237L54.7812 58.3928C54.8324 58.3654 54.8712 58.3244 54.8894 58.2993L54.6366 58.1237L54.7812 58.3928L54.6309 58.1112V58.4316C54.6673 58.4327 54.7277 58.4224 54.7812 58.3928L54.6309 58.1112V58.4316V58.2286L54.5785 58.4259C54.5853 58.4281 54.6024 58.4316 54.6309 58.4316V58.2286L54.5785 58.4259L54.5898 58.3814L54.575 58.4247L54.5785 58.4259L54.5898 58.3814L54.575 58.4247C54.5773 58.4259 54.6081 58.4395 54.6514 58.468C54.7345 58.5228 54.8632 58.6265 55.009 58.7667C55.2675 59.0107 55.591 59.3596 55.9509 59.754C56.493 60.3446 57.1205 61.0366 57.7925 61.6568C58.1296 61.9681 58.4758 62.2611 58.8346 62.5153C59.1933 62.7707 59.5612 62.9873 59.945 63.1401C61.2229 63.6497 62.5155 63.6839 63.454 63.7044C63.6886 63.709 63.8993 63.7135 64.0804 63.7204C64.2136 63.7261 64.3321 63.7352 64.4232 63.7466C64.4938 63.7546 64.5485 63.766 64.5827 63.7751C64.61 63.7831 64.6259 63.7888 64.6271 63.7899L64.6293 63.7865L64.6271 63.7899L64.6293 63.7865L64.6271 63.7899L64.7227 63.6143L64.5599 63.7215C64.5906 63.7694 64.6248 63.7888 64.6271 63.7899L64.7227 63.6143L64.5599 63.7215L64.774 63.5801H64.5143C64.5132 63.6098 64.528 63.6759 64.5599 63.7215L64.774 63.5801H64.5143H64.6555L64.5166 63.5642L64.5143 63.5801H64.6555L64.5166 63.5642L64.5679 63.5699L64.5166 63.5596V63.5642L64.5679 63.5699L64.5166 63.5596C64.5166 63.5596 64.5143 63.5699 64.5075 63.5881C64.5041 63.5984 64.4597 63.677 64.3629 63.7717C64.1943 63.9404 63.8902 64.1638 63.5018 64.3827C62.9176 64.7122 62.1488 65.0417 61.3334 65.2845C60.5179 65.5274 59.6535 65.6836 58.8881 65.6824C58.3517 65.6824 57.8688 65.606 57.4804 65.451C57.2287 65.3507 57.0294 65.2138 56.854 65.0394C56.7014 64.8878 56.5693 64.7054 56.4531 64.4899C56.2493 64.1148 56.0978 63.6417 55.9816 63.1104C55.8074 62.3135 55.7128 61.3912 55.5784 60.4768C55.4418 59.5614 55.2686 58.6504 54.8939 57.8535L54.4247 58.0759L54.9053 58.2685L54.4247 58.0759Z" fill="#42180B"/>
<path d="M54.9145 67.0095C54.6309 66.7678 54.3769 66.5022 54.1651 66.2331C54.0591 66.0986 54.0933 65.8911 54.2391 65.7702C54.386 65.6471 54.5933 65.6539 54.6969 65.7907C55.4179 66.7005 56.7288 67.6149 57.9075 67.4644C58.0886 67.4416 58.2378 67.5693 58.239 67.7482C58.2412 67.9284 58.0943 68.0914 57.9155 68.1153C56.8518 68.2499 55.7538 67.7277 54.9145 67.0095Z" fill="#632B15"/>
<path d="M30.1623 43.1044L23.8915 66.2513L9.41021 74.7848C9.12662 74.9512 9.0332 75.316 9.19948 75.5999C9.36576 75.8838 9.73024 75.9784 10.0138 75.8108L24.7046 67.1554C24.8379 67.0767 24.9358 66.9468 24.978 66.7974L31.3115 43.4168C31.398 43.0987 31.2101 42.7715 30.8935 42.6849C30.5769 42.5994 30.2489 42.7875 30.1623 43.1044Z" fill="#994D2B"/>
<path d="M10.5389 74.8726C10.5412 73.9286 9.97856 73.2799 9.18929 72.8968C8.23146 72.117 7.32373 70.7489 7.01167 70.0911C6.87158 69.7935 6.51626 69.667 6.219 69.8072C5.92288 69.9486 5.79416 70.3031 5.93538 70.6007C6.13355 71.0191 6.5732 71.7499 7.14722 72.4761C6.54815 72.4796 6.04016 72.5856 5.6404 72.7988C5.10853 72.5502 4.4343 72.2025 3.95368 71.954C3.55165 71.7465 3.17467 71.5515 2.86489 71.3999C2.56991 71.2563 2.21228 71.3782 2.06878 71.6735C1.92414 71.9699 2.04713 72.3268 2.34211 72.4704C2.63937 72.6164 3.01407 72.809 3.40814 73.0131C3.97076 73.3038 4.4252 73.5353 4.79876 73.7177C4.77143 73.7838 4.74522 73.8522 4.72358 73.924C3.52658 73.7462 2.07561 73.5387 1.23395 73.4532C0.904807 73.4201 0.614386 73.6572 0.581357 73.9844C0.54719 74.3128 0.785235 74.6046 1.11324 74.6388C1.93554 74.7232 3.40133 74.933 4.59947 75.1108C4.61769 75.3286 4.66097 75.5292 4.72702 75.7139C3.84095 75.6809 2.84665 75.6638 2.14622 75.7151C1.81821 75.7379 1.57109 76.0229 1.59501 76.3512C1.61665 76.6511 1.8558 76.8825 2.14622 76.903C2.17355 76.9053 2.20203 76.9053 2.2305 76.903C3.22933 76.8323 4.93999 76.9076 5.92287 76.9623C6.38983 77.1766 6.95018 77.2827 7.5538 77.2838C9.19612 77.2884 10.5355 76.5177 10.5389 74.8726Z" fill="#994D2B"/>
<path d="M81.5731 90.2134C80.8214 89.6399 79.966 89.6958 79.1848 90.0937C77.9843 90.3855 76.3466 90.2829 75.6348 90.1324C75.3136 90.0652 74.9981 90.2715 74.9309 90.593C74.8614 90.9145 75.0687 91.2315 75.3899 91.2987C75.842 91.3945 76.6894 91.4868 77.6142 91.4674C77.2543 91.9486 77.0311 92.416 76.9604 92.8652C76.4411 93.1365 75.7555 93.4649 75.2658 93.6974C74.8603 93.8924 74.4754 94.0759 74.169 94.231C73.8751 94.3781 73.7578 94.736 73.9048 95.0302C74.0517 95.3255 74.4104 95.4429 74.7043 95.2947C75.0004 95.1465 75.3785 94.9652 75.7794 94.7737C76.3511 94.5 76.8113 94.2777 77.1814 94.0896C77.2178 94.1523 77.2577 94.2139 77.301 94.2755C76.4343 95.1214 75.3933 96.1532 74.8159 96.7722C74.5892 97.015 74.604 97.3901 74.8443 97.6147C75.0835 97.8393 75.4616 97.8268 75.6849 97.5862C76.2498 96.9797 77.3021 95.9388 78.17 95.0917C78.3545 95.2092 78.5402 95.2958 78.7269 95.354C78.1643 96.0414 77.5504 96.8235 77.1666 97.4129C76.9866 97.6888 77.0641 98.0582 77.3386 98.2372C77.5914 98.4014 77.9194 98.3512 78.1119 98.1323C78.129 98.1107 78.1472 98.0879 78.1643 98.0639C78.7098 97.2248 79.8043 95.9069 80.4433 95.1567C80.8966 94.9139 81.3191 94.532 81.6847 94.052C82.6824 92.7432 82.8794 91.2109 81.5731 90.2134Z" fill="#994D2B"/>
<path d="M102.399 68.1313L99.1077 88.2901L81.1722 90.2316C80.8453 90.267 80.6084 90.56 80.6448 90.8883C80.6802 91.2155 80.9728 91.4515 81.3008 91.4162L99.6863 89.4267C99.9528 89.3982 100.167 89.1953 100.21 88.9297L103.575 68.3229C103.627 67.9979 103.408 67.6924 103.084 67.6388C102.759 67.5864 102.453 67.8064 102.399 68.1313Z" fill="#994D2B"/>
<path d="M3.32157 78.4262C3.75891 78.3794 4.18942 78.2608 4.60284 78.1035C5.22468 77.8664 5.81236 77.5415 6.3169 77.2131C6.82144 76.8836 7.23942 76.553 7.52529 76.2862C7.7656 76.0616 7.77812 75.6843 7.55375 75.4448C7.32939 75.2031 6.95239 75.1906 6.71094 75.4164C6.56743 75.5532 6.34991 75.7333 6.08796 75.9237C5.69731 76.2098 5.20531 76.5199 4.69508 76.7673C4.18371 77.0147 3.64955 77.1937 3.19627 77.2416C2.86826 77.2758 2.63251 77.5688 2.66668 77.896C2.70085 78.2232 2.99356 78.4615 3.32157 78.4262Z" fill="#994D2B"/>
</svg>
