<svg width="160" height="207" viewBox="0 0 160 207" fill="none" xmlns="http://www.w3.org/2000/svg">
<path d="M57.5209 31.0869C56.8349 31.0869 56.2849 31.6652 56.2849 32.3739C56.2849 33.0826 56.8349 33.6552 57.5209 33.6552C58.2013 33.6552 58.7569 33.0826 58.7569 32.3739C58.7569 31.6652 58.2013 31.0869 57.5209 31.0869Z" fill="#FEFEFE"/>
<path d="M51.8003 120.061C51.1142 120.061 50.5643 120.639 50.5643 121.348C50.5643 122.057 51.1142 122.635 51.8003 122.635C52.4806 122.635 53.0362 122.057 53.0362 121.348C53.0362 120.639 52.4806 120.061 51.8003 120.061Z" fill="#FEFEFE"/>
<path d="M140.111 203.831C139.431 203.831 138.875 204.403 138.875 205.112C138.875 205.821 139.431 206.399 140.111 206.399C140.797 206.399 141.347 205.821 141.347 205.112C141.347 204.403 140.797 203.831 140.111 203.831Z" fill="#FEFEFE"/>
<path d="M140.327 156.806C139.641 156.806 139.091 157.385 139.091 158.088C139.091 158.796 139.641 159.375 140.327 159.375C141.007 159.375 141.563 158.796 141.563 158.088C141.563 157.385 141.007 156.806 140.327 156.806Z" fill="#FEFEFE"/>
<path d="M105.311 100.092C104.63 100.092 104.075 100.665 104.075 101.374C104.075 102.082 104.63 102.661 105.311 102.661C105.997 102.661 106.552 102.082 106.552 101.374C106.552 100.665 105.997 100.092 105.311 100.092Z" fill="#FEFEFE"/>
<path d="M120.868 202.028C120.188 202.028 119.632 202.6 119.632 203.309C119.632 204.018 120.188 204.596 120.868 204.596C121.549 204.596 122.104 204.018 122.104 203.309C122.104 202.6 121.549 202.028 120.868 202.028Z" fill="#FEFEFE"/>
<path d="M30.3235 96.2314C29.6432 96.2314 29.0875 96.8097 29.0875 97.5184C29.0875 98.2215 29.6432 98.7998 30.3235 98.7998C31.0039 98.7998 31.5595 98.2215 31.5595 97.5184C31.5595 96.8097 31.0039 96.2314 30.3235 96.2314Z" fill="#FEFEFE"/>
<path d="M72.5115 81.6038C71.8255 81.6038 71.2755 82.1821 71.2755 82.8851C71.2755 83.5938 71.8255 84.1721 72.5115 84.1721C73.1919 84.1721 73.7475 83.5938 73.7475 82.8851C73.7475 82.1821 73.1919 81.6038 72.5115 81.6038Z" fill="#FEFEFE"/>
<path d="M85.2683 105.382C84.5823 105.382 84.0323 105.955 84.0323 106.664C84.0323 107.372 84.5823 107.951 85.2683 107.951C85.9487 107.951 86.5043 107.372 86.5043 106.664C86.5043 105.955 85.9487 105.382 85.2683 105.382Z" fill="#FEFEFE"/>
<path d="M153.764 133.356C153.078 133.356 152.528 133.935 152.528 134.643C152.528 135.352 153.078 135.93 153.764 135.93C154.444 135.93 155 135.352 155 134.643C155 133.935 154.444 133.356 153.764 133.356Z" fill="#FEFEFE"/>
<path d="M69.3479 12.3543C68.6618 12.3543 68.1005 12.9326 68.1005 13.6413C68.1005 14.3557 68.6618 14.934 69.3479 14.934C70.0282 14.934 70.5895 14.3557 70.5895 13.6413C70.5895 12.9326 70.0282 12.3543 69.3479 12.3543Z" fill="#FEFEFE"/>
<path d="M49.3056 88.3166C48.6195 88.3166 48.0639 88.9006 48.0639 89.6093C48.0639 90.3237 48.6195 90.902 49.3056 90.902C49.9859 90.902 50.5472 90.3237 50.5472 89.6093C50.5472 88.9006 49.9859 88.3166 49.3056 88.3166Z" fill="#FEFEFE"/>
<path d="M20.1917 101.192C19.5057 101.192 18.9501 101.771 18.9501 102.485C18.9501 103.2 19.5057 103.778 20.1917 103.778C20.8721 103.778 21.4334 103.2 21.4334 102.485C21.4334 101.771 20.8721 101.192 20.1917 101.192Z" fill="#FEFEFE"/>
<path d="M60.5258 117.51C59.8398 117.51 59.2842 118.094 59.2842 118.802C59.2842 119.517 59.8398 120.095 60.5258 120.095C61.2119 120.095 61.7675 119.517 61.7675 118.802C61.7675 118.094 61.2119 117.51 60.5258 117.51Z" fill="#FEFEFE"/>
<path d="M54.2608 64.8271C53.5748 64.8271 53.0192 65.4054 53.0192 66.1142C53.0192 66.8285 53.5748 67.4068 54.2608 67.4068C54.9469 67.4068 55.5025 66.8285 55.5025 66.1142C55.5025 65.4054 54.9469 64.8271 54.2608 64.8271Z" fill="#FEFEFE"/>
<path d="M111.972 60.0645C111.286 60.0645 110.731 60.6428 110.731 61.3515C110.731 62.0716 111.286 62.6442 111.972 62.6442C112.659 62.6442 113.214 62.0716 113.214 61.3515C113.214 60.6428 112.659 60.0645 111.972 60.0645Z" fill="#FEFEFE"/>
<path d="M102.737 56.9802C102.051 56.9802 101.495 57.5642 101.495 58.2729C101.495 58.9873 102.051 59.5713 102.737 59.5713C103.423 59.5713 103.978 58.9873 103.978 58.2729C103.978 57.5642 103.423 56.9802 102.737 56.9802Z" fill="#FEFEFE"/>
<path d="M112.488 6.44635C111.802 6.44635 111.247 7.02466 111.247 7.73904C111.247 8.44775 111.802 9.03172 112.488 9.03172C113.174 9.03172 113.73 8.44775 113.73 7.73904C113.73 7.02466 113.174 6.44635 112.488 6.44635Z" fill="#FEFEFE"/>
<path d="M1.84469 142.468C1.15866 142.468 0.603027 143.046 0.603027 143.76C0.603027 144.475 1.15866 145.047 1.84469 145.047C2.53072 145.047 3.08635 144.475 3.08635 143.76C3.08635 143.046 2.53072 142.468 1.84469 142.468Z" fill="#FEFEFE"/>
<path d="M133.438 185.172C132.752 185.172 132.196 185.75 132.196 186.459C132.196 187.173 132.752 187.751 133.438 187.751C134.124 187.751 134.68 187.173 134.68 186.459C134.68 185.75 134.124 185.172 133.438 185.172Z" fill="#FEFEFE"/>
<path d="M133.001 177.229C132.315 177.229 131.754 177.807 131.754 178.521C131.754 179.23 132.315 179.808 133.001 179.808C133.682 179.808 134.243 179.23 134.243 178.521C134.243 177.807 133.682 177.229 133.001 177.229Z" fill="#FEFEFE"/>
<path d="M112.596 112.764C111.916 112.764 111.355 113.343 111.355 114.051C111.355 114.766 111.916 115.344 112.596 115.344C113.282 115.344 113.838 114.766 113.838 114.051C113.838 113.343 113.282 112.764 112.596 112.764Z" fill="#FEFEFE"/>
<path d="M63.0545 70.4742C62.3685 70.4742 61.8129 71.0525 61.8129 71.7668C61.8129 72.4812 62.3685 73.0595 63.0545 73.0595C63.7406 73.0595 64.2962 72.4812 64.2962 71.7668C64.2962 71.0525 63.7406 70.4742 63.0545 70.4742Z" fill="#FEFEFE"/>
<path d="M126.634 180.738C126.311 180.738 126.039 181.056 126.039 181.452C126.039 181.844 126.311 182.172 126.634 182.172C126.963 182.172 127.23 181.844 127.23 181.452C127.23 181.056 126.963 180.738 126.634 180.738Z" fill="#FEFEFE"/>
<path d="M142.64 205.56C142.311 205.56 142.044 205.889 142.044 206.28C142.044 206.671 142.311 207 142.64 207C142.969 207 143.235 206.671 143.235 206.28C143.235 205.889 142.969 205.56 142.64 205.56Z" fill="#FEFEFE"/>
<path d="M147.317 177.444C146.988 177.444 146.716 177.773 146.716 178.164C146.716 178.561 146.988 178.884 147.317 178.884C147.646 178.884 147.913 178.561 147.913 178.164C147.913 177.773 147.646 177.444 147.317 177.444Z" fill="#FEFEFE"/>
<path d="M147.295 160.792C146.966 160.792 146.705 161.11 146.705 161.506C146.705 161.903 146.966 162.226 147.295 162.226C147.623 162.226 147.89 161.903 147.89 161.506C147.89 161.11 147.623 160.792 147.295 160.792Z" fill="#FEFEFE"/>
<path d="M103.037 145.002C102.708 145.002 102.442 145.325 102.442 145.716C102.442 146.113 102.708 146.436 103.037 146.436C103.366 146.436 103.632 146.113 103.632 145.716C103.632 145.325 103.366 145.002 103.037 145.002Z" fill="#FEFEFE"/>
<path d="M84.2762 151.789C83.9473 151.789 83.6808 152.118 83.6808 152.509C83.6808 152.906 83.9473 153.229 84.2762 153.229C84.605 153.229 84.8715 152.906 84.8715 152.509C84.8715 152.118 84.605 151.789 84.2762 151.789Z" fill="#FEFEFE"/>
<path d="M116.145 154.425C115.817 154.425 115.544 154.743 115.544 155.145C115.544 155.542 115.817 155.859 116.145 155.859C116.469 155.859 116.741 155.542 116.741 155.145C116.741 154.743 116.469 154.425 116.145 154.425Z" fill="#FEFEFE"/>
<path d="M54.1872 7.89221C53.8527 7.89221 53.5862 8.20972 53.5862 8.60659C53.5862 8.9978 53.8527 9.32664 54.1872 9.32664C54.516 9.32664 54.7825 8.9978 54.7825 8.60659C54.7825 8.20972 54.516 7.89221 54.1872 7.89221Z" fill="#FEFEFE"/>
<path d="M60.6393 5.13103C60.3104 5.13103 60.0383 5.4542 60.0383 5.85675C60.0383 6.24796 60.3104 6.57113 60.6393 6.57113C60.9624 6.57113 61.2346 6.24796 61.2346 5.85675C61.2346 5.4542 60.9624 5.13103 60.6393 5.13103Z" fill="#FEFEFE"/>
<path d="M152.998 16.0452C152.664 16.0452 152.403 16.3627 152.403 16.7652C152.403 17.1565 152.664 17.4796 152.998 17.4796C153.327 17.4796 153.594 17.1565 153.594 16.7652C153.594 16.3627 153.327 16.0452 152.998 16.0452Z" fill="#FEFEFE"/>
<path d="M152.919 35.067C152.59 35.067 152.324 35.3845 152.324 35.7814C152.324 36.1783 152.59 36.5014 152.919 36.5014C153.248 36.5014 153.514 36.1783 153.514 35.7814C153.514 35.3845 153.248 35.067 152.919 35.067Z" fill="#FEFEFE"/>
<path d="M113.084 62.2078C112.755 62.2078 112.488 62.5366 112.488 62.9335C112.488 63.3247 112.755 63.6479 113.084 63.6479C113.407 63.6479 113.679 63.3247 113.679 62.9335C113.679 62.5366 113.407 62.2078 113.084 62.2078Z" fill="#FEFEFE"/>
<path d="M126.277 84.5179C125.948 84.5179 125.682 84.8411 125.682 85.238C125.682 85.6292 125.948 85.958 126.277 85.958C126.6 85.958 126.872 85.6292 126.872 85.238C126.872 84.8411 126.6 84.5179 126.277 84.5179Z" fill="#FEFEFE"/>
<path d="M149.001 145.756C148.672 145.756 148.406 146.079 148.406 146.476C148.406 146.873 148.672 147.19 149.001 147.19C149.33 147.19 149.597 146.873 149.597 146.476C149.597 146.079 149.33 145.756 149.001 145.756Z" fill="#FEFEFE"/>
<path d="M91.505 127.624C91.1818 127.624 90.9153 127.948 90.9153 128.339C90.9153 128.741 91.1818 129.059 91.505 129.059C91.8338 129.059 92.106 128.741 92.106 128.339C92.106 127.948 91.8338 127.624 91.505 127.624Z" fill="#FEFEFE"/>
<path d="M101.104 43.1349C100.775 43.1349 100.508 43.4581 100.508 43.8606C100.508 44.2462 100.775 44.575 101.104 44.575C101.433 44.575 101.699 44.2462 101.699 43.8606C101.699 43.4581 101.433 43.1349 101.104 43.1349Z" fill="#FEFEFE"/>
<path d="M94.2604 77.873C93.9372 77.873 93.6651 78.1961 93.6651 78.593C93.6651 78.9842 93.9372 79.3074 94.2604 79.3074C94.5893 79.3074 94.8614 78.9842 94.8614 78.593C94.8614 78.1961 94.5893 77.873 94.2604 77.873Z" fill="#FEFEFE"/>
<path d="M103.961 5.72063C103.627 5.72063 103.36 6.0438 103.36 6.44068C103.36 6.83756 103.627 7.16073 103.961 7.16073C104.29 7.16073 104.551 6.83756 104.551 6.44068C104.551 6.0438 104.29 5.72063 103.961 5.72063Z" fill="#FEFEFE"/>
<path d="M140.02 29.7884C139.692 29.7884 139.425 30.1059 139.425 30.5028C139.425 30.8997 139.692 31.2228 140.02 31.2228C140.349 31.2228 140.616 30.8997 140.616 30.5028C140.616 30.1059 140.349 29.7884 140.02 29.7884Z" fill="#FEFEFE"/>
<path d="M135.581 46.2532C135.252 46.2532 134.986 46.5707 134.986 46.9733C134.986 47.3645 135.252 47.6877 135.581 47.6877C135.91 47.6877 136.176 47.3645 136.176 46.9733C136.176 46.5707 135.91 46.2532 135.581 46.2532Z" fill="#FEFEFE"/>
<path d="M117.699 0C117.37 0 117.104 0.323171 117.104 0.714379C117.104 1.11693 117.37 1.43443 117.699 1.43443C118.028 1.43443 118.294 1.11693 118.294 0.714379C118.294 0.323171 118.028 0 117.699 0Z" fill="#FEFEFE"/>
<path d="M147.317 67.7357C146.988 67.7357 146.722 68.0589 146.722 68.4558C146.722 68.8526 146.988 69.1758 147.317 69.1758C147.646 69.1758 147.913 68.8526 147.913 68.4558C147.913 68.0589 147.646 67.7357 147.317 67.7357Z" fill="#FEFEFE"/>
<path d="M37.7678 16.5555C37.4333 16.5555 37.1725 16.8786 37.1725 17.2755C37.1725 17.6667 37.4333 17.9899 37.7678 17.9899C38.0966 17.9899 38.3574 17.6667 38.3574 17.2755C38.3574 16.8786 38.0966 16.5555 37.7678 16.5555Z" fill="#FEFEFE"/>
<path d="M51.7152 31.0358C51.3807 31.0358 51.1199 31.359 51.1199 31.7502C51.1199 32.1528 51.3807 32.4703 51.7152 32.4703C52.044 32.4703 52.3105 32.1528 52.3105 31.7502C52.3105 31.359 52.044 31.0358 51.7152 31.0358Z" fill="#FEFEFE"/>
<path d="M51.6075 57.3318C51.2843 57.3318 51.0178 57.6493 51.0178 58.0462C51.0178 58.4431 51.2843 58.7662 51.6075 58.7662C51.942 58.7662 52.2085 58.4431 52.2085 58.0462C52.2085 57.6493 51.942 57.3318 51.6075 57.3318Z" fill="#FEFEFE"/>
<path d="M68.4804 89.0423C68.1515 89.0423 67.8851 89.3655 67.8851 89.7567C67.8851 90.1536 68.1515 90.4768 68.4804 90.4768C68.8092 90.4768 69.0757 90.1536 69.0757 89.7567C69.0757 89.3655 68.8092 89.0423 68.4804 89.0423Z" fill="#FEFEFE"/>
<path d="M60.9851 32.0451C60.6562 32.0451 60.3898 32.3682 60.3898 32.7595C60.3898 33.1563 60.6562 33.4795 60.9851 33.4795C61.3139 33.4795 61.5804 33.1563 61.5804 32.7595C61.5804 32.3682 61.3139 32.0451 60.9851 32.0451Z" fill="#FEFEFE"/>
<path d="M154.059 70.4344C153.735 70.4344 153.463 70.7632 153.463 71.1544C153.463 71.5513 153.735 71.8745 154.059 71.8745C154.393 71.8745 154.66 71.5513 154.66 71.1544C154.66 70.7632 154.393 70.4344 154.059 70.4344Z" fill="#FEFEFE"/>
<path d="M105.356 30.157C105.021 30.157 104.761 30.4745 104.761 30.8657C104.761 31.2683 105.021 31.5914 105.356 31.5914C105.685 31.5914 105.946 31.2683 105.946 30.8657C105.946 30.4745 105.685 30.157 105.356 30.157Z" fill="#FEFEFE"/>
<path d="M135.95 26.9083C135.626 26.9083 135.354 27.2315 135.354 27.634C135.354 28.0252 135.626 28.3541 135.95 28.3541C136.278 28.3541 136.551 28.0252 136.551 27.634C136.551 27.2315 136.278 26.9083 135.95 26.9083Z" fill="#FEFEFE"/>
<path d="M142.305 23.9091C141.976 23.9091 141.71 24.2266 141.71 24.6235C141.71 25.026 141.976 25.3435 142.305 25.3435C142.634 25.3435 142.901 25.026 142.901 24.6235C142.901 24.2266 142.634 23.9091 142.305 23.9091Z" fill="#FEFEFE"/>
<path d="M107.425 45.1477C107.097 45.1477 106.83 45.4652 106.83 45.862C106.83 46.2589 107.097 46.5821 107.425 46.5821C107.754 46.5821 108.021 46.2589 108.021 45.862C108.021 45.4652 107.754 45.1477 107.425 45.1477Z" fill="#FEFEFE"/>
<path d="M104.608 91.1967C104.279 91.1967 104.012 91.5199 104.012 91.9168C104.012 92.3137 104.279 92.6312 104.608 92.6312C104.942 92.6312 105.203 92.3137 105.203 91.9168C105.203 91.5199 104.942 91.1967 104.608 91.1967Z" fill="#FEFEFE"/>
<path d="M146.297 115.798C145.974 115.798 145.701 116.121 145.701 116.518C145.701 116.914 145.974 117.232 146.297 117.232C146.631 117.232 146.898 116.914 146.898 116.518C146.898 116.121 146.631 115.798 146.297 115.798Z" fill="#FEFEFE"/>
<path d="M84.2818 99.3782C83.9529 99.3782 83.6865 99.7013 83.6865 100.098C83.6865 100.495 83.9529 100.818 84.2818 100.818C84.6106 100.818 84.8771 100.495 84.8771 100.098C84.8771 99.7013 84.6106 99.3782 84.2818 99.3782Z" fill="#FEFEFE"/>
<path d="M85.2173 63.6252C84.8885 63.6252 84.6277 63.9484 84.6277 64.3452C84.6277 64.7421 84.8885 65.0596 85.2173 65.0596C85.5518 65.0596 85.8183 64.7421 85.8183 64.3452C85.8183 63.9484 85.5518 63.6252 85.2173 63.6252Z" fill="#FEFEFE"/>
<path d="M78.1416 86.0827C77.8071 86.0827 77.5406 86.4059 77.5406 86.8028C77.5406 87.1996 77.8071 87.5171 78.1416 87.5171C78.4704 87.5171 78.7312 87.1996 78.7312 86.8028C78.7312 86.4059 78.4704 86.0827 78.1416 86.0827Z" fill="#FEFEFE"/>
<path d="M45.1383 70.4401C44.8038 70.4401 44.543 70.7633 44.543 71.1545C44.543 71.5514 44.8038 71.8746 45.1383 71.8746C45.4672 71.8746 45.7337 71.5514 45.7337 71.1545C45.7337 70.7633 45.4672 70.4401 45.1383 70.4401Z" fill="#FEFEFE"/>
<path d="M84.1968 29.2896C83.8679 29.2896 83.6014 29.6128 83.6014 30.004C83.6014 30.4009 83.8679 30.724 84.1968 30.724C84.5256 30.724 84.7921 30.4009 84.7921 30.004C84.7921 29.6128 84.5256 29.2896 84.1968 29.2896Z" fill="#FEFEFE"/>
<path d="M82.3711 2.65909C82.0423 2.65909 81.7758 2.98226 81.7758 3.37347C81.7758 3.77034 82.0423 4.08785 82.3711 4.08785C82.7 4.08785 82.9665 3.77034 82.9665 3.37347C82.9665 2.98226 82.7 2.65909 82.3711 2.65909Z" fill="#FEFEFE"/>
<path d="M11.7383 22.4973C11.4094 22.4973 11.1429 22.8148 11.1429 23.2117C11.1429 23.6029 11.4094 23.9317 11.7383 23.9317C12.0671 23.9317 12.3336 23.6029 12.3336 23.2117C12.3336 22.8148 12.0671 22.4973 11.7383 22.4973Z" fill="#FEFEFE"/>
<path d="M62.55 70.0828C62.2211 70.0828 61.949 70.406 61.949 70.7972C61.949 71.1997 62.2211 71.5173 62.55 71.5173C62.8788 71.5173 63.1453 71.1997 63.1453 70.7972C63.1453 70.406 62.8788 70.0828 62.55 70.0828Z" fill="#FEFEFE"/>
<path d="M19.3413 138.249C19.0125 138.249 18.7404 138.567 18.7404 138.964C18.7404 139.361 19.0125 139.678 19.3413 139.678C19.6645 139.678 19.9367 139.361 19.9367 138.964C19.9367 138.567 19.6645 138.249 19.3413 138.249Z" fill="#FEFEFE"/>
<path d="M32.1718 49.0314C31.843 49.0314 31.5765 49.3546 31.5765 49.7515C31.5765 50.1484 31.843 50.4659 32.1718 50.4659C32.5006 50.4659 32.7671 50.1484 32.7671 49.7515C32.7671 49.3546 32.5006 49.0314 32.1718 49.0314Z" fill="#FEFEFE"/>
<path d="M27.7438 47.3191C27.415 47.3191 27.1485 47.6479 27.1485 48.0391C27.1485 48.436 27.415 48.7535 27.7438 48.7535C28.0727 48.7535 28.3391 48.436 28.3391 48.0391C28.3391 47.6479 28.0727 47.3191 27.7438 47.3191Z" fill="#FEFEFE"/>
<path d="M32.4156 19.2032C32.0867 19.2032 31.8203 19.5321 31.8203 19.9233C31.8203 20.3202 32.0867 20.6433 32.4156 20.6433C32.7501 20.6433 33.0109 20.3202 33.0109 19.9233C33.0109 19.5321 32.7501 19.2032 32.4156 19.2032Z" fill="#FEFEFE"/>
<path d="M32.3986 2.54572C32.0698 2.54572 31.8033 2.86889 31.8033 3.26576C31.8033 3.66264 32.0698 3.98581 32.3986 3.98581C32.7331 3.98581 32.9996 3.66264 32.9996 3.26576C32.9996 2.86889 32.7331 2.54572 32.3986 2.54572Z" fill="#FEFEFE"/>
<path d="M42.4566 118.627C42.1334 118.627 41.8669 118.95 41.8669 119.347C41.8669 119.744 42.1334 120.061 42.4566 120.061C42.7911 120.061 43.0576 119.744 43.0576 119.347C43.0576 118.95 42.7911 118.627 42.4566 118.627Z" fill="#FEFEFE"/>
<path d="M42.2468 114.21C41.918 114.21 41.6572 114.527 41.6572 114.924C41.6572 115.321 41.918 115.644 42.2468 115.644C42.5757 115.644 42.8421 115.321 42.8421 114.924C42.8421 114.527 42.5757 114.21 42.2468 114.21Z" fill="#FEFEFE"/>
<path d="M32.4723 78.3493C32.1435 78.3493 31.877 78.6668 31.877 79.0637C31.877 79.4606 32.1435 79.7838 32.4723 79.7838C32.8012 79.7838 33.0676 79.4606 33.0676 79.0637C33.0676 78.6668 32.8012 78.3493 32.4723 78.3493Z" fill="#FEFEFE"/>
<path d="M8.72203 54.8259C8.39318 54.8259 8.12671 55.149 8.12671 55.5459C8.12671 55.9371 8.39318 56.2603 8.72203 56.2603C9.05087 56.2603 9.32301 55.9371 9.32301 55.5459C9.32301 55.149 9.05087 54.8259 8.72203 54.8259Z" fill="#FEFEFE"/>
<path d="M42.7117 119.846C42.3205 119.846 42.02 120.124 42.02 120.464C42.02 120.804 42.3205 121.082 42.7117 121.082C43.0916 121.082 43.4034 120.804 43.4034 120.464C43.4034 120.124 43.0916 119.846 42.7117 119.846Z" fill="#FEFEFE"/>
<path d="M61.0135 119.919C60.6336 119.919 60.3275 120.203 60.3275 120.543C60.3275 120.883 60.6336 121.161 61.0135 121.161C61.399 121.161 61.7052 120.883 61.7052 120.543C61.7052 120.203 61.399 119.919 61.0135 119.919Z" fill="#FEFEFE"/>
<path d="M87.145 161.314C86.7651 161.314 86.4533 161.592 86.4533 161.932C86.4533 162.272 86.7651 162.55 87.145 162.55C87.5249 162.55 87.8367 162.272 87.8367 161.932C87.8367 161.592 87.5249 161.314 87.145 161.314Z" fill="#FEFEFE"/>
<path d="M108.616 147.604C108.231 147.604 107.924 147.882 107.924 148.222C107.924 148.568 108.231 148.84 108.616 148.84C108.99 148.84 109.302 148.568 109.302 148.222C109.302 147.882 108.99 147.604 108.616 147.604Z" fill="#FEFEFE"/>
<path d="M140.327 100.75C139.947 100.75 139.635 101.028 139.635 101.368C139.635 101.708 139.947 101.986 140.327 101.986C140.712 101.986 141.018 101.708 141.018 101.368C141.018 101.028 140.712 100.75 140.327 100.75Z" fill="#FEFEFE"/>
<path d="M150.101 183.726C149.721 183.726 149.409 184.009 149.409 184.35C149.409 184.69 149.721 184.968 150.101 184.968C150.481 184.968 150.793 184.69 150.793 184.35C150.793 184.009 150.481 183.726 150.101 183.726Z" fill="#FEFEFE"/>
<path d="M25.3965 85.1188C25.0167 85.1188 24.7105 85.4023 24.7105 85.7368C24.7105 86.077 25.0167 86.3548 25.3965 86.3548C25.7764 86.3548 26.0882 86.077 26.0882 85.7368C26.0882 85.4023 25.7764 85.1188 25.3965 85.1188Z" fill="#FEFEFE"/>
<path d="M71.2018 32.3286C70.822 32.3286 70.5101 32.6064 70.5101 32.9466C70.5101 33.2924 70.822 33.5702 71.2018 33.5702C71.5817 33.5702 71.8935 33.2924 71.8935 32.9466C71.8935 32.6064 71.5817 32.3286 71.2018 32.3286Z" fill="#FEFEFE"/>
<path d="M136.806 77.2268C136.426 77.2268 136.114 77.5046 136.114 77.8447C136.114 78.1849 136.426 78.4627 136.806 78.4627C137.186 78.4627 137.497 78.1849 137.497 77.8447C137.497 77.5046 137.186 77.2268 136.806 77.2268Z" fill="#FEFEFE"/>
<path d="M55.9334 133.323C55.5535 133.323 55.2474 133.6 55.2474 133.946C55.2474 134.286 55.5535 134.559 55.9334 134.559C56.3189 134.559 56.6251 134.286 56.6251 133.946C56.6251 133.6 56.3189 133.323 55.9334 133.323Z" fill="#FEFEFE"/>
<path d="M71.7859 137.938C71.4003 137.938 71.0942 138.215 71.0942 138.556C71.0942 138.896 71.4003 139.174 71.7859 139.174C72.1658 139.174 72.4719 138.896 72.4719 138.556C72.4719 138.215 72.1658 137.938 71.7859 137.938Z" fill="#FEFEFE"/>
<path d="M66.0652 95.1032C65.6853 95.1032 65.3792 95.3811 65.3792 95.7212C65.3792 96.0614 65.6853 96.3392 66.0652 96.3392C66.4507 96.3392 66.7625 96.0614 66.7625 95.7212C66.7625 95.3811 66.4507 95.1032 66.0652 95.1032Z" fill="#FEFEFE"/>
<path d="M92.4632 125.742C92.0776 125.742 91.7715 126.02 91.7715 126.366C91.7715 126.706 92.0776 126.978 92.4632 126.978C92.8431 126.978 93.1549 126.706 93.1549 126.366C93.1549 126.02 92.8431 125.742 92.4632 125.742Z" fill="#FEFEFE"/>
<path d="M72.9595 109.601C72.5796 109.601 72.2678 109.878 72.2678 110.219C72.2678 110.559 72.5796 110.837 72.9595 110.837C73.345 110.837 73.6568 110.559 73.6568 110.219C73.6568 109.878 73.345 109.601 72.9595 109.601Z" fill="#FEFEFE"/>
<path d="M81.6965 89.5128C81.3166 89.5128 81.0048 89.7906 81.0048 90.1308C81.0048 90.471 81.3166 90.7488 81.6965 90.7488C82.082 90.7488 82.3882 90.471 82.3882 90.1308C82.3882 89.7906 82.082 89.5128 81.6965 89.5128Z" fill="#FEFEFE"/>
<path d="M53.4898 92.6311C53.1099 92.6311 52.7981 92.9089 52.7981 93.2491C52.7981 93.595 53.1099 93.8728 53.4898 93.8728C53.8697 93.8728 54.1815 93.595 54.1815 93.2491C54.1815 92.9089 53.8697 92.6311 53.4898 92.6311Z" fill="#FEFEFE"/>
<path d="M50.9384 63.8915C50.5585 63.8915 50.2467 64.1693 50.2467 64.5095C50.2467 64.8554 50.5585 65.1275 50.9384 65.1275C51.3239 65.1275 51.6301 64.8554 51.6301 64.5095C51.6301 64.1693 51.3239 63.8915 50.9384 63.8915Z" fill="#FEFEFE"/>
<path d="M49.2942 68.4955C48.9144 68.4955 48.6025 68.7676 48.6025 69.1135C48.6025 69.4536 48.9144 69.7315 49.2942 69.7315C49.6741 69.7315 49.9859 69.4536 49.9859 69.1135C49.9859 68.7676 49.6741 68.4955 49.2942 68.4955Z" fill="#FEFEFE"/>
<path d="M22.2328 63.6365C21.853 63.6365 21.5411 63.9143 21.5411 64.2545C21.5411 64.5947 21.853 64.8725 22.2328 64.8725C22.6127 64.8725 22.9245 64.5947 22.9245 64.2545C22.9245 63.9143 22.6127 63.6365 22.2328 63.6365Z" fill="#FEFEFE"/>
<path d="M95.0599 118.734C94.68 118.734 94.3682 119.012 94.3682 119.352C94.3682 119.698 94.68 119.976 95.0599 119.976C95.4397 119.976 95.7516 119.698 95.7516 119.352C95.7516 119.012 95.4397 118.734 95.0599 118.734Z" fill="#FEFEFE"/>
<path d="M53.1723 137.546C52.7867 137.546 52.4749 137.83 52.4749 138.17C52.4749 138.51 52.7867 138.788 53.1723 138.788C53.5465 138.788 53.864 138.51 53.864 138.17C53.864 137.83 53.5465 137.546 53.1723 137.546Z" fill="#FEFEFE"/>
<path d="M117.92 53.2043C117.54 53.2043 117.228 53.4764 117.228 53.8223C117.228 54.1625 117.54 54.4403 117.92 54.4403C118.306 54.4403 118.612 54.1625 118.612 53.8223C118.612 53.4764 118.306 53.2043 117.92 53.2043Z" fill="#FEFEFE"/>
<path d="M113.668 53.4197C113.288 53.4197 112.982 53.6976 112.982 54.0377C112.982 54.3779 113.288 54.6557 113.668 54.6557C114.053 54.6557 114.365 54.3779 114.365 54.0377C114.365 53.6976 114.053 53.4197 113.668 53.4197Z" fill="#FEFEFE"/>
<path d="M79.1564 63.5797C78.7709 63.5797 78.4647 63.8575 78.4647 64.1977C78.4647 64.5379 78.7709 64.8214 79.1564 64.8214C79.5363 64.8214 79.8481 64.5379 79.8481 64.1977C79.8481 63.8575 79.5363 63.5797 79.1564 63.5797Z" fill="#FEFEFE"/>
<path d="M56.5174 88.2543C56.1319 88.2543 55.8257 88.5321 55.8257 88.8723C55.8257 89.2181 56.1319 89.4903 56.5174 89.4903C56.8916 89.4903 57.2034 89.2181 57.2034 88.8723C57.2034 88.5321 56.8916 88.2543 56.5174 88.2543Z" fill="#FEFEFE"/>
<path d="M50.2807 130.953C49.8952 130.953 49.5834 131.23 49.5834 131.571C49.589 131.911 49.8952 132.189 50.2807 132.189C50.6606 132.189 50.9668 131.911 50.9668 131.571C50.9668 131.23 50.6606 130.953 50.2807 130.953Z" fill="#FEFEFE"/>
<path d="M115.045 170.113C114.66 170.113 114.348 170.391 114.348 170.737C114.348 171.077 114.66 171.355 115.045 171.355C115.425 171.355 115.731 171.077 115.731 170.737C115.731 170.391 115.425 170.113 115.045 170.113Z" fill="#FEFEFE"/>
<path d="M138.716 126.802C138.336 126.802 138.025 127.08 138.025 127.42C138.025 127.76 138.336 128.038 138.716 128.038C139.102 128.038 139.408 127.76 139.408 127.42C139.408 127.08 139.102 126.802 138.716 126.802Z" fill="#FEFEFE"/>
<path d="M155.499 102.582C155.119 102.582 154.807 102.859 154.807 103.2C154.807 103.545 155.119 103.818 155.499 103.818C155.878 103.818 156.185 103.545 156.185 103.2C156.185 102.859 155.878 102.582 155.499 102.582Z" fill="#FEFEFE"/>
<path d="M122.915 191.238C122.535 191.238 122.223 191.51 122.223 191.856C122.223 192.196 122.535 192.469 122.915 192.469C123.295 192.469 123.607 192.196 123.607 191.856C123.607 191.51 123.295 191.238 122.915 191.238Z" fill="#FEFEFE"/>
<path d="M158.447 203.4C157.778 203.4 157.228 203.972 157.228 204.681C157.228 205.39 157.778 205.968 158.447 205.968C159.122 205.968 159.666 205.39 159.666 204.681C159.666 203.972 159.122 203.4 158.447 203.4Z" fill="#FEFEFE"/>
<path d="M138.529 200.945C137.855 200.945 137.31 201.523 137.31 202.232C137.31 202.94 137.855 203.513 138.529 203.513C139.198 203.513 139.748 202.94 139.748 202.232C139.748 201.523 139.198 200.945 138.529 200.945Z" fill="#FEFEFE"/>
<path d="M39.6955 49.2469C39.0151 49.2469 38.4595 49.8252 38.4595 50.5282C38.4595 51.2369 39.0151 51.8153 39.6955 51.8153C40.3758 51.8153 40.9315 51.2369 40.9315 50.5282C40.9315 49.8252 40.3758 49.2469 39.6955 49.2469Z" fill="#FEFEFE"/>
<path d="M86.6858 55.7953C86.0054 55.7953 85.4498 56.3736 85.4498 57.0767C85.4498 57.7854 86.0054 58.3637 86.6858 58.3637C87.3661 58.3637 87.9217 57.7854 87.9217 57.0767C87.9217 56.3736 87.3661 55.7953 86.6858 55.7953Z" fill="#FEFEFE"/>
<path d="M134.674 90.8849C133.994 90.8849 133.438 91.4575 133.438 92.1663C133.438 92.875 133.994 93.4533 134.674 93.4533C135.36 93.4533 135.91 92.875 135.91 92.1663C135.91 91.4575 135.36 90.8849 134.674 90.8849Z" fill="#FEFEFE"/>
<path d="M134.237 98.7828C133.557 98.7828 133.001 99.3611 133.001 100.07C133.001 100.779 133.557 101.351 134.237 101.351C134.918 101.351 135.473 100.779 135.473 100.07C135.473 99.3611 134.918 98.7828 134.237 98.7828Z" fill="#FEFEFE"/>
<path d="M113.946 162.918C113.265 162.918 112.704 163.491 112.704 164.205C112.704 164.914 113.265 165.487 113.946 165.487C114.626 165.487 115.182 164.914 115.182 164.205C115.182 163.491 114.626 162.918 113.946 162.918Z" fill="#FEFEFE"/>
<path d="M36.0329 21.0629C35.3468 21.0629 34.7969 21.6355 34.7969 22.3499C34.7969 23.0586 35.3468 23.6312 36.0329 23.6312C36.7189 23.6312 37.2689 23.0586 37.2689 22.3499C37.2689 21.6355 36.7189 21.0629 36.0329 21.0629Z" fill="#FEFEFE"/>
<path d="M137.974 30.0266C137.288 30.0266 136.732 30.6049 136.732 31.3193C136.732 32.028 137.288 32.6063 137.974 32.6063C138.66 32.6063 139.215 32.028 139.215 31.3193C139.215 30.6049 138.66 30.0266 137.974 30.0266Z" fill="#FEFEFE"/>
<path d="M124.514 25.077C123.828 25.077 123.272 25.6553 123.272 26.3697C123.272 27.0841 123.828 27.6624 124.514 27.6624C125.2 27.6624 125.756 27.0841 125.756 26.3697C125.756 25.6553 125.2 25.077 124.514 25.077Z" fill="#FEFEFE"/>
<path d="M40.0867 93.3966C39.4007 93.3966 38.8394 93.9692 38.8394 94.6893C38.8394 95.398 39.4007 95.982 40.0867 95.982C40.767 95.982 41.3283 95.398 41.3283 94.6893C41.3283 93.9692 40.767 93.3966 40.0867 93.3966Z" fill="#FEFEFE"/>
<path d="M34.1278 26.1373C33.4418 26.1373 32.8862 26.7156 32.8862 27.4243C32.8862 28.1387 33.4418 28.717 34.1278 28.717C34.8139 28.717 35.3752 28.1387 35.3752 27.4243C35.3752 26.7156 34.8139 26.1373 34.1278 26.1373Z" fill="#FEFEFE"/>
<path d="M143.127 71.6363C142.447 71.6363 141.886 72.2146 141.886 72.929C141.886 73.6434 142.447 74.216 143.127 74.216C143.819 74.216 144.369 73.6434 144.369 72.929C144.369 72.2146 143.819 71.6363 143.127 71.6363Z" fill="#FEFEFE"/>
<path d="M143.343 118.905C142.657 118.905 142.101 119.488 142.101 120.197C142.101 120.912 142.657 121.49 143.343 121.49C144.029 121.49 144.585 120.912 144.585 120.197C144.585 119.488 144.029 118.905 143.343 118.905Z" fill="#FEFEFE"/>
<path d="M123.782 73.4506C123.096 73.4506 122.541 74.0233 122.541 74.7376C122.541 75.452 123.096 76.0303 123.782 76.0303C124.468 76.0303 125.03 75.452 125.03 74.7376C125.03 74.0233 124.468 73.4506 123.782 73.4506Z" fill="#FEFEFE"/>
<path d="M31.2193 70.0545C30.5333 70.0545 29.9777 70.6328 29.9777 71.3472C29.9777 72.0559 30.5333 72.6342 31.2193 72.6342C31.9054 72.6342 32.461 72.0559 32.461 71.3472C32.461 70.6328 31.9054 70.0545 31.2193 70.0545Z" fill="#FEFEFE"/>
<path d="M26.899 97.0026C26.2073 97.0026 25.6517 97.5866 25.6517 98.2953C25.6517 99.0097 26.2073 99.588 26.899 99.588C27.5794 99.588 28.1407 99.0097 28.1407 98.2953C28.1407 97.5866 27.5794 97.0026 26.899 97.0026Z" fill="#FEFEFE"/>
<path d="M73.2259 130.221C72.5399 130.221 71.9843 130.805 71.9843 131.514C71.9843 132.228 72.5399 132.807 73.2259 132.807C73.9119 132.807 74.4676 132.228 74.4676 131.514C74.4676 130.805 73.9119 130.221 73.2259 130.221Z" fill="#FEFEFE"/>
<path d="M88.0011 170.595C87.3094 170.595 86.7595 171.173 86.7595 171.888C86.7595 172.602 87.3094 173.175 88.0011 173.175C88.6872 173.175 89.2428 172.602 89.2428 171.888C89.2428 171.173 88.6872 170.595 88.0011 170.595Z" fill="#FEFEFE"/>
<path d="M156.848 142.473C156.162 142.473 155.606 143.052 155.606 143.766C155.606 144.48 156.162 145.053 156.848 145.053C157.534 145.053 158.09 144.48 158.09 143.766C158.09 143.052 157.534 142.473 156.848 142.473Z" fill="#FEFEFE"/>
<path d="M75.3521 68.501C74.666 68.501 74.1104 69.0793 74.1104 69.7937C74.1104 70.5024 74.666 71.0807 75.3521 71.0807C76.0381 71.0807 76.5937 70.5024 76.5937 69.7937C76.5937 69.0793 76.0381 68.501 75.3521 68.501Z" fill="#FEFEFE"/>
<path d="M79.1678 20.6262C78.4817 20.6262 77.9261 21.2045 77.9261 21.9132C77.9261 22.6276 78.4817 23.2059 79.1678 23.2059C79.8538 23.2059 80.4094 22.6276 80.4094 21.9132C80.4094 21.2045 79.8538 20.6262 79.1678 20.6262Z" fill="#FEFEFE"/>
<path d="M107.522 161.688C107.187 161.688 106.921 162.011 106.921 162.408C106.921 162.799 107.187 163.122 107.522 163.122C107.845 163.122 108.111 162.799 108.111 162.408C108.111 162.011 107.845 161.688 107.522 161.688Z" fill="#FEFEFE"/>
<path d="M85.4214 158.723C85.0983 158.723 84.8318 159.04 84.8318 159.437C84.8318 159.834 85.0983 160.151 85.4214 160.151C85.7503 160.151 86.0224 159.834 86.0224 159.437C86.0224 159.04 85.7503 158.723 85.4214 158.723Z" fill="#FEFEFE"/>
<path d="M146.705 144.906C146.376 144.906 146.11 145.223 146.11 145.626C146.11 146.017 146.376 146.34 146.705 146.34C147.034 146.34 147.306 146.017 147.306 145.626C147.306 145.223 147.034 144.906 146.705 144.906Z" fill="#FEFEFE"/>
<path d="M146.206 164.483C145.877 164.483 145.611 164.806 145.611 165.209C145.611 165.606 145.877 165.918 146.206 165.918C146.535 165.918 146.807 165.606 146.807 165.209C146.807 164.806 146.535 164.483 146.206 164.483Z" fill="#FEFEFE"/>
<path d="M141.806 185.863C141.478 185.863 141.217 186.187 141.217 186.584C141.217 186.98 141.478 187.298 141.806 187.298C142.141 187.298 142.402 186.98 142.402 186.584C142.402 186.187 142.141 185.863 141.806 185.863Z" fill="#FEFEFE"/>
<path d="M129.299 147.984C128.976 147.984 128.709 148.307 128.709 148.699C128.709 149.101 128.976 149.419 129.299 149.419C129.634 149.419 129.9 149.101 129.9 148.699C129.9 148.307 129.634 147.984 129.299 147.984Z" fill="#FEFEFE"/>
<path d="M51.9363 32.3286C51.6075 32.3286 51.341 32.6518 51.341 33.043C51.341 33.4342 51.6075 33.7573 51.9363 33.7573C52.2652 33.7573 52.5373 33.4342 52.5373 33.043C52.5373 32.6518 52.2652 32.3286 51.9363 32.3286Z" fill="#FEFEFE"/>
<path d="M45.4842 29.573C45.1554 29.573 44.8889 29.8905 44.8889 30.293C44.8889 30.6842 45.1554 31.0017 45.4842 31.0017C45.8131 31.0017 46.0852 30.6842 46.0852 30.293C46.0852 29.8905 45.8131 29.573 45.4842 29.573Z" fill="#FEFEFE"/>
<path d="M49.6288 4.3317C49.2999 4.3317 49.0278 4.6492 49.0278 5.04607C49.0278 5.44295 49.2999 5.76612 49.6288 5.76612C49.9519 5.76612 50.2241 5.44295 50.2241 5.04607C50.2241 4.6492 49.9519 4.3317 49.6288 4.3317Z" fill="#FEFEFE"/>
<path d="M28.1463 5.71507C27.8231 5.71507 27.5566 6.03824 27.5566 6.43512C27.5566 6.832 27.8231 7.1495 28.1463 7.1495C28.4808 7.1495 28.7473 6.832 28.7473 6.43512C28.7473 6.03824 28.4808 5.71507 28.1463 5.71507Z" fill="#FEFEFE"/>
<path d="M58.6889 9.12245C58.36 9.12245 58.0936 9.44562 58.0936 9.8425C58.0936 10.2337 58.36 10.5569 58.6889 10.5569C59.0177 10.5569 59.2785 10.2337 59.2785 9.8425C59.2785 9.44562 59.0177 9.12245 58.6889 9.12245Z" fill="#FEFEFE"/>
<path d="M68.3557 40.9918C68.0268 40.9918 67.7604 41.3093 67.7604 41.7062C67.7604 42.1031 68.0268 42.4263 68.3557 42.4263C68.6902 42.4263 68.951 42.1031 68.951 41.7062C68.951 41.3093 68.6902 40.9918 68.3557 40.9918Z" fill="#FEFEFE"/>
<path d="M54.4082 55.4665C54.0794 55.4665 53.8129 55.7953 53.8129 56.1865C53.8129 56.5891 54.0794 56.9066 54.4082 56.9066C54.7371 56.9066 55.0036 56.5891 55.0036 56.1865C55.0036 55.7953 54.7371 55.4665 54.4082 55.4665Z" fill="#FEFEFE"/>
<path d="M54.5103 81.7625C54.1815 81.7625 53.915 82.0856 53.915 82.4882C53.915 82.8794 54.1815 83.2026 54.5103 83.2026C54.8391 83.2026 55.1056 82.8794 55.1056 82.4882C55.1056 82.0856 54.8391 81.7625 54.5103 81.7625Z" fill="#FEFEFE"/>
<path d="M37.643 113.479C37.3085 113.479 37.0421 113.802 37.0421 114.193C37.0421 114.59 37.3085 114.913 37.643 114.913C37.9719 114.913 38.2384 114.59 38.2384 114.193C38.2384 113.802 37.9719 113.479 37.643 113.479Z" fill="#FEFEFE"/>
<path d="M45.1383 56.4757C44.8038 56.4757 44.5374 56.8046 44.5374 57.1958C44.5374 57.587 44.8038 57.9158 45.1383 57.9158C45.4672 57.9158 45.7337 57.587 45.7337 57.1958C45.7337 56.8046 45.4672 56.4757 45.1383 56.4757Z" fill="#FEFEFE"/>
<path d="M21.836 123.814C21.5071 123.814 21.2463 124.138 21.2463 124.534C21.2463 124.931 21.5071 125.249 21.836 125.249C22.1648 125.249 22.4313 124.931 22.4313 124.534C22.4313 124.138 22.1648 123.814 21.836 123.814Z" fill="#FEFEFE"/>
<path d="M20.9005 88.0614C20.5717 88.0614 20.3052 88.3789 20.3052 88.7815C20.3052 89.1783 20.5717 89.4958 20.9005 89.4958C21.2293 89.4958 21.4958 89.1783 21.4958 88.7815C21.4958 88.3789 21.2293 88.0614 20.9005 88.0614Z" fill="#FEFEFE"/>
<path d="M27.9819 110.519C27.6531 110.519 27.3866 110.842 27.3866 111.239C27.3866 111.636 27.6531 111.954 27.9819 111.954C28.3164 111.954 28.5772 111.636 28.5772 111.239C28.5772 110.842 28.3164 110.519 27.9819 110.519Z" fill="#FEFEFE"/>
<path d="M60.9794 94.8708C60.6562 94.8708 60.3841 95.1996 60.3841 95.5965C60.3841 95.9877 60.6562 96.3109 60.9794 96.3109C61.3139 96.3109 61.5804 95.9877 61.5804 95.5965C61.5804 95.1996 61.3139 94.8708 60.9794 94.8708Z" fill="#FEFEFE"/>
<path d="M21.921 53.7258C21.5922 53.7258 21.3257 54.049 21.3257 54.4459C21.3257 54.8371 21.5922 55.1603 21.921 55.1603C22.2498 55.1603 22.5163 54.8371 22.5163 54.4459C22.5163 54.049 22.2498 53.7258 21.921 53.7258Z" fill="#FEFEFE"/>
<path d="M23.7524 27.0897C23.4235 27.0897 23.157 27.4129 23.157 27.8098C23.157 28.2067 23.4235 28.5298 23.7524 28.5298C24.0812 28.5298 24.342 28.2067 24.342 27.8098C24.342 27.4129 24.0812 27.0897 23.7524 27.0897Z" fill="#FEFEFE"/>
<path d="M120.426 122.749C120.046 122.749 119.734 123.032 119.734 123.372C119.734 123.712 120.046 123.985 120.426 123.985C120.812 123.985 121.118 123.712 121.118 123.372C121.118 123.032 120.812 122.749 120.426 122.749Z" fill="#FEFEFE"/>
<path d="M102.124 122.828C101.739 122.828 101.427 123.106 101.427 123.452C101.427 123.792 101.739 124.064 102.124 124.064C102.504 124.064 102.81 123.792 102.81 123.452C102.81 123.106 102.504 122.828 102.124 122.828Z" fill="#FEFEFE"/>
<path d="M22.8055 103.659C22.4257 103.659 22.1138 103.931 22.1138 104.277C22.1138 104.617 22.4257 104.895 22.8055 104.895C23.1911 104.895 23.4972 104.617 23.4972 104.277C23.4972 103.931 23.1911 103.659 22.8055 103.659Z" fill="#FEFEFE"/>
<path d="M137.741 88.0274C137.361 88.0274 137.044 88.3052 137.044 88.6454C137.044 88.9856 137.361 89.2634 137.741 89.2634C138.121 89.2634 138.427 88.9856 138.427 88.6454C138.427 88.3052 138.121 88.0274 137.741 88.0274Z" fill="#FEFEFE"/>
<path d="M91.9359 35.237C91.5504 35.237 91.2442 35.5148 91.2442 35.855C91.2442 36.1952 91.5504 36.4787 91.9359 36.4787C92.3158 36.4787 92.6276 36.1952 92.6276 35.855C92.6276 35.5148 92.3158 35.237 91.9359 35.237Z" fill="#FEFEFE"/>
<path d="M26.3264 80.1353C25.9522 80.1353 25.6403 80.4132 25.6403 80.7533C25.6403 81.0935 25.9522 81.3713 26.3264 81.3713C26.7119 81.3713 27.0181 81.0935 27.0181 80.7533C27.0181 80.4132 26.7119 80.1353 26.3264 80.1353Z" fill="#FEFEFE"/>
<path d="M130.359 173.702C129.979 173.702 129.668 173.98 129.668 174.32C129.668 174.666 129.979 174.944 130.359 174.944C130.745 174.944 131.051 174.666 131.051 174.32C131.051 173.98 130.745 173.702 130.359 173.702Z" fill="#FEFEFE"/>
<path d="M107.204 136.231C106.819 136.231 106.507 136.509 106.507 136.849C106.507 137.195 106.819 137.467 107.204 137.467C107.584 137.467 107.89 137.195 107.89 136.849C107.89 136.509 107.584 136.231 107.204 136.231Z" fill="#FEFEFE"/>
<path d="M91.3519 140.852C90.9721 140.852 90.6602 141.124 90.6602 141.464C90.6602 141.81 90.9721 142.082 91.3519 142.082C91.7375 142.082 92.0436 141.81 92.0436 141.464C92.0436 141.124 91.7375 140.852 91.3519 140.852Z" fill="#FEFEFE"/>
<path d="M135.876 159.426C135.485 159.426 135.179 159.703 135.179 160.044C135.179 160.384 135.485 160.662 135.876 160.662C136.25 160.662 136.562 160.384 136.562 160.044C136.562 159.703 136.25 159.426 135.876 159.426Z" fill="#FEFEFE"/>
<path d="M97.0669 98.0061C96.6871 98.0061 96.3752 98.2839 96.3752 98.6298C96.3752 98.9699 96.6871 99.2477 97.0669 99.2477C97.4468 99.2477 97.7586 98.9699 97.7586 98.6298C97.7586 98.2839 97.4468 98.0061 97.0669 98.0061Z" fill="#FEFEFE"/>
<path d="M70.6746 128.651C70.2947 128.651 69.9829 128.928 69.9829 129.269C69.9829 129.614 70.2947 129.892 70.6746 129.892C71.0545 129.892 71.3663 129.614 71.3663 129.269C71.3663 128.928 71.0545 128.651 70.6746 128.651Z" fill="#FEFEFE"/>
<path d="M90.1726 112.509C89.7927 112.509 89.4809 112.787 89.4809 113.127C89.4809 113.467 89.7927 113.745 90.1726 113.745C90.5525 113.745 90.8643 113.467 90.8643 113.127C90.8643 112.787 90.5525 112.509 90.1726 112.509Z" fill="#FEFEFE"/>
<path d="M81.4356 92.4158C81.0557 92.4158 80.7439 92.6993 80.7439 93.0395C80.7439 93.3797 81.0557 93.6575 81.4356 93.6575C81.8211 93.6575 82.1273 93.3797 82.1273 93.0395C82.1273 92.6993 81.8211 92.4158 81.4356 92.4158Z" fill="#FEFEFE"/>
<path d="M109.648 95.5397C109.262 95.5397 108.956 95.8175 108.956 96.1577C108.956 96.5036 109.262 96.7757 109.648 96.7757C110.028 96.7757 110.34 96.5036 110.34 96.1577C110.34 95.8175 110.028 95.5397 109.648 95.5397Z" fill="#FEFEFE"/>
<path d="M112.194 66.8001C111.814 66.8001 111.508 67.0779 111.508 67.4181C111.508 67.7583 111.814 68.0361 112.194 68.0361C112.579 68.0361 112.885 67.7583 112.885 67.4181C112.885 67.0779 112.579 66.8001 112.194 66.8001Z" fill="#FEFEFE"/>
<path d="M113.843 71.3983C113.464 71.3983 113.152 71.6761 113.152 72.0163C113.152 72.3621 113.464 72.6343 113.843 72.6343C114.218 72.6343 114.535 72.3621 114.535 72.0163C114.535 71.6761 114.218 71.3983 113.843 71.3983Z" fill="#FEFEFE"/>
<path d="M140.905 66.5451C140.519 66.5451 140.208 66.8172 140.208 67.163C140.208 67.5032 140.519 67.7811 140.905 67.7811C141.279 67.7811 141.597 67.5032 141.597 67.163C141.597 66.8172 141.279 66.5451 140.905 66.5451Z" fill="#FEFEFE"/>
<path d="M156.933 66.5621C156.553 66.5621 156.241 66.8342 156.241 67.1801C156.241 67.5259 156.553 67.7981 156.933 67.7981C157.319 67.7981 157.625 67.5259 157.625 67.1801C157.625 66.8342 157.319 66.5621 156.933 66.5621Z" fill="#FEFEFE"/>
<path d="M156.582 160.503C156.202 160.503 155.89 160.781 155.89 161.127C155.89 161.467 156.202 161.739 156.582 161.739C156.961 161.739 157.273 161.467 157.273 161.127C157.273 160.781 156.961 160.503 156.582 160.503Z" fill="#FEFEFE"/>
<path d="M153.883 200.707C153.503 200.707 153.197 200.979 153.197 201.319C153.197 201.659 153.503 201.943 153.883 201.943C154.268 201.943 154.58 201.659 154.58 201.319C154.58 200.979 154.268 200.707 153.883 200.707Z" fill="#FEFEFE"/>
<path d="M68.0779 121.643C67.6923 121.643 67.3862 121.921 67.3862 122.261C67.3862 122.607 67.6923 122.885 68.0779 122.885C68.4577 122.885 68.7696 122.607 68.7696 122.261C68.7696 121.921 68.4577 121.643 68.0779 121.643Z" fill="#FEFEFE"/>
<path d="M106.853 172.25C106.467 172.25 106.155 172.528 106.155 172.868C106.155 173.214 106.467 173.492 106.853 173.492C107.227 173.492 107.539 173.214 107.539 172.868C107.539 172.528 107.227 172.25 106.853 172.25Z" fill="#FEFEFE"/>
<path d="M109.965 140.461C109.586 140.461 109.274 140.738 109.274 141.079C109.274 141.419 109.586 141.697 109.965 141.697C110.351 141.697 110.657 141.419 110.657 141.079C110.657 140.738 110.351 140.461 109.965 140.461Z" fill="#FEFEFE"/>
<path d="M45.2121 56.1129C44.8322 56.1129 44.5204 56.385 44.5204 56.7252C44.5204 57.0654 44.8322 57.3488 45.2121 57.3488C45.592 57.3488 45.9038 57.0654 45.9038 56.7252C45.9038 56.385 45.592 56.1129 45.2121 56.1129Z" fill="#FEFEFE"/>
<path d="M49.4643 56.3283C49.0845 56.3283 48.7726 56.6061 48.7726 56.9463C48.7726 57.2865 49.0845 57.5643 49.4643 57.5643C49.8499 57.5643 50.156 57.2865 50.156 56.9463C50.156 56.6061 49.8499 56.3283 49.4643 56.3283Z" fill="#FEFEFE"/>
<path d="M83.9813 66.4883C83.6014 66.4883 83.2896 66.7661 83.2896 67.1063C83.2896 67.4521 83.6014 67.7243 83.9813 67.7243C84.3612 67.7243 84.673 67.4521 84.673 67.1063C84.673 66.7661 84.3612 66.4883 83.9813 66.4883Z" fill="#FEFEFE"/>
<path d="M106.62 91.1571C106.24 91.1571 105.934 91.435 105.934 91.7808C105.934 92.1267 106.24 92.3988 106.62 92.3988C107 92.3988 107.312 92.1267 107.312 91.7808C107.312 91.435 107 91.1571 106.62 91.1571Z" fill="#FEFEFE"/>
<path d="M112.857 133.861C112.477 133.861 112.165 134.139 112.165 134.479C112.165 134.814 112.477 135.097 112.857 135.097C113.243 135.097 113.549 134.814 113.549 134.479C113.549 134.139 113.243 133.861 112.857 133.861Z" fill="#FEFEFE"/>
<path d="M92.4234 170.096C92.0379 170.096 91.7261 170.374 91.7261 170.714C91.7261 171.06 92.0379 171.338 92.4234 171.338C92.7976 171.338 93.1095 171.06 93.1095 170.714C93.1095 170.374 92.7976 170.096 92.4234 170.096Z" fill="#FEFEFE"/>
<path d="M24.4156 129.711C24.0358 129.711 23.7239 129.983 23.7239 130.329C23.7239 130.669 24.0358 130.947 24.4156 130.947C24.8012 130.947 25.1073 130.669 25.1073 130.329C25.1073 129.983 24.8012 129.711 24.4156 129.711Z" fill="#FEFEFE"/>
<path d="M133.313 196.131C132.928 196.131 132.621 196.409 132.621 196.749C132.621 197.089 132.928 197.367 133.313 197.367C133.693 197.367 134.005 197.089 134.005 196.749C134.005 196.409 133.693 196.131 133.313 196.131Z" fill="#FEFEFE"/>
<path d="M34.7799 62.3779L33.4815 58.2106L32.1775 62.3779H27.9592L31.3724 64.9519L30.0684 69.1191L33.4815 66.5451L36.889 69.1191L35.5849 64.9519L38.9981 62.3779H34.7799Z" fill="#FEFEFE"/>
<path d="M50.7741 110.071L49.47 105.91L48.166 110.071H43.9534L47.3609 112.645L46.0625 116.812L49.47 114.238L52.8775 116.812L51.5791 112.645L54.9866 110.071H50.7741Z" fill="#FEFEFE"/>
<path d="M48.3247 42.4262L47.0207 38.2647L45.7223 42.4262H41.5041L44.9172 45.0059L43.6132 49.1675L47.0207 46.5934L50.4338 49.1675L49.1298 45.0059L52.5373 42.4262H48.3247Z" fill="#FEFEFE"/>
<path d="M101.047 76.0475L99.7487 71.8803L98.4447 76.0475H94.2321L97.6396 78.6215L96.3356 82.7831L99.7487 80.209L103.156 82.7831L101.852 78.6215L105.265 76.0475H101.047Z" fill="#FEFEFE"/>
<path d="M36.889 91.7412L35.5906 87.5796L34.2866 91.7412H30.074L33.4815 94.3152L32.1775 98.4824L35.5906 95.9084L38.9981 98.4824L37.6941 94.3152L41.1072 91.7412H36.889Z" fill="#FEFEFE"/>
<path d="M146.348 79.2961L145.514 76.6257L144.675 79.2961H141.971L144.159 80.946L143.326 83.6221L145.514 81.9665L147.697 83.6221L146.864 80.946L149.052 79.2961H146.348Z" fill="#FEFEFE"/>
<path d="M159.796 30.7069L158.963 28.0365L158.124 30.7069H155.419L157.608 32.3568L156.774 35.0329L158.963 33.383L159.978 34.1484V30.7069H159.796Z" fill="#FEFEFE"/>
<path d="M142.736 109.056L141.903 106.386L141.064 109.056H138.359L140.548 110.712L139.714 113.382L141.903 111.732L144.086 113.382L143.252 110.712L145.441 109.056H142.736Z" fill="#FEFEFE"/>
<path d="M97.5262 153.966L96.6927 151.295L95.8593 153.966H93.1548L95.3433 155.616L94.5042 158.292L96.6927 156.636L98.8812 158.292L98.0478 155.616L100.231 153.966H97.5262Z" fill="#FEFEFE"/>
<path d="M139.55 135.908L138.716 133.237L137.883 135.908H135.179L137.361 137.558L136.528 140.234L138.716 138.578L140.905 140.234L140.066 137.558L142.254 135.908H139.55Z" fill="#FEFEFE"/>
<path d="M69.6087 104.594L68.7752 101.924L67.9418 104.594H65.2374L67.4202 106.244L66.5867 108.92L68.7752 107.265L70.9637 108.92L70.1246 106.244L72.3131 104.594H69.6087Z" fill="#FEFEFE"/>
<path d="M54.2212 96.6794C48.2964 95.1882 41.1186 102.61 38.4595 106.272C39.0661 110.751 47.4289 111.863 53.3481 113.354C59.2729 114.839 62.3515 110.542 65.0049 106.873C64.3983 102.394 60.146 98.1648 54.2212 96.6794Z" fill="#AD6F36"/>
<path fill-rule="evenodd" clip-rule="evenodd" d="M56.0411 98.0911C52.9909 97.3257 49.3679 100.155 46.5444 103.256C48.92 105.053 53.2517 105.66 56.5911 106.499C59.4883 107.225 61.6201 105.898 63.3664 103.914C62.017 101.153 59.3976 98.9358 56.0411 98.0911Z" fill="url(#paint0_linear_2_2289)"/>
<path d="M144.233 80.5379C144.233 80.5379 122.218 57.1675 98.405 61.9187C80.2167 65.5472 60.5089 86.2359 59.2729 103.579C58.8307 109.782 60.0553 122.199 64.506 134.088C65.5436 132.812 73.1239 123.798 84.3045 117.402C94.2038 111.738 108.928 110.304 119.95 113.019C135.711 116.898 139.085 133.033 141.205 146.896C141.682 150.014 157.67 191.34 158.543 194.045C159.088 197.294 159.564 198.972 159.978 199.465V95.5285L144.233 80.5379Z" fill="#D5A579"/>
<path d="M84.7411 116.177C72.8517 122.975 63.3664 130.476 63.287 130.578L64.506 134.088C70.0509 148.693 80.7042 160.99 98.8812 161.416C109.586 161.671 127.366 153.206 130.915 143.273C137.157 125.816 132.673 122.312 130.286 118.519C117.784 108.07 99.1307 107.939 84.7411 116.177Z" fill="#AD6F36"/>
<path d="M116.752 49.8422C112.364 50.9421 102.805 54.8429 101.977 60.8924C101.155 66.9476 103.491 72.4699 107.425 74.7037C111.814 73.6038 116.95 72.3508 117.773 66.3013C118.6 60.2517 120.687 52.0761 116.752 49.8422Z" fill="#AD6F36"/>
<path d="M94.0167 119.381C80.3924 123.355 70.5895 133.011 72.1204 140.948C73.6568 148.886 86.6631 155.814 100.287 151.84C113.917 147.865 123.006 134.502 121.469 126.564C119.933 118.627 107.647 115.412 94.0167 119.381Z" fill="#F5B0A2"/>
<path d="M69.8638 101.51C66.445 104.22 65.7987 109.096 68.418 112.384C71.0318 115.678 75.9247 116.149 79.3378 113.433C82.7567 110.723 83.403 105.853 80.7836 102.559C78.1699 99.2647 73.277 98.7941 69.8638 101.51Z" fill="#FEFEFE"/>
<path d="M71.2019 103.472C68.7696 105.399 68.265 108.801 70.068 111.075C71.8709 113.343 75.3011 113.62 77.7334 111.693C80.16 109.759 80.6703 106.357 78.8616 104.084C77.0587 101.816 73.6285 101.538 71.2019 103.472Z" fill="#AD6F36"/>
<path d="M71.5534 105.065C70.1417 106.187 69.8752 108.2 70.9581 109.567C72.041 110.927 74.0594 111.126 75.4768 109.997C76.8886 108.875 77.1551 106.862 76.0721 105.496C74.9892 104.135 72.9708 103.942 71.5534 105.065Z" fill="#35302F"/>
<path d="M70.5328 106.658C70.0623 107.032 69.9829 107.718 70.3571 108.189C70.7313 108.659 71.4116 108.739 71.8879 108.365C72.3585 107.99 72.4322 107.304 72.0637 106.834C71.6838 106.363 71.0034 106.284 70.5328 106.658Z" fill="#FEFEFE"/>
<path d="M98.9379 84.8467C95.3717 87.3583 94.4419 92.1832 96.8572 95.6191C99.2838 99.0606 104.137 99.8146 107.703 97.3086C111.269 94.797 112.199 89.9721 109.778 86.5306C107.357 83.0947 102.504 82.335 98.9379 84.8467Z" fill="#FEFEFE"/>
<path d="M100.157 86.8822C97.6225 88.6681 96.9195 92.0359 98.5864 94.4058C100.253 96.7814 103.666 97.2577 106.201 95.4717C108.735 93.6858 109.444 90.3123 107.771 87.9424C106.104 85.5725 102.697 85.0962 100.157 86.8822Z" fill="#AD6F36"/>
<path d="M100.418 88.498C98.9436 89.5356 98.558 91.5313 99.5616 92.9544C100.559 94.3775 102.572 94.6893 104.046 93.6517C105.526 92.6142 105.906 90.6128 104.908 89.1954C103.905 87.7666 101.897 87.4548 100.418 88.498Z" fill="#35302F"/>
<path d="M99.3065 90.0288C98.8132 90.3746 98.6942 91.0493 99.04 91.5426C99.3859 92.0358 100.066 92.1549 100.559 91.809C101.047 91.4632 101.166 90.7828 100.82 90.2896C100.474 89.802 99.7997 89.6829 99.3065 90.0288Z" fill="#FEFEFE"/>
<path d="M74.2635 82.7547C70.0055 82.1537 65.8327 81.2068 61.8809 79.7894C57.9405 78.372 54.2268 76.467 51.0121 74.0007C47.7917 71.54 45.0873 68.5068 43.1199 65.0369C41.1526 61.5897 39.8939 57.655 39.514 53.7542C39.412 52.694 37.7394 51.94 35.6643 51.8322C33.5722 51.7188 31.8543 53.0115 32.0017 54.4573C32.495 59.5373 34.0711 64.3792 36.5601 68.7676C39.0378 73.1559 42.4736 76.9773 46.4197 79.9935C50.3658 83.0155 54.7881 85.2607 59.3239 86.8879C63.871 88.5264 68.5428 89.5696 73.2146 90.2273C74.5299 90.4144 75.7773 88.8496 76.0041 86.7801C76.2252 84.705 75.4428 82.9191 74.2635 82.7547Z" fill="#D5A579"/>
<path d="M73.277 83.1345C69.1494 82.5051 65.1013 81.5356 61.2686 80.1182C57.4415 78.7008 53.8243 76.8184 50.6776 74.3975C47.5253 71.9822 44.8492 69.0226 42.8705 65.6378C40.8917 62.27 39.5821 58.46 39.0888 54.6046C38.947 53.5387 38.5218 52.711 38.0286 52.728C37.5296 52.7336 37.1611 53.6748 37.3085 54.8314C37.8358 58.9419 39.2192 62.9617 41.3226 66.545C43.4204 70.1339 46.2609 73.2749 49.5834 75.8206C52.9058 78.3663 56.6818 80.328 60.6449 81.7964C64.6194 83.2649 68.7809 84.2627 73.0048 84.9034C74.1841 85.0848 75.199 84.807 75.2557 84.3138C75.318 83.8205 74.4279 83.3102 73.277 83.1345Z" fill="#AD6F36"/>
<path d="M61.5294 81.8305C56.4267 84.2401 51.0065 85.8333 45.6146 86.0317C42.9215 86.1338 40.2511 85.8843 37.694 85.2493C35.1484 84.62 32.665 83.5881 30.6183 82.2217C30.0627 81.8588 28.6849 82.9021 27.2902 84.4499C25.8898 86.0034 25.5553 87.9254 26.4114 88.4924C29.388 90.4654 32.5687 91.7468 35.8741 92.5802C39.1738 93.3966 42.5643 93.7028 45.8981 93.5781C52.5826 93.3286 58.961 91.3896 64.7441 88.6624C65.5662 88.2769 65.4528 86.4399 64.506 84.5803C63.5648 82.7206 62.2324 81.5016 61.5294 81.8305Z" fill="#D5A579"/>
<path d="M61.1949 82.5618C56.2055 84.8467 50.9101 86.3605 45.6146 86.5533C42.9782 86.6497 40.3475 86.4172 37.8244 85.8162C35.3071 85.2209 32.8635 84.2457 30.7544 82.9304C30.176 82.5675 29.524 82.5788 29.2235 82.9701C28.9174 83.3613 29.1498 84.0416 29.8019 84.4498C32.1094 85.8899 34.7231 86.9218 37.4106 87.5625C40.1037 88.2032 42.8988 88.447 45.6826 88.3449C51.2729 88.1408 56.7952 86.5476 61.9433 84.189C62.6633 83.8602 63.0658 83.2139 62.8447 82.7716C62.6293 82.3237 61.8922 82.2387 61.1949 82.5618Z" fill="#AD6F36"/>
<path d="M41.5608 68.2516C37.1725 68.4727 32.7671 68.1666 28.5092 67.2707C26.3774 66.8228 24.2853 66.2275 22.2612 65.4848C20.2485 64.7477 18.2641 63.8463 16.5178 62.8087C16.0472 62.5309 14.8056 63.7215 13.5809 65.4111C12.3563 67.1007 11.9878 68.9036 12.6454 69.2891C14.9473 70.6499 17.2662 71.6874 19.6588 72.5719C22.0458 73.4507 24.4837 74.1367 26.9557 74.6583C31.894 75.6959 36.9457 76.0417 41.9407 75.7923C42.6437 75.7583 43.0916 74.029 42.9329 71.9539C42.7798 69.8731 42.1675 68.2233 41.5608 68.2516Z" fill="#D5A579"/>
<path d="M41.1129 68.7958C36.8323 68.9715 32.546 68.6484 28.3901 67.7752C24.2513 66.9021 20.1634 65.479 16.6142 63.4663C16.1266 63.1885 15.554 63.2962 15.2818 63.7101C15.0097 64.124 15.1968 64.7193 15.7184 65.0198C19.4887 67.1516 23.7183 68.62 28.0159 69.5272C32.3305 70.4343 36.7699 70.7688 41.1866 70.5874C41.8046 70.559 42.2808 70.1281 42.2468 69.6349C42.2185 69.1416 41.7082 68.7674 41.1129 68.7958Z" fill="#AD6F36"/>
<path d="M87.848 25.0656C84.5596 21.2386 80.5398 18.1146 75.9304 15.9318C74.615 15.3081 72.8234 16.4817 72.2167 18.4888C71.6158 20.4789 71.7575 22.3102 72.7213 22.7637C76.2649 24.442 79.5363 26.9593 82.116 29.9812C84.7127 33.0032 86.6517 36.5751 87.8764 40.4361C89.1067 44.2972 89.6453 48.436 89.6397 52.6259C89.6397 56.8215 89.1124 61.0738 88.2336 65.2807C87.9898 66.4486 89.4072 67.7866 91.4313 68.2799C93.461 68.7675 95.3547 68.1212 95.6268 66.8228C96.585 62.2077 97.186 57.4565 97.186 52.6259C97.1917 47.8067 96.5794 42.8854 95.0712 38.1456C93.5688 33.4114 91.1365 28.887 87.848 25.0656Z" fill="#D5A579"/>
<path d="M87.7687 25.7743C84.6957 22.0947 80.914 19.0444 76.6221 16.8446C75.4144 16.2266 74.2125 16.1812 74.031 16.6461C73.8553 17.1054 74.6774 17.8651 75.8056 18.4434C79.8708 20.5242 83.4767 23.4271 86.3909 26.9252C89.3108 30.4178 91.488 34.5113 92.8544 38.8202C94.2378 43.1349 94.8331 47.6479 94.8728 52.1156C94.9125 56.5947 94.4135 61.0397 93.5574 65.3883C93.3193 66.6017 93.4837 67.6675 93.9713 67.7753C94.4532 67.8887 95.0712 66.9759 95.315 65.7342C96.1881 61.2892 96.7041 56.7251 96.6701 52.0986C96.6247 47.4835 96.0067 42.7947 94.5666 38.2759C93.1322 33.7629 90.8473 29.4539 87.7687 25.7743Z" fill="#AD6F36"/>
<path d="M105.742 21.6582C103.814 22.4463 102.362 23.3931 102.521 24.0338C103.111 26.4264 103.241 29.1138 102.975 31.7162C102.703 34.3356 102.034 36.938 101.024 39.4383C99.0117 44.4446 95.6779 49.003 91.6865 52.9832C91.1308 53.5388 91.8282 55.2 93.2569 56.7195C94.6857 58.2389 96.3753 58.9647 97.0159 58.3297C101.54 53.8109 105.526 48.4644 108.032 42.2561C109.274 39.1605 110.136 35.8664 110.481 32.4873C110.822 29.0968 110.691 25.6723 109.846 22.2025C109.603 21.2046 107.675 20.8701 105.742 21.6582Z" fill="#D5A579"/>
<path d="M108.208 21.5958C107.737 21.7488 107.573 22.5596 107.754 23.3987C109.036 29.471 108.151 35.7643 105.889 41.3773C103.621 47.0129 100.015 51.9682 95.848 56.2205C95.2697 56.8158 95.0599 57.5699 95.4058 57.9271C95.7516 58.2843 96.5283 58.0915 97.1293 57.4735C101.421 53.0965 105.175 47.9598 107.556 42.0406C109.92 36.1498 110.878 29.5276 109.501 23.0189C109.302 22.0947 108.684 21.4484 108.208 21.5958Z" fill="#AD6F36"/>
<path d="M92.4745 2.31317C90.4731 2.89148 88.9253 3.65689 89.033 4.1955C89.4129 6.18556 89.5887 8.35705 89.6057 10.5002C89.617 12.6603 89.4639 14.8318 89.1634 16.9863C88.5681 21.2953 87.3661 25.5418 85.6709 29.6013C85.4385 30.157 86.7822 31.2966 88.6872 32.147C90.5922 32.9918 92.3668 33.1619 92.6389 32.5099C94.561 27.8948 95.95 23.0245 96.6417 18.0239C96.9933 15.5292 97.169 13.0005 97.152 10.4548C97.1293 7.90348 96.9422 5.36913 96.4376 2.74407C96.2959 1.99567 94.4759 1.7292 92.4745 2.31317Z" fill="#D5A579"/>
<path d="M94.8955 2.28488C94.4136 2.40394 94.1471 3.02761 94.2605 3.67962C95.0599 8.36277 94.9862 13.0686 94.3569 17.6894C93.7105 22.3159 92.4575 26.8346 90.6999 31.1379C90.4561 31.7389 90.6149 32.3795 91.0685 32.578C91.5277 32.7764 92.106 32.4362 92.3611 31.8182C94.1698 27.3845 95.4681 22.7184 96.1315 17.9389C96.7835 13.148 96.8629 8.30041 96.0294 3.36779C95.9047 2.67042 95.3831 2.17148 94.8955 2.28488Z" fill="#AD6F36"/>
<path d="M125.506 124.472C126.147 128.713 125.807 133.391 124.599 137.49C122.031 146.261 115.414 151.517 106.445 152.894C107.374 152.753 120.953 155.122 127.655 138.522C129.265 134.53 129.208 129.79 128.556 125.504C128.477 124.994 125.574 124.937 125.506 124.472Z" fill="#F5B0A2"/>
<defs>
<linearGradient id="paint0_linear_2_2289" x1="46.5444" y1="102.383" x2="63.3664" y2="102.383" gradientUnits="userSpaceOnUse">
<stop stop-color="#FDEDE5"/>
<stop offset="1" stop-color="#FAD0B3"/>
</linearGradient>
</defs>
</svg>
