<svg width="522" height="366" viewBox="0 0 522 366" fill="none" xmlns="http://www.w3.org/2000/svg">
<path d="M84.6898 16C81.5345 16 79 18.638 79 21.8967C79 25.1295 81.5345 27.7675 84.6898 27.7675C87.7933 27.7675 90.3537 25.1295 90.3537 21.8967C90.3537 18.638 87.7933 16 84.6898 16Z" fill="#FEFEFE"/>
<path d="M303.716 337C302.216 337 301 338.474 301 340.285C301 342.095 302.216 343.543 303.716 343.543C305.216 343.543 306.431 342.095 306.431 340.285C306.431 338.474 305.216 337 303.716 337Z" fill="#FEFEFE"/>
<path d="M477.716 95C476.216 95 475 96.4742 475 98.2846C475 100.095 476.216 101.543 477.716 101.543C479.216 101.543 480.431 100.095 480.431 98.2846C480.431 96.4742 479.216 95 477.716 95Z" fill="#FEFEFE"/>
<path d="M416.69 354C413.535 354 411 356.638 411 359.897C411 363.13 413.535 365.768 416.69 365.768C419.793 365.768 422.354 363.13 422.354 359.897C422.354 356.638 419.793 354 416.69 354Z" fill="#FEFEFE"/>
<path d="M483.69 231C480.535 231 478 233.638 478 236.897C478 240.13 480.535 242.768 483.69 242.768C486.793 242.768 489.354 240.13 489.354 236.897C489.354 233.638 486.793 231 483.69 231Z" fill="#FEFEFE"/>
<path d="M427.69 195C424.535 195 422 197.638 422 200.897C422 204.13 424.535 206.768 427.69 206.768C430.793 206.768 433.354 204.13 433.354 200.897C433.354 197.638 430.793 195 427.69 195Z" fill="#FEFEFE"/>
<path d="M512.827 9.16788L510 0L507.173 9.16788H498L505.404 14.8321L502.577 24L510 18.3358L517.423 24L514.596 14.8321L522 9.16788H512.827Z" fill="#FEFEFE"/>
<path d="M6.95368 311.388L9.0193 305L11.099 311.388H17.7877L12.3777 315.327L14.4433 321.702L9.0193 317.763L3.59527 321.702L5.67494 315.327L0.25091 311.388H6.95368Z" fill="#FEFEFE"/>
</svg>
