<svg width="80" height="119" viewBox="0 0 80 119" fill="none" xmlns="http://www.w3.org/2000/svg">
<rect x="32.4933" y="107.772" width="14.9469" height="10.3979" fill="#994D2B"/>
<path fill-rule="evenodd" clip-rule="evenodd" d="M39.397 14.1914L67.5218 56.9226H57.6131L74.5059 79.2849H62.0819L79.9336 107.915H0L17.8518 79.2849H5.42741L22.3201 56.9226H11.2722L39.397 14.1914Z" fill="#255B55"/>
<path d="M42.1486 8.97796L39.5165 0.544434L36.8843 8.97796H28.3434L35.237 14.2064L32.6049 22.6399L39.5165 17.4294L46.428 22.6399L43.778 14.2064L50.6895 8.97796H42.1486Z" fill="#CC323A"/>
<path d="M42.0164 57.9326C41.4502 57.9326 40.9916 58.3921 40.9916 58.9552C40.9916 59.5227 41.4502 59.9822 42.0164 59.9822C42.5826 59.9822 43.0412 59.5227 43.0412 58.9552C43.0412 58.3921 42.5826 57.9326 42.0164 57.9326Z" fill="#FEFEFE"/>
<path d="M30.4021 42.9023C29.8359 42.9023 29.3773 43.3618 29.3773 43.9249C29.3773 44.4925 29.8359 44.9519 30.4021 44.9519C30.9683 44.9519 31.4269 44.4925 31.4269 43.9249C31.4269 43.3618 30.9683 42.9023 30.4021 42.9023Z" fill="#FEFEFE"/>
<path d="M47.4819 41.5361C46.9157 41.5361 46.4572 41.9956 46.4572 42.5587C46.4572 43.1262 46.9157 43.5857 47.4819 43.5857C48.0482 43.5857 48.5067 43.1262 48.5067 42.5587C48.5067 41.9956 48.0482 41.5361 47.4819 41.5361Z" fill="#FEFEFE"/>
<path d="M53.6307 65.4478C53.0645 65.4478 52.6059 65.9072 52.6059 66.4703C52.6059 67.0379 53.0645 67.4973 53.6307 67.4973C54.1969 67.4973 54.6555 67.0379 54.6555 66.4703C54.6555 65.9072 54.1969 65.4478 53.6307 65.4478Z" fill="#FEFEFE"/>
<path d="M30.4021 47.0015C29.8359 47.0015 29.3773 47.4609 29.3773 48.024C29.3773 48.5916 29.8359 49.051 30.4021 49.051C30.9683 49.051 31.4269 48.5916 31.4269 48.024C31.4269 47.4609 30.9683 47.0015 30.4021 47.0015Z" fill="#FEFEFE"/>
<path d="M28.3525 80.478C27.7863 80.478 27.3278 80.9375 27.3278 81.5006C27.3278 82.0681 27.7863 82.5276 28.3525 82.5276C28.9188 82.5276 29.3773 82.0681 29.3773 81.5006C29.3773 80.9375 28.9188 80.478 28.3525 80.478Z" fill="#FEFEFE"/>
<path d="M44.066 83.2109C43.4998 83.2109 43.0412 83.6704 43.0412 84.2335C43.0412 84.8011 43.4998 85.2605 44.066 85.2605C44.6322 85.2605 45.0908 84.8011 45.0908 84.2335C45.0908 83.6704 44.6322 83.2109 44.066 83.2109Z" fill="#FEFEFE"/>
<path d="M40.65 96.8745C40.0838 96.8745 39.6252 97.334 39.6252 97.897C39.6252 98.4646 40.0838 98.9241 40.65 98.9241C41.2162 98.9241 41.6748 98.4646 41.6748 97.897C41.6748 97.334 41.2162 96.8745 40.65 96.8745Z" fill="#FEFEFE"/>
<path d="M52.2643 86.6265C51.6981 86.6265 51.2395 87.0859 51.2395 87.649C51.2395 88.2166 51.6981 88.676 52.2643 88.676C52.8305 88.676 53.2891 88.2166 53.2891 87.649C53.2891 87.0859 52.8305 86.6265 52.2643 86.6265Z" fill="#FEFEFE"/>
<path d="M64.5618 98.2412C63.9956 98.2412 63.537 98.7007 63.537 99.2637C63.537 99.8313 63.9956 100.291 64.5618 100.291C65.128 100.291 65.5866 99.8313 65.5866 99.2637C65.5866 98.7007 65.128 98.2412 64.5618 98.2412Z" fill="#FEFEFE"/>
<path d="M22.887 93.459C22.3208 93.459 21.8622 93.9185 21.8622 94.4815C21.8622 95.0491 22.3208 95.5086 22.887 95.5086C23.4532 95.5086 23.9118 95.0491 23.9118 94.4815C23.9118 93.9185 23.4532 93.459 22.887 93.459Z" fill="#FEFEFE"/>
<path d="M15.3718 100.974C14.8056 100.974 14.347 101.434 14.347 101.997C14.347 102.564 14.8056 103.024 15.3718 103.024C15.938 103.024 16.3966 102.564 16.3966 101.997C16.3966 101.434 15.938 100.974 15.3718 100.974Z" fill="#FEFEFE"/>
<path d="M38.6004 25.8228C38.0342 25.8228 37.5756 26.2822 37.5756 26.8453C37.5756 27.4129 38.0342 27.8723 38.6004 27.8723C39.1666 27.8723 39.6252 27.4129 39.6252 26.8453C39.6252 26.2822 39.1666 25.8228 38.6004 25.8228Z" fill="#FEFEFE"/>
<path d="M30.4021 59.9824C29.8359 59.9824 29.3773 60.4419 29.3773 61.005C29.3773 61.5725 29.8359 62.032 30.4021 62.032C30.9683 62.032 31.4269 61.5725 31.4269 61.005C31.4269 60.4419 30.9683 59.9824 30.4021 59.9824Z" fill="#FEFEFE"/>
<path d="M44.066 70.23C43.4998 70.23 43.0412 70.6894 43.0412 71.2525C43.0412 71.8201 43.4998 72.2796 44.066 72.2796C44.6322 72.2796 45.0908 71.8201 45.0908 71.2525C45.0908 70.6894 44.6322 70.23 44.066 70.23Z" fill="#FEFEFE"/>
<path d="M16.7382 72.2798C16.172 72.2798 15.7134 72.7393 15.7134 73.3023C15.7134 73.8699 16.172 74.3294 16.7382 74.3294C17.3044 74.3294 17.763 73.8699 17.763 73.3023C17.763 72.7393 17.3044 72.2798 16.7382 72.2798Z" fill="#FEFEFE"/>
<path d="M57.7299 100.291C57.1637 100.291 56.7051 100.75 56.7051 101.313C56.7051 101.881 57.1637 102.34 57.7299 102.34C58.2961 102.34 58.7547 101.881 58.7547 101.313C58.7547 100.75 58.2961 100.291 57.7299 100.291Z" fill="#FEFEFE"/>
<path d="M31.0853 101.657C30.5191 101.657 30.0605 102.117 30.0605 102.68C30.0605 103.247 30.5191 103.707 31.0853 103.707C31.6515 103.707 32.1101 103.247 32.1101 102.68C32.1101 102.117 31.6515 101.657 31.0853 101.657Z" fill="#FEFEFE"/>
</svg>
