<svg width="148" height="261" viewBox="0 0 148 261" fill="none" xmlns="http://www.w3.org/2000/svg">
<path d="M45.6125 224.757C45.5844 221.279 45.6125 217.8 45.6546 214.308C45.753 204.942 45.9357 195.576 46.1464 186.21C46.3291 177.399 46.554 168.575 46.7788 159.75C46.849 156.948 46.9193 154.147 47.0036 151.345C47.0177 150.587 46.821 149.816 46.6383 149.085C46.568 148.787 46.4275 148.056 46.4135 148.381C46.4135 148.151 46.2308 148.015 46.02 148.015L45.8654 146.73C63.2055 144.794 80.6579 147.379 97.9417 148.976C113.188 150.398 129.46 151.331 144.257 146.73L144.425 147.027C144.65 147.515 145.55 147.42 145.634 146.878C145.676 146.689 145.69 146.472 145.69 146.269C146.224 146.093 146.73 145.89 147.264 145.714C148.43 150.573 147.854 156.42 147.882 161.131C147.952 171.187 147.671 181.243 147.418 191.299C147.166 200.286 146.87 209.246 146.73 218.22C146.716 219.14 146.069 225.623 146.927 227.911C146.519 227.992 146.112 228.087 145.76 228.154C145.381 228.222 145.367 228.628 145.578 228.831C145.325 228.818 145.086 228.818 144.917 228.818C142.88 228.912 140.856 229.007 138.819 229.102C134.238 229.291 129.643 229.467 125.048 229.603C115.633 229.887 106.204 230.09 96.7895 230.225C79.6321 230.482 62.264 229.724 45.1488 230.767V230.32L45.219 230.279C46.1886 228.858 45.6125 226.422 45.6125 224.757Z" fill="#CC323A"/>
<path d="M39.0924 182.827C39.1908 173.84 39.3453 164.839 39.4999 155.852C39.542 153.159 39.4015 150.384 39.6404 147.677C39.6966 146.974 40.3571 144.997 40.3571 145.025C40.3571 144.767 40.5678 144.646 40.7786 144.646C40.9753 144.646 41.158 144.767 41.158 145.011C41.1721 144.673 41.3126 145.417 41.3829 145.701C41.5655 146.446 41.7622 147.204 41.7482 147.975C41.6639 150.777 41.5936 153.565 41.5234 156.38C41.2985 165.191 41.0737 174.016 40.891 182.827C40.6803 192.207 40.4976 201.573 40.3992 210.939C40.3571 214.417 40.329 217.895 40.3571 221.387C40.3571 223.052 40.9332 225.488 39.9636 226.91L39.8933 226.95L39.8371 226.923C38.6006 225.651 39.0643 223.025 39.0221 221.387C38.9378 217.895 38.9097 214.417 38.9097 210.939C38.8957 201.573 38.98 192.207 39.0924 182.827Z" fill="#705749"/>
<path d="M90.719 185.195C91.52 192.355 93.0236 199.718 92.9111 206.932C92.8268 212.563 92.7706 218.193 93.0798 223.81C93.136 224.811 93.2062 225.813 93.3046 226.815C96.115 226.774 98.9254 226.72 101.736 226.666C101.342 221.103 101.778 215.31 101.89 209.991C102.115 197.85 102.579 185.71 102.41 173.569C102.284 164.596 102.228 155.027 99.8528 146.215C97.4499 146.04 95.047 145.823 92.6863 145.606C91.8853 145.539 91.0704 145.458 90.2694 145.376C89.4825 151.074 89.0328 157.49 89.0188 158.843C88.8782 167.641 89.7495 176.452 90.719 185.195ZM103.183 226.639C108.72 226.53 114.256 226.395 119.792 226.219C124.387 226.084 128.982 225.921 133.563 225.718C135.601 225.637 137.624 225.542 139.662 225.448C139.83 225.448 140.069 225.448 140.322 225.461C140.111 225.258 140.126 224.852 140.491 224.784C140.856 224.703 141.264 224.608 141.671 224.541C140.814 222.24 141.446 215.77 141.46 214.85C141.615 205.876 141.91 196.903 142.163 187.929C142.416 177.873 142.697 167.817 142.627 157.761C142.599 153.037 143.175 147.19 142.008 142.331C141.474 142.52 140.955 142.723 140.435 142.886C140.435 143.102 140.421 143.305 140.378 143.509C140.294 144.05 139.395 144.145 139.17 143.657L139.001 143.36C126.973 147.095 113.975 147.176 101.342 146.324L101.413 146.649C103.731 156.339 103.801 166.612 103.872 176.506C103.956 187.889 103.52 199.271 103.31 210.641C103.211 215.743 102.79 221.306 103.183 226.639ZM98.841 142.872C98.1103 140.774 96.9862 138.338 95.1032 136.931C94.8503 137.093 94.5974 137.255 94.3304 137.404C93.6559 137.783 93.0798 137.066 93.3468 136.457L93.5154 136.091L93.1922 135.956C92.1102 135.658 91.2109 139.218 90.5223 143.63C93.4451 143.901 96.3679 144.158 99.2907 144.361C99.1361 143.86 99.0097 143.36 98.841 142.872ZM93.8667 111.255C89.9743 106.681 78.8874 99.2636 74.0254 106.559C70.0487 112.514 75.6273 119.769 79.5337 124.208C83.1451 128.309 87.5012 131.733 91.239 135.713C91.3373 135.442 91.4216 135.198 91.52 134.941C91.6324 134.657 91.8854 134.413 92.2226 134.427C92.883 134.481 93.5013 134.603 94.0634 134.806C97.3656 127.064 99.9371 118.375 93.8667 111.255ZM37.1392 142.927C54.2403 139.597 71.6647 141.817 89.0188 143.481C89.4544 141.357 90.0165 139.245 90.719 137.174C85.4917 131.49 79.2527 126.861 74.8123 120.499C71.201 115.329 69.051 107.1 75.6695 103.162C82.2739 99.223 91.4919 106.302 95.4124 110.903C101.469 118.009 98.827 127.118 95.5529 134.914C102.747 129.378 104.659 118.375 109.759 111.364C111.994 108.305 115.001 106.099 118.935 105.747C121.549 105.503 125.062 106.302 126.369 108.724C129.235 114.098 120.579 122.11 117.361 125.44C112.289 130.664 106.626 135.902 100.457 139.935C99.6982 140.436 98.9816 139.245 99.7404 138.744C104.883 135.388 109.52 131.07 113.919 126.874C116.856 124.046 119.694 121.068 122.111 117.806C123.685 115.668 125.863 112.622 125.273 109.861C124.514 106.302 118.162 106.884 115.788 107.912C111.853 109.604 109.577 113.935 107.736 117.454C104.518 123.599 102.129 131.598 96.3117 136.078C98.6865 138.054 100.007 141.451 100.85 144.469C113.3 145.254 125.638 145.038 137.751 141.546L137.709 141.248C137.512 141.235 137.315 141.208 137.118 141.194C136.598 141.167 136.598 140.45 137.118 140.409C137.413 140.396 137.723 140.355 138.032 140.328C138.833 139.259 140.983 139.15 142.093 138.974C142.711 138.88 143.175 139.137 143.386 139.692L143.442 139.841C144.201 139.949 144.566 141.059 143.976 141.532C145.128 146.053 144.594 151.521 144.594 155.933C144.594 165.394 144.257 174.828 143.891 184.261C143.554 193.411 143.133 202.56 142.795 211.71C142.767 212.481 142.079 222.01 142.275 224.446C143.54 224.297 144.608 224.487 144.004 226.219C143.891 226.557 143.624 226.774 143.245 226.788C129.924 227.424 116.603 227.776 103.267 227.979C103.31 228.358 102.579 228.561 101.441 228.642C101.708 228.466 101.862 228.263 101.834 227.992C99.0378 228.033 96.2274 228.073 93.417 228.1L93.6137 228.412C91.8151 228.263 90.438 228.127 90.2553 228.127C73.5476 228.29 56.5589 229.048 39.8933 228.019C39.4718 228.006 39.4718 227.424 39.8933 227.397C57.0085 226.354 74.3767 227.099 91.5341 226.855L91.801 226.842C91.0563 220.115 91.3795 213.185 91.4919 206.499C91.5622 201.532 90.6066 196.456 90.0165 191.543C89.2577 185.047 88.5129 178.55 88.0351 172.04C87.3888 163.242 87.1077 154.025 88.6815 145.227C72.7045 143.63 56.6151 141.559 40.61 143.36C39.528 143.468 38.4601 143.603 37.3781 143.752C36.83 143.833 36.563 143.035 37.1392 142.927Z" fill="#994D2B"/>
<path d="M24.8438 100.211C26.5441 100.211 27.9071 101.591 27.9071 103.283C27.9071 104.975 26.5441 106.342 24.8438 106.342C23.1576 106.342 21.7805 104.975 21.7805 103.283C21.7805 101.591 23.1576 100.211 24.8438 100.211Z" fill="#FEFEFE"/>
<path d="M58.0344 111.959C59.7347 111.959 61.0977 113.34 61.0977 115.032C61.0977 116.723 59.7347 118.09 58.0344 118.09C56.3482 118.09 54.9711 116.723 54.9711 115.032C54.9711 113.34 56.3482 111.959 58.0344 111.959Z" fill="#FEFEFE"/>
<path d="M36.7457 219.722C38.432 219.722 39.8091 221.103 39.8091 222.795C39.8091 224.486 38.432 225.854 36.7457 225.854C35.0455 225.854 33.6824 224.486 33.6824 222.795C33.6824 221.103 35.0455 219.722 36.7457 219.722Z" fill="#FEFEFE"/>
<path d="M26.6987 222.592C27.5137 222.592 28.1882 223.35 28.1882 224.297C28.1882 225.245 27.5137 226.016 26.6987 226.016C25.8977 226.016 25.2232 225.245 25.2232 224.297C25.2232 223.35 25.8977 222.592 26.6987 222.592Z" fill="#FEFEFE"/>
<path d="M56.0109 85.9048C56.8259 85.9048 57.4863 86.6627 57.4863 87.6101C57.4863 88.5575 56.8259 89.329 56.0109 89.329C55.2099 89.329 54.5354 88.5575 54.5354 87.6101C54.5354 86.6627 55.2099 85.9048 56.0109 85.9048Z" fill="#FEFEFE"/>
<path d="M53.0179 23.4418C53.8329 23.4418 54.4934 24.2133 54.4934 25.1607C54.4934 26.0946 53.8329 26.8661 53.0179 26.8661C52.2029 26.8661 51.5284 26.0946 51.5284 25.1607C51.5284 24.2133 52.2029 23.4418 53.0179 23.4418Z" fill="#FEFEFE"/>
<path d="M16.0614 169.035C17.7335 169.035 19.0825 170.415 19.0825 172.107C19.0825 173.799 17.7335 175.166 16.0614 175.166C14.4032 175.166 13.0402 173.799 13.0402 172.107C13.0402 170.415 14.4032 169.035 16.0614 169.035Z" fill="#FEFEFE"/>
<path d="M26.1225 199.014C27.7806 199.014 29.1296 200.381 29.1296 202.073C29.1296 203.765 27.7806 205.145 26.1225 205.145C24.4503 205.145 23.1013 203.765 23.1013 202.073C23.1013 200.381 24.4503 199.014 26.1225 199.014Z" fill="#FEFEFE"/>
<path d="M7.57403 239.754C9.23215 239.754 10.5811 241.121 10.5811 242.813C10.5811 244.505 9.23215 245.885 7.57403 245.885C5.90186 245.885 4.55287 244.505 4.55287 242.813C4.55287 241.121 5.90186 239.754 7.57403 239.754Z" fill="#FEFEFE"/>
<path d="M54.5074 239.943C56.1796 239.943 57.5286 241.324 57.5286 243.015C57.5286 244.707 56.1796 246.074 54.5074 246.074C52.8352 246.074 51.4862 244.707 51.4862 243.015C51.4862 241.324 52.8352 239.943 54.5074 239.943Z" fill="#FEFEFE"/>
<path d="M9.26027 118.32C10.9324 118.32 12.2814 119.701 12.2814 121.393C12.2814 123.085 10.9324 124.451 9.26027 124.451C7.60215 124.451 6.23914 123.085 6.23914 121.393C6.23914 119.701 7.60215 118.32 9.26027 118.32Z" fill="#FEFEFE"/>
<path d="M46.9896 116.263C48.6618 116.263 50.0108 117.63 50.0108 119.322C50.0108 121.014 48.6618 122.394 46.9896 122.394C45.3315 122.394 43.9685 121.014 43.9685 119.322C43.9685 117.63 45.3315 116.263 46.9896 116.263Z" fill="#FEFEFE"/>
<path d="M26.1225 24.4709C27.7806 24.4709 29.1296 25.8515 29.1296 27.5433C29.1296 29.2352 27.7806 30.6022 26.1225 30.6022C24.4503 30.6022 23.1013 29.2352 23.1013 27.5433C23.1013 25.8515 24.4503 24.4709 26.1225 24.4709Z" fill="#FEFEFE"/>
<path d="M7.57403 65.2104C9.23215 65.2104 10.5811 66.5909 10.5811 68.2827C10.5811 69.9745 9.23215 71.3416 7.57403 71.3416C5.90186 71.3416 4.55287 69.9745 4.55287 68.2827C4.55287 66.5909 5.90186 65.2104 7.57403 65.2104Z" fill="#FEFEFE"/>
<path d="M54.5074 65.413C56.1796 65.413 57.5286 66.78 57.5286 68.4718C57.5286 70.1636 56.1796 71.5442 54.5074 71.5442C52.8352 71.5442 51.4862 70.1636 51.4862 68.4718C51.4862 66.78 52.8352 65.413 54.5074 65.413Z" fill="#FEFEFE"/>
<path d="M30.577 256.821C31.392 256.821 32.0524 257.606 32.0524 258.54C32.0524 259.487 31.392 260.259 30.577 260.259C29.762 260.259 29.1015 259.487 29.1015 258.54C29.1015 257.606 29.762 256.821 30.577 256.821Z" fill="#FEFEFE"/>
<path d="M54.3668 55.1406C55.1819 55.1406 55.8423 55.8985 55.8423 56.8595C55.8423 57.7934 55.1819 58.5783 54.3668 58.5783C53.5518 58.5783 52.8773 57.7934 52.8773 56.8595C52.8773 55.8985 53.5518 55.1406 54.3668 55.1406Z" fill="#FEFEFE"/>
<path d="M37.4062 138.068C38.2212 138.068 38.8817 138.826 38.8817 139.773C38.8817 140.72 38.2212 141.492 37.4062 141.492C36.5912 141.492 35.9307 140.72 35.9307 139.773C35.9307 138.826 36.5912 138.068 37.4062 138.068Z" fill="#FEFEFE"/>
<path d="M12.6749 189.405C13.4899 189.405 14.1504 190.163 14.1504 191.11C14.1504 192.058 13.4899 192.829 12.6749 192.829C11.8599 192.829 11.1995 192.058 11.1995 191.11C11.1995 190.163 11.8599 189.405 12.6749 189.405Z" fill="#FEFEFE"/>
<path d="M14.9934 104.055C15.8084 104.055 16.4689 104.813 16.4689 105.76C16.4689 106.708 15.8084 107.479 14.9934 107.479C14.1784 107.479 13.518 106.708 13.518 105.76C13.518 104.813 14.1784 104.055 14.9934 104.055Z" fill="#FEFEFE"/>
<path d="M12.464 22.0886C13.2791 22.0886 13.9395 22.8466 13.9395 23.794C13.9395 24.7414 13.2791 25.4994 12.464 25.4994C11.649 25.4994 10.9886 24.7414 10.9886 23.794C10.9886 22.8466 11.649 22.0886 12.464 22.0886Z" fill="#FEFEFE"/>
<path d="M41.4672 52.9207C42.4087 52.9207 43.1815 53.5839 43.1815 54.396C43.1815 55.208 42.4087 55.8848 41.4672 55.8848C40.5257 55.8848 39.7669 55.208 39.7669 54.396C39.7669 53.5839 40.5257 52.9207 41.4672 52.9207Z" fill="#FEFEFE"/>
<path d="M34.9049 36.9088C35.8464 36.9088 36.6192 37.5856 36.6192 38.3977C36.6192 39.2098 35.8464 39.8864 34.9049 39.8864C33.9493 39.8864 33.1905 39.2098 33.1905 38.3977C33.1905 37.5856 33.9493 36.9088 34.9049 36.9088Z" fill="#FEFEFE"/>
<path d="M3.0071 220.453C4.67928 220.453 6.02826 221.82 6.02826 223.512C6.02826 225.204 4.67928 226.585 3.0071 226.585C1.34898 226.585 1.19209e-05 225.204 1.19209e-05 223.512C1.19209e-05 221.82 1.34898 220.453 3.0071 220.453Z" fill="#FEFEFE"/>
<path d="M47.8608 119.187C49.5189 119.187 50.8679 120.554 50.8679 122.245C50.8679 123.937 49.5189 125.318 47.8608 125.318C46.1886 125.318 44.8396 123.937 44.8396 122.245C44.8396 120.554 46.1886 119.187 47.8608 119.187Z" fill="#FEFEFE"/>
<path d="M14.2346 132.559C15.9068 132.559 17.2557 133.94 17.2557 135.631C17.2557 137.323 15.9068 138.69 14.2346 138.69C12.5624 138.69 11.2134 137.323 11.2134 135.631C11.2134 133.94 12.5624 132.559 14.2346 132.559Z" fill="#FEFEFE"/>
<path d="M3.0071 45.9098C4.67928 45.9098 6.02826 47.2903 6.02826 48.9822C6.02826 50.674 4.67928 52.041 3.0071 52.041C1.34898 52.041 1.19209e-05 50.674 1.19209e-05 48.9822C1.19209e-05 47.2903 1.34898 45.9098 3.0071 45.9098Z" fill="#FEFEFE"/>
<path d="M19.9537 6.38838L22.0193 0L24.099 6.38838H30.7877L25.3777 10.327L27.4433 16.7018L22.0193 12.7632L16.5953 16.7018L18.6749 10.327L13.2509 6.38838H19.9537Z" fill="#FEFEFE"/>
</svg>
