<svg width="1347" height="662" viewBox="0 0 1347 662" fill="none" xmlns="http://www.w3.org/2000/svg">
<path d="M1243.03 594.526C1241.53 594.526 1240.31 596.001 1240.31 597.811C1240.31 599.621 1241.53 601.07 1243.03 601.07C1244.53 601.07 1245.74 599.621 1245.74 597.811C1245.74 596.001 1244.53 594.526 1243.03 594.526Z" fill="#FEFEFE"/>
<path d="M1343.82 581C1342.32 581 1341.1 582.474 1341.1 584.285C1341.1 586.069 1342.32 587.543 1343.82 587.543C1345.32 587.543 1346.53 586.069 1346.53 584.285C1346.53 582.474 1345.32 581 1343.82 581Z" fill="#FEFEFE"/>
<path d="M968.574 600.992C967.1 600.992 965.859 602.466 965.859 604.251C965.859 606.061 967.1 607.535 968.574 607.535C970.074 607.535 971.29 606.061 971.29 604.251C971.29 602.466 970.074 600.992 968.574 600.992Z" fill="#FEFEFE"/>
<path d="M1066.54 607.302C1065.04 607.302 1063.83 608.776 1063.83 610.587C1063.83 612.397 1065.04 613.846 1066.54 613.846C1068.04 613.846 1069.26 612.397 1069.26 610.587C1069.26 608.776 1068.04 607.302 1066.54 607.302Z" fill="#FEFEFE"/>
<path d="M927.246 622.846C925.746 622.846 924.53 624.32 924.53 626.13C924.53 627.941 925.746 629.389 927.246 629.389C928.746 629.389 929.961 627.941 929.961 626.13C929.961 624.32 928.746 622.846 927.246 622.846Z" fill="#FEFEFE"/>
<path d="M1071.72 63C1070.22 63 1069 64.4742 1069 66.2846C1069 68.095 1070.22 69.5433 1071.72 69.5433C1073.22 69.5433 1074.43 68.095 1074.43 66.2846C1074.43 64.4742 1073.22 63 1071.72 63Z" fill="#FEFEFE"/>
<path d="M736.716 0C735.216 0 734 1.47418 734 3.28457C734 5.09496 735.216 6.54327 736.716 6.54327C738.216 6.54327 739.431 5.09496 739.431 3.28457C739.431 1.47418 738.216 0 736.716 0Z" fill="#FEFEFE"/>
<path d="M50.7156 297C49.2156 297 48 298.474 48 300.285C48 302.095 49.2156 303.543 50.7156 303.543C52.2156 303.543 53.4312 302.095 53.4312 300.285C53.4312 298.474 52.2156 297 50.7156 297Z" fill="#FEFEFE"/>
<path d="M224.716 55C223.216 55 222 56.4742 222 58.2846C222 60.095 223.216 61.5433 224.716 61.5433C226.216 61.5433 227.431 60.095 227.431 58.2846C227.431 56.4742 226.216 55 224.716 55Z" fill="#FEFEFE"/>
<path d="M516.716 623C515.216 623 514 624.474 514 626.285C514 628.095 515.216 629.543 516.716 629.543C518.216 629.543 519.431 628.095 519.431 626.285C519.431 624.474 518.216 623 516.716 623Z" fill="#FEFEFE"/>
<path d="M1116.72 3C1115.22 3 1114 4.47418 1114 6.28457C1114 8.09496 1115.22 9.54327 1116.72 9.54327C1118.22 9.54327 1119.43 8.09496 1119.43 6.28457C1119.43 4.47418 1118.22 3 1116.72 3Z" fill="#FEFEFE"/>
<path d="M2.71559 365C1.21556 365 0 366.474 0 368.285C0 370.095 1.21556 371.543 2.71559 371.543C4.21563 371.543 5.43116 370.095 5.43116 368.285C5.43116 366.474 4.21563 365 2.71559 365Z" fill="#FEFEFE"/>
<path d="M66.7156 73C65.2156 73 64 74.4742 64 76.2846C64 78.095 65.2156 79.5433 66.7156 79.5433C68.2156 79.5433 69.4312 78.095 69.4312 76.2846C69.4312 74.4742 68.2156 73 66.7156 73Z" fill="#FEFEFE"/>
<path d="M707.664 650C704.509 650 702 652.638 702 655.871C702 659.13 704.509 661.793 707.664 661.793C710.767 661.793 713.328 659.13 713.328 655.871C713.328 652.638 710.767 650 707.664 650Z" fill="#FEFEFE"/>
<path d="M841.537 629.441C840.063 629.441 838.821 630.915 838.821 632.725C838.821 634.536 840.063 635.984 841.537 635.984C843.037 635.984 844.278 634.536 844.278 632.725C844.278 630.915 843.037 629.441 841.537 629.441Z" fill="#FEFEFE"/>
<path d="M762.164 643.51C760.664 643.51 759.449 644.958 759.449 646.768C759.449 648.579 760.664 650.053 762.164 650.053C763.664 650.053 764.88 648.579 764.88 646.768C764.88 644.958 763.664 643.51 762.164 643.51Z" fill="#FEFEFE"/>
<path d="M1118.66 418C1115.53 418 1113 420.638 1113 423.871C1113 427.13 1115.53 429.768 1118.66 429.768C1121.79 429.768 1124.33 427.13 1124.33 423.871C1124.33 420.638 1121.79 418 1118.66 418Z" fill="#FEFEFE"/>
<path d="M1165.66 539C1162.53 539 1160 541.638 1160 544.897C1160 548.13 1162.53 550.793 1165.66 550.793C1168.79 550.793 1171.33 548.13 1171.33 544.897C1171.33 541.638 1168.79 539 1165.66 539Z" fill="#FEFEFE"/>
<path d="M132.94 34.1813L129.138 22L125.337 34.1813H113L122.957 41.7332L119.155 53.9145L129.138 46.3885L139.121 53.9145L135.294 41.7332L145.277 34.1813H132.94Z" fill="#FEFEFE"/>
<path d="M1154.69 395C1151.53 395 1149 397.638 1149 400.897C1149 404.13 1151.53 406.768 1154.69 406.768C1157.79 406.768 1160.35 404.13 1160.35 400.897C1160.35 397.638 1157.79 395 1154.69 395Z" fill="#FEFEFE"/>
<path d="M174.69 155C171.535 155 169 157.638 169 160.897C169 164.13 171.535 166.768 174.69 166.768C177.793 166.768 180.354 164.13 180.354 160.897C180.354 157.638 177.793 155 174.69 155Z" fill="#FEFEFE"/>
<path d="M50.6898 13C47.5345 13 45 15.638 45 18.8967C45 22.1295 47.5345 24.7675 50.6898 24.7675C53.7933 24.7675 56.3537 22.1295 56.3537 18.8967C56.3537 15.638 53.7933 13 50.6898 13Z" fill="#FEFEFE"/>
<path d="M200.69 9C197.535 9 195 11.638 195 14.8967C195 18.1295 197.535 20.7675 200.69 20.7675C203.793 20.7675 206.354 18.1295 206.354 14.8967C206.354 11.638 203.793 9 200.69 9Z" fill="#FEFEFE"/>
<path d="M163.69 314C160.535 314 158 316.638 158 319.897C158 323.13 160.535 325.768 163.69 325.768C166.793 325.768 169.354 323.13 169.354 319.897C169.354 316.638 166.793 314 163.69 314Z" fill="#FEFEFE"/>
<path d="M1083.69 117C1080.53 117 1078 119.638 1078 122.897C1078 126.13 1080.53 128.768 1083.69 128.768C1086.79 128.768 1089.35 126.13 1089.35 122.897C1089.35 119.638 1086.79 117 1083.69 117Z" fill="#FEFEFE"/>
<path d="M230.69 191C227.535 191 225 193.638 225 196.897C225 200.13 227.535 202.768 230.69 202.768C233.793 202.768 236.354 200.13 236.354 196.897C236.354 193.638 233.793 191 230.69 191Z" fill="#FEFEFE"/>
<path d="M1206.66 286C1203.53 286 1201 288.638 1201 291.871C1201 295.13 1203.53 297.768 1206.66 297.768C1209.79 297.768 1212.33 295.13 1212.33 291.871C1212.33 288.638 1209.79 286 1206.66 286Z" fill="#FEFEFE"/>
<path d="M1127.94 220.181L1124.14 208L1120.34 220.181H1108L1117.96 227.707L1114.16 239.889L1124.14 232.363L1134.12 239.889L1130.32 227.707L1140.28 220.181H1127.94Z" fill="#FEFEFE"/>
<path d="M81.9401 378.181L78.1383 366L74.3365 378.181H62L71.9571 385.707L68.1553 397.889L78.1383 390.363L88.1213 397.889L84.3195 385.707L94.2766 378.181H81.9401Z" fill="#FEFEFE"/>
</svg>
