<svg width="251" height="164" viewBox="0 0 251 164" fill="none" xmlns="http://www.w3.org/2000/svg">
<path d="M45.0943 24.6292C44.5508 24.6292 44.1151 25.0874 44.1151 25.6489C44.1151 26.2104 44.5508 26.6641 45.0943 26.6641C45.6334 26.6641 46.0736 26.2104 46.0736 25.6489C46.0736 25.0874 45.6334 24.6292 45.0943 24.6292Z" fill="#FEFEFE"/>
<path d="M40.5621 95.1209C40.0185 95.1209 39.5828 95.5791 39.5828 96.1406C39.5828 96.702 40.0185 97.1602 40.5621 97.1602C41.1011 97.1602 41.5413 96.702 41.5413 96.1406C41.5413 95.5791 41.1011 95.1209 40.5621 95.1209Z" fill="#FEFEFE"/>
<path d="M110.528 161.489C109.989 161.489 109.549 161.943 109.549 162.504C109.549 163.066 109.989 163.524 110.528 163.524C111.072 163.524 111.507 163.066 111.507 162.504C111.507 161.943 111.072 161.489 110.528 161.489Z" fill="#FEFEFE"/>
<path d="M110.699 124.233C110.155 124.233 109.72 124.691 109.72 125.248C109.72 125.81 110.155 126.268 110.699 126.268C111.238 126.268 111.678 125.81 111.678 125.248C111.678 124.691 111.238 124.233 110.699 124.233Z" fill="#FEFEFE"/>
<path d="M82.9568 79.3003C82.4177 79.3003 81.9775 79.7539 81.9775 80.3154C81.9775 80.8769 82.4177 81.3351 82.9568 81.3351C83.5003 81.3351 83.9405 80.8769 83.9405 80.3154C83.9405 79.7539 83.5003 79.3003 82.9568 79.3003Z" fill="#FEFEFE"/>
<path d="M95.2826 160.06C94.7436 160.06 94.3033 160.514 94.3033 161.076C94.3033 161.637 94.7436 162.095 95.2826 162.095C95.8216 162.095 96.2618 161.637 96.2618 161.076C96.2618 160.514 95.8216 160.06 95.2826 160.06Z" fill="#FEFEFE"/>
<path d="M23.5467 76.2413C23.0076 76.2413 22.5674 76.6995 22.5674 77.2609C22.5674 77.8179 23.0076 78.2761 23.5467 78.2761C24.0857 78.2761 24.5259 77.8179 24.5259 77.2609C24.5259 76.6995 24.0857 76.2413 23.5467 76.2413Z" fill="#FEFEFE"/>
<path d="M56.971 64.6522C56.4275 64.6522 55.9918 65.1104 55.9918 65.6674C55.9918 66.2289 56.4275 66.6871 56.971 66.6871C57.51 66.6871 57.9502 66.2289 57.9502 65.6674C57.9502 65.1104 57.51 64.6522 56.971 64.6522Z" fill="#FEFEFE"/>
<path d="M67.0778 83.4913C66.5343 83.4913 66.0986 83.945 66.0986 84.5065C66.0986 85.0679 66.5343 85.5261 67.0778 85.5261C67.6168 85.5261 68.057 85.0679 68.057 84.5065C68.057 83.945 67.6168 83.4913 67.0778 83.4913Z" fill="#FEFEFE"/>
<path d="M121.345 105.654C120.801 105.654 120.365 106.113 120.365 106.674C120.365 107.236 120.801 107.694 121.345 107.694C121.884 107.694 122.324 107.236 122.324 106.674C122.324 106.113 121.884 105.654 121.345 105.654Z" fill="#FEFEFE"/>
<path d="M54.4645 9.78794C53.921 9.78794 53.4763 10.2461 53.4763 10.8076C53.4763 11.3736 53.921 11.8318 54.4645 11.8318C55.0036 11.8318 55.4483 11.3736 55.4483 10.8076C55.4483 10.2461 55.0036 9.78794 54.4645 9.78794Z" fill="#FEFEFE"/>
<path d="M38.5856 69.9706C38.0421 69.9706 37.6019 70.4333 37.6019 70.9948C37.6019 71.5608 38.0421 72.0189 38.5856 72.0189C39.1246 72.0189 39.5693 71.5608 39.5693 70.9948C39.5693 70.4333 39.1246 69.9706 38.5856 69.9706Z" fill="#FEFEFE"/>
<path d="M15.5196 80.1718C14.9761 80.1718 14.5359 80.63 14.5359 81.1959C14.5359 81.7619 14.9761 82.2201 15.5196 82.2201C16.0586 82.2201 16.5033 81.7619 16.5033 81.1959C16.5033 80.63 16.0586 80.1718 15.5196 80.1718Z" fill="#FEFEFE"/>
<path d="M47.4751 93.0994C46.9315 93.0994 46.4913 93.5621 46.4913 94.1236C46.4913 94.6896 46.9315 95.1478 47.4751 95.1478C48.0186 95.1478 48.4588 94.6896 48.4588 94.1236C48.4588 93.5621 48.0186 93.0994 47.4751 93.0994Z" fill="#FEFEFE"/>
<path d="M42.5115 51.3606C41.968 51.3606 41.5278 51.8188 41.5278 52.3803C41.5278 52.9463 41.968 53.4044 42.5115 53.4044C43.055 53.4044 43.4952 52.9463 43.4952 52.3803C43.4952 51.8188 43.055 51.3606 42.5115 51.3606Z" fill="#FEFEFE"/>
<path d="M88.2348 47.5873C87.6912 47.5873 87.251 48.0455 87.251 48.607C87.251 49.1775 87.6912 49.6312 88.2348 49.6312C88.7783 49.6312 89.2185 49.1775 89.2185 48.607C89.2185 48.0455 88.7783 47.5873 88.2348 47.5873Z" fill="#FEFEFE"/>
<path d="M80.9174 45.1438C80.3739 45.1438 79.9337 45.6064 79.9337 46.1679C79.9337 46.7339 80.3739 47.1966 80.9174 47.1966C81.461 47.1966 81.9012 46.7339 81.9012 46.1679C81.9012 45.6064 81.461 45.1438 80.9174 45.1438Z" fill="#FEFEFE"/>
<path d="M88.6435 5.10725C88.1 5.10725 87.6598 5.56542 87.6598 6.1314C87.6598 6.69289 88.1 7.15556 88.6435 7.15556C89.187 7.15556 89.6272 6.69289 89.6272 6.1314C89.6272 5.56542 89.187 5.10725 88.6435 5.10725Z" fill="#FEFEFE"/>
<path d="M0.98373 112.873C0.440208 112.873 0 113.331 0 113.897C0 114.463 0.440208 114.917 0.98373 114.917C1.52725 114.917 1.96746 114.463 1.96746 113.897C1.96746 113.331 1.52725 112.873 0.98373 112.873Z" fill="#FEFEFE"/>
<path d="M105.241 146.706C104.698 146.706 104.257 147.164 104.257 147.726C104.257 148.292 104.698 148.75 105.241 148.75C105.785 148.75 106.225 148.292 106.225 147.726C106.225 147.164 105.785 146.706 105.241 146.706Z" fill="#FEFEFE"/>
<path d="M104.895 140.413C104.352 140.413 103.907 140.871 103.907 141.437C103.907 141.999 104.352 142.457 104.895 142.457C105.434 142.457 105.879 141.999 105.879 141.437C105.879 140.871 105.434 140.413 104.895 140.413Z" fill="#FEFEFE"/>
<path d="M88.7289 89.3398C88.1899 89.3398 87.7452 89.798 87.7452 90.3594C87.7452 90.9254 88.1899 91.3836 88.7289 91.3836C89.2724 91.3836 89.7126 90.9254 89.7126 90.3594C89.7126 89.798 89.2724 89.3398 88.7289 89.3398Z" fill="#FEFEFE"/>
<path d="M49.4785 55.8346C48.935 55.8346 48.4948 56.2927 48.4948 56.8587C48.4948 57.4247 48.935 57.8829 49.4785 57.8829C50.022 57.8829 50.4622 57.4247 50.4622 56.8587C50.4622 56.2927 50.022 55.8346 49.4785 55.8346Z" fill="#FEFEFE"/>
<path d="M99.8508 143.193C99.5948 143.193 99.3792 143.445 99.3792 143.759C99.3792 144.069 99.5948 144.33 99.8508 144.33C100.111 144.33 100.322 144.069 100.322 143.759C100.322 143.445 100.111 143.193 99.8508 143.193Z" fill="#FEFEFE"/>
<path d="M112.532 162.859C112.271 162.859 112.06 163.12 112.06 163.43C112.06 163.739 112.271 164 112.532 164C112.792 164 113.003 163.739 113.003 163.43C113.003 163.12 112.792 162.859 112.532 162.859Z" fill="#FEFEFE"/>
<path d="M116.237 140.583C115.977 140.583 115.761 140.844 115.761 141.154C115.761 141.468 115.977 141.724 116.237 141.724C116.498 141.724 116.709 141.468 116.709 141.154C116.709 140.844 116.498 140.583 116.237 140.583Z" fill="#FEFEFE"/>
<path d="M116.219 127.391C115.959 127.391 115.752 127.642 115.752 127.957C115.752 128.271 115.959 128.527 116.219 128.527C116.48 128.527 116.691 128.271 116.691 127.957C116.691 127.642 116.48 127.391 116.219 127.391Z" fill="#FEFEFE"/>
<path d="M81.1555 114.881C80.895 114.881 80.6838 115.137 80.6838 115.447C80.6838 115.761 80.895 116.017 81.1555 116.017C81.416 116.017 81.6271 115.761 81.6271 115.447C81.6271 115.137 81.416 114.881 81.1555 114.881Z" fill="#FEFEFE"/>
<path d="M66.2918 120.258C66.0312 120.258 65.8201 120.518 65.8201 120.828C65.8201 121.143 66.0312 121.399 66.2918 121.399C66.5523 121.399 66.7634 121.143 66.7634 120.828C66.7634 120.518 66.5523 120.258 66.2918 120.258Z" fill="#FEFEFE"/>
<path d="M91.5408 122.346C91.2803 122.346 91.0647 122.598 91.0647 122.917C91.0647 123.231 91.2803 123.483 91.5408 123.483C91.7968 123.483 92.0125 123.231 92.0125 122.917C92.0125 122.598 91.7968 122.346 91.5408 122.346Z" fill="#FEFEFE"/>
<path d="M42.4531 6.25276C42.1881 6.25276 41.977 6.50431 41.977 6.81875C41.977 7.12869 42.1881 7.38922 42.4531 7.38922C42.7136 7.38922 42.9248 7.12869 42.9248 6.81875C42.9248 6.50431 42.7136 6.25276 42.4531 6.25276Z" fill="#FEFEFE"/>
<path d="M47.5649 4.06517C47.3044 4.06517 47.0888 4.32121 47.0888 4.64014C47.0888 4.95008 47.3044 5.20612 47.5649 5.20612C47.821 5.20612 48.0366 4.95008 48.0366 4.64014C48.0366 4.32121 47.821 4.06517 47.5649 4.06517Z" fill="#FEFEFE"/>
<path d="M120.738 12.7121C120.473 12.7121 120.267 12.9637 120.267 13.2826C120.267 13.5925 120.473 13.8486 120.738 13.8486C120.999 13.8486 121.21 13.5925 121.21 13.2826C121.21 12.9637 120.999 12.7121 120.738 12.7121Z" fill="#FEFEFE"/>
<path d="M120.675 27.7826C120.415 27.7826 120.204 28.0341 120.204 28.3485C120.204 28.663 120.415 28.919 120.675 28.919C120.936 28.919 121.147 28.663 121.147 28.3485C121.147 28.0341 120.936 27.7826 120.675 27.7826Z" fill="#FEFEFE"/>
<path d="M89.1152 49.2854C88.8547 49.2854 88.6435 49.5459 88.6435 49.8604C88.6435 50.1703 88.8547 50.4263 89.1152 50.4263C89.3712 50.4263 89.5868 50.1703 89.5868 49.8604C89.5868 49.5459 89.3712 49.2854 89.1152 49.2854Z" fill="#FEFEFE"/>
<path d="M99.5678 66.961C99.3073 66.961 99.0962 67.2171 99.0962 67.5315C99.0962 67.8414 99.3073 68.102 99.5678 68.102C99.8239 68.102 100.039 67.8414 100.039 67.5315C100.039 67.2171 99.8239 66.961 99.5678 66.961Z" fill="#FEFEFE"/>
<path d="M117.571 115.478C117.311 115.478 117.1 115.734 117.1 116.049C117.1 116.363 117.311 116.615 117.571 116.615C117.832 116.615 118.043 116.363 118.043 116.049C118.043 115.734 117.832 115.478 117.571 115.478Z" fill="#FEFEFE"/>
<path d="M72.019 101.113C71.7629 101.113 71.5518 101.369 71.5518 101.679C71.5518 101.998 71.7629 102.249 72.019 102.249C72.2795 102.249 72.4951 101.998 72.4951 101.679C72.4951 101.369 72.2795 101.113 72.019 101.113Z" fill="#FEFEFE"/>
<path d="M79.6237 34.1745C79.3632 34.1745 79.1521 34.4306 79.1521 34.7495C79.1521 35.0549 79.3632 35.3155 79.6237 35.3155C79.8843 35.3155 80.0954 35.0549 80.0954 34.7495C80.0954 34.4306 79.8843 34.1745 79.6237 34.1745Z" fill="#FEFEFE"/>
<path d="M74.202 61.6964C73.946 61.6964 73.7303 61.9525 73.7303 62.2669C73.7303 62.5768 73.946 62.8329 74.202 62.8329C74.4625 62.8329 74.6781 62.5768 74.6781 62.2669C74.6781 61.9525 74.4625 61.6964 74.202 61.6964Z" fill="#FEFEFE"/>
<path d="M81.8877 4.53229C81.6227 4.53229 81.4116 4.78833 81.4116 5.10276C81.4116 5.4172 81.6227 5.67324 81.8877 5.67324C82.1482 5.67324 82.3549 5.4172 82.3549 5.10276C82.3549 4.78833 82.1482 4.53229 81.8877 4.53229Z" fill="#FEFEFE"/>
<path d="M110.456 23.6005C110.196 23.6005 109.985 23.852 109.985 24.1665C109.985 24.4809 110.196 24.7369 110.456 24.7369C110.717 24.7369 110.928 24.4809 110.928 24.1665C110.928 23.852 110.717 23.6005 110.456 23.6005Z" fill="#FEFEFE"/>
<path d="M106.939 36.6451C106.679 36.6451 106.467 36.8966 106.467 37.2155C106.467 37.5255 106.679 37.7815 106.939 37.7815C107.2 37.7815 107.411 37.5255 107.411 37.2155C107.411 36.8966 107.2 36.6451 106.939 36.6451Z" fill="#FEFEFE"/>
<path d="M92.7716 0C92.511 0 92.2999 0.256039 92.2999 0.565981C92.2999 0.884908 92.511 1.13645 92.7716 1.13645C93.0321 1.13645 93.2432 0.884908 93.2432 0.565981C93.2432 0.256039 93.0321 0 92.7716 0Z" fill="#FEFEFE"/>
<path d="M116.237 53.665C115.977 53.665 115.766 53.921 115.766 54.2355C115.766 54.5499 115.977 54.806 116.237 54.806C116.498 54.806 116.709 54.5499 116.709 54.2355C116.709 53.921 116.498 53.665 116.237 53.665Z" fill="#FEFEFE"/>
<path d="M29.4446 13.1164C29.1795 13.1164 28.9729 13.3724 28.9729 13.6869C28.9729 13.9968 29.1795 14.2528 29.4446 14.2528C29.7051 14.2528 29.9117 13.9968 29.9117 13.6869C29.9117 13.3724 29.7051 13.1164 29.4446 13.1164Z" fill="#FEFEFE"/>
<path d="M40.4947 24.5888C40.2296 24.5888 40.023 24.8448 40.023 25.1548C40.023 25.4737 40.2296 25.7252 40.4947 25.7252C40.7552 25.7252 40.9663 25.4737 40.9663 25.1548C40.9663 24.8448 40.7552 24.5888 40.4947 24.5888Z" fill="#FEFEFE"/>
<path d="M40.4093 45.4223C40.1533 45.4223 39.9422 45.6738 39.9422 45.9883C39.9422 46.3027 40.1533 46.5588 40.4093 46.5588C40.6744 46.5588 40.8855 46.3027 40.8855 45.9883C40.8855 45.6738 40.6744 45.4223 40.4093 45.4223Z" fill="#FEFEFE"/>
<path d="M53.7773 70.5456C53.5167 70.5456 53.3056 70.8016 53.3056 71.1116C53.3056 71.426 53.5167 71.682 53.7773 71.682C54.0378 71.682 54.2489 71.426 54.2489 71.1116C54.2489 70.8016 54.0378 70.5456 53.7773 70.5456Z" fill="#FEFEFE"/>
<path d="M47.8389 25.3884C47.5784 25.3884 47.3673 25.6444 47.3673 25.9543C47.3673 26.2688 47.5784 26.5248 47.8389 26.5248C48.0995 26.5248 48.3106 26.2688 48.3106 25.9543C48.3106 25.6444 48.0995 25.3884 47.8389 25.3884Z" fill="#FEFEFE"/>
<path d="M121.578 55.8031C121.322 55.8031 121.107 56.0636 121.107 56.3735C121.107 56.688 121.322 56.944 121.578 56.944C121.843 56.944 122.054 56.688 122.054 56.3735C122.054 56.0636 121.843 55.8031 121.578 55.8031Z" fill="#FEFEFE"/>
<path d="M82.9927 23.8925C82.7277 23.8925 82.521 24.144 82.521 24.454C82.521 24.7729 82.7277 25.029 82.9927 25.029C83.2532 25.029 83.4598 24.7729 83.4598 24.454C83.4598 24.144 83.2532 23.8925 82.9927 23.8925Z" fill="#FEFEFE"/>
<path d="M107.231 21.3187C106.975 21.3187 106.759 21.5747 106.759 21.8936C106.759 22.2036 106.975 22.4641 107.231 22.4641C107.492 22.4641 107.707 22.2036 107.707 21.8936C107.707 21.5747 107.492 21.3187 107.231 21.3187Z" fill="#FEFEFE"/>
<path d="M112.267 18.9425C112.006 18.9425 111.795 19.194 111.795 19.5085C111.795 19.8274 112.006 20.0789 112.267 20.0789C112.527 20.0789 112.738 19.8274 112.738 19.5085C112.738 19.194 112.527 18.9425 112.267 18.9425Z" fill="#FEFEFE"/>
<path d="M84.6322 35.7691C84.3717 35.7691 84.1606 36.0207 84.1606 36.3351C84.1606 36.6496 84.3717 36.9056 84.6322 36.9056C84.8928 36.9056 85.1039 36.6496 85.1039 36.3351C85.1039 36.0207 84.8928 35.7691 84.6322 35.7691Z" fill="#FEFEFE"/>
<path d="M82.3997 72.2525C82.1392 72.2525 81.9281 72.5085 81.9281 72.8229C81.9281 73.1374 82.1392 73.3889 82.3997 73.3889C82.6648 73.3889 82.8714 73.1374 82.8714 72.8229C82.8714 72.5085 82.6648 72.2525 82.3997 72.2525Z" fill="#FEFEFE"/>
<path d="M115.429 91.7429C115.173 91.7429 114.957 91.999 114.957 92.3134C114.957 92.6278 115.173 92.8794 115.429 92.8794C115.694 92.8794 115.905 92.6278 115.905 92.3134C115.905 91.999 115.694 91.7429 115.429 91.7429Z" fill="#FEFEFE"/>
<path d="M66.2962 78.7344C66.0357 78.7344 65.8246 78.9904 65.8246 79.3048C65.8246 79.6193 66.0357 79.8753 66.2962 79.8753C66.5568 79.8753 66.7679 79.6193 66.7679 79.3048C66.7679 78.9904 66.5568 78.7344 66.2962 78.7344Z" fill="#FEFEFE"/>
<path d="M67.0374 50.4084C66.7768 50.4084 66.5702 50.6644 66.5702 50.9788C66.5702 51.2933 66.7768 51.5448 67.0374 51.5448C67.3024 51.5448 67.5135 51.2933 67.5135 50.9788C67.5135 50.6644 67.3024 50.4084 67.0374 50.4084Z" fill="#FEFEFE"/>
<path d="M61.4315 68.2008C61.1665 68.2008 60.9554 68.4568 60.9554 68.7712C60.9554 69.0857 61.1665 69.3372 61.4315 69.3372C61.692 69.3372 61.8987 69.0857 61.8987 68.7712C61.8987 68.4568 61.692 68.2008 61.4315 68.2008Z" fill="#FEFEFE"/>
<path d="M35.2841 55.8076C35.019 55.8076 34.8124 56.0637 34.8124 56.3736C34.8124 56.688 35.019 56.9441 35.2841 56.9441C35.5446 56.9441 35.7557 56.688 35.7557 56.3736C35.7557 56.0637 35.5446 55.8076 35.2841 55.8076Z" fill="#FEFEFE"/>
<path d="M66.2289 23.2053C65.9683 23.2053 65.7572 23.4613 65.7572 23.7713C65.7572 24.0857 65.9683 24.3418 66.2289 24.3418C66.4894 24.3418 66.7005 24.0857 66.7005 23.7713C66.7005 23.4613 66.4894 23.2053 66.2289 23.2053Z" fill="#FEFEFE"/>
<path d="M64.7824 2.10672C64.5219 2.10672 64.3108 2.36276 64.3108 2.6727C64.3108 2.98714 64.5219 3.23868 64.7824 3.23868C65.043 3.23868 65.2541 2.98714 65.2541 2.6727C65.2541 2.36276 65.043 2.10672 64.7824 2.10672Z" fill="#FEFEFE"/>
<path d="M8.82215 17.8239C8.56161 17.8239 8.35049 18.0755 8.35049 18.3899C8.35049 18.6998 8.56161 18.9604 8.82215 18.9604C9.08268 18.9604 9.2938 18.6998 9.2938 18.3899C9.2938 18.0755 9.08268 17.8239 8.82215 17.8239Z" fill="#FEFEFE"/>
<path d="M49.0787 55.5245C48.8182 55.5245 48.6026 55.7806 48.6026 56.0905C48.6026 56.4094 48.8182 56.661 49.0787 56.661C49.3393 56.661 49.5504 56.4094 49.5504 56.0905C49.5504 55.7806 49.3393 55.5245 49.0787 55.5245Z" fill="#FEFEFE"/>
<path d="M14.8458 109.531C14.5853 109.531 14.3697 109.782 14.3697 110.097C14.3697 110.411 14.5853 110.663 14.8458 110.663C15.1018 110.663 15.3175 110.411 15.3175 110.097C15.3175 109.782 15.1018 109.531 14.8458 109.531Z" fill="#FEFEFE"/>
<path d="M25.011 38.8461C24.7505 38.8461 24.5394 39.1022 24.5394 39.4166C24.5394 39.7311 24.7505 39.9826 25.011 39.9826C25.2716 39.9826 25.4827 39.7311 25.4827 39.4166C25.4827 39.1022 25.2716 38.8461 25.011 38.8461Z" fill="#FEFEFE"/>
<path d="M21.5028 37.4895C21.2423 37.4895 21.0312 37.75 21.0312 38.06C21.0312 38.3744 21.2423 38.6259 21.5028 38.6259C21.7634 38.6259 21.9745 38.3744 21.9745 38.06C21.9745 37.75 21.7634 37.4895 21.5028 37.4895Z" fill="#FEFEFE"/>
<path d="M25.2041 15.2142C24.9436 15.2142 24.7325 15.4747 24.7325 15.7846C24.7325 16.0991 24.9436 16.3551 25.2041 16.3551C25.4692 16.3551 25.6758 16.0991 25.6758 15.7846C25.6758 15.4747 25.4692 15.2142 25.2041 15.2142Z" fill="#FEFEFE"/>
<path d="M25.1907 2.0169C24.9302 2.0169 24.7191 2.27294 24.7191 2.58737C24.7191 2.90181 24.9302 3.15785 25.1907 3.15785C25.4557 3.15785 25.6669 2.90181 25.6669 2.58737C25.6669 2.27294 25.4557 2.0169 25.1907 2.0169Z" fill="#FEFEFE"/>
<path d="M33.1594 93.9845C32.9033 93.9845 32.6922 94.2405 32.6922 94.5549C32.6922 94.8694 32.9033 95.1209 33.1594 95.1209C33.4244 95.1209 33.6355 94.8694 33.6355 94.5549C33.6355 94.2405 33.4244 93.9845 33.1594 93.9845Z" fill="#FEFEFE"/>
<path d="M32.9932 90.4852C32.7326 90.4852 32.526 90.7367 32.526 91.0511C32.526 91.3656 32.7326 91.6216 32.9932 91.6216C33.2537 91.6216 33.4648 91.3656 33.4648 91.0511C33.4648 90.7367 33.2537 90.4852 32.9932 90.4852Z" fill="#FEFEFE"/>
<path d="M25.2491 62.0739C24.9886 62.0739 24.7774 62.3254 24.7774 62.6398C24.7774 62.9543 24.9886 63.2103 25.2491 63.2103C25.5096 63.2103 25.7207 62.9543 25.7207 62.6398C25.7207 62.3254 25.5096 62.0739 25.2491 62.0739Z" fill="#FEFEFE"/>
<path d="M6.43247 43.4369C6.17194 43.4369 5.96082 43.6929 5.96082 44.0074C5.96082 44.3173 6.17194 44.5733 6.43247 44.5733C6.693 44.5733 6.90861 44.3173 6.90861 44.0074C6.90861 43.6929 6.693 43.4369 6.43247 43.4369Z" fill="#FEFEFE"/>
<path d="M33.3615 94.9502C33.0515 94.9502 32.8135 95.1703 32.8135 95.4398C32.8135 95.7093 33.0515 95.9294 33.3615 95.9294C33.6624 95.9294 33.9095 95.7093 33.9095 95.4398C33.9095 95.1703 33.6624 94.9502 33.3615 94.9502Z" fill="#FEFEFE"/>
<path d="M47.8614 95.0085C47.5604 95.0085 47.3179 95.2331 47.3179 95.5026C47.3179 95.7721 47.5604 95.9922 47.8614 95.9922C48.1668 95.9922 48.4094 95.7721 48.4094 95.5026C48.4094 95.2331 48.1668 95.0085 47.8614 95.0085Z" fill="#FEFEFE"/>
<path d="M68.5646 127.804C68.2637 127.804 68.0166 128.024 68.0166 128.294C68.0166 128.563 68.2637 128.783 68.5646 128.783C68.8656 128.783 69.1127 128.563 69.1127 128.294C69.1127 128.024 68.8656 127.804 68.5646 127.804Z" fill="#FEFEFE"/>
<path d="M85.5755 116.943C85.2701 116.943 85.0275 117.163 85.0275 117.432C85.0275 117.706 85.2701 117.922 85.5755 117.922C85.872 117.922 86.1191 117.706 86.1191 117.432C86.1191 117.163 85.872 116.943 85.5755 116.943Z" fill="#FEFEFE"/>
<path d="M110.699 79.8214C110.398 79.8214 110.151 80.0415 110.151 80.3111C110.151 80.5806 110.398 80.8007 110.699 80.8007C111.004 80.8007 111.247 80.5806 111.247 80.3111C111.247 80.0415 111.004 79.8214 110.699 79.8214Z" fill="#FEFEFE"/>
<path d="M118.443 145.561C118.142 145.561 117.895 145.785 117.895 146.055C117.895 146.324 118.142 146.544 118.443 146.544C118.744 146.544 118.991 146.324 118.991 146.055C118.991 145.785 118.744 145.561 118.443 145.561Z" fill="#FEFEFE"/>
<path d="M19.6432 67.4371C19.3422 67.4371 19.0996 67.6617 19.0996 67.9267C19.0996 68.1962 19.3422 68.4163 19.6432 68.4163C19.9441 68.4163 20.1912 68.1962 20.1912 67.9267C20.1912 67.6617 19.9441 67.4371 19.6432 67.4371Z" fill="#FEFEFE"/>
<path d="M55.9334 25.613C55.6324 25.613 55.3854 25.8331 55.3854 26.1026C55.3854 26.3766 55.6324 26.5967 55.9334 26.5967C56.2343 26.5967 56.4814 26.3766 56.4814 26.1026C56.4814 25.8331 56.2343 25.613 55.9334 25.613Z" fill="#FEFEFE"/>
<path d="M107.909 61.1845C107.608 61.1845 107.361 61.4046 107.361 61.6741C107.361 61.9436 107.608 62.1637 107.909 62.1637C108.21 62.1637 108.457 61.9436 108.457 61.6741C108.457 61.4046 108.21 61.1845 107.909 61.1845Z" fill="#FEFEFE"/>
<path d="M43.8366 105.628C43.5357 105.628 43.2931 105.848 43.2931 106.122C43.2931 106.391 43.5357 106.607 43.8366 106.607C44.1421 106.607 44.3847 106.391 44.3847 106.122C44.3847 105.848 44.1421 105.628 43.8366 105.628Z" fill="#FEFEFE"/>
<path d="M56.396 109.284C56.0906 109.284 55.848 109.504 55.848 109.774C55.848 110.043 56.0906 110.263 56.396 110.263C56.697 110.263 56.9396 110.043 56.9396 109.774C56.9396 109.504 56.697 109.284 56.396 109.284Z" fill="#FEFEFE"/>
<path d="M51.8637 75.3475C51.5628 75.3475 51.3202 75.5676 51.3202 75.8371C51.3202 76.1066 51.5628 76.3267 51.8637 76.3267C52.1692 76.3267 52.4162 76.1066 52.4162 75.8371C52.4162 75.5676 52.1692 75.3475 51.8637 75.3475Z" fill="#FEFEFE"/>
<path d="M72.7781 99.6217C72.4726 99.6217 72.23 99.8418 72.23 100.116C72.23 100.385 72.4726 100.601 72.7781 100.601C73.079 100.601 73.3261 100.385 73.3261 100.116C73.3261 99.8418 73.079 99.6217 72.7781 99.6217Z" fill="#FEFEFE"/>
<path d="M57.3259 86.8333C57.0249 86.8333 56.7779 87.0534 56.7779 87.323C56.7779 87.5925 57.0249 87.8126 57.3259 87.8126C57.6313 87.8126 57.8784 87.5925 57.8784 87.323C57.8784 87.0534 57.6313 86.8333 57.3259 86.8333Z" fill="#FEFEFE"/>
<path d="M64.2479 70.9184C63.9469 70.9184 63.6999 71.1385 63.6999 71.408C63.6999 71.6775 63.9469 71.8976 64.2479 71.8976C64.5534 71.8976 64.7959 71.6775 64.7959 71.408C64.7959 71.1385 64.5534 70.9184 64.2479 70.9184Z" fill="#FEFEFE"/>
<path d="M41.9006 73.3889C41.5997 73.3889 41.3526 73.609 41.3526 73.8785C41.3526 74.1525 41.5997 74.3726 41.9006 74.3726C42.2016 74.3726 42.4487 74.1525 42.4487 73.8785C42.4487 73.609 42.2016 73.3889 41.9006 73.3889Z" fill="#FEFEFE"/>
<path d="M39.8793 50.6194C39.5783 50.6194 39.3312 50.8395 39.3312 51.109C39.3312 51.383 39.5783 51.5986 39.8793 51.5986C40.1847 51.5986 40.4273 51.383 40.4273 51.109C40.4273 50.8395 40.1847 50.6194 39.8793 50.6194Z" fill="#FEFEFE"/>
<path d="M38.5766 54.2669C38.2757 54.2669 38.0286 54.4825 38.0286 54.7565C38.0286 55.026 38.2757 55.2462 38.5766 55.2462C38.8776 55.2462 39.1246 55.026 39.1246 54.7565C39.1246 54.4825 38.8776 54.2669 38.5766 54.2669Z" fill="#FEFEFE"/>
<path d="M17.1367 50.4173C16.8357 50.4173 16.5887 50.6374 16.5887 50.9069C16.5887 51.1764 16.8357 51.3965 17.1367 51.3965C17.4376 51.3965 17.6847 51.1764 17.6847 50.9069C17.6847 50.6374 17.4376 50.4173 17.1367 50.4173Z" fill="#FEFEFE"/>
<path d="M74.8354 94.0697C74.5344 94.0697 74.2874 94.2898 74.2874 94.5593C74.2874 94.8334 74.5344 95.0535 74.8354 95.0535C75.1363 95.0535 75.3834 94.8334 75.3834 94.5593C75.3834 94.2898 75.1363 94.0697 74.8354 94.0697Z" fill="#FEFEFE"/>
<path d="M41.6491 108.974C41.3436 108.974 41.0966 109.199 41.0966 109.468C41.0966 109.738 41.3436 109.958 41.6491 109.958C41.9455 109.958 42.1971 109.738 42.1971 109.468C42.1971 109.199 41.9455 108.974 41.6491 108.974Z" fill="#FEFEFE"/>
<path d="M92.9468 42.1522C92.6458 42.1522 92.3987 42.3678 92.3987 42.6418C92.3987 42.9113 92.6458 43.1314 92.9468 43.1314C93.2522 43.1314 93.4948 42.9113 93.4948 42.6418C93.4948 42.3678 93.2522 42.1522 92.9468 42.1522Z" fill="#FEFEFE"/>
<path d="M89.5778 42.3229C89.2769 42.3229 89.0343 42.543 89.0343 42.8125C89.0343 43.082 89.2769 43.3021 89.5778 43.3021C89.8833 43.3021 90.1303 43.082 90.1303 42.8125C90.1303 42.543 89.8833 42.3229 89.5778 42.3229Z" fill="#FEFEFE"/>
<path d="M62.2355 50.3723C61.9301 50.3723 61.6875 50.5924 61.6875 50.8619C61.6875 51.1315 61.9301 51.356 62.2355 51.356C62.5365 51.356 62.7836 51.1315 62.7836 50.8619C62.7836 50.5924 62.5365 50.3723 62.2355 50.3723Z" fill="#FEFEFE"/>
<path d="M44.2993 69.9212C43.9939 69.9212 43.7513 70.1413 43.7513 70.4109C43.7513 70.6849 43.9939 70.9005 44.2993 70.9005C44.5958 70.9005 44.8428 70.6849 44.8428 70.4109C44.8428 70.1413 44.5958 69.9212 44.2993 69.9212Z" fill="#FEFEFE"/>
<path d="M39.3582 103.75C39.0528 103.75 38.8057 103.97 38.8057 104.239C38.8102 104.509 39.0528 104.729 39.3582 104.729C39.6592 104.729 39.9017 104.509 39.9017 104.239C39.9017 103.97 39.6592 103.75 39.3582 103.75Z" fill="#FEFEFE"/>
<path d="M90.6694 134.776C90.3639 134.776 90.1169 134.996 90.1169 135.27C90.1169 135.539 90.3639 135.759 90.6694 135.759C90.9703 135.759 91.2129 135.539 91.2129 135.27C91.2129 134.996 90.9703 134.776 90.6694 134.776Z" fill="#FEFEFE"/>
<path d="M109.423 100.462C109.122 100.462 108.875 100.682 108.875 100.951C108.875 101.221 109.122 101.441 109.423 101.441C109.729 101.441 109.971 101.221 109.971 100.951C109.971 100.682 109.729 100.462 109.423 100.462Z" fill="#FEFEFE"/>
<path d="M122.719 81.2723C122.418 81.2723 122.171 81.4924 122.171 81.7619C122.171 82.0359 122.418 82.2515 122.719 82.2515C123.02 82.2515 123.263 82.0359 123.263 81.7619C123.263 81.4924 123.02 81.2723 122.719 81.2723Z" fill="#FEFEFE"/>
<path d="M96.9042 151.512C96.6032 151.512 96.3561 151.728 96.3561 152.002C96.3561 152.272 96.6032 152.487 96.9042 152.487C97.2051 152.487 97.4522 152.272 97.4522 152.002C97.4522 151.728 97.2051 151.512 96.9042 151.512Z" fill="#FEFEFE"/>
<path d="M125.055 161.148C124.525 161.148 124.089 161.601 124.089 162.163C124.089 162.724 124.525 163.182 125.055 163.182C125.59 163.182 126.021 162.724 126.021 162.163C126.021 161.601 125.59 161.148 125.055 161.148Z" fill="#FEFEFE"/>
<path d="M109.275 159.203C108.74 159.203 108.309 159.661 108.309 160.222C108.309 160.784 108.74 161.237 109.275 161.237C109.805 161.237 110.241 160.784 110.241 160.222C110.241 159.661 109.805 159.203 109.275 159.203Z" fill="#FEFEFE"/>
<path d="M30.9718 39.0168C30.4328 39.0168 29.9926 39.475 29.9926 40.032C29.9926 40.5935 30.4328 41.0517 30.9718 41.0517C31.5108 41.0517 31.951 40.5935 31.951 40.032C31.951 39.475 31.5108 39.0168 30.9718 39.0168Z" fill="#FEFEFE"/>
<path d="M68.2008 44.205C67.6618 44.205 67.2216 44.6631 67.2216 45.2201C67.2216 45.7816 67.6618 46.2398 68.2008 46.2398C68.7398 46.2398 69.18 45.7816 69.18 45.2201C69.18 44.6631 68.7398 44.205 68.2008 44.205Z" fill="#FEFEFE"/>
<path d="M106.22 72.0054C105.681 72.0054 105.241 72.4591 105.241 73.0206C105.241 73.5821 105.681 74.0403 106.22 74.0403C106.764 74.0403 107.2 73.5821 107.2 73.0206C107.2 72.4591 106.764 72.0054 106.22 72.0054Z" fill="#FEFEFE"/>
<path d="M105.875 78.2627C105.335 78.2627 104.895 78.7209 104.895 79.2824C104.895 79.8439 105.335 80.2975 105.875 80.2975C106.414 80.2975 106.854 79.8439 106.854 79.2824C106.854 78.7209 106.414 78.2627 105.875 78.2627Z" fill="#FEFEFE"/>
<path d="M89.7979 129.075C89.2589 129.075 88.8142 129.529 88.8142 130.095C88.8142 130.656 89.2589 131.11 89.7979 131.11C90.337 131.11 90.7772 130.656 90.7772 130.095C90.7772 129.529 90.337 129.075 89.7979 129.075Z" fill="#FEFEFE"/>
<path d="M28.07 16.6875C27.5265 16.6875 27.0908 17.1412 27.0908 17.7071C27.0908 18.2686 27.5265 18.7223 28.07 18.7223C28.6135 18.7223 29.0492 18.2686 29.0492 17.7071C29.0492 17.1412 28.6135 16.6875 28.07 16.6875Z" fill="#FEFEFE"/>
<path d="M108.835 23.7892C108.291 23.7892 107.851 24.2474 107.851 24.8134C107.851 25.3748 108.291 25.833 108.835 25.833C109.378 25.833 109.818 25.3748 109.818 24.8134C109.818 24.2474 109.378 23.7892 108.835 23.7892Z" fill="#FEFEFE"/>
<path d="M98.1709 19.8678C97.6273 19.8678 97.1871 20.3259 97.1871 20.8919C97.1871 21.4579 97.6273 21.9161 98.1709 21.9161C98.7144 21.9161 99.1546 21.4579 99.1546 20.8919C99.1546 20.3259 98.7144 19.8678 98.1709 19.8678Z" fill="#FEFEFE"/>
<path d="M31.2817 73.9954C30.7382 73.9954 30.2935 74.449 30.2935 75.0195C30.2935 75.581 30.7382 76.0437 31.2817 76.0437C31.8208 76.0437 32.2655 75.581 32.2655 75.0195C32.2655 74.449 31.8208 73.9954 31.2817 73.9954Z" fill="#FEFEFE"/>
<path d="M26.5607 20.7078C26.0172 20.7078 25.577 21.166 25.577 21.7275C25.577 22.2934 26.0172 22.7516 26.5607 22.7516C27.1042 22.7516 27.5489 22.2934 27.5489 21.7275C27.5489 21.166 27.1042 20.7078 26.5607 20.7078Z" fill="#FEFEFE"/>
<path d="M112.918 56.7553C112.379 56.7553 111.934 57.2135 111.934 57.7795C111.934 58.3455 112.379 58.7992 112.918 58.7992C113.466 58.7992 113.902 58.3455 113.902 57.7795C113.902 57.2135 113.466 56.7553 112.918 56.7553Z" fill="#FEFEFE"/>
<path d="M113.089 94.2045C112.545 94.2045 112.105 94.6672 112.105 95.2287C112.105 95.7947 112.545 96.2528 113.089 96.2528C113.632 96.2528 114.072 95.7947 114.072 95.2287C114.072 94.6672 113.632 94.2045 113.089 94.2045Z" fill="#FEFEFE"/>
<path d="M97.5914 58.1927C97.0479 58.1927 96.6077 58.6464 96.6077 59.2124C96.6077 59.7784 97.0479 60.2366 97.5914 60.2366C98.1349 60.2366 98.5796 59.7784 98.5796 59.2124C98.5796 58.6464 98.1349 58.1927 97.5914 58.1927Z" fill="#FEFEFE"/>
<path d="M24.2564 55.5021C23.7129 55.5021 23.2726 55.9603 23.2726 56.5263C23.2726 57.0878 23.7129 57.5459 24.2564 57.5459C24.7999 57.5459 25.2401 57.0878 25.2401 56.5263C25.2401 55.9603 24.7999 55.5021 24.2564 55.5021Z" fill="#FEFEFE"/>
<path d="M20.8335 76.8523C20.2855 76.8523 19.8453 77.3149 19.8453 77.8764C19.8453 78.4424 20.2855 78.9006 20.8335 78.9006C21.3726 78.9006 21.8173 78.4424 21.8173 77.8764C21.8173 77.3149 21.3726 76.8523 20.8335 76.8523Z" fill="#FEFEFE"/>
<path d="M57.537 103.17C56.9935 103.17 56.5533 103.633 56.5533 104.194C56.5533 104.76 56.9935 105.219 57.537 105.219C58.0805 105.219 58.5207 104.76 58.5207 104.194C58.5207 103.633 58.0805 103.17 57.537 103.17Z" fill="#FEFEFE"/>
<path d="M69.2429 135.157C68.6949 135.157 68.2592 135.616 68.2592 136.182C68.2592 136.748 68.6949 137.201 69.2429 137.201C69.7865 137.201 70.2267 136.748 70.2267 136.182C70.2267 135.616 69.7865 135.157 69.2429 135.157Z" fill="#FEFEFE"/>
<path d="M123.788 112.877C123.245 112.877 122.805 113.336 122.805 113.902C122.805 114.468 123.245 114.921 123.788 114.921C124.332 114.921 124.772 114.468 124.772 113.902C124.772 113.336 124.332 112.877 123.788 112.877Z" fill="#FEFEFE"/>
<path d="M59.2215 54.2713C58.6779 54.2713 58.2377 54.7295 58.2377 55.2955C58.2377 55.857 58.6779 56.3151 59.2215 56.3151C59.765 56.3151 60.2052 55.857 60.2052 55.2955C60.2052 54.7295 59.765 54.2713 59.2215 54.2713Z" fill="#FEFEFE"/>
<path d="M62.2445 16.3415C61.701 16.3415 61.2608 16.7997 61.2608 17.3612C61.2608 17.9272 61.701 18.3854 62.2445 18.3854C62.788 18.3854 63.2282 17.9272 63.2282 17.3612C63.2282 16.7997 62.788 16.3415 62.2445 16.3415Z" fill="#FEFEFE"/>
<path d="M84.7086 128.101C84.4436 128.101 84.2325 128.357 84.2325 128.671C84.2325 128.981 84.4436 129.237 84.7086 129.237C84.9646 129.237 85.1758 128.981 85.1758 128.671C85.1758 128.357 84.9646 128.101 84.7086 128.101Z" fill="#FEFEFE"/>
<path d="M67.1991 125.751C66.9431 125.751 66.732 126.003 66.732 126.317C66.732 126.632 66.9431 126.883 67.1991 126.883C67.4597 126.883 67.6753 126.632 67.6753 126.317C67.6753 126.003 67.4597 125.751 67.1991 125.751Z" fill="#FEFEFE"/>
<path d="M115.752 114.804C115.492 114.804 115.281 115.056 115.281 115.375C115.281 115.685 115.492 115.941 115.752 115.941C116.013 115.941 116.228 115.685 116.228 115.375C116.228 115.056 116.013 114.804 115.752 114.804Z" fill="#FEFEFE"/>
<path d="M115.357 130.315C115.096 130.315 114.885 130.571 114.885 130.89C114.885 131.204 115.096 131.452 115.357 131.452C115.617 131.452 115.833 131.204 115.833 130.89C115.833 130.571 115.617 130.315 115.357 130.315Z" fill="#FEFEFE"/>
<path d="M111.871 147.254C111.611 147.254 111.404 147.51 111.404 147.825C111.404 148.139 111.611 148.391 111.871 148.391C112.136 148.391 112.343 148.139 112.343 147.825C112.343 147.51 112.136 147.254 111.871 147.254Z" fill="#FEFEFE"/>
<path d="M101.962 117.244C101.706 117.244 101.495 117.5 101.495 117.81C101.495 118.128 101.706 118.38 101.962 118.38C102.227 118.38 102.438 118.128 102.438 117.81C102.438 117.5 102.227 117.244 101.962 117.244Z" fill="#FEFEFE"/>
<path d="M40.6699 25.613C40.4093 25.613 40.1982 25.869 40.1982 26.179C40.1982 26.4889 40.4093 26.7449 40.6699 26.7449C40.9304 26.7449 41.146 26.4889 41.146 26.179C41.146 25.869 40.9304 25.613 40.6699 25.613Z" fill="#FEFEFE"/>
<path d="M35.558 23.4298C35.2975 23.4298 35.0864 23.6813 35.0864 24.0003C35.0864 24.3102 35.2975 24.5617 35.558 24.5617C35.8186 24.5617 36.0342 24.3102 36.0342 24.0003C36.0342 23.6813 35.8186 23.4298 35.558 23.4298Z" fill="#FEFEFE"/>
<path d="M38.8417 3.43188C38.5811 3.43188 38.3655 3.68342 38.3655 3.99786C38.3655 4.31229 38.5811 4.56833 38.8417 4.56833C39.0977 4.56833 39.3133 4.31229 39.3133 3.99786C39.3133 3.68342 39.0977 3.43188 38.8417 3.43188Z" fill="#FEFEFE"/>
<path d="M21.8217 4.52789C21.5657 4.52789 21.3546 4.78392 21.3546 5.09836C21.3546 5.41279 21.5657 5.66434 21.8217 5.66434C22.0867 5.66434 22.2979 5.41279 22.2979 5.09836C22.2979 4.78392 22.0867 4.52789 21.8217 4.52789Z" fill="#FEFEFE"/>
<path d="M46.0197 7.22745C45.7592 7.22745 45.5481 7.48349 45.5481 7.79792C45.5481 8.10786 45.7592 8.3639 46.0197 8.3639C46.2802 8.3639 46.4869 8.10786 46.4869 7.79792C46.4869 7.48349 46.2802 7.22745 46.0197 7.22745Z" fill="#FEFEFE"/>
<path d="M53.6784 32.4766C53.4179 32.4766 53.2068 32.7281 53.2068 33.0426C53.2068 33.357 53.4179 33.6131 53.6784 33.6131C53.9435 33.6131 54.1501 33.357 54.1501 33.0426C54.1501 32.7281 53.9435 32.4766 53.6784 32.4766Z" fill="#FEFEFE"/>
<path d="M42.6283 43.9445C42.3678 43.9445 42.1567 44.205 42.1567 44.5149C42.1567 44.8339 42.3678 45.0854 42.6283 45.0854C42.8889 45.0854 43.1 44.8339 43.1 44.5149C43.1 44.205 42.8889 43.9445 42.6283 43.9445Z" fill="#FEFEFE"/>
<path d="M42.7091 64.778C42.4486 64.778 42.2375 65.034 42.2375 65.3529C42.2375 65.6629 42.4486 65.9189 42.7091 65.9189C42.9697 65.9189 43.1808 65.6629 43.1808 65.3529C43.1808 65.034 42.9697 64.778 42.7091 64.778Z" fill="#FEFEFE"/>
<path d="M29.3457 89.9058C29.0807 89.9058 28.8696 90.1618 28.8696 90.4718C28.8696 90.7862 29.0807 91.0423 29.3457 91.0423C29.6062 91.0423 29.8174 90.7862 29.8174 90.4718C29.8174 90.1618 29.6062 89.9058 29.3457 89.9058Z" fill="#FEFEFE"/>
<path d="M35.284 44.744C35.019 44.744 34.8079 45.0046 34.8079 45.3145C34.8079 45.6244 35.019 45.885 35.284 45.885C35.5445 45.885 35.7557 45.6244 35.7557 45.3145C35.7557 45.0046 35.5445 44.744 35.284 44.744Z" fill="#FEFEFE"/>
<path d="M16.8223 98.0945C16.5617 98.0945 16.3551 98.3505 16.3551 98.6649C16.3551 98.9794 16.5617 99.2309 16.8223 99.2309C17.0828 99.2309 17.2939 98.9794 17.2939 98.6649C17.2939 98.3505 17.0828 98.0945 16.8223 98.0945Z" fill="#FEFEFE"/>
<path d="M16.0811 69.7684C15.8206 69.7684 15.6094 70.02 15.6094 70.3389C15.6094 70.6533 15.8206 70.9049 16.0811 70.9049C16.3416 70.9049 16.5527 70.6533 16.5527 70.3389C16.5527 70.02 16.3416 69.7684 16.0811 69.7684Z" fill="#FEFEFE"/>
<path d="M21.6915 87.561C21.431 87.561 21.2198 87.817 21.2198 88.1315C21.2198 88.4459 21.431 88.6974 21.6915 88.6974C21.9565 88.6974 22.1632 88.4459 22.1632 88.1315C22.1632 87.817 21.9565 87.561 21.6915 87.561Z" fill="#FEFEFE"/>
<path d="M47.8344 75.1633C47.5784 75.1633 47.3628 75.4238 47.3628 75.7383C47.3628 76.0482 47.5784 76.3042 47.8344 76.3042C48.0995 76.3042 48.3106 76.0482 48.3106 75.7383C48.3106 75.4238 48.0995 75.1633 47.8344 75.1633Z" fill="#FEFEFE"/>
<path d="M16.8896 42.5654C16.6291 42.5654 16.418 42.8214 16.418 43.1358C16.418 43.4458 16.6291 43.7018 16.8896 43.7018C17.1502 43.7018 17.3613 43.4458 17.3613 43.1358C17.3613 42.8214 17.1502 42.5654 16.8896 42.5654Z" fill="#FEFEFE"/>
<path d="M18.3405 21.4624C18.08 21.4624 17.8689 21.7184 17.8689 22.0329C17.8689 22.3473 18.08 22.6033 18.3405 22.6033C18.601 22.6033 18.8077 22.3473 18.8077 22.0329C18.8077 21.7184 18.601 21.4624 18.3405 21.4624Z" fill="#FEFEFE"/>
<path d="M94.9322 97.25C94.6312 97.25 94.3842 97.4746 94.3842 97.7441C94.3842 98.0137 94.6312 98.2293 94.9322 98.2293C95.2377 98.2293 95.4802 98.0137 95.4802 97.7441C95.4802 97.4746 95.2377 97.25 94.9322 97.25Z" fill="#FEFEFE"/>
<path d="M80.4323 97.3129C80.1269 97.3129 79.8798 97.533 79.8798 97.807C79.8798 98.0765 80.1269 98.2921 80.4323 98.2921C80.7333 98.2921 80.9758 98.0765 80.9758 97.807C80.9758 97.533 80.7333 97.3129 80.4323 97.3129Z" fill="#FEFEFE"/>
<path d="M17.5904 82.1257C17.2894 82.1257 17.0424 82.3413 17.0424 82.6153C17.0424 82.8848 17.2894 83.1049 17.5904 83.1049C17.8958 83.1049 18.1384 82.8848 18.1384 82.6153C18.1384 82.3413 17.8958 82.1257 17.5904 82.1257Z" fill="#FEFEFE"/>
<path d="M108.651 69.7415C108.35 69.7415 108.098 69.9616 108.098 70.2311C108.098 70.5006 108.35 70.7207 108.651 70.7207C108.951 70.7207 109.194 70.5006 109.194 70.2311C109.194 69.9616 108.951 69.7415 108.651 69.7415Z" fill="#FEFEFE"/>
<path d="M72.3603 27.9172C72.0549 27.9172 71.8123 28.1373 71.8123 28.4068C71.8123 28.6764 72.0549 28.901 72.3603 28.901C72.6613 28.901 72.9083 28.6764 72.9083 28.4068C72.9083 28.1373 72.6613 27.9172 72.3603 27.9172Z" fill="#FEFEFE"/>
<path d="M20.3798 63.4888C20.0834 63.4888 19.8363 63.709 19.8363 63.9785C19.8363 64.248 20.0834 64.4681 20.3798 64.4681C20.6853 64.4681 20.9278 64.248 20.9278 63.9785C20.9278 63.709 20.6853 63.4888 20.3798 63.4888Z" fill="#FEFEFE"/>
<path d="M102.802 137.619C102.501 137.619 102.254 137.839 102.254 138.108C102.254 138.382 102.501 138.603 102.802 138.603C103.107 138.603 103.35 138.382 103.35 138.108C103.35 137.839 103.107 137.619 102.802 137.619Z" fill="#FEFEFE"/>
<path d="M84.457 107.932C84.1516 107.932 83.9045 108.152 83.9045 108.421C83.9045 108.695 84.1516 108.911 84.457 108.911C84.758 108.911 85.0006 108.695 85.0006 108.421C85.0006 108.152 84.758 107.932 84.457 107.932Z" fill="#FEFEFE"/>
<path d="M71.8977 111.593C71.5967 111.593 71.3497 111.808 71.3497 112.078C71.3497 112.352 71.5967 112.567 71.8977 112.567C72.2031 112.567 72.4457 112.352 72.4457 112.078C72.4457 111.808 72.2031 111.593 71.8977 111.593Z" fill="#FEFEFE"/>
<path d="M107.173 126.308C106.863 126.308 106.62 126.528 106.62 126.798C106.62 127.067 106.863 127.287 107.173 127.287C107.469 127.287 107.716 127.067 107.716 126.798C107.716 126.528 107.469 126.308 107.173 126.308Z" fill="#FEFEFE"/>
<path d="M76.4255 77.6473C76.1245 77.6473 75.8775 77.8674 75.8775 78.1414C75.8775 78.4109 76.1245 78.631 76.4255 78.631C76.7264 78.631 76.9735 78.4109 76.9735 78.1414C76.9735 77.8674 76.7264 77.6473 76.4255 77.6473Z" fill="#FEFEFE"/>
<path d="M55.5156 101.926C55.2147 101.926 54.9676 102.146 54.9676 102.416C54.9676 102.69 55.2147 102.91 55.5156 102.91C55.8166 102.91 56.0636 102.69 56.0636 102.416C56.0636 102.146 55.8166 101.926 55.5156 101.926Z" fill="#FEFEFE"/>
<path d="M70.9633 89.1376C70.6624 89.1376 70.4153 89.3577 70.4153 89.6272C70.4153 89.8967 70.6624 90.1168 70.9633 90.1168C71.2643 90.1168 71.5113 89.8967 71.5113 89.6272C71.5113 89.3577 71.2643 89.1376 70.9633 89.1376Z" fill="#FEFEFE"/>
<path d="M64.0413 73.2183C63.7403 73.2183 63.4933 73.4429 63.4933 73.7124C63.4933 73.982 63.7403 74.2021 64.0413 74.2021C64.3467 74.2021 64.5893 73.982 64.5893 73.7124C64.5893 73.4429 64.3467 73.2183 64.0413 73.2183Z" fill="#FEFEFE"/>
<path d="M86.393 75.6933C86.0876 75.6933 85.845 75.9134 85.845 76.1829C85.845 76.4569 86.0876 76.6725 86.393 76.6725C86.694 76.6725 86.9411 76.4569 86.9411 76.1829C86.9411 75.9134 86.694 75.6933 86.393 75.6933Z" fill="#FEFEFE"/>
<path d="M88.41 52.9237C88.109 52.9237 87.8665 53.1438 87.8665 53.4134C87.8665 53.6829 88.109 53.903 88.41 53.903C88.7154 53.903 88.958 53.6829 88.958 53.4134C88.958 53.1438 88.7154 52.9237 88.41 52.9237Z" fill="#FEFEFE"/>
<path d="M89.7171 56.5668C89.4161 56.5668 89.1691 56.7869 89.1691 57.0564C89.1691 57.3304 89.4161 57.546 89.7171 57.546C90.0135 57.546 90.2651 57.3304 90.2651 57.0564C90.2651 56.7869 90.0135 56.5668 89.7171 56.5668Z" fill="#FEFEFE"/>
<path d="M111.157 52.7217C110.852 52.7217 110.604 52.9373 110.604 53.2113C110.604 53.4808 110.852 53.7009 111.157 53.7009C111.453 53.7009 111.705 53.4808 111.705 53.2113C111.705 52.9373 111.453 52.7217 111.157 52.7217Z" fill="#FEFEFE"/>
<path d="M123.856 52.7352C123.555 52.7352 123.308 52.9508 123.308 53.2248C123.308 53.4988 123.555 53.7144 123.856 53.7144C124.161 53.7144 124.404 53.4988 124.404 53.2248C124.404 52.9508 124.161 52.7352 123.856 52.7352Z" fill="#FEFEFE"/>
<path d="M123.577 127.162C123.276 127.162 123.029 127.382 123.029 127.656C123.029 127.925 123.276 128.141 123.577 128.141C123.878 128.141 124.125 127.925 124.125 127.656C124.125 127.382 123.878 127.162 123.577 127.162Z" fill="#FEFEFE"/>
<path d="M121.439 159.014C121.138 159.014 120.896 159.229 120.896 159.499C120.896 159.769 121.138 159.993 121.439 159.993C121.744 159.993 121.992 159.769 121.992 159.499C121.992 159.229 121.744 159.014 121.439 159.014Z" fill="#FEFEFE"/>
<path d="M53.4583 96.3741C53.1529 96.3741 52.9103 96.5942 52.9103 96.8637C52.9103 97.1377 53.1529 97.3578 53.4583 97.3578C53.7593 97.3578 54.0063 97.1377 54.0063 96.8637C54.0063 96.5942 53.7593 96.3741 53.4583 96.3741Z" fill="#FEFEFE"/>
<path d="M84.1786 136.469C83.8731 136.469 83.6261 136.689 83.6261 136.959C83.6261 137.233 83.8731 137.453 84.1786 137.453C84.475 137.453 84.7221 137.233 84.7221 136.959C84.7221 136.689 84.475 136.469 84.1786 136.469Z" fill="#FEFEFE"/>
<path d="M86.6446 111.283C86.3436 111.283 86.0966 111.503 86.0966 111.772C86.0966 112.042 86.3436 112.262 86.6446 112.262C86.9501 112.262 87.1926 112.042 87.1926 111.772C87.1926 111.503 86.9501 111.283 86.6446 111.283Z" fill="#FEFEFE"/>
<path d="M35.3424 44.4566C35.0415 44.4566 34.7944 44.6722 34.7944 44.9417C34.7944 45.2112 35.0415 45.4358 35.3424 45.4358C35.6434 45.4358 35.8904 45.2112 35.8904 44.9417C35.8904 44.6722 35.6434 44.4566 35.3424 44.4566Z" fill="#FEFEFE"/>
<path d="M38.7114 44.6272C38.4104 44.6272 38.1634 44.8473 38.1634 45.1169C38.1634 45.3864 38.4104 45.6065 38.7114 45.6065C39.0168 45.6065 39.2594 45.3864 39.2594 45.1169C39.2594 44.8473 39.0168 44.6272 38.7114 44.6272Z" fill="#FEFEFE"/>
<path d="M66.0581 52.6767C65.7572 52.6767 65.5101 52.8968 65.5101 53.1663C65.5101 53.4403 65.7572 53.6559 66.0581 53.6559C66.3591 53.6559 66.6062 53.4403 66.6062 53.1663C66.6062 52.8968 66.3591 52.6767 66.0581 52.6767Z" fill="#FEFEFE"/>
<path d="M83.9944 72.2211C83.6934 72.2211 83.4509 72.4412 83.4509 72.7152C83.4509 72.9892 83.6934 73.2048 83.9944 73.2048C84.2953 73.2048 84.5424 72.9892 84.5424 72.7152C84.5424 72.4412 84.2953 72.2211 83.9944 72.2211Z" fill="#FEFEFE"/>
<path d="M88.9355 106.054C88.6345 106.054 88.3875 106.274 88.3875 106.544C88.3875 106.809 88.6345 107.033 88.9355 107.033C89.2409 107.033 89.4835 106.809 89.4835 106.544C89.4835 106.274 89.2409 106.054 88.9355 106.054Z" fill="#FEFEFE"/>
<path d="M72.7466 134.762C72.4412 134.762 72.1941 134.982 72.1941 135.252C72.1941 135.526 72.4412 135.746 72.7466 135.746C73.0431 135.746 73.2901 135.526 73.2901 135.252C73.2901 134.982 73.0431 134.762 72.7466 134.762Z" fill="#FEFEFE"/>
<path d="M18.8661 102.766C18.5651 102.766 18.3181 102.982 18.3181 103.256C18.3181 103.525 18.5651 103.745 18.8661 103.745C19.1715 103.745 19.4141 103.525 19.4141 103.256C19.4141 102.982 19.1715 102.766 18.8661 102.766Z" fill="#FEFEFE"/>
<path d="M105.142 155.389C104.837 155.389 104.594 155.609 104.594 155.879C104.594 156.148 104.837 156.368 105.142 156.368C105.443 156.368 105.69 156.148 105.69 155.879C105.69 155.609 105.443 155.389 105.142 155.389Z" fill="#FEFEFE"/>
<path d="M27.0773 49.4201L26.0487 46.1186L25.0155 49.4201H21.6735L24.3777 51.4595L23.3445 54.761L26.0487 52.7217L28.7483 54.761L27.7152 51.4595L30.4193 49.4201H27.0773Z" fill="#FEFEFE"/>
<path d="M39.749 87.2061L38.7159 83.909L37.6827 87.2061H34.3452L37.0449 89.2454L36.0162 92.547L38.7159 90.5076L41.4155 92.547L40.3868 89.2454L43.0865 87.2061H39.749Z" fill="#FEFEFE"/>
<path d="M37.8085 33.613L36.7754 30.316L35.7467 33.613H32.4047L35.1089 35.6569L34.0757 38.9539L36.7754 36.9146L39.4795 38.9539L38.4464 35.6569L41.146 33.613H37.8085Z" fill="#FEFEFE"/>
<path d="M79.5788 60.2502L78.5502 56.9486L77.5171 60.2502H74.1796L76.8792 62.2895L75.8461 65.5866L78.5502 63.5472L81.2498 65.5866L80.2167 62.2895L82.9208 60.2502H79.5788Z" fill="#FEFEFE"/>
<path d="M28.7483 72.6838L27.7197 69.3867L26.6865 72.6838H23.349L26.0487 74.7231L25.0155 78.0247L27.7197 75.9854L30.4193 78.0247L29.3862 74.7231L32.0903 72.6838H28.7483Z" fill="#FEFEFE"/>
<path d="M115.469 62.824L114.809 60.7083L114.144 62.824H112.001L113.735 64.1311L113.075 66.2513L114.809 64.9396L116.538 66.2513L115.878 64.1311L117.612 62.824H115.469Z" fill="#FEFEFE"/>
<path d="M126.124 24.3282L125.464 22.2125L124.799 24.3282H122.656L124.39 25.6353L123.73 27.7555L125.464 26.4483L126.268 27.0548V24.3282H126.124Z" fill="#FEFEFE"/>
<path d="M112.608 86.402L111.948 84.2863L111.283 86.402H109.14L110.874 87.7137L110.214 89.8293L111.948 88.5222L113.677 89.8293L113.017 87.7137L114.751 86.402H112.608Z" fill="#FEFEFE"/>
<path d="M76.7893 121.983L76.129 119.867L75.4687 121.983H73.326L75.0599 123.29L74.3951 125.41L76.129 124.098L77.8629 125.41L77.2026 123.29L78.932 121.983H76.7893Z" fill="#FEFEFE"/>
<path d="M110.083 107.676L109.423 105.56L108.763 107.676H106.62L108.35 108.983L107.689 111.103L109.423 109.791L111.157 111.103L110.492 108.983L112.226 107.676H110.083Z" fill="#FEFEFE"/>
<path d="M54.6712 82.867L54.0108 80.7513L53.3505 82.867H51.2079L52.9373 84.1741L52.277 86.2943L54.0108 84.9827L55.7447 86.2943L55.0799 84.1741L56.8138 82.867H54.6712Z" fill="#FEFEFE"/>
<path d="M205.874 24.6292C206.418 24.6292 206.854 25.0874 206.854 25.6489C206.854 26.2104 206.418 26.6641 205.874 26.6641C205.335 26.6641 204.895 26.2104 204.895 25.6489C204.895 25.0874 205.335 24.6292 205.874 24.6292Z" fill="#FEFEFE"/>
<path d="M210.407 95.1209C210.95 95.1209 211.386 95.5791 211.386 96.1406C211.386 96.702 210.95 97.1602 210.407 97.1602C209.868 97.1602 209.427 96.702 209.427 96.1406C209.427 95.5791 209.868 95.1209 210.407 95.1209Z" fill="#FEFEFE"/>
<path d="M140.441 161.489C140.98 161.489 141.42 161.943 141.42 162.504C141.42 163.066 140.98 163.524 140.441 163.524C139.897 163.524 139.461 163.066 139.461 162.504C139.461 161.943 139.897 161.489 140.441 161.489Z" fill="#FEFEFE"/>
<path d="M140.27 124.233C140.813 124.233 141.249 124.691 141.249 125.248C141.249 125.81 140.813 126.268 140.27 126.268C139.731 126.268 139.291 125.81 139.291 125.248C139.291 124.691 139.731 124.233 140.27 124.233Z" fill="#FEFEFE"/>
<path d="M168.012 79.3003C168.551 79.3003 168.991 79.7539 168.991 80.3154C168.991 80.8769 168.551 81.3351 168.012 81.3351C167.469 81.3351 167.028 80.8769 167.028 80.3154C167.028 79.7539 167.469 79.3003 168.012 79.3003Z" fill="#FEFEFE"/>
<path d="M155.686 160.06C156.225 160.06 156.665 160.514 156.665 161.076C156.665 161.637 156.225 162.095 155.686 162.095C155.147 162.095 154.707 161.637 154.707 161.076C154.707 160.514 155.147 160.06 155.686 160.06Z" fill="#FEFEFE"/>
<path d="M227.422 76.2413C227.961 76.2413 228.401 76.6995 228.401 77.2609C228.401 77.8179 227.961 78.2761 227.422 78.2761C226.883 78.2761 226.443 77.8179 226.443 77.2609C226.443 76.6995 226.883 76.2413 227.422 76.2413Z" fill="#FEFEFE"/>
<path d="M193.998 64.6522C194.541 64.6522 194.977 65.1104 194.977 65.6674C194.977 66.2289 194.541 66.6871 193.998 66.6871C193.459 66.6871 193.019 66.2289 193.019 65.6674C193.019 65.1104 193.459 64.6522 193.998 64.6522Z" fill="#FEFEFE"/>
<path d="M183.891 83.4913C184.434 83.4913 184.87 83.945 184.87 84.5065C184.87 85.0679 184.434 85.5261 183.891 85.5261C183.352 85.5261 182.912 85.0679 182.912 84.5065C182.912 83.945 183.352 83.4913 183.891 83.4913Z" fill="#FEFEFE"/>
<path d="M129.624 105.654C130.168 105.654 130.603 106.113 130.603 106.674C130.603 107.236 130.168 107.694 129.624 107.694C129.085 107.694 128.645 107.236 128.645 106.674C128.645 106.113 129.085 105.654 129.624 105.654Z" fill="#FEFEFE"/>
<path d="M196.504 9.78794C197.048 9.78794 197.492 10.2461 197.492 10.8076C197.492 11.3736 197.048 11.8318 196.504 11.8318C195.965 11.8318 195.521 11.3736 195.521 10.8076C195.521 10.2461 195.965 9.78794 196.504 9.78794Z" fill="#FEFEFE"/>
<path d="M212.383 69.9706C212.927 69.9706 213.367 70.4333 213.367 70.9948C213.367 71.5608 212.927 72.0189 212.383 72.0189C211.844 72.0189 211.399 71.5608 211.399 70.9948C211.399 70.4333 211.844 69.9706 212.383 69.9706Z" fill="#FEFEFE"/>
<path d="M235.449 80.1718C235.993 80.1718 236.433 80.63 236.433 81.1959C236.433 81.7619 235.993 82.2201 235.449 82.2201C234.91 82.2201 234.465 81.7619 234.465 81.1959C234.465 80.63 234.91 80.1718 235.449 80.1718Z" fill="#FEFEFE"/>
<path d="M203.494 93.0994C204.037 93.0994 204.477 93.5621 204.477 94.1236C204.477 94.6896 204.037 95.1478 203.494 95.1478C202.95 95.1478 202.51 94.6896 202.51 94.1236C202.51 93.5621 202.95 93.0994 203.494 93.0994Z" fill="#FEFEFE"/>
<path d="M208.457 51.3606C209.001 51.3606 209.441 51.8188 209.441 52.3803C209.441 52.9463 209.001 53.4044 208.457 53.4044C207.914 53.4044 207.474 52.9463 207.474 52.3803C207.474 51.8188 207.914 51.3606 208.457 51.3606Z" fill="#FEFEFE"/>
<path d="M162.734 47.5873C163.278 47.5873 163.718 48.0455 163.718 48.607C163.718 49.1775 163.278 49.6312 162.734 49.6312C162.191 49.6312 161.75 49.1775 161.75 48.607C161.75 48.0455 162.191 47.5873 162.734 47.5873Z" fill="#FEFEFE"/>
<path d="M170.051 45.1438C170.595 45.1438 171.035 45.6064 171.035 46.1679C171.035 46.7339 170.595 47.1966 170.051 47.1966C169.508 47.1966 169.068 46.7339 169.068 46.1679C169.068 45.6064 169.508 45.1438 170.051 45.1438Z" fill="#FEFEFE"/>
<path d="M162.325 5.10725C162.869 5.10725 163.309 5.56542 163.309 6.1314C163.309 6.69289 162.869 7.15556 162.325 7.15556C161.782 7.15556 161.342 6.69289 161.342 6.1314C161.342 5.56542 161.782 5.10725 162.325 5.10725Z" fill="#FEFEFE"/>
<path d="M249.985 112.873C250.529 112.873 250.969 113.331 250.969 113.897C250.969 114.463 250.529 114.917 249.985 114.917C249.441 114.917 249.001 114.463 249.001 113.897C249.001 113.331 249.441 112.873 249.985 112.873Z" fill="#FEFEFE"/>
<path d="M145.728 146.706C146.271 146.706 146.711 147.164 146.711 147.726C146.711 148.292 146.271 148.75 145.728 148.75C145.184 148.75 144.744 148.292 144.744 147.726C144.744 147.164 145.184 146.706 145.728 146.706Z" fill="#FEFEFE"/>
<path d="M146.073 140.413C146.617 140.413 147.062 140.871 147.062 141.437C147.062 141.999 146.617 142.457 146.073 142.457C145.534 142.457 145.09 141.999 145.09 141.437C145.09 140.871 145.534 140.413 146.073 140.413Z" fill="#FEFEFE"/>
<path d="M162.24 89.3398C162.779 89.3398 163.224 89.798 163.224 90.3594C163.224 90.9254 162.779 91.3836 162.24 91.3836C161.696 91.3836 161.256 90.9254 161.256 90.3594C161.256 89.798 161.696 89.3398 162.24 89.3398Z" fill="#FEFEFE"/>
<path d="M201.49 55.8346C202.034 55.8346 202.474 56.2927 202.474 56.8587C202.474 57.4247 202.034 57.8829 201.49 57.8829C200.947 57.8829 200.507 57.4247 200.507 56.8587C200.507 56.2927 200.947 55.8346 201.49 55.8346Z" fill="#FEFEFE"/>
<path d="M151.118 143.193C151.374 143.193 151.59 143.445 151.59 143.759C151.59 144.069 151.374 144.33 151.118 144.33C150.857 144.33 150.646 144.069 150.646 143.759C150.646 143.445 150.857 143.193 151.118 143.193Z" fill="#FEFEFE"/>
<path d="M138.437 162.859C138.698 162.859 138.909 163.12 138.909 163.43C138.909 163.739 138.698 164 138.437 164C138.177 164 137.966 163.739 137.966 163.43C137.966 163.12 138.177 162.859 138.437 162.859Z" fill="#FEFEFE"/>
<path d="M134.731 140.583C134.992 140.583 135.208 140.844 135.208 141.154C135.208 141.468 134.992 141.724 134.731 141.724C134.471 141.724 134.26 141.468 134.26 141.154C134.26 140.844 134.471 140.583 134.731 140.583Z" fill="#FEFEFE"/>
<path d="M134.749 127.391C135.01 127.391 135.217 127.642 135.217 127.957C135.217 128.271 135.01 128.527 134.749 128.527C134.489 128.527 134.278 128.271 134.278 127.957C134.278 127.642 134.489 127.391 134.749 127.391Z" fill="#FEFEFE"/>
<path d="M169.813 114.881C170.074 114.881 170.285 115.137 170.285 115.447C170.285 115.761 170.074 116.017 169.813 116.017C169.553 116.017 169.342 115.761 169.342 115.447C169.342 115.137 169.553 114.881 169.813 114.881Z" fill="#FEFEFE"/>
<path d="M184.677 120.258C184.938 120.258 185.149 120.518 185.149 120.828C185.149 121.143 184.938 121.399 184.677 121.399C184.416 121.399 184.205 121.143 184.205 120.828C184.205 120.518 184.416 120.258 184.677 120.258Z" fill="#FEFEFE"/>
<path d="M159.428 122.346C159.689 122.346 159.904 122.598 159.904 122.917C159.904 123.231 159.689 123.483 159.428 123.483C159.172 123.483 158.956 123.231 158.956 122.917C158.956 122.598 159.172 122.346 159.428 122.346Z" fill="#FEFEFE"/>
<path d="M208.516 6.25276C208.781 6.25276 208.992 6.50431 208.992 6.81875C208.992 7.12869 208.781 7.38922 208.516 7.38922C208.255 7.38922 208.044 7.12869 208.044 6.81875C208.044 6.50431 208.255 6.25276 208.516 6.25276Z" fill="#FEFEFE"/>
<path d="M203.404 4.06517C203.664 4.06517 203.88 4.32121 203.88 4.64014C203.88 4.95008 203.664 5.20612 203.404 5.20612C203.148 5.20612 202.932 4.95008 202.932 4.64014C202.932 4.32121 203.148 4.06517 203.404 4.06517Z" fill="#FEFEFE"/>
<path d="M130.23 12.7121C130.496 12.7121 130.702 12.9637 130.702 13.2826C130.702 13.5925 130.496 13.8486 130.23 13.8486C129.97 13.8486 129.759 13.5925 129.759 13.2826C129.759 12.9637 129.97 12.7121 130.23 12.7121Z" fill="#FEFEFE"/>
<path d="M130.293 27.7826C130.554 27.7826 130.765 28.0341 130.765 28.3485C130.765 28.663 130.554 28.919 130.293 28.919C130.033 28.919 129.822 28.663 129.822 28.3485C129.822 28.0341 130.033 27.7826 130.293 27.7826Z" fill="#FEFEFE"/>
<path d="M161.854 49.2854C162.114 49.2854 162.325 49.5459 162.325 49.8604C162.325 50.1703 162.114 50.4263 161.854 50.4263C161.598 50.4263 161.382 50.1703 161.382 49.8604C161.382 49.5459 161.598 49.2854 161.854 49.2854Z" fill="#FEFEFE"/>
<path d="M151.401 66.961C151.661 66.961 151.873 67.2171 151.873 67.5315C151.873 67.8414 151.661 68.102 151.401 68.102C151.145 68.102 150.929 67.8414 150.929 67.5315C150.929 67.2171 151.145 66.961 151.401 66.961Z" fill="#FEFEFE"/>
<path d="M133.397 115.478C133.658 115.478 133.869 115.734 133.869 116.049C133.869 116.363 133.658 116.615 133.397 116.615C133.137 116.615 132.926 116.363 132.926 116.049C132.926 115.734 133.137 115.478 133.397 115.478Z" fill="#FEFEFE"/>
<path d="M178.95 101.113C179.206 101.113 179.417 101.369 179.417 101.679C179.417 101.998 179.206 102.249 178.95 102.249C178.689 102.249 178.474 101.998 178.474 101.679C178.474 101.369 178.689 101.113 178.95 101.113Z" fill="#FEFEFE"/>
<path d="M171.345 34.1745C171.606 34.1745 171.817 34.4306 171.817 34.7495C171.817 35.0549 171.606 35.3155 171.345 35.3155C171.084 35.3155 170.873 35.0549 170.873 34.7495C170.873 34.4306 171.084 34.1745 171.345 34.1745Z" fill="#FEFEFE"/>
<path d="M176.767 61.6964C177.023 61.6964 177.238 61.9525 177.238 62.2669C177.238 62.5768 177.023 62.8329 176.767 62.8329C176.506 62.8329 176.291 62.5768 176.291 62.2669C176.291 61.9525 176.506 61.6964 176.767 61.6964Z" fill="#FEFEFE"/>
<path d="M169.081 4.53229C169.346 4.53229 169.557 4.78833 169.557 5.10276C169.557 5.4172 169.346 5.67324 169.081 5.67324C168.821 5.67324 168.614 5.4172 168.614 5.10276C168.614 4.78833 168.821 4.53229 169.081 4.53229Z" fill="#FEFEFE"/>
<path d="M140.512 23.6005C140.773 23.6005 140.984 23.852 140.984 24.1665C140.984 24.4809 140.773 24.7369 140.512 24.7369C140.252 24.7369 140.041 24.4809 140.041 24.1665C140.041 23.852 140.252 23.6005 140.512 23.6005Z" fill="#FEFEFE"/>
<path d="M144.03 36.6451C144.29 36.6451 144.501 36.8966 144.501 37.2155C144.501 37.5255 144.29 37.7815 144.03 37.7815C143.769 37.7815 143.558 37.5255 143.558 37.2155C143.558 36.8966 143.769 36.6451 144.03 36.6451Z" fill="#FEFEFE"/>
<path d="M158.197 0C158.458 0 158.669 0.256039 158.669 0.565981C158.669 0.884908 158.458 1.13645 158.197 1.13645C157.937 1.13645 157.726 0.884908 157.726 0.565981C157.726 0.256039 157.937 0 158.197 0Z" fill="#FEFEFE"/>
<path d="M134.731 53.665C134.992 53.665 135.203 53.921 135.203 54.2355C135.203 54.5499 134.992 54.806 134.731 54.806C134.471 54.806 134.26 54.5499 134.26 54.2355C134.26 53.921 134.471 53.665 134.731 53.665Z" fill="#FEFEFE"/>
<path d="M221.524 13.1164C221.789 13.1164 221.996 13.3724 221.996 13.6869C221.996 13.9968 221.789 14.2528 221.524 14.2528C221.264 14.2528 221.057 13.9968 221.057 13.6869C221.057 13.3724 221.264 13.1164 221.524 13.1164Z" fill="#FEFEFE"/>
<path d="M210.474 24.5888C210.739 24.5888 210.946 24.8448 210.946 25.1548C210.946 25.4737 210.739 25.7252 210.474 25.7252C210.214 25.7252 210.002 25.4737 210.002 25.1548C210.002 24.8448 210.214 24.5888 210.474 24.5888Z" fill="#FEFEFE"/>
<path d="M210.559 45.4223C210.815 45.4223 211.027 45.6738 211.027 45.9883C211.027 46.3027 210.815 46.5588 210.559 46.5588C210.294 46.5588 210.083 46.3027 210.083 45.9883C210.083 45.6738 210.294 45.4223 210.559 45.4223Z" fill="#FEFEFE"/>
<path d="M197.192 70.5456C197.452 70.5456 197.663 70.8016 197.663 71.1116C197.663 71.426 197.452 71.682 197.192 71.682C196.931 71.682 196.72 71.426 196.72 71.1116C196.72 70.8016 196.931 70.5456 197.192 70.5456Z" fill="#FEFEFE"/>
<path d="M203.13 25.3884C203.39 25.3884 203.602 25.6444 203.602 25.9543C203.602 26.2688 203.39 26.5248 203.13 26.5248C202.869 26.5248 202.658 26.2688 202.658 25.9543C202.658 25.6444 202.869 25.3884 203.13 25.3884Z" fill="#FEFEFE"/>
<path d="M129.391 55.8031C129.647 55.8031 129.862 56.0636 129.862 56.3735C129.862 56.688 129.647 56.944 129.391 56.944C129.126 56.944 128.914 56.688 128.914 56.3735C128.914 56.0636 129.126 55.8031 129.391 55.8031Z" fill="#FEFEFE"/>
<path d="M167.976 23.8925C168.241 23.8925 168.448 24.144 168.448 24.454C168.448 24.7729 168.241 25.029 167.976 25.029C167.716 25.029 167.509 24.7729 167.509 24.454C167.509 24.144 167.716 23.8925 167.976 23.8925Z" fill="#FEFEFE"/>
<path d="M143.738 21.3187C143.994 21.3187 144.209 21.5747 144.209 21.8936C144.209 22.2036 143.994 22.4641 143.738 22.4641C143.477 22.4641 143.262 22.2036 143.262 21.8936C143.262 21.5747 143.477 21.3187 143.738 21.3187Z" fill="#FEFEFE"/>
<path d="M138.702 18.9425C138.963 18.9425 139.174 19.194 139.174 19.5085C139.174 19.8274 138.963 20.0789 138.702 20.0789C138.442 20.0789 138.231 19.8274 138.231 19.5085C138.231 19.194 138.442 18.9425 138.702 18.9425Z" fill="#FEFEFE"/>
<path d="M166.337 35.7691C166.597 35.7691 166.808 36.0207 166.808 36.3351C166.808 36.6496 166.597 36.9056 166.337 36.9056C166.076 36.9056 165.865 36.6496 165.865 36.3351C165.865 36.0207 166.076 35.7691 166.337 35.7691Z" fill="#FEFEFE"/>
<path d="M168.569 72.2525C168.83 72.2525 169.041 72.5085 169.041 72.8229C169.041 73.1374 168.83 73.3889 168.569 73.3889C168.304 73.3889 168.097 73.1374 168.097 72.8229C168.097 72.5085 168.304 72.2525 168.569 72.2525Z" fill="#FEFEFE"/>
<path d="M135.54 91.7429C135.796 91.7429 136.012 91.999 136.012 92.3134C136.012 92.6278 135.796 92.8794 135.54 92.8794C135.275 92.8794 135.064 92.6278 135.064 92.3134C135.064 91.999 135.275 91.7429 135.54 91.7429Z" fill="#FEFEFE"/>
<path d="M184.673 78.7344C184.933 78.7344 185.144 78.9904 185.144 79.3048C185.144 79.6193 184.933 79.8753 184.673 79.8753C184.412 79.8753 184.201 79.6193 184.201 79.3048C184.201 78.9904 184.412 78.7344 184.673 78.7344Z" fill="#FEFEFE"/>
<path d="M183.931 50.4084C184.192 50.4084 184.398 50.6644 184.398 50.9788C184.398 51.2933 184.192 51.5448 183.931 51.5448C183.666 51.5448 183.455 51.2933 183.455 50.9788C183.455 50.6644 183.666 50.4084 183.931 50.4084Z" fill="#FEFEFE"/>
<path d="M189.537 68.2008C189.802 68.2008 190.013 68.4568 190.013 68.7712C190.013 69.0857 189.802 69.3372 189.537 69.3372C189.277 69.3372 189.07 69.0857 189.07 68.7712C189.07 68.4568 189.277 68.2008 189.537 68.2008Z" fill="#FEFEFE"/>
<path d="M215.685 55.8076C215.95 55.8076 216.156 56.0637 216.156 56.3736C216.156 56.688 215.95 56.9441 215.685 56.9441C215.424 56.9441 215.213 56.688 215.213 56.3736C215.213 56.0637 215.424 55.8076 215.685 55.8076Z" fill="#FEFEFE"/>
<path d="M184.74 23.2053C185 23.2053 185.212 23.4613 185.212 23.7713C185.212 24.0857 185 24.3418 184.74 24.3418C184.479 24.3418 184.268 24.0857 184.268 23.7713C184.268 23.4613 184.479 23.2053 184.74 23.2053Z" fill="#FEFEFE"/>
<path d="M186.186 2.10672C186.447 2.10672 186.658 2.36276 186.658 2.6727C186.658 2.98714 186.447 3.23868 186.186 3.23868C185.926 3.23868 185.715 2.98714 185.715 2.6727C185.715 2.36276 185.926 2.10672 186.186 2.10672Z" fill="#FEFEFE"/>
<path d="M242.147 17.8239C242.407 17.8239 242.618 18.0755 242.618 18.3899C242.618 18.6998 242.407 18.9604 242.147 18.9604C241.886 18.9604 241.675 18.6998 241.675 18.3899C241.675 18.0755 241.886 17.8239 242.147 17.8239Z" fill="#FEFEFE"/>
<path d="M201.89 55.5245C202.151 55.5245 202.366 55.7806 202.366 56.0905C202.366 56.4094 202.151 56.661 201.89 56.661C201.629 56.661 201.418 56.4094 201.418 56.0905C201.418 55.7806 201.629 55.5245 201.89 55.5245Z" fill="#FEFEFE"/>
<path d="M236.123 109.531C236.383 109.531 236.599 109.782 236.599 110.097C236.599 110.411 236.383 110.663 236.123 110.663C235.867 110.663 235.651 110.411 235.651 110.097C235.651 109.782 235.867 109.531 236.123 109.531Z" fill="#FEFEFE"/>
<path d="M225.958 38.8461C226.218 38.8461 226.429 39.1022 226.429 39.4166C226.429 39.7311 226.218 39.9826 225.958 39.9826C225.697 39.9826 225.486 39.7311 225.486 39.4166C225.486 39.1022 225.697 38.8461 225.958 38.8461Z" fill="#FEFEFE"/>
<path d="M229.466 37.4895C229.726 37.4895 229.938 37.75 229.938 38.06C229.938 38.3744 229.726 38.6259 229.466 38.6259C229.205 38.6259 228.994 38.3744 228.994 38.06C228.994 37.75 229.205 37.4895 229.466 37.4895Z" fill="#FEFEFE"/>
<path d="M225.765 15.2142C226.025 15.2142 226.236 15.4747 226.236 15.7846C226.236 16.0991 226.025 16.3551 225.765 16.3551C225.5 16.3551 225.293 16.0991 225.293 15.7846C225.293 15.4747 225.5 15.2142 225.765 15.2142Z" fill="#FEFEFE"/>
<path d="M225.778 2.0169C226.039 2.0169 226.25 2.27294 226.25 2.58737C226.25 2.90181 226.039 3.15785 225.778 3.15785C225.513 3.15785 225.302 2.90181 225.302 2.58737C225.302 2.27294 225.513 2.0169 225.778 2.0169Z" fill="#FEFEFE"/>
<path d="M217.809 93.9845C218.065 93.9845 218.277 94.2405 218.277 94.5549C218.277 94.8694 218.065 95.1209 217.809 95.1209C217.544 95.1209 217.333 94.8694 217.333 94.5549C217.333 94.2405 217.544 93.9845 217.809 93.9845Z" fill="#FEFEFE"/>
<path d="M217.976 90.4852C218.236 90.4852 218.443 90.7367 218.443 91.0511C218.443 91.3656 218.236 91.6216 217.976 91.6216C217.715 91.6216 217.504 91.3656 217.504 91.0511C217.504 90.7367 217.715 90.4852 217.976 90.4852Z" fill="#FEFEFE"/>
<path d="M225.72 62.0739C225.98 62.0739 226.191 62.3254 226.191 62.6398C226.191 62.9543 225.98 63.2103 225.72 63.2103C225.459 63.2103 225.248 62.9543 225.248 62.6398C225.248 62.3254 225.459 62.0739 225.72 62.0739Z" fill="#FEFEFE"/>
<path d="M244.536 43.4369C244.797 43.4369 245.008 43.6929 245.008 44.0074C245.008 44.3173 244.797 44.5733 244.536 44.5733C244.276 44.5733 244.06 44.3173 244.06 44.0074C244.06 43.6929 244.276 43.4369 244.536 43.4369Z" fill="#FEFEFE"/>
<path d="M217.607 94.9502C217.917 94.9502 218.155 95.1703 218.155 95.4398C218.155 95.7093 217.917 95.9294 217.607 95.9294C217.306 95.9294 217.059 95.7093 217.059 95.4398C217.059 95.1703 217.306 94.9502 217.607 94.9502Z" fill="#FEFEFE"/>
<path d="M203.107 95.0085C203.408 95.0085 203.651 95.2331 203.651 95.5026C203.651 95.7721 203.408 95.9922 203.107 95.9922C202.802 95.9922 202.559 95.7721 202.559 95.5026C202.559 95.2331 202.802 95.0085 203.107 95.0085Z" fill="#FEFEFE"/>
<path d="M182.404 127.804C182.705 127.804 182.952 128.024 182.952 128.294C182.952 128.563 182.705 128.783 182.404 128.783C182.103 128.783 181.856 128.563 181.856 128.294C181.856 128.024 182.103 127.804 182.404 127.804Z" fill="#FEFEFE"/>
<path d="M165.393 116.943C165.699 116.943 165.941 117.163 165.941 117.432C165.941 117.706 165.699 117.922 165.393 117.922C165.097 117.922 164.85 117.706 164.85 117.432C164.85 117.163 165.097 116.943 165.393 116.943Z" fill="#FEFEFE"/>
<path d="M140.27 79.8214C140.571 79.8214 140.818 80.0415 140.818 80.3111C140.818 80.5806 140.571 80.8007 140.27 80.8007C139.964 80.8007 139.722 80.5806 139.722 80.3111C139.722 80.0415 139.964 79.8214 140.27 79.8214Z" fill="#FEFEFE"/>
<path d="M132.526 145.561C132.827 145.561 133.074 145.785 133.074 146.055C133.074 146.324 132.827 146.544 132.526 146.544C132.225 146.544 131.978 146.324 131.978 146.055C131.978 145.785 132.225 145.561 132.526 145.561Z" fill="#FEFEFE"/>
<path d="M231.326 67.4371C231.627 67.4371 231.869 67.6617 231.869 67.9267C231.869 68.1962 231.627 68.4163 231.326 68.4163C231.025 68.4163 230.778 68.1962 230.778 67.9267C230.778 67.6617 231.025 67.4371 231.326 67.4371Z" fill="#FEFEFE"/>
<path d="M195.035 25.613C195.336 25.613 195.583 25.8331 195.583 26.1026C195.583 26.3766 195.336 26.5967 195.035 26.5967C194.734 26.5967 194.487 26.3766 194.487 26.1026C194.487 25.8331 194.734 25.613 195.035 25.613Z" fill="#FEFEFE"/>
<path d="M143.059 61.1845C143.36 61.1845 143.607 61.4046 143.607 61.6741C143.607 61.9436 143.36 62.1637 143.059 62.1637C142.758 62.1637 142.511 61.9436 142.511 61.6741C142.511 61.4046 142.758 61.1845 143.059 61.1845Z" fill="#FEFEFE"/>
<path d="M207.132 105.628C207.433 105.628 207.676 105.848 207.676 106.122C207.676 106.391 207.433 106.607 207.132 106.607C206.827 106.607 206.584 106.391 206.584 106.122C206.584 105.848 206.827 105.628 207.132 105.628Z" fill="#FEFEFE"/>
<path d="M194.573 109.284C194.878 109.284 195.121 109.504 195.121 109.774C195.121 110.043 194.878 110.263 194.573 110.263C194.272 110.263 194.029 110.043 194.029 109.774C194.029 109.504 194.272 109.284 194.573 109.284Z" fill="#FEFEFE"/>
<path d="M199.105 75.3475C199.406 75.3475 199.649 75.5676 199.649 75.8371C199.649 76.1066 199.406 76.3267 199.105 76.3267C198.8 76.3267 198.553 76.1066 198.553 75.8371C198.553 75.5676 198.8 75.3475 199.105 75.3475Z" fill="#FEFEFE"/>
<path d="M178.191 99.6217C178.496 99.6217 178.739 99.8418 178.739 100.116C178.739 100.385 178.496 100.601 178.191 100.601C177.89 100.601 177.643 100.385 177.643 100.116C177.643 99.8418 177.89 99.6217 178.191 99.6217Z" fill="#FEFEFE"/>
<path d="M193.643 86.8333C193.944 86.8333 194.191 87.0534 194.191 87.323C194.191 87.5925 193.944 87.8126 193.643 87.8126C193.337 87.8126 193.09 87.5925 193.09 87.323C193.09 87.0534 193.337 86.8333 193.643 86.8333Z" fill="#FEFEFE"/>
<path d="M186.721 70.9184C187.022 70.9184 187.269 71.1385 187.269 71.408C187.269 71.6775 187.022 71.8976 186.721 71.8976C186.415 71.8976 186.173 71.6775 186.173 71.408C186.173 71.1385 186.415 70.9184 186.721 70.9184Z" fill="#FEFEFE"/>
<path d="M209.068 73.3889C209.369 73.3889 209.616 73.609 209.616 73.8785C209.616 74.1525 209.369 74.3726 209.068 74.3726C208.767 74.3726 208.52 74.1525 208.52 73.8785C208.52 73.609 208.767 73.3889 209.068 73.3889Z" fill="#FEFEFE"/>
<path d="M211.089 50.6194C211.39 50.6194 211.638 50.8395 211.638 51.109C211.638 51.383 211.39 51.5986 211.089 51.5986C210.784 51.5986 210.541 51.383 210.541 51.109C210.541 50.8395 210.784 50.6194 211.089 50.6194Z" fill="#FEFEFE"/>
<path d="M212.392 54.2669C212.693 54.2669 212.94 54.4825 212.94 54.7565C212.94 55.026 212.693 55.2462 212.392 55.2462C212.091 55.2462 211.844 55.026 211.844 54.7565C211.844 54.4825 212.091 54.2669 212.392 54.2669Z" fill="#FEFEFE"/>
<path d="M233.832 50.4173C234.133 50.4173 234.38 50.6374 234.38 50.9069C234.38 51.1764 234.133 51.3965 233.832 51.3965C233.531 51.3965 233.284 51.1764 233.284 50.9069C233.284 50.6374 233.531 50.4173 233.832 50.4173Z" fill="#FEFEFE"/>
<path d="M176.133 94.0697C176.434 94.0697 176.681 94.2898 176.681 94.5593C176.681 94.8334 176.434 95.0535 176.133 95.0535C175.832 95.0535 175.585 94.8334 175.585 94.5593C175.585 94.2898 175.832 94.0697 176.133 94.0697Z" fill="#FEFEFE"/>
<path d="M209.32 108.974C209.625 108.974 209.872 109.199 209.872 109.468C209.872 109.738 209.625 109.958 209.32 109.958C209.023 109.958 208.772 109.738 208.772 109.468C208.772 109.199 209.023 108.974 209.32 108.974Z" fill="#FEFEFE"/>
<path d="M158.022 42.1522C158.323 42.1522 158.57 42.3678 158.57 42.6418C158.57 42.9113 158.323 43.1314 158.022 43.1314C157.717 43.1314 157.474 42.9113 157.474 42.6418C157.474 42.3678 157.717 42.1522 158.022 42.1522Z" fill="#FEFEFE"/>
<path d="M161.391 42.3229C161.692 42.3229 161.934 42.543 161.934 42.8125C161.934 43.082 161.692 43.3021 161.391 43.3021C161.085 43.3021 160.838 43.082 160.838 42.8125C160.838 42.543 161.085 42.3229 161.391 42.3229Z" fill="#FEFEFE"/>
<path d="M188.733 50.3723C189.039 50.3723 189.281 50.5924 189.281 50.8619C189.281 51.1315 189.039 51.356 188.733 51.356C188.432 51.356 188.185 51.1315 188.185 50.8619C188.185 50.5924 188.432 50.3723 188.733 50.3723Z" fill="#FEFEFE"/>
<path d="M206.669 69.9212C206.975 69.9212 207.217 70.1413 207.217 70.4109C207.217 70.6849 206.975 70.9005 206.669 70.9005C206.373 70.9005 206.126 70.6849 206.126 70.4109C206.126 70.1413 206.373 69.9212 206.669 69.9212Z" fill="#FEFEFE"/>
<path d="M211.611 103.75C211.916 103.75 212.163 103.97 212.163 104.239C212.159 104.509 211.916 104.729 211.611 104.729C211.31 104.729 211.067 104.509 211.067 104.239C211.067 103.97 211.31 103.75 211.611 103.75Z" fill="#FEFEFE"/>
<path d="M160.299 134.776C160.605 134.776 160.852 134.996 160.852 135.27C160.852 135.539 160.605 135.759 160.299 135.759C159.998 135.759 159.756 135.539 159.756 135.27C159.756 134.996 159.998 134.776 160.299 134.776Z" fill="#FEFEFE"/>
<path d="M141.546 100.462C141.847 100.462 142.094 100.682 142.094 100.951C142.094 101.221 141.847 101.441 141.546 101.441C141.24 101.441 140.998 101.221 140.998 100.951C140.998 100.682 141.24 100.462 141.546 100.462Z" fill="#FEFEFE"/>
<path d="M128.25 81.2723C128.551 81.2723 128.798 81.4924 128.798 81.7619C128.798 82.0359 128.551 82.2515 128.25 82.2515C127.949 82.2515 127.706 82.0359 127.706 81.7619C127.706 81.4924 127.949 81.2723 128.25 81.2723Z" fill="#FEFEFE"/>
<path d="M154.065 151.512C154.366 151.512 154.613 151.728 154.613 152.002C154.613 152.272 154.366 152.487 154.065 152.487C153.764 152.487 153.517 152.272 153.517 152.002C153.517 151.728 153.764 151.512 154.065 151.512Z" fill="#FEFEFE"/>
<path d="M125.914 161.148C126.444 161.148 126.88 161.601 126.88 162.163C126.88 162.724 126.444 163.182 125.914 163.182C125.379 163.182 124.948 162.724 124.948 162.163C124.948 161.601 125.379 161.148 125.914 161.148Z" fill="#FEFEFE"/>
<path d="M141.694 159.203C142.228 159.203 142.66 159.661 142.66 160.222C142.66 160.784 142.228 161.237 141.694 161.237C141.164 161.237 140.728 160.784 140.728 160.222C140.728 159.661 141.164 159.203 141.694 159.203Z" fill="#FEFEFE"/>
<path d="M219.997 39.0168C220.536 39.0168 220.976 39.475 220.976 40.032C220.976 40.5935 220.536 41.0517 219.997 41.0517C219.458 41.0517 219.018 40.5935 219.018 40.032C219.018 39.475 219.458 39.0168 219.997 39.0168Z" fill="#FEFEFE"/>
<path d="M182.768 44.205C183.307 44.205 183.747 44.6631 183.747 45.2201C183.747 45.7816 183.307 46.2398 182.768 46.2398C182.229 46.2398 181.789 45.7816 181.789 45.2201C181.789 44.6631 182.229 44.205 182.768 44.205Z" fill="#FEFEFE"/>
<path d="M144.748 72.0054C145.287 72.0054 145.728 72.4591 145.728 73.0206C145.728 73.5821 145.287 74.0403 144.748 74.0403C144.205 74.0403 143.769 73.5821 143.769 73.0206C143.769 72.4591 144.205 72.0054 144.748 72.0054Z" fill="#FEFEFE"/>
<path d="M145.094 78.2627C145.633 78.2627 146.073 78.7209 146.073 79.2824C146.073 79.8439 145.633 80.2975 145.094 80.2975C144.555 80.2975 144.115 79.8439 144.115 79.2824C144.115 78.7209 144.555 78.2627 145.094 78.2627Z" fill="#FEFEFE"/>
<path d="M161.171 129.075C161.71 129.075 162.155 129.529 162.155 130.095C162.155 130.656 161.71 131.11 161.171 131.11C160.632 131.11 160.192 130.656 160.192 130.095C160.192 129.529 160.632 129.075 161.171 129.075Z" fill="#FEFEFE"/>
<path d="M222.899 16.6875C223.442 16.6875 223.878 17.1412 223.878 17.7071C223.878 18.2686 223.442 18.7223 222.899 18.7223C222.355 18.7223 221.92 18.2686 221.92 17.7071C221.92 17.1412 222.355 16.6875 222.899 16.6875Z" fill="#FEFEFE"/>
<path d="M142.134 23.7892C142.678 23.7892 143.118 24.2474 143.118 24.8134C143.118 25.3748 142.678 25.833 142.134 25.833C141.591 25.833 141.15 25.3748 141.15 24.8134C141.15 24.2474 141.591 23.7892 142.134 23.7892Z" fill="#FEFEFE"/>
<path d="M152.798 19.8678C153.341 19.8678 153.782 20.3259 153.782 20.8919C153.782 21.4579 153.341 21.9161 152.798 21.9161C152.254 21.9161 151.814 21.4579 151.814 20.8919C151.814 20.3259 152.254 19.8678 152.798 19.8678Z" fill="#FEFEFE"/>
<path d="M219.687 73.9954C220.231 73.9954 220.675 74.449 220.675 75.0195C220.675 75.581 220.231 76.0437 219.687 76.0437C219.148 76.0437 218.703 75.581 218.703 75.0195C218.703 74.449 219.148 73.9954 219.687 73.9954Z" fill="#FEFEFE"/>
<path d="M224.408 20.7078C224.952 20.7078 225.392 21.166 225.392 21.7275C225.392 22.2934 224.952 22.7516 224.408 22.7516C223.865 22.7516 223.42 22.2934 223.42 21.7275C223.42 21.166 223.865 20.7078 224.408 20.7078Z" fill="#FEFEFE"/>
<path d="M138.051 56.7553C138.59 56.7553 139.035 57.2135 139.035 57.7795C139.035 58.3455 138.59 58.7992 138.051 58.7992C137.503 58.7992 137.067 58.3455 137.067 57.7795C137.067 57.2135 137.503 56.7553 138.051 56.7553Z" fill="#FEFEFE"/>
<path d="M137.88 94.2045C138.424 94.2045 138.864 94.6672 138.864 95.2287C138.864 95.7947 138.424 96.2528 137.88 96.2528C137.337 96.2528 136.896 95.7947 136.896 95.2287C136.896 94.6672 137.337 94.2045 137.88 94.2045Z" fill="#FEFEFE"/>
<path d="M153.377 58.1927C153.921 58.1927 154.361 58.6464 154.361 59.2124C154.361 59.7784 153.921 60.2366 153.377 60.2366C152.834 60.2366 152.389 59.7784 152.389 59.2124C152.389 58.6464 152.834 58.1927 153.377 58.1927Z" fill="#FEFEFE"/>
<path d="M226.712 55.5021C227.256 55.5021 227.696 55.9603 227.696 56.5263C227.696 57.0878 227.256 57.5459 226.712 57.5459C226.169 57.5459 225.729 57.0878 225.729 56.5263C225.729 55.9603 226.169 55.5021 226.712 55.5021Z" fill="#FEFEFE"/>
<path d="M230.135 76.8523C230.683 76.8523 231.123 77.3149 231.123 77.8764C231.123 78.4424 230.683 78.9006 230.135 78.9006C229.596 78.9006 229.152 78.4424 229.152 77.8764C229.152 77.3149 229.596 76.8523 230.135 76.8523Z" fill="#FEFEFE"/>
<path d="M193.432 103.17C193.975 103.17 194.416 103.633 194.416 104.194C194.416 104.76 193.975 105.219 193.432 105.219C192.888 105.219 192.448 104.76 192.448 104.194C192.448 103.633 192.888 103.17 193.432 103.17Z" fill="#FEFEFE"/>
<path d="M181.726 135.157C182.274 135.157 182.71 135.616 182.71 136.182C182.71 136.748 182.274 137.201 181.726 137.201C181.182 137.201 180.742 136.748 180.742 136.182C180.742 135.616 181.182 135.157 181.726 135.157Z" fill="#FEFEFE"/>
<path d="M127.18 112.877C127.724 112.877 128.164 113.336 128.164 113.902C128.164 114.468 127.724 114.921 127.18 114.921C126.637 114.921 126.197 114.468 126.197 113.902C126.197 113.336 126.637 112.877 127.18 112.877Z" fill="#FEFEFE"/>
<path d="M191.747 54.2713C192.291 54.2713 192.731 54.7295 192.731 55.2955C192.731 55.857 192.291 56.3151 191.747 56.3151C191.204 56.3151 190.764 55.857 190.764 55.2955C190.764 54.7295 191.204 54.2713 191.747 54.2713Z" fill="#FEFEFE"/>
<path d="M188.724 16.3415C189.268 16.3415 189.708 16.7997 189.708 17.3612C189.708 17.9272 189.268 18.3854 188.724 18.3854C188.181 18.3854 187.741 17.9272 187.741 17.3612C187.741 16.7997 188.181 16.3415 188.724 16.3415Z" fill="#FEFEFE"/>
<path d="M166.26 128.101C166.525 128.101 166.736 128.357 166.736 128.671C166.736 128.981 166.525 129.237 166.26 129.237C166.004 129.237 165.793 128.981 165.793 128.671C165.793 128.357 166.004 128.101 166.26 128.101Z" fill="#FEFEFE"/>
<path d="M183.77 125.751C184.026 125.751 184.237 126.003 184.237 126.317C184.237 126.632 184.026 126.883 183.77 126.883C183.509 126.883 183.294 126.632 183.294 126.317C183.294 126.003 183.509 125.751 183.77 125.751Z" fill="#FEFEFE"/>
<path d="M135.217 114.804C135.477 114.804 135.688 115.056 135.688 115.375C135.688 115.685 135.477 115.941 135.217 115.941C134.956 115.941 134.74 115.685 134.74 115.375C134.74 115.056 134.956 114.804 135.217 114.804Z" fill="#FEFEFE"/>
<path d="M135.612 130.315C135.872 130.315 136.083 130.571 136.083 130.89C136.083 131.204 135.872 131.452 135.612 131.452C135.351 131.452 135.136 131.204 135.136 130.89C135.136 130.571 135.351 130.315 135.612 130.315Z" fill="#FEFEFE"/>
<path d="M139.098 147.254C139.358 147.254 139.565 147.51 139.565 147.825C139.565 148.139 139.358 148.391 139.098 148.391C138.833 148.391 138.626 148.139 138.626 147.825C138.626 147.51 138.833 147.254 139.098 147.254Z" fill="#FEFEFE"/>
<path d="M149.007 117.244C149.263 117.244 149.474 117.5 149.474 117.81C149.474 118.128 149.263 118.38 149.007 118.38C148.742 118.38 148.531 118.128 148.531 117.81C148.531 117.5 148.742 117.244 149.007 117.244Z" fill="#FEFEFE"/>
<path d="M210.299 25.613C210.559 25.613 210.771 25.869 210.771 26.179C210.771 26.4889 210.559 26.7449 210.299 26.7449C210.038 26.7449 209.823 26.4889 209.823 26.179C209.823 25.869 210.038 25.613 210.299 25.613Z" fill="#FEFEFE"/>
<path d="M215.411 23.4298C215.671 23.4298 215.882 23.6813 215.882 24.0003C215.882 24.3102 215.671 24.5617 215.411 24.5617C215.15 24.5617 214.935 24.3102 214.935 24.0003C214.935 23.6813 215.15 23.4298 215.411 23.4298Z" fill="#FEFEFE"/>
<path d="M212.127 3.43188C212.388 3.43188 212.603 3.68342 212.603 3.99786C212.603 4.31229 212.388 4.56833 212.127 4.56833C211.871 4.56833 211.655 4.31229 211.655 3.99786C211.655 3.68342 211.871 3.43188 212.127 3.43188Z" fill="#FEFEFE"/>
<path d="M229.147 4.52789C229.403 4.52789 229.614 4.78392 229.614 5.09836C229.614 5.41279 229.403 5.66434 229.147 5.66434C228.882 5.66434 228.671 5.41279 228.671 5.09836C228.671 4.78392 228.882 4.52789 229.147 4.52789Z" fill="#FEFEFE"/>
<path d="M204.949 7.22745C205.21 7.22745 205.421 7.48349 205.421 7.79792C205.421 8.10786 205.21 8.3639 204.949 8.3639C204.689 8.3639 204.482 8.10786 204.482 7.79792C204.482 7.48349 204.689 7.22745 204.949 7.22745Z" fill="#FEFEFE"/>
<path d="M197.29 32.4766C197.551 32.4766 197.762 32.7281 197.762 33.0426C197.762 33.357 197.551 33.6131 197.29 33.6131C197.025 33.6131 196.819 33.357 196.819 33.0426C196.819 32.7281 197.025 32.4766 197.29 32.4766Z" fill="#FEFEFE"/>
<path d="M208.34 43.9445C208.601 43.9445 208.812 44.205 208.812 44.5149C208.812 44.8339 208.601 45.0854 208.34 45.0854C208.08 45.0854 207.869 44.8339 207.869 44.5149C207.869 44.205 208.08 43.9445 208.34 43.9445Z" fill="#FEFEFE"/>
<path d="M208.26 64.778C208.52 64.778 208.731 65.034 208.731 65.3529C208.731 65.6629 208.52 65.9189 208.26 65.9189C207.999 65.9189 207.788 65.6629 207.788 65.3529C207.788 65.034 207.999 64.778 208.26 64.778Z" fill="#FEFEFE"/>
<path d="M221.623 89.9058C221.888 89.9058 222.099 90.1618 222.099 90.4718C222.099 90.7862 221.888 91.0423 221.623 91.0423C221.363 91.0423 221.151 90.7862 221.151 90.4718C221.151 90.1618 221.363 89.9058 221.623 89.9058Z" fill="#FEFEFE"/>
<path d="M215.685 44.744C215.95 44.744 216.161 45.0046 216.161 45.3145C216.161 45.6244 215.95 45.885 215.685 45.885C215.424 45.885 215.213 45.6244 215.213 45.3145C215.213 45.0046 215.424 44.744 215.685 44.744Z" fill="#FEFEFE"/>
<path d="M234.146 98.0945C234.407 98.0945 234.614 98.3505 234.614 98.6649C234.614 98.9794 234.407 99.2309 234.146 99.2309C233.886 99.2309 233.675 98.9794 233.675 98.6649C233.675 98.3505 233.886 98.0945 234.146 98.0945Z" fill="#FEFEFE"/>
<path d="M234.888 69.7684C235.148 69.7684 235.359 70.02 235.359 70.3389C235.359 70.6533 235.148 70.9049 234.888 70.9049C234.627 70.9049 234.416 70.6533 234.416 70.3389C234.416 70.02 234.627 69.7684 234.888 69.7684Z" fill="#FEFEFE"/>
<path d="M229.277 87.561C229.538 87.561 229.749 87.817 229.749 88.1315C229.749 88.4459 229.538 88.6974 229.277 88.6974C229.012 88.6974 228.806 88.4459 228.806 88.1315C228.806 87.817 229.012 87.561 229.277 87.561Z" fill="#FEFEFE"/>
<path d="M203.134 75.1633C203.39 75.1633 203.606 75.4238 203.606 75.7383C203.606 76.0482 203.39 76.3042 203.134 76.3042C202.869 76.3042 202.658 76.0482 202.658 75.7383C202.658 75.4238 202.869 75.1633 203.134 75.1633Z" fill="#FEFEFE"/>
<path d="M234.079 42.5654C234.34 42.5654 234.551 42.8214 234.551 43.1358C234.551 43.4458 234.34 43.7018 234.079 43.7018C233.819 43.7018 233.607 43.4458 233.607 43.1358C233.607 42.8214 233.819 42.5654 234.079 42.5654Z" fill="#FEFEFE"/>
<path d="M232.628 21.4624C232.889 21.4624 233.1 21.7184 233.1 22.0329C233.1 22.3473 232.889 22.6033 232.628 22.6033C232.368 22.6033 232.161 22.3473 232.161 22.0329C232.161 21.7184 232.368 21.4624 232.628 21.4624Z" fill="#FEFEFE"/>
<path d="M156.037 97.25C156.338 97.25 156.585 97.4746 156.585 97.7441C156.585 98.0137 156.338 98.2293 156.037 98.2293C155.731 98.2293 155.489 98.0137 155.489 97.7441C155.489 97.4746 155.731 97.25 156.037 97.25Z" fill="#FEFEFE"/>
<path d="M170.536 97.3129C170.842 97.3129 171.089 97.533 171.089 97.807C171.089 98.0765 170.842 98.2921 170.536 98.2921C170.236 98.2921 169.993 98.0765 169.993 97.807C169.993 97.533 170.236 97.3129 170.536 97.3129Z" fill="#FEFEFE"/>
<path d="M233.378 82.1257C233.679 82.1257 233.926 82.3413 233.926 82.6153C233.926 82.8848 233.679 83.1049 233.378 83.1049C233.073 83.1049 232.83 82.8848 232.83 82.6153C232.83 82.3413 233.073 82.1257 233.378 82.1257Z" fill="#FEFEFE"/>
<path d="M142.318 69.7415C142.619 69.7415 142.871 69.9616 142.871 70.2311C142.871 70.5006 142.619 70.7207 142.318 70.7207C142.017 70.7207 141.775 70.5006 141.775 70.2311C141.775 69.9616 142.017 69.7415 142.318 69.7415Z" fill="#FEFEFE"/>
<path d="M178.608 27.9172C178.914 27.9172 179.156 28.1373 179.156 28.4068C179.156 28.6764 178.914 28.901 178.608 28.901C178.307 28.901 178.06 28.6764 178.06 28.4068C178.06 28.1373 178.307 27.9172 178.608 27.9172Z" fill="#FEFEFE"/>
<path d="M230.589 63.4888C230.885 63.4888 231.132 63.709 231.132 63.9785C231.132 64.248 230.885 64.4681 230.589 64.4681C230.283 64.4681 230.041 64.248 230.041 63.9785C230.041 63.709 230.283 63.4888 230.589 63.4888Z" fill="#FEFEFE"/>
<path d="M148.167 137.619C148.468 137.619 148.715 137.839 148.715 138.108C148.715 138.382 148.468 138.603 148.167 138.603C147.861 138.603 147.619 138.382 147.619 138.108C147.619 137.839 147.861 137.619 148.167 137.619Z" fill="#FEFEFE"/>
<path d="M166.512 107.932C166.817 107.932 167.064 108.152 167.064 108.421C167.064 108.695 166.817 108.911 166.512 108.911C166.211 108.911 165.968 108.695 165.968 108.421C165.968 108.152 166.211 107.932 166.512 107.932Z" fill="#FEFEFE"/>
<path d="M179.071 111.593C179.372 111.593 179.619 111.808 179.619 112.078C179.619 112.352 179.372 112.567 179.071 112.567C178.766 112.567 178.523 112.352 178.523 112.078C178.523 111.808 178.766 111.593 179.071 111.593Z" fill="#FEFEFE"/>
<path d="M143.796 126.308C144.106 126.308 144.349 126.528 144.349 126.798C144.349 127.067 144.106 127.287 143.796 127.287C143.5 127.287 143.253 127.067 143.253 126.798C143.253 126.528 143.5 126.308 143.796 126.308Z" fill="#FEFEFE"/>
<path d="M174.543 77.6473C174.844 77.6473 175.091 77.8674 175.091 78.1414C175.091 78.4109 174.844 78.631 174.543 78.631C174.242 78.631 173.995 78.4109 173.995 78.1414C173.995 77.8674 174.242 77.6473 174.543 77.6473Z" fill="#FEFEFE"/>
<path d="M195.453 101.926C195.754 101.926 196.001 102.146 196.001 102.416C196.001 102.69 195.754 102.91 195.453 102.91C195.152 102.91 194.905 102.69 194.905 102.416C194.905 102.146 195.152 101.926 195.453 101.926Z" fill="#FEFEFE"/>
<path d="M180.005 89.1376C180.306 89.1376 180.553 89.3577 180.553 89.6272C180.553 89.8967 180.306 90.1168 180.005 90.1168C179.704 90.1168 179.457 89.8967 179.457 89.6272C179.457 89.3577 179.704 89.1376 180.005 89.1376Z" fill="#FEFEFE"/>
<path d="M186.928 73.2183C187.228 73.2183 187.476 73.4429 187.476 73.7124C187.476 73.982 187.228 74.2021 186.928 74.2021C186.622 74.2021 186.379 73.982 186.379 73.7124C186.379 73.4429 186.622 73.2183 186.928 73.2183Z" fill="#FEFEFE"/>
<path d="M164.576 75.6933C164.881 75.6933 165.124 75.9134 165.124 76.1829C165.124 76.4569 164.881 76.6725 164.576 76.6725C164.275 76.6725 164.028 76.4569 164.028 76.1829C164.028 75.9134 164.275 75.6933 164.576 75.6933Z" fill="#FEFEFE"/>
<path d="M162.559 52.9237C162.86 52.9237 163.102 53.1438 163.102 53.4134C163.102 53.6829 162.86 53.903 162.559 53.903C162.253 53.903 162.011 53.6829 162.011 53.4134C162.011 53.1438 162.253 52.9237 162.559 52.9237Z" fill="#FEFEFE"/>
<path d="M161.252 56.5668C161.553 56.5668 161.8 56.7869 161.8 57.0564C161.8 57.3304 161.553 57.546 161.252 57.546C160.955 57.546 160.704 57.3304 160.704 57.0564C160.704 56.7869 160.955 56.5668 161.252 56.5668Z" fill="#FEFEFE"/>
<path d="M139.812 52.7217C140.117 52.7217 140.364 52.9373 140.364 53.2113C140.364 53.4808 140.117 53.7009 139.812 53.7009C139.515 53.7009 139.264 53.4808 139.264 53.2113C139.264 52.9373 139.515 52.7217 139.812 52.7217Z" fill="#FEFEFE"/>
<path d="M127.113 52.7352C127.414 52.7352 127.661 52.9508 127.661 53.2248C127.661 53.4988 127.414 53.7144 127.113 53.7144C126.808 53.7144 126.565 53.4988 126.565 53.2248C126.565 52.9508 126.808 52.7352 127.113 52.7352Z" fill="#FEFEFE"/>
<path d="M127.392 127.162C127.693 127.162 127.94 127.382 127.94 127.656C127.94 127.925 127.693 128.141 127.392 128.141C127.091 128.141 126.844 127.925 126.844 127.656C126.844 127.382 127.091 127.162 127.392 127.162Z" fill="#FEFEFE"/>
<path d="M129.53 159.014C129.831 159.014 130.073 159.229 130.073 159.499C130.073 159.769 129.831 159.993 129.53 159.993C129.224 159.993 128.977 159.769 128.977 159.499C128.977 159.229 129.224 159.014 129.53 159.014Z" fill="#FEFEFE"/>
<path d="M197.51 96.3741C197.816 96.3741 198.058 96.5942 198.058 96.8637C198.058 97.1377 197.816 97.3578 197.51 97.3578C197.21 97.3578 196.962 97.1377 196.962 96.8637C196.962 96.5942 197.21 96.3741 197.51 96.3741Z" fill="#FEFEFE"/>
<path d="M166.79 136.469C167.096 136.469 167.343 136.689 167.343 136.959C167.343 137.233 167.096 137.453 166.79 137.453C166.494 137.453 166.247 137.233 166.247 136.959C166.247 136.689 166.494 136.469 166.79 136.469Z" fill="#FEFEFE"/>
<path d="M164.324 111.283C164.625 111.283 164.872 111.503 164.872 111.772C164.872 112.042 164.625 112.262 164.324 112.262C164.019 112.262 163.776 112.042 163.776 111.772C163.776 111.503 164.019 111.283 164.324 111.283Z" fill="#FEFEFE"/>
<path d="M215.626 44.4566C215.927 44.4566 216.174 44.6722 216.174 44.9417C216.174 45.2112 215.927 45.4358 215.626 45.4358C215.325 45.4358 215.078 45.2112 215.078 44.9417C215.078 44.6722 215.325 44.4566 215.626 44.4566Z" fill="#FEFEFE"/>
<path d="M212.257 44.6272C212.558 44.6272 212.805 44.8473 212.805 45.1169C212.805 45.3864 212.558 45.6065 212.257 45.6065C211.952 45.6065 211.709 45.3864 211.709 45.1169C211.709 44.8473 211.952 44.6272 212.257 44.6272Z" fill="#FEFEFE"/>
<path d="M184.911 52.6767C185.212 52.6767 185.459 52.8968 185.459 53.1663C185.459 53.4403 185.212 53.6559 184.911 53.6559C184.61 53.6559 184.363 53.4403 184.363 53.1663C184.363 52.8968 184.61 52.6767 184.911 52.6767Z" fill="#FEFEFE"/>
<path d="M166.974 72.2211C167.275 72.2211 167.518 72.4412 167.518 72.7152C167.518 72.9892 167.275 73.2048 166.974 73.2048C166.673 73.2048 166.426 72.9892 166.426 72.7152C166.426 72.4412 166.673 72.2211 166.974 72.2211Z" fill="#FEFEFE"/>
<path d="M162.033 106.054C162.334 106.054 162.581 106.274 162.581 106.544C162.581 106.809 162.334 107.033 162.033 107.033C161.728 107.033 161.485 106.809 161.485 106.544C161.485 106.274 161.728 106.054 162.033 106.054Z" fill="#FEFEFE"/>
<path d="M178.222 134.762C178.528 134.762 178.775 134.982 178.775 135.252C178.775 135.526 178.528 135.746 178.222 135.746C177.926 135.746 177.679 135.526 177.679 135.252C177.679 134.982 177.926 134.762 178.222 134.762Z" fill="#FEFEFE"/>
<path d="M232.103 102.766C232.404 102.766 232.651 102.982 232.651 103.256C232.651 103.525 232.404 103.745 232.103 103.745C231.797 103.745 231.555 103.525 231.555 103.256C231.555 102.982 231.797 102.766 232.103 102.766Z" fill="#FEFEFE"/>
<path d="M145.826 155.389C146.132 155.389 146.374 155.609 146.374 155.879C146.374 156.148 146.132 156.368 145.826 156.368C145.525 156.368 145.278 156.148 145.278 155.879C145.278 155.609 145.525 155.389 145.826 155.389Z" fill="#FEFEFE"/>
<path d="M223.891 49.4201L224.92 46.1186L225.953 49.4201H229.295L226.591 51.4595L227.624 54.761L224.92 52.7217L222.22 54.761L223.254 51.4595L220.549 49.4201H223.891Z" fill="#FEFEFE"/>
<path d="M211.22 87.2061L212.253 83.909L213.286 87.2061H216.624L213.924 89.2454L214.953 92.547L212.253 90.5076L209.553 92.547L210.582 89.2454L207.882 87.2061H211.22Z" fill="#FEFEFE"/>
<path d="M213.16 33.613L214.193 30.316L215.222 33.613H218.564L215.86 35.6569L216.893 38.9539L214.193 36.9146L211.489 38.9539L212.522 35.6569L209.823 33.613H213.16Z" fill="#FEFEFE"/>
<path d="M171.39 60.2502L172.419 56.9486L173.452 60.2502H176.789L174.09 62.2895L175.123 65.5866L172.419 63.5472L169.719 65.5866L170.752 62.2895L168.048 60.2502H171.39Z" fill="#FEFEFE"/>
<path d="M222.22 72.6838L223.249 69.3867L224.282 72.6838H227.62L224.92 74.7231L225.953 78.0247L223.249 75.9854L220.549 78.0247L221.583 74.7231L218.878 72.6838H222.22Z" fill="#FEFEFE"/>
<path d="M135.5 62.824L136.16 60.7083L136.825 62.824H138.967L137.233 64.1311L137.894 66.2513L136.16 64.9396L134.43 66.2513L135.091 64.1311L133.357 62.824H135.5Z" fill="#FEFEFE"/>
<path d="M124.845 24.3282L125.505 22.2125L126.17 24.3282H128.312L126.579 25.6353L127.239 27.7555L125.505 26.4483L124.701 27.0548V24.3282H124.845Z" fill="#FEFEFE"/>
<path d="M138.361 86.402L139.021 84.2863L139.686 86.402H141.829L140.095 87.7137L140.755 89.8293L139.021 88.5222L137.292 89.8293L137.952 87.7137L136.218 86.402H138.361Z" fill="#FEFEFE"/>
<path d="M174.179 121.983L174.84 119.867L175.5 121.983H177.643L175.909 123.29L176.574 125.41L174.84 124.098L173.106 125.41L173.766 123.29L172.037 121.983H174.179Z" fill="#FEFEFE"/>
<path d="M140.885 107.676L141.546 105.56L142.206 107.676H144.349L142.619 108.983L143.279 111.103L141.546 109.791L139.812 111.103L140.477 108.983L138.743 107.676H140.885Z" fill="#FEFEFE"/>
<path d="M196.298 82.867L196.958 80.7513L197.618 82.867H199.761L198.031 84.1741L198.692 86.2943L196.958 84.9827L195.224 86.2943L195.889 84.1741L194.155 82.867H196.298Z" fill="#FEFEFE"/>
</svg>
