<svg width="60" height="314" viewBox="0 0 60 314" fill="none" xmlns="http://www.w3.org/2000/svg">
<path d="M35.6234 100.977C33.9857 100.977 32.6729 102.358 32.6729 104.05C32.6729 105.742 33.9857 107.109 35.6234 107.109C37.2476 107.109 38.574 105.742 38.574 104.05C38.574 102.358 37.2476 100.977 35.6234 100.977Z" fill="#FEFEFE"/>
<path d="M3.65443 112.726C2.01673 112.726 0.703857 114.106 0.703857 115.798C0.703857 117.49 2.01673 118.857 3.65443 118.857C5.27859 118.857 6.605 117.49 6.605 115.798C6.605 114.106 5.27859 112.726 3.65443 112.726Z" fill="#FEFEFE"/>
<path d="M24.1596 220.489C22.5354 220.489 21.209 221.869 21.209 223.561C21.209 225.253 22.5354 226.62 24.1596 226.62C25.7973 226.62 27.1101 225.253 27.1101 223.561C27.1101 221.869 25.7973 220.489 24.1596 220.489Z" fill="#FEFEFE"/>
<path d="M33.8368 223.359C33.0518 223.359 32.4022 224.117 32.4022 225.064C32.4022 226.011 33.0518 226.783 33.8368 226.783C34.6083 226.783 35.258 226.011 35.258 225.064C35.258 224.117 34.6083 223.359 33.8368 223.359Z" fill="#FEFEFE"/>
<path d="M5.60345 86.6714C4.81844 86.6714 4.18231 87.4293 4.18231 88.3767C4.18231 89.3242 4.81844 90.0956 5.60345 90.0956C6.37493 90.0956 7.02461 89.3242 7.02461 88.3767C7.02461 87.4293 6.37493 86.6714 5.60345 86.6714Z" fill="#FEFEFE"/>
<path d="M8.48635 24.2084C7.70134 24.2084 7.06519 24.9799 7.06519 25.9273C7.06519 26.8612 7.70134 27.6327 8.48635 27.6327C9.27136 27.6327 9.92101 26.8612 9.92101 25.9273C9.92101 24.9799 9.27136 24.2084 8.48635 24.2084Z" fill="#FEFEFE"/>
<path d="M50.6334 293.631C49.0228 293.631 47.7234 294.998 47.7234 296.69C47.7234 298.382 49.0228 299.762 50.6334 299.762C52.2305 299.762 53.5434 298.382 53.5434 296.69C53.5434 294.998 52.2305 293.631 50.6334 293.631Z" fill="#FEFEFE"/>
<path d="M14.2927 291.56C12.6821 291.56 11.3828 292.927 11.3828 294.632C11.3828 296.324 12.6821 297.691 14.2927 297.691C15.8898 297.691 17.2027 296.324 17.2027 294.632C17.2027 292.927 15.8898 291.56 14.2927 291.56Z" fill="#FEFEFE"/>
<path d="M44.0827 169.801C42.4721 169.801 41.1727 171.182 41.1727 172.874C41.1727 174.566 42.4721 175.933 44.0827 175.933C45.6798 175.933 46.9927 174.566 46.9927 172.874C46.9927 171.182 45.6798 169.801 44.0827 169.801Z" fill="#FEFEFE"/>
<path d="M34.3919 199.781C32.7948 199.781 31.4954 201.148 31.4954 202.84C31.4954 204.531 32.7948 205.912 34.3919 205.912C36.0025 205.912 37.3018 204.531 37.3018 202.84C37.3018 201.148 36.0025 199.781 34.3919 199.781Z" fill="#FEFEFE"/>
<path d="M52.2576 240.521C50.6605 240.521 49.3611 241.887 49.3611 243.579C49.3611 245.271 50.6605 246.652 52.2576 246.652C53.8682 246.652 55.1675 245.271 55.1675 243.579C55.1675 241.887 53.8682 240.521 52.2576 240.521Z" fill="#FEFEFE"/>
<path d="M7.05169 240.71C5.44106 240.71 4.14172 242.09 4.14172 243.782C4.14172 245.474 5.44106 246.841 7.05169 246.841C8.66232 246.841 9.96165 245.474 9.96165 243.782C9.96165 242.09 8.66232 240.71 7.05169 240.71Z" fill="#FEFEFE"/>
<path d="M50.6334 119.087C49.0228 119.087 47.7234 120.467 47.7234 122.159C47.7234 123.851 49.0228 125.218 50.6334 125.218C52.2305 125.218 53.5434 123.851 53.5434 122.159C53.5434 120.467 52.2305 119.087 50.6334 119.087Z" fill="#FEFEFE"/>
<path d="M14.2927 117.03C12.6821 117.03 11.3828 118.397 11.3828 120.089C11.3828 121.781 12.6821 123.161 14.2927 123.161C15.8898 123.161 17.2027 121.781 17.2027 120.089C17.2027 118.397 15.8898 117.03 14.2927 117.03Z" fill="#FEFEFE"/>
<path d="M34.3919 25.2375C32.7948 25.2375 31.4954 26.6181 31.4954 28.3099C31.4954 30.0018 32.7948 31.3688 34.3919 31.3688C36.0025 31.3688 37.3018 30.0018 37.3018 28.3099C37.3018 26.6181 36.0025 25.2375 34.3919 25.2375Z" fill="#FEFEFE"/>
<path d="M52.2576 65.977C50.6605 65.977 49.3611 67.3575 49.3611 69.0493C49.3611 70.7411 50.6605 72.1082 52.2576 72.1082C53.8682 72.1082 55.1675 70.7411 55.1675 69.0493C55.1675 67.3575 53.8682 65.977 52.2576 65.977Z" fill="#FEFEFE"/>
<path d="M7.05169 66.1796C5.44106 66.1796 4.14172 67.5466 4.14172 69.2384C4.14172 70.9303 5.44106 72.3108 7.05169 72.3108C8.66232 72.3108 9.96165 70.9303 9.96165 69.2384C9.96165 67.5466 8.66232 66.1796 7.05169 66.1796Z" fill="#FEFEFE"/>
<path d="M30.1013 257.587C29.3163 257.587 28.6802 258.372 28.6802 259.306C28.6802 260.254 29.3163 261.025 30.1013 261.025C30.8864 261.025 31.5225 260.254 31.5225 259.306C31.5225 258.372 30.8864 257.587 30.1013 257.587Z" fill="#FEFEFE"/>
<path d="M7.18701 55.9072C6.40199 55.9072 5.76587 56.6651 5.76587 57.626C5.76587 58.5599 6.40199 59.3449 7.18701 59.3449C7.97202 59.3449 8.6217 58.5599 8.6217 57.626C8.6217 56.6651 7.97202 55.9072 7.18701 55.9072Z" fill="#FEFEFE"/>
<path d="M23.5235 138.834C22.7384 138.834 22.1023 139.592 22.1023 140.54C22.1023 141.487 22.7384 142.258 23.5235 142.258C24.3085 142.258 24.9446 141.487 24.9446 140.54C24.9446 139.592 24.3085 138.834 23.5235 138.834Z" fill="#FEFEFE"/>
<path d="M47.3445 190.171C46.5595 190.171 45.9233 190.929 45.9233 191.877C45.9233 192.824 46.5595 193.596 47.3445 193.596C48.1295 193.596 48.7656 192.824 48.7656 191.877C48.7656 190.929 48.1295 190.171 47.3445 190.171Z" fill="#FEFEFE"/>
<path d="M45.1113 104.821C44.3263 104.821 43.6902 105.579 43.6902 106.527C43.6902 107.474 44.3263 108.246 45.1113 108.246C45.8963 108.246 46.5325 107.474 46.5325 106.527C46.5325 105.579 45.8963 104.821 45.1113 104.821Z" fill="#FEFEFE"/>
<path d="M47.5475 22.8552C46.7625 22.8552 46.1264 23.6132 46.1264 24.5606C46.1264 25.508 46.7625 26.266 47.5475 26.266C48.3326 26.266 48.9687 25.508 48.9687 24.5606C48.9687 23.6132 48.3326 22.8552 47.5475 22.8552Z" fill="#FEFEFE"/>
<path d="M19.6119 53.6873C18.705 53.6873 17.9606 54.3505 17.9606 55.1626C17.9606 55.9747 18.705 56.6514 19.6119 56.6514C20.5187 56.6514 21.2496 55.9747 21.2496 55.1626C21.2496 54.3505 20.5187 53.6873 19.6119 53.6873Z" fill="#FEFEFE"/>
<path d="M25.9327 37.6754C25.0258 37.6754 24.2814 38.3522 24.2814 39.1643C24.2814 39.9764 25.0258 40.653 25.9327 40.653C26.853 40.653 27.5839 39.9764 27.5839 39.1643C27.5839 38.3522 26.853 37.6754 25.9327 37.6754Z" fill="#FEFEFE"/>
<path d="M13.4537 294.484C11.8566 294.484 10.5573 295.864 10.5573 297.556C10.5573 299.248 11.8566 300.615 13.4537 300.615C15.0643 300.615 16.3636 299.248 16.3636 297.556C16.3636 295.864 15.0643 294.484 13.4537 294.484Z" fill="#FEFEFE"/>
<path d="M45.8422 307.869C44.2316 307.869 42.9323 309.236 42.9323 310.927C42.9323 312.619 44.2316 314 45.8422 314C47.4528 314 48.7522 312.619 48.7522 310.927C48.7522 309.236 47.4528 307.869 45.8422 307.869Z" fill="#FEFEFE"/>
<path d="M56.6564 221.22C55.0458 221.22 53.7465 222.587 53.7465 224.279C53.7465 225.971 55.0458 227.351 56.6564 227.351C58.2535 227.351 59.5528 225.971 59.5528 224.279C59.5528 222.587 58.2535 221.22 56.6564 221.22Z" fill="#FEFEFE"/>
<path d="M13.4537 119.953C11.8566 119.953 10.5573 121.32 10.5573 123.012C10.5573 124.704 11.8566 126.084 13.4537 126.084C15.0643 126.084 16.3636 124.704 16.3636 123.012C16.3636 121.32 15.0643 119.953 13.4537 119.953Z" fill="#FEFEFE"/>
<path d="M45.8422 133.326C44.2316 133.326 42.9323 134.706 42.9323 136.398C42.9323 138.09 44.2316 139.457 45.8422 139.457C47.4528 139.457 48.7522 138.09 48.7522 136.398C48.7522 134.706 47.4528 133.326 45.8422 133.326Z" fill="#FEFEFE"/>
<path d="M56.6564 46.6764C55.0458 46.6764 53.7465 48.0569 53.7465 49.7488C53.7465 51.4406 55.0458 52.8076 56.6564 52.8076C58.2535 52.8076 59.5528 51.4406 59.5528 49.7488C59.5528 48.0569 58.2535 46.6764 56.6564 46.6764Z" fill="#FEFEFE"/>
<path d="M40.3336 7.15498L38.344 0.766602L36.3408 7.15498H29.8983L35.1092 11.0936L33.1196 17.4684L38.344 13.5298L43.5684 17.4684L41.5653 11.0936L46.7896 7.15498H40.3336Z" fill="#FEFEFE"/>
</svg>
